<?xml version="1.0" encoding="UTF-8"?><svg id="Layer_1" xmlns="http://www.w3.org/2000/svg" xmlns:xlink="http://www.w3.org/1999/xlink" viewBox="0 0 250.27 250.27"><defs><style>.cls-1{fill:url(#linear-gradient-5);}.cls-2{fill:url(#linear-gradient-4);}.cls-3{fill:url(#linear-gradient-3);}.cls-4{fill:url(#linear-gradient-2);}.cls-5{fill:url(#linear-gradient);}.cls-6{fill:#1e1d51;}.cls-7{fill:#9d0d16;}</style><linearGradient id="linear-gradient" x1="273" y1="431.07" x2="326.28" y2="575.74" gradientTransform="translate(-197.56 -361.78)" gradientUnits="userSpaceOnUse"><stop offset="0" stop-color="#fff"/><stop offset="1" stop-color="#53eeef"/></linearGradient><linearGradient id="linear-gradient-2" x1="325.32" y1="407.81" x2="381.09" y2="567.64" gradientTransform="translate(-197.56 -361.78)" gradientUnits="userSpaceOnUse"><stop offset="0" stop-color="#2f7fbe"/><stop offset="1" stop-color="#225d8b"/></linearGradient><linearGradient id="linear-gradient-3" x1="2411.56" y1="273.53" x2="2484.21" y2="414.51" gradientTransform="translate(-2406.09 -210.26) scale(1.02)" gradientUnits="userSpaceOnUse"><stop offset="0" stop-color="#d50d16"/><stop offset=".5" stop-color="#880d16"/><stop offset="1" stop-color="#520d16"/></linearGradient><linearGradient id="linear-gradient-4" x1="2382.17" y1="250.1" x2="2544.13" y2="388.44" gradientTransform="translate(-2342.87 -198.29)" gradientUnits="userSpaceOnUse"><stop offset="0" stop-color="#f8ffbf"/><stop offset=".51" stop-color="#f8e45e"/><stop offset=".75" stop-color="#f8d35e"/><stop offset="1" stop-color="#ee8e0a"/></linearGradient><linearGradient id="linear-gradient-5" x1="353.55" y1="451.93" x2="386.4" y2="549.61" gradientTransform="translate(-197.56 -361.78)" gradientUnits="userSpaceOnUse"><stop offset="0" stop-color="#157031"/><stop offset="1" stop-color="#0f5324"/></linearGradient></defs><path class="cls-6" d="M244.23,125.13c0,65.78-53.32,119.1-119.1,119.1S6.04,190.91,6.04,125.13,59.36,6.03,125.13,6.03s119.1,53.32,119.1,119.1Z"/><path class="cls-5" d="M124.67,41.54c-10.17.19-19.93,2-29,5.17v65.38h29V41.54ZM71.92,61.02c-15.12,12.84-25.79,30.54-29.42,50.6h29.42v-50.6h0ZM94.64,135.29v68.35c9.31,3.16,19.32,4.97,29.76,5.16v-73.51h-29.76ZM42.41,135.47c3.02,21.36,13.91,40.25,29.7,53.76v-53.76h-29.7Z"/><path class="cls-4" d="M126.78,42.38c44.94.88,81.11,37.6,81.11,82.75s-36.17,81.85-81.11,82.73V42.38h0Z"/><path class="cls-3" d="M93.51,47.75v66.2h30.71v19.54h-30.71v69.21c-7.1-2.93-13.71-6.79-19.68-11.44v-57.77h-31.99c-.27-2.72-.41-5.47-.41-8.26,0-3.83.26-7.59.76-11.28.04-.28.08-.56.12-.84-.04.28-.08.56-.12.84h31.64v-54.76c5.97-4.64,12.58-8.51,19.68-11.44Z"/><rect class="cls-7" x="147.73" y="70.25" width="28.47" height="3.97"/><path class="cls-2" d="M125.48,0C82.16-.07,39.97,22.38,16.77,62.57-17.77,122.38,2.75,198.96,62.57,233.5c59.82,34.54,136.39,14.02,170.93-45.8,34.53-59.82,14.01-136.39-45.8-170.93C168.07,5.44,146.64.03,125.48,0ZM125.13,6.03c65.74,0,119.1,53.36,119.1,119.1s-53.36,119.1-119.1,119.1S6.04,190.87,6.04,125.13,59.39,6.03,125.13,6.03ZM117.96,10.2v24.69h7.52v-8.32l6.08,8.32,9.9,1.45-8.58-11.09c1.88-.39,5.41-2.39,5.41-6.6,0-6.3-5.68-8.32-9.24-8.32l-11.09-.13ZM127.47,15.62c2.05,0,3.5,1.39,3.56,2.9.07,1.52-.98,3.17-3.3,3.17h-2.38l-.13-5.94,2.24-.13ZM162.93,17.02c-.13,0-.27,0-.4,0-6.49.13-11.98,4.07-13.29,10.49-1.31,6.4,4.5,13.97,11.61,15.59,7.71,1.75,14.9-1.91,16.53-10.22,1.39-7.12-3.84-14.1-11.61-15.58-.96-.18-1.9-.28-2.84-.28ZM71.9,23.54l-6.73,3.56,3.16,27.85,7.13-5.28-.92-4.22,7.79-4.62,3.56,2.64,8.19-3.3-22.18-16.63ZM163.1,23.84c.46,0,.92.04,1.39.13,3.75.71,6.12,3.95,5.47,7.39-.66,3.44-4.1,5.77-7.85,5.06-3.75-.71-5.6-4.34-4.94-7.78.57-3.01,2.72-4.81,5.92-4.8ZM72.16,32.38l5.67,4.36-4.09,2.38-1.58-6.73ZM197.69,35.95l-21.12,14.65,6.2,4.88,10.17-7.92-5.15,12.8,2.64,2.51,12.94-5.28-7.79,10.56,4.75,6.73,14.92-21.38-4.75-5.67-12.14,4.88,4.89-12.28-5.54-4.49ZM125.13,39.07c-47.49,0-86.07,38.58-86.07,86.07s38.58,86.07,86.07,86.07,86.07-38.58,86.07-86.07-38.58-86.07-86.07-86.07ZM46.29,41.88l-10.29,11.88,17.95,15.97,5.02-5.81-6.86-6.07,5.02-5.41-4.36-3.96-5.01,5.54-2.51-2.38,5.41-5.94-4.36-3.83ZM123.47,42.38v68.31h-26.78v-63.3c8.38-3.07,17.38-4.82,26.78-5ZM126.78,42.38c31.52.62,58.72,18.86,72.15,45.28-.17-.23-.35-.46-.53-.68-3.29-4.09-7.44-6.8-10.97-9.07-.28-.18-.61-.27-.94-.26-.51.01-.99.27-1.29.69-.82,1.14-2.37,2.09-4.4,2.09h-15.25c-.77,0-1.49.21-2.12.66-.63.45-1.18,1.27-1.18,2.23v1.74s-.02.04-.09.09c-.15.11-.44.24-.77.24h-13.14v-1.1s.01-.01.01-.01h0c0-2.01-1.02-3.83-2.59-4.97l-.03-.02h-.02s-5.74-3.91-5.74-3.91h0s0-.01,0-.01c-.92-.6-1.94-.89-2.9-.87-.32,0-.64.05-.94.12-1.21.3-2.2,1.06-2.83,2.04-1.27,1.96-.98,5.05,1.47,6.8l2.69,2.06.02.02h.02c.57.42.88.91.88,1.04l-.07,4.37h0v.02c0,.05,0,.07-.01.09-.08,0-.22-.02-.52-.12-.64-.21-1.12-.48-1.87-.76-.75-.28-1.71-.51-2.95-.51-2.18,0-3.98.99-5.1,2.3-.39.46-.72.95-.97,1.46v-51.03h0ZM93.39,48.68v65.32h30.09v19.28h-30.09v68.29c-6.96-2.89-13.43-6.7-19.28-11.28v-57.01h-31.34c-.26-2.68-.4-5.4-.4-8.15,0-3.78.25-7.49.74-11.14h31v-54.03c5.84-4.58,12.32-8.4,19.28-11.29ZM149.49,61.41c-1.35,0-2.45,1.1-2.45,2.45s1.1,2.45,2.45,2.45,2.45-1.1,2.45-2.45-1.1-2.45-2.45-2.45ZM155.73,61.41c-1.35,0-2.45,1.1-2.45,2.45s1.1,2.45,2.45,2.45,2.45-1.1,2.45-2.45-1.1-2.45-2.45-2.45ZM161.97,61.41c-1.35,0-2.45,1.1-2.45,2.45s1.1,2.45,2.45,2.45,2.45-1.1,2.45-2.45-1.1-2.45-2.45-2.45ZM168.2,61.41c-1.35,0-2.45,1.1-2.45,2.45s1.1,2.45,2.45,2.45,2.45-1.1,2.45-2.45-1.1-2.45-2.45-2.45ZM174.44,61.41c-1.35,0-2.45,1.1-2.45,2.45s1.1,2.45,2.45,2.45,2.45-1.1,2.45-2.45-1.1-2.45-2.45-2.45ZM70.8,62.71v47.98h-27.17c3.35-19.02,13.2-35.81,27.17-47.98ZM147.73,67.81v3.97h28.47v-3.97h-28.47ZM147.73,73.15v3.97h28.47v-3.97h-28.47ZM227,73.17l-22.44,9.11,6.33,14.78,5.94-2.51-3.3-7.53,2.77-1.32,3.17,7.26,5.41-2.25-3.03-6.99,2.64-1.19,3.17,7.52,5.54-2.24-6.2-14.65ZM22,75.94l-3.17,6.99,21.91,10.17,7-14.26-5.41-2.77-4.22,7.39-16.1-7.52ZM137.06,77.78c.26-.02.57.05.98.33l5.73,3.88c.71.52,1.19,1.48,1.19,2.26l-.07,5.37h0v.02c0,2.11,1.07,3.91,2.45,5.17.81.74,1.75,1.33,2.74,1.68-1,.36-1.93.94-2.74,1.68-1.38,1.26-2.45,3.06-2.45,5.17h0v.02l.07,5.39c0,.78-.52,1.75-1.24,2.27l-5.69,3.86c-.55.37-.89.36-1.21.28-.32-.08-.63-.31-.85-.63-.43-.65-.61-1.42.62-2.3l.02-.02.02-.02,2.74-2.09c.93-.66,2.22-1.78,2.22-3.69h0v-.03l-.07-4.39c0-.94-.34-1.99-1.28-2.71-.95-.72-2.3-.8-3.59-.38-.92.3-1.53.63-2.01.81-.48.18-.89.29-1.78.29-1.25,0-2.01-.47-2.59-1.14-.58-.67-.87-1.61-.87-2.23v-.33c0-.62.3-1.55.87-2.23.58-.67,1.34-1.14,2.59-1.14.89,0,1.3.11,1.78.29.48.18,1.09.51,2.01.81,1.29.42,2.65.34,3.59-.38.95-.72,1.28-1.8,1.28-2.73l.07-4.37h0v-.03c0-1.91-1.34-3.06-2.26-3.72l-2.7-2.06-.02-.02-.02-.02c-1.23-.88-1.05-1.64-.62-2.3.21-.33.53-.55.85-.63.08-.02.16-.03.25-.04ZM186.8,81.46c3.17,2.07,6.45,4.41,9.02,7.6,2.88,3.58,4.93,8.19,4.93,14.99,0,12.77-11.93,23.03-23.39,23.03h-27.72c-.79,0-1.59.36-2.08.92s-.68,1.23-.68,1.87c0,.64.21,1.3.7,1.85.48.55,1.28.91,2.06.91h27.06c9.73,0,14.92,6.26,14.92,13.66s-5.39,13.98-14.85,13.98h-27.88c-.68,0-1.39.31-1.84.8-.44.49-.63,1.09-.62,1.66,0,.57.19,1.16.63,1.65.44.49,1.16.79,1.83.79h20.76c4.47,0,8.27,4.35,8.27,8.51,0,2.11-.6,4.06-1.92,5.47-1.33,1.42-3.44,2.44-7,2.44h-12.45c-.5,0-1.02.11-1.5.46-.48.35-.87,1.01-.85,1.7.02.69.42,1.28.88,1.61.46.33.98.45,1.47.45h8.25c1.16,0,2.03.51,2.71,1.34.68.83,1.08,1.99,1.08,2.91,0,1.15-.43,2.22-1.18,2.89-.49.43-1.16.73-2.09.81.04-.48.05-1.02-.27-1.66-.38-.77-1.43-1.38-2.32-1.38h-4.95c-1.73,0-3.63-.65-5.04-1.88-1.41-1.23-2.37-2.97-2.37-5.47,0-2.3.96-3.95,2.33-5.13,1.37-1.18,3.18-1.8,4.52-1.8h12.17c.55,0,1.08-.09,1.6-.41.51-.31,1.04-.97,1.04-1.78,0-.81-.53-1.47-1.04-1.78-.51-.31-1.04-.4-1.59-.4h-19.07c-7.34,0-11.42-5.19-11.42-10.79,0-5,4.28-10.92,10.76-10.92h28.38c.77,0,1.57-.36,2.04-.91.47-.55.66-1.21.65-1.83s-.2-1.27-.67-1.81c-.47-.54-1.25-.91-2.03-.91h-28.91c-8.08,0-14.47-5.99-14.47-15.04,0-7.56,6.19-15.31,15.33-15.31h26.2c1.43,0,2.71-.64,3.5-1.58.79-.94,1.14-2.09,1.14-3.23,0-1.14-.33-2.3-1.12-3.25-.79-.94-2.08-1.58-3.52-1.58h-27.95l-.02-1.57c0-.97.53-1.94,1.37-2.71.84-.77,1.98-1.21,2.67-1.21h15.66c.61,0,1.21-.14,1.8-.55.59-.41,1.14-1.28,1.14-2.38s-.33-1.7-1.14-2.38c-.59-.41-1.19-.55-1.8-.55h-15.66c-.7,0-1.83-.44-2.67-1.21-.84-.77-1.37-1.76-1.37-2.73v-.96h19.13c1.06,0,2.02-.34,2.79-.92.76-.58,1.38-1.48,1.38-2.61v-1.42h9.3c2.41,0,4.51-.9,6.01-2.27ZM203.67,99c2.73,8.22,4.21,17.01,4.21,26.14,0,28.91-14.83,54.36-37.29,69.15.88-1.25,1.29-2.75,1.29-4.24,0-1.77-.63-3.56-1.83-5.01-.05-.06-.1-.11-.15-.17,3.77-.18,6.63-1.46,8.5-3.45,2.02-2.16,2.82-4.99,2.82-7.73,0-4.05-2.27-7.95-5.71-10.1h1.26c11.09,0,18.16-8.38,18.16-17.29,0-7.56-4.91-14.32-13.09-16.34,11.74-2.21,22.22-12.77,22.22-25.9,0-1.8-.14-3.48-.39-5.06ZM126.78,99.59c.25.51.57,1,.97,1.46,1.12,1.31,2.92,2.3,5.1,2.3,1.24,0,2.2-.23,2.95-.51.75-.28,1.23-.55,1.87-.76.3-.1.45-.12.52-.12,0,.02.01.04.01.09h0v.03l.07,4.39c0,.13-.31.6-.88,1.01h-.02s-.02.03-.02.03l-2.74,2.09c-2.45,1.75-2.7,4.81-1.43,6.77.54.83,1.34,1.51,2.31,1.87-2.65,3.32-4.17,7.47-4.17,11.64,0,9.19,5.96,16.16,13.87,17.91-5.92,2.02-9.63,7.94-9.63,13.5,0,7.29,5.77,14.1,14.73,14.1h.65c-.15.11-.29.22-.43.34-1.99,1.71-3.47,4.36-3.47,7.63s1.44,6.17,3.5,7.97c2.06,1.8,4.69,2.69,7.22,2.69h4.15c-.09.3-.18.58-.18.58-.2.46-.19.99.05,1.43.23.45.65.76,1.15.86,1.18.24,2.3.25,3.32.08-11.67,6.69-25.11,10.62-39.46,10.9v-108.28h0ZM37.58,102.47l-25.74,8.45-.92,7.66,24.42,13.2-.13-8.84-3.69-1.71.55-9.09,4.32-1.08,1.19-8.58ZM226.86,103.26c-8.62,0-12.93,7.06-12.93,14.12s5.11,14.13,12.93,14.13,13.07-6.4,13.07-14.13c0-7.59-4.58-14.12-13.07-14.12ZM148.26,108.22h27.92c.57,0,.77.15.98.4.2.24.35.66.35,1.11,0,.45-.16.87-.37,1.12-.21.25-.42.4-.96.4h-26.2c-.8,0-1.58.05-2.34.15.4-.81.63-1.7.63-2.64h0v-.53ZM227.03,110.92c3.8,0,6.01,3.55,6.01,6.47s-2.3,6.47-6.01,6.47-5.88-3.13-5.88-6.47,2.08-6.47,5.88-6.47ZM26.27,113.58l-.31,5.06-6.99-3.24,7.31-1.82ZM43.15,136.59h27.64v50.96c-14.7-12.8-24.84-30.71-27.64-50.96ZM96.7,136.59h26.78v71.27c-9.39-.19-18.4-1.94-26.78-5v-66.27Z"/><path class="cls-7" d="M137.06,77.78c.26-.02.57.05.98.33l5.73,3.88c.71.52,1.19,1.48,1.19,2.26l-.07,5.37h0v.02c0,2.11,1.07,3.91,2.45,5.17.81.74,1.75,1.33,2.74,1.68-1,.36-1.93.94-2.74,1.68-1.38,1.26-2.45,3.06-2.45,5.17h0v.02l.07,5.39c0,.78-.52,1.75-1.24,2.27l-5.69,3.86c-.55.37-.89.36-1.21.28-.32-.08-.63-.31-.85-.63-.43-.65-.61-1.42.62-2.3l.02-.02.02-.02,2.74-2.09c.93-.66,2.22-1.78,2.22-3.69h0v-.03l-.07-4.39c0-.94-.34-1.99-1.28-2.71-.95-.72-2.3-.8-3.59-.38-.92.3-1.53.63-2.01.81-.48.18-.89.29-1.78.29-1.25,0-2.01-.47-2.59-1.14-.58-.67-.87-1.61-.87-2.23v-.33c0-.62.3-1.55.87-2.23.58-.67,1.34-1.14,2.59-1.14.89,0,1.3.11,1.78.29.48.18,1.09.51,2.01.81,1.29.42,2.65.34,3.59-.38.95-.72,1.28-1.8,1.28-2.73l.07-4.37h0v-.03c0-1.91-1.34-3.06-2.26-3.72l-2.7-2.06-.02-.02-.02-.02c-1.23-.88-1.05-1.64-.62-2.3.21-.33.53-.55.85-.63.08-.02.16-.03.25-.04Z"/><path class="cls-1" d="M186.8,81.46c3.17,2.07,6.45,4.41,9.02,7.6,2.88,3.58,4.93,8.19,4.93,14.99,0,12.77-11.93,23.03-23.39,23.03h-27.72c-.79,0-1.59.36-2.08.92s-.68,1.23-.68,1.87c0,.64.21,1.3.7,1.85.48.55,1.28.91,2.06.91h27.06c9.73,0,14.92,6.26,14.92,13.66s-5.39,13.98-14.85,13.98h-27.88c-.68,0-1.39.31-1.84.8-.44.49-.63,1.09-.62,1.66,0,.57.19,1.16.63,1.65.44.49,1.16.79,1.83.79h20.76c4.47,0,8.27,4.35,8.27,8.51,0,2.11-.6,4.06-1.92,5.47-1.33,1.42-3.44,2.44-7,2.44h-12.45c-.5,0-1.02.11-1.5.46-.48.35-.87,1.01-.85,1.7.02.69.42,1.28.88,1.61.46.33.98.45,1.47.45h8.25c1.16,0,2.03.51,2.71,1.34.68.83,1.08,1.99,1.08,2.91,0,1.15-.43,2.22-1.18,2.89-.49.43-1.16.73-2.09.81.04-.48.05-1.02-.27-1.66-.38-.77-1.43-1.38-2.32-1.38h-4.95c-1.73,0-3.63-.65-5.04-1.88-1.41-1.23-2.37-2.97-2.37-5.47,0-2.3.96-3.95,2.33-5.13,1.37-1.18,3.18-1.8,4.52-1.8h12.17c.55,0,1.08-.09,1.6-.41.51-.31,1.04-.97,1.04-1.78,0-.81-.53-1.47-1.04-1.78-.51-.31-1.04-.4-1.59-.4h-19.07c-7.34,0-11.42-5.19-11.42-10.79,0-5,4.28-10.92,10.76-10.92h28.38c.77,0,1.57-.36,2.04-.91.47-.55.66-1.21.65-1.83s-.2-1.27-.67-1.81c-.47-.54-1.25-.91-2.03-.91h-28.91c-8.08,0-14.47-5.99-14.47-15.04,0-7.56,6.19-15.31,15.33-15.31h26.2c1.43,0,2.71-.64,3.5-1.58.79-.94,1.14-2.09,1.14-3.23,0-1.14-.33-2.3-1.12-3.25-.79-.94-2.08-1.58-3.52-1.58h-27.95l-.02-1.57c0-.97.53-1.94,1.37-2.71.84-.77,1.98-1.21,2.67-1.21h15.66c.61,0,1.21-.14,1.8-.55.59-.41,1.14-1.28,1.14-2.38s-.33-1.7-1.14-2.38c-.59-.41-1.19-.55-1.8-.55h-15.66c-.7,0-1.83-.44-2.67-1.21-.84-.77-1.37-1.76-1.37-2.73v-.96h19.13c1.06,0,2.02-.34,2.79-.92.76-.58,1.38-1.48,1.38-2.61v-1.42h9.3c2.41,0,4.51-.9,6.01-2.27Z"/></svg>