<?xml version="1.0" encoding="UTF-8"?><svg id="a" xmlns="http://www.w3.org/2000/svg" viewBox="0 0 463.61 103.82">
<title>Aston_Martin-logo</title><path d="M462.86,2.95c-1.65-2.71-4.54-2.89-5.85-2.95h-187.41c-5.31,0-9.61,1.61-12.78,4.78-2.27,2.28-3.84,5.23-4.65,8.79-.05.13-.27.84-1.85.84h-37.04c-1.6,0-1.82-.74-1.85-.83-.81-3.57-2.36-6.52-4.64-8.8-3.17-3.16-7.47-4.78-12.76-4.78H6.58C5.38.03,2.39.25.76,2.95-.01,4.26-.6,6.48,1.09,9.59c0,.02,3.42,5.72,3.42,5.72,1.41,2.28,3,3.13,6.37,3.35.06,0,1.62.16,2.72,2.07l3.49,6.15c.74,1.41,2.48,4.71,8.39,5.5.09.02,1.83.2,2.8,2.01,0,.03,4.31,7.61,4.31,7.61,1.26,2.43,3.02,3.34,6.22,4.33,0,0,78.39,23.02,78.39,23.02,2.68.78,3.76,3.79,3.76,3.79,1.88,4.84,4.31,8.82,16.54,12.51.01,0,64.13,17.5,64.13,17.5.8.26,8.16,2.5,13.68-2.85l15.04-14.35s.62-.63,1.47-.63,1.47.63,1.47.63c.04.05,15.05,14.36,15.05,14.36,5.53,5.34,12.89,3.11,13.69,2.84-.03,0,64.08-17.49,64.11-17.5,12.23-3.69,14.76-7.74,16.54-12.51.08-.2,1.12-3.02,3.75-3.78,0,0,11.84-3.49,78.36-23.02,3.23-1,4.99-1.91,6.25-4.34l4.29-7.53c.95-1.85,2.66-2.07,2.75-2.07,5.98-.81,7.72-4.11,8.48-5.52l3.48-6.15c1.09-1.91,2.64-2.07,2.71-2.07,3.36-.21,4.96-1.07,6.37-3.35-.03.01,3.42-5.72,3.42-5.72.73-1.34,1.08-2.62,1.08-3.83,0-1.01-.25-1.96-.75-2.81M255.58,14.34c.66-2.91,1.92-5.29,3.72-7.09,2.49-2.5,5.95-3.76,10.31-3.76h86.1c-2.97,2.22-4.52,5.01-4.61,5.22-1.01,1.85-2.24,4.05-3.73,6.49h-92.09c.19-.33.3-.86.3-.86M139,44s-.05-.04-.06-.05v-26.06h185.71v26.09h-185.66ZM136.22,21.45l-15.22,1.01c-1.1-1.58-2.09-3.11-3.04-4.57h18.25v3.55ZM136.22,24.28v3.71l-10.19,1.37c-1.1-1.42-2.15-2.83-3.13-4.19l13.31-.89ZM136.22,30.71v4.3l-4.73.98c-1.22-1.4-2.38-2.79-3.49-4.16l8.23-1.12ZM136.22,37.8v3.4c-.9-.95-1.79-1.91-2.66-2.87,1.09-.21,1.98-.4,2.66-.53M170.55,46.71h16.78l-23.43,16.77c-4.08-2.45-8.03-5.16-11.87-8.09,8.8-4.13,16.96-7.95,18.52-8.68M149.64,53.5c-.22-.18-5.56-4.67-7.83-6.79h22.33l-14.49,6.79ZM191.99,46.71h9.01l-23.09,24.08c-3.89-1.74-7.7-3.67-11.45-5.81,11.08-7.92,22.63-16.2,25.53-18.28M204.78,46.71h7.63l-17.78,30.11c-4.81-1.35-9.48-2.99-14.06-4.88,9.7-10.12,21.38-22.29,24.21-25.23M215.57,46.71h6.47l-9.38,33.83c-5.24-.7-10.35-1.69-15.33-2.98,6.81-11.54,15.94-26.98,18.23-30.85M248.05,46.71l18.23,30.85c-4.99,1.29-10.09,2.28-15.31,2.98l-9.39-33.83h6.47ZM251.22,46.71h7.65l24.18,25.23c-4.57,1.91-9.26,3.52-14.05,4.88l-17.78-30.11ZM262.62,46.71h9l25.54,18.28c-3.72,2.14-7.54,4.08-11.44,5.82-8.41-8.79-18.54-19.34-23.1-24.09M276.29,46.71h16.79l18.5,8.68c-3.83,2.94-7.8,5.64-11.86,8.09-8.93-6.38-18.35-13.13-23.43-16.77M299.47,46.71h22.36c-2.29,2.26-7.65,6.64-7.85,6.79-5.42-2.54-10.72-5.02-14.5-6.79M327.36,37.78l2.71.55c-.89.96-1.78,1.93-2.71,2.89v-3.45ZM327.36,35.02v-4.3l8.26,1.12c-1.1,1.37-2.26,2.76-3.48,4.16-2.12-.45-3.79-.79-4.78-.98M327.36,27.99v-3.71l13.37.89c-.99,1.36-2.04,2.77-3.15,4.19l-10.22-1.37ZM327.36,21.45v-3.55h18.32c-.94,1.46-1.98,2.98-3.05,4.57l-15.27-1.01ZM194.03,3.49c4.34,0,7.8,1.27,10.3,3.76,1.81,1.8,3.06,4.18,3.71,7.09,0,0,.13.51.3.86h-92.07c-1.42-2.31-3.73-6.49-3.73-6.49-.11-.21-1.67-3-4.62-5.22h86.11ZM11.14,15.19c-2.37-.17-2.88-.46-3.64-1.68.02,0-3.1-5.18-3.35-5.58-.51-.95-.69-1.66-.66-2.16.06-1.26.92-2.24,3.19-2.28h93.43c6.32,0,10.06,6.5,10.06,6.5.81,1.53,1.79,3.28,2.96,5.21H11.14ZM23.8,28.43c-2.39-.81-3.15-2.25-3.63-3.18-1.44-2.48-3.36-6.18-4.31-7.35h98.88c.95,1.51,2,3.12,3.13,4.78l-86.75,5.76c-1.37.16-5.33.48-7.31-.02M39.83,40.92c-3.16.43-4.14-.61-4.36-.86l-4.15-7.32c-.27-.54-.6-1.01-.95-1.41.53-.05,89.36-5.96,89.36-5.96.99,1.44,2.07,2.91,3.21,4.4l-83.11,11.15ZM59.98,48.91c-8.61-2.53-15.6-4.58-18.59-5.46l83.48-11.2c1.14,1.44,2.33,2.9,3.57,4.36l-57.12,11.74c-2.1.45-8.21,1.38-11.35.56M88.3,57.22c-6.39-1.87-13.11-3.84-19.45-5.7,1.69-.24,2.91-.49,3.01-.51,0,0,41.4-8.51,58.63-12.05,1.7,1.92,3.5,3.84,5.39,5.75l-38.27,11.82c-.09.03-5.31,1.76-9.3.7M118.14,65.98c-.83-.23-9.93-2.9-21.63-6.35,1.12-.26,1.85-.51,1.95-.53-.03.02,32.1-9.91,39.6-12.21,2.75,2.66,5.68,5.31,8.84,7.88l-20.7,9.69c-1.35.69-5.36,2.25-8.06,1.52M134.71,81.02c-8.09-3.04-9.32-6.09-10.46-9.03-.09-.27-.69-1.84-2.01-3.36,2.73-.51,5.01-1.66,5.16-1.73-.03.02,10.95-5.13,21.86-10.23,3.96,3.1,8.04,5.95,12.23,8.54l-19.34,13.83c-.07.06-4.09,3.04-7.44,1.98M157.94,87.61l-17.15-4.69c1.71-.73,2.87-1.61,2.98-1.69-.02.01,9.57-6.85,20.27-14.52,3.88,2.28,7.83,4.33,11.88,6.17l-11.28,11.73c-.98,1.04-4.13,3.59-6.7,2.99M181.73,94.09l-18.46-5.02c1.92-1.1,3.24-2.47,3.35-2.57,0,0,5.28-5.5,11.95-12.45,4.76,2.03,9.63,3.77,14.64,5.2l-6.1,10.32c-.75,1.33-3.24,4.86-5.37,4.51M208.8,94.45s-.74,3.33-3.05,4.73c-1.06.64-2.26.79-3.7.45l-16.13-4.4c1.97-1.6,3.29-3.9,3.54-4.33,0,.02,2.72-4.62,6.45-10.91,5.22,1.38,10.55,2.44,16.01,3.19l-3.12,11.25ZM212.88,97.78c-1.22,1.18-2.61,1.86-3.95,2.21,1.78-2.01,2.42-4.54,2.51-4.92l3.19-11.52c4.02.47,8.08.77,12.21.91-3.3,3.15-13.97,13.32-13.97,13.32M215.37,80.89l9.48-34.18h5.61v35.1c-5.13-.05-10.15-.36-15.09-.92M233.17,81.81v-35.1h5.6l9.49,34.18c-4.93.57-9.97.87-15.09.92M248.39,95.54s-8.67-8.29-11.62-11.09c4.13-.14,8.21-.43,12.21-.92l3.2,11.53c.09.39.73,2.92,2.5,4.92-2.44-.69-3.19-1.41-6.29-4.44M261.57,99.64c-1.44.34-2.65.18-3.7-.45-2.25-1.37-2.99-4.52-3.04-4.72l-3.12-11.28c5.46-.75,10.8-1.81,16.01-3.19l6.47,10.95c.23.41,1.54,2.69,3.5,4.29l-16.13,4.4ZM281.89,94.09c-2.14.35-4.62-3.18-5.34-4.48l-6.12-10.37c5.01-1.44,9.87-3.17,14.63-5.19l11.93,12.45c.12.1,1.43,1.47,3.35,2.57l-18.46,5.02ZM308.74,86.77l-3.06.84c-2.57.6-5.71-1.95-6.7-2.99,0,0-4.93-5.13-11.27-11.73,4.05-1.84,8.01-3.89,11.89-6.15l20.29,14.53c.09.06,1.24.94,2.95,1.66-4.5,1.24-14.09,3.85-14.09,3.85M339.38,71.96c-1.14,2.96-2.35,6-10.49,9.08-3.34,1.03-7.36-1.94-7.38-1.98-.02,0-9.06-6.49-19.38-13.86,4.19-2.59,8.28-5.43,12.25-8.54l21.9,10.25c.14.06,2.39,1.2,5.13,1.71-1.3,1.49-1.92,3.04-2.02,3.33M345.5,65.98c-2.72.73-6.7-.83-8.04-1.5,0,0-10.24-4.78-20.73-9.69,3.14-2.59,6.09-5.24,8.85-7.9l39.64,12.23c.09.03.8.26,1.9.53l-21.62,6.34ZM375.37,57.22c-4.02,1.07-9.25-.67-9.33-.7h-.05s-.01,0-.01,0l-38.24-11.81c1.9-1.91,3.7-3.83,5.4-5.75l58.6,12.05c.13.02,1.35.27,3.03.51l-19.4,5.7ZM403.67,48.9c-3.12.84-9.24-.1-11.36-.55-.03,0-39.1-8.03-57.13-11.74,1.26-1.46,2.45-2.92,3.58-4.36l83.48,11.2-18.57,5.45ZM432.27,32.78s-3.42,6.01-4.14,7.27c-.17.23-1.15,1.3-4.33.87l-83.11-11.15c1.15-1.49,2.22-2.96,3.22-4.4l88.31,5.87c.12,0,.49.05,1.03.09-.36.42-.7.89-.98,1.45M447,19.01l-3.55,6.24c-.5.92-1.24,2.35-3.61,3.18-1.98.5-5.95.18-7.32.02l-86.73-5.76c1.12-1.66,2.15-3.27,3.11-4.78h98.87c-.26.33-.5.68-.75,1.1M459.47,7.92c-.05.08-3.36,5.58-3.36,5.58-.62,1.03-1.03,1.51-3.61,1.68h-101.98c1.14-1.92,2.11-3.67,2.95-5.21.02-.06,3.63-6.5,10.04-6.5h93.43c.98.04,2.26.15,2.92,1.26.09.15.26.46.26,1.02,0,.5-.15,1.21-.66,2.16" style="fill:#5d5b59;"/><path d="M151.29,22.07h-.77l-7.94,17.76h2.16l.02-.11c.67-2.15,1.48-4.2,2.29-6.21,0,0,.11-.28.15-.41h6.16c.81,1.88,1.66,4.05,2.58,6.64l.04.09h2.96l-7.64-17.76ZM147.79,31.73c.18-.38,2.26-5.27,2.51-5.84.24.57,2.36,5.46,2.52,5.84h-5.03Z" style="fill:#5d5b59;"/><path d="M159.78,38.56l.06.07c.95,1.01,3.06,1.5,4.19,1.5,3.73,0,6.33-2.41,6.33-5.85,0-2.85-2.15-3.7-4.24-4.54-1.87-.71-3.63-1.41-3.63-3.52,0-1.6,1.27-2.76,2.99-2.76,1.38,0,2.42.73,2.95,2.07l.05.11h.45l.75-2.25-.09-.08c-1-.91-2.56-1.24-3.65-1.24-3.49,0-5.72,1.95-5.72,4.95s2.28,3.96,4.29,4.75c1.82.71,3.53,1.38,3.53,3.48,0,1.97-1.46,3.49-3.31,3.49-1.7,0-2.83-.72-3.93-2.51l-.05-.08h-.46l-.53,2.41Z" style="fill:#5d5b59;"/><path d="M184.39,22.44h-13.07v1.83l.17-.03c1.5-.16,2.96-.29,5.32-.29v15.93h2.51v-15.93c1.75,0,3.47.1,5.05.29l.17.03v-1.83h-.14Z" style="fill:#5d5b59;"/><path d="M193.37,22.07c-5.53,0-9.41,3.72-9.41,9.09s3.77,8.98,9.36,8.98,9.69-3.77,9.69-9.37c0-6-4.85-8.69-9.65-8.69M198.01,37.03c-1.22,1.3-2.78,1.98-4.61,1.98-4.05,0-6.68-2.98-6.68-7.57,0-5.08,2.63-8.23,6.89-8.23,2.01,0,3.91.88,5.08,2.36,1.29,1.65,1.55,3.35,1.55,5.4,0,.12.02.23.02.36,0,1.66-.68,4.04-2.24,5.71" style="fill:#5d5b59;"/><path d="M220.4,22.44h-1.55v12.86h-.04c-.1-.11-11.88-12.86-11.88-12.86h-1.19v17.39h1.7v-13.45h.05c.08.09,10.75,11.88,10.75,11.88l1.34,1.57h.97v-17.39h-.14Z" style="fill:#5d5b59;"/><path d="M248.49,22.44h-.61l-4.22,7.63s-2.66,4.85-2.91,5.29c-2.59-4.33-4.93-8.9-6.93-12.83l-.05-.09h-.89v.14c-.25,2.58-1.74,13.03-2.4,17.06l-.03.18h2.12v-.16c0-2.44.42-6.09.89-9.97,0,0,.18-1.71.27-2.39.28.55,3.55,6.78,4.81,9.33l1.42,2.91h.47l.04-.1c1.45-3.34,3.5-7.17,6.32-12.18.4,2.99.93,8.98,1.22,12.41v.14h2.68l-.03-.18c-.59-4.21-1.26-9.79-2.02-17.06v-.14h-.15Z" style="fill:#5d5b59;"/><path d="M260.42,22.07h-.78l-7.94,17.76h2.17l.03-.11c.66-2.18,1.47-4.24,2.28-6.25,0,0,.11-.26.15-.37h6.13c.85,1.92,1.73,4.14,2.6,6.64l.04.09h2.96l-7.63-17.76ZM256.94,31.73c.15-.38,2.24-5.27,2.48-5.84.27.57,2.37,5.46,2.55,5.84h-5.03Z" style="fill:#5d5b59;"/><path d="M275.69,31.24c3.13-.64,5.02-2.43,5.02-4.85,0-2.66-1.88-3.95-5.71-3.95h-5.46v17.38h2.5v-8.33h.73c.09.11,1.95,2.3,1.95,2.3,0,0,2.95,3.81,2.95,3.81l1.62,2.22h3.27s-6.58-8.22-6.87-8.58M272.04,30.24v-6.58c1.03-.04,2.63-.12,3.51.03,1.73.27,2.6,1.28,2.6,2.99s-1.15,3.03-3.07,3.42c-1.08.21-2.4.17-3.05.14" style="fill:#5d5b59;"/><path d="M295.16,22.44h-13.04v1.83l.17-.03c1.48-.16,2.95-.29,5.29-.29v15.93h2.53v-15.93c1.76,0,3.46.1,5.05.29l.19.03v-1.83h-.18Z" style="fill:#5d5b59;"/><rect x="297.4" y="22.44" width="2.36" height="17.39" style="fill:#5d5b59;"/><path d="M316.55,22.44v12.86h-.03c-.09-.11-11.87-12.86-11.87-12.86h-1.18v17.39h1.7v-13.45h.03c.09.09,10.74,11.88,10.74,11.88.02,0,1.35,1.57,1.35,1.57h.98v-17.39h-1.71Z" style="fill:#5d5b59;"/></svg>