<?xml version="1.0" encoding="UTF-8"?>
<svg version="1.1" xmlns="http://www.w3.org/2000/svg" width="499" height="128">
<path d="M0 0 C-2.41846158 9.43200017 -9.12624353 18.20820858 -17.28125 23.47265625 C-27.14835322 28.8277455 -36.90825084 29.26192221 -47.89453125 28.92700195 C-52.73516334 28.79955776 -52.73516334 28.79955776 -57 31 C-51.555 30.01 -51.555 30.01 -46 29 C-48.56166801 31.56166801 -49.55303976 32.44554406 -52.6875 33.6875 C-53.780625 34.120625 -54.87375 34.55375 -56 35 C-52.04 35 -48.08 35 -44 35 C-46.95183101 37.95183101 -49.95511947 38.08663988 -54 39 C-50.7 39.66 -47.4 40.32 -44 41 C-44 41.33 -44 41.66 -44 42 C-47.63 42.33 -51.26 42.66 -55 43 C-49.64916711 46.26995343 -45.9822323 47.67300938 -39.72265625 46.75390625 C-35.43715449 45.56724651 -31.65703822 43.58933853 -27.76171875 41.47265625 C-25.21881933 40.11668301 -22.69375408 39.01567777 -20 38 C-26.93804035 51.32103748 -37.68351396 59.45585938 -52 64 C-55.31018332 64.74912131 -58.4410509 65.14853342 -61.83105469 65.24951172 C-63.22840851 65.29493607 -63.22840851 65.29493607 -64.6539917 65.34127808 C-65.64989319 65.37045319 -66.64579468 65.3996283 -67.671875 65.4296875 C-69.8021024 65.50335692 -71.93231025 65.57759358 -74.0625 65.65234375 C-77.40416179 65.76559549 -80.74578186 65.87487474 -84.08789062 65.97412109 C-87.32474964 66.07222223 -90.56066792 66.18723213 -93.796875 66.3046875 C-94.78467957 66.32981415 -95.77248413 66.3549408 -96.79022217 66.38082886 C-111.6090777 66.95506465 -119.82879643 73.38099406 -129.625 83.9375 C-131.76527489 86.27818771 -133.88745851 88.63427549 -136 91 C-136.64839844 91.72316406 -137.29679687 92.44632812 -137.96484375 93.19140625 C-140.56989997 96.14040632 -143.11713469 99.13757409 -145.6640625 102.13671875 C-152.58784914 110.27498515 -159.69462836 118.20242247 -167 126 C-167 122.51984008 -166.21149186 121.2349876 -164.5078125 118.23828125 C-163.70512939 116.81926514 -163.70512939 116.81926514 -162.88623047 115.37158203 C-162.30502441 114.36208496 -161.72381836 113.35258789 -161.125 112.3125 C-160.53219238 111.27464355 -159.93938477 110.23678711 -159.32861328 109.16748047 C-154.81778183 101.31574234 -150.15668447 93.58031245 -145.2578125 85.96533203 C-143.89679214 83.83873771 -142.5574453 81.69930436 -141.21875 79.55859375 C-132.49745412 65.70007567 -123.72075286 53.35933914 -107 49 C-105.04442677 48.69036757 -103.08572885 48.40010226 -101.125 48.125 C-94.96281424 47.215568 -90.41886419 45.02818881 -85 42 C-88.63 42 -92.26 42 -96 42 C-95.505 41.01 -95.505 41.01 -95 40 C-92.71484375 39.5859375 -92.71484375 39.5859375 -89.9375 39.375 C-89.01839844 39.30023438 -88.09929687 39.22546875 -87.15234375 39.1484375 C-86.44207031 39.09945312 -85.73179688 39.05046875 -85 39 C-85 38.34 -85 37.68 -85 37 C-85.71027344 36.95101562 -86.42054687 36.90203125 -87.15234375 36.8515625 C-88.07144531 36.77679688 -88.99054688 36.70203125 -89.9375 36.625 C-90.85402344 36.55539063 -91.77054687 36.48578125 -92.71484375 36.4140625 C-93.46894531 36.27742188 -94.22304687 36.14078125 -95 36 C-95.33 35.34 -95.66 34.68 -96 34 C-92.37 34 -88.74 34 -85 34 C-90.2985288 30.91022095 -90.2985288 30.91022095 -96.21484375 30.12109375 C-105.28352123 32.76134162 -113.51759411 39.43806084 -119 47 C-119.99 46.505 -119.99 46.505 -121 46 C-103.96724512 14.57159617 -103.96724512 14.57159617 -92.125 10.328125 C-83.3565439 7.94258915 -74.03246505 8.78208842 -65.06884766 9.36328125 C-56.11282651 9.93777974 -47.16115073 10.20296087 -38.1875 10.3125 C-36.98407959 10.34214844 -35.78065918 10.37179687 -34.54077148 10.40234375 C-23.01403488 10.47822434 -13.02070801 8.15281269 -3.70703125 1.171875 C-2 0 -2 0 0 0 Z M-83 27 C-81.515 27.99 -81.515 27.99 -80 29 C-80 28.34 -80 27.68 -80 27 C-80.99 27 -81.98 27 -83 27 Z M-90.25 27.25 C-91.61125 27.62125 -91.61125 27.62125 -93 28 C-89.73454239 29.88391785 -86.71888239 30.49287967 -83 31 C-85.80908223 27.407892 -85.80908223 27.407892 -90.25 27.25 Z M-73 35 C-73.33 36.65 -73.66 38.3 -74 40 C-71.525 41.485 -71.525 41.485 -69 43 C-68.01 42.01 -67.02 41.02 -66 40 C-66.66 38.35 -67.32 36.7 -68 35 C-69.65 35 -71.3 35 -73 35 Z M-88.625 45.5 C-89.85089844 45.91765625 -89.85089844 45.91765625 -91.1015625 46.34375 C-91.72804688 46.5603125 -92.35453125 46.776875 -93 47 C-93 47.33 -93 47.66 -93 48 C-88.97869285 48.27635161 -88.97869285 48.27635161 -85 48 C-82.94729537 46.15811388 -82.94729537 46.15811388 -82 44 C-84.46620289 44 -86.29344126 44.70060843 -88.625 45.5 Z M-59 45 C-57.33454661 47.16641665 -57.33454661 47.16641665 -55 49 C-52.29294488 48.85974801 -52.29294488 48.85974801 -50 48 C-53.18762365 45.87491756 -55.26512223 45.4979837 -59 45 Z M-62 47 C-61.67 47.66 -61.34 48.32 -61 49 C-60.34 48.67 -59.68 48.34 -59 48 C-59.99 47.67 -60.98 47.34 -62 47 Z " fill="#EF7A00" transform="translate(169,1)"/>
<path d="M0 0 C0.99 0.495 0.99 0.495 2 1 C-6.72141567 14.25265398 -17.05143243 22.73613072 -32.64099121 26.55670166 C-37.05040286 27.38530598 -41.48955993 27.41772854 -45.96484375 27.52734375 C-48.08529434 27.59807127 -50.20573683 27.66904228 -52.32617188 27.74023438 C-55.63490094 27.84112373 -58.94368006 27.93767067 -62.25268555 28.02905273 C-65.46971685 28.12111823 -68.68588848 28.22968141 -71.90234375 28.33984375 C-73.36993385 28.37282814 -73.36993385 28.37282814 -74.86717224 28.40647888 C-88.61109568 28.89710847 -96.65764097 34.28576384 -105.9074707 44.08666992 C-108.63765045 47.02874421 -111.32666658 50.006274 -114 53 C-114.64839844 53.72316406 -115.29679687 54.44632813 -115.96484375 55.19140625 C-118.56989997 58.14040632 -121.11713469 61.13757409 -123.6640625 64.13671875 C-130.58784914 72.27498515 -137.69462836 80.20242247 -145 88 C-145 84.51984008 -144.21149186 83.2349876 -142.5078125 80.23828125 C-141.70512939 78.81926514 -141.70512939 78.81926514 -140.88623047 77.37158203 C-140.30502441 76.36208496 -139.72381836 75.35258789 -139.125 74.3125 C-138.53219238 73.27464355 -137.93938477 72.23678711 -137.32861328 71.16748047 C-132.81778183 63.31574234 -128.15668447 55.58031245 -123.2578125 47.96533203 C-121.89679214 45.83873771 -120.5574453 43.69930436 -119.21875 41.55859375 C-109.83166433 26.64210677 -100.61228882 14.64670668 -82.5635376 10.43089294 C-80.07619403 10.01280709 -77.81457502 9.89191182 -75.29589844 9.91821289 C-74.39015076 9.9247438 -73.48440308 9.93127472 -72.5512085 9.93800354 C-71.09500092 9.95515663 -71.09500092 9.95515663 -69.609375 9.97265625 C-67.51562677 9.98532197 -65.42187667 9.99768144 -63.328125 10.00976562 C-60.05723092 10.03436064 -56.78643711 10.0621232 -53.515625 10.09594727 C-25.40490785 10.68875197 -25.40490785 10.68875197 0 0 Z " fill="#07A228" transform="translate(147,39)"/>
<path d="M0 0 C-1.61692014 6.67409589 -3.30498104 13.25119507 -5.546875 19.74609375 C-6.16636988 22.06843434 -6.16636988 22.06843434 -5.453125 24.66015625 C-5.30359375 25.43230469 -5.1540625 26.20445313 -5 27 C-7.47955781 29.47955781 -8.94717939 29.25542915 -12.33348083 29.30354309 C-13.0574556 29.30263168 -13.78143036 29.30172028 -14.52734375 29.30078125 C-15.64442467 29.30720894 -15.64442467 29.30720894 -16.78407288 29.31376648 C-18.36018863 29.31951282 -19.9363309 29.3200078 -21.51245117 29.31567383 C-23.92477692 29.31251665 -26.33587312 29.33595756 -28.74804688 29.36132812 C-30.27864428 29.36360137 -31.809245 29.36430449 -33.33984375 29.36328125 C-34.06179428 29.372491 -34.78374481 29.38170074 -35.52757263 29.39118958 C-38.46636546 29.36403159 -40.51202317 29.32793144 -42.99047852 27.66235352 C-44.67589393 24.88702255 -43.72828396 22.68519317 -43 19.625 C-42.7525 18.50351562 -42.505 17.38203125 -42.25 16.2265625 C-40.7123489 12.2575006 -39.49598688 10.46318553 -36 8 C-32.70081374 7.41636017 -29.52427101 7.5257624 -26.1875 7.6875 C-25.30384766 7.71005859 -24.42019531 7.73261719 -23.50976562 7.75585938 C-21.3391109 7.81452572 -19.1693331 7.90420021 -17 8 C-17.66 6.02 -18.32 4.04 -19 2 C-16.58374679 1.66340751 -14.16707192 1.33061612 -11.75 1 C-10.72712891 0.85691406 -10.72712891 0.85691406 -9.68359375 0.7109375 C-6.40628012 0.2654774 -3.31615847 0 0 0 Z M-25 11 C-25.6700834 13.12392506 -26.33596797 15.24917524 -27 17.375 C-27.37125 18.55835938 -27.7425 19.74171875 -28.125 20.9609375 C-29.09222606 23.79323439 -29.09222606 23.79323439 -29 26 C-27.02 26 -25.04 26 -23 26 C-20.94637945 20.91059256 -19.56820748 16.45479185 -19 11 C-20.98 11 -22.96 11 -25 11 Z " fill="#7D8082" transform="translate(437,21)"/>
<path d="M0 0 C0.721875 0.185625 1.44375 0.37125 2.1875 0.5625 C4.89983828 1.15730259 4.89983828 1.15730259 7.15625 0.53125 C10.88135774 -0.16464925 14.53980121 -0.10632939 18.3125 -0.0625 C19.05306641 -0.05798828 19.79363281 -0.05347656 20.55664062 -0.04882812 C22.37112899 -0.03712175 24.18557534 -0.01918898 26 0 C26 0.66 26 1.32 26 2 C27.98 1.67 29.96 1.34 32 1 C31.01 1.99 30.02 2.98 29 4 C34.445 3.01 34.445 3.01 40 2 C37.43833199 4.56166801 36.44696024 5.44554406 33.3125 6.6875 C32.219375 7.120625 31.12625 7.55375 30 8 C33.96 8 37.92 8 42 8 C39.04816899 10.95183101 36.04488053 11.08663988 32 12 C36.95 12.99 36.95 12.99 42 14 C42 14.33 42 14.66 42 15 C38.37 15.33 34.74 15.66 31 16 C33.64 17.32 36.28 18.64 39 20 C34.74938644 21.41687119 32.28148375 20.19320039 28 19 C28.99 19.99 29.98 20.98 31 22 C30.0925 21.814375 29.185 21.62875 28.25 21.4375 C25.11332155 21.01525482 23.93817817 21.2641126 21 22 C19.18934409 22.0917471 17.37547189 22.13002905 15.5625 22.125 C14.17224609 22.12886719 14.17224609 22.12886719 12.75390625 22.1328125 C8.70624317 21.93760605 4.91046212 21.01382351 1 20 C1.33 19.34 1.66 18.68 2 18 C-3.445 19.485 -3.445 19.485 -9 21 C-6.43833199 18.43833199 -5.44696024 17.55445594 -2.3125 16.3125 C-1.219375 15.879375 -0.12625 15.44625 1 15 C-2.63 15 -6.26 15 -10 15 C-9.67 14.34 -9.34 13.68 -9 13 C-6.71484375 12.5859375 -6.71484375 12.5859375 -3.9375 12.375 C-2.55884766 12.26285156 -2.55884766 12.26285156 -1.15234375 12.1484375 C-0.08693359 12.07496094 -0.08693359 12.07496094 1 12 C1 11.34 1 10.68 1 10 C0.28972656 9.95101562 -0.42054687 9.90203125 -1.15234375 9.8515625 C-2.07144531 9.77679688 -2.99054688 9.70203125 -3.9375 9.625 C-4.85402344 9.55539063 -5.77054687 9.48578125 -6.71484375 9.4140625 C-7.84599609 9.20910156 -7.84599609 9.20910156 -9 9 C-9.33 8.34 -9.66 7.68 -10 7 C-6.37 7 -2.74 7 1 7 C-3.455 5.02 -3.455 5.02 -8 3 C-7.67 2.34 -7.34 1.68 -7 1 C-2.545 1.99 -2.545 1.99 2 3 C1.34 2.01 0.68 1.02 0 0 Z M13 8 C12.67 9.65 12.34 11.3 12 13 C14.475 14.485 14.475 14.485 17 16 C17.99 15.01 18.98 14.02 20 13 C19.34 11.35 18.68 9.7 18 8 C16.35 8 14.7 8 13 8 Z " fill="#F3CF04" transform="translate(83,28)"/>
<path d="M0 0 C5.09031755 -0.04936158 10.18049643 -0.08570105 15.27099609 -0.10986328 C17.00344265 -0.11993376 18.73587216 -0.13359089 20.46826172 -0.15087891 C22.95544639 -0.17508162 25.44240675 -0.18647239 27.9296875 -0.1953125 C28.70682098 -0.20563507 29.48395447 -0.21595764 30.28463745 -0.22659302 C32.19125493 -0.22699271 34.09731036 -0.1223214 36 0 C38 2 38 2 38.01171875 4.20703125 C37.90472656 5.06683594 37.79773438 5.92664062 37.6875 6.8125 C37.58179688 7.70582031 37.47609375 8.59914063 37.3671875 9.51953125 C37 12 37 12 36.3125 15 C36.209375 15.66 36.10625 16.32 36 17 C36.66 17.66 37.32 18.32 38 19 C34.20836973 21.52775351 31.19125969 21.22443035 26.8125 21.125 C26.06291016 21.11597656 25.31332031 21.10695313 24.54101562 21.09765625 C22.69387346 21.07412578 20.84689588 21.03825561 19 21 C19.54597625 16.71170107 20.26341173 12.6856932 21.5625 8.5625 C21.83191406 7.69753906 22.10132813 6.83257812 22.37890625 5.94140625 C22.58386719 5.30074219 22.78882813 4.66007812 23 4 C21.35 4 19.7 4 18 4 C17.65066406 5.14339844 17.30132812 6.28679688 16.94140625 7.46484375 C16.48193537 8.95577988 16.02229099 10.44666255 15.5625 11.9375 C15.33240234 12.69224609 15.10230469 13.44699219 14.86523438 14.22460938 C13.11328125 19.88671875 13.11328125 19.88671875 12 21 C9.46950598 21.07313567 6.96695163 21.09247527 4.4375 21.0625 C3.72658203 21.05798828 3.01566406 21.05347656 2.28320312 21.04882812 C0.52209987 21.03700864 -1.23896036 21.01907263 -3 21 C-2.69964844 19.90300781 -2.39929688 18.80601563 -2.08984375 17.67578125 C-1.70516385 16.22150358 -1.3210806 14.767068 -0.9375 13.3125 C-0.73833984 12.59126953 -0.53917969 11.87003906 -0.33398438 11.12695312 C-0.15029297 10.42119141 0.03339844 9.71542969 0.22265625 8.98828125 C0.48187866 8.02208862 0.48187866 8.02208862 0.74633789 7.03637695 C1.0609661 4.51056953 0.59915331 2.45820844 0 0 Z " fill="#7D8082" transform="translate(352,29)"/>
<path d="M0 0 C0.65689316 -0.00191345 1.31378632 -0.0038269 1.99058533 -0.00579834 C3.37662134 -0.00715727 4.7626702 -0.00348119 6.14868164 0.00488281 C8.27323862 0.01560428 10.39695336 0.00496959 12.52148438 -0.0078125 C13.86849145 -0.00649119 15.21549801 -0.00392938 16.5625 0 C17.78976807 0.00225586 19.01703613 0.00451172 20.28149414 0.00683594 C23.21484375 0.265625 23.21484375 0.265625 25.21484375 2.265625 C25.46054248 8.0102953 23.91565503 13.26412264 21.21484375 18.265625 C17.87193108 21.56751737 15.18443853 21.65081851 10.5859375 21.6640625 C8.66297852 21.66986328 8.66297852 21.66986328 6.70117188 21.67578125 C5.70452515 21.66635498 5.70452515 21.66635498 4.68774414 21.65673828 C2.65508152 21.64064667 0.62439874 21.65661735 -1.40820312 21.67578125 C-2.68888672 21.67191406 -3.96957031 21.66804688 -5.2890625 21.6640625 C-6.46283447 21.66067871 -7.63660645 21.65729492 -8.84594727 21.65380859 C-11.78515625 21.265625 -11.78515625 21.265625 -13.69360352 19.88256836 C-14.78515625 18.265625 -14.78515625 18.265625 -14.74609375 15.99609375 C-12.52941352 6.37570155 -10.99892882 0.02019873 0 0 Z M4.21484375 3.265625 C3.54476035 5.38955006 2.87887578 7.51480024 2.21484375 9.640625 C1.84359375 10.82398438 1.47234375 12.00734375 1.08984375 13.2265625 C0.12261769 16.05885939 0.12261769 16.05885939 0.21484375 18.265625 C2.19484375 18.265625 4.17484375 18.265625 6.21484375 18.265625 C6.88704726 16.33003901 7.55242452 14.39208128 8.21484375 12.453125 C8.58609375 11.37417969 8.95734375 10.29523437 9.33984375 9.18359375 C10.35845887 6.29441698 10.35845887 6.29441698 10.21484375 3.265625 C8.23484375 3.265625 6.25484375 3.265625 4.21484375 3.265625 Z " fill="#7D8082" transform="translate(170.78515625,28.734375)"/>
<path d="M0 0 C4.66307014 -0.04937279 9.32598873 -0.08570627 13.98925781 -0.10986328 C15.57619883 -0.11993188 17.16312125 -0.13358767 18.75 -0.15087891 C21.02869247 -0.17509001 23.30714006 -0.18647422 25.5859375 -0.1953125 C26.29744965 -0.20563507 27.00896179 -0.21595764 27.74203491 -0.22659302 C29.49631665 -0.22699422 31.24996709 -0.12202209 33 0 C33.66 0.66 34.32 1.32 35 2 C34.76926791 4.72263864 34.44612983 7.31352257 34 10 C33.25004498 14.98227857 33.25004498 14.98227857 33 20 C29.95471781 21.52264109 26.77854754 21.16285537 23.4375 21.16796875 C22.69040771 21.17129715 21.94331543 21.17462555 21.17358398 21.17805481 C19.59326799 21.18311966 18.01294129 21.18546327 16.43261719 21.18530273 C14.00958757 21.18749134 11.58701164 21.20565701 9.1640625 21.22460938 C7.6302099 21.22754292 6.09635512 21.22952798 4.5625 21.23046875 C3.83538818 21.23765427 3.10827637 21.24483978 2.35913086 21.25224304 C-2.77117197 21.22882803 -2.77117197 21.22882803 -5 19 C-4.81309322 13.29934323 -4.16217509 10.16217509 0 6 C2.296537 4.8517315 3.58313167 4.88438825 6.1328125 4.90234375 C6.93847656 4.90556641 7.74414062 4.90878906 8.57421875 4.91210938 C9.41597656 4.92048828 10.25773437 4.92886719 11.125 4.9375 C12.39923828 4.94426758 12.39923828 4.94426758 13.69921875 4.95117188 C15.79950909 4.96297126 17.8997633 4.98090694 20 5 C20 4.34 20 3.68 20 3 C18.08574219 3.05220703 18.08574219 3.05220703 16.1328125 3.10546875 C14.46355479 3.13360231 12.7942829 3.16090293 11.125 3.1875 C10.28324219 3.21263672 9.44148438 3.23777344 8.57421875 3.26367188 C7.76855469 3.27333984 6.96289062 3.28300781 6.1328125 3.29296875 C5.01737061 3.31653442 5.01737061 3.31653442 3.87939453 3.34057617 C2.94909424 3.17199097 2.94909424 3.17199097 2 3 C1.34 2.01 0.68 1.02 0 0 Z M13 8 C10.70954986 12.81209901 10.70954986 12.81209901 10 18 C11.98 18 13.96 18 16 18 C16.99 14.7 17.98 11.4 19 8 C17.02 8 15.04 8 13 8 Z " fill="#7D8082" transform="translate(464,29)"/>
<path d="M0 0 C0.65406326 0.00233139 1.30812653 0.00466278 1.98200989 0.00706482 C3.35622309 0.01676225 4.73039873 0.03845756 6.10424805 0.0715332 C8.21137328 0.12119609 10.31616884 0.13303052 12.42382812 0.13867188 C22.70781982 0.24688232 22.70781982 0.24688232 25.01953125 2.55859375 C25.27318548 6.93835679 24.78324281 10.57315948 22.08203125 14.05859375 C19.11432836 16.21692313 17.50096743 16.68170246 13.88671875 16.65625 C13.08105469 16.65302734 12.27539062 16.64980469 11.4453125 16.64648438 C10.60355469 16.63810547 9.76179688 16.62972656 8.89453125 16.62109375 C8.04503906 16.61658203 7.19554687 16.61207031 6.3203125 16.60742188 C4.22002216 16.59562249 2.11976795 16.57768681 0.01953125 16.55859375 C0.01953125 17.21859375 0.01953125 17.87859375 0.01953125 18.55859375 C6.94953125 18.55859375 13.87953125 18.55859375 21.01953125 18.55859375 C17.34472728 22.23339772 16.31391424 21.94306342 11.26953125 21.95703125 C10.61500977 21.95990143 9.96048828 21.96277161 9.28613281 21.96572876 C7.90428806 21.96776743 6.52241432 21.96225121 5.140625 21.94970703 C3.02668675 21.93364811 0.91466012 21.94955976 -1.19921875 21.96875 C-2.54297297 21.96676753 -3.88672599 21.96292377 -5.23046875 21.95703125 C-6.4525 21.95364746 -7.67453125 21.95026367 -8.93359375 21.94677734 C-11.98046875 21.55859375 -11.98046875 21.55859375 -13.9140625 20.21875 C-14.98046875 18.55859375 -14.98046875 18.55859375 -14.79296875 15.59765625 C-14.52484375 14.47101562 -14.25671875 13.344375 -13.98046875 12.18359375 C-13.73296875 11.06210937 -13.48546875 9.940625 -13.23046875 8.78515625 C-10.62529139 2.06054218 -7.06798356 -0.07808118 0 0 Z M4.01953125 3.55859375 C3.35953125 6.85859375 2.69953125 10.15859375 2.01953125 13.55859375 C3.99953125 13.55859375 5.97953125 13.55859375 8.01953125 13.55859375 C8.67953125 10.25859375 9.33953125 6.95859375 10.01953125 3.55859375 C8.03953125 3.55859375 6.05953125 3.55859375 4.01953125 3.55859375 Z " fill="#7D8082" transform="translate(298.98046875,28.44140625)"/>
<path d="M0 0 C1.37256805 -0.01658201 2.74504894 -0.04390271 4.1171875 -0.08203125 C6.09672756 -0.13673439 8.07715741 -0.15552681 10.05737305 -0.17333984 C11.24387451 -0.19315918 12.43037598 -0.21297852 13.65283203 -0.23339844 C16.6237793 0.35009766 16.6237793 0.35009766 18.59667969 2.6953125 C19.6237793 5.35009766 19.6237793 5.35009766 18.6237793 8.35009766 C15.85925897 9.73235782 13.57764299 9.44535153 10.4987793 9.41259766 C9.40307617 9.40357422 8.30737305 9.39455078 7.1784668 9.38525391 C5.91389648 9.36785156 5.91389648 9.36785156 4.6237793 9.35009766 C4.2937793 7.70009766 3.9637793 6.05009766 3.6237793 4.35009766 C1.9737793 4.35009766 0.3237793 4.35009766 -1.3762207 4.35009766 C-2.6962207 8.64009766 -4.0162207 12.93009766 -5.3762207 17.35009766 C-3.7262207 17.35009766 -2.0762207 17.35009766 -0.3762207 17.35009766 C0.2837793 16.03009766 0.9437793 14.71009766 1.6237793 13.35009766 C6.5737793 13.35009766 11.5237793 13.35009766 16.6237793 13.35009766 C14.6237793 19.35009766 14.6237793 19.35009766 12.91308594 20.7019043 C8.10002837 22.06467148 3.06392476 21.76178165 -1.90332031 21.77563477 C-3.93651029 21.78758466 -5.96671292 21.83684154 -7.99926758 21.88720703 C-9.27995117 21.89429687 -10.56063477 21.90138672 -11.88012695 21.90869141 C-13.64078491 21.92887329 -13.64078491 21.92887329 -15.43701172 21.94946289 C-18.3762207 21.35009766 -18.3762207 21.35009766 -20.31201172 19.00317383 C-21.74264054 15.43661192 -21.06443147 13.78952688 -19.7512207 10.22509766 C-19.38770508 9.19126953 -19.02418945 8.15744141 -18.6496582 7.09228516 C-14.79929802 -1.19898126 -8.17611445 0.07246766 0 0 Z " fill="#7A8284" transform="translate(263.376220703125,28.64990234375)"/>
<path d="M0 0 C5.09031755 -0.04936158 10.18049643 -0.08570105 15.27099609 -0.10986328 C17.00344265 -0.11993376 18.73587216 -0.13359089 20.46826172 -0.15087891 C22.95544639 -0.17508162 25.44240675 -0.18647239 27.9296875 -0.1953125 C28.70682098 -0.20563507 29.48395447 -0.21595764 30.28463745 -0.22659302 C32.19125493 -0.22699271 34.09731036 -0.1223214 36 0 C36.66 0.66 37.32 1.32 38 2 C37.96712417 4.72869407 37.43602229 7.2966618 37 10 C37.66 10 38.32 10 39 10 C39 10.66 39 11.32 39 12 C35.07142246 13.85131483 32.01224888 14.22004943 27.6875 14.125 C26.61886719 14.10695313 25.55023438 14.08890625 24.44921875 14.0703125 C23.64097656 14.04710937 22.83273438 14.02390625 22 14 C20.93488173 9.62780122 21.33565598 7.20981134 23 3 C21.02 3 19.04 3 17 3 C16.72285156 4.13179687 16.44570312 5.26359375 16.16015625 6.4296875 C15.79439512 7.91148902 15.42850289 9.39325818 15.0625 10.875 C14.88009766 11.62136719 14.69769531 12.36773437 14.50976562 13.13671875 C13.11328125 18.7734375 13.11328125 18.7734375 12 21 C7.05 21 2.1 21 -3 21 C-2.05564286 16.14330614 -1.11891582 11.33491697 0.1875 6.5625 C1.30977579 3.06389337 1.30977579 3.06389337 0 0 Z " fill="#7A8285" transform="translate(202,29)"/>
<path d="M0 0 C5.94 0 11.88 0 18 0 C16.82307733 6.05274518 15.54736698 12.0315845 14 18 C14.66 18.33 15.32 18.66 16 19 C12.20836973 21.52775351 9.19125969 21.22443035 4.8125 21.125 C4.06291016 21.11597656 3.31332031 21.10695313 2.54101562 21.09765625 C0.69387346 21.07412578 -1.15310412 21.03825561 -3 21 C-2.69964844 19.90300781 -2.39929688 18.80601563 -2.08984375 17.67578125 C-1.70516385 16.22150358 -1.3210806 14.767068 -0.9375 13.3125 C-0.73833984 12.59126953 -0.53917969 11.87003906 -0.33398438 11.12695312 C-0.15029297 10.42119141 0.03339844 9.71542969 0.22265625 8.98828125 C0.48187866 8.02208862 0.48187866 8.02208862 0.74633789 7.03637695 C1.17212385 4.4920583 1.17212385 4.4920583 0 0 Z " fill="#7D8183" transform="translate(439,29)"/>
<path d="M0 0 C5.94 0 11.88 0 18 0 C17.28472467 5.00692732 16.45102145 9.83607437 15.40234375 14.765625 C14.91139017 17.11370049 14.91139017 17.11370049 15 20 C11.81175432 21.59412284 8.37103338 21.10174735 4.875 21.0625 C4.12089844 21.05798828 3.36679687 21.05347656 2.58984375 21.04882812 C0.72652873 21.03703499 -1.13674555 21.01909942 -3 21 C-2.69964844 19.98679687 -2.39929688 18.97359375 -2.08984375 17.9296875 C-1.70507672 16.5783106 -1.32099854 15.22673743 -0.9375 13.875 C-0.73833984 13.20984375 -0.53917969 12.5446875 -0.33398438 11.859375 C0.9797428 7.15761457 0.84691451 5.08148704 0 0 Z " fill="#D31045" transform="translate(329,29)"/>
<path d="M0 0 C3.64588169 -0.02682987 7.29156846 -0.04675569 10.9375 -0.0625 C12.49887695 -0.07506836 12.49887695 -0.07506836 14.09179688 -0.08789062 C15.57583008 -0.09272461 15.57583008 -0.09272461 17.08984375 -0.09765625 C18.46450806 -0.10551147 18.46450806 -0.10551147 19.86694336 -0.11352539 C22 0 22 0 23 1 C23.07205511 2.68608966 23.08386068 4.37500659 23.0625 6.0625 C23.05347656 6.98160156 23.04445313 7.90070313 23.03515625 8.84765625 C23.02355469 9.55792969 23.01195312 10.26820312 23 11 C22.01 10.67 21.02 10.34 20 10 C20 7.36 20 4.72 20 2 C19.01 2 18.02 2 17 2 C16.67 4.97 16.34 7.94 16 11 C15.34 11 14.68 11 14 11 C13.67 8.36 13.34 5.72 13 3 C12.34 3 11.68 3 11 3 C10.67 5.64 10.34 8.28 10 11 C9.01 10.67 8.02 10.34 7 10 C7 7.36 7 4.72 7 2 C6.01 2.33 5.02 2.66 4 3 C3.67 5.31 3.34 7.62 3 10 C2.01 10.33 1.02 10.66 0 11 C0 7.37 0 3.74 0 0 Z " fill="#7F8485" transform="translate(262,61)"/>
<path d="M0 0 C2 1.1875 2 1.1875 3 3 C3 5.5 3 5.5 2 8 C-0.91846721 10.48928085 -2.79433092 10.97872389 -6.625 11.375 C-10 11 -10 11 -12 9.8125 C-13 8 -13 8 -13 5.5 C-12 3 -12 3 -9.875 1.1875 C-6.32461082 -0.27896509 -3.80844784 -0.42316087 0 0 Z " fill="#7D8082" transform="translate(457,16)"/>
<path d="M0 0 C2 1.1875 2 1.1875 3 3 C3 5.5 3 5.5 2 8 C-0.88557041 10.46122182 -2.85589436 10.98012336 -6.625 11.5 C-10 11 -10 11 -12.0625 8.75 C-13 6 -13 6 -12.4375 3.8125 C-9.06436931 -0.44057783 -5.21887735 -0.4744434 0 0 Z " fill="#D31045" transform="translate(347,16)"/>
<path d="M0 0 C2.29109597 -0.08075665 4.58299267 -0.13907731 6.875 -0.1875 C8.78925781 -0.23970703 8.78925781 -0.23970703 10.7421875 -0.29296875 C11.81726563 -0.19628906 12.89234375 -0.09960938 14 0 C16.4294516 3.6441774 16.16179575 5.71241272 16 10 C15.01 10.33 14.02 10.66 13 11 C13 8.03 13 5.06 13 2 C12.01 2.33 11.02 2.66 10 3 C9.67 5.64 9.34 8.28 9 11 C8.01 10.67 7.02 10.34 6 10 C6 7.36 6 4.72 6 2 C5.01 2 4.02 2 3 2 C2.67 4.97 2.34 7.94 2 11 C1.34 11 0.68 11 0 11 C0 7.37 0 3.74 0 0 Z " fill="#7B8485" transform="translate(393,61)"/>
<path d="M0 0 C2.31 0 4.62 0 7 0 C9.09350689 3.4019487 9.17942163 6.05272412 9 10 C5.67465243 11.10844919 3.37817425 10.84454356 0 10 C-0.33 8.35 -0.66 6.7 -1 5 C0.32 4.34 1.64 3.68 3 3 C2.01 3 1.02 3 0 3 C0 2.01 0 1.02 0 0 Z M2 6 C2.33 6.99 2.66 7.98 3 9 C3.99 8.01 4.98 7.02 6 6 C4.68 6 3.36 6 2 6 Z " fill="#7B8686" transform="translate(305,61)"/>
<path d="M0 0 C0.66 1.98 1.32 3.96 2 6 C-0.31 6.33 -2.62 6.66 -5 7 C-2.03 7.495 -2.03 7.495 1 8 C0.67 8.99 0.34 9.98 0 11 C-3.375 10.6875 -3.375 10.6875 -7 10 C-9 7 -9 7 -8.75 3.875 C-8.37875 2.451875 -8.37875 2.451875 -8 1 C-5.29120665 -0.35439668 -2.99066732 -0.06501451 0 0 Z M-5 2 C-5.33 2.66 -5.66 3.32 -6 4 C-4.35 4 -2.7 4 -1 4 C-1.33 3.34 -1.66 2.68 -2 2 C-2.99 2 -3.98 2 -5 2 Z " fill="#798284" transform="translate(378,61)"/>
<path d="M0 0 C2.33294775 -0.04241723 4.66702567 -0.04092937 7 0 C8 1 8 1 8.09765625 3.28515625 C8.08605469 4.20167969 8.07445312 5.11820312 8.0625 6.0625 C8.05347656 6.98160156 8.04445313 7.90070313 8.03515625 8.84765625 C8.02355469 9.55792969 8.01195312 10.26820312 8 11 C1.25 11.125 1.25 11.125 -1 10 C-1 8.35 -1 6.7 -1 5 C0.32 4.34 1.64 3.68 3 3 C2.01 3 1.02 3 0 3 C0 2.01 0 1.02 0 0 Z M2 6 C1.67 6.66 1.34 7.32 1 8 C1.99 8.33 2.98 8.66 4 9 C4.66 8.01 5.32 7.02 6 6 C4.68 6 3.36 6 2 6 Z " fill="#7A8484" transform="translate(382,61)"/>
<path d="M0 0 C0.969375 0.165 1.93875 0.33 2.9375 0.5 C4.9375 3.5 4.9375 3.5 4.9375 6.5 C2.6275 6.83 0.3175 7.16 -2.0625 7.5 C0.9075 7.995 0.9075 7.995 3.9375 8.5 C3.6075 9.49 3.2775 10.48 2.9375 11.5 C0.6275 11.17 -1.6825 10.84 -4.0625 10.5 C-5.25 8.3125 -5.25 8.3125 -6.0625 5.5 C-4.70946755 1.69459623 -4.04955994 0.66115264 0 0 Z M-2.0625 2.5 C-2.3925 3.16 -2.7225 3.82 -3.0625 4.5 C-1.4125 4.5 0.2375 4.5 1.9375 4.5 C1.6075 3.84 1.2775 3.18 0.9375 2.5 C-0.0525 2.5 -1.0425 2.5 -2.0625 2.5 Z " fill="#7D8182" transform="translate(350.0625,60.5)"/>
<path d="M0 0 C3 0.25 3 0.25 5 2.25 C5.33302312 5.3804173 5.47671956 7.42898298 3.875 10.1875 C2 11.25 2 11.25 -1.125 11.0625 C-2.07375 10.794375 -3.0225 10.52625 -4 10.25 C-5.38125018 7.48749964 -5.19079306 5.30268901 -5 2.25 C-3 0.25 -3 0.25 0 0 Z M-1 2.25 C-2.29633621 3.31645115 -2.29633621 3.31645115 -2.0625 5.8125 C-2.041875 6.616875 -2.02125 7.42125 -2 8.25 C-0.68 8.25 0.64 8.25 2 8.25 C2 6.6 2 4.95 2 3.25 C1.01 2.92 0.02 2.59 -1 2.25 Z " fill="#778889" transform="translate(255,60.75)"/>
<path d="M0 0 C6.0546875 -0.1953125 6.0546875 -0.1953125 8 0 C10 2 10 2 10.1953125 4.1640625 C10.17210937 4.97617188 10.14890625 5.78828125 10.125 6.625 C10.10695313 7.44226563 10.08890625 8.25953125 10.0703125 9.1015625 C10.03550781 10.04128906 10.03550781 10.04128906 10 11 C9.01 11 8.02 11 7 11 C7 8.03 7 5.06 7 2 C6.01 2.33 5.02 2.66 4 3 C3.67 5.64 3.34 8.28 3 11 C2.01 10.67 1.02 10.34 0 10 C0 6.7 0 3.4 0 0 Z " fill="#7B8586" transform="translate(333,61)"/>
<path d="M0 0 C0.99 0 1.98 0 3 0 C3 2.64 3 5.28 3 8 C4.32 8 5.64 8 7 8 C7 5.36 7 2.72 7 0 C7.99 0 8.98 0 10 0 C10 3.63 10 7.26 10 11 C3.69181722 11.35706695 3.69181722 11.35706695 1.0625 10 C-0.67278693 6.73357754 -0.17982715 3.65648548 0 0 Z " fill="#7B8585" transform="translate(287,61)"/>
<path d="M0 0 C3.125 0.3125 3.125 0.3125 5.0625 2 C6.40733625 4.92699654 6.15615662 6.29834989 5.125 9.3125 C3.125 11.3125 3.125 11.3125 0.6875 11.6875 C-1.875 11.3125 -1.875 11.3125 -3.75 9.6875 C-5.24936896 6.52216552 -4.76264916 4.64118435 -3.875 1.3125 C-2.875 0.3125 -2.875 0.3125 0 0 Z M-0.875 2.3125 C-1.205 3.9625 -1.535 5.6125 -1.875 7.3125 C-0.39 8.3025 -0.39 8.3025 1.125 9.3125 C1.785 8.6525 2.445 7.9925 3.125 7.3125 C2.80458603 4.70969432 2.80458603 4.70969432 2.125 2.3125 C1.135 2.3125 0.145 2.3125 -0.875 2.3125 Z " fill="#7C8788" transform="translate(325.875,60.6875)"/>
<path d="M0 0 C0 0.66 0 1.32 0 2 C-0.99 2 -1.98 2 -3 2 C-3 2.66 -3 3.32 -3 4 C-2.01 4 -1.02 4 0 4 C0 4.66 0 5.32 0 6 C-0.99 6 -1.98 6 -3 6 C-3 8.97 -3 11.94 -3 15 C-3.99 14.67 -4.98 14.34 -6 14 C-6.25028811 12.41986783 -6.47440946 10.83557694 -6.6875 9.25 C-6.81511719 8.36828125 -6.94273437 7.4865625 -7.07421875 6.578125 C-6.9247839 1.38723012 -5.02856449 0 0 0 Z " fill="#738B8C" transform="translate(250,57)"/>
<path d="M0 0 C0.66 0 1.32 0 2 0 C2 0.99 2 1.98 2 3 C3.32 3 4.64 3 6 3 C6 3.66 6 4.32 6 5 C4.68 5 3.36 5 2 5 C2 6.98 2 8.96 2 11 C3.32 11 4.64 11 6 11 C5.67 11.99 5.34 12.98 5 14 C3.35 13.67 1.7 13.34 0 13 C0 10.36 0 7.72 0 5 C-0.66 5 -1.32 5 -2 5 C-2 4.34 -2 3.68 -2 3 C-1.34 3 -0.68 3 0 3 C0 2.01 0 1.02 0 0 Z " fill="#798686" transform="translate(363,58)"/>
<path d="M0 0 C2.97 0 5.94 0 9 0 C8.34 1.32 7.68 2.64 7 4 C7 3.34 7 2.68 7 2 C6.01 2.33 5.02 2.66 4 3 C3.67 5.31 3.34 7.62 3 10 C2.01 10.33 1.02 10.66 0 11 C0 7.37 0 3.74 0 0 Z " fill="#7C8383" transform="translate(262,61)"/>
<path d="M0 0 C0.99 0 1.98 0 3 0 C3 4.95 3 9.9 3 15 C2.01 14.67 1.02 14.34 0 14 C0 9.38 0 4.76 0 0 Z " fill="#7A8586" transform="translate(299,57)"/>
<path d="M0 0 C1.67542976 0.28604898 3.34385343 0.61781233 5 1 C5 4.3 5 7.6 5 11 C4.01 10.67 3.02 10.34 2 10 C2 7.36 2 4.72 2 2 C1.01 1.67 0.02 1.34 -1 1 C-0.67 0.67 -0.34 0.34 0 0 Z " fill="#686D6D" transform="translate(280,61)"/>
<path d="M0 0 C1.32 0 2.64 0 4 0 C4.33 0.99 4.66 1.98 5 3 C4.34 3.66 3.68 4.32 3 5 C0.875 4.625 0.875 4.625 -1 4 C-0.67 2.68 -0.34 1.36 0 0 Z " fill="#F3CF05" transform="translate(97,37)"/>
<path d="" fill="#009F20" transform="translate(0,0)"/>
<path d="" fill="#FF8000" transform="translate(0,0)"/>
</svg>
