<?xml version="1.0" encoding="UTF-8"?>
<svg version="1.1" xmlns="http://www.w3.org/2000/svg" width="330" height="110">
<path d="M0 0 C2.22741539 0.72791353 4.45049386 1.46487349 6.66796875 2.22265625 C8.42746187 2.80915396 10.20982496 3.32766093 12 3.8125 C14 5 14 5 15.125 7.75 C14.92784115 12.87613013 11.79314079 15.27089995 8.25 18.6875 C6.73204695 20.09507279 6.73204695 20.09507279 6 23 C6.66 23.99 7.32 24.98 8 26 C12.92256271 26.70223972 15.3753235 25.4830985 19.3125 22.625 C23.61166793 19.70833247 26.87162645 18.3359495 31.9453125 17.5234375 C34.95003846 16.75797499 36.9177677 15.06023251 39.31640625 13.16015625 C41.9479874 11.3467465 44.94056096 10.83439247 48 10 C50.0133653 8.68693567 52.01231606 7.35162508 54 6 C56.96026739 4.57004033 59.97608188 3.28818912 63 2 C63.66 1.67 64.32 1.34 65 1 C69.22510093 0.40700338 71.65408938 0.18619358 75.3515625 2.421875 C77.6379586 4.21122847 79.82141815 6.08167263 82 8 C82.86625 8.598125 83.7325 9.19625 84.625 9.8125 C92.07481368 16.6741705 94.76463896 23.93154162 97.07495117 33.50830078 C98.49872378 39.05919689 100.3498424 42.73162455 104.64453125 46.6875 C105.09183594 47.120625 105.53914063 47.55375 106 48 C106 48.66 106 49.32 106 50 C105.01 50.495 105.01 50.495 104 51 C104 51.66 104 52.32 104 53 C101.25 53.1875 101.25 53.1875 98 53 C97.40574219 52.4740625 96.81148438 51.948125 96.19921875 51.40625 C93.99953671 49.6721383 93.99953671 49.6721383 90.94140625 50.36328125 C89.82636719 50.67652344 88.71132812 50.98976562 87.5625 51.3125 C83.56652377 52.40988861 80.15354058 53.20961794 76 53 C73.79534884 47.73333333 73.79534884 47.73333333 74.75 44.3125 C76 42 76 42 78 39 C74.535 39.495 74.535 39.495 71 40 C71.33 40.53625 71.66 41.0725 72 41.625 C73.2706326 44.64275242 73.33854923 46.74992741 73 50 C70.35819995 54.50460777 67.34445643 55.16575851 62.51953125 56.47265625 C59.62478536 57.0785333 56.94831531 57.23276174 54 57 C53.34 55.68 52.68 54.36 52 53 C50.68 53 49.36 53 48 53 C47.34 51.02 46.68 49.04 46 47 C49.96 46.34 53.92 45.68 58 45 C57.01 44.01 56.02 43.02 55 42 C54.67 42.33 54.34 42.66 54 43 C52.65732587 43.08631874 51.31025678 43.10706473 49.96484375 43.09765625 C49.15595703 43.09443359 48.34707031 43.09121094 47.51367188 43.08789062 C46.66353516 43.07951172 45.81339844 43.07113281 44.9375 43.0625 C44.08349609 43.05798828 43.22949219 43.05347656 42.34960938 43.04882812 C40.23304337 43.03700373 38.11651315 43.01906769 36 43 C35.54625 43.95261719 35.0925 44.90523437 34.625 45.88671875 C32.70373555 49.5676028 31.84255852 50.47898725 28 52 C25.2019628 52.31181692 22.4349407 52.50008519 19.62109375 52.59375 C16.60015365 53.0619732 15.35533687 54.12856881 13 56 C9.75 56.1875 9.75 56.1875 7 56 C6.34 57.32 5.68 58.64 5 60 C1.37 59.67 -2.26 59.34 -6 59 C-5.505 56.03 -5.505 56.03 -5 53 C-3.515 52.505 -3.515 52.505 -2 52 C-1.67 51.34 -1.34 50.68 -1 50 C0 48 0 48 3 47 C3.33 47.99 3.66 48.98 4 50 C6.33524782 47.74259377 8.18705073 45.7194239 10 43 C13.125 41.8125 13.125 41.8125 16 41 C16 38.03 16 35.06 16 32 C14.618125 32.0825 13.23625 32.165 11.8125 32.25 C8.22953486 32.26128493 7.15437985 32.09648741 4 30.125 C1.49740701 27.46599495 1.06341643 26.46203395 0.5625 22.8125 C1.13001006 17.8670552 3.2491869 15.19693655 7 12 C7.66 12 8.32 12 9 12 C9 11.34 9 10.68 9 10 C7.88625 9.896875 6.7725 9.79375 5.625 9.6875 C3.830625 9.3471875 3.830625 9.3471875 2 9 C-0.29013653 5.5647952 -0.17842973 4.014669 0 0 Z M71 15 C72 17 72 17 72 17 Z M87 29 C86.67 29.99 86.34 30.98 86 32 C87.32 31.67 88.64 31.34 90 31 C89.67 30.34 89.34 29.68 89 29 C88.34 29 87.68 29 87 29 Z M91 34 C92 37 92 37 92 37 Z M33 37 C32.67 38.65 32.34 40.3 32 42 C32.66 42 33.32 42 34 42 C34 40.35 34 38.7 34 37 C33.67 37 33.34 37 33 37 Z M65 39 C66 41 66 41 66 41 Z M66 41 C67 43 67 43 67 43 Z M68 45 C69 47 69 47 69 47 Z M61 47 C62 49 62 49 62 49 Z M-1 53 C-0.67 53.66 -0.34 54.32 0 55 C0.33 54.34 0.66 53.68 1 53 C0.34 53 -0.32 53 -1 53 Z " fill="#8B8F91" transform="translate(111,36)"/>
<path d="M0 0 C4.18736668 -0.08760181 8.37449531 -0.14059435 12.5625 -0.1875 C13.74392578 -0.21263672 14.92535156 -0.23777344 16.14257812 -0.26367188 C24.15821519 -0.33103017 29.45704533 0.02069721 35.75 5.3125 C39.87291294 10.23709046 41.58853529 14.30391248 41.3515625 20.69140625 C40.55184627 25.94287617 38.29995004 29.79516826 34.4375 33.375 C32.625 34.58333333 30.8125 35.79166667 29 37 C29.66 37.99 30.32 38.98 31 40 C31 40.99 31 41.98 31 43 C29.75108386 43.48198463 28.50081192 43.96045677 27.25 44.4375 C26.55390625 44.70433594 25.8578125 44.97117188 25.140625 45.24609375 C23.10940997 45.96146693 21.0964709 46.51365652 19 47 C16.36253137 44.42483378 15.78112501 42.45668604 15.70703125 38.890625 C15.72686647 37.34347769 15.7624899 35.79646604 15.8125 34.25 C15.82603516 33.45722656 15.83957031 32.66445313 15.85351562 31.84765625 C15.88874777 29.89814436 15.94255179 27.94898374 16 26 C17.11503906 25.85949219 18.23007813 25.71898438 19.37890625 25.57421875 C22.85308122 25.25999664 22.85308122 25.25999664 24.9375 23.8125 C26.5339636 21.08912093 26.38630872 19.09046979 26 16 C22.63559456 12.01089951 22.63559456 12.01089951 14 12 C14 24.54 14 37.08 14 50 C9.33333333 52.33333333 4.66666667 54.66666667 0 57 C-0.17567534 52.60811658 -0.30230108 48.89010874 1.125 44.6875 C1.41375 43.800625 1.7025 42.91375 2 42 C1.53811279 41.1961084 1.53811279 41.1961084 1.06689453 40.37597656 C-0.54704 36.78174066 -0.24456086 33.16400063 -0.1953125 29.296875 C-0.1924826 28.45908508 -0.18965271 27.62129517 -0.18673706 26.75811768 C-0.17556349 24.08859837 -0.15046421 21.4194175 -0.125 18.75 C-0.11496654 16.93750485 -0.10584133 15.12500444 -0.09765625 13.3125 C-0.0756334 8.87487007 -0.04112304 4.43749237 0 0 Z " fill="#8B8F91" transform="translate(126,2)"/>
<path d="M0 0 C6.1565625 -0.0928125 6.1565625 -0.0928125 12.4375 -0.1875 C13.71294678 -0.21481201 14.98839355 -0.24212402 16.30249023 -0.27026367 C31.24378079 -0.37860987 31.24378079 -0.37860987 36.61499023 4.45263672 C40.88016576 9.41025481 41.32582369 12.81216542 41.30078125 19.15625 C40.8632015 23.29336759 39.38918909 25.64020284 37 29 C38.11375 29.309375 38.11375 29.309375 39.25 29.625 C42.95039191 31.47519595 44.10270401 33.34092917 46 37 C47.56118138 43.34880427 46.84889336 48.10533854 44 54 C41.9375 56.5625 41.9375 56.5625 40 58 C39.34 58 38.68 58 38 58 C33.38778065 52.22950837 30.22609757 47.42946334 31 40 C29.37027404 36.79386561 29.37027404 36.79386561 26.6875 36.5234375 C25.800625 36.47445312 24.91375 36.42546875 24 36.375 C19.1589404 36.0794702 19.1589404 36.0794702 17 35 C17 31.37 17 27.74 17 24 C18.27875 23.773125 19.5575 23.54625 20.875 23.3125 C24.37487535 22.4591324 24.37487535 22.4591324 26.625 19.625 C27.0692023 16.51558392 26.8388786 15.5180099 25 13 C22.35212912 12.29626983 22.35212912 12.29626983 19.375 12.25 C17.60125 12.1675 15.8275 12.085 14 12 C14 18.93 14 25.86 14 33 C11.69 33 9.38 33 7 33 C4.79932579 33.93283296 4.79932579 33.93283296 3 35 C2.01 35 1.02 35 0 35 C0 23.45 0 11.9 0 0 Z " fill="#8B8F91" transform="translate(170,2)"/>
<path d="M0 0 C3.3 0 6.6 0 10 0 C11.98 9.57 13.96 19.14 16 29 C13.36 29 10.72 29 8 29 C7.67 27.68 7.34 26.36 7 25 C4.03 25 1.06 25 -2 25 C-2.33 26.32 -2.66 27.64 -3 29 C-5.97 29 -8.94 29 -12 29 C-9.92223366 22.51841444 -7.54134786 16.2605457 -4.875 10 C-4.51535156 9.14277344 -4.15570313 8.28554688 -3.78515625 7.40234375 C-1.13188959 1.13188959 -1.13188959 1.13188959 0 0 Z M3 11 C2.34 13.31 1.68 15.62 1 18 C2.32 18 3.64 18 5 18 C4.67 15.69 4.34 13.38 4 11 C3.67 11 3.34 11 3 11 Z " fill="#1234C8" transform="translate(82,32)"/>
<path d="M0 0 C2.62527189 -0.05382106 5.24944713 -0.09358313 7.875 -0.125 C8.62136719 -0.14175781 9.36773437 -0.15851562 10.13671875 -0.17578125 C12.09194461 -0.1933959 14.04742021 -0.10320189 16 0 C19.74698255 3.74698255 19.91768839 9.98200982 21 15 C22.98 10.05 24.96 5.1 27 0 C29.97 0 32.94 0 36 0 C33.35757207 10.07425649 29.12232172 19.46284714 25 29 C21.7 29 18.4 29 15 29 C14.82984375 28.29391602 14.6596875 27.58783203 14.484375 26.86035156 C13.68987656 23.64749286 12.84569916 20.44974487 12 17.25 C11.59974609 15.58324219 11.59974609 15.58324219 11.19140625 13.8828125 C9.73020999 7.93055999 9.73020999 7.93055999 5.96484375 3.34179688 C3.55349679 2.06915331 3.55349679 2.06915331 0 1 C0 0.67 0 0.34 0 0 Z " fill="#1233C9" transform="translate(4,32)"/>
<path d="M0 0 C-0.66 2.31 -1.32 4.62 -2 7 C-5.3 7 -8.6 7 -12 7 C-9.23129521 9.97379403 -6.47740928 11.93235124 -3 14 C-1.44975536 17.10048928 -1.71007985 19.57894218 -2 23 C-3.76506093 25.94176821 -5.25411201 27.5524672 -8.1875 29.3125 C-13.47786364 30.6057 -18.7635656 30.48425011 -24 29 C-23.67 26.36 -23.34 23.72 -23 21 C-22.30132812 21.0721875 -21.60265625 21.144375 -20.8828125 21.21875 C-19.51769531 21.35796875 -19.51769531 21.35796875 -18.125 21.5 C-16.76761719 21.63921875 -16.76761719 21.63921875 -15.3828125 21.78125 C-13.06686789 22.03047295 -13.06686789 22.03047295 -11 22 C-12.17651239 18.47046282 -12.88377544 18.21263506 -16 16.4375 C-19.89862328 14.20275344 -19.89862328 14.20275344 -21 12 C-21.41465022 8.268148 -21.297997 6.48562474 -19.3125 3.25 C-14.02642312 -1.89320994 -6.82963063 -2.27654354 0 0 Z " fill="#1233C9" transform="translate(73,32)"/>
<path d="M0 0 C0.73283203 -0.00322266 1.46566406 -0.00644531 2.22070312 -0.00976562 C7.67028061 0.04528061 7.67028061 0.04528061 9.9375 2.3125 C11.71675643 8.5398975 11.35714984 14.33454156 8.9375 20.3125 C6.89524789 22.35475211 2.85834523 21.54305064 0.0625 21.5625 C-0.67097656 21.583125 -1.40445313 21.60375 -2.16015625 21.625 C-5.06171771 21.6461407 -7.44674614 21.63734652 -10.046875 20.265625 C-11.63404785 17.21336952 -11.49501331 14.16744337 -11.4375 10.8125 C-11.44910156 10.13574219 -11.46070313 9.45898438 -11.47265625 8.76171875 C-11.45646885 6.02604892 -11.32259696 3.80977349 -10.04296875 1.36328125 C-6.8381353 -0.33711362 -3.53362231 -0.07810836 0 0 Z " fill="#48AF47" transform="translate(244.0625,35.6875)"/>
<path d="M0 0 C2.97 0 5.94 0 9 0 C7.56327384 9.81132732 5.34881011 19.37671974 3 29 C0.03 29 -2.94 29 -6 29 C-4.02 19.43 -2.04 9.86 0 0 Z " fill="#1233C9" transform="translate(42,32)"/>
<path d="M0 0 C1.134375 0.020625 2.26875 0.04125 3.4375 0.0625 C3.7675 1.0525 4.0975 2.0425 4.4375 3.0625 C5.200625 2.876875 5.96375 2.69125 6.75 2.5 C9.4375 2.0625 9.4375 2.0625 12.4375 3.0625 C15.07554589 2.66852665 15.07554589 2.66852665 17.4375 2.0625 C17.7675 3.3825 18.0975 4.7025 18.4375 6.0625 C18.7675 4.0825 19.0975 2.1025 19.4375 0.0625 C20.4275 0.0625 21.4175 0.0625 22.4375 0.0625 C22.4375 0.7225 22.4375 1.3825 22.4375 2.0625 C23.076875 2.18625 23.71625 2.31 24.375 2.4375 C25.3959375 2.746875 25.3959375 2.746875 26.4375 3.0625 C27.79189668 5.77129335 27.50251451 8.07183268 27.4375 11.0625 C26.4475 11.0625 25.4575 11.0625 24.4375 11.0625 C24.4375 9.0825 24.4375 7.1025 24.4375 5.0625 C23.7775 5.0625 23.1175 5.0625 22.4375 5.0625 C22.4375 7.0425 22.4375 9.0225 22.4375 11.0625 C18.14595978 11.1492562 13.85464332 11.2028089 9.5625 11.25 C7.72751953 11.28770508 7.72751953 11.28770508 5.85546875 11.32617188 C4.10556641 11.34067383 4.10556641 11.34067383 2.3203125 11.35546875 C0.70213623 11.37903442 0.70213623 11.37903442 -0.94873047 11.40307617 C-1.81127441 11.29068604 -2.67381836 11.1782959 -3.5625 11.0625 C-5.5625 8.0625 -5.5625 8.0625 -5.25 4.4375 C-4.36165227 0.07652022 -4.36165227 0.07652022 0 0 Z M-0.5625 2.0625 C-1.2225 2.7225 -1.8825 3.3825 -2.5625 4.0625 C-2.2439823 6.17070797 -2.2439823 6.17070797 -1.5625 8.0625 C-0.5725 8.0625 0.4175 8.0625 1.4375 8.0625 C2.4275 8.0625 3.4175 8.0625 4.4375 8.0625 C4.4375 7.4025 4.4375 6.7425 4.4375 6.0625 C5.4275 5.7325 6.4175 5.4025 7.4375 5.0625 C6.4475 5.0625 5.4575 5.0625 4.4375 5.0625 C4.1075 4.4025 3.7775 3.7425 3.4375 3.0625 C1.52083333 2.22916667 1.52083333 2.22916667 -0.5625 2.0625 Z M11.4375 6.0625 C11.7675 7.0525 12.0975 8.0425 12.4375 9.0625 C12.4375 8.0725 12.4375 7.0825 12.4375 6.0625 C12.1075 6.0625 11.7775 6.0625 11.4375 6.0625 Z " fill="#000000" transform="translate(267.5625,40.9375)"/>
<path d="M0 0 C1.32 0 2.64 0 4 0 C4.66 1.32 5.32 2.64 6 4 C6.53625 3.649375 7.0725 3.29875 7.625 2.9375 C10.75168348 1.70328284 12.72143432 2.40985818 16 3 C17.051875 2.79375 18.10375 2.5875 19.1875 2.375 C22 2 22 2 23.9375 3.125 C25 5 25 5 24.6875 7.6875 C24.460625 8.450625 24.23375 9.21375 24 10 C22.35 10.33 20.7 10.66 19 11 C19 11.99 19 12.98 19 14 C18.01 14 17.02 14 16 14 C15.67 13.01 15.34 12.02 15 11 C13.35 11 11.7 11 10 11 C10 11.99 10 12.98 10 14 C9.01 13.67 8.02 13.34 7 13 C7 12.34 7 11.68 7 11 C6.01 11 5.02 11 4 11 C4 10.01 4 9.02 4 8 C0.88214887 8.64644661 0.88214887 8.64644661 0 11 C-0.99 11 -1.98 11 -3 11 C-2.32829194 7.1936543 -1.27253436 3.64793184 0 0 Z M11 5 C10.67 5.66 10.34 6.32 10 7 C10.66 7.66 11.32 8.32 12 9 C12.33 7.68 12.66 6.36 13 5 C12.34 5 11.68 5 11 5 Z M20 5 C20 6.32 20 7.64 20 9 C20.66 8.67 21.32 8.34 22 8 C21.67 7.01 21.34 6.02 21 5 C20.67 5 20.34 5 20 5 Z " fill="#000000" transform="translate(301,41)"/>
<path d="M0 0 C0.33 1.32 0.66 2.64 1 4 C-0.65 3.67 -2.3 3.34 -4 3 C-4 3.66 -4 4.32 -4 5 C-1.525 5.99 -1.525 5.99 1 7 C0.6875 8.875 0.6875 8.875 0 11 C-3 13 -3 13 -6 13 C-6 12.34 -6 11.68 -6 11 C-6.66 11 -7.32 11 -8 11 C-8 10.34 -8 9.68 -8 9 C-5.03 9.495 -5.03 9.495 -2 10 C-2 9.34 -2 8.68 -2 8 C-4.475 7.01 -4.475 7.01 -7 6 C-6.6875 4.125 -6.6875 4.125 -6 2 C-3 0 -3 0 0 0 Z " fill="#DCEFDC" transform="translate(247,40)"/>
<path d="M0 0 C0.66 0 1.32 0 2 0 C2 1.32 2 2.64 2 4 C2.99 4 3.98 4 5 4 C5.33 2.68 5.66 1.36 6 0 C6.66 0 7.32 0 8 0 C8.66 1.98 9.32 3.96 10 6 C6.7 6 3.4 6 0 6 C0 4.02 0 2.04 0 0 Z " fill="#8E9294" transform="translate(155,102)"/>
<path d="M0 0 C1.98 0 3.96 0 6 0 C6 1.98 6 3.96 6 6 C4.02 6 2.04 6 0 6 C0 4.02 0 2.04 0 0 Z " fill="#8E9195" transform="translate(205,102)"/>
<path d="M0 0 C1.98 0 3.96 0 6 0 C6 1.98 6 3.96 6 6 C4.02 6 2.04 6 0 6 C0 4.02 0 2.04 0 0 Z " fill="#8A8E91" transform="translate(142,102)"/>
<path d="M0 0 C1.65 0 3.3 0 5 0 C5 1.98 5 3.96 5 6 C3.35 6 1.7 6 0 6 C0 4.02 0 2.04 0 0 Z " fill="#8E9394" transform="translate(175,102)"/>
<path d="M0 0 C1.65 0 3.3 0 5 0 C5 1.65 5 3.3 5 5 C3.125 5.625 3.125 5.625 1 6 C0.34 5.34 -0.32 4.68 -1 4 C-0.625 1.875 -0.625 1.875 0 0 Z M1 2 C1 2.66 1 3.32 1 4 C1.66 4 2.32 4 3 4 C3 3.34 3 2.68 3 2 C2.34 2 1.68 2 1 2 Z " fill="#8C9092" transform="translate(169,102)"/>
<path d="M0 0 C1.65 0 3.3 0 5 0 C5.625 1.875 5.625 1.875 6 4 C5.34 4.66 4.68 5.32 4 6 C1.875 5.625 1.875 5.625 0 5 C0 3.35 0 1.7 0 0 Z M2 2 C2 2.66 2 3.32 2 4 C2.66 4 3.32 4 4 4 C4 3.34 4 2.68 4 2 C3.34 2 2.68 2 2 2 Z " fill="#909496" transform="translate(130,102)"/>
<path d="M0 0 C1.65 0 3.3 0 5 0 C5 1.65 5 3.3 5 5 C3.0625 5.5625 3.0625 5.5625 1 6 C0 5 0 5 -0.0625 2.4375 C-0.041875 1.633125 -0.02125 0.82875 0 0 Z " fill="#8B8F91" transform="translate(149,102)"/>
<path d="M0 0 C0.66 0 1.32 0 2 0 C2.33 1.98 2.66 3.96 3 6 C1.35 6 -0.3 6 -2 6 C-1.125 1.125 -1.125 1.125 0 0 Z " fill="#909397" transform="translate(201,102)"/>
<path d="M0 0 C1.32 0 2.64 0 4 0 C4 1.98 4 3.96 4 6 C2.68 6 1.36 6 0 6 C0 4.02 0 2.04 0 0 Z " fill="#8B8E90" transform="translate(137,102)"/>
<path d="M0 0 C0.33 1.32 0.66 2.64 1 4 C-0.65 3.67 -2.3 3.34 -4 3 C-4 3.66 -4 4.32 -4 5 C-4.66 5 -5.32 5 -6 5 C-5.625 3.0625 -5.625 3.0625 -5 1 C-3 0 -3 0 0 0 Z " fill="#E8F5E8" transform="translate(247,40)"/>
<path d="M0 0 C1.32 0.33 2.64 0.66 4 1 C4 2.65 4 4.3 4 6 C2.68 6 1.36 6 0 6 C0 4.02 0 2.04 0 0 Z " fill="#8A8E8F" transform="translate(194,102)"/>
<path d="M0 0 C1.32 0.33 2.64 0.66 4 1 C4 2.65 4 4.3 4 6 C2.68 6 1.36 6 0 6 C0 4.02 0 2.04 0 0 Z " fill="#8A8E91" transform="translate(181,102)"/>
<path d="M0 0 C1.32 0.33 2.64 0.66 4 1 C4 1.99 4 2.98 4 4 C3.34 4 2.68 4 2 4 C2 4.66 2 5.32 2 6 C1.34 6 0.68 6 0 6 C0 4.02 0 2.04 0 0 Z " fill="#8B8E91" transform="translate(125,102)"/>
<path d="M0 0 C1.32 0.33 2.64 0.66 4 1 C3.67 2.65 3.34 4.3 3 6 C2.34 6 1.68 6 1 6 C0.67 4.02 0.34 2.04 0 0 Z " fill="#8B8F91" transform="translate(189,102)"/>
</svg>
