<?xml version="1.0" encoding="UTF-8"?>
<svg version="1.1" xmlns="http://www.w3.org/2000/svg" width="330" height="201">
<path d="M0 0 C9.57 0 19.14 0 29 0 C32.3 9.24 35.6 18.48 39 28 C41.44578974 21.57706704 41.44578974 21.57706704 43.3515625 15.09765625 C43.56296875 14.27072266 43.774375 13.44378906 43.9921875 12.59179688 C44.20101562 11.75712891 44.40984375 10.92246094 44.625 10.0625 C45.05157188 8.36509939 45.48109713 6.6684373 45.9140625 4.97265625 C46.0992041 4.23281494 46.2843457 3.49297363 46.47509766 2.73071289 C47 1 47 1 48 0 C49.56172745 -0.08685603 51.12729344 -0.10702219 52.69140625 -0.09765625 C53.63564453 -0.09443359 54.57988281 -0.09121094 55.55273438 -0.08789062 C56.54595703 -0.07951172 57.53917969 -0.07113281 58.5625 -0.0625 C59.55958984 -0.05798828 60.55667969 -0.05347656 61.58398438 -0.04882812 C64.05604849 -0.03700007 66.52799518 -0.02051849 69 0 C71.66666667 9.33333333 74.33333333 18.66666667 77 28 C79.87954593 21.74237965 82.40831547 15.41382879 84.75 8.9375 C85.8225 5.988125 86.895 3.03875 88 0 C97.24 0 106.48 0 116 0 C113.74978713 10.12595791 113.74978713 10.12595791 112.30761719 14.26586914 C111.98678162 15.19456314 111.66594604 16.12325714 111.33538818 17.08009338 C110.99267883 18.05526413 110.64996948 19.03043488 110.296875 20.03515625 C109.75646576 21.59054359 109.75646576 21.59054359 109.20513916 23.17735291 C108.44429613 25.36409395 107.68104891 27.54999982 106.91552734 29.73510742 C105.76255888 33.02664643 104.61694183 36.32066806 103.47265625 39.61523438 C99.46164795 51.13562553 95.34155272 62.59996745 91 74 C83.08 74 75.16 74 67 74 C66.43410156 71.91816406 65.86820312 69.83632812 65.28515625 67.69140625 C64.7365664 65.68231368 64.18682184 63.67354047 63.63696289 61.66479492 C63.25456712 60.26538565 62.87337826 58.86564602 62.4934082 57.46557617 C61.94797426 55.4566441 61.39825291 53.4489286 60.84765625 51.44140625 C60.3527771 49.62684937 60.3527771 49.62684937 59.84790039 47.77563477 C59.27317306 45.11661502 59.27317306 45.11661502 58 44 C55.36 53.9 52.72 63.8 50 74 C42.08 74 34.16 74 26 74 C20.75199233 60.25231212 15.86501368 46.38248982 11.00244141 32.49487305 C9.8413045 29.17869748 8.67714678 25.86359123 7.51215553 22.54876804 C6.39459011 19.36768498 5.27941688 16.18576524 4.1640625 13.00390625 C3.74540924 11.81245499 3.32675598 10.62100372 2.89541626 9.39344788 C2.51436737 8.30398361 2.13331848 7.21451935 1.74072266 6.09204102 C1.40352203 5.12992203 1.06632141 4.16780304 0.71890259 3.17652893 C0 1 0 1 0 0 Z " fill="#005BA9" transform="translate(162,23)"/>
<path d="M0 0 C106.59 0 213.18 0 323 0 C323 4.62 323 9.24 323 14 C216.41 14 109.82 14 0 14 C0 9.38 0 4.76 0 0 Z " fill="#F262B7" transform="translate(4,115)"/>
<path d="M0 0 C6.93 -0.061875 13.86 -0.12375 21 -0.1875 C23.17207031 -0.21481201 25.34414062 -0.24212402 27.58203125 -0.27026367 C29.3255152 -0.27903482 31.06900534 -0.28667727 32.8125 -0.29296875 C34.1437793 -0.3159906 34.1437793 -0.3159906 35.50195312 -0.33947754 C42.58431529 -0.34242198 48.50695506 0.91515106 54.3125 5.25 C58.62556556 9.66336941 60.14817879 13.85242164 60.4375 19.9375 C60.26070656 25.73632494 58.37212516 30.50332412 54.36328125 34.72265625 C53.68845703 35.35494141 53.68845703 35.35494141 53 36 C53.54269531 36.42410156 54.08539063 36.84820312 54.64453125 37.28515625 C59.99394725 41.67071351 63.47156449 45.25917853 64.2734375 52.453125 C64.53868342 59.26790482 63.19355351 63.45073511 58.6875 68.6875 C52.19125814 74.27728951 46.71082412 74.41345626 38.4765625 74.29296875 C37.49969482 74.28994751 36.52282715 74.28692627 35.51635742 74.28381348 C31.88579666 74.26818029 28.25538713 74.22629646 24.625 74.1875 C16.49875 74.125625 8.3725 74.06375 0 74 C0 49.58 0 25.16 0 0 Z M23 19 C23 21.97 23 24.94 23 28 C27.0100934 28.17864631 27.0100934 28.17864631 31 28 C31.66 27.34 32.32 26.68 33 26 C32.83557723 22.93008319 32.83557723 22.93008319 32 20 C29.04335481 18.5216774 26.25770263 18.93967217 23 19 Z M23 48 C23 50.97 23 53.94 23 57 C24.95803507 57.05389087 26.91648909 57.09274217 28.875 57.125 C29.96554688 57.14820313 31.05609375 57.17140625 32.1796875 57.1953125 C35.1371051 57.30060534 35.1371051 57.30060534 37 55 C37.33333333 52.5 37.33333333 52.5 37 50 C35.1371051 47.69939466 35.1371051 47.69939466 32.1796875 47.8046875 C31.08914062 47.82789063 29.99859375 47.85109375 28.875 47.875 C27.23144531 47.90207031 27.23144531 47.90207031 25.5546875 47.9296875 C24.71164063 47.95289063 23.86859375 47.97609375 23 48 Z " fill="#005BA9" transform="translate(105,23)"/>
<path d="M0 0 C3.47549215 1.32891028 6.72871874 2.84628238 10 4.6171875 C10.95962646 5.13595459 11.91925293 5.65472168 12.90795898 6.18920898 C13.92833252 6.74552002 14.94870605 7.30183105 16 7.875 C17.58566772 8.73750366 17.58566772 8.73750366 19.20336914 9.61743164 C26.3142189 13.49969754 33.39429629 17.43381975 40.4375 21.4375 C41.68563477 22.14398682 41.68563477 22.14398682 42.95898438 22.86474609 C54.6809435 29.57758463 65.98693333 36.26880431 70 50 C72.04319302 60.15960115 70.80465199 69.8891165 65.375 78.8125 C60.38742743 85.61485765 53.37383799 91.24602042 45 93 C41.64966144 93.37047013 38.31961346 93.62153582 34.953125 93.7890625 C32.14360718 93.90012676 32.14360718 93.90012676 30.0546875 94.50390625 C19.74711469 96.9926168 9.82041678 94.98272513 0.859375 89.75 C-6.51741201 84.79460109 -11.59243892 77.51326895 -14 69 C-14.24050903 65.7348938 -14.24050903 65.7348938 -14.22705078 62.16845703 C-14.22734283 61.51409164 -14.22763489 60.85972626 -14.22793579 60.18553162 C-14.22655288 58.04281924 -14.21104147 55.90046343 -14.1953125 53.7578125 C-14.19157866 52.2642333 -14.18873344 50.77065163 -14.18673706 49.27706909 C-14.17912978 45.36109562 -14.15950653 41.44527236 -14.1373291 37.52935791 C-14.11680783 33.52740511 -14.10772195 29.52542784 -14.09765625 25.5234375 C-14.07625765 17.68222301 -14.04215713 9.84113024 -14 2 C-9.19540447 3.56335468 -5.31565212 5.41060873 -1 8 C-0.67 5.36 -0.34 2.72 0 0 Z M-8 12 C-8.10191247 19.50720548 -8.17168009 27.01423073 -8.21972656 34.52197266 C-8.23976872 37.07282173 -8.26700993 39.62362527 -8.30175781 42.17431641 C-8.3506003 45.8533048 -8.37304381 49.53168259 -8.390625 53.2109375 C-8.41127014 54.34050873 -8.43191528 55.47007996 -8.45318604 56.63388062 C-8.45554784 65.07946746 -6.91240816 72.44737103 -1.75 79.3125 C4.71330109 85.62890789 11.70777498 88.93467789 20.8125 89.375 C28.69289153 89.18337954 35.70150775 86.13193251 41.46484375 80.77734375 C47.40756711 73.89709152 49.37643508 66.8609222 49.28125 57.94921875 C48.570992 50.50137441 45.29896769 44.17853661 40 39 C35.06600902 35.16939097 31.28031404 33.70369784 25 33 C24.86498106 35.43934225 24.76596103 37.87124104 24.6875 40.3125 C24.6246582 41.34793945 24.6246582 41.34793945 24.56054688 42.40429688 C24.45158413 44.69293125 24.45158413 44.69293125 25 48 C27.33062795 49.88500704 27.33062795 49.88500704 30 51 C32.89550431 55.39317896 33.55878366 58.78468583 33 64 C31.65773362 67.87765844 30.65181919 69.55557782 27.25 71.875 C22.29733805 73.58938298 18.70266195 73.58938298 13.75 71.875 C10.279602 69.50881955 9.49159935 67.93102858 8 64 C7.69522584 60.67653474 7.84255719 57.40109971 7.98046875 54.0703125 C8.0117902 52.12114437 8.03967869 50.17191859 8.06445312 48.22265625 C8.11578595 45.16970379 8.18756899 42.1233939 8.31860352 39.07275391 C9.27493867 28.10191284 9.27493867 28.10191284 5.58502197 18.26306152 C2.0987555 15.41259981 -3.34641462 12 -8 12 Z " fill="#005BA9" transform="translate(18,4)"/>
<path d="M0 0 C15.51 0 31.02 0 47 0 C47 8.25 47 16.5 47 25 C42.38 25 37.76 25 33 25 C33 41.17 33 57.34 33 74 C23.76 74 14.52 74 5 74 C5 57.83 5 41.66 5 25 C0.71 25 -3.58 25 -8 25 C-5.53846905 16.57897308 -2.78017011 8.34051032 0 0 Z " fill="#005CA8" transform="translate(280,23)"/>
<path d="M0 0 C31.02 0 62.04 0 94 0 C91 11 91 11 90 14 C60.3 14 30.6 14 0 14 C0 9.38 0 4.76 0 0 Z " fill="#8796AA" transform="translate(4,115)"/>
<path d="M0 0 C6.01520019 -0.11498896 12.02656727 -0.21446543 18.04199219 -0.2746582 C20.08672019 -0.29975583 22.13135889 -0.33384164 24.17578125 -0.37719727 C27.12001611 -0.43805815 30.06306196 -0.4662573 33.0078125 -0.48828125 C33.9174173 -0.51408768 34.82702209 -0.5398941 35.76419067 -0.56648254 C40.14703466 -0.56840622 43.07949897 -0.41080103 46.56542969 2.40380859 C49.47027079 5.50149013 50.01471834 6.92581039 50.23828125 11.00390625 C49.82761813 14.44405138 48.2430938 16.45378542 46 19 C43.85546875 20.1640625 43.85546875 20.1640625 42 21 C42.5775 21.49371094 43.155 21.98742187 43.75 22.49609375 C44.86375 23.45708984 44.86375 23.45708984 46 24.4375 C46.7425 25.07558594 47.485 25.71367187 48.25 26.37109375 C48.8275 26.90863281 49.405 27.44617188 50 28 C50 28.33 50 28.66 50 29 C46.54338579 29.52952388 43.44766284 29.65004816 40 29 C37.953125 27.25390625 37.953125 27.25390625 35.875 25.0625 C28.16499433 17.96579024 15.84481818 19.83070769 6 20 C6 22.97 6 25.94 6 29 C4.02 29 2.04 29 0 29 C0 19.43 0 9.86 0 0 Z M6 7 C6 9.31 6 11.62 6 14 C10.94790177 14.0493651 15.89566083 14.08570269 20.84375 14.10986328 C22.52769466 14.11993317 24.21162179 14.13358988 25.89550781 14.15087891 C28.31319501 14.17508426 30.73065143 14.18647296 33.1484375 14.1953125 C34.28132706 14.21079636 34.28132706 14.21079636 35.43710327 14.22659302 C37.2929398 14.22699318 39.1481928 14.12222716 41 14 C41.66 13.34 42.32 12.68 43 12 C42.505 9.525 42.505 9.525 42 7 C30.12 7 18.24 7 6 7 Z " fill="#04223C" transform="translate(4,146)"/>
<path d="M0 0 C1.27166016 -0.020625 2.54332031 -0.04125 3.85351562 -0.0625 C5.08392578 -0.06765625 6.31433594 -0.0728125 7.58203125 -0.078125 C8.70456299 -0.0874707 9.82709473 -0.09681641 10.98364258 -0.10644531 C15.9108266 0.44172878 19.1490434 2.12734421 22.5 5.75 C24.7481177 9.08054475 25.31300171 11.55425832 25.28515625 15.48046875 C25.28193359 16.28291016 25.27871094 17.08535156 25.27539062 17.91210938 C25.26282227 19.16217773 25.26282227 19.16217773 25.25 20.4375 C25.24548828 21.28248047 25.24097656 22.12746094 25.23632812 22.99804688 C25.22455403 25.08206155 25.2066189 27.16603977 25.1875 29.25 C22.8775 29.25 20.5675 29.25 18.1875 29.25 C18.1875 26.28 18.1875 23.31 18.1875 20.25 C6.3075 20.25 -5.5725 20.25 -17.8125 20.25 C-17.8125 23.22 -17.8125 26.19 -17.8125 29.25 C-20.1225 29.25 -22.4325 29.25 -24.8125 29.25 C-24.92095027 26.20736733 -25.00002063 23.16863796 -25.0625 20.125 C-25.09601562 19.2690625 -25.12953125 18.413125 -25.1640625 17.53125 C-25.25077397 11.89500438 -24.59434932 8.7169163 -20.8125 4.25 C-14.7428461 -1.08393828 -7.6541485 0.03075499 0 0 Z M-17.8125 11.25 C-17.8125 12.24 -17.8125 13.23 -17.8125 14.25 C-5.9325 14.25 5.9475 14.25 18.1875 14.25 C17.22792227 9.91397489 17.22792227 9.91397489 14.1875 7.25 C9.57165494 6.59500355 4.90699666 6.78695039 0.25 6.8125 C-1.03841797 6.79251953 -2.32683594 6.77253906 -3.65429688 6.75195312 C-5.50958008 6.75291992 -5.50958008 6.75291992 -7.40234375 6.75390625 C-9.10185181 6.75112671 -9.10185181 6.75112671 -10.83569336 6.74829102 C-14.44496114 7.35659457 -15.65281172 8.33799777 -17.8125 11.25 Z " fill="#04223C" transform="translate(81.8125,145.75)"/>
<path d="M0 0 C1.28785652 0.00424484 1.28785652 0.00424484 2.60173035 0.00857544 C5.3322875 0.0197318 8.06251145 0.04482791 10.79296875 0.0703125 C12.64908379 0.08034818 14.50520399 0.089473 16.36132812 0.09765625 C20.90116921 0.11965624 25.44076256 0.15415469 29.98046875 0.1953125 C29.98046875 2.5053125 29.98046875 4.8153125 29.98046875 7.1953125 C28.81475342 7.2046582 27.64903809 7.21400391 26.44799805 7.22363281 C22.12583095 7.26348432 17.80437933 7.32922898 13.48266602 7.40283203 C11.61166571 7.43106987 9.74054549 7.4522704 7.86938477 7.46630859 C5.18052654 7.48769967 2.49311437 7.53432795 -0.1953125 7.5859375 C-1.4517028 7.58778046 -1.4517028 7.58778046 -2.73347473 7.58966064 C-7.30657006 7.66923252 -7.30657006 7.66923252 -11.07885742 10.00683594 C-12.5144474 13.34673435 -11.91465128 15.74270667 -11.01953125 19.1953125 C-7.46349757 21.56600162 -4.8395978 21.53996358 -0.7265625 21.609375 C-0.02053391 21.62874115 0.68549469 21.6481073 1.41291809 21.6680603 C3.66447936 21.72776474 5.91609203 21.7742039 8.16796875 21.8203125 C9.69598564 21.85850079 11.2239812 21.89755302 12.75195312 21.9375 C16.4946181 22.03345846 20.23738385 22.11752261 23.98046875 22.1953125 C23.98046875 19.5553125 23.98046875 16.9153125 23.98046875 14.1953125 C25.96046875 14.1953125 27.94046875 14.1953125 29.98046875 14.1953125 C29.98046875 19.1453125 29.98046875 24.0953125 29.98046875 29.1953125 C24.7152243 29.29474332 19.45053532 29.36704449 14.18457031 29.41503906 C12.39606191 29.43506209 10.60761821 29.46228904 8.81933594 29.49707031 C6.23746713 29.54600205 3.65646925 29.56837415 1.07421875 29.5859375 C-0.11065125 29.61690521 -0.11065125 29.61690521 -1.31945801 29.64849854 C-7.01693786 29.65076291 -11.23033001 28.31536299 -16.01953125 25.1953125 C-18.76624647 22.23291987 -19.88176922 18.89150755 -20.20703125 14.88671875 C-19.89789135 9.15796996 -18.18752271 6.07912272 -14.01953125 2.1953125 C-9.45459024 -0.29042608 -5.05616681 -0.06309014 0 0 Z " fill="#04223C" transform="translate(246.01953125,145.8046875)"/>
<path d="M0 0 C1.29210136 0.00212242 1.29210136 0.00212242 2.61030579 0.00428772 C5.36133294 0.00988485 8.11227869 0.02243679 10.86328125 0.03515625 C12.72851445 0.04017162 14.59374892 0.04473446 16.45898438 0.04882812 C21.03128136 0.05985333 25.6035175 0.07711598 30.17578125 0.09765625 C30.17578125 2.40765625 30.17578125 4.71765625 30.17578125 7.09765625 C29.01006592 7.11223877 27.84435059 7.12682129 26.64331055 7.1418457 C22.32122003 7.19978742 17.99965278 7.27702019 13.67797852 7.36010742 C11.80697111 7.39337627 9.93586287 7.4214021 8.06469727 7.4440918 C5.37602742 7.47760213 2.68828327 7.5299149 0 7.5859375 C-1.2563903 7.59552238 -1.2563903 7.59552238 -2.53816223 7.6053009 C-6.82789264 7.59021281 -6.82789264 7.59021281 -10.54191589 9.44108582 C-12.07577108 11.143737 -12.07577108 11.143737 -12.26171875 14.03515625 C-12.0550888 17.10447933 -12.0550888 17.10447933 -10.34082031 19.25097656 C-6.7696303 21.87151219 -3.38785027 21.70056374 0.87890625 21.70703125 C1.71669617 21.7235675 2.55448608 21.74010376 3.41766357 21.75714111 C6.08711062 21.80563124 8.75598799 21.8269937 11.42578125 21.84765625 C13.23830993 21.87581518 15.05081205 21.9057425 16.86328125 21.9375 C21.30073434 22.01139019 25.73787102 22.06095839 30.17578125 22.09765625 C30.17578125 24.40765625 30.17578125 26.71765625 30.17578125 29.09765625 C24.9105368 29.19708707 19.64584782 29.26938824 14.37988281 29.31738281 C12.59137441 29.33740584 10.80293071 29.36463279 9.01464844 29.39941406 C6.43277963 29.4483458 3.85178175 29.4707179 1.26953125 29.48828125 C0.08466125 29.51924896 0.08466125 29.51924896 -1.12414551 29.55084229 C-6.73988507 29.55307418 -11.19150015 28.37554867 -15.82421875 25.09765625 C-18.64194415 21.90905948 -19.74131758 18.7727086 -20.26171875 14.53515625 C-19.60805541 9.39923002 -18.13199971 6.30735363 -14.32421875 2.78515625 C-9.69597217 -0.33891019 -5.38054076 -0.03315511 0 0 Z " fill="#04223C" transform="translate(129.82421875,145.90234375)"/>
<path d="M0 0 C8.99857347 0 8.99857347 0 12.8828125 2.34375 C13.73399658 2.84487305 14.58518066 3.34599609 15.4621582 3.86230469 C16.340896 4.40274414 17.21963379 4.94318359 18.125 5.5 C19.97522656 6.59901534 21.8254871 7.69797346 23.67578125 8.796875 C24.57635254 9.34021484 25.47692383 9.88355469 26.40478516 10.44335938 C30.0077901 12.60448445 33.65695254 14.67955385 37.3125 16.75 C39.189375 17.8225 41.06625 18.895 43 20 C43.33 13.4 43.66 6.8 44 0 C45.98 0 47.96 0 50 0 C50 9.57 50 19.14 50 29 C42.12430209 29 42.12430209 29 37.19921875 26.1484375 C36.13896484 25.54386719 35.07871094 24.93929687 33.98632812 24.31640625 C32.89771484 23.67574219 31.80910156 23.03507812 30.6875 22.375 C29.61048828 21.75753906 28.53347656 21.14007813 27.42382812 20.50390625 C20.90063005 16.75040039 14.44328698 12.88870616 8 9 C7.67 15.6 7.34 22.2 7 29 C4.69 29 2.38 29 0 29 C0 19.43 0 9.86 0 0 Z " fill="#04223C" transform="translate(173,146)"/>
<path d="M0 0 C15.51 0 31.02 0 47 0 C46 6 46 6 43 14 C27.49 14 11.98 14 -4 14 C-2 5 -2 5 0 0 Z " fill="#EA0A73" transform="translate(98,115)"/>
<path d="M0 0 C3.96857737 2.99668087 6.4815756 5.5697268 8.0625 10.3125 C8.75698865 17.46231754 8.52444101 22.55894448 4.0625 28.3125 C-1.79301407 32.85351091 -6.68087362 34.124019 -13.9375 33.3125 C-18.69270346 31.98172114 -22.0198146 29.74132807 -24.9375 25.75 C-27.67561225 20.74875415 -27.93220567 15.86829508 -26.9375 10.3125 C-25.02484707 5.26545548 -21.91451816 1.32964426 -17.0234375 -1.0625 C-11.38907004 -2.75069999 -5.26382857 -2.77341505 0 0 Z M-17.9375 8.3125 C-20.51687911 11.39111378 -20.9472666 12.76557058 -20.875 16.8125 C-19.60167256 21.56625576 -17.84259446 24.20955057 -13.5625 26.6875 C-10.24685265 27.47693985 -8.21107609 27.26729302 -4.9375 26.3125 C-1.62497976 24.12924802 0.98091275 22.20621408 2.0625 18.3125 C2.0625 13.1265501 1.92863515 11.28174647 -1.5625 7.375 C-8.01818668 3.42985814 -12.13809483 3.30392281 -17.9375 8.3125 Z " fill="#04223C" transform="translate(318.9375,144.6875)"/>
<path d="M0 0 C4.46931186 0.89386237 6.94488562 1.87240511 10.8125 4.0625 C11.78832031 4.61035156 12.76414063 5.15820312 13.76953125 5.72265625 C14.50558594 6.14417969 15.24164063 6.56570312 16 7 C16.33 4.69 16.66 2.38 17 0 C25.25 0 33.5 0 42 0 C42 1.32 42 2.64 42 4 C41.34 4.33 40.68 4.66 40 5 C40 5.99 40 6.98 40 8 C40.66 8.33 41.32 8.66 42 9 C42 10.32 42 11.64 42 13 C15.0423526 14.65111621 15.0423526 14.65111621 3 5 C3 7.64 3 10.28 3 13 C2.01 13 1.02 13 0 13 C0 8.71 0 4.42 0 0 Z " fill="#04223C" transform="translate(183,185)"/>
<path d="M0 0 C0.94746094 -0.02578125 1.89492188 -0.0515625 2.87109375 -0.078125 C5.9527834 0.29758172 7.28222555 1.2015265 9.5625 3.25 C9.8925 2.26 10.2225 1.27 10.5625 0.25 C13.50054996 0.16913624 16.43638075 0.1095717 19.375 0.0625 C20.20837891 0.03736328 21.04175781 0.01222656 21.90039062 -0.01367188 C22.70283203 -0.02333984 23.50527344 -0.03300781 24.33203125 -0.04296875 C25.43961792 -0.06653442 25.43961792 -0.06653442 26.56958008 -0.09057617 C29.15601334 0.35142731 30.05001616 1.12825781 31.5625 3.25 C31.31139902 5.59360915 30.97684251 7.92968195 30.5625 10.25 C31.0575 11.735 31.0575 11.735 31.5625 13.25 C25.8125 12.5 25.8125 12.5 23.5625 10.25 C21.35999008 9.78993654 21.35999008 9.78993654 18.9375 9.625 C18.12023437 9.55023438 17.30296875 9.47546875 16.4609375 9.3984375 C15.83445312 9.34945312 15.20796875 9.30046875 14.5625 9.25 C14.5625 10.57 14.5625 11.89 14.5625 13.25 C13.2425 13.25 11.9225 13.25 10.5625 13.25 C10.2325 12.26 9.9025 11.27 9.5625 10.25 C8.923125 10.745 8.28375 11.24 7.625 11.75 C2.62038471 14.20124014 -2.25145951 13.96380914 -7.5 12.25 C-8.139375 11.92 -8.77875 11.59 -9.4375 11.25 C-10.6875 4.625 -10.6875 4.625 -8.4375 1.25 C-5.40443887 0.23897962 -3.17809761 0.0517465 0 0 Z M-6.4375 4.25 C-6.7675 5.24 -7.0975 6.23 -7.4375 7.25 C-7.1075 7.91 -6.7775 8.57 -6.4375 9.25 C-2.4775 9.25 1.4825 9.25 5.5625 9.25 C5.8925 7.93 6.2225 6.61 6.5625 5.25 C5.47697634 3.93737429 5.47697634 3.93737429 2.83984375 4.15234375 C1.73769531 4.16394531 0.63554688 4.17554688 -0.5 4.1875 C-1.60472656 4.19652344 -2.70945312 4.20554688 -3.84765625 4.21484375 C-4.70230469 4.22644531 -5.55695312 4.23804688 -6.4375 4.25 Z M14.5625 4.25 C14.5625 4.91 14.5625 5.57 14.5625 6.25 C18.8525 6.25 23.1425 6.25 27.5625 6.25 C27.8925 5.59 28.2225 4.93 28.5625 4.25 C23.9425 4.25 19.3225 4.25 14.5625 4.25 Z " fill="#04223C" transform="translate(34.4375,184.75)"/>
<path d="M0 0 C0.99 0 1.98 0 3 0 C3.33 2.97 3.66 5.94 4 9 C9.94 8.505 9.94 8.505 16 8 C16.144375 6.865625 16.28875 5.73125 16.4375 4.5625 C17 1 17 1 18 0 C20.33297433 -0.04092937 22.66705225 -0.04241723 25 0 C25 2.97 25 5.94 25 9 C30.61 9 36.22 9 42 9 C42 10.32 42 11.64 42 13 C35.07 13 28.14 13 21 13 C20.67 12.01 20.34 11.02 20 10 C19.360625 10.495 18.72125 10.99 18.0625 11.5 C13.087157 13.93690269 8.26146673 13.65959446 3 12.125 C1 11 1 11 0 9 C-0.06950541 7.45976004 -0.08452357 5.91665012 -0.0625 4.375 C-0.05347656 3.55773437 -0.04445313 2.74046875 -0.03515625 1.8984375 C-0.02355469 1.27195313 -0.01195313 0.64546875 0 0 Z " fill="#03213B" transform="translate(88,185)"/>
<path d="M0 0 C6.6 0 13.2 0 20 0 C20 1.32 20 2.64 20 4 C19.01 4.495 19.01 4.495 18 5 C18 5.99 18 6.98 18 8 C18.66 8.33 19.32 8.66 20 9 C20 10.32 20 11.64 20 13 C13.4 13 6.8 13 0 13 C0 8.71 0 4.42 0 0 Z " fill="#04223D" transform="translate(264,185)"/>
<path d="M0 0 C2.31 0 4.62 0 7 0 C7 9.57 7 19.14 7 29 C4.69 29 2.38 29 0 29 C0 19.43 0 9.86 0 0 Z " fill="#05223D" transform="translate(163,146)"/>
<path d="M0 0 C2.4375 1.5625 2.4375 1.5625 4 4 C4.5625 7.5 4.5625 7.5 4 11 C1.9375 13.5 1.9375 13.5 -1 15 C-4.80284671 15 -7.01930006 14.7968187 -10 12.375 C-11.45635054 8.91616747 -10.91305869 6.58701629 -10 3 C-7.67133148 -1.01048467 -4.26353269 -0.52359173 0 0 Z " fill="#04223C" transform="translate(313,153)"/>
<path d="M0 0 C1.43472656 -0.02126953 1.43472656 -0.02126953 2.8984375 -0.04296875 C5.68781968 0.19280997 7.29307549 0.67015186 9.625 2.1875 C10.82772819 4.59295638 10.72571472 6.13746953 10.6875 8.8125 C10.67847656 9.62976563 10.66945313 10.44703125 10.66015625 11.2890625 C10.64855469 11.91554687 10.63695312 12.54203125 10.625 13.1875 C9.635 13.1875 8.645 13.1875 7.625 13.1875 C7.625 11.8675 7.625 10.5475 7.625 9.1875 C2.675 9.1875 -2.275 9.1875 -7.375 9.1875 C-7.375 10.5075 -7.375 11.8275 -7.375 13.1875 C-8.365 13.1875 -9.355 13.1875 -10.375 13.1875 C-10.45631463 11.75094146 -10.51433559 10.3130517 -10.5625 8.875 C-10.59730469 8.07449219 -10.63210938 7.27398437 -10.66796875 6.44921875 C-10.30812505 3.67122541 -9.54258647 2.89322785 -7.375 1.1875 C-4.801671 -0.0991645 -2.87276962 0.01925449 0 0 Z M-5.375 4.1875 C-5.705 4.8475 -6.035 5.5075 -6.375 6.1875 C-2.085 6.1875 2.205 6.1875 6.625 6.1875 C6.625 5.5275 6.625 4.8675 6.625 4.1875 C2.665 4.1875 -1.295 4.1875 -5.375 4.1875 Z " fill="#04223B" transform="translate(295.375,184.8125)"/>
<path d="M0 0 C1.875 1.9375 1.875 1.9375 2.5 5.4375 C1.875 8.9375 1.875 8.9375 0 10.875 C-5.49135756 12.74206157 -10.75864244 12.74206157 -16.25 10.875 C-18.125 8.9375 -18.125 8.9375 -18.75 5.4375 C-18.125 1.9375 -18.125 1.9375 -16.25 0 C-10.75864244 -1.86706157 -5.49135756 -1.86706157 0 0 Z M-14.125 2.9375 C-14.71570014 4.88353274 -14.71570014 4.88353274 -15.125 6.9375 C-14.03947634 8.25012571 -14.03947634 8.25012571 -11.40234375 8.03515625 C-10.30019531 8.02355469 -9.19804687 8.01195312 -8.0625 8 C-6.95777344 7.99097656 -5.85304687 7.98195312 -4.71484375 7.97265625 C-3.86019531 7.96105469 -3.00554687 7.94945312 -2.125 7.9375 C-1.53429986 5.99146726 -1.53429986 5.99146726 -1.125 3.9375 C-2.21052366 2.62487429 -2.21052366 2.62487429 -4.84765625 2.83984375 C-5.94980469 2.85144531 -7.05195313 2.86304688 -8.1875 2.875 C-9.29222656 2.88402344 -10.39695313 2.89304688 -11.53515625 2.90234375 C-12.38980469 2.91394531 -13.24445313 2.92554688 -14.125 2.9375 Z " fill="#04223C" transform="translate(180.125,186.0625)"/>
<path d="M0 0 C2.76878934 3.13796125 2.25370848 5.99022213 2.05078125 10.04296875 C1.99277344 10.73003906 1.93476563 11.41710937 1.875 12.125 C0.885 12.125 -0.105 12.125 -1.125 12.125 C-1.125 10.805 -1.125 9.485 -1.125 8.125 C-5.745 8.125 -10.365 8.125 -15.125 8.125 C-15.125 9.445 -15.125 10.765 -15.125 12.125 C-16.115 12.125 -17.105 12.125 -18.125 12.125 C-18.4102983 8.74580013 -18.53233393 5.49772497 -18.125 2.125 C-13.82704327 -2.74601763 -5.74981587 -1.60994844 0 0 Z M-14.125 3.125 C-14.455 3.785 -14.785 4.445 -15.125 5.125 C-10.505 5.125 -5.885 5.125 -1.125 5.125 C-1.455 4.465 -1.785 3.805 -2.125 3.125 C-6.085 3.125 -10.045 3.125 -14.125 3.125 Z " fill="#04233C" transform="translate(149.125,185.875)"/>
<path d="M0 0 C6.6 0 13.2 0 20 0 C20 1.32 20 2.64 20 4 C19.01 4.495 19.01 4.495 18 5 C18 5.99 18 6.98 18 8 C13.05 8 8.1 8 3 8 C3 9.65 3 11.3 3 13 C2.01 13 1.02 13 0 13 C0 8.71 0 4.42 0 0 Z " fill="#04233C" transform="translate(4,185)"/>
<path d="M0 0 C5 1 5 1 8 3 C10.69538019 2.72355075 12.70202548 2.14898726 15.125 0.9375 C17 0 17 0 20 0 C20 4.29 20 8.58 20 13 C19.01 13 18.02 13 17 13 C17 10.36 17 7.72 17 5 C16.29875 5.515625 15.5975 6.03125 14.875 6.5625 C11.33752209 8.33123895 9.75246222 8.06047845 6 7 C5.01 6.34 4.02 5.68 3 5 C3 7.64 3 10.28 3 13 C2.01 13 1.02 13 0 13 C0 8.71 0 4.42 0 0 Z " fill="#04223D" transform="translate(307,185)"/>
<path d="M0 0 C5 1 5 1 8 3 C11.83103042 2.68074747 13.76680553 2.15546298 17 0 C17.99 0 18.98 0 20 0 C20 4.29 20 8.58 20 13 C19.01 13 18.02 13 17 13 C17 10.36 17 7.72 17 5 C15.9171875 5.7734375 15.9171875 5.7734375 14.8125 6.5625 C12 8 12 8 9.4375 7.8125 C7.1504288 7.05014293 5.10548006 6.16971114 3 5 C3 7.64 3 10.28 3 13 C2.01 13 1.02 13 0 13 C0 8.71 0 4.42 0 0 Z " fill="#04223C" transform="translate(67,185)"/>
<path d="M0 0 C6.6 0 13.2 0 20 0 C20 1.32 20 2.64 20 4 C17.03 4 14.06 4 11 4 C11 6.97 11 9.94 11 13 C10.01 13 9.02 13 8 13 C8 10.03 8 7.06 8 4 C5.36 4 2.72 4 0 4 C0 2.68 0 1.36 0 0 Z " fill="#03223B" transform="translate(243,185)"/>
<path d="M0 0 C1.32 0.66 2.64 1.32 4 2 C3.67 3.65 3.34 5.3 3 7 C1.35 6.67 -0.3 6.34 -2 6 C-2.33 5.01 -2.66 4.02 -3 3 C-2.01 2.01 -1.02 1.02 0 0 Z " fill="#042138" transform="translate(230,185)"/>
</svg>
