<?xml version="1.0" encoding="UTF-8"?>
<svg version="1.1" xmlns="http://www.w3.org/2000/svg" width="330" height="155">
<path d="M0 0 C108.9 0 217.8 0 330 0 C330 51.15 330 102.3 330 155 C221.1 155 112.2 155 0 155 C0 103.85 0 52.7 0 0 Z " fill="#03213E" transform="translate(0,0)"/>
<path d="M0 0 C2.95821985 1.67159683 5.23303901 3.78769488 7.6953125 6.10546875 C10.13064566 7.92297108 12.34034817 7.48086045 15.28125 7.2890625 C16.9761245 8.24047104 18.63939747 9.24882309 20.28125 10.2890625 C27.44476166 14.08866204 34.70818334 17.40158474 42.28125 20.2890625 C43.94888273 20.95330892 45.61580154 21.61935836 47.28125 22.2890625 C45.75918991 19.66004962 44.43759036 17.44540286 42.28125 15.2890625 C42.21875 12.8515625 42.21875 12.8515625 43.28125 10.2890625 C48.97090517 7.2890625 48.97090517 7.2890625 52.28125 7.2890625 C52.28125 9.2690625 52.28125 11.2490625 52.28125 13.2890625 C51.29125 13.6190625 50.30125 13.9490625 49.28125 14.2890625 C49.77625 15.0109375 50.27125 15.7328125 50.78125 16.4765625 C52.38714707 19.4876195 52.80927213 20.94492235 52.28125 24.2890625 C50.3470723 26.99691128 48.51185419 27.73206178 45.28125 28.2890625 C44.95125 29.6090625 44.62125 30.9290625 44.28125 32.2890625 C45.60125 32.6190625 46.92125 32.9490625 48.28125 33.2890625 C48.28125 33.9490625 48.28125 34.6090625 48.28125 35.2890625 C49.044375 35.3921875 49.8075 35.4953125 50.59375 35.6015625 C53.50242209 36.34564141 54.66135972 36.76923318 56.28125 39.2890625 C55.96875 41.9765625 55.96875 41.9765625 55.28125 44.2890625 C49.8843903 44.61287408 47.01509089 43.75065976 42.28125 41.2890625 C40.70357818 40.9681801 39.11945476 40.6779176 37.53125 40.4140625 C35.20703125 39.9609375 35.20703125 39.9609375 33.28125 39.2890625 C31.71875 36.6640625 31.71875 36.6640625 31.28125 34.2890625 C27.81625 34.7840625 27.81625 34.7840625 24.28125 35.2890625 C24.19875 35.8665625 24.11625 36.4440625 24.03125 37.0390625 C22.97763016 40.19992203 22.10115008 41.45612745 19.28125 43.2890625 C14.69695391 43.02378678 11.08967671 41.82801364 7.28125 39.2890625 C7.075 39.8665625 6.86875 40.4440625 6.65625 41.0390625 C3.6748135 45.91777677 -1.42912172 47.78882563 -6.71875 49.2890625 C-15.73845293 50.25146256 -22.31534486 49.39100232 -29.53515625 43.91015625 C-30.96526489 42.74549701 -32.34785243 41.52287031 -33.71875 40.2890625 C-34.24984375 40.51722656 -34.7809375 40.74539062 -35.328125 40.98046875 C-36.03453125 41.26792969 -36.7409375 41.55539063 -37.46875 41.8515625 C-38.16484375 42.14160156 -38.8609375 42.43164062 -39.578125 42.73046875 C-42.09011973 43.38597102 -43.31378234 43.22542286 -45.71875 42.2890625 C-48.46875 39.8515625 -48.46875 39.8515625 -50.71875 37.2890625 C-50.71875 36.6290625 -50.71875 35.9690625 -50.71875 35.2890625 C-52.03875 35.2890625 -53.35875 35.2890625 -54.71875 35.2890625 C-55.275625 35.9078125 -55.8325 36.5265625 -56.40625 37.1640625 C-59.34865835 39.8678972 -61.70575701 40.08933983 -65.5546875 40.78515625 C-67.89854814 41.20542666 -67.89854814 41.20542666 -70.28125 42.9140625 C-73.84606008 44.924981 -76.66503364 44.49518367 -80.71875 44.2890625 C-81.71875 41.2890625 -81.71875 41.2890625 -80.59375 38.6640625 C-78.32441609 35.78957288 -77.21865519 35.82750945 -73.71875 35.2890625 C-73.05875 34.2990625 -72.39875 33.3090625 -71.71875 32.2890625 C-70.39875 32.2890625 -69.07875 32.2890625 -67.71875 32.2890625 C-68.04875 30.6390625 -68.37875 28.9890625 -68.71875 27.2890625 C-70.1109375 27.4128125 -70.1109375 27.4128125 -71.53125 27.5390625 C-74.71875 27.2890625 -74.71875 27.2890625 -76.65625 25.6640625 C-78.08364363 22.47341792 -77.65718266 20.60967037 -76.71875 17.2890625 C-76.05875 16.6290625 -75.39875 15.9690625 -74.71875 15.2890625 C-75.21375 14.8971875 -75.70875 14.5053125 -76.21875 14.1015625 C-78.17468143 11.73814535 -77.96082973 10.27471247 -77.71875 7.2890625 C-76.25859709 7.57147891 -74.80065207 7.86532864 -73.34375 8.1640625 C-72.53164062 8.32648438 -71.71953125 8.48890625 -70.8828125 8.65625 C-68.71875 9.2890625 -68.71875 9.2890625 -66.71875 11.2890625 C-66.94922384 15.66806541 -68.60824669 17.37923682 -71.71875 20.2890625 C-71.71875 20.9490625 -71.71875 21.6090625 -71.71875 22.2890625 C-68.93783285 21.90282401 -67.09675866 21.57886914 -64.84375 19.8515625 C-62.01630431 17.77255832 -59.07674009 17.22183753 -55.71875 16.2890625 C-55.05875 15.6290625 -54.39875 14.9690625 -53.71875 14.2890625 C-52.05663601 13.55773235 -50.39185368 12.83154471 -48.7109375 12.14453125 C-46.65638112 11.26228057 -44.69942328 10.26314054 -42.71875 9.2265625 C-40.08631684 7.8747725 -38.01534032 7.1071462 -35.09375 6.3515625 C-31.06229305 5.08240013 -28.91300215 3.01748621 -25.71875 0.2890625 C-17.32088588 -4.48619357 -8.62945725 -3.79586885 0 0 Z " fill="#F9D606" transform="translate(272.71875,56.7109375)"/>
<path d="M0 0 C8.25 0 16.5 0 25 0 C25 14.52 25 29.04 25 44 C18.70081859 44.23500596 12.40384828 44.45719199 6.10351562 44.64697266 C3.96166171 44.7153228 1.82003105 44.79109641 -0.32128906 44.87451172 C-3.40400636 44.99329795 -6.48654731 45.08513558 -9.5703125 45.171875 C-11.00034103 45.23565338 -11.00034103 45.23565338 -12.45925903 45.30072021 C-18.20853244 45.43047511 -21.4497575 44.88994078 -26 41 C-26.66 40.34 -27.32 39.68 -28 39 C-29.175625 39.9590625 -29.175625 39.9590625 -30.375 40.9375 C-34.08606835 43.85333942 -35.7912539 44.1221513 -40.4453125 44.09765625 C-41.41484863 44.09515869 -42.38438477 44.09266113 -43.38330078 44.09008789 C-44.61806152 44.08098389 -45.85282227 44.07187988 -47.125 44.0625 C-53.003125 44.0315625 -53.003125 44.0315625 -59 44 C-59 29.81 -59 15.62 -59 1 C-39 1 -39 1 -31 5 C-29 8 -29 8 -29 16 C-19.43 16 -9.86 16 0 16 C0 10.72 0 5.44 0 0 Z " fill="#F8F0F2" transform="translate(152,59)"/>
<path d="M0 0 C4.29 0 8.58 0 13 0 C13 14.85 13 29.7 13 45 C7.493125 45.1546875 7.493125 45.1546875 1.875 45.3125 C0.7288623 45.35802002 -0.41727539 45.40354004 -1.59814453 45.45043945 C-10.04440245 45.56521851 -10.04440245 45.56521851 -13.7421875 42.60546875 C-16 40 -16 40 -16 38 C-16.66 38 -17.32 38 -18 38 C-18.20625 38.5775 -18.4125 39.155 -18.625 39.75 C-20.52133482 42.85309334 -22.6848901 44.61370184 -26 46 C-29.71135123 46.48044055 -33.35331969 46.3276267 -37.0859375 46.171875 C-38.14285797 46.14401917 -39.19977844 46.11616333 -40.28872681 46.08746338 C-43.65171972 45.99438112 -47.01296644 45.87259668 -50.375 45.75 C-52.66010032 45.68169625 -54.94525755 45.61526866 -57.23046875 45.55078125 C-62.82163244 45.39242585 -68.40951705 45.19526364 -74 45 C-74 30.81 -74 16.62 -74 2 C-50.26470588 2 -50.26470588 2 -44.6875 7.125 C-42.41087003 11.00370291 -42.19316337 14.56690069 -42 19 C-41.401875 18.505 -40.80375 18.01 -40.1875 17.5 C-35.48543551 15.28726377 -31.11244661 15.30933174 -26 16 C-22.41332253 17.85738655 -19.69486456 20.00570605 -17 23 C-16.21625 22.030625 -15.4325 21.06125 -14.625 20.0625 C-13.08711295 18.16037654 -12.20740087 17.10370043 -10 16 C-8.29297265 15.93003986 -6.58331997 15.91559846 -4.875 15.9375 C-3.26625 15.958125 -1.6575 15.97875 0 16 C0 10.72 0 5.44 0 0 Z " fill="#F6E9EB" transform="translate(75,58)"/>
<path d="M0 0 C2.27060295 -0.00655542 4.53681193 -0.06105111 6.80664062 -0.11791992 C18.94147461 -0.26044033 18.94147461 -0.26044033 23.32226562 3.34106445 C26.33631788 6.53807997 27.79791305 9.56329755 28.28320312 13.9309082 C27.82997603 18.31210343 26.73737302 20.20557543 23.90820312 23.5559082 C19.42207659 27.11431804 16.45114831 28.06623824 10.75195312 28.0871582 C9.75391663 28.09289856 9.75391663 28.09289856 8.73571777 28.09875488 C7.33730545 28.10146133 5.93884141 28.09418914 4.54052734 28.07739258 C2.41322818 28.05595883 0.28930487 28.07723131 -1.83789062 28.1027832 C-3.20378341 28.10013969 -4.56967412 28.09501422 -5.93554688 28.0871582 C-7.77922852 28.08039062 -7.77922852 28.08039062 -9.66015625 28.07348633 C-14.95979031 27.27416759 -18.02133411 24.79539141 -21.46679688 20.8059082 C-23.45853557 16.82243081 -23.9546074 13.92225237 -23.09179688 9.5559082 C-17.96048132 -0.51667418 -10.10932999 -0.00327092 0 0 Z " fill="#02203D" transform="translate(32.091796875,8.444091796875)"/>
<path d="M0 0 C2.17528717 -0.00435444 4.3485112 -0.04065559 6.5234375 -0.07861328 C15.41880709 -0.15234081 22.73260689 0.41319158 29.78515625 6.33544922 C34.50837409 12.16729521 36.96989837 16.3860059 36.75390625 24.03466797 C35.88027166 30.64775006 32.32633464 34.98915321 27.32421875 39.14404297 C22.55661256 42.25636801 18.12910477 42.67847444 12.546875 42.67138672 C11.79368988 42.67567184 11.04050476 42.67995697 10.26449585 42.68437195 C8.67601523 42.69009685 7.08750841 42.6906291 5.49902344 42.6862793 C3.08482496 42.68312443 0.67185928 42.70658216 -1.7421875 42.73193359 C-3.29166513 42.73420749 -4.84114603 42.73490966 -6.390625 42.73388672 C-7.10439301 42.74309647 -7.81816101 42.75230621 -8.55355835 42.76179504 C-14.85881441 42.70438171 -19.33347074 41.1785726 -24.2421875 37.18310547 C-28.97120948 31.43159225 -31.30057898 26.38064444 -30.9296875 18.82373047 C-29.99423456 12.70430913 -27.46682416 8.79097329 -22.6171875 4.99560547 C-15.44055591 -0.11221582 -8.50853325 -0.00190603 0 0 Z M-21.4296875 14.62060547 C-22.92305062 18.27104864 -23.22779587 21.52103064 -22.5546875 25.37060547 C-20.11752353 30.24493342 -17.26174955 32.71469657 -12.5546875 35.37060547 C-9.08762193 35.97864151 -9.08762193 35.97864151 -5.3984375 35.90185547 C-4.73307983 35.90568237 -4.06772217 35.90950928 -3.38220215 35.91345215 C-1.98378983 35.91615859 -0.58532578 35.90888641 0.81298828 35.89208984 C2.94028744 35.8706561 5.06421075 35.89192857 7.19140625 35.91748047 C8.55729904 35.91483696 9.92318975 35.90971149 11.2890625 35.90185547 C12.51818359 35.89734375 13.74730469 35.89283203 15.01367188 35.88818359 C20.34232857 35.08448751 23.40014754 32.60830082 26.8203125 28.55810547 C28.77163773 24.73050598 29.0518224 22.61617476 28.4453125 18.37060547 C26.13833856 14.01298803 23.55540529 11.07394998 19.4453125 8.37060547 C15.87497936 7.75770376 15.87497936 7.75770376 11.94921875 7.83935547 C11.23805405 7.83552856 10.52688934 7.83170166 9.79417419 7.82775879 C8.29562966 7.8250467 6.79703722 7.83235879 5.29858398 7.84912109 C3.01763129 7.87051338 0.73983885 7.84931658 -1.54101562 7.82373047 C-3.00261105 7.82637449 -4.46420453 7.83150103 -5.92578125 7.83935547 C-7.24505615 7.84386719 -8.56433105 7.84837891 -9.92358398 7.85302734 C-15.01919917 8.57935722 -18.16054034 10.69762887 -21.4296875 14.62060547 Z " fill="#F5F6F7" transform="translate(31.5546875,0.62939453125)"/>
<path d="M0 0 C0.66 0 1.32 0 2 0 C2 1.98 2 3.96 2 6 C1.01 6.33 0.02 6.66 -1 7 C-0.505 7.721875 -0.01 8.44375 0.5 9.1875 C2.07919285 12.14848659 2.28178312 13.71253029 2 17 C-1.13498292 18.85776765 -3.37471432 19.20140476 -7 19 C-7 21.31 -7 23.62 -7 26 C-6.38125 26.0825 -5.7625 26.165 -5.125 26.25 C-3 27 -3 27 -1.75 29.0625 C-1.5025 29.701875 -1.255 30.34125 -1 31 C-0.34 30.34 0.32 29.68 1 29 C1.495 30.485 1.495 30.485 2 32 C2.66 32 3.32 32 4 32 C4 32.99 4 33.98 4 35 C1.43735967 35.96099013 -0.30638103 36.29311931 -2.8671875 35.2109375 C-4.22436752 34.4768985 -5.57847423 33.73715299 -6.9296875 32.9921875 C-9.95363489 31.54297498 -12.67633801 31.27697183 -16 31 C-16 30.01 -16 29.02 -16 28 C-16.66 27.01 -17.32 26.02 -18 25 C-19.28197266 25.12568359 -19.28197266 25.12568359 -20.58984375 25.25390625 C-21.69457031 25.35574219 -22.79929687 25.45757812 -23.9375 25.5625 C-25.03964844 25.66691406 -26.14179688 25.77132812 -27.27734375 25.87890625 C-28.17582031 25.91886719 -29.07429688 25.95882812 -30 26 C-30.33 25.67 -30.66 25.34 -31 25 C-32.37562854 26.28965176 -33.70766393 27.62689293 -35 29 C-35 29.66 -35 30.32 -35 31 C-34.67 30.34 -34.34 29.68 -34 29 C-31.69 29 -29.38 29 -27 29 C-28.5625 31.5625 -28.5625 31.5625 -31 34 C-35.26090222 33.92524733 -37.44500111 33.36999926 -41 31 C-40.67 29.35 -40.34 27.7 -40 26 C-39.01 26 -38.02 26 -37 26 C-38.22007944 23.3094472 -38.22007944 23.3094472 -40 21 C-40 21.99 -40 22.98 -40 24 C-41.65 23.67 -43.3 23.34 -45 23 C-44.2265625 23.86625 -44.2265625 23.86625 -43.4375 24.75 C-42 27 -42 27 -42.41015625 29.140625 C-42.60480469 29.75421875 -42.79945313 30.3678125 -43 31 C-43.74765625 30.90460938 -44.4953125 30.80921875 -45.265625 30.7109375 C-46.74289062 30.54464844 -46.74289062 30.54464844 -48.25 30.375 C-49.22453125 30.25898437 -50.1990625 30.14296875 -51.203125 30.0234375 C-54.13429393 29.99887463 -55.54528964 30.4687283 -58 32 C-58 31.34 -58 30.68 -58 30 C-58.66 29.67 -59.32 29.34 -60 29 C-59.53851563 28.46890625 -59.07703125 27.9378125 -58.6015625 27.390625 C-56.69721482 24.54803773 -56.15478411 22.07392821 -55.375 18.75 C-53.31422132 11.64111229 -49.90867162 8.2234519 -44 4 C-43.3503125 3.41476563 -42.700625 2.82953125 -42.03125 2.2265625 C-40 1 -40 1 -37.52734375 1.17578125 C-35.03257351 1.98937711 -32.8741345 2.94955362 -30.5625 4.1875 C-25.22704516 6.95136174 -19.74546506 9.27231571 -14.19921875 11.5703125 C-11 13 -11 13 -8.33203125 14.6796875 C-5.86650184 16.32845436 -5.86650184 16.32845436 -2 16 C-2.4295555 12.32460968 -2.4295555 12.32460968 -4.625 9.5 C-5.07875 9.005 -5.5325 8.51 -6 8 C-5.6875 5.3125 -5.6875 5.3125 -5 3 C-3.35 2.67 -1.7 2.34 0 2 C0 1.34 0 0.68 0 0 Z " fill="#EA2332" transform="translate(323,64)"/>
<path d="M0 0 C9.4359375 -0.12375 9.4359375 -0.12375 19.0625 -0.25 C22.02101929 -0.30462402 22.02101929 -0.30462402 25.03930664 -0.36035156 C26.62124547 -0.37204563 28.20319644 -0.38223576 29.78515625 -0.390625 C30.59142456 -0.41108887 31.39769287 -0.43155273 32.22839355 -0.45263672 C37.97946468 -0.45615151 41.25019402 0.72971099 46 4 C48.89608718 7.1138381 49.90430695 10.33014863 50.5 14.5 C49.79788557 19.41480104 48.34086695 23.16391716 44.3515625 26.29296875 C40.97999029 28.3321074 37.83763495 29.32857845 34 30 C34.9384375 30.78246094 35.876875 31.56492187 36.84375 32.37109375 C38.06262822 33.39307626 39.28137128 34.41521999 40.5 35.4375 C41.12003906 35.95376953 41.74007812 36.47003906 42.37890625 37.00195312 C43.93802716 38.31264268 45.47128281 39.65397292 47 41 C47 41.33 47 41.66 47 42 C42.33208289 42.90835144 37.51380227 43.57546056 33.30078125 40.93505859 C29.76842793 38.06656538 26.65395871 34.78039471 23.50878906 31.50048828 C20.76516325 28.77195685 17.64140741 26.56345741 14.51171875 24.3046875 C14.01285156 23.87414062 13.51398438 23.44359375 13 23 C13 22.34 13 21.68 13 21 C13.74161377 20.98541748 14.48322754 20.97083496 15.24731445 20.95581055 C18.60290631 20.88140543 21.95749494 20.78471994 25.3125 20.6875 C26.47974609 20.66494141 27.64699219 20.64238281 28.84960938 20.61914062 C29.96787109 20.58369141 31.08613281 20.54824219 32.23828125 20.51171875 C33.7857605 20.47244263 33.7857605 20.47244263 35.36450195 20.43237305 C38.02164205 20.20404051 38.02164205 20.20404051 39.84448242 18.62426758 C41.47220859 16.33623416 41.27483502 14.74835015 41 12 C40.505 10.515 40.505 10.515 40 9 C29.44 8.67 18.88 8.34 8 8 C8 19.22 8 30.44 8 42 C5.36 42 2.72 42 0 42 C0 28.14 0 14.28 0 0 Z " fill="#F3F4F6" transform="translate(72,1)"/>
<path d="M0 0 C0.72822464 0.00141495 1.45644928 0.0028299 2.20674133 0.00428772 C4.52979664 0.00987966 6.85275513 0.02243063 9.17578125 0.03515625 C10.75195173 0.04017229 12.32812373 0.04473502 13.90429688 0.04882812 C17.76566223 0.05984645 21.62695533 0.07710551 25.48828125 0.09765625 C24.36376398 3.06959475 23.26534334 5.43206312 21.48828125 8.09765625 C18.6784668 8.48242188 18.6784668 8.48242188 15.125 8.50390625 C13.2059082 8.53677734 13.2059082 8.53677734 11.24804688 8.5703125 C9.89063732 8.58110766 8.53321328 8.59020584 7.17578125 8.59765625 C4.53290768 8.61227708 1.89280627 8.64627545 -0.75 8.69140625 C-1.92602783 8.69849609 -3.10205566 8.70558594 -4.3137207 8.71289062 C-7.92791214 9.14773036 -9.69705637 9.79908104 -12.51171875 12.09765625 C-13.50171875 14.07765625 -14.49171875 16.05765625 -15.51171875 18.09765625 C-2.97171875 18.09765625 9.56828125 18.09765625 22.48828125 18.09765625 C20.48828125 23.09765625 20.48828125 23.09765625 19.48828125 25.09765625 C7.93828125 25.09765625 -3.61171875 25.09765625 -15.51171875 25.09765625 C-12.29409564 30.51024235 -12.29409564 30.51024235 -7.51171875 34.09765625 C-4.7419783 34.50755364 -2.35328963 34.70229513 0.4140625 34.70703125 C1.16165329 34.7235675 1.90924408 34.74010376 2.67948914 34.75714111 C5.05333777 34.80549548 7.42654647 34.82696261 9.80078125 34.84765625 C11.4160476 34.87582668 13.03128431 34.90575562 14.64648438 34.9375 C18.59369727 35.0112502 22.54055756 35.06090082 26.48828125 35.09765625 C25.16828125 37.40765625 23.84828125 39.71765625 22.48828125 42.09765625 C18.05922402 42.19712545 13.63077216 42.26940443 9.20092773 42.31738281 C7.69658063 42.33739988 6.19231036 42.36462252 4.68823242 42.39941406 C2.51591963 42.4483757 0.34464219 42.47072278 -1.828125 42.48828125 C-3.13209229 42.50922852 -4.43605957 42.53017578 -5.77954102 42.55175781 C-12.60334433 41.72149196 -17.09821631 38.10582334 -21.2890625 32.80859375 C-24.95875997 27.67336215 -25.51174452 22.25852932 -24.51171875 16.09765625 C-21.68630549 8.93024761 -17.4996393 4.30107399 -10.51171875 1.09765625 C-6.9424449 -0.0921017 -3.71224903 -0.0271253 0 0 Z " fill="#F7F8F8" transform="translate(302.51171875,0.90234375)"/>
<path d="M0 0 C2.64 0.99 5.28 1.98 8 3 C7.47963877 6.85067311 6.68672299 8.31327701 4 11 C4 12.32 4 13.64 4 15 C8.74392289 14.54385357 11.29418196 13.89517035 15 11 C17.32873375 10.31744011 19.66182791 9.64949225 22 9 C22.66 8.34 23.32 7.68 24 7 C25.67983421 6.24242771 27.36329002 5.49101692 29.0703125 4.796875 C30.92750563 4.02993695 32.74660296 3.17266175 34.5625 2.3125 C38.17532379 0.93305819 40.18243915 0.59714182 44 1 C50.2443176 4.86727137 54.66371797 9.63085173 56.421875 16.7890625 C57.38016294 20.45386638 59.22819627 23.67188219 61 27 C61.495 27.99 61.495 27.99 62 29 C61.01 28.67 60.02 28.34 59 28 C59 28.66 59 29.32 59 30 C54.38 30.33 49.76 30.66 45 31 C44 26 44 26 45.4375 23.6875 C45.953125 23.130625 46.46875 22.57375 47 22 C45.35 22.33 43.7 22.66 42 23 C42 22.01 42 21.02 42 20 C41.01 21.32 40.02 22.64 39 24 C39.33 24.33 39.66 24.66 40 25 C40.33 24.34 40.66 23.68 41 23 C43 26 43 26 42.9375 28.5625 C42 31 42 31 39.75 32.3125 C35.77864702 33.30533825 33.2948653 33.76991991 29.6875 31.625 C29.130625 31.08875 28.57375 30.5525 28 30 C28 29.34 28 28.68 28 28 C29.32 28 30.64 28 32 28 C32.495 28.99 32.495 28.99 33 30 C33.99 30 34.98 30 36 30 C36.3373846 26.87501834 36.3373846 26.87501834 34 24.8125 C33.34 24.214375 32.68 23.61625 32 23 C31.67 23.33 31.34 23.66 31 24 C27.92361996 23.9909385 24.85890469 23.86674942 21.78515625 23.7421875 C20.86605469 23.82726562 19.94695312 23.91234375 19 24 C18.34 24.99 17.68 25.98 17 27 C16.34 27.33 15.68 27.66 15 28 C15.99 28.33 16.98 28.66 18 29 C16.47569947 30.52430053 14.77201731 30.60192744 12.6875 31.0625 C11.51767578 31.32740234 11.51767578 31.32740234 10.32421875 31.59765625 C8 32 8 32 4 32 C4 32.66 4 33.32 4 34 C2.68 34 1.36 34 0 34 C0.8125 32.0625 0.8125 32.0625 2 30 C2.99 29.67 3.98 29.34 5 29 C5.33 28.01 5.66 27.02 6 26 C8.0625 25.3125 8.0625 25.3125 10 25 C10 22.69 10 20.38 10 18 C8.329375 18.061875 8.329375 18.061875 6.625 18.125 C3 18 3 18 1 16 C0.47018981 12.02642355 0.68118526 10.45829619 3 7.125 C3.66 6.42375 4.32 5.7225 5 5 C3.68 4.67 2.36 4.34 1 4 C0.67 2.68 0.34 1.36 0 0 Z " fill="#EA2534" transform="translate(196,65)"/>
<path d="M0 0 C4.5478125 -0.1546875 4.5478125 -0.1546875 9.1875 -0.3125 C10.13391357 -0.35802002 11.08032715 -0.40354004 12.05541992 -0.45043945 C16.47809362 -0.52320396 18.41450547 -0.44099268 22.0546875 2.30078125 C24.47706093 5.66194599 24.9263385 7.87495579 25 12 C24.0625 14.9375 24.0625 14.9375 23 17 C23.845625 17.804375 24.69125 18.60875 25.5625 19.4375 C27.84308948 22.18723932 28.39040564 23.99374787 28.1875 27.5625 C27.8662296 30.96311685 26.89132202 32.12516583 24.60546875 34.7578125 C20.23763753 38.14482957 15.40225455 37.54309929 10.125 37.3125 C6.78375 37.209375 3.4425 37.10625 0 37 C0 24.79 0 12.58 0 0 Z " fill="#EA2332" transform="translate(96,63)"/>
<path d="M0 0 C2.5785881 -0.00135879 5.157176 -0.00314139 7.73576355 -0.00531006 C13.95922036 -0.00971234 20.18266498 -0.00881573 26.40612224 -0.00589742 C31.48015315 -0.00361889 36.5541807 -0.00334135 41.62821198 -0.00442123 C42.72054812 -0.00465108 42.72054812 -0.00465108 43.83495165 -0.00488558 C45.31548204 -0.00520538 46.79601243 -0.0055296 48.27654281 -0.00585817 C62.10232412 -0.00869738 75.92809876 -0.00545179 89.75387898 -0.0000578 C101.53628075 0.00439744 113.31867264 0.00364184 125.10107422 -0.00097656 C138.86610649 -0.00636979 152.63113291 -0.00841103 166.39616609 -0.0053643 C167.87426138 -0.00504584 169.35235667 -0.00473147 170.83045197 -0.00442123 C171.55719546 -0.00426696 172.28393896 -0.00411268 173.03270499 -0.00395373 C178.07598114 -0.00310185 183.11925343 -0.00454504 188.16252899 -0.00690079 C239.92632978 -0.02868581 239.92632978 -0.02868581 261.21679688 0.51269531 C261.92008039 0.52783731 262.6233639 0.54297931 263.34795904 0.55858016 C265.24634441 0.60171125 267.14436104 0.66029367 269.04229736 0.72000122 C270.58128126 0.76586459 270.58128126 0.76586459 272.15135574 0.8126545 C274.53222656 1.12939453 274.53222656 1.12939453 276.53222656 3.12939453 C237.00655503 3.15229997 197.48088436 3.16991262 157.95520752 3.18045986 C153.28532388 3.18171052 148.61544026 3.18300484 143.94555664 3.18432617 C143.01589487 3.18458848 142.08623309 3.18485079 141.12839975 3.18512105 C126.089573 3.18946842 111.05075009 3.19735084 96.01192562 3.20654733 C80.57250365 3.21590981 65.13308369 3.22145564 49.69365901 3.22348303 C40.17222231 3.22485286 30.65079645 3.22917424 21.12936308 3.237311 C14.59383073 3.24261046 8.05830395 3.24419156 1.52276961 3.24289591 C-2.24381893 3.24225753 -6.01038857 3.24321321 -9.77697372 3.24860001 C-13.87124073 3.2544123 -17.96546793 3.25237105 -22.05973816 3.24964905 C-23.23584709 3.25256189 -24.41195602 3.25547473 -25.62370461 3.25847584 C-33.27982779 3.24477613 -40.84315998 2.8188515 -48.46777344 2.12939453 C-48.46777344 1.79939453 -48.46777344 1.46939453 -48.46777344 1.12939453 C-32.30147389 0.23736879 -16.18870073 -0.01452521 0 0 Z " fill="#F9F9FA" transform="translate(50.4677734375,116.87060546875)"/>
<path d="M0 0 C4.57586078 1.26483238 5.94069734 3.30036653 8.22265625 7.19921875 C8.62613281 7.84544189 9.02960938 8.49166504 9.4453125 9.1574707 C10.35131362 10.61000486 11.24806463 12.06833535 12.13720703 13.53125 C13.83651579 16.29896032 15.58554764 19.03105734 17.34375 21.76171875 C19.82174109 25.614791 22.29775911 29.46889287 24.75390625 33.3359375 C25.26630859 34.14119873 25.77871094 34.94645996 26.30664062 35.77612305 C27.54036125 37.81385389 28.63128652 39.86465916 29.66015625 42.01171875 C26.28127912 42.2969898 23.0284227 42.46190573 19.66015625 42.01171875 C17.47833284 39.57321023 16.66015625 38.27960385 16.66015625 35.01171875 C9.07015625 35.01171875 1.48015625 35.01171875 -6.33984375 35.01171875 C-7.65984375 32.70171875 -8.97984375 30.39171875 -10.33984375 28.01171875 C-3.40984375 28.01171875 3.52015625 28.01171875 10.66015625 28.01171875 C7.37405559 22.83305119 7.37405559 22.83305119 4.078125 17.66064453 C3.67207031 17.01595215 3.26601562 16.37125977 2.84765625 15.70703125 C2.42871094 15.04719238 2.00976562 14.38735352 1.578125 13.70751953 C0.66015625 12.01171875 0.66015625 12.01171875 0.66015625 10.01171875 C-1.91113437 12.37556941 -3.67014363 14.91539085 -5.51953125 17.87109375 C-6.11894531 18.82242187 -6.71835938 19.77375 -7.3359375 20.75390625 C-7.95597656 21.74648438 -8.57601562 22.7390625 -9.21484375 23.76171875 C-11.57207664 27.52336618 -13.94656867 31.27290925 -16.33984375 35.01171875 C-16.79866943 35.75365479 -17.25749512 36.49559082 -17.73022461 37.26000977 C-20.70752875 41.83579645 -20.70752875 41.83579645 -23.796875 42.6953125 C-24.57417969 42.61410156 -25.35148437 42.53289063 -26.15234375 42.44921875 C-26.94253906 42.38605469 -27.73273438 42.32289062 -28.546875 42.2578125 C-29.13855469 42.17660156 -29.73023437 42.09539063 -30.33984375 42.01171875 C-28.98411578 38.31634674 -27.30752541 35.19850674 -25.14453125 31.9140625 C-24.51442139 30.95266357 -23.88431152 29.99126465 -23.23510742 29.00073242 C-22.2350769 27.49023315 -22.2350769 27.49023315 -21.21484375 25.94921875 C-20.53848877 24.92094971 -19.86213379 23.89268066 -19.1652832 22.83325195 C-17.22756466 19.8900146 -15.2839718 16.95072431 -13.33984375 14.01171875 C-12.43964348 12.64222979 -11.53982665 11.2724886 -10.640625 9.90234375 C-4.11702397 0.0144457 -4.11702397 0.0144457 0 0 Z " fill="#F7F8F9" transform="translate(153.33984375,0.98828125)"/>
<path d="M0 0 C0.0740421 5.09029944 0.12855008 10.18028692 0.16479492 15.27099609 C0.1799009 17.00347349 0.20038694 18.73591254 0.22631836 20.46826172 C0.26262321 22.95549978 0.27970765 25.44223326 0.29296875 27.9296875 C0.30845261 28.70682098 0.32393646 29.48395447 0.33988953 30.28463745 C0.34057617 32.46826172 0.34057617 32.46826172 0 36 C-0.99 36.66 -1.98 37.32 -3 38 C-2.67 37.01 -2.34 36.02 -2 35 C-2.95777344 35.00636475 -3.91554688 35.01272949 -4.90234375 35.01928711 C-8.48874338 35.03382272 -12.07356109 35.00218664 -15.65966797 34.95727539 C-17.20551136 34.94421329 -18.75151122 34.94333 -20.29736328 34.95532227 C-34.78231055 35.05350945 -34.78231055 35.05350945 -40.0625 30.62890625 C-42.4985146 28.12126375 -43 27.58398084 -43 24 C-31.45 24 -19.9 24 -8 24 C-7.34 22.35 -6.68 20.7 -6 19 C-5.67 18.34 -5.34 17.68 -5 17 C-17.54 17 -30.08 17 -43 17 C-41.85883361 12.43533445 -40.42365848 11.08964301 -37 8 C-34.12981559 6.56490779 -31.66456277 6.88841494 -28.4609375 6.90234375 C-27.15898437 6.90556641 -25.85703125 6.90878906 -24.515625 6.91210938 C-23.13541601 6.92046534 -21.75520768 6.92893029 -20.375 6.9375 C-18.98698074 6.94251499 -17.59895978 6.9470779 -16.2109375 6.95117188 C-12.80724868 6.96299024 -9.40364561 6.97946566 -6 7 C-5.731875 6.21625 -5.46375 5.4325 -5.1875 4.625 C-3.0952381 0 -3.0952381 0 0 0 Z " fill="#062441" transform="translate(330,2)"/>
<path d="M0 0 C1.05267563 0.00424484 1.05267563 0.00424484 2.12661743 0.00857544 C4.34761278 0.01968738 6.56819095 0.04477416 8.7890625 0.0703125 C10.30337955 0.08035396 11.81770299 0.08947777 13.33203125 0.09765625 C17.02617508 0.11959696 20.72007801 0.15406375 24.4140625 0.1953125 C23.28954523 3.167251 22.19112459 5.52971937 20.4140625 8.1953125 C17.80371094 8.58007812 17.80371094 8.58007812 14.5234375 8.6015625 C13.33878906 8.62347656 12.15414062 8.64539062 10.93359375 8.66796875 C9.68964844 8.67699219 8.44570312 8.68601562 7.1640625 8.6953125 C4.72122018 8.71325573 2.27843147 8.74407615 -0.1640625 8.7890625 C-1.25106445 8.79615234 -2.33806641 8.80324219 -3.45800781 8.81054688 C-8.48116357 9.42844365 -11.66772054 11.13211391 -14.9609375 14.9453125 C-16.89134402 18.80612555 -17.19532038 20.92963236 -16.5859375 25.1953125 C-14.274842 29.64631123 -12.08481118 32.03859404 -7.5859375 34.1953125 C-4.94338412 34.51296417 -2.52144791 34.68277126 0.12109375 34.70703125 C0.84648849 34.72498245 1.57188324 34.74293365 2.31925964 34.76142883 C4.62163592 34.81533467 6.92380729 34.84936251 9.2265625 34.8828125 C10.79364818 34.91600318 12.3607069 34.95049446 13.92773438 34.98632812 C17.75636207 35.07104909 21.5849311 35.13795317 25.4140625 35.1953125 C24.0940625 37.5053125 22.7740625 39.8153125 21.4140625 42.1953125 C17.00334951 42.31983315 12.59359393 42.41007777 8.18164062 42.4699707 C6.68406327 42.49496257 5.18660599 42.52896877 3.68945312 42.57250977 C-11.31938795 42.99776026 -11.31938795 42.99776026 -17.13525391 38.57104492 C-22.30712273 33.66638642 -25.5746814 29.15937911 -25.9609375 21.8828125 C-25.78172801 15.87929461 -23.81500738 11.60460505 -19.75 7.2109375 C-13.60593529 1.51414187 -8.42954304 -0.06743634 0 0 Z " fill="#F4F5F6" transform="translate(204.5859375,0.8046875)"/>
<path d="M0 0 C18 0 18 0 24 5 C25.53214888 8.06429776 25.22938548 10.6165642 25 14 C23.56711608 17.39367245 22.78624273 18.65800204 19.38671875 20.13671875 C18.59910156 20.42160156 17.81148437 20.70648438 17 21 C18.10210905 22.75129657 19.20677432 24.50098464 20.3125 26.25 C20.92738281 27.22453125 21.54226562 28.1990625 22.17578125 29.203125 C23.91654708 31.9545158 23.91654708 31.9545158 25.73046875 34.234375 C27 36 27 36 27 38 C23.74918064 38.81270484 21.23100414 38.96581634 18 38 C13.70789273 33.81360966 10.4844793 28.95265335 9.50390625 22.9765625 C9.50048946 20.5916421 9.62517996 18.35303694 10 16 C11.98 15.34 13.96 14.68 16 14 C16 12.02 16 10.04 16 8 C13.36 7.34 10.72 6.68 8 6 C8 16.56 8 27.12 8 38 C5.36 38 2.72 38 0 38 C0 25.46 0 12.92 0 0 Z " fill="#EA2232" transform="translate(4,63)"/>
<path d="M0 0 C23.54545455 0 23.54545455 0 29.375 5.0625 C31.71505504 9.2925995 31.51191364 13.2585048 31 18 C30.67 18.66 30.34 19.32 30 20 C30.66 20 31.32 20 32 20 C31.835 20.495 31.67 20.99 31.5 21.5 C30.23429869 27.82850657 30.47566481 32.51770082 34 38 C37.03525486 40.02350324 38.19426202 40.32124018 41.6875 40.625 C42.49574219 40.69976562 43.30398437 40.77453125 44.13671875 40.8515625 C44.75160156 40.90054688 45.36648437 40.94953125 46 41 C45.67 41.99 45.34 42.98 45 44 C30.15 43.67 15.3 43.34 0 43 C0 28.81 0 14.62 0 0 Z M3 3 C3 15.54 3 28.08 3 41 C5.64 41 8.28 41 11 41 C11 30.44 11 19.88 11 9 C13.64 9.66 16.28 10.32 19 11 C19 12.98 19 14.96 19 17 C17.02 17.66 15.04 18.32 13 19 C11.7269352 26.99201789 13.97034771 32.1736349 18.62109375 38.6796875 C21.27694443 41.27012314 22.34933533 41.76157104 26 41.75 C28.22187648 41.47556124 28.22187648 41.47556124 30 41 C28.6243563 37.14958019 26.83312893 34.1183679 24.4375 30.8125 C21.07457627 26.14915254 21.07457627 26.14915254 20 24 C20.763125 23.773125 21.52625 23.54625 22.3125 23.3125 C25.68439721 21.6657595 26.54704383 20.44121198 28 17 C28.4898067 13.63257892 28.7490388 11.24007534 26.9453125 8.25390625 C25.16770219 6.06081898 23.54414063 4.27207031 21 3 C15.06 3 9.12 3 3 3 Z " fill="#FCF6F6" transform="translate(1,60)"/>
<path d="M0 0 C2.31 0 4.62 0 7 0 C7 12.87 7 25.74 7 39 C4 39 1 39 -2 39 C-2.64453125 39.11859375 -3.2890625 39.2371875 -3.953125 39.359375 C-8.24238736 40.08884139 -10.40122147 40.28305894 -14.4375 38.375 C-18.17933717 34.9069558 -18.82895041 32.5679546 -19.375 27.5625 C-18.92715888 23.30800938 -17.6792268 21.2916215 -15 18 C-11.877998 15.91866533 -11.06733011 15.7262178 -7.5 15.75 C-6.7265625 15.74484375 -5.953125 15.7396875 -5.15625 15.734375 C-3 16 -3 16 0 18 C0 12.06 0 6.12 0 0 Z " fill="#EA2030" transform="translate(78,61)"/>
<path d="M0 0 C0.94101562 0.00322266 1.88203125 0.00644531 2.8515625 0.00976562 C3.83640625 0.01814453 4.82125 0.02652344 5.8359375 0.03515625 C6.82851563 0.03966797 7.82109375 0.04417969 8.84375 0.04882812 C11.2995391 0.0606348 13.75520854 0.07710225 16.2109375 0.09765625 C17.14384619 2.89638231 17.33953197 4.6175457 17.34375 7.51171875 C17.34568359 8.77628906 17.34568359 8.77628906 17.34765625 10.06640625 C17.34378906 10.94296875 17.33992188 11.81953125 17.3359375 12.72265625 C17.34173828 14.04910156 17.34173828 14.04910156 17.34765625 15.40234375 C17.34636719 16.2428125 17.34507812 17.08328125 17.34375 17.94921875 C17.34262207 18.72088379 17.34149414 19.49254883 17.34033203 20.28759766 C17.2109375 22.09765625 17.2109375 22.09765625 16.2109375 23.09765625 C12.80245662 23.37759619 9.37954304 23.32949633 5.9609375 23.34765625 C5.00574219 23.36828125 4.05054688 23.38890625 3.06640625 23.41015625 C-5.86129692 23.45982358 -5.86129692 23.45982358 -9.7890625 20.09765625 C-12.75173094 15.65365359 -12.55852144 11.30864548 -11.7890625 6.09765625 C-8.23555035 1.42198237 -5.71131594 -0.03440552 0 0 Z " fill="#082542" transform="translate(312.7890625,130.90234375)"/>
<path d="M0 0 C2.64 0 5.28 0 8 0 C8 11.22 8 22.44 8 34 C20.21 34 32.42 34 45 34 C43 39 43 39 42 41 C36.34001954 41.04934926 30.68016364 41.08569529 25.02001953 41.10986328 C23.09356506 41.11993582 21.16712592 41.13359443 19.24072266 41.15087891 C16.47554748 41.17507241 13.710574 41.18647036 10.9453125 41.1953125 C10.0806839 41.20563507 9.2160553 41.21595764 8.32522583 41.22659302 C6.21546479 41.22699106 4.10619282 41.12265243 2 41 C0 39 0 39 -0.22705078 35.19287109 C-0.22673346 33.5530258 -0.21539681 31.91315983 -0.1953125 30.2734375 C-0.1924826 29.41062164 -0.18965271 28.54780579 -0.18673706 27.65884399 C-0.17552333 24.8974228 -0.15041684 22.1363235 -0.125 19.375 C-0.11497173 17.50521301 -0.10584562 15.63542095 -0.09765625 13.765625 C-0.07558012 9.17695891 -0.04104234 4.58853407 0 0 Z " fill="#FEFEFE" transform="translate(234,2)"/>
<path d="M0 0 C3.526875 -0.0825 7.05375 -0.165 10.6875 -0.25 C11.79053467 -0.28641602 12.89356934 -0.32283203 14.0300293 -0.36035156 C18.48081451 -0.41083152 21.25574222 -0.42555107 25.18359375 1.8203125 C27 4 27 4 27.375 7.125 C27 10 27 10 26 12 C25.34 12 24.68 12 24 12 C24.495 12.515625 24.99 13.03125 25.5 13.5625 C27.49649241 16.80680017 27.21564385 19.26217334 27 23 C25.68 23 24.36 23 23 23 C22.67 20.69 22.34 18.38 22 16 C15.73 15.67 9.46 15.34 3 15 C3 17.64 3 20.28 3 23 C2.01 23 1.02 23 0 23 C0 15.41 0 7.82 0 0 Z " fill="#E4E7EA" transform="translate(1,131)"/>
<path d="M0 0 C2.81992717 1.82120296 4.50345478 3.00690956 6 6 C6 8.31 6 10.62 6 13 C0.72 13 -4.56 13 -10 13 C-9.34 14.32 -8.68 15.64 -8 17 C-3.85828461 17.11626721 -3.85828461 17.11626721 0.1875 16.375 C0.785625 16.25125 1.38375 16.1275 2 16 C2.99 16.66 3.98 17.32 5 18 C4.04972793 20.37568017 3.42917912 21.73093406 1.23046875 23.109375 C-2.7623333 24.70369876 -6.77972566 24.55403926 -11 24 C-14.15460202 22.22553637 -15.50737276 20.84450384 -17.3125 17.75 C-18.39468367 13.42126533 -19.23943044 9.2467763 -17.01953125 5.22265625 C-12.05580865 -1.02399773 -7.44480771 -1.87115488 0 0 Z " fill="#EA2332" transform="translate(49,77)"/>
<path d="M0 0 C1.46015291 0.28241641 2.91809793 0.57626614 4.375 0.875 C5.18710938 1.03742188 5.99921875 1.19984375 6.8359375 1.3671875 C9 2 9 2 11 4 C10.76952616 8.37900291 9.11050331 10.09017432 6 13 C6 13.66 6 14.32 6 15 C8.78091715 14.61376151 10.62199134 14.28980664 12.875 12.5625 C15.70244569 10.48349582 18.64200991 9.93277503 22 9 C22.66 8.34 23.32 7.68 24 7 C25.98821313 6.60235737 27.98944339 6.26224651 30 6 C28.60147088 8.79705825 26.86348142 8.90914993 24 10 C23.01 10.66 22.02 11.32 21 12 C19.2984375 12.4640625 19.2984375 12.4640625 17.5625 12.9375 C14.0649246 13.75105416 14.0649246 13.75105416 11.875 15.625 C9.4721612 17.38708178 7.91020075 17.24251673 5 17 C4.25 14.75 4.25 14.75 4 12 C5.29103643 10.6256709 6.6256709 9.29103643 8 8 C8 6.68 8 5.36 8 4 C6.02 3.34 4.04 2.68 2 2 C2.33 2.99 2.66 3.98 3 5 C3.99 5.33 4.98 5.66 6 6 C4.125 9.875 4.125 9.875 3 11 C2.83333333 14 2.83333333 14 3 17 C4.96822886 18.96822886 8.34808709 18.66248381 11 19 C11 21.31 11 23.62 11 26 C10.40703125 26.25523438 9.8140625 26.51046875 9.203125 26.7734375 C6.78775462 28.11816498 5.48788294 29.49214367 3.75 31.625 C3.22921875 32.25664063 2.7084375 32.88828125 2.171875 33.5390625 C1.78515625 34.02117187 1.3984375 34.50328125 1 35 C2.32 35 3.64 35 5 35 C5 34.34 5 33.68 5 33 C8.64793184 31.72746564 12.1936543 30.67170806 16 30 C13.69 30 11.38 30 9 30 C9 29.67 9 29.34 9 29 C9.61488281 28.90203125 10.22976562 28.8040625 10.86328125 28.703125 C15.99409305 27.86708954 15.99409305 27.86708954 20.0625 24.875 C20.5265625 23.946875 20.5265625 23.946875 21 23 C21 23.66 21 24.32 21 25 C24.63 25 28.26 25 32 25 C32.33 24.34 32.66 23.68 33 23 C35.5625 25.25 35.5625 25.25 38 28 C37.8125 30.3125 37.8125 30.3125 37 32 C35.68 31.67 34.36 31.34 33 31 C33 30.34 33 29.68 33 29 C31.68 29 30.36 29 29 29 C30.3442285 31.26959882 30.3442285 31.26959882 33 33 C36.40060685 33.05863115 39.65559323 32.58718592 43 32 C42.505 28.535 42.505 28.535 42 25 C42 26.98 42 28.96 42 31 C40.79371992 28.66785852 39.8345262 26.50357861 39 24 C39.99 23.67 40.98 23.34 42 23 C43.20882096 20.99983534 43.20882096 20.99983534 44 19 C43.505 21.475 43.505 21.475 43 24 C44.65 23.67 46.3 23.34 48 23 C47.67 23.7425 47.34 24.485 47 25.25 C45.77217129 28.13883312 45.77217129 28.13883312 46 32 C46.99 32.33 47.98 32.66 49 33 C48.030625 33.12375 47.06125 33.2475 46.0625 33.375 C43.86985351 33.66409132 41.83744457 34.04624661 39.70703125 34.65234375 C33.66806296 36.36186744 33.66806296 36.36186744 30 34.375 C28.09143773 32.10858231 27.31112152 30.90380086 27 28 C25.68 28 24.36 28 23 28 C22.443125 28.61875 21.88625 29.2375 21.3125 29.875 C18.37009165 32.5788347 16.01299299 32.80027733 12.1640625 33.49609375 C9.82020186 33.91636416 9.82020186 33.91636416 7.4375 35.625 C3.87268992 37.6359185 1.05371636 37.20612117 -3 37 C-4 34 -4 34 -2.875 31.375 C-0.60566609 28.50051038 0.50009481 28.53844695 4 28 C4.66 27.01 5.32 26.02 6 25 C7.32 25 8.64 25 10 25 C9.67 23.35 9.34 21.7 9 20 C7.6078125 20.12375 7.6078125 20.12375 6.1875 20.25 C3 20 3 20 1.0625 18.375 C-0.36489363 15.18435542 0.06156734 13.32060787 1 10 C1.66 9.34 2.32 8.68 3 8 C2.505 7.608125 2.01 7.21625 1.5 6.8125 C-0.45593143 4.44908285 -0.24207973 2.98564997 0 0 Z " fill="#D99DA6" transform="translate(195,64)"/>
<path d="M0 0 C2.31 0 4.62 0 7 0 C7.06058594 1.05960937 7.12117187 2.11921875 7.18359375 3.2109375 C7.26800127 4.59897221 7.35264917 5.98699232 7.4375 7.375 C7.47681641 8.07367188 7.51613281 8.77234375 7.55664062 9.4921875 C7.74280134 13.37360492 7.74280134 13.37360492 9 17 C12.29075996 16.62095792 12.29075996 16.62095792 15 15 C15.23653523 12.47403741 15.42173692 9.96892793 15.5625 7.4375 C15.60568359 6.72658203 15.64886719 6.01566406 15.69335938 5.28320312 C15.79971777 3.52238088 15.90038846 1.7612168 16 0 C18.31 0 20.62 0 23 0 C23.13539281 2.89740622 23.23426829 5.78845621 23.3125 8.6875 C23.35439453 9.50412109 23.39628906 10.32074219 23.43945312 11.16210938 C23.52988199 15.62929507 23.47624383 17.39945109 20.60546875 21.01953125 C17.23236777 23.58349257 15.42863544 24.21038709 11.25 24.375 C10.40953125 24.42398438 9.5690625 24.47296875 8.703125 24.5234375 C4.8471147 23.77675342 2.20646101 22.21455389 0 19 C-0.71579085 15.69351758 -0.57061263 12.5505325 -0.375 9.1875 C-0.34792969 8.30384766 -0.32085937 7.42019531 -0.29296875 6.50976562 C-0.22255869 4.33878886 -0.11494606 2.16907471 0 0 Z " fill="#EA2030" transform="translate(127,77)"/>
<path d="M0 0 C2.6337545 0.0002828 5.26750622 0.00016609 7.90126038 -0.0004425 C13.52286131 -0.00096158 19.14445046 0.00211996 24.76604843 0.00779533 C32.89348412 0.01599508 41.02091422 0.01853414 49.14835359 0.01978333 C62.34125587 0.02196068 75.53415189 0.02858471 88.72705078 0.03808594 C101.52685516 0.04729436 114.32665782 0.05435832 127.12646484 0.05859375 C127.91821275 0.05885647 128.70996065 0.0591192 129.52570091 0.05938988 C133.49849397 0.06069512 137.47128704 0.06195878 141.44408011 0.06320179 C174.29361655 0.07353333 207.14314532 0.09111538 239.99267578 0.11352539 C239.99267578 0.44352539 239.99267578 0.77352539 239.99267578 1.11352539 C238.05367826 1.1198733 238.05367826 1.1198733 236.07550907 1.12634945 C205.4223157 1.22692383 174.76914475 1.33261356 144.11599127 1.44464233 C140.34694028 1.45841268 136.57788913 1.47213966 132.80883789 1.48583984 C132.05845589 1.48856815 131.3080739 1.49129645 130.53495305 1.49410743 C118.36886766 1.53823842 106.20277293 1.57885272 94.03667117 1.618178 C81.5624451 1.65857713 69.08823644 1.70273079 56.61403602 1.75040394 C48.91057663 1.77972519 41.20711862 1.80608261 33.50363659 1.82870436 C27.60658854 1.84633433 21.70956811 1.86917616 15.81254578 1.89401627 C13.38607321 1.90340806 10.95959331 1.91107561 8.53310966 1.9169445 C5.23598973 1.92516967 1.9389516 1.93943594 -1.35813904 1.95530701 C-2.33185422 1.95628511 -3.3055694 1.95726322 -4.3087911 1.95827097 C-5.18511444 1.96374541 -6.06143778 1.96921986 -6.96431637 1.97486019 C-7.72641507 1.97751823 -8.48851377 1.98017628 -9.27370638 1.98291487 C-11.03747254 1.92634514 -11.03747254 1.92634514 -12.00732422 3.11352539 C-13.63507672 3.21332974 -15.26714111 3.24433303 -16.89794922 3.24633789 C-17.91244141 3.24827148 -18.92693359 3.25020508 -19.97216797 3.25219727 C-21.05626953 3.24768555 -22.14037109 3.24317383 -23.25732422 3.23852539 C-24.34658203 3.2365918 -25.43583984 3.2346582 -26.55810547 3.23266602 C-34.08526492 3.19229389 -41.51999623 2.93245189 -49.00732422 2.11352539 C-49.00732422 1.78352539 -49.00732422 1.45352539 -49.00732422 1.11352539 C-32.66092059 0.20477219 -16.36923814 -0.0249569 0 0 Z " fill="#CFD5DA" transform="translate(51.00732421875,116.886474609375)"/>
<path d="M0 0 C2.64 0 5.28 0 8 0 C8 13.2 8 26.4 8 40 C5.36 40 2.72 40 0 40 C0 26.8 0 13.6 0 0 Z " fill="#EB2C3B" transform="translate(167,61)"/>
<path d="M0 0 C2.64 0 5.28 0 8 0 C8 13.2 8 26.4 8 40 C5.36 40 2.72 40 0 40 C0 26.8 0 13.6 0 0 Z " fill="#EB2C3B" transform="translate(154,61)"/>
<path d="M0 0 C5.66166968 2.01517056 7.09605384 6.12248833 9.6875 11.3125 C10.17734375 12.24191406 10.6671875 13.17132813 11.171875 14.12890625 C14.6875 20.91327247 14.6875 20.91327247 14.6875 23.3125 C13.3675 23.3125 12.0475 23.3125 10.6875 23.3125 C10.0275 21.0025 9.3675 18.6925 8.6875 16.3125 C2.7475 16.6425 -3.1925 16.9725 -9.3125 17.3125 C-10.3025 19.2925 -11.2925 21.2725 -12.3125 23.3125 C-13.3025 23.3125 -14.2925 23.3125 -15.3125 23.3125 C-14.70355198 18.53318071 -12.70739526 14.85304256 -10.4375 10.6875 C-10.08558594 10.01976562 -9.73367187 9.35203125 -9.37109375 8.6640625 C-4.96165555 0.46808071 -4.96165555 0.46808071 0 0 Z " fill="#E6E9EC" transform="translate(79.3125,130.6875)"/>
<path d="M0 0 C6.15234375 -0.09765625 6.15234375 -0.09765625 8 0 C8.33 0.33 8.66 0.66 9 1 C10.99950636 1.04443347 13.00038436 1.03920815 15 1 C17.1875992 1 19.37555119 1.00915979 21.5625 1.0625 C24.14134384 1.11500019 24.14134384 1.11500019 27 0 C29.26171875 0.33984375 29.26171875 0.33984375 31.6875 0.9375 C32.49574219 1.13214844 33.30398438 1.32679687 34.13671875 1.52734375 C35.05904297 1.76130859 35.05904297 1.76130859 36 2 C31.24866552 7.51767875 26.1158653 10.5012599 18.80859375 11.38671875 C11.08728101 11.64618349 5.31981506 10.73748705 -0.59375 5.62109375 C-1.78025868 4.46424778 -2.89905962 3.23855792 -4 2 C-2.68 2 -1.36 2 0 2 C0 1.34 0 0.68 0 0 Z " fill="#F6D408" transform="translate(244,95)"/>
<path d="M0 0 C1.28210748 3.84632244 0.4119404 5.3538366 -0.9375 9.125 C-2.9280764 14.0729137 -2.9280764 14.0729137 -2 19 C-1.43796875 18.65195313 -0.8759375 18.30390625 -0.296875 17.9453125 C2.52784563 16.78275741 3.83201171 17.10259134 6.75 17.875 C7.54921875 18.07867187 8.3484375 18.28234375 9.171875 18.4921875 C9.77515625 18.65976563 10.3784375 18.82734375 11 19 C10.5020163 15.26512223 10.12508244 13.18762365 8 10 C9.98 10.66 11.96 11.32 14 12 C13.67 9.69 13.34 7.38 13 5 C15.24522908 7.24522908 16.65792764 9.11454442 18 12 C17.1875 14.8125 17.1875 14.8125 16 17 C15.34 16.34 14.68 15.68 14 15 C14 16.32 14 17.64 14 19 C17.11421408 20.8454602 19.38321316 21.46369062 23 21 C24.81476003 19.60414215 24.81476003 19.60414215 26 18 C24.02 17.67 22.04 17.34 20 17 C19.67 17.99 19.34 18.98 19 20 C19 18.68 19 17.36 19 16 C19.99 15.67 20.98 15.34 22 15 C22.33 14.01 22.66 13.02 23 12 C23.33 12.66 23.66 13.32 24 14 C24.99 13.67 25.98 13.34 27 13 C28.56118428 12.93259135 30.1250252 12.91485544 31.6875 12.9375 C32.89986328 12.95103516 32.89986328 12.95103516 34.13671875 12.96484375 C35.05904297 12.98224609 35.05904297 12.98224609 36 13 C36 11.35 36 9.7 36 8 C36.33 8 36.66 8 37 8 C37.309375 9.11375 37.61875 10.2275 37.9375 11.375 C38.82326483 14.7945155 38.82326483 14.7945155 40 17 C39.01 17.495 39.01 17.495 38 18 C38.87011719 18.16435547 38.87011719 18.16435547 39.7578125 18.33203125 C44.64612371 19.32421323 48.52241564 20.76120782 53 23 C55.75146274 23.25284367 55.75146274 23.25284367 58 23 C58 22.01 58 21.02 58 20 C57.34 20 56.68 20 56 20 C55.505 19.01 55.505 19.01 55 18 C54.34 18.66 53.68 19.32 53 20 C52.566875 19.195625 52.13375 18.39125 51.6875 17.5625 C50.19525998 14.72153646 50.19525998 14.72153646 47 14 C47 11.69 47 9.38 47 7 C50.465 6.505 50.465 6.505 54 6 C53.67 6.66 53.34 7.32 53 8 C50.9375 8.625 50.9375 8.625 49 9 C48.67 10.32 48.34 11.64 48 13 C49.32 13.33 50.64 13.66 52 14 C52 14.66 52 15.32 52 16 C52.763125 16.103125 53.52625 16.20625 54.3125 16.3125 C57.22117209 17.05657891 58.38010972 17.48017068 60 20 C59.6875 22.6875 59.6875 22.6875 59 25 C53.6031403 25.32381158 50.73384089 24.46159726 46 22 C44.42232818 21.6791176 42.83820476 21.3888551 41.25 21.125 C38.92578125 20.671875 38.92578125 20.671875 37 20 C35.4375 17.375 35.4375 17.375 35 15 C32.69 15.33 30.38 15.66 28 16 C27.9175 16.5775 27.835 17.155 27.75 17.75 C26.69638016 20.91085953 25.81990008 22.16706495 23 24 C18.81709427 23.68987498 14.95683488 22.31894496 11 21 C9.12967671 20.75318314 7.25354527 20.54848043 5.375 20.375 C4.39273437 20.27960938 3.41046875 20.18421875 2.3984375 20.0859375 C1.60695313 20.05757812 0.81546875 20.02921875 0 20 C-0.33 20.33 -0.66 20.66 -1 21 C-2.66617115 21.04063832 -4.33388095 21.042721 -6 21 C-6.66 19.68 -7.32 18.36 -8 17 C-7.32324219 16.46246094 -7.32324219 16.46246094 -6.6328125 15.9140625 C-4.39119119 13.2863246 -3.80717893 10.68533619 -2.875 7.375 C-1.08333333 1.08333333 -1.08333333 1.08333333 0 0 Z " fill="#E5CACF" transform="translate(269,76)"/>
<path d="M0 0 C1.32 0 2.64 0 4 0 C4 7.59 4 15.18 4 23 C-2.76919009 23 -3.34016808 22.50293393 -7.84375 18.28515625 C-11.13760451 14.79438653 -14.09340816 11.05918303 -17.01953125 7.2578125 C-18.87267974 4.76207143 -18.87267974 4.76207143 -22 4 C-22 10.27 -22 16.54 -22 23 C-22.99 23 -23.98 23 -25 23 C-25 15.74 -25 8.48 -25 1 C-18 1 -18 1 -15.3828125 3.109375 C-14.59648437 4.06328125 -13.81015625 5.0171875 -13 6 C-12.57944336 6.50208984 -12.15888672 7.00417969 -11.72558594 7.52148438 C-9.97806278 9.6206192 -8.27109805 11.75041687 -6.57421875 13.890625 C-4.42053913 16.54130761 -3.31073418 17.89642194 0 19 C0 12.73 0 6.46 0 0 Z " fill="#E3E6E9" transform="translate(260,131)"/>
<path d="M0 0 C0.94101562 0.00322266 1.88203125 0.00644531 2.8515625 0.00976562 C3.83640625 0.01814453 4.82125 0.02652344 5.8359375 0.03515625 C6.82851563 0.03966797 7.82109375 0.04417969 8.84375 0.04882812 C11.2995391 0.0606348 13.75520854 0.07710225 16.2109375 0.09765625 C16.2109375 1.41765625 16.2109375 2.73765625 16.2109375 4.09765625 C15.22697998 4.12738525 15.22697998 4.12738525 14.22314453 4.15771484 C11.26032681 4.25278132 8.29823218 4.36253377 5.3359375 4.47265625 C3.78712891 4.5190625 3.78712891 4.5190625 2.20703125 4.56640625 C0.72783203 4.62441406 0.72783203 4.62441406 -0.78125 4.68359375 C-1.69245605 4.71501465 -2.60366211 4.74643555 -3.54248047 4.77880859 C-5.98837436 4.89648136 -5.98837436 4.89648136 -7.7890625 7.09765625 C-8.25450702 12.35614602 -8.25450702 12.35614602 -6.84375 17.30859375 C-3.52758627 20.1960519 0.13984017 19.77519752 4.3984375 19.84765625 C5.6659082 19.89212891 5.6659082 19.89212891 6.95898438 19.9375 C9.04245572 20.00812615 11.12670256 20.0551642 13.2109375 20.09765625 C13.2109375 17.12765625 13.2109375 14.15765625 13.2109375 11.09765625 C14.2009375 11.09765625 15.1909375 11.09765625 16.2109375 11.09765625 C16.2109375 15.05765625 16.2109375 19.01765625 16.2109375 23.09765625 C12.81462278 23.17873538 9.42025134 23.23819569 6.0234375 23.28515625 C5.06373047 23.31029297 4.10402344 23.33542969 3.11523438 23.36132812 C-5.88419378 23.45474779 -5.88419378 23.45474779 -9.7890625 20.09765625 C-12.75173094 15.65365359 -12.55852144 11.30864548 -11.7890625 6.09765625 C-8.23555035 1.42198237 -5.71131594 -0.03440552 0 0 Z " fill="#DEE2E6" transform="translate(312.7890625,130.90234375)"/>
<path d="M0 0 C0.94101563 0.00322266 1.88203125 0.00644531 2.8515625 0.00976562 C3.83640625 0.01814453 4.82125 0.02652344 5.8359375 0.03515625 C6.82851562 0.03966797 7.82109375 0.04417969 8.84375 0.04882812 C11.2995391 0.0606348 13.75520854 0.07710225 16.2109375 0.09765625 C16.2109375 1.41765625 16.2109375 2.73765625 16.2109375 4.09765625 C15.21912476 4.13524048 15.21912476 4.13524048 14.20727539 4.17358398 C11.22911445 4.28918727 8.2512983 4.41207379 5.2734375 4.53515625 C3.71206055 4.59413086 3.71206055 4.59413086 2.11914062 4.65429688 C0.63510742 4.71713867 0.63510742 4.71713867 -0.87890625 4.78125 C-1.79534912 4.81790771 -2.71179199 4.85456543 -3.65600586 4.89233398 C-5.7711353 4.86769489 -5.7711353 4.86769489 -6.7890625 6.09765625 C-6.93998163 7.90578349 -7.01075258 9.72096242 -7.0390625 11.53515625 C-7.06484375 12.52386719 -7.090625 13.51257813 -7.1171875 14.53125 C-7.00890625 15.37816406 -6.900625 16.22507813 -6.7890625 17.09765625 C-3.65788683 19.1851067 -2.71960026 19.37419621 0.87890625 19.51171875 C1.77158203 19.55039063 2.66425781 19.5890625 3.58398438 19.62890625 C4.51275391 19.65984375 5.44152344 19.69078125 6.3984375 19.72265625 C7.33880859 19.76132813 8.27917969 19.8 9.24804688 19.83984375 C11.5688146 19.93408812 13.88957498 20.0196965 16.2109375 20.09765625 C16.2109375 21.08765625 16.2109375 22.07765625 16.2109375 23.09765625 C12.8152678 23.18511571 9.41988977 23.23820069 6.0234375 23.28515625 C5.06373047 23.31029297 4.10402344 23.33542969 3.11523438 23.36132812 C-5.851336 23.45440671 -5.851336 23.45440671 -9.7890625 20.09765625 C-12.16325355 16.14067116 -12.67881575 11.60808858 -11.7890625 7.09765625 C-8.79940053 1.94076719 -5.84839207 -0.03523128 0 0 Z " fill="#DADEE2" transform="translate(139.7890625,130.90234375)"/>
<path d="M0 0 C0.66 0 1.32 0 2 0 C3.14501953 1.43701172 3.14501953 1.43701172 4.3828125 3.4296875 C5.04990234 4.49896484 5.04990234 4.49896484 5.73046875 5.58984375 C6.19066406 6.34394531 6.65085938 7.09804688 7.125 7.875 C7.59292969 8.62136719 8.06085938 9.36773437 8.54296875 10.13671875 C12 15.73045736 12 15.73045736 12 18 C4.41 18 -3.18 18 -11 18 C-2.61290323 3.48387097 -2.61290323 3.48387097 0 0 Z " fill="#0F2B47" transform="translate(152,11)"/>
<path d="M0 0 C3.96 0 7.92 0 12 0 C12 14.52 12 29.04 12 44 C5.07 44 -1.86 44 -9 44 C-9.33 43.34 -9.66 42.68 -10 42 C-8.95199219 41.80083984 -8.95199219 41.80083984 -7.8828125 41.59765625 C-6.97273438 41.42105469 -6.06265625 41.24445313 -5.125 41.0625 C-4.22007813 40.88847656 -3.31515625 40.71445313 -2.3828125 40.53515625 C-0.00043683 40.10036299 -0.00043683 40.10036299 2 39 C2 39.66 2 40.32 2 41 C4.31 41 6.62 41 9 41 C9 28.13 9 15.26 9 2 C6.36 2 3.72 2 1 2 C1 6.29 1 10.58 1 15 C0.67 15 0.34 15 0 15 C0 10.05 0 5.1 0 0 Z " fill="#FCE8E9" transform="translate(76,59)"/>
<path d="M0 0 C6 0 6 0 7.9375 1.25 C9 3 9 3 8.75 5.125 C8 7 8 7 7 8 C5.33382885 8.04063832 3.66611905 8.042721 2 8 C2 10.31 2 12.62 2 15 C3.093125 14.938125 4.18625 14.87625 5.3125 14.8125 C9 15 9 15 11 16.1875 C12 18 12 18 11.8125 20.5625 C11 23 11 23 9 25 C6.03 25 3.06 25 0 25 C0 16.75 0 8.5 0 0 Z " fill="#FEF6F6" transform="translate(104,69)"/>
<path d="M0 0 C2.93774463 -0.05390357 5.87450232 -0.0936255 8.8125 -0.125 C10.06256836 -0.15013672 10.06256836 -0.15013672 11.33789062 -0.17578125 C12.14033203 -0.18222656 12.94277344 -0.18867188 13.76953125 -0.1953125 C14.50792236 -0.20578613 15.24631348 -0.21625977 16.00708008 -0.22705078 C18 0 18 0 21 2 C21.375 4.5 21.375 4.5 21 7 C17.89914429 9.06723714 17.27068319 9.24497423 13.76953125 9.1953125 C12.56586914 9.18564453 12.56586914 9.18564453 11.33789062 9.17578125 C10.50451172 9.15902344 9.67113281 9.14226562 8.8125 9.125 C7.96751953 9.11597656 7.12253906 9.10695312 6.25195312 9.09765625 C4.16784757 9.07410703 2.08388783 9.03823647 0 9 C0 6.03 0 3.06 0 0 Z " fill="#19344F" transform="translate(4,134)"/>
<path d="M0 0 C1.87939453 -0.34057617 1.87939453 -0.34057617 4.1328125 -0.29296875 C4.93847656 -0.28330078 5.74414062 -0.27363281 6.57421875 -0.26367188 C7.41597656 -0.23853516 8.25773437 -0.21339844 9.125 -0.1875 C9.97449219 -0.17396484 10.82398437 -0.16042969 11.69921875 -0.14648438 C13.79974837 -0.11108219 15.89995293 -0.05727401 18 0 C19.4606285 2.64738916 20 3.89448334 20 7 C20.66 7.33 21.32 7.66 22 8 C13.75 8 5.5 8 -3 8 C-2 3 -2 3 0 0 Z " fill="#0D2946" transform="translate(70,147)"/>
<path d="M0 0 C1.46015291 0.28241641 2.91809793 0.57626614 4.375 0.875 C5.18710938 1.03742188 5.99921875 1.19984375 6.8359375 1.3671875 C9 2 9 2 11 4 C10.76952616 8.37900291 9.11050331 10.09017432 6 13 C6 13.66 6 14.32 6 15 C8.78091715 14.61376151 10.62199134 14.28980664 12.875 12.5625 C15.70244569 10.48349582 18.64200991 9.93277503 22 9 C22.66 8.34 23.32 7.68 24 7 C25.98821313 6.60235737 27.98944339 6.26224651 30 6 C28.60147088 8.79705825 26.86348142 8.90914993 24 10 C23.01 10.66 22.02 11.32 21 12 C19.2984375 12.4640625 19.2984375 12.4640625 17.5625 12.9375 C14.0649246 13.75105416 14.0649246 13.75105416 11.875 15.625 C9.4721612 17.38708178 7.91020075 17.24251673 5 17 C4.25 14.75 4.25 14.75 4 12 C5.29103643 10.6256709 6.6256709 9.29103643 8 8 C8 6.68 8 5.36 8 4 C6.02 3.34 4.04 2.68 2 2 C2.33 2.99 2.66 3.98 3 5 C3.99 5.33 4.98 5.66 6 6 C4.125 9.875 4.125 9.875 3 11 C2.83333333 14 2.83333333 14 3 17 C4.96822886 18.96822886 8.34808709 18.66248381 11 19 C11 21.31 11 23.62 11 26 C10.401875 26.268125 9.80375 26.53625 9.1875 26.8125 C7.02775192 27.98493467 5.64209744 29.19369282 4 31 C3.67 30.34 3.34 29.68 3 29 C2.34 28.67 1.68 28.34 1 28 C1.99 28 2.98 28 4 28 C4.66 27.01 5.32 26.02 6 25 C7.32 25 8.64 25 10 25 C9.67 23.35 9.34 21.7 9 20 C7.6078125 20.12375 7.6078125 20.12375 6.1875 20.25 C3 20 3 20 1.0625 18.375 C-0.36489363 15.18435542 0.06156734 13.32060787 1 10 C1.66 9.34 2.32 8.68 3 8 C2.505 7.608125 2.01 7.21625 1.5 6.8125 C-0.45593143 4.44908285 -0.24207973 2.98564997 0 0 Z " fill="#DBCED3" transform="translate(195,64)"/>
<path d="M0 0 C1.28210748 3.84632244 0.4119404 5.3538366 -0.9375 9.125 C-2.9280764 14.0729137 -2.9280764 14.0729137 -2 19 C-1.43796875 18.65195313 -0.8759375 18.30390625 -0.296875 17.9453125 C2.52784563 16.78275741 3.83201171 17.10259134 6.75 17.875 C7.54921875 18.07867187 8.3484375 18.28234375 9.171875 18.4921875 C9.77515625 18.65976563 10.3784375 18.82734375 11 19 C10.5020163 15.26512223 10.12508244 13.18762365 8 10 C9.98 10.66 11.96 11.32 14 12 C13.67 9.69 13.34 7.38 13 5 C15.24522908 7.24522908 16.65792764 9.11454442 18 12 C17.1875 14.8125 17.1875 14.8125 16 17 C15.34 16.34 14.68 15.68 14 15 C14 16.32 14 17.64 14 19 C14.66 19.66 15.32 20.32 16 21 C11.77309734 21.0754804 7.75111775 21.02829961 3.5625 20.4375 C2.386875 20.293125 1.21125 20.14875 0 20 C-0.33 20.33 -0.66 20.66 -1 21 C-2.66617115 21.04063832 -4.33388095 21.042721 -6 21 C-6.66 19.68 -7.32 18.36 -8 17 C-7.32324219 16.46246094 -7.32324219 16.46246094 -6.6328125 15.9140625 C-4.39119119 13.2863246 -3.80717893 10.68533619 -2.875 7.375 C-1.08333333 1.08333333 -1.08333333 1.08333333 0 0 Z " fill="#F8D2BD" transform="translate(269,76)"/>
<path d="M0 0 C3.125 0.25 3.125 0.25 5.0625 1.3125 C6.79165678 4.46566824 5.9840699 6.87508255 5.125 10.25 C2.125 12.25 2.125 12.25 -0.4375 12.0625 C-2.875 11.25 -2.875 11.25 -4.875 8.25 C-4.19524169 0.36480363 -4.19524169 0.36480363 0 0 Z " fill="#FDF3F4" transform="translate(71.875,82.75)"/>
<path d="M0 0 C4.29 0 8.58 0 13 0 C13 0.33 13 0.66 13 1 C9.04 1 5.08 1 1 1 C1.66 1.66 2.32 2.32 3 3 C3.22705078 4.87939453 3.22705078 4.87939453 3.1953125 7.1328125 C3.18886719 7.93847656 3.18242188 8.74414062 3.17578125 9.57421875 C3.15902344 10.41597656 3.14226562 11.25773437 3.125 12.125 C3.11597656 12.97449219 3.10695313 13.82398437 3.09765625 14.69921875 C3.07405647 16.79959884 3.03818483 18.89983444 3 21 C2.01 20.67 1.02 20.34 0 20 C-5.54312299 19.46022023 -9.3693191 19.63223207 -14 23 C-14.66 23 -15.32 23 -16 23 C-14.59561113 19.60606022 -13.13616902 17.91654773 -10 16 C-7.421875 15.70703125 -7.421875 15.70703125 -4.75 15.8125 C-3.1825 15.874375 -1.615 15.93625 0 16 C0 10.72 0 5.44 0 0 Z " fill="#DBD6DB" transform="translate(75,58)"/>
<path d="M0 0 C7.81829057 5.94895493 11.8691973 10.77024104 14.0234375 20.30859375 C15.14182667 23.3908743 16.67647732 24.74819098 19 27 C19 27.99 19 28.98 19 30 C18.34 30 17.68 30 17 30 C17 30.66 17 31.32 17 32 C12.44615385 32.36923077 12.44615385 32.36923077 10.1875 30.5 C9.795625 30.005 9.40375 29.51 9 29 C10.32 29 11.64 29 13 29 C12.67 27.68 12.34 26.36 12 25 C12.99 25.66 13.98 26.32 15 27 C14.401875 25.865625 13.80375 24.73125 13.1875 23.5625 C11.65129001 20.5589446 10.64088061 17.76245786 9.8125 14.5 C8.03880095 8.89628048 4.02140821 4.93916557 -1 2 C-5.00463113 1.58644986 -8.11584983 2.1330363 -11.875 3.5 C-13.04675781 3.91765625 -13.04675781 3.91765625 -14.2421875 4.34375 C-14.82226562 4.5603125 -15.40234375 4.776875 -16 5 C-11.25336115 0.02998991 -6.77627825 -2.25875942 0 0 Z " fill="#F1D7CC" transform="translate(241,65)"/>
<path d="M0 0 C3.49649902 0.48950986 5.15003768 1.5852474 8.125 3.4375 C15.28851166 7.23709954 22.55193334 10.55002224 30.125 13.4375 C31.79263273 14.10174642 33.45955154 14.76779586 35.125 15.4375 C33.60293991 12.80848712 32.28134036 10.59384036 30.125 8.4375 C30.3125 5.9375 30.3125 5.9375 31.125 3.4375 C34.125 1.4375 34.125 1.4375 36.3125 1.8125 C36.910625 2.01875 37.50875 2.225 38.125 2.4375 C36.475 3.0975 34.825 3.7575 33.125 4.4375 C33.53429261 7.38440683 33.88576096 9.13385044 35.75 11.5 C37.125 13.4375 37.125 13.4375 36.8125 15.6875 C36.585625 16.265 36.35875 16.8425 36.125 17.4375 C31.76460027 17.01209515 28.81928469 15.81293658 25.09765625 13.5390625 C22.10909167 11.87020069 18.94024498 10.74114594 15.75 9.515625 C12.19838778 8.05692712 8.83427055 6.29550725 5.44921875 4.48828125 C2.97874171 3.3713765 0.81250529 2.77678638 -1.875 2.4375 C-4.14357146 3.27827872 -4.14357146 3.27827872 -5.875 4.4375 C-4.17751377 1.41974671 -3.5032186 0.53309848 0 0 Z " fill="#E3CFD3" transform="translate(284.875,63.5625)"/>
<path d="M0 0 C1.75 0.125 1.75 0.125 4 1 C8 6.11111111 8 6.11111111 8 10 C3.71 10 -0.58 10 -5 10 C-2.75 3.25 -2.75 3.25 0 0 Z " fill="#0B2845" transform="translate(77,134)"/>
<path d="M0 0 C0.66 0 1.32 0 2 0 C2 1.98 2 3.96 2 6 C1.01 6.33 0.02 6.66 -1 7 C-0.505 7.721875 -0.01 8.44375 0.5 9.1875 C2.07919285 12.14848659 2.28178312 13.71253029 2 17 C0.35 17.66 -1.3 18.32 -3 19 C-2.7525 18.113125 -2.505 17.22625 -2.25 16.3125 C-1.92694866 12.03206971 -3.3647179 11.21175006 -6 8 C-5.75 5.1875 -5.75 5.1875 -5 3 C-3.35 2.67 -1.7 2.34 0 2 C0 1.34 0 0.68 0 0 Z " fill="#EB2F3E" transform="translate(323,64)"/>
<path d="M0 0 C0.33 0.99 0.66 1.98 1 3 C0.67 3.66 0.34 4.32 0 5 C1.65 4.67 3.3 4.34 5 4 C4.67 4.7425 4.34 5.485 4 6.25 C2.77217129 9.13883312 2.77217129 9.13883312 3 13 C3.99 13.33 4.98 13.66 6 14 C5.030625 14.12375 4.06125 14.2475 3.0625 14.375 C0.86985351 14.66409132 -1.16255543 15.04624661 -3.29296875 15.65234375 C-9.33193704 17.36186744 -9.33193704 17.36186744 -13 15.375 C-14.90856227 13.10858231 -15.68887848 11.90380086 -16 9 C-15.01 9.33 -14.02 9.66 -13 10 C-13 10.66 -13 11.32 -13 12 C-9.54785147 14.30143236 -8.76520676 14.13833854 -4.8125 13.625 C-3.91144531 13.51414062 -3.01039063 13.40328125 -2.08203125 13.2890625 C-1.39496094 13.19367188 -0.70789063 13.09828125 0 13 C-0.33 10.69 -0.66 8.38 -1 6 C-1 7.98 -1 9.96 -1 12 C-2.20628008 9.66785852 -3.1654738 7.50357861 -4 5 C-3.01 4.67 -2.02 4.34 -1 4 C-0.26676204 1.98491642 -0.26676204 1.98491642 0 0 Z " fill="#ECCDCB" transform="translate(238,83)"/>
<path d="M0 0 C1.32 0 2.64 0 4 0 C3.49396008 2.16874252 3.00016187 3.99967627 2 6 C3.32 6 4.64 6 6 6 C6 5.34 6 4.68 6 4 C10.98229776 2.08373163 15.72684667 1.4452885 21 1 C17.96353237 4.45973282 15.51052501 4.37785862 11 5 C9.7934375 5.7734375 9.7934375 5.7734375 8.5625 6.5625 C4.90465342 8.61446272 2.1556721 8.21130536 -2 8 C-3 5 -3 5 -1.8125 2.3125 C-1.214375 1.549375 -0.61625 0.78625 0 0 Z " fill="#D8AAB2" transform="translate(194,93)"/>
<path d="M0 0 C-1.2065625 0.37125 -1.2065625 0.37125 -2.4375 0.75 C-5.171081 1.72238859 -5.171081 1.72238859 -5.8125 4.125 C-5.874375 4.74375 -5.93625 5.3625 -6 6 C-4.68 6.33 -3.36 6.66 -2 7 C-2 7.66 -2 8.32 -2 9 C-0.8553125 9.1546875 -0.8553125 9.1546875 0.3125 9.3125 C3.22117209 10.05657891 4.38010972 10.48017068 6 13 C5.6875 15.6875 5.6875 15.6875 5 18 C-1.07328688 18.50610724 -4.77228537 17.04157942 -10 14 C-9.01 13.67 -8.02 13.34 -7 13 C-5 14 -3 15 -1 16 C1.75146274 16.25284367 1.75146274 16.25284367 4 16 C4 15.01 4 14.02 4 13 C3.34 13 2.68 13 2 13 C1.67 12.34 1.34 11.68 1 11 C0.34 11.66 -0.32 12.32 -1 13 C-1.433125 12.195625 -1.86625 11.39125 -2.3125 10.5625 C-3.80474002 7.72153646 -3.80474002 7.72153646 -7 7 C-7 4.69 -7 2.38 -7 0 C-2.25 -1.125 -2.25 -1.125 0 0 Z " fill="#ECD7DB" transform="translate(323,83)"/>
<path d="M0 0 C0.99 0 1.98 0 3 0 C3 7.26 3 14.52 3 22 C2.01 22 1.02 22 0 22 C0 14.74 0 7.48 0 0 Z " fill="#F2F4F5" transform="translate(193,132)"/>
<path d="M0 0 C2.64 0.99 5.28 1.98 8 3 C7.47963877 6.85067311 6.68672299 8.31327701 4 11 C4 12.32 4 13.64 4 15 C4.99 15.66 5.98 16.32 7 17 C5.125 17.625 5.125 17.625 3 18 C1 16 1 16 0.625 13.1875 C1.07800642 9.33694545 2.3816636 7.78198242 5 5 C3.68 4.67 2.36 4.34 1 4 C0.67 2.68 0.34 1.36 0 0 Z " fill="#EC3A48" transform="translate(196,65)"/>
<path d="M0 0 C0.33 0.99 0.66 1.98 1 3 C1.99 2.67 2.98 2.34 4 2 C4.33 2.99 4.66 3.98 5 5 C5.33 4.34 5.66 3.68 6 3 C8.31 3 10.62 3 13 3 C11.4375 5.5625 11.4375 5.5625 9 8 C4.73909778 7.92524733 2.55499889 7.36999926 -1 5 C-0.67 3.35 -0.34 1.7 0 0 Z " fill="#EB2C3B" transform="translate(283,90)"/>
<path d="M0 0 C1.28210748 3.84632244 0.4119404 5.3538366 -0.9375 9.125 C-2.9280764 14.0729137 -2.9280764 14.0729137 -2 19 C-1.34 18.67 -0.68 18.34 0 18 C-0.33 18.99 -0.66 19.98 -1 21 C-2.65 21 -4.3 21 -6 21 C-6.66 19.68 -7.32 18.36 -8 17 C-7.32324219 16.46246094 -7.32324219 16.46246094 -6.6328125 15.9140625 C-4.39119119 13.2863246 -3.80717893 10.68533619 -2.875 7.375 C-1.08333333 1.08333333 -1.08333333 1.08333333 0 0 Z " fill="#FBDAC4" transform="translate(269,76)"/>
<path d="M0 0 C2 3 2 3 3.5 6.125 C4.68898301 9.08870808 4.68898301 9.08870808 7 10 C7 10.99 7 11.98 7 13 C6.34 13 5.68 13 5 13 C5 13.66 5 14.32 5 15 C0.44615385 15.36923077 0.44615385 15.36923077 -1.8125 13.5 C-2.204375 13.005 -2.59625 12.51 -3 12 C-1.68 12 -0.36 12 1 12 C0.67 10.68 0.34 9.36 0 8 C0.99 8.66 1.98 9.32 3 10 C2.69964844 9.44570312 2.39929688 8.89140625 2.08984375 8.3203125 C1.70957031 7.59585938 1.32929688 6.87140625 0.9375 6.125 C0.36322266 5.04605469 0.36322266 5.04605469 -0.22265625 3.9453125 C-0.60744141 2.98238281 -0.60744141 2.98238281 -1 2 C-0.67 1.34 -0.34 0.68 0 0 Z " fill="#FBD6C4" transform="translate(253,82)"/>
<path d="M0 0 C0.33 0 0.66 0 1 0 C1.309375 1.11375 1.61875 2.2275 1.9375 3.375 C2.82326483 6.7945155 2.82326483 6.7945155 4 9 C3.01 9.495 3.01 9.495 2 10 C4.31 10.33 6.62 10.66 9 11 C8.67 11.66 8.34 12.32 8 13 C4.625 12.6875 4.625 12.6875 1 12 C-1 9 -1 9 -1 6 C-3.64 6 -6.28 6 -9 6 C-9 5.67 -9 5.34 -9 5 C-6.03 5 -3.06 5 0 5 C0 3.35 0 1.7 0 0 Z " fill="#E8ACB3" transform="translate(305,84)"/>
<path d="M0 0 C0.33 0.66 0.66 1.32 1 2 C3.31 2 5.62 2 8 2 C7.01 2.66 6.02 3.32 5 4 C3.7934375 5.0828125 3.7934375 5.0828125 2.5625 6.1875 C0 8 0 8 -1.875 7.75 C-2.57625 7.5025 -3.2775 7.255 -4 7 C-6.33300933 6.96111651 -8.66709801 6.9551365 -11 7 C-11 6.67 -11 6.34 -11 6 C-10.37351563 5.90203125 -9.74703125 5.8040625 -9.1015625 5.703125 C-7.87566406 5.47882813 -7.87566406 5.47882813 -6.625 5.25 C-5.81289062 5.11078125 -5.00078125 4.9715625 -4.1640625 4.828125 C-1.82290908 4.18250739 -1.82290908 4.18250739 -0.7109375 1.921875 C-0.47632813 1.28765625 -0.24171875 0.6534375 0 0 Z " fill="#EAC2C7" transform="translate(215,87)"/>
<path d="M0 0 C0.598125 0.20625 1.19625 0.4125 1.8125 0.625 C0.1625 1.285 -1.4875 1.945 -3.1875 2.625 C-2.77820739 5.57190683 -2.42673904 7.32135044 -0.5625 9.6875 C0.8125 11.625 0.8125 11.625 0.5 13.875 C0.273125 14.4525 0.04625 15.03 -0.1875 15.625 C-1.5075 15.295 -2.8275 14.965 -4.1875 14.625 C-3.1975 14.295 -2.2075 13.965 -1.1875 13.625 C-2.70956009 10.99598712 -4.03115964 8.78134036 -6.1875 6.625 C-6 4.125 -6 4.125 -5.1875 1.625 C-2.1875 -0.375 -2.1875 -0.375 0 0 Z " fill="#D7C0C6" transform="translate(321.1875,65.375)"/>
<path d="M0 0 C2 0.8125 2 0.8125 4 4.8125 C1.03 4.8125 -1.94 4.8125 -5 4.8125 C-4.67 3.4925 -4.34 2.1725 -4 0.8125 C-2 -0.1875 -2 -0.1875 0 0 Z " fill="#FDEDEE" transform="translate(44,81.1875)"/>
<path d="M0 0 C2.00757689 0.90664763 3.96990478 1.88506644 5.9375 2.875 C5.33421875 2.99617188 4.7309375 3.11734375 4.109375 3.2421875 C3.31015625 3.40976563 2.5109375 3.57734375 1.6875 3.75 C0.50414063 3.99363281 0.50414063 3.99363281 -0.703125 4.2421875 C-3.03081144 4.86650075 -4.95281952 5.72338542 -7.0625 6.875 C-7.0625 5.885 -7.0625 4.895 -7.0625 3.875 C-3.00535714 -0.18214286 -3.00535714 -0.18214286 0 0 Z " fill="#EBDBDE" transform="translate(67.0625,74.125)"/>
<path d="M0 0 C2.31 0 4.62 0 7 0 C7 2.31 7 4.62 7 7 C6.401875 7.268125 5.80375 7.53625 5.1875 7.8125 C3.02775192 8.98493467 1.64209744 10.19369282 0 12 C-0.33 11.34 -0.66 10.68 -1 10 C-1.66 9.67 -2.32 9.34 -3 9 C-2.01 9 -1.02 9 0 9 C0.66 8.01 1.32 7.02 2 6 C3.32 6 4.64 6 6 6 C5.67 4.35 5.34 2.7 5 1 C3.35 1 1.7 1 0 1 C0 0.67 0 0.34 0 0 Z " fill="#EACACE" transform="translate(199,83)"/>
<path d="M0 0 C3.63 0 7.26 0 11 0 C10.01 0.495 10.01 0.495 9 1 C8.67 1.99 8.34 2.98 8 4 C6.02 4 4.04 4 2 4 C1.34 2.68 0.68 1.36 0 0 Z " fill="#FEF7F7" transform="translate(39,91)"/>
<path d="M0 0 C1.32 0.33 2.64 0.66 4 1 C3.67 2.65 3.34 4.3 3 6 C-3.07328688 6.50610724 -6.77228537 5.04157942 -12 2 C-11.01 1.67 -10.02 1.34 -9 1 C-7 2 -5 3 -3 4 C-0.24853726 4.25284367 -0.24853726 4.25284367 2 4 C2 3.01 2 2.02 2 1 C1.34 0.67 0.68 0.34 0 0 Z " fill="#DDCFD4" transform="translate(325,95)"/>
<path d="M0 0 C0.66 0 1.32 0 2 0 C2 1.98 2 3.96 2 6 C1.01 6.33 0.02 6.66 -1 7 C-0.505 7.721875 -0.01 8.44375 0.5 9.1875 C2.07919285 12.14848659 2.28178312 13.71253029 2 17 C1.34 17.33 0.68 17.66 0 18 C-0.1546875 16.39125 -0.1546875 16.39125 -0.3125 14.75 C-0.97400493 11.14179128 -1.57483421 9.63604977 -4 7 C-2.68 6.34 -1.36 5.68 0 5 C0 3.35 0 1.7 0 0 Z " fill="#EBD6DA" transform="translate(323,64)"/>
<path d="M0 0 C2.64 0.99 5.28 1.98 8 3 C8 4.32 8 5.64 8 7 C7.34 7 6.68 7 6 7 C6 6.34 6 5.68 6 5 C4.35 4.67 2.7 4.34 1 4 C0.67 2.68 0.34 1.36 0 0 Z " fill="#EB2938" transform="translate(196,65)"/>
<path d="M0 0 C1.60517097 0.08733576 3.20921662 0.19552224 4.8125 0.3125 C6.15248047 0.39951172 6.15248047 0.39951172 7.51953125 0.48828125 C10 1 10 1 13 4 C9.04 3.67 5.08 3.34 1 3 C0.67 2.01 0.34 1.02 0 0 Z " fill="#EF535F" transform="translate(306,92)"/>
<path d="M0 0 C0.66 0.33 1.32 0.66 2 1 C2 1.66 2 2.32 2 3 C-3.2734375 6.22265625 -3.2734375 6.22265625 -5 7 C-5.66 6.67 -6.32 6.34 -7 6 C-7 5.34 -7 4.68 -7 4 C-1.7265625 0.77734375 -1.7265625 0.77734375 0 0 Z " fill="#E8DEE1" transform="translate(38,74)"/>
<path d="M0 0 C2.24522908 2.24522908 3.65792764 4.11454442 5 7 C4.1875 9.8125 4.1875 9.8125 3 12 C0.60926555 8.17482487 0.44033448 4.40334476 0 0 Z " fill="#F5979F" transform="translate(282,81)"/>
<path d="M0 0 C-1.73605513 1.73605513 -4.20549496 1.65611982 -6.5625 2.0625 C-7.57441406 2.23910156 -8.58632812 2.41570312 -9.62890625 2.59765625 C-10.41136719 2.73042969 -11.19382813 2.86320312 -12 3 C-12 2.01 -12 1.02 -12 0 C-10.56359829 -0.19573608 -9.12580496 -0.38127816 -7.6875 -0.5625 C-6.88699219 -0.66691406 -6.08648437 -0.77132812 -5.26171875 -0.87890625 C-3 -1 -3 -1 0 0 Z " fill="#EC3947" transform="translate(214,94)"/>
<path d="M0 0 C2.31 0.66 4.62 1.32 7 2 C6.34 4.31 5.68 6.62 5 9 C4.34 9 3.68 9 3 9 C2.87625 8.071875 2.7525 7.14375 2.625 6.1875 C2.18466918 2.86074765 2.18466918 2.86074765 0 0 Z " fill="#FCE5DD" transform="translate(277,86)"/>
<path d="M0 0 C0.66 1.32 1.32 2.64 2 4 C-2.33333333 4 -6.66666667 4 -11 4 C-11 3.67 -11 3.34 -11 3 C-5.555 2.505 -5.555 2.505 0 2 C0 1.34 0 0.68 0 0 Z " fill="#E6848E" transform="translate(215,90)"/>
<path d="M0 0 C0.66 0.33 1.32 0.66 2 1 C2 1.66 2 2.32 2 3 C2.66 3 3.32 3 4 3 C4 3.99 4 4.98 4 6 C2.35 6.33 0.7 6.66 -1 7 C-0.34 6.67 0.32 6.34 1 6 C0.67 4.02 0.34 2.04 0 0 Z " fill="#F16873" transform="translate(323,93)"/>
<path d="M0 0 C2.31 0 4.62 0 7 0 C5.68 1.32 4.36 2.64 3 4 C2.01 3.67 1.02 3.34 0 3 C0 2.01 0 1.02 0 0 Z " fill="#ED3F4C" transform="translate(289,93)"/>
<path d="M0 0 C0.78375 0.04125 1.5675 0.0825 2.375 0.125 C1.75625 0.57875 1.1375 1.0325 0.5 1.5 C-1.68419833 3.09608919 -1.68419833 3.09608919 -3.625 5.125 C-4.615 5.455 -5.605 5.785 -6.625 6.125 C-3.85227273 0.18344156 -3.85227273 0.18344156 0 0 Z " fill="#DADEE3" transform="translate(78.625,130.875)"/>
<path d="M0 0 C0.99 0.99 1.98 1.98 3 3 C-0.75 6 -0.75 6 -3 6 C-1.125 1.125 -1.125 1.125 0 0 Z " fill="#F3848D" transform="translate(273,82)"/>
</svg>
