<svg xmlns="http://www.w3.org/2000/svg" viewBox="0 0 219.5 153.94"><title>AlphaTauri logo - Brandlogos.net</title><path d="M491.41,531.4c.92-.77,1.81-1.54,2.69-2.36a54.25,54.25,0,0,0,17-39.52,20.06,20.06,0,0,1,2.69-10.07,20.6,20.6,0,0,1,2.86-3.86,20.27,20.27,0,0,1,12.47-6.28h.09a8.86,8.86,0,0,0,1.87-.47,3,3,0,0,0,.7-.42V435.1a54.12,54.12,0,0,0-32.18,10.35c-1,.7-1.92,1.44-2.84,2.19S495,449.18,494.1,450a54.25,54.25,0,0,0-17,39.52,20.06,20.06,0,0,1-2.69,10.07,20.6,20.6,0,0,1-2.86,3.86,20.21,20.21,0,0,1-14.79,6.42h0a20.34,20.34,0,1,1,14.82-34.27,61.63,61.63,0,0,1,17.06-30.17A54.43,54.43,0,1,0,456.69,544h.06a53.86,53.86,0,0,0,34.74-12.63l-.08.07Zm46-11.67a9.51,9.51,0,0,0-1-1.17A11.76,11.76,0,0,0,532.3,516a8.81,8.81,0,0,1-2.16-1.14,7.79,7.79,0,0,1-2.24-2.54c-.2-.47-.8-1.89-1.07-2.34a.76.76,0,0,0-1.32.75,12.57,12.57,0,0,1,.82,2.59c.17,1.27-1,1.67-1.72,1.69-1.69.07-2.66.07-4.35.27a50,50,0,0,1-7.66.35,61.43,61.43,0,0,1-13,18,54.14,54.14,0,0,0,30.67,10.32,13.89,13.89,0,0,1,1.52,0V531.05a2.23,2.23,0,0,1-2.54-.62,6.4,6.4,0,0,1-.84-1.14c-.27-.47-.5-1-.75-1.52-.5-1.1-.55-1.14-1.74-1.1h-.11a1.84,1.84,0,0,1-1.38-.62,18.89,18.89,0,0,1-2.21-3.11c-.13-.1.37-.45.6-.47,1.22-.22,2.46-.42,3.71-.62a1.7,1.7,0,0,1,1.77.84c.3.42.52.9.8,1.34a5.86,5.86,0,0,1,.35.7,2.52,2.52,0,0,0,3,1.54,7.9,7.9,0,0,0,5-2.74c1.44-1.72,1.14-2.41.07-3.81Zm-3.61,3.63a3.45,3.45,0,0,1-1.22.37,1.16,1.16,0,0,1-1.44-.8,7,7,0,0,1-.77-2.64,17.69,17.69,0,0,1,3.31-.52,3.21,3.21,0,0,1,.92,1.59,1.62,1.62,0,0,1-.8,2Zm6.92-43.58a16.14,16.14,0,0,1,4.85,4.77c.27.47.62.62.95.47s.4-.62.45-.95a5.53,5.53,0,0,0-.77-2.61,13.8,13.8,0,0,0-4.57-4.83,7.68,7.68,0,0,0-1.3-.6,1.84,1.84,0,0,0-.6-.1h0a1.25,1.25,0,0,0-1.17.67,1.21,1.21,0,0,0,0,1.34,4,4,0,0,0,.72.75c.45.37.95.72,1.44,1.07Zm21.31,32.29a5,5,0,0,0-1.52.67,2.56,2.56,0,0,0-1,2.71c.07.45.32.65,1.17.72,2-.15,2.51-1,2.51-2.69,0-.13,0-.37,0-.65-.07-.62-.47-.95-1.07-.77Z" transform="translate(-402.25 -435.03)"/><path d="M538.34,435.07v32.28l.62.13a10.86,10.86,0,0,1,1.14.37,10.47,10.47,0,0,1,1.22.65c3.63,2.36,7.56,4.13,11.34,6.22,2.27,1.27,4.55,2.46,6.69,4a27.59,27.59,0,0,1,5.72,5,17.93,17.93,0,0,1,3,4.95q1.56,4.18,3.06,8.38c.82,2.31,1.57,4.68,2.59,6.91a30.84,30.84,0,0,0,3.11,5.52,17.7,17.7,0,0,0,6.57,5.77s.82.37.67.55a3.6,3.6,0,0,1-2.93.17,6.35,6.35,0,0,1-2.49-1.59c-.62-.6-1.19-1.24-1.81-1.87-1-1-2-1.92-3-2.86a3.33,3.33,0,0,0-1-.6.72.72,0,0,0-.28-.06.7.7,0,0,0-.7.7.24.24,0,0,0,0,.06h0a2.76,2.76,0,0,0,.3,1.1,18.34,18.34,0,0,0,1.27,1.79c.75,1,1.49,2,2.31,3a23.62,23.62,0,0,0,2.09,2.09c.52.45,1.1.82,1.64,1.24a6.42,6.42,0,0,1,.65.6,4.11,4.11,0,0,1-.57.2,7,7,0,0,1-3.41-.62,18.2,18.2,0,0,1-3.38-1.92c-.67-.47-1.34-1-2-1.39a1.59,1.59,0,0,0-2.24.17,12.38,12.38,0,0,0-1.24,1.32,3.23,3.23,0,0,1-2.74,1.22,17.27,17.27,0,0,0-1.94,0,9.39,9.39,0,0,0-4.35,1.52c-.47.3-.95.62-1.44.9a14.35,14.35,0,0,1-2,.95,2.63,2.63,0,0,1-3.43-2,9.17,9.17,0,0,1-.07-1.17c0-.35,0-.7,0-1,0-.84-.3-1-1.14-.92-1.1.13-1.34-.17-1-1.22s.82-2.09,1.22-3.13a23.69,23.69,0,0,1,2.49-4.83c.47-.72.87-1.49,1.27-2.27a7.39,7.39,0,0,0,.5-1.47.82.82,0,0,0-.42-1,.85.85,0,0,0-.95.22c-.7.65-1.42,1.27-2.07,2a8.17,8.17,0,0,1-5.25,2.51c-.6.07-1.19.2-1.79.27-.3,0-.6,0-.92,0a2.47,2.47,0,0,1,.25-1.3,31.18,31.18,0,0,0,1.3-6.19,14.9,14.9,0,0,0-.4-5,3.13,3.13,0,0,0-.4-.95.83.83,0,0,0-1.34-.1,1.3,1.3,0,0,0-.37.95l0,1.42a25.23,25.23,0,0,1-.5,5.67c-.17.75-.42,1.49-.67,2.24a6.07,6.07,0,0,1-1.64,2.44c-.55.5-1.1,1-1.62,1.49a2.91,2.91,0,0,0-.35,4.08c1,1.44,2.07,2.89,3.18,4.25a5.86,5.86,0,0,1,1.37,3.81,9.5,9.5,0,0,0,.1,1.17,3.69,3.69,0,0,0,.32.67c.25-.17.5-.27.6-.47a7.64,7.64,0,0,0,.8-4.9,3.51,3.51,0,0,0-.52-1.17c-.75-1.1-1.54-2.19-2.31-3.28l-1-1.81c1.07-1,1.49-.9,2.27.25,1.14,1.67,2.21,3.38,3.31,5.1a4.12,4.12,0,0,1,.5,3.11c-.25,1.17-.42,2.39-.67,3.83s-.52,1.59-1.92,1.57a2.39,2.39,0,0,0-2.27,1.19,3.79,3.79,0,0,1-2,1.62l-1,.42v16l2.61,0A53.31,53.31,0,0,0,592.95,491c0-.52,0-1,0-1.57v-19.3h16.14L621.75,435H538.36Z" transform="translate(-402.25 -435.03)"/><path d="M565.23,503.67a7.08,7.08,0,0,0,.47,1c.17.3.47.32.8.3a.78.78,0,0,0,.7-.52,5.51,5.51,0,0,0,.13-.67c-.27-1.79-.67-3.56-2.19-4.8a50.34,50.34,0,0,1-4.28-4,1,1,0,0,0-1.3,0,2.55,2.55,0,0,0-.47.45,10.18,10.18,0,0,0-1.87,4,2.79,2.79,0,0,0,0,.65c0,.55.22.87.65,1a1,1,0,0,0,1.14-.35c.22-.3.42-.65.67-.95a.8.8,0,0,1,1-.3,6.61,6.61,0,0,1,.95.42c.67.45,1.34.95,2,1.44a4.61,4.61,0,0,1,1.64,2.31Zm-139.9,62.85h-1.59v22.16h12.68v-1.59H425.33Zm154.55,2.76a9,9,0,0,0-6.64-2.74h-10.1v22.13H569V585.3h4.25l.4,0,2,3.41h6.82l-3.26-5.52a9.35,9.35,0,0,0,.67-13.88Zm-4.13,9.13a3.37,3.37,0,0,1-2.51,1H569v-7.06h4.25a3.45,3.45,0,0,1,2.51,1,3.37,3.37,0,0,1,1,2.51A3.28,3.28,0,0,1,575.75,578.41ZM448.51,566.54h-9.35v22.13h1.59v-7h7.76a7.55,7.55,0,0,0,0-15.09Zm4.23,11.76a5.75,5.75,0,0,1-4.23,1.77h-7.76V568.16h7.76a5.87,5.87,0,0,1,4.23,1.74,5.94,5.94,0,0,1,0,8.41Zm-41.43-11.76h-1.1l-8,22.13H404l2.54-7h9.58l2.54,7h1.72l-8-22.16h-1.1ZM407.08,580l4.23-11.74L415.54,580h-8.46Zm179.84-13.5h5.84v22.16h-5.84Zm-97.74,0h-1.1l-8,22.13h1.72l2.54-7H494l2.54,7h1.72l-8-22.16h-1.07ZM484.95,580l4.23-11.74L493.41,580h-8.46Zm31.88-13.5H496l2.11,5.84h5.4v16.29h5.87V572.39h5.4Zm35.56,12.23a4.35,4.35,0,1,1-8.7,0V566.54h-5.84v12.24a10.2,10.2,0,0,0,20.39,0V566.54H552.4ZM475.22,580H460.87V566.52h-1.57v22.16h1.57v-7h14.35v7h1.59V566.52h-1.59Zm47.33-13.5-8,22.13h5.87l.92-2.54h8.21l.95,2.54h5.89l-8-22.16h-5.87Zm.67,14.25,2.27-6.77,2.24,6.77Z" transform="translate(-402.25 -435.03)"/></svg>