<?xml version="1.0" encoding="UTF-8"?>
<svg version="1.1" xmlns="http://www.w3.org/2000/svg" width="1200" height="700">
<path d="M0 0 C1.06023762 -0.00698988 1.06023762 -0.00698988 2.14189419 -0.01412097 C4.51650573 -0.02609644 6.89054779 -0.01666595 9.26516438 -0.00736332 C10.98239803 -0.01153515 12.69962892 -0.01701184 14.41685468 -0.02368313 C19.14076278 -0.03817677 23.864497 -0.03388076 28.58841479 -0.02651632 C33.68128876 -0.02179649 38.77412447 -0.03428414 43.86698627 -0.04453373 C53.84732355 -0.06175173 63.82759795 -0.06255534 73.80794623 -0.05732083 C81.92035341 -0.05328263 90.03274199 -0.05471852 98.14514828 -0.06006908 C99.29890924 -0.06081751 100.45267019 -0.06156593 101.64139361 -0.06233703 C103.98515763 -0.06386849 106.32892165 -0.06540683 108.67268566 -0.066952 C130.66589754 -0.08068848 152.65907388 -0.07523181 174.65228496 -0.06376678 C194.77231043 -0.05383834 214.89224388 -0.06676634 235.01225515 -0.09070098 C255.66683797 -0.1150865 276.32137793 -0.12470087 296.97597486 -0.11804825 C308.57370256 -0.11455416 320.17135952 -0.1168004 331.76907635 -0.13429928 C341.64462706 -0.14901461 351.52005726 -0.14966565 361.39560559 -0.13222837 C366.43379261 -0.12370958 371.47176429 -0.12159026 376.50994015 -0.13687992 C381.12474298 -0.15071118 385.73914567 -0.14598383 390.35392527 -0.12664068 C392.02083251 -0.1228755 393.68777168 -0.12581758 395.35465052 -0.13625234 C408.36772732 -0.21190316 417.75355944 1.46783823 427.51743793 10.66547298 C430.99039694 14.62236891 433.44095253 18.92773702 435.91587543 23.56000423 C438.31230096 26.96594759 440.06372492 27.8198824 443.90025043 29.38031673 C447.28706382 29.82956728 447.28706382 29.82956728 450.91196918 29.76850033 C451.58595753 29.77375729 452.25994587 29.77901424 452.9543581 29.7844305 C455.16572986 29.7975539 457.37637231 29.78892034 459.58775043 29.77875423 C461.13421993 29.78077719 462.68068849 29.78369047 464.22715473 29.78745174 C467.46170388 29.7918647 470.69600379 29.78547743 473.93052387 29.77143002 C478.06646282 29.75433852 482.20181764 29.76418525 486.33773518 29.78214741 C489.52916037 29.79301321 492.72044819 29.78952614 495.91187763 29.78176403 C497.43643482 29.77976974 498.96100468 29.78219409 500.48554707 29.78920269 C502.620209 29.79686365 504.75393877 29.78514967 506.88853168 29.76850033 C508.70671406 29.76492016 508.70671406 29.76492016 510.56162739 29.76126766 C514.31168178 29.33337069 516.69896618 28.35663822 519.90025043 26.38031673 C521.52446313 24.14950453 522.87040362 22.0746734 524.21275043 19.69281673 C530.08137157 10.0126426 536.74023156 3.42596927 547.90025043 0.38031673 C553.55505234 -0.19473289 559.176504 -0.15654139 564.8553896 -0.12088871 C566.57566561 -0.1247854 568.29593841 -0.13042879 570.01620364 -0.13765961 C574.72519664 -0.15237876 579.43385404 -0.14225416 584.14283609 -0.12792289 C589.22804703 -0.11679719 594.31321151 -0.12876085 599.39841938 -0.13776493 C609.35202417 -0.15168729 619.30550198 -0.14414917 629.25910071 -0.12908935 C640.84938661 -0.11222103 652.43964095 -0.11544043 664.02993533 -0.11918343 C684.70645926 -0.1250599 705.38292225 -0.11089735 726.05943012 -0.086236 C746.12716167 -0.06230343 766.19481186 -0.05523686 786.26255512 -0.06572819 C808.1166206 -0.07713293 829.97064845 -0.0790739 851.82471347 -0.06463009 C854.15402809 -0.06310424 856.48334272 -0.06158389 858.81265736 -0.06006908 C859.95873308 -0.05931127 861.1048088 -0.05855346 862.28561409 -0.05777268 C870.36708801 -0.0530274 878.44854514 -0.05488293 886.53001881 -0.05913448 C896.37371318 -0.06405681 906.21733057 -0.05809579 916.06100729 -0.03824019 C921.08451811 -0.02835739 926.10791161 -0.02327383 931.13142872 -0.0311327 C935.72788359 -0.03817649 940.32410148 -0.03141542 944.92052504 -0.01352907 C946.5851895 -0.00947623 948.24987547 -0.01049841 949.91453198 -0.01704793 C952.17432934 -0.02517961 954.43332455 -0.01490921 956.69307041 0 C957.94908062 0.00102913 959.20509083 0.00205826 960.49916196 0.00311857 C965.55282883 0.56359616 968.7886621 2.21022375 972.27525043 5.88031673 C974.65723361 11.01074203 975.09974009 14.82687843 973.90025043 20.38031673 C970.51271625 28.94664291 965.19074754 38.81208364 956.90025043 43.38031673 C955.2061689 43.88880466 953.49606569 44.34633374 951.77525043 44.75531673 C947.6829127 45.78778726 945.99807046 46.92108669 943.65025043 50.44281673 C942.70415365 52.07191035 941.78837649 53.71890852 940.90025043 55.38031673 C936.08531993 63.93315381 932.53946032 69.37047534 922.77525043 72.38031673 C921.25544575 72.78250423 921.25544575 72.78250423 919.70493793 73.19281673 C914.56998217 75.36694842 912.3355084 80.15071566 909.52525043 84.75531673 C902.38206214 96.03882436 895.23883805 101.78405551 882.37681293 105.61859798 C881.43399464 105.90898449 880.49117634 106.19937099 879.51978779 106.49855709 C876.31820922 107.4764673 873.11060105 108.43161077 869.90025043 109.38031673 C868.74247089 109.72254269 867.58469135 110.06476864 866.39182758 110.41736507 C858.47943976 112.74586929 850.55608639 115.03522323 842.62943745 117.31458187 C838.17218883 118.59660213 833.71694149 119.88548492 829.26206684 121.17572689 C828.50225702 121.39575249 827.7424472 121.61577808 826.95961285 121.84247112 C825.40907717 122.29147726 823.85854453 122.7404939 822.30801487 123.18952084 C811.95160831 126.18824411 801.59380002 129.18201623 791.23228168 132.16303158 C784.16025201 134.19779041 777.0910448 136.24206333 770.02481747 138.29688454 C766.30301538 139.37877035 762.5800193 140.45602603 758.85355854 141.52176571 C755.35695339 142.52181944 751.86411551 143.53410017 748.37366962 144.55543613 C746.50230451 145.09964199 744.62724497 145.63109475 742.75205708 146.16197872 C729.32647474 150.11928886 720.51337941 155.46826708 712.16978168 166.71234798 C702.14493208 180.17822148 689.09973519 185.11308101 673.25571918 189.28656673 C671.91452048 189.64743816 670.57355431 190.00917471 669.23280048 190.37169552 C665.60958535 191.34880852 661.98336298 192.31426672 658.35633945 193.27713299 C654.52268233 194.29644484 650.69142174 195.32468627 646.85996723 196.35224056 C642.00131593 197.65485179 637.14241899 198.95650882 632.28234577 200.25380611 C620.84808083 203.3080211 609.43000211 206.41821853 598.01832104 209.55568218 C592.68380728 211.02070277 587.3471042 212.47772822 582.01035118 213.93456745 C577.69657778 215.1127584 573.38420083 216.2956215 569.07465839 217.48920345 C565.00548303 218.61592832 560.93285514 219.72921378 556.85736942 220.8328867 C555.36270645 221.24017204 553.86933667 221.65224022 552.37745762 222.06960773 C541.11479828 225.21656736 529.85814068 227.88877144 518.90025043 222.38031673 C512.6094979 218.37204964 507.50278368 213.10723156 502.31431293 207.79828548 C499.58431311 205.06386819 496.71905503 202.55245345 493.78306293 200.04437923 C491.21001414 197.77027387 488.82481478 195.33289302 486.44321918 192.86078548 C484.01808722 190.53388672 482.34250667 189.43241653 478.98228168 189.03656673 C475.26288896 189.45140395 474.23424249 190.28704481 471.58775043 192.88031673 C470.73825825 193.69242611 469.88876606 194.50453548 469.01353168 195.34125423 C468.53222797 195.81272884 468.05092426 196.28420345 467.55503559 196.76996517 C464.90880929 199.34513612 462.21178977 201.86595684 459.52061176 204.39398861 C458.05769156 205.76958217 456.59773684 207.14833845 455.14121723 208.53070736 C441.00648317 221.92168164 441.00648317 221.92168164 435.58775043 223.81781673 C434.76661762 224.12590267 433.94548481 224.43398861 433.09946918 224.75141048 C421.32167596 227.06670317 410.69149759 223.56270809 399.41587543 220.43891048 C397.4951271 219.917797 395.57404242 219.3979219 393.65264606 218.87920284 C388.53578741 217.49410564 383.42369602 216.09216069 378.31253147 214.68621731 C373.03152738 213.23598979 367.74685414 211.79925979 362.46250629 210.36127377 C356.15200003 208.64301968 349.84202358 206.92289747 343.53414631 205.195014 C332.37348956 202.13828052 321.20608334 199.11195316 310.01815128 196.15657139 C305.63038442 194.99614053 301.2453697 193.82534069 296.85984516 192.6564703 C294.6258399 192.06385162 292.39059429 191.47588567 290.15403461 190.89298153 C269.79688017 185.57895031 254.27951201 179.76437033 241.79868793 161.93109798 C235.52930993 153.50742754 226.70357255 149.64979614 216.86118793 146.80609798 C215.66442936 146.45052822 215.66442936 146.45052822 214.44349384 146.08777523 C211.72290195 145.28194678 208.99915058 144.48738492 206.27525043 143.69281673 C204.28877818 143.10728661 202.30245609 142.52124685 200.31626606 141.93476009 C192.84866924 139.73481601 185.37487594 137.5562291 177.90025043 135.38031673 C177.10006992 135.14736904 176.29988941 134.91442135 175.47546101 134.67441463 C157.69458216 129.49873364 139.91229759 124.32787182 122.12437153 119.17645931 C112.76348502 116.4650322 103.40536504 113.74426292 94.05137348 111.00913906 C92.66624238 110.60423365 91.28099733 110.19971774 89.89561176 109.79568386 C86.02896756 108.66784513 82.16639421 107.52712538 78.30650043 106.37641048 C77.4352956 106.12222851 76.56409077 105.86804653 75.66648579 105.60616207 C61.79605372 101.42073375 54.44798085 94.90574758 47.01353168 82.72016048 C42.59115647 75.73100927 40.02218814 73.71313123 32.06821918 71.66547298 C24.33526937 68.52843169 20.48846731 62.75668756 16.65025043 55.63031673 C15.81795617 54.11125205 14.97965457 52.59545927 14.13462543 51.08344173 C13.77594379 50.41989681 13.41726215 49.75635189 13.04771137 49.07269955 C10.75565809 45.69216479 7.89866135 45.0818297 4.15025043 44.25531673 C-1.88709379 42.46161302 -4.62170417 39.50750275 -8.09974957 34.38031673 C-8.82806988 33.30781673 -9.55639019 32.23531673 -10.30678082 31.13031673 C-14.2928221 24.91992976 -17.26499541 19.33412677 -16.62709332 11.72406673 C-15.60404841 7.17720047 -13.59203474 4.48724578 -9.89895266 1.74783653 C-6.39914732 0.03804524 -3.8916419 0.00318002 0 0 Z M-5.02678287 11.75756669 C-6.32932019 13.38149737 -6.32932019 13.38149737 -5.99428082 15.71625423 C-4.95489548 18.81171624 -3.55363238 21.2592912 -1.78724957 24.00531673 C-1.19299175 24.94633236 -0.59873394 25.88734798 0.01353168 26.85687923 C1.91851179 29.40474083 3.17185714 30.77789516 5.90025043 32.38031673 C9.20788557 32.82811988 9.20788557 32.82811988 12.98297215 32.74946022 C13.70008122 32.75292175 14.41719029 32.75638329 15.15602994 32.75994971 C17.57156809 32.76792357 19.98651263 32.75440477 22.40202045 32.74108028 C24.14613986 32.74238791 25.8902587 32.74501352 27.63437438 32.74884778 C32.43687619 32.75557324 37.23917824 32.7435318 42.04165459 32.7285136 C47.21682013 32.71558714 52.39197393 32.71994029 57.56715107 32.72222042 C66.53674468 32.7237953 75.50627294 32.71436363 84.47585011 32.6975069 C97.4444258 32.6731506 110.41296981 32.66531509 123.3815659 32.66154293 C144.42101513 32.65497315 165.46042951 32.63499771 186.49985981 32.60663509 C206.94061324 32.57910814 227.38135722 32.55786789 247.82212543 32.54511166 C249.71131729 32.5439294 249.71131729 32.5439294 251.63867465 32.54272326 C257.95687012 32.53880822 264.27506566 32.53501708 270.59326124 32.53128755 C323.02894839 32.50017526 375.46459772 32.44732514 427.90025043 32.38031673 C427.13163115 30.79203851 426.35701292 29.20666262 425.57993793 27.62250423 C425.14922993 26.73933529 424.71852192 25.85616634 424.27476215 24.9462347 C420.80885089 18.47612327 416.49767782 14.49910059 409.90025043 11.38031673 C405.87968093 10.33339211 402.06611591 10.25306918 397.92150402 10.24888897 C397.22777713 10.24683634 396.53405023 10.2447837 395.81930131 10.24266887 C393.4894855 10.23700427 391.1597289 10.23845544 388.82990742 10.23987484 C387.14481098 10.23729093 385.45971515 10.23427769 383.77462018 10.23087144 C379.13986357 10.22280186 374.50512246 10.2210119 369.87035966 10.22027397 C364.87374757 10.21842345 359.87714352 10.21087633 354.88053608 10.20413876 C343.95536042 10.19055726 333.03018844 10.18453158 322.10500574 10.1801281 C315.2874767 10.17736651 308.46994908 10.17312942 301.652421 10.16862392 C282.78669734 10.15643367 263.92097482 10.14613246 245.05524731 10.14274883 C243.84789221 10.14252927 242.6405371 10.1423097 241.39659549 10.14208348 C239.58118763 10.14175606 239.58118763 10.14175606 237.72910488 10.14142203 C235.27655053 10.14097856 232.82399619 10.140532 230.37144184 10.14008236 C228.54660726 10.13975021 228.54660726 10.13975021 226.68490733 10.13941136 C206.95139613 10.1354593 187.21792177 10.11799178 167.48442481 10.09472284 C147.23781838 10.07104084 126.99123047 10.0585485 106.74460995 10.05738091 C95.37123649 10.05646261 83.99791108 10.05067089 72.62455082 10.0325613 C62.94498745 10.01720311 53.26548699 10.01201458 43.58591376 10.0202994 C38.64380965 10.02422057 33.70183239 10.02320513 28.75974369 10.00924206 C24.24097883 9.99659114 19.7224373 9.99762228 15.20367314 10.00983277 C13.56380488 10.01180512 11.92392127 10.00864126 10.28407465 9.99998841 C8.06487841 9.98901432 5.84648703 9.99629778 3.62731457 10.00837994 C2.39175693 10.00778285 1.1561993 10.00718576 -0.11679947 10.00657058 C-3.08381623 10.1380565 -3.08381623 10.1380565 -5.02678287 11.75756669 Z M538.60728168 17.35687923 C535.6826734 20.82357738 529.90025043 27.68658293 529.90025043 32.38031673 C583.44804319 32.44893848 636.99583152 32.50182295 690.54365958 32.53351272 C696.86117236 32.53726498 703.17868505 32.54114793 709.4961977 32.54511166 C710.75393497 32.54589859 712.01167223 32.54668552 713.30752275 32.5474963 C733.68988302 32.56056088 754.07221798 32.5842205 774.45456322 32.61177512 C795.35868518 32.63980006 816.26279386 32.65648682 837.16693383 32.66258222 C850.0726033 32.66670471 862.97820125 32.67973923 875.8838487 32.70406613 C884.72598235 32.71988739 893.56807887 32.7247253 902.41022565 32.72082087 C907.51659109 32.71889369 912.62283128 32.72190988 917.72917461 32.73793316 C922.40058729 32.7524851 927.07178999 32.75329983 931.74321214 32.74301342 C933.43643005 32.74174127 935.12966083 32.74558662 936.82285323 32.75496628 C939.11886072 32.76694949 941.41410329 32.76055141 943.71009827 32.74946022 C945.62559747 32.75116896 945.62559747 32.75116896 947.57979363 32.75291222 C951.19066041 32.34772922 953.02495931 31.55967789 955.90025043 29.38031673 C957.52841395 27.25978762 958.90952975 25.27640281 960.27525043 23.00531673 C960.82632465 22.15840267 960.82632465 22.15840267 961.38853168 21.29437923 C963.07680206 18.54217998 963.92141905 16.78697694 963.75181293 13.52875423 C963.10743873 11.20611652 963.10743873 11.20611652 960.90025043 10.38031673 C958.70439453 10.28210809 956.50545723 10.2511097 954.30740738 10.24888897 C953.6189396 10.24683634 952.93047181 10.2447837 952.22114137 10.24266887 C949.89109189 10.2369695 947.56110098 10.23845972 945.23104572 10.23987484 C943.5528146 10.23729287 941.8745841 10.23428018 940.19635445 10.23087144 C935.56640349 10.22277813 930.93646801 10.22101057 926.30651081 10.22027397 C921.31995626 10.2184274 916.33340982 10.21088197 911.34685993 10.20413876 C900.43350007 10.19053731 889.52014388 10.1845276 878.60677695 10.1801281 C871.79474513 10.17736814 864.98271472 10.17313118 858.17068386 10.16862392 C839.31796164 10.15642777 820.46524057 10.14612987 801.6125145 10.14274883 C800.40506341 10.14252927 799.19761232 10.1423097 797.9535718 10.14208348 C796.13799663 10.14175606 796.13799663 10.14175606 794.28574318 10.14142203 C791.83294547 10.14097856 789.38014775 10.140532 786.92735004 10.14008236 C785.71067101 10.13986093 784.49399198 10.1396395 783.24044389 10.13941136 C763.53019487 10.13546421 743.81998285 10.11801425 724.10974812 10.09472284 C703.88354791 10.07101432 683.65736626 10.05854717 663.43115193 10.05738091 C652.07095646 10.05646375 640.71080916 10.05070128 629.35062695 10.0325613 C619.67555413 10.01716692 610.00054435 10.01203587 600.32546162 10.0202994 C595.38871066 10.02420855 590.45208667 10.02326345 585.5153513 10.00924206 C580.99430267 9.99651879 576.4734766 9.99768687 571.95242835 10.00983277 C570.31842014 10.01179252 568.68439625 10.00869849 567.05041008 9.99998841 C551.64024973 9.91253729 551.64024973 9.91253729 538.60728168 17.35687923 Z M258.90025043 41.38031673 C258.90025043 64.15031673 258.90025043 86.92031673 258.90025043 110.38031673 C404.10025043 110.38031673 549.30025043 110.38031673 698.90025043 110.38031673 C698.90025043 87.61031673 698.90025043 64.84031673 698.90025043 41.38031673 C553.70025043 41.38031673 408.50025043 41.38031673 258.90025043 41.38031673 Z M22.90025043 42.38031673 C24.36013457 46.75996913 25.27817337 49.36951036 27.71275043 53.00531673 C28.19357075 53.74008236 28.67439106 54.47484798 29.16978168 55.23187923 C32.69465121 59.60866186 32.69465121 59.60866186 37.76927853 61.74020863 C40.19974412 61.869885 42.59125681 61.84566695 45.02451801 61.77851009 C46.00885476 61.76435275 46.99319151 61.75019541 48.00735664 61.73560905 C64.97215329 61.37917845 81.92662888 60.2109372 98.86132503 59.19202828 C104.02807561 58.88241846 109.1952474 58.5799894 114.36236286 58.27654171 C123.01207165 57.76750702 131.66145658 57.25324134 140.31065083 56.73554134 C150.30643206 56.13728678 160.30263568 55.54654791 170.29910535 54.95991665 C179.95238536 54.39333149 189.60540405 53.82241651 199.2582922 53.24919605 C203.35501954 53.00594079 207.45182359 52.76404102 211.54869366 52.52320194 C216.3565121 52.24030793 221.16408664 51.95357505 225.97149754 51.66384029 C227.73550837 51.55812171 229.49959731 51.45369758 231.26376629 51.35065174 C233.66765739 51.21001548 236.07122124 51.06470588 238.4747591 50.91817379 C239.17502631 50.8782862 239.87529353 50.83839861 240.59678096 50.79730231 C243.80131337 50.59709375 246.8201102 50.31561302 249.90025043 49.38031673 C249.90025043 47.07031673 249.90025043 44.76031673 249.90025043 42.38031673 C174.99025043 42.38031673 100.08025043 42.38031673 22.90025043 42.38031673 Z M707.90025043 42.38031673 C707.90025043 44.69031673 707.90025043 47.00031673 707.90025043 49.38031673 C711.6539153 50.52013134 715.43473555 50.69654002 719.32574177 50.91817379 C720.07655575 50.96394729 720.82736972 51.00972079 721.60093564 51.05688137 C724.11887872 51.20942549 726.63711041 51.35651473 729.15537739 51.50360775 C730.96100905 51.6118207 732.76662183 51.72034902 734.57221699 51.82916927 C739.48430945 52.12412616 744.39668166 52.41414632 749.30914044 52.70293069 C753.4229613 52.94512272 757.53665231 53.18948279 761.65034932 53.43376774 C771.3778877 54.01129257 781.10566919 54.58459085 790.83360004 55.15546322 C800.81857378 55.74150828 810.80306534 56.33530194 820.78735286 56.93291432 C829.38786021 57.44737543 837.98867232 57.95651252 846.58973378 58.46162456 C851.71304001 58.762574 856.83620864 59.06549917 861.9590826 59.37372684 C873.54659982 60.06940404 885.13459773 60.73186325 896.7302413 61.27788305 C898.77192397 61.37425918 900.81340412 61.47489861 902.85486698 61.57582378 C906.12055555 61.72281906 909.38301852 61.82583868 912.65098286 61.90351009 C913.52529862 61.94486112 914.39961439 61.98621214 915.30042458 62.02881622 C919.38257975 62.06423202 922.2148715 61.61472963 925.54082966 59.16011715 C930.13542824 54.28307289 930.13542824 54.28307289 935.90025043 42.38031673 C860.66025043 42.38031673 785.42025043 42.38031673 707.90025043 42.38031673 Z M707.90025043 59.38031673 C707.90025043 62.68031673 707.90025043 65.98031673 707.90025043 69.38031673 C729.69224484 71.86715107 751.48524797 74.34496759 773.2794714 76.81219387 C783.3999711 77.95810076 793.52012615 79.10690277 803.63950825 80.26264095 C812.46449189 81.27053786 821.29008613 82.27288015 830.11644208 83.26869059 C834.78540282 83.79564662 839.45402189 84.32528838 844.12191868 84.8615942 C848.52549372 85.3674423 852.92985558 85.86579689 857.33489895 86.35868931 C858.94188629 86.5397856 860.54858164 86.72349747 862.15492916 86.91018391 C878.46855654 89.41759305 878.46855654 89.41759305 894.33775043 87.06781673 C897.99935202 83.22760044 903.90025043 76.93584978 903.90025043 71.38031673 C900.39800706 70.21290228 897.08856124 70.0449967 893.43592548 69.84245968 C892.66918219 69.79668618 891.90243891 69.75091268 891.11246097 69.7037521 C888.53559049 69.55092998 885.95841774 69.40399782 883.38120747 69.25702572 C881.53666387 69.148854 879.6921412 69.04032489 877.84763813 68.9314642 C872.83132423 68.63646709 867.81472564 68.34659759 862.79805708 68.05770278 C857.55249038 67.75484208 852.30718224 67.44756649 847.06184101 67.14083004 C838.25016082 66.62618737 829.43830492 66.11464773 820.62632465 65.60517025 C809.31462915 64.95115053 798.00324048 64.29197148 786.69193935 63.63117027 C776.97224496 63.06339951 767.25240754 62.49809166 757.53254938 61.93313241 C754.40636419 61.75131168 751.28019983 61.56913593 748.15403843 61.38690662 C743.24090069 61.10066134 738.3276761 60.81595407 733.41438007 60.53243923 C731.61038449 60.42812345 729.80641717 60.32331772 728.00248051 60.21798801 C725.54124372 60.07437191 723.07991008 59.93254732 720.61854267 59.79119015 C719.90365496 59.74907184 719.18876724 59.70695352 718.45221627 59.6635589 C714.92109785 59.46276135 711.44152413 59.38031673 707.90025043 59.38031673 Z M237.1819582 59.79119015 C236.41209493 59.83540366 235.64223166 59.87961717 234.8490392 59.92517048 C232.27341665 60.0734624 229.69791979 60.22383277 227.1224184 60.37421322 C225.27436179 60.48107682 223.42629847 60.58782443 221.57822895 60.69446468 C216.56186824 60.98436848 211.54562161 61.27620138 206.52940607 61.56860518 C203.39710747 61.75113837 200.2647884 61.93331626 197.1324625 62.11538029 C187.33627338 62.6848492 177.5401506 63.25543968 167.74412525 63.82771915 C156.42694326 64.48886391 145.10955792 65.14637459 133.79198062 65.80071682 C125.04693722 66.30653491 116.30208015 66.815493 107.55735981 67.32686573 C102.33216755 67.63235731 97.10690559 67.93651317 91.88144779 68.23743153 C86.97127593 68.52028552 82.0613464 68.80702363 77.15157795 69.09679317 C75.34685354 69.20262973 73.54204564 69.30705305 71.73715305 69.40998173 C69.27938761 69.55035763 66.82197007 69.69575666 64.36457539 69.84245968 C63.28555165 69.90229106 63.28555165 69.90229106 62.18472946 69.96333116 C59.20917718 70.14567471 56.74577245 70.4318094 53.90025043 71.38031673 C55.19498674 74.85340085 56.69023199 77.89949685 58.71275043 81.00531673 C59.4339809 82.13840267 59.4339809 82.13840267 60.16978168 83.29437923 C62.91223829 86.60018471 65.55574829 88.21881883 69.84975338 88.73460293 C79.31163506 88.56864259 88.6146525 87.72730302 98.00327778 86.63617611 C99.67027103 86.44831757 101.33734203 86.26114791 103.00448322 86.0746069 C107.48572538 85.57124623 111.96583163 85.05837621 116.44578218 84.54366398 C121.14429409 84.00552308 125.84381179 83.47631162 130.54322529 82.94611263 C139.42225909 81.94300548 148.30037268 80.93198442 157.17817557 79.91804743 C167.29368955 78.76314673 177.41020925 77.61717793 187.52681899 76.47192192 C208.31908917 74.11792153 229.11008457 71.75282552 249.90025043 69.38031673 C249.90025043 66.08031673 249.90025043 62.78031673 249.90025043 59.38031673 C245.63997978 59.38031673 241.4307078 59.54087089 237.1819582 59.79119015 Z M226.03306293 80.90912533 C224.54573619 81.07376437 223.05836403 81.23799367 221.57095051 81.40184689 C217.55653374 81.84549169 213.54285714 82.29551298 209.52934361 82.74724817 C206.17648193 83.1241714 202.82330984 83.49829364 199.47014809 83.8725363 C191.56691399 84.75479612 183.66431723 85.64261308 175.76206684 86.53363705 C167.60300618 87.45349284 159.44280372 88.36267613 151.28199863 89.26691282 C144.2713419 90.04415682 137.26150806 90.82853678 130.25228214 91.61857951 C126.06714438 92.09019439 121.88173109 92.55891106 117.69547749 93.02052593 C113.76780495 93.45389124 109.84122964 93.89609329 105.91533566 94.34527683 C104.4712631 94.50895788 103.02682239 94.66942584 101.58201885 94.82652378 C99.61788863 95.04058724 97.65513064 95.26713425 95.69248676 95.49442196 C94.591572 95.61794222 93.49065723 95.74146248 92.35638142 95.86872578 C91.54585819 96.03755079 90.73533497 96.20637581 89.90025043 96.38031673 C89.57025043 97.04031673 89.24025043 97.70031673 88.90025043 98.38031673 C92.9378797 99.69968111 96.98592073 100.97830357 101.04624653 102.22553158 C102.41630793 102.65190715 103.78340646 103.08796218 105.14683247 103.53510189 C125.48437484 110.1836239 144.95142707 107.03350744 165.66196918 103.47797298 C168.07457988 103.07550813 170.48741114 102.67436345 172.9004488 102.27446651 C177.90997039 101.44099296 182.91760318 100.59725679 187.92393208 99.74481869 C194.35325895 98.65014822 200.78542444 97.57342496 207.21885681 96.50317383 C213.36752597 95.47968142 219.51483398 94.44813225 225.66196918 93.41547298 C226.83594446 93.21882612 228.00991974 93.02217926 229.21947002 92.8195734 C232.51316867 92.26622431 235.80585011 91.70721292 239.09824848 91.14618587 C240.08246281 90.98146786 241.06667713 90.81674984 242.08071613 90.64704037 C242.97033039 90.49421093 243.85994465 90.34138149 244.77651691 90.18392086 C245.55342223 90.05210446 246.33032755 89.92028807 247.13077545 89.78447723 C248.91612992 89.5417374 248.91612992 89.5417374 249.90025043 88.38031673 C249.97205007 86.86103636 249.98417051 85.33864192 249.96275043 83.81781673 C249.9419171 82.33865007 249.92108377 80.8594834 249.90025043 79.38031673 C241.85637637 79.16507188 234.01744254 80.00569229 226.03306293 80.90912533 Z M707.90025043 79.38031673 C707.90025043 82.35031673 707.90025043 85.32031673 707.90025043 88.38031673 C713.45792628 90.09092689 718.99547929 91.19699165 724.72495747 92.16791439 C725.6871117 92.33401714 726.64926594 92.5001199 727.64057636 92.67125607 C730.81227363 93.21708517 733.98501284 93.75647305 737.15806293 94.29437923 C738.25075363 94.48009865 739.34344433 94.66581806 740.46924686 94.85716534 C746.26329426 95.84117408 752.05822878 96.8197668 757.85386372 97.79437923 C763.78538747 98.79306136 769.71335441 99.81140084 775.64073086 100.8343668 C780.24449555 101.62491879 784.85078411 102.39994255 789.45783329 103.17109966 C791.64084809 103.53925171 793.82291538 103.91307607 796.00389194 104.29311657 C806.7976347 106.16890096 817.38042099 107.69615869 828.3555727 107.73139095 C829.60788905 107.73554233 829.60788905 107.73554233 830.88550472 107.73977757 C839.24940094 107.60445055 846.82370883 105.48442868 854.71275043 102.88031673 C856.10969136 102.44400655 857.50748228 102.01040851 858.90610981 101.57953548 C862.24777352 100.54387177 865.57678383 99.47317564 868.90025043 98.38031673 C868.57025043 97.72031673 868.24025043 97.06031673 867.90025043 96.38031673 C865.31190279 95.80125608 865.31190279 95.80125608 862.10801411 95.49442196 C860.84910862 95.34863201 859.59020313 95.20284206 858.29314899 95.05263424 C856.8848586 94.89914976 855.47654796 94.745851 854.06821918 94.59271908 C852.59491915 94.42572519 851.12171024 94.25792567 849.64858723 94.0893774 C845.63463698 93.6325877 841.61946347 93.18752204 837.60394764 92.74473429 C833.40206529 92.27969108 829.20128346 91.80490419 825.00034809 91.33139706 C817.93594609 90.53663357 810.8707617 89.74915356 803.80503559 88.96625423 C795.64891177 88.06247713 787.49394929 87.14877762 779.33957863 86.22932565 C771.49182072 85.34455931 763.64343233 84.46552322 755.79469013 83.58953381 C752.4582241 83.21713713 749.12195907 82.84300894 745.78584003 82.4675169 C741.84658624 82.02450387 737.90679448 81.58661181 733.96654415 81.15255451 C732.52528118 80.99301448 731.0842005 80.83181697 729.64332867 80.66878223 C722.35614071 79.84535635 715.23621148 79.18401482 707.90025043 79.38031673 Z M239.78216267 99.93631649 C239.0209763 100.05963848 238.25978992 100.18296047 237.4755373 100.31001949 C236.66025562 100.44713848 235.84497395 100.58425747 235.00498676 100.72553158 C234.13110813 100.86862255 233.2572295 101.01171352 232.3568697 101.15914059 C229.48115468 101.6315006 226.60669341 102.1110317 223.73228168 102.59125423 C221.73025725 102.92298102 219.72819677 103.25449033 217.72610188 103.58579159 C213.5369289 104.28026127 209.34840229 104.97848611 205.1602602 105.67914486 C199.78800781 106.57742451 194.41398861 107.46460248 189.0394001 108.34878254 C184.90795056 109.03000209 180.77764034 109.71793605 176.64763165 110.40783215 C174.66603249 110.73784165 172.684048 111.06554581 170.70168209 111.39091778 C167.93568412 111.84576657 165.17138646 112.30982841 162.40733051 112.77631283 C161.58597614 112.90938335 160.76462177 113.04245388 159.91837788 113.17955685 C156.31991857 113.79606625 153.97903746 114.32779205 150.90025043 116.38031673 C154.79558987 117.50390626 158.69168487 118.62483295 162.58848286 119.74335384 C163.9125838 120.1238166 165.23648019 120.50499201 166.56016254 120.88690853 C168.46855134 121.4373915 170.37775251 121.9850557 172.28696918 122.53266048 C173.43383198 122.86257992 174.58069477 123.19249935 175.76231098 123.53241634 C184.55383944 125.907969 192.40251393 125.80584081 201.27525043 123.94281673 C202.08526508 123.7774139 202.89527973 123.61201107 203.72984028 123.44159603 C213.05838847 121.4610606 222.29050241 119.06583067 231.52525043 116.69281673 C232.71619312 116.38696148 232.71619312 116.38696148 233.93119526 116.07492733 C236.20566495 115.48883321 238.47899369 114.89855709 240.75181293 114.30609798 C241.44365681 114.12705929 242.13550068 113.94802059 242.84830952 113.76355648 C246.46326397 112.81921407 246.46326397 112.81921407 249.90025043 111.38031673 C249.90025043 107.42031673 249.90025043 103.46031673 249.90025043 99.38031673 C244.74807325 99.36815235 244.74807325 99.36815235 239.78216267 99.93631649 Z M707.90025043 99.38031673 C707.90025043 103.34031673 707.90025043 107.30031673 707.90025043 111.38031673 C714.0505218 113.50484393 720.17904232 115.29826111 726.50181293 116.82562923 C727.38251453 117.04097317 728.26321613 117.2563171 729.17060566 117.47818661 C731.01721098 117.92869747 732.86427432 118.37733481 734.71177387 118.82416439 C737.52593658 119.50548285 740.33815305 120.1944355 743.15025043 120.88422298 C744.95482694 121.32348133 746.75951087 121.76229859 748.56431293 122.20062923 C749.3967754 122.40479458 750.22923786 122.60895992 751.08692646 122.8193121 C763.42824343 125.78970378 773.12245075 125.97842516 785.33775043 122.56781673 C786.79664692 122.176264 786.79664692 122.176264 788.28501606 121.77680111 C794.523773 120.08896106 800.71954112 118.26884327 806.90025043 116.38031673 C803.94500876 113.42507506 800.40015761 113.41195976 796.41489887 112.77631283 C795.53666965 112.62971722 794.65844044 112.4831216 793.75359821 112.3320837 C790.84020105 111.84796472 787.9250255 111.37564966 785.00962543 110.90375423 C782.98652109 110.57088037 780.96351194 110.23742741 778.94059467 109.90341854 C774.69440025 109.20410921 770.44734631 108.510361 766.19956684 107.82074642 C760.75962752 106.93735135 755.3216329 106.04260888 749.88419437 105.14396381 C745.70348083 104.45390742 741.521977 103.76874611 737.34019947 103.08516979 C735.33537062 102.75707441 733.33074493 102.42773509 731.32632923 102.09712505 C728.51936824 101.63513704 725.71145355 101.17946414 722.90318012 100.72553158 C722.07697666 100.58841259 721.2507732 100.4512936 720.39953327 100.31001949 C719.62848759 100.1866975 718.8574419 100.06337551 718.0630312 99.93631649 C717.06862585 99.77429021 717.06862585 99.77429021 716.05413151 99.60899067 C713.35029822 99.32192923 710.61927943 99.38031673 707.90025043 99.38031673 Z M233.40025043 124.75531673 C232.24318592 125.05771267 231.08612141 125.3601086 229.89399433 125.67166805 C226.58908033 126.54451762 223.29021305 127.43613969 219.99400043 128.34125423 C218.98819431 128.61535625 217.98238819 128.88945827 216.9461031 129.17186642 C215.57279079 129.5619463 215.57279079 129.5619463 214.17173481 129.95990658 C213.36748066 130.18640896 212.56322651 130.41291134 211.73460102 130.64627743 C209.70151205 131.22424452 209.70151205 131.22424452 208.90025043 133.38031673 C212.89885961 134.5314141 216.90070342 135.67025991 220.90586567 136.79828548 C222.26552269 137.18302404 223.62427083 137.57099073 224.98203754 137.96234798 C226.94330829 138.52703262 228.90764547 139.07970321 230.87290668 139.63031673 C232.64033222 140.13305111 232.64033222 140.13305111 234.44346333 140.64594173 C249.63111547 143.8724731 264.75518227 134.29475363 277.83775043 127.56781673 C279.40693137 126.7706462 280.97659081 125.97441684 282.54673481 125.17914486 C286.3368219 123.25696414 290.12028241 121.32231572 293.90025043 119.38031673 C293.90025043 119.05031673 293.90025043 118.72031673 293.90025043 118.38031673 C272.71382268 116.4114911 253.93720062 119.35645091 233.40025043 124.75531673 Z M279.10407734 137.08403683 C269.12859888 142.49380483 258.66308376 146.79270562 247.90025043 150.38031673 C249.49391781 153.83734904 251.50771532 156.84396242 253.71275043 159.94281673 C254.37919575 160.8928558 255.04564106 161.84289486 255.73228168 162.82172298 C258.56707854 166.16729405 261.03053022 168.0258674 265.37290668 168.84906673 C280.177476 169.02770407 290.44797599 160.4839073 301.74302387 151.99213314 C304.76021404 149.73777715 307.82638788 147.55637909 310.90025043 145.38031673 C318.5736646 139.91473929 326.20700478 134.39381677 333.83823872 128.86957455 C335.71870564 127.5114348 337.60329487 126.15932564 339.49009418 124.81000423 C340.49169575 124.09070736 341.49329731 123.37141048 342.52525043 122.63031673 C343.38376606 122.01672298 344.24228168 121.40312923 345.12681293 120.77094173 C345.71204731 120.31203548 346.29728168 119.85312923 346.90025043 119.38031673 C346.90025043 119.05031673 346.90025043 118.72031673 346.90025043 118.38031673 C320.37909312 113.59755073 301.74590293 124.63259909 279.10407734 137.08403683 Z M347.135602 130.44769955 C343.55646448 133.54211333 339.70382161 136.22243397 335.83775043 138.94281673 C334.34692748 140.01401027 332.85734042 141.08692598 331.36900043 142.16156673 C330.2649184 142.95627377 330.2649184 142.95627377 329.13853168 143.76703548 C326.87958837 145.39520929 324.62382382 147.02769299 322.36900043 148.66156673 C318.6303478 151.37053129 314.88597448 154.07141286 311.1380434 156.76752377 C309.62995875 157.85441087 308.12380985 158.94398833 306.61948872 160.03607845 C290.4558352 171.76468877 290.4558352 171.76468877 281.90025043 175.38031673 C281.90025043 176.04031673 281.90025043 176.70031673 281.90025043 177.38031673 C286.04147855 178.53106169 290.18574183 179.66993221 294.33311176 180.79828548 C295.74121297 181.18312021 297.14846152 181.5710899 298.55479145 181.96234798 C300.58570632 182.52677098 302.61950169 183.0795497 304.65415668 183.63031673 C305.87433491 183.96547298 307.09451313 184.30062923 308.35166645 184.64594173 C316.10224236 186.24991369 322.13651227 185.35788259 328.90025043 181.38031673 C334.94376776 176.72043229 340.31858453 171.25649965 345.29478168 165.48969173 C349.58534348 160.52223385 354.25625941 155.97365659 358.93931293 151.38031673 C362.90040894 147.46510215 366.64092977 143.44413406 370.27476215 139.22406673 C373.37067067 135.71245647 376.78471612 132.53374893 380.15415668 129.28656673 C383.39169298 125.86021253 386.14852645 122.20025842 388.90025043 118.38031673 C370.88542994 116.37254127 360.67759338 118.38087062 347.135602 130.44769955 Z M395.52134418 124.88422298 C394.98638325 125.70793392 394.45142231 126.53164486 393.90025043 127.38031673 C392.7750586 128.71055491 391.62959908 130.02396415 390.46275043 131.31781673 C389.62937153 132.29041439 389.62937153 132.29041439 388.77915668 133.28266048 C386.57397747 135.74457574 384.25138366 138.05755314 381.90025043 140.38031673 C379.03098802 143.21521672 376.25538332 146.05152332 373.65025043 149.13031673 C369.70084604 153.75676189 365.34348958 157.96250151 361.02329731 162.23773861 C357.38699092 165.85071041 353.93098797 169.53851365 350.60728168 173.44281673 C345.32539846 179.43781463 339.85629803 185.35313129 332.90025043 189.38031673 C333.73706504 191.62292075 333.73706504 191.62292075 336.24180317 192.24994564 C339.60381001 193.18169803 342.96728153 194.10457219 346.33775043 195.00531673 C347.48952778 195.33016048 348.64130512 195.65500423 349.82798481 195.98969173 C358.80492575 198.41341487 367.58349472 200.55307847 376.04502583 195.6937933 C382.55850216 191.08233091 386.75428028 184.964392 390.77525043 178.19281673 C391.31842915 177.29716 391.86160786 176.40150326 392.42124653 175.47870541 C393.61182736 173.51356394 394.7980026 171.54574827 395.98032856 169.57562923 C398.02028942 166.18053669 400.07522914 162.7948875 402.13462543 159.41156673 C404.32764955 155.80792531 406.51979613 152.20378835 408.70420551 148.59491634 C411.9256509 143.27281658 415.15380351 137.95564033 418.42759418 132.66547298 C418.94692524 131.8246014 419.46625629 130.98372982 420.00132465 130.11737728 C420.94844108 128.58658018 421.89907333 127.05795054 422.85386372 125.53192806 C425.1222629 122.20513946 425.1222629 122.20513946 425.90025043 118.38031673 C408.87214257 116.3385972 408.87214257 116.3385972 395.52134418 124.88422298 Z M433.81235981 122.47724056 C432.22320602 125.39330784 430.78952907 128.36632555 429.39048481 131.37787533 C426.53268897 137.13560358 423.11015471 142.58031475 419.79356098 148.08231258 C418.10570433 150.89095316 416.43809113 153.71138395 414.7696352 156.53157711 C409.00347523 166.27027817 403.09833342 175.90943648 396.90025043 185.38031673 C396.48066059 186.02533138 396.06107075 186.67034603 395.62876606 187.33490658 C394.44036107 189.15062895 393.23705592 190.95514848 392.02525043 192.75531673 C391.36782856 193.73242611 390.71040668 194.70953548 390.03306293 195.71625423 C387.57355745 198.78838379 384.99249185 200.95762047 381.90025043 203.38031673 C387.12402296 206.22201166 392.88189052 207.45347424 398.58775043 209.00531673 C399.73437153 209.33016048 400.88099262 209.65500423 402.06235981 209.98969173 C413.24570117 213.20135516 413.24570117 213.20135516 424.21275043 210.69281673 C428.91699251 206.64498053 431.42803596 202.71636371 433.54478168 196.89984798 C433.79033298 196.22565319 434.03588428 195.5514584 434.28887653 194.85683346 C438.42192354 183.33656995 442.15190242 171.6717443 445.94505024 160.03626156 C446.80459067 157.4036843 447.66871658 154.77262186 448.53285217 152.14155006 C449.57865585 148.95511444 450.62015153 145.76727662 451.66196918 142.57953548 C452.04326481 141.4178233 452.42456043 140.25611111 452.81741047 139.05919552 C455.04508072 132.21364782 457.08107443 125.34580773 458.90025043 118.38031673 C444.97386725 115.98691336 444.97386725 115.98691336 433.81235981 122.47724056 Z M468.90025043 118.38031673 C468.16089252 120.64382992 468.16089252 120.64382992 467.40659809 122.95307064 C465.32258998 129.3321402 463.23750586 135.71085765 461.15175724 142.08935833 C460.73544573 143.36250577 460.31915783 144.63566093 459.90289402 145.90882397 C454.53051858 162.33999117 449.14880001 178.76726201 443.63120747 195.15033627 C443.27526508 196.20978451 442.9193227 197.26923275 442.55259418 198.36078548 C442.25345112 199.24661312 441.95430805 200.13244076 441.64610004 201.04511166 C440.97562624 203.14432015 440.40475464 205.23594103 439.90025043 207.38031673 C443.71296834 204.20305181 447.35541514 200.98031774 450.83775043 197.44281673 C454.08605678 194.15061435 457.44345806 191.05714177 460.95493793 188.04828548 C462.24505681 186.94209922 463.52145121 185.81968948 464.78306293 184.68109798 C469.83765926 180.16259521 473.72244282 177.81876318 480.80259418 178.08344173 C488.55378575 179.18044464 493.24970474 184.4247392 498.45493793 189.86078548 C500.56893921 192.03894973 502.71819026 194.03753011 505.02525043 196.00531673 C509.20575717 199.58007658 513.0588913 203.44701018 516.90025043 207.38031673 C518.26196068 205.24501377 518.26196068 205.24501377 516.86875629 202.26581478 C516.30940979 200.82701351 515.74517598 199.39010802 515.17759418 197.95453548 C511.61450906 188.61443349 508.47374782 179.16025947 505.40415668 169.64984798 C505.16391144 168.90628929 504.92366619 168.1627306 504.67614079 167.39663982 C503.186654 162.78369897 501.70306013 158.16888007 500.22123432 153.55347347 C498.94332662 149.57619528 497.66082927 145.60039756 496.37876606 141.62445736 C493.88154011 133.87781675 491.38967301 126.12946852 488.90025043 118.38031673 C482.30025043 118.38031673 475.70025043 118.38031673 468.90025043 118.38031673 Z M498.90025043 118.38031673 C504.11885748 135.56565281 509.55223021 152.68267057 515.08408833 169.76950741 C515.79112768 171.95682441 516.49542263 174.14503056 517.19688129 176.33414364 C518.19950685 179.46021575 519.21266754 182.58269306 520.22837543 185.70453548 C520.524034 186.63284176 520.81969257 187.56114803 521.12431049 188.5175848 C523.88317541 196.92699895 526.87193876 205.64669405 533.90025043 211.38031673 C543.15471583 214.46513853 552.47586667 210.91189311 561.46275043 208.38031673 C562.86675966 207.99385351 564.27105499 207.60842816 565.67564106 207.22406673 C569.08722629 206.2880944 572.49472403 205.33813099 575.90025043 204.38031673 C575.16435688 203.6690765 574.42846333 202.95783627 573.67026997 202.2250433 C565.74540373 194.08644455 559.81015101 184.34091217 554.02525043 174.63031673 C553.30529567 173.43299192 552.58482268 172.23597858 551.86387348 171.03925228 C547.80907406 164.29662427 543.79827622 157.52778238 539.78696918 150.75922298 C539.36230366 150.04291714 538.93763813 149.32661129 538.50010395 148.58859921 C536.0498311 144.45420257 533.6070693 140.31549818 531.16975117 136.17345333 C530.07833642 134.33147814 528.97101173 132.49995498 527.86021137 130.66962337 C526.65033222 128.63914233 525.48637913 126.57946902 524.401227 124.47968197 C523.06326451 122.05158955 521.96994824 120.22468096 519.90025043 118.38031673 C516.20177872 117.33778702 512.82880313 117.51631561 509.02525043 117.81781673 C507.56345356 117.87872494 507.56345356 117.87872494 506.07212543 117.94086361 C503.67632405 118.04656073 501.29090711 118.19399457 498.90025043 118.38031673 Z M531.90025043 118.38031673 C535.9621448 126.8801013 540.52041832 134.90431977 545.52525043 142.88031673 C546.94684164 145.16273106 548.36488904 147.44734048 549.78306293 149.73187923 C550.47947895 150.85239681 551.17589497 151.97291439 551.8934145 153.12738705 C554.78014293 157.8065561 557.59154512 162.52907281 560.40025043 167.25531673 C570.66638909 186.57962823 570.66638909 186.57962823 587.90025043 198.38031673 C596.13736821 199.26501543 603.58942615 197.22588497 611.46275043 195.00531673 C612.64933247 194.68820736 613.8359145 194.37109798 615.05845356 194.04437923 C619.52063758 192.84075223 619.52063758 192.84075223 623.90025043 191.38031673 C624.23025043 190.72031673 624.56025043 190.06031673 624.90025043 189.38031673 C624.15194965 188.84857845 624.15194965 188.84857845 623.38853168 188.30609798 C613.85712477 181.23882499 605.559858 172.64015423 597.90415668 163.60297298 C594.43528383 159.75543175 590.70382002 156.16512601 587.02256489 152.52216244 C583.38297339 148.90593598 579.91869012 145.2202909 576.60337543 141.30219173 C573.67254244 137.99492148 570.4764648 134.94951479 567.33384418 131.84516048 C564.54845109 129.0239999 561.93906832 126.09184933 559.37290668 123.07172298 C558.64394184 122.23447689 558.64394184 122.23447689 557.90025043 121.38031673 C557.48468891 120.85647396 557.06912739 120.33263119 556.64097309 119.79291439 C554.23275646 117.83864491 552.6478466 118.03643393 549.57603168 118.08734798 C548.54800434 118.09701595 547.519977 118.10668392 546.46079731 118.11664486 C545.38894184 118.14178158 544.31708637 118.1669183 543.21275043 118.19281673 C542.1292934 118.20635189 541.04583637 118.21988705 539.92954731 118.23383236 C537.25261639 118.2692103 534.57668206 118.31857485 531.90025043 118.38031673 Z M568.90025043 118.38031673 C573.17781418 124.49082836 577.99388621 129.69237428 583.33775043 134.88031673 C588.14396127 139.57117851 592.76465549 144.30428349 597.14268208 149.39789486 C600.23393049 152.88462039 603.57495816 156.11872737 606.90025043 159.38031673 C610.9528458 163.35527617 614.91601215 167.33596922 618.61900043 171.64203548 C623.91584905 177.78415785 630.07116732 182.96041832 637.90025043 185.38031673 C643.41599414 185.63846387 647.88101784 185.10976021 653.24400043 183.63031673 C654.22584309 183.3639642 654.22584309 183.3639642 655.22752094 183.0922308 C657.28781969 182.53101484 659.3439436 181.95596675 661.40025043 181.38031673 C662.80885056 180.99397266 664.21770314 180.60854774 665.62681293 180.22406673 C669.05427045 179.28674101 672.47813391 178.33698277 675.90025043 177.38031673 C675.90025043 176.72031673 675.90025043 176.06031673 675.90025043 175.38031673 C675.17064106 175.02582455 674.44103168 174.67133236 673.68931293 174.30609798 C664.18258018 169.45883795 655.78875164 163.4487305 647.23081684 157.10199642 C643.47727013 154.32910606 639.68756948 151.60678987 635.90025043 148.88031673 C634.40398494 147.79982536 632.90789149 146.7190957 631.41196918 145.63812923 C628.37398625 143.4439205 625.3348005 141.25139134 622.29478168 139.06000423 C621.5373769 138.51239437 620.77997211 137.96478451 619.99961567 137.40058041 C618.47983767 136.30719043 616.95460567 135.22134021 615.42393208 134.14325619 C611.87109012 131.62500551 608.50309248 129.08853972 605.31431293 126.11859798 C596.3563051 118.07977933 588.97524217 117.38130297 577.02695942 117.81854916 C574.31323515 117.96768231 571.60819006 118.15050346 568.90025043 118.38031673 Z M610.90025043 118.38031673 C613.33331609 120.89229081 615.74855291 123.12826665 618.59556293 125.15766048 C619.30196918 125.66426205 620.00837543 126.17086361 620.73618793 126.69281673 C621.49157856 127.22906673 622.24696918 127.76531673 623.02525043 128.31781673 C624.65292464 129.48308349 626.28052682 130.64845087 627.90806293 131.81391048 C628.73854145 132.4067181 629.56901997 132.99952572 630.4246645 133.6102972 C633.51813791 135.82210019 636.60126846 138.0479567 639.682477 140.27680111 C641.16503205 141.34873215 642.64876411 142.41903712 644.13364887 143.48773861 C647.97992323 146.25732407 651.80795774 149.04794458 655.61118793 151.87641048 C673.40822982 165.333433 673.40822982 165.333433 694.90025043 168.38031673 C702.37848747 165.30104266 706.56320807 156.88588028 710.90025043 150.38031673 C710.01683979 150.11436703 709.13342915 149.84841732 708.22324848 149.57440853 C698.70359514 146.57188941 689.8842992 142.75304512 680.95625019 138.30655575 C678.65308804 137.16319857 676.34104081 136.03968862 674.02647114 134.91962337 C667.64250851 131.81630647 661.3118477 128.72638924 655.23618793 125.04437923 C640.95896386 116.54779611 627.03620811 117.32937761 610.90025043 118.38031673 Z M662.90025043 118.38031673 C667.9103789 122.45109436 673.84794094 124.94498585 679.62266254 127.7406683 C681.67259617 128.73582355 683.71514325 129.74507082 685.75767231 130.75531673 C705.50184404 140.56227018 705.50184404 140.56227018 726.92759418 139.63031673 C727.56137486 139.45274837 728.19515553 139.27518002 728.84814167 139.0922308 C730.84719078 138.53006722 732.84239852 137.955449 734.83775043 137.38031673 C736.20274925 136.99406663 737.56798197 136.60864214 738.93345356 136.22406673 C742.25847475 135.28567135 745.58017468 134.33608167 748.90025043 133.38031673 C748.09927834 131.22561469 748.09927834 131.22561469 746.07262897 130.64627743 C745.27139103 130.41977505 744.47015308 130.19327267 743.6446352 129.95990658 C742.73228107 129.69985332 741.81992695 129.43980007 740.87992573 129.17186642 C739.87729694 128.8977644 738.87466816 128.62366238 737.84165668 128.34125423 C736.80172565 128.0549464 735.76179462 127.76863857 734.69035053 127.47365475 C731.28558521 126.54988598 727.87562778 125.64863218 724.46275043 124.75531673 C723.31253407 124.45251797 722.1623177 124.1497192 720.97724628 123.83774471 C701.28018006 118.73383762 683.16748244 116.57169797 662.90025043 118.38031673 Z " fill="#1E9971" transform="translate(120.09974956512451,237.61968326568604)"/>
<path d="M0 0 C1.65 0 3.3 0 5 0 C9.29 8.58 13.58 17.16 18 26 C20.34651463 22.87131383 21.99328511 20.24888189 23.69921875 16.796875 C24.18583984 15.8171875 24.67246094 14.8375 25.17382812 13.828125 C25.9230957 12.30445313 25.9230957 12.30445313 26.6875 10.75 C27.19861328 9.71875 27.70972656 8.6875 28.23632812 7.625 C29.49451825 5.08510218 30.74892921 2.54341009 32 0 C33.65 0 35.3 0 37 0 C38.69099192 9.20819992 39.74122264 18.43669136 40.625 27.75 C40.7600409 29.14066154 40.89545548 30.53128685 41.03125 31.921875 C41.35782325 35.28091419 41.68066531 38.64026628 42 42 C40.52093108 42.02689216 39.04172517 42.04634621 37.5625 42.0625 C36.73878906 42.07410156 35.91507813 42.08570313 35.06640625 42.09765625 C33 42 33 42 32 41 C31.77329092 39.44246949 31.60564908 37.87622641 31.46484375 36.30859375 C31.38613037 35.45837646 31.30741699 34.60815918 31.22631836 33.73217773 C31.1310083 32.64493408 31.03569824 31.55769043 30.9375 30.4375 C30.628125 26.993125 30.31875 23.54875 30 20 C26.7 26.6 23.4 33.2 20 40 C18.35 40 16.7 40 15 40 C11.7 33.73 8.4 27.46 5 21 C4.01 27.93 3.02 34.86 2 42 C-0.31 42 -2.62 42 -5 42 C-4.05783178 31.24231719 -3.09792079 20.48666576 -1.9375 9.75 C-1.85838379 8.99477051 -1.77926758 8.23954102 -1.69775391 7.46142578 C-1.1189885 2.237977 -1.1189885 2.237977 0 0 Z " fill="#1E9971" transform="translate(599,292)"/>
<path d="M0 0 C5.56424634 5.27068898 8.018056 10.16056732 8.3125 17.875 C8.1436501 23.80252026 7.24386234 28.43775179 3.265625 32.98046875 C-1.48580597 37.44644553 -5.73188457 40.0204216 -12.44921875 39.98828125 C-19.42640021 39.51896411 -24.39231989 37.95799358 -29.25 32.75 C-33.26609936 27.73513248 -34.45656604 22.45227708 -34.24609375 16.0390625 C-33.43450143 9.31444044 -30.32819289 3.24240569 -25 -1 C-16.80081023 -5.05776229 -7.7171285 -5.14475233 0 0 Z M-21.55859375 6.2890625 C-24.90746511 10.26414558 -25.144007 16.52914305 -24.8515625 21.546875 C-23.93794774 26.68380326 -22.38008913 29.88526995 -18 33 C-13.92715094 34.18482882 -11.76388589 34.26442204 -7.75 32.875 C-3.8449644 30.21247572 -2.43974175 28.17143794 -1.49609375 23.51171875 C-0.51054378 16.01116475 -1.25004242 10.83029806 -5.75 4.5625 C-11.79856453 0.36210797 -16.34335619 1.97570813 -21.55859375 6.2890625 Z " fill="#1E9970" transform="translate(525,295)"/>
<path d="M0 0 C3.94602379 1.3751295 7.23381689 2.88776495 9.4375 6.46875 C10.2355402 11.37337209 10.22243569 15.1695461 7.625 19.46875 C5.4375 21.46875 5.4375 21.46875 2.4375 23.46875 C3.21996094 24.43296875 4.00242187 25.3971875 4.80859375 26.390625 C5.83107898 27.66638638 6.85319517 28.9424436 7.875 30.21875 C8.39126953 30.85296875 8.90753906 31.4871875 9.43945312 32.140625 C9.93251953 32.759375 10.42558594 33.378125 10.93359375 34.015625 C11.38919678 34.58120117 11.8447998 35.14677734 12.31420898 35.72949219 C13.54132688 37.62951129 14.01223693 39.2599209 14.4375 41.46875 C10.80181147 42.44342395 8.04890562 42.61694146 4.4375 41.46875 C0.77100716 38.01596425 -1.80284278 33.51520631 -4.34912109 29.20800781 C-5.85201585 26.94544021 -5.85201585 26.94544021 -9.5625 23.46875 C-9.5625 29.40875 -9.5625 35.34875 -9.5625 41.46875 C-12.5325 41.46875 -15.5025 41.46875 -18.5625 41.46875 C-18.5625 27.93875 -18.5625 14.40875 -18.5625 0.46875 C-13.46184039 -2.08157981 -5.46098727 -1.1321559 0 0 Z M-9.5625 5.46875 C-9.5625 9.75875 -9.5625 14.04875 -9.5625 18.46875 C-3.75412289 19.06601615 -3.75412289 19.06601615 -0.625 16.28125 C1.6962216 13.69723142 1.6962216 13.69723142 1.4375 10.84375 C0.08888153 7.60999274 0.08888153 7.60999274 -2.5625 5.46875 C-6.18785976 5.2183923 -6.18785976 5.2183923 -9.5625 5.46875 Z " fill="#1E9870" transform="translate(703.5625,292.53125)"/>
<path d="M0 0 C5 0 5 0 6.7734375 1.25 C7.56621094 2.11625 7.56621094 2.11625 8.375 3 C9.2721875 3.96679688 9.2721875 3.96679688 10.1875 4.953125 C11.0846875 5.96632813 11.0846875 5.96632813 12 7 C12.556875 7.61359375 13.11375 8.2271875 13.6875 8.859375 C18.645992 14.41472252 23.30541546 20.22204979 28 26 C28.33 17.42 28.66 8.84 29 0 C30.98 0 32.96 0 35 0 C35 13.86 35 27.72 35 42 C30 42 30 42 27.7890625 40.09375 C27.07492187 39.2378125 26.36078125 38.381875 25.625 37.5 C24.84769531 36.58605469 24.07039062 35.67210937 23.26953125 34.73046875 C22.52058594 33.82941406 21.77164063 32.92835938 21 32 C19.77472422 30.60074997 18.54593722 29.20456107 17.3125 27.8125 C14.18267344 24.22977864 11.09640789 20.61247587 8 17 C7.67 25.25 7.34 33.5 7 42 C4.69 42 2.38 42 0 42 C0 28.14 0 14.28 0 0 Z " fill="#1E9970" transform="translate(768,292)"/>
<path d="M0 0 C5 0 5 0 6.7734375 1.25 C7.56621094 2.11625 7.56621094 2.11625 8.375 3 C9.2721875 3.96679688 9.2721875 3.96679688 10.1875 4.953125 C11.0846875 5.96632813 11.0846875 5.96632813 12 7 C12.556875 7.61359375 13.11375 8.2271875 13.6875 8.859375 C18.645992 14.41472252 23.30541546 20.22204979 28 26 C28.33 17.42 28.66 8.84 29 0 C30.98 0 32.96 0 35 0 C35 13.86 35 27.72 35 42 C30 42 30 42 27.7890625 40.09375 C27.07492187 39.2378125 26.36078125 38.381875 25.625 37.5 C24.84769531 36.58605469 24.07039062 35.67210937 23.26953125 34.73046875 C22.52058594 33.82941406 21.77164063 32.92835938 21 32 C19.77472422 30.60074997 18.54593722 29.20456107 17.3125 27.8125 C14.18267344 24.22977864 11.09640789 20.61247587 8 17 C7.67 25.25 7.34 33.5 7 42 C4.69 42 2.38 42 0 42 C0 28.14 0 14.28 0 0 Z " fill="#1E9970" transform="translate(538,292)"/>
<path d="M0 0 C1.98 0 3.96 0 6 0 C8.2878103 5.33467468 10.56619501 10.67323792 12.8359375 16.015625 C13.60939897 17.8324808 14.38542495 19.64824708 15.1640625 21.46289062 C16.28280802 24.0713942 17.39227282 26.68367673 18.5 29.296875 C18.84998047 30.10743347 19.19996094 30.91799194 19.56054688 31.75311279 C19.88087891 32.51359924 20.20121094 33.27408569 20.53125 34.05761719 C20.81548828 34.72380066 21.09972656 35.38998413 21.39257812 36.07635498 C22 38 22 38 22 42 C19.03 42 16.06 42 13 42 C11.68 39.03 10.36 36.06 9 33 C4.05 32.67 -0.9 32.34 -6 32 C-6.99 35.3 -7.98 38.6 -9 42 C-11.64 42 -14.28 42 -17 42 C-11.90304926 27.76294772 -5.95787135 13.89427765 0 0 Z M1 13 C0.32942113 14.7902061 -0.3363469 16.58221489 -1 18.375 C-1.37125 19.37273437 -1.7425 20.37046875 -2.125 21.3984375 C-3.10626277 23.85848061 -3.10626277 23.85848061 -3 26 C0.3 26 3.6 26 7 26 C5.35 21.71 3.7 17.42 2 13 C1.67 13 1.34 13 1 13 Z " fill="#1E9971" transform="translate(660,292)"/>
<path d="M0 0 C1.2065625 0.0309375 1.2065625 0.0309375 2.4375 0.0625 C4.86313628 5.72054709 7.28409425 11.38056345 9.70068359 17.04248047 C10.5239344 18.96946587 11.34847497 20.89590078 12.17431641 22.82177734 C13.3591692 25.5854856 14.53941308 28.35112182 15.71875 31.1171875 C16.09060425 31.9818161 16.4624585 32.8464447 16.84558105 33.73727417 C17.18593384 34.53795319 17.52628662 35.3386322 17.87695312 36.16357422 C18.1789563 36.8697287 18.48095947 37.57588318 18.79211426 38.30343628 C19.4375 40.0625 19.4375 40.0625 19.4375 42.0625 C16.1375 42.0625 12.8375 42.0625 9.4375 42.0625 C6.4375 35.4375 6.4375 35.4375 6.4375 32.0625 C1.1575 32.0625 -4.1225 32.0625 -9.5625 32.0625 C-10.0575 34.5375 -10.0575 34.5375 -10.5625 37.0625 C-11.19687344 38.7417238 -11.85539322 40.41258418 -12.5625 42.0625 C-14.8725 42.0625 -17.1825 42.0625 -19.5625 42.0625 C-18.95409129 36.86295342 -17.2934546 32.60080999 -15.21875 27.85546875 C-14.88959595 27.08946854 -14.56044189 26.32346832 -14.22131348 25.53425598 C-13.52842763 23.92521811 -12.83236481 22.31754497 -12.13330078 20.71118164 C-11.05962955 18.24340241 -9.99581885 15.77155286 -8.93359375 13.29882812 C-8.25837996 11.73413 -7.58261809 10.16966825 -6.90625 8.60546875 C-6.58644165 7.86387009 -6.2666333 7.12227142 -5.93713379 6.35820007 C-3.19927552 0.07803111 -3.19927552 0.07803111 0 0 Z M-2.5625 14.0625 C-3.2333712 15.6857687 -3.89907029 17.31117578 -4.5625 18.9375 C-4.93375 19.84242188 -5.305 20.74734375 -5.6875 21.6796875 C-6.67740226 23.95233858 -6.67740226 23.95233858 -6.5625 26.0625 C-3.2625 26.0625 0.0375 26.0625 3.4375 26.0625 C2.963125 24.639375 2.48875 23.21625 2 21.75 C1.14583333 19.1875 0.29166667 16.625 -0.5625 14.0625 C-1.2225 14.0625 -1.8825 14.0625 -2.5625 14.0625 Z " fill="#1E9971" transform="translate(411.5625,291.9375)"/>
<path d="M0 0 C0.59355614 2.64860427 0.74209269 5.29197322 1 8 C0.41992188 7.77183594 -0.16015625 7.54367187 -0.7578125 7.30859375 C-5.57455796 5.53609501 -8.88474517 4.55723582 -14 6 C-14.33 7.65 -14.66 9.3 -15 11 C-14.5153125 11.30292969 -14.030625 11.60585938 -13.53125 11.91796875 C-12.11926195 12.80046128 -10.70924447 13.68611139 -9.30078125 14.57421875 C-7.81263872 15.49641234 -6.31053105 16.39659718 -4.79296875 17.26953125 C2.47090398 21.51465168 2.47090398 21.51465168 4 26 C4.27255829 30.81812718 3.72060121 34.03233552 0.8125 37.9375 C-4.26469811 41.66077861 -8.76300228 42.52855913 -15 42 C-18.06222681 41.15372965 -21.03196891 40.13067851 -24 39 C-24 36.36 -24 33.72 -24 31 C-23.360625 31.28875 -22.72125 31.5775 -22.0625 31.875 C-19.51722862 32.80999765 -17.0607709 33.5833602 -14.4375 34.25 C-13.69371094 34.44078125 -12.94992187 34.6315625 -12.18359375 34.828125 C-9.473437 35.04144682 -8.22291546 34.53707064 -6 33 C-5.67 32.01 -5.34 31.02 -5 30 C-7.8992224 26.81359048 -10.63923236 25.0023513 -14.5 23.125 C-19.04116785 20.69981022 -21.93710704 18.91164991 -24 14 C-24.96383727 9.29420627 -24.45733773 6.72635993 -21.875 2.625 C-16.04387202 -2.69907337 -7.21077406 -3.60538703 0 0 Z " fill="#1E9970" transform="translate(456,293)"/>
<path d="M0 0 C4.53897705 -0.02465392 9.07791543 -0.04283789 13.61694336 -0.05493164 C15.16219766 -0.0599714 16.70744716 -0.0668032 18.25268555 -0.07543945 C20.46925029 -0.08752076 22.68575218 -0.09323173 24.90234375 -0.09765625 C25.5971434 -0.10281754 26.29194305 -0.10797882 27.00779724 -0.11329651 C28.6722933 -0.11349277 30.33665499 -0.06189129 32 0 C33 1 33 1 33 7 C29.04 6.67 25.08 6.34 21 6 C21 17.88 21 29.76 21 42 C18.03 42 15.06 42 12 42 C12 30.12 12 18.24 12 6 C6.06 6.495 6.06 6.495 0 7 C0 4.69 0 2.38 0 0 Z " fill="#1E9871" transform="translate(459,292)"/>
<path d="M0 0 C10.56 0 21.12 0 32 0 C32 2.31 32 4.62 32 7 C28.04 6.67 24.08 6.34 20 6 C20 17.88 20 29.76 20 42 C17.03 42 14.06 42 11 42 C11 30.12 11 18.24 11 6 C5.06 6.495 5.06 6.495 -1 7 C-0.67 4.69 -0.34 2.38 0 0 Z " fill="#1E9971" transform="translate(716,292)"/>
<path d="M0 0 C2.64 0 5.28 0 8 0 C8 13.86 8 27.72 8 42 C5.36 42 2.72 42 0 42 C0 28.14 0 14.28 0 0 Z " fill="#1E9971" transform="translate(753,292)"/>
</svg>
