<?xml version="1.0" encoding="UTF-8"?>
<svg version="1.1" xmlns="http://www.w3.org/2000/svg" width="100" height="100">
<path d="M0 0 C5.94 0 11.88 0 18 0 C21 8 21 8 21 12 C21.94359375 11.71125 22.8871875 11.4225 23.859375 11.125 C32.07144435 8.7151813 39.35971755 7.42076319 48 8 C48 11.3 48 14.6 48 18 C49.50566528 17.97643433 49.50566528 17.97643433 51.04174805 17.95239258 C54.77831955 17.89794886 58.51485621 17.86359774 62.25170898 17.83520508 C63.86667789 17.82015124 65.48160613 17.79970352 67.09643555 17.77368164 C69.42246555 17.73714714 71.74795341 17.72023985 74.07421875 17.70703125 C75.15107185 17.68380547 75.15107185 17.68380547 76.24967957 17.66011047 C80.7499549 17.65861159 83.33792201 18.42717204 87 21 C89.25076001 21.78895339 91.52364958 22.51702866 93.8125 23.1875 C94.97394531 23.53167969 96.13539062 23.87585938 97.33203125 24.23046875 C98.65267578 24.61138672 98.65267578 24.61138672 100 25 C100.28549835 28.02945475 100.27485354 29.57390024 98.6015625 32.16796875 C91.80770455 39.10951927 85.94291435 40.01061544 76.5 40.1875 C72.30868167 40.15434084 72.30868167 40.15434084 70 39 C67.03373289 38.9007499 64.09143413 38.86019185 61.125 38.8671875 C60.24473145 38.86623077 59.36446289 38.86527405 58.45751953 38.86428833 C56.59472584 38.86360724 54.73192977 38.86545657 52.86914062 38.86962891 C50.01166472 38.87497816 47.154346 38.86968151 44.296875 38.86328125 C42.48958299 38.86394204 40.68229107 38.86522323 38.875 38.8671875 C38.01664551 38.86516327 37.15829102 38.86313904 36.27392578 38.86105347 C32.00199198 38.75357322 32.00199198 38.75357322 28 40 C23.17089 40.52137294 19.25833154 40.73402673 15 38.25 C13 36 13 36 12.125 34 C11.04864874 31.58071286 11.04864874 31.58071286 7.4375 30.6875 C5.54296875 29.71484375 5.54296875 29.71484375 4 28 C3.45827623 24.87863925 3.27062679 21.88053826 3.21289062 18.71606445 C3.11448581 13.39896762 2.05919663 9.83463558 0 5 C0 3.35 0 1.7 0 0 Z M6 4 C6.15855469 4.66644531 6.31710938 5.33289062 6.48046875 6.01953125 C7.21523664 10.23477861 7.28066872 14.46143218 7.34179688 18.73632812 C7.39352944 20.93449841 7.39352944 20.93449841 8 24 C9.91555784 25.54176746 9.91555784 25.54176746 12 26 C12.61875 25.030625 13.2375 24.06125 13.875 23.0625 C16 20 16 20 18 19 C17.52396226 16.87429688 17.04407402 14.74945573 16.5625 12.625 C16.29566406 11.44164062 16.02882813 10.25828125 15.75390625 9.0390625 C15.14365305 6.10505419 15.14365305 6.10505419 14 4 C11.36 4 8.72 4 6 4 Z M23 17 C23 17.33 23 17.66 23 18 C24.093125 18.2475 25.18625 18.495 26.3125 18.75 C30 20 30 20 33 24 C33.33 27.3 33.66 30.6 34 34 C44.56 34 55.12 34 66 34 C66.33 30.37 66.66 26.74 67 23 C59.41 22.67 51.82 22.34 44 22 C44 19.03 44 16.06 44 13 C36.42733125 12.4060652 30.12481267 14.56713714 23 17 Z M18.125 24.125 C16.47145469 26.88090884 16.60634432 28.85075452 17 32 C18 34 18 34 20 35 C23.14924548 35.39365568 25.11909116 35.52854531 27.875 33.875 C29.52854531 31.11909116 29.39365568 29.14924548 29 26 C28 24 28 24 26 23 C22.85075452 22.60634432 20.88090884 22.47145469 18.125 24.125 Z M72.125 24.125 C70.47145469 26.88090884 70.60634432 28.85075452 71 32 C72 34 72 34 74 35 C77.14924548 35.39365568 79.11909116 35.52854531 81.875 33.875 C83.52854531 31.11909116 83.39365568 29.14924548 83 26 C82 24 82 24 80 23 C76.85075452 22.60634432 74.88090884 22.47145469 72.125 24.125 Z M88 27 C88 29.31 88 31.62 88 34 C89.65 32.35 91.3 30.7 93 29 C90.32357511 26.81509993 90.32357511 26.81509993 88 27 Z " fill="#a0a0a0" transform="translate(0,28)"/>
</svg>