<?xml version="1.0" encoding="UTF-8"?>
<svg version="1.1" xmlns="http://www.w3.org/2000/svg" width="1200" height="700">
<path d="M0 0 C2.10740678 0.37537798 4.21820866 0.71544372 6.33269143 1.04851556 C11.03720706 1.79746954 15.73185625 2.60020674 20.42699647 3.40552354 C22.20778442 3.70828297 23.98862401 4.01073874 25.76951051 4.31291795 C30.55469289 5.12579478 35.33912138 5.94302809 40.12339497 6.76123452 C45.15292328 7.62073261 50.18307845 8.47654762 55.21314454 9.3328917 C63.64845303 10.76953753 72.08328317 12.20896473 80.51781678 13.65015244 C90.25240111 15.31344837 99.98767877 16.97263584 109.72334737 18.62957263 C119.12205719 20.22923091 128.52032521 21.83146979 137.91837716 23.43498826 C141.90485075 24.11514358 145.89146577 24.79446094 149.87819695 25.47310472 C154.57117306 26.2721131 159.26375361 27.07340628 163.95604348 27.87643456 C165.67274158 28.16986518 167.38956953 28.46253729 169.10653901 28.7543757 C177.12813206 30.11829503 185.12621091 31.48212208 193.04638124 33.36450791 C193.09710677 52.58246131 192.97644359 71.78918762 192.67919374 91.00513291 C192.65962491 92.29330667 192.64005609 93.58148042 192.61989427 94.90868974 C192.52692667 101.01743781 192.43228917 107.12615441 192.33476007 113.23483133 C192.22416841 120.16412972 192.12040687 127.09348699 192.0223974 134.02297449 C191.9354682 140.13396405 191.83948169 146.24478358 191.74049973 152.35558915 C191.70036825 154.90826711 191.66284435 157.46098772 191.62823319 160.0137465 C191.32561374 182.02966158 190.24209888 203.90627388 186.79638124 225.67700791 C186.69000337 226.36008012 186.5836255 227.04315232 186.47402406 227.74692369 C178.9363306 275.96506681 164.6506702 323.04097393 142.06640077 366.39380479 C140.96792568 368.51608599 139.89574862 370.65062805 138.82372499 372.78638291 C126.93449819 396.21819031 112.08512105 418.35998062 95.04638124 438.36450791 C94.13728062 439.44763444 93.22844126 440.53098029 92.31981874 441.61450791 C80.1554111 456.0392696 67.38638901 470.07307267 53.04638124 482.36450791 C52.08474061 483.21528916 51.12309999 484.06607041 50.13231874 484.94263291 C35.37141494 497.93009479 19.48083262 509.41807082 2.98534608 520.09253526 C1.19818899 521.26492111 -0.55867098 522.47023763 -2.30908751 523.69653916 C-3.74188048 524.67687119 -3.74188048 524.67687119 -5.20361876 525.67700791 C-5.99252501 526.23001573 -6.78143126 526.78302354 -7.59424376 527.35278916 C-10.92796746 528.78231638 -12.47794785 528.42976763 -15.95361876 527.36450791 C-18.99797418 525.80418133 -21.84173195 523.98498574 -24.70361876 522.11450791 C-25.53417785 521.57946641 -26.36473693 521.04442491 -27.22046447 520.49317002 C-41.14502702 511.43186402 -54.37699914 501.54148693 -67.12012267 490.88941026 C-68.79548579 489.49602569 -70.48650902 488.12517818 -72.18408751 486.75903916 C-80.52417276 479.94288127 -88.1380388 472.39182992 -95.76611876 464.80200791 C-96.30227813 464.27111558 -96.83843749 463.74022325 -97.39084411 463.19324327 C-104.38693639 456.25033334 -110.80394353 449.08173198 -116.95361876 441.36450791 C-117.89998828 440.25083944 -118.85308094 439.14279704 -119.81690001 438.04419541 C-127.19420832 429.59617729 -133.67361852 420.65089126 -139.95361876 411.36450791 C-140.41768126 410.67872666 -140.88174376 409.99294541 -141.35986876 409.28638291 C-148.65892488 398.42074257 -155.25332213 387.18406538 -161.62256408 375.75220323 C-162.43740084 374.2905188 -163.25613124 372.83098591 -164.08154845 371.3752501 C-196.40802275 314.36310453 -213.58475787 244.63643194 -215.49658751 179.41528916 C-215.53678512 178.12375932 -215.57698272 176.83222947 -215.61839843 175.50156236 C-216.03337988 161.84701028 -216.28589779 148.18937225 -216.48604751 134.53011918 C-216.51668147 132.45132298 -216.54841843 130.37254562 -216.58029723 128.29376817 C-217.0602099 96.65086373 -217.05855773 65.01026596 -216.95361876 33.36450791 C-204.04486814 30.73001962 -191.12085938 28.27335051 -178.13818908 26.03296494 C-176.3582388 25.72387507 -174.57831721 25.41461995 -172.79842162 25.10521531 C-156.72296359 22.31450093 -140.64171865 19.5567996 -124.55927444 16.80666375 C-112.71134286 14.78031107 -100.8662387 12.73878665 -89.0243597 10.6773504 C-80.64518612 9.22004735 -72.26308045 7.78046592 -63.87865877 6.35367119 C-58.89197187 5.50457101 -53.90687807 4.64790813 -48.92484832 3.77186036 C-44.24283091 2.94891305 -39.55752694 2.1481764 -34.86893821 1.36356378 C-33.16172343 1.07404785 -31.4557883 0.77685023 -29.75144172 0.47090173 C-19.39085319 -1.38334441 -10.42116247 -1.85817881 0 0 Z " fill="#FDF000" transform="translate(612.9536187648773,101.63549208641052)"/>
<path d="M0 0 C7.45010183 5.37960207 7.45010183 5.37960207 10.4375 8.75 C13.5551191 11.48742165 15.73511661 11.65871982 19.71875 12.3359375 C23.05703723 13.30769919 25.05507869 15.25248112 27.4921875 17.66015625 C31.55785019 21.27290833 38.2815779 20.33206252 43.43359375 20.5234375 C47.00006149 21.00000822 48.53172243 21.43703147 51 24 C51 24.66 51 25.32 51 26 C49.89591797 25.98259766 49.89591797 25.98259766 48.76953125 25.96484375 C47.79371094 25.95582031 46.81789063 25.94679687 45.8125 25.9375 C44.84957031 25.92589844 43.88664063 25.91429687 42.89453125 25.90234375 C40.14423487 25.99513378 37.67520409 26.37888315 35 27 C35 27.66 35 28.32 35 29 C35.99 29.061875 36.98 29.12375 38 29.1875 C41.20359743 29.62493901 43.2142065 30.620894 45.875 32.4375 C48.78926899 34.41785267 51.02616958 35.36449704 54.5 35.9375 C59.69773703 36.85049381 63.07968271 39.60310382 67 43 C65.25 43.625 65.25 43.625 63 44 C61.66440106 43.33788393 60.33140518 42.67050911 59 42 C56.79773049 41.7808825 54.5866637 41.64341453 52.375 41.5625 C46.18788795 41.21301878 40.80646502 40.12725331 35 38 C35 38.66 35 39.32 35 40 C35.886875 40.2475 36.77375 40.495 37.6875 40.75 C41.6798152 42.25653404 45.04062332 44.08124663 47 48 C48.87671992 48.53120222 50.77834164 48.97579099 52.6875 49.375 C57.67925506 50.55616439 61.12553843 51.635336 65 55 C66.375 57.25 66.375 57.25 67 59 C64.50638429 57.79618552 62.31856917 56.54571278 60 55 C56.98269965 54.90114258 54.02194098 55.06779501 51.0078125 55.22265625 C47.56817009 54.96803337 45.78706667 53.96945855 43 52 C46.76856757 57.29954814 49.82747232 59.18313513 56 61 C57.155 61.391875 58.31 61.78375 59.5 62.1875 C60.325 62.455625 61.15 62.72375 62 63 C62 63.66 62 64.32 62 65 C57.67412662 66.24969675 54.98271734 65.66090578 50.75 64.25 C49.61691406 63.87875 48.48382812 63.5075 47.31640625 63.125 C46.22199219 62.75375 45.12757813 62.3825 44 62 C43.06027344 61.690625 42.12054687 61.38125 41.15234375 61.0625 C39.09812015 60.38535498 37.04845774 59.69439245 35 59 C35 59.66 35 60.32 35 61 C36.216875 61.268125 37.43375 61.53625 38.6875 61.8125 C45.50077741 63.55487253 48.16620591 66.1295028 52 72 C53.62332967 73.38576923 55.28724465 74.72641268 57 76 C57.53625 76.556875 58.0725 77.11375 58.625 77.6875 C60.08068897 79.26372838 60.08068897 79.26372838 63 80 C63 80.66 63 81.32 63 82 C57.60562365 82.50180245 57.60562365 82.50180245 54.8125 80.1875 C51.31590088 77.46792291 47.83388598 76.202532 43.6875 74.75 C42.94693359 74.481875 42.20636719 74.21375 41.44335938 73.9375 C39.63198929 73.28306952 37.8164026 72.64032994 36 72 C38.56702287 75.46752748 40.84361262 77.76657589 44.5625 79.9375 C48.48716677 82.43560204 50.45777868 84.4761508 52 89 C52 89.66 52 90.32 52 91 C52.56589844 91.10957031 53.13179687 91.21914062 53.71484375 91.33203125 C54.44832031 91.49058594 55.18179688 91.64914063 55.9375 91.8125 C57.03384766 92.03873047 57.03384766 92.03873047 58.15234375 92.26953125 C58.76207031 92.51058594 59.37179687 92.75164062 60 93 C60.33 93.99 60.66 94.98 61 96 C54.79724307 96.42777634 52.05595955 95.93241298 47 92 C42.64068733 88.90259363 39.23371284 88.44353499 34 88 C34.70125 88.56847656 35.4025 89.13695312 36.125 89.72265625 C39.09233169 92.13764495 42.04692901 94.56760205 45 97 C46.19109375 97.96292969 46.19109375 97.96292969 47.40625 98.9453125 C51.41453529 102.28056481 54.05487046 105.01560555 56 110 C52.9122553 109.38245106 50.74267322 108.35960274 48.125 106.625 C44.84680241 104.50706335 41.53031691 102.67690053 38 101 C40.475 103.97 40.475 103.97 43 107 C40.36 106.67 37.72 106.34 35 106 C36.010625 106.4125 37.02125 106.825 38.0625 107.25 C40.69318734 108.3713637 43.15901828 109.61542941 45.625 111.0625 C48.39577849 112.65313209 51.00799235 113.91199722 54 115 C54 115.99 54 116.98 54 118 C48.67634076 118.31941955 45.64976276 117.53623423 41 115 C40.01 115 39.02 115 38 115 C39.0209375 115.309375 39.0209375 115.309375 40.0625 115.625 C43.97009851 117.45408866 46.83857939 120.10279034 50 123 C49.01 123.495 49.01 123.495 48 124 C47.27167969 123.69320312 46.54335938 123.38640625 45.79296875 123.0703125 C42.45836765 121.79243739 39.8717221 121.80194869 36.3125 121.875 C34.60513672 121.90207031 34.60513672 121.90207031 32.86328125 121.9296875 C31.91839844 121.95289063 30.97351563 121.97609375 30 122 C29.34 122 28.68 122 28 122 C28.64066406 122.20753906 29.28132812 122.41507812 29.94140625 122.62890625 C34.77362 124.35006733 38.21186808 125.84588391 41.625 129.75 C43.92156692 132.2948315 43.92156692 132.2948315 47.03125 133.51953125 C51.02952432 133.60158539 54.44368903 132.77815549 58 131 C57.06896676 133.32758311 56.34617872 134.74357132 54.3125 136.25 C47.26745513 138.53487942 42.52338936 136.13587084 36.0234375 133.24609375 C32.05185105 131.60922543 28.21691654 130.77310137 24 130 C24.556875 130.20753906 25.11375 130.41507813 25.6875 130.62890625 C31.69981355 133.05617473 36.6205518 136.15516085 41 141 C41 141.66 41 142.32 41 143 C40.4225 142.690625 39.845 142.38125 39.25 142.0625 C37.15705816 141.07416636 35.25464725 140.4831387 33 140 C33.7425 140.886875 34.485 141.77375 35.25 142.6875 C37.53640616 145.4298846 39.77951375 148.20383213 42 151 C38.19311779 150.76206986 36.17009999 149.46672494 33.3125 147.125 C29.5293098 144.12280929 26.06376666 142.84713037 21.39453125 141.73828125 C18.62007017 140.88286013 16.43219957 139.56818552 14 138 C12.86700249 151.97363598 17.93758077 162.82854329 26 174 C26.49886719 174.69609375 26.99773437 175.3921875 27.51171875 176.109375 C32.01273727 181.77816407 37.76068425 185.54988026 43.640625 189.64453125 C57.45062875 199.27719961 69.02888966 213.39353859 73 230 C80.60116495 230.46376155 87.16950399 227.19208001 92.96875 222.359375 C99.96612577 214.71938309 102.19667854 205.60106571 102.1875 195.5625 C102.18669434 194.66394287 102.18588867 193.76538574 102.18505859 192.83959961 C102.11592744 185.30362603 101.90333116 177.61078285 98.9921875 170.55859375 C95.58840383 161.78112012 95.31998913 149.35394467 98.12890625 140.40234375 C99.57144339 137.42310907 101.1313264 134.7298135 103 132 C103.45632813 131.32710937 103.91265625 130.65421875 104.3828125 129.9609375 C108.27136033 124.91693545 113.5532586 121.22298187 119 118 C119.66 118 120.32 118 121 118 C121 118.66 121 119.32 121 120 C120.154375 120.639375 119.30875 121.27875 118.4375 121.9375 C112.65101292 126.54194934 108.26209067 134.00508857 106 141 C105.76076461 143.66723306 105.76076461 143.66723306 105.875 146.3125 C105.89304687 147.19550781 105.91109375 148.07851563 105.9296875 148.98828125 C105.95289063 149.65214844 105.97609375 150.31601562 106 151 C112.56020512 145.65415881 117.38822049 140.50365422 121.52734375 133.08984375 C122.25630859 132.05537109 122.25630859 132.05537109 123 131 C123.99 131 124.98 131 126 131 C125.13528192 139.35894142 121.15518261 144.46278506 116.21484375 150.9609375 C113.33481443 154.91272377 112.87568909 157.42805976 112.9375 162.1875 C112.94652344 163.08855469 112.95554687 163.98960937 112.96484375 164.91796875 C112.97644531 165.60503906 112.98804688 166.29210937 113 167 C114.89142078 166.88882996 114.89142078 166.88882996 117 166 C118.91441506 163.68287027 118.91441506 163.68287027 120.5625 160.8125 C121.16320312 159.8225 121.76390625 158.8325 122.3828125 157.8125 C124.04874691 154.91522277 125.6052515 152.03562908 127 149 C127.66 149.33 128.32 149.66 129 150 C129.46854771 155.87543956 128.34848979 158.78552822 125.0625 163.625 C120.53705006 170.34533307 119.85912878 174.57829359 119.875 182.625 C119.87242187 183.93726563 119.86984375 185.24953125 119.8671875 186.6015625 C119.84133139 189.98889394 119.84133139 189.98889394 121 193 C122.16074432 206.83447122 121.92713637 218.26072482 112.9375 229.3125 C108.3042339 234.21603996 103.30274147 236.76164322 97 239 C97.33 239.78375 97.66 240.5675 98 241.375 C99.26231893 245.95090613 99.38257801 250.27560649 99 255 C98.67 255.33 98.34 255.66 98 256 C97.92755947 258.01964199 97.91622812 260.04167124 97.9375 262.0625 C97.94652344 263.16722656 97.95554687 264.27195312 97.96484375 265.41015625 C97.97644531 266.26480469 97.98804688 267.11945313 98 268 C94.1128038 264.45082086 93.89463952 261.29139095 93.625 256.1875 C93.26694524 251.49300428 92.69391084 247.98698804 90 244 C89.34 243.67 88.68 243.34 88 243 C88.495 243.78375 88.99 244.5675 89.5 245.375 C92.4014332 252.3867969 91.45413842 259.45480804 89.1171875 266.5546875 C87.49155102 270.11289881 85.21147213 272.91256704 82.7109375 275.8984375 C79.47819885 279.86924434 77.21034267 284.39511944 75 289 C73.58655897 286.75512307 72.95233552 285.47162749 73.22265625 282.796875 C74.20406803 279.26576528 75.79743703 276.16142948 77.5 272.9375 C80.21599854 267.76183209 82.1608757 263.65254173 82.0625 257.75 C82.0315625 255.89375 82.0315625 255.89375 82 254 C81.34 254 80.68 254 80 254 C78.19003784 259.65755469 76.64270983 265.0870696 76 271 C75.34 270.67 74.68 270.34 74 270 C73.97287847 268.083412 73.95354903 266.1667127 73.9375 264.25 C73.92009766 262.64898437 73.92009766 262.64898437 73.90234375 261.015625 C73.98619083 258.42642728 74.36131004 256.47492361 75 254 C75.06624507 252.25113019 75.08552595 250.49997252 75.0625 248.75 C75.05347656 247.85796875 75.04445313 246.9659375 75.03515625 246.046875 C75.02355469 245.37140625 75.01195312 244.6959375 75 244 C74.01 244 73.02 244 72 244 C71.9175 245.299375 71.835 246.59875 71.75 247.9375 C70.15787472 261.68571698 60.41705714 271.7163797 50 280 C46.89540244 282.10128249 43.7665004 284.12552518 40.56640625 286.078125 C37.20253714 288.5971868 35.39382751 291.02376646 34.56640625 295.17578125 C34.55877199 299.35172057 34.8943791 302.22575665 37 305.875 C39.67645603 310.76881194 40.58916291 315.57239744 39 321 C36.11086471 324.07768939 32.64567886 325.92371766 29 328 C20.18503842 333.83560306 11.78774624 340.42398718 6.75 349.9375 C5 353 5 353 2.25 354.5 C1.13625 355.2425 1.13625 355.2425 0 356 C-0.04166002 358.3329614 -0.04166002 360.6670386 0 363 C-3.15763132 366.50847924 -6.75767262 366.87796858 -11.296875 367.125 C-16.62258635 367.25410815 -20.96974339 366.74965447 -26 365 C-25.25694622 358.80788516 -21.53382117 355.93485764 -17 352 C-15.9275 351.29875 -14.855 350.5975 -13.75 349.875 C-10.84223946 348.14419791 -10.84223946 348.14419791 -9.125 345.1875 C-5.23926263 339.35889395 0.46886343 335.41145853 5.9375 331.125 C15.08800581 324.05911515 15.08800581 324.05911515 21.5 314.6875 C20.83485126 309.78202804 18.60234165 306.61905196 15.98828125 302.46484375 C13.78085991 298.61811934 12.16062566 294.77439547 10.625 290.625 C10.37484131 289.95927979 10.12468262 289.29355957 9.86694336 288.60766602 C5.32701278 276.053867 5.62954414 263.19078685 11 251 C12.69270725 247.50248569 14.43408065 244.03086147 16.26953125 240.60595703 C18.31605102 236.72284198 19.53968551 233.43825611 20 229 C19.34 229 18.68 229 18 229 C17.93683594 229.79535156 17.87367188 230.59070313 17.80859375 231.41015625 C16.71759767 236.25375722 14.46702594 240.1241919 12.0625 244.4375 C7.43836351 252.76356189 4.62464461 259.76045744 4.75 269.375 C4.76015137 270.50143921 4.76015137 270.50143921 4.77050781 271.65063477 C4.91070192 279.16813647 6.23086375 285.24978331 9.125 292.1875 C10.68785692 295.96294087 11.68967085 298.86197489 11 303 C9.78515625 305.16796875 9.78515625 305.16796875 8 307 C1.58188456 307.7697402 -5.08441269 305.53001034 -11.19921875 303.765625 C-22.64887427 300.63573312 -34.41738817 300.09123602 -46.1875 301.5625 C-50 302 -50 302 -52.0703125 301.37890625 C-52.70710937 301.25386719 -53.34390625 301.12882812 -54 301 C-56.72926391 303.31256494 -56.72926391 303.31256494 -59 306 C-60 307 -60 307 -62.9375 307.3125 C-68.48593193 307.24357538 -74.67982845 305.11337366 -78.796875 301.36328125 C-79.39242187 300.68845703 -79.39242187 300.68845703 -80 300 C-78.62090338 296.59155912 -77.39436506 295.33262465 -74.0625 293.8125 C-73.37285156 293.48894531 -72.68320312 293.16539062 -71.97265625 292.83203125 C-62.57076487 288.86648102 -51.23800798 289.93081303 -41.203125 290.0078125 C-39.63093201 290.0195047 -39.63093201 290.0195047 -38.02697754 290.03143311 C-33.64770618 290.06834593 -29.26866355 290.11093824 -24.88964844 290.17138672 C-21.66077539 290.21346135 -18.43219545 290.23705703 -15.203125 290.2578125 C-13.70957489 290.28574387 -13.70957489 290.28574387 -12.18585205 290.3142395 C-11.2701947 290.31769379 -10.35453735 290.32114807 -9.41113281 290.32470703 C-8.60508606 290.33438507 -7.79903931 290.34406311 -6.96856689 290.35403442 C-6.31893982 290.23720306 -5.66931274 290.1203717 -5 290 C-2.75367978 287.24651871 -2.75367978 287.24651871 -3.04296875 284.4453125 C-4.41237868 279.51543675 -6.84420407 275.33590995 -9.3125 270.875 C-13.338725 263.4086052 -16.95764306 256.27835347 -19 248 C-19.19207031 247.23300781 -19.38414062 246.46601563 -19.58203125 245.67578125 C-20.12909663 242.17354025 -20.10645433 238.7207516 -20.0625 235.1875 C-20.05798828 234.49462891 -20.05347656 233.80175781 -20.04882812 233.08789062 C-20.03713156 231.39188932 -20.01919924 229.69593297 -20 228 C-15.37578891 228.51662432 -12.76548662 230.36494089 -9.125 233.1875 C-7.55878906 234.39792969 -7.55878906 234.39792969 -5.9609375 235.6328125 C-2.56573346 238.34718407 0.74723892 241.11687086 4 244 C1.69008898 237.51071607 -2.73267149 235.03155781 -8.25 231.4375 C-16.8403275 225.64804587 -24.70433669 219.42827147 -32.36010742 212.46166992 C-34.06162827 210.94506946 -35.81236415 209.50135753 -37.5703125 208.05078125 C-41.03977848 205.0876906 -43.80897379 201.81201399 -46.5625 198.1875 C-47.03212158 197.57874023 -47.50174316 196.96998047 -47.9855957 196.34277344 C-58 183.2532704 -58 183.2532704 -58 180 C-59.7634375 179.6596875 -59.7634375 179.6596875 -61.5625 179.3125 C-67.30589546 177.87157747 -71.24892681 174.86277959 -75.265625 170.58984375 C-78.32274306 167.69431622 -81.37932168 165.85133958 -85.0625 163.875 C-91.64982011 160.27939219 -91.64982011 160.27939219 -94.18359375 158.2578125 C-96.17985328 156.62046539 -96.17985328 156.62046539 -100 157 C-99.84144531 157.99386719 -99.68289063 158.98773438 -99.51953125 160.01171875 C-98.95553285 163.94192827 -98.82380388 167.84410996 -98.6875 171.8125 C-98.41033295 177.70841382 -97.44071054 182.54410996 -94.890625 187.88671875 C-94 190 -94 190 -93.75 193.875 C-93.35825537 197.04305077 -93.35825537 197.04305077 -91.23828125 198.2109375 C-89.09071703 199.27133119 -89.09071703 199.27133119 -86.91015625 200.078125 C-85 201 -85 201 -83 204 C-82.26040518 210.31918519 -82.60233054 216.62146577 -86.375 221.9375 C-88 223 -88 223 -89.890625 222.8671875 C-96.71772797 220.06048961 -100.64932506 207.93920473 -103.640625 201.62890625 C-104.90183207 199.00082394 -104.90183207 199.00082394 -106.60546875 196.90625 C-111.10222154 190.75942826 -110.52091712 180.50241574 -111.24584961 173.12207031 C-111.80238163 167.54240937 -112.57476324 162.05296376 -113.6328125 156.54296875 C-114.5297492 150.33120499 -113.92078878 146.88390678 -110.41015625 141.76953125 C-107.38421766 137.97243934 -105.02721076 137.13696144 -100.25 136.5 C-92.64977379 136.70716119 -85.1750791 139.69343037 -78 142 C-77.67 141.67 -77.34 141.34 -77 141 C-77.73605469 140.28714844 -78.47210937 139.57429687 -79.23046875 138.83984375 C-88.13235165 130.12674715 -88.13235165 130.12674715 -90.9375 125.8125 C-91.618125 124.884375 -92.29875 123.95625 -93 123 C-94.32 123 -95.64 123 -97 123 C-98.68601303 124.79677322 -98.68601303 124.79677322 -100.125 127.25 C-102.86775721 131.45595598 -105.83771729 135.13547821 -109.1875 138.875 C-113.88763542 144.47074049 -116.90999854 149.70760085 -118 157 C-117.81733431 158.94500373 -117.5686015 160.88509259 -117.25 162.8125 C-116.57473315 167.39372214 -116.57473315 167.39372214 -118.5234375 170.171875 C-122.79000581 174.0102004 -126.97004369 176.86533528 -132.8125 177.125 C-133.534375 177.08375 -134.25625 177.0425 -135 177 C-135.43829236 171.08305315 -134.56099782 167.16319159 -132.0703125 161.78515625 C-131.13907016 159.36188694 -130.65921755 157.30223193 -130.1953125 154.76953125 C-129.06479937 149.42090864 -126.5907253 145.24430742 -123.75 140.625 C-122.74503004 138.94464613 -121.74111492 137.26366093 -120.73828125 135.58203125 C-120.02019287 134.38827881 -120.02019287 134.38827881 -119.28759766 133.17041016 C-117.75756048 130.59133725 -116.33454845 127.96568422 -114.9375 125.3125 C-112.41143847 120.65576048 -109.74289923 116.09404783 -107 111.5625 C-106.59644287 110.87518799 -106.19288574 110.18787598 -105.77709961 109.47973633 C-103.11566592 105.15029253 -100.61544776 102.41938794 -96 100 C-88.79815475 100.12860438 -84.05014172 102.94051749 -78.875 107.6875 C-69.55509699 116.53242441 -69.55509699 116.53242441 -58 121 C-56.36865501 119.60655949 -54.74699698 118.19973157 -53.18359375 116.73046875 C-50.6232799 114.70145438 -48.0494962 113.56457967 -45.0625 112.25 C-39.41720745 109.56813409 -36.41914122 106.46318442 -32.796875 101.44140625 C-31.14616024 99.19858728 -29.464459 97.39691075 -27.4375 95.5 C-20.68460905 88.85405528 -16.43538442 81.25119314 -12.5625 72.6875 C-12.20808838 71.91043701 -11.85367676 71.13337402 -11.48852539 70.33276367 C-9.79096584 66.43885755 -8.50619355 63.34029877 -9 59 C-10.485 59.495 -10.485 59.495 -12 60 C-16.69324531 60.39942513 -20.44261033 59.70921979 -25 58.5 C-32.14961364 56.61899192 -37.00661718 56.61927393 -44 59 C-47.25 59.3125 -47.25 59.3125 -50 59 C-50.66 58.01 -51.32 57.02 -52 56 C-46.375 53 -46.375 53 -43 53 C-43 52.34 -43 51.68 -43 51 C-44.2375 51.495 -44.2375 51.495 -45.5 52 C-49.61959741 53.17702783 -52.73296685 53.21696779 -57 53 C-58 52 -58 52 -58.4375 49 C-58.39445558 43.80238572 -55.22760049 39.8558439 -52 36 C-48.95974596 33.97316397 -47.32135341 33.56225129 -43.8125 32.875 C-36.88942619 31.2410872 -31.00907311 28.22790468 -24.76171875 24.9375 C-21.24797919 23.08787481 -17.66827377 21.51856094 -14 20 C-18.80061213 16.35815632 -24.19935017 15.86349428 -30 15 C-29.67 14.34 -29.34 13.68 -29 13 C-26.35139573 12.40644386 -23.70802678 12.25790731 -21 12 C-22.32 11.67 -23.64 11.34 -25 11 C-25 10.34 -25 9.68 -25 9 C-23.10448978 8.94558344 -21.2085208 8.90701965 -19.3125 8.875 C-18.25675781 8.85179687 -17.20101562 8.82859375 -16.11328125 8.8046875 C-12.94853546 9.00322864 -10.88754328 9.76798153 -8 11 C-5.6679198 11.07646165 -3.33154122 11.09143299 -1 11 C-1.20625 10.113125 -1.4125 9.22625 -1.625 8.3125 C-2.02550239 4.7747289 -1.56683516 3.13367033 0 0 Z " fill="#272321" transform="translate(606,150)"/>
<path d="M0 0 C2.10740678 0.37537798 4.21820866 0.71544372 6.33269143 1.04851556 C11.03720706 1.79746954 15.73185625 2.60020674 20.42699647 3.40552354 C22.20778442 3.70828297 23.98862401 4.01073874 25.76951051 4.31291795 C30.55469289 5.12579478 35.33912138 5.94302809 40.12339497 6.76123452 C45.15292328 7.62073261 50.18307845 8.47654762 55.21314454 9.3328917 C63.64845303 10.76953753 72.08328317 12.20896473 80.51781678 13.65015244 C90.25240111 15.31344837 99.98767877 16.97263584 109.72334737 18.62957263 C119.12205719 20.22923091 128.52032521 21.83146979 137.91837716 23.43498826 C141.90485075 24.11514358 145.89146577 24.79446094 149.87819695 25.47310472 C154.57117306 26.2721131 159.26375361 27.07340628 163.95604348 27.87643456 C165.67274158 28.16986518 167.38956953 28.46253729 169.10653901 28.7543757 C177.12813206 30.11829503 185.12621091 31.48212208 193.04638124 33.36450791 C193.09710677 52.58246131 192.97644359 71.78918762 192.67919374 91.00513291 C192.65962491 92.29330667 192.64005609 93.58148042 192.61989427 94.90868974 C192.52692667 101.01743781 192.43228917 107.12615441 192.33476007 113.23483133 C192.22416841 120.16412972 192.12040687 127.09348699 192.0223974 134.02297449 C191.9354682 140.13396405 191.83948169 146.24478358 191.74049973 152.35558915 C191.70036825 154.90826711 191.66284435 157.46098772 191.62823319 160.0137465 C191.32561374 182.02966158 190.24209888 203.90627388 186.79638124 225.67700791 C186.69000337 226.36008012 186.5836255 227.04315232 186.47402406 227.74692369 C178.9363306 275.96506681 164.6506702 323.04097393 142.06640077 366.39380479 C140.96792568 368.51608599 139.89574862 370.65062805 138.82372499 372.78638291 C126.93449819 396.21819031 112.08512105 418.35998062 95.04638124 438.36450791 C94.13728062 439.44763444 93.22844126 440.53098029 92.31981874 441.61450791 C80.1554111 456.0392696 67.38638901 470.07307267 53.04638124 482.36450791 C52.08474061 483.21528916 51.12309999 484.06607041 50.13231874 484.94263291 C35.37141494 497.93009479 19.48083262 509.41807082 2.98534608 520.09253526 C1.19818899 521.26492111 -0.55867098 522.47023763 -2.30908751 523.69653916 C-3.74188048 524.67687119 -3.74188048 524.67687119 -5.20361876 525.67700791 C-5.99252501 526.23001573 -6.78143126 526.78302354 -7.59424376 527.35278916 C-10.92796746 528.78231638 -12.47794785 528.42976763 -15.95361876 527.36450791 C-18.99797418 525.80418133 -21.84173195 523.98498574 -24.70361876 522.11450791 C-25.53417785 521.57946641 -26.36473693 521.04442491 -27.22046447 520.49317002 C-41.14502702 511.43186402 -54.37699914 501.54148693 -67.12012267 490.88941026 C-68.79548579 489.49602569 -70.48650902 488.12517818 -72.18408751 486.75903916 C-80.52417276 479.94288127 -88.1380388 472.39182992 -95.76611876 464.80200791 C-96.30227813 464.27111558 -96.83843749 463.74022325 -97.39084411 463.19324327 C-104.38693639 456.25033334 -110.80394353 449.08173198 -116.95361876 441.36450791 C-117.89998828 440.25083944 -118.85308094 439.14279704 -119.81690001 438.04419541 C-127.19420832 429.59617729 -133.67361852 420.65089126 -139.95361876 411.36450791 C-140.41768126 410.67872666 -140.88174376 409.99294541 -141.35986876 409.28638291 C-148.65892488 398.42074257 -155.25332213 387.18406538 -161.62256408 375.75220323 C-162.43740084 374.2905188 -163.25613124 372.83098591 -164.08154845 371.3752501 C-196.40802275 314.36310453 -213.58475787 244.63643194 -215.49658751 179.41528916 C-215.53678512 178.12375932 -215.57698272 176.83222947 -215.61839843 175.50156236 C-216.03337988 161.84701028 -216.28589779 148.18937225 -216.48604751 134.53011918 C-216.51668147 132.45132298 -216.54841843 130.37254562 -216.58029723 128.29376817 C-217.0602099 96.65086373 -217.05855773 65.01026596 -216.95361876 33.36450791 C-204.04486814 30.73001962 -191.12085938 28.27335051 -178.13818908 26.03296494 C-176.3582388 25.72387507 -174.57831721 25.41461995 -172.79842162 25.10521531 C-156.72296359 22.31450093 -140.64171865 19.5567996 -124.55927444 16.80666375 C-112.71134286 14.78031107 -100.8662387 12.73878665 -89.0243597 10.6773504 C-80.64518612 9.22004735 -72.26308045 7.78046592 -63.87865877 6.35367119 C-58.89197187 5.50457101 -53.90687807 4.64790813 -48.92484832 3.77186036 C-44.24283091 2.94891305 -39.55752694 2.1481764 -34.86893821 1.36356378 C-33.16172343 1.07404785 -31.4557883 0.77685023 -29.75144172 0.47090173 C-19.39085319 -1.38334441 -10.42116247 -1.85817881 0 0 Z M-34.52197814 32.41138291 C-90.39039373 33.25521046 -152.34446834 43.67844439 -201.95361876 70.36450791 C-203.03159728 70.86474473 -204.1095758 71.36498155 -205.22022033 71.88037705 C-208.25310766 74.63668543 -208.37986549 75.03223471 -208.65064025 78.89038682 C-208.65639482 80.79077451 -208.62857498 82.69143747 -208.57471251 84.59107041 C-208.56900237 85.6263588 -208.56329223 86.6616472 -208.55740905 87.72830796 C-208.53101583 91.14969909 -208.46145471 94.56876043 -208.39111876 97.98950791 C-208.36324778 100.37392118 -208.33780677 102.758364 -208.31470275 105.14282823 C-208.24648667 111.32837341 -208.1403149 117.51262757 -208.02185607 123.69739366 C-207.95571141 127.25204789 -207.89854021 130.80671047 -207.84522033 134.36157823 C-207.65486169 147.0062964 -207.40048929 159.64779564 -207.07715392 172.28980088 C-206.97225578 176.44079765 -206.89960797 180.59148859 -206.84033751 184.74341416 C-206.328806 211.11129769 -201.98533585 237.73492805 -195.95361876 263.36450791 C-195.79570861 264.06060166 -195.63779845 264.75669541 -195.47510314 265.47388291 C-194.41667756 270.13655069 -193.22204052 274.75539481 -191.95361876 279.36450791 C-191.69773986 280.30004502 -191.44186095 281.23558213 -191.17822814 282.19946885 C-176.5911991 334.90046204 -152.90548077 383.47845318 -118.95361876 426.36450791 C-118.49616271 426.94796983 -118.03870666 427.53143174 -117.5673883 428.13257432 C-102.91030539 446.79731398 -85.71355373 464.84259933 -66.95361876 479.36450791 C-65.09631472 480.94415983 -63.24234744 482.52774048 -61.39111876 484.11450791 C-48.36549213 494.95800637 -34.31916673 504.41244882 -19.83789611 513.19360948 C-18.25888676 514.174813 -16.73313512 515.24102121 -15.22315001 516.32544541 C-13.01205282 517.60893578 -13.01205282 517.60893578 -10.69971251 516.89575791 C-6.72094014 514.67715368 -2.85590868 512.31523444 0.98388124 509.86450791 C1.82781434 509.32769395 2.67174745 508.79087998 3.54125428 508.23779893 C37.05339323 486.75940558 68.4995883 459.77117901 93.04638124 428.36450791 C93.51334413 427.77540635 93.98030702 427.18630479 94.4614203 426.57935166 C108.22518666 409.18799404 120.34198237 390.78371366 131.04638124 371.36450791 C131.72048036 370.15190293 131.72048036 370.15190293 132.40819764 368.91480088 C149.46620017 338.03612515 162.26526222 303.81027549 170.04638124 269.36450791 C170.28018495 268.35114366 170.51398866 267.3377794 170.75487733 266.29370713 C179.6713553 227.36236784 182.2860981 189.18230595 183.11083436 149.40326524 C183.19130348 145.61383478 183.27946 141.82459987 183.36768937 138.03534341 C183.85983544 116.80858435 184.1955305 95.5976268 184.04638124 74.36450791 C160.90798894 61.42187384 136.66278196 53.02687724 111.04638124 46.36450791 C110.13066346 46.12393662 109.21494569 45.88336534 108.27147889 45.63550401 C63.43517073 34.07223286 17.28175101 31.50615067 -28.82056212 32.32739854 C-30.72095274 32.36046016 -32.62146393 32.38641721 -34.52197814 32.41138291 Z " fill="#28231F" transform="translate(612.9536187648773,101.63549208641052)"/>
<path d="M0 0 C2.10740678 0.37537798 4.21820866 0.71544372 6.33269143 1.04851556 C11.03720706 1.79746954 15.73185625 2.60020674 20.42699647 3.40552354 C22.20778442 3.70828297 23.98862401 4.01073874 25.76951051 4.31291795 C30.55469289 5.12579478 35.33912138 5.94302809 40.12339497 6.76123452 C45.15292328 7.62073261 50.18307845 8.47654762 55.21314454 9.3328917 C63.64845303 10.76953753 72.08328317 12.20896473 80.51781678 13.65015244 C90.25240111 15.31344837 99.98767877 16.97263584 109.72334737 18.62957263 C119.12205719 20.22923091 128.52032521 21.83146979 137.91837716 23.43498826 C141.90485075 24.11514358 145.89146577 24.79446094 149.87819695 25.47310472 C154.57117306 26.2721131 159.26375361 27.07340628 163.95604348 27.87643456 C165.67274158 28.16986518 167.38956953 28.46253729 169.10653901 28.7543757 C177.12813206 30.11829503 185.12621091 31.48212208 193.04638124 33.36450791 C193.07123488 37.38468046 193.08931362 41.40482279 193.10131288 45.42505479 C193.1063191 46.79062262 193.11312606 48.15618515 193.12182069 49.52173448 C193.13404955 51.4927391 193.13910989 53.46378402 193.14403749 55.43482041 C193.15189271 57.21010118 193.15189271 57.21010118 193.15990663 59.02124619 C193.05108301 62.22604324 192.65155606 65.21927403 192.04638124 68.36450791 C191.05380311 67.98939073 190.06122499 67.61427354 189.03856874 67.22778916 C181.3758354 64.3384527 173.70714728 61.47259465 165.97997499 58.75903916 C163.10444312 57.74915771 160.24831179 56.69463146 157.39403749 55.62622666 C139.64222168 49.09522921 121.39890653 44.49132569 103.07744813 39.87683702 C101.29139786 39.42631245 99.50644581 38.97143878 97.7216742 38.5158751 C77.19930829 33.29251419 56.44407565 29.59934484 35.42138124 27.11450791 C34.72670747 27.03151444 34.0320337 26.94852098 33.31630921 26.86301255 C-1.56939588 22.74526905 -36.20406978 23.46647233 -70.95361876 28.36450791 C-72.23220763 28.54110948 -73.5107965 28.71771104 -74.82813048 28.89966416 C-120.34281294 35.35988982 -166.45067168 47.89598959 -208.96875548 65.43482041 C-211.81824281 66.60339364 -213.83581889 67.36450791 -216.95361876 67.36450791 C-216.95361876 56.14450791 -216.95361876 44.92450791 -216.95361876 33.36450791 C-204.04003458 30.74231958 -191.12257658 28.27364685 -178.13818908 26.03296494 C-176.3582388 25.72387507 -174.57831721 25.41461995 -172.79842162 25.10521531 C-156.72296359 22.31450093 -140.64171865 19.5567996 -124.55927444 16.80666375 C-112.71134286 14.78031107 -100.8662387 12.73878665 -89.0243597 10.6773504 C-80.64518612 9.22004735 -72.26308045 7.78046592 -63.87865877 6.35367119 C-58.89197187 5.50457101 -53.90687807 4.64790813 -48.92484832 3.77186036 C-44.24283091 2.94891305 -39.55752694 2.1481764 -34.86893821 1.36356378 C-33.16172343 1.07404785 -31.4557883 0.77685023 -29.75144172 0.47090173 C-19.39085319 -1.38334441 -10.42116247 -1.85817881 0 0 Z " fill="#EB1C23" transform="translate(612.9536187648773,101.63549208641052)"/>
<path d="M0 0 C1.60455479 0.30632393 3.20926531 0.6118331 4.81411743 0.91659546 C9.15598182 1.74347789 13.49559822 2.58164652 17.83490038 3.4218564 C22.41504603 4.30662213 26.99722485 5.18073148 31.57919312 6.05599976 C40.28281616 7.72024053 48.98463053 9.39374465 57.68581045 11.07070673 C68.42496159 13.14000685 79.16630367 15.1978406 89.90771484 17.25537109 C100.92825941 19.36661971 111.94863113 21.47872655 122.96743774 23.59902954 C143.2849626 27.50765653 163.61093119 31.36635269 183.95068359 35.15771484 C183.95068359 39.77771484 183.95068359 44.39771484 183.95068359 49.15771484 C155.54073226 44.11121203 127.16059522 38.91563194 98.79680538 33.61679029 C94.64959158 32.84222999 90.50218376 32.06871 86.35479736 31.29507446 C72.67631252 28.74311552 58.99789507 26.19084001 45.32177734 23.6262207 C37.64679501 22.18699879 29.97087777 20.75288234 22.29385102 19.32460457 C18.27278323 18.57628572 14.25223278 17.82541011 10.23284531 17.06811333 C6.49219194 16.36334765 2.75035005 15.66528404 -0.99250603 14.97231483 C-2.35710927 14.71843775 -3.72126073 14.46211752 -5.08489799 14.20310211 C-6.95240546 13.84875606 -8.82177049 13.50424295 -10.69119263 13.16014099 C-11.73240328 12.96534873 -12.77361393 12.77055647 -13.84637642 12.56986141 C-20.70729507 11.687015 -26.86401882 12.27708865 -33.59739685 13.56237793 C-34.42023716 13.71346937 -35.24307746 13.8645608 -36.09085232 14.02023077 C-38.82888023 14.52477233 -41.56489485 15.0394756 -44.30102539 15.55419922 C-46.27088677 15.91934437 -48.24086577 16.28385543 -50.21095276 16.64778137 C-55.54628533 17.63518268 -60.87994515 18.63136323 -66.21335483 19.62909126 C-71.79328864 20.67133188 -77.37475398 21.70530376 -82.95606995 22.7401123 C-93.52025346 24.70003718 -104.08309393 26.66710197 -114.64544588 28.63687086 C-129.01590739 31.31647128 -143.38821166 33.98614685 -157.76049817 36.65593815 C-161.20451934 37.29570048 -164.64853426 37.93549648 -168.09254456 38.57531738 C-169.20842471 38.78261616 -170.32430486 38.98991494 -171.47399956 39.2034955 C-178.12589264 40.43946593 -184.77744949 41.67722718 -191.42870605 42.91661835 C-195.55314717 43.68512503 -199.67770229 44.45301879 -203.80226707 45.22086143 C-205.72246999 45.57852489 -207.64261342 45.93650791 -209.56269455 46.2948246 C-212.17169047 46.7816901 -214.78088179 47.26749457 -217.39012146 47.75305176 C-218.15994132 47.89701684 -218.92976118 48.04098193 -219.72290891 48.1893096 C-224.93542255 49.15771484 -224.93542255 49.15771484 -226.04931641 49.15771484 C-226.04931641 44.53771484 -226.04931641 39.91771484 -226.04931641 35.15771484 C-206.3219446 31.38308403 -186.59434572 27.6096425 -166.86646557 23.83766937 C-157.70114922 22.08523058 -148.53590806 20.33240039 -139.37084961 18.57861328 C-120.40049538 14.94872751 -101.42924963 11.32362893 -82.45528984 7.71263123 C-74.30653377 6.16151612 -66.15911867 4.6038213 -58.01377773 3.03484344 C-53.94004658 2.25166063 -49.86500961 1.47548284 -45.78945351 0.70185852 C-44.0350583 0.36727349 -42.28124883 0.02959801 -40.52812767 -0.31159973 C-38.21288893 -0.76188511 -35.8958076 -1.20100577 -33.57788086 -1.63720703 C-32.345522 -1.87370972 -31.11316315 -2.1102124 -29.84346008 -2.35388184 C-19.55460543 -3.67832055 -10.09327274 -1.9712506 0 0 Z " fill="#009A4E" transform="translate(622.04931640625,76.84228515625)"/>
<path d="M0 0 C0 0.66 0 1.32 0 2 C-2.51758117 2.98829417 -5.03854724 3.9657226 -7.5625 4.9375 C-8.26697266 5.21529297 -8.97144531 5.49308594 -9.69726562 5.77929688 C-16.80482306 8.49785571 -23.44136986 9.13260755 -31 9 C-31.38285156 9.76570313 -31.38285156 9.76570313 -31.7734375 10.546875 C-34.515625 16.03125 -37.2578125 21.515625 -40 27 C-36.7 26.34 -33.4 25.68 -30 25 C-32.53846154 30.07692308 -32.53846154 30.07692308 -36 32 C-39.25 32.1875 -39.25 32.1875 -42 32 C-42.14695312 32.54527344 -42.29390625 33.09054687 -42.4453125 33.65234375 C-45.63962496 44.39184253 -51.54422923 52.34579013 -61.3125 57.875 C-66.74755803 59.5331533 -71.90052883 60.29188936 -77.27734375 58.05078125 C-81.98661954 55.2708177 -85.52466905 51.95066191 -88 47 C-88.50030319 41.90674948 -88.766785 37.47458654 -86.375 32.875 C-83.47743709 30.58745033 -81.68635554 30 -78 30 C-76.0625 31.125 -76.0625 31.125 -75 33 C-75.24453124 36.34192692 -75.60543557 37.60543557 -78 40 C-81.125 39.625 -81.125 39.625 -84 39 C-82.86766925 46.46959017 -82.86766925 46.46959017 -78 52 C-74.18727185 53.90636407 -70.13514162 53.70333787 -66 53 C-57.70788818 48.75211114 -53.81260889 39.43782666 -51 31 C-52.98 31.66 -54.96 32.32 -57 33 C-55.84826645 30.53199953 -54.95216435 28.95216435 -53 27 C-52.37222656 26.92523437 -51.74445312 26.85046875 -51.09765625 26.7734375 C-47.68832078 25.51636409 -46.99822382 22.78834627 -45.4375 19.625 C-41.84155151 12.40106784 -41.84155151 12.40106784 -39 10 C-50.76104821 6.26880782 -50.76104821 6.26880782 -62.5 8.1875 C-64.34521809 10.41713852 -64.69209738 12.15190074 -65 15 C-61.53058454 14.54177532 -58.32604951 14.10868317 -55 13 C-55.92260644 16.10331257 -56.70497271 17.74711947 -59.1875 19.875 C-62.88852126 21.35540851 -65.18069394 21.0088733 -69 20 C-71.38313638 16.42529543 -71.64837918 15.21446465 -71 11 C-68.26296097 6.26049492 -64.62648273 3.04840687 -59.390625 1.4296875 C-52.50444605 0.1919756 -45.56734835 0.55766907 -38.75 2 C-27.63437796 4.25229076 -16.44373542 3.63778082 -5.5390625 0.65625 C-3 0 -3 0 0 0 Z " fill="#2E291E" transform="translate(711,487)"/>
<path d="M0 0 C0.92683594 -0.00515625 1.85367188 -0.0103125 2.80859375 -0.015625 C5.73305794 0.26645098 7.87817687 1.09569579 10.5625 2.25 C13.71002098 2.47482293 15.53982714 2.25755762 18.5625 1.25 C19.09501766 3.16345327 19.61309483 5.0809295 20.125 7 C20.41503906 8.06734375 20.70507812 9.1346875 21.00390625 10.234375 C21.53348494 13.09335927 21.54620862 14.56597383 20.5625 17.25 C19.89154297 16.43595703 19.89154297 16.43595703 19.20703125 15.60546875 C14.88808041 10.49455678 11.30962461 6.63622742 4.5625 5.25 C3.00199024 5.16082801 1.43804692 5.1198329 -0.125 5.125 C-0.91261719 5.12242187 -1.70023438 5.11984375 -2.51171875 5.1171875 C-4.44514914 5.03872222 -4.44514914 5.03872222 -5.4375 6.25 C-5.93885199 8.62221956 -5.93885199 8.62221956 -5.4375 11.25 C-0.9305512 15.58937145 4.58799448 17.70052117 10.23632812 20.16210938 C15.66371641 22.60805236 20.39391951 25.1788889 23.9140625 30.1640625 C25.78577815 36.1851237 25.54939937 43.16654577 22.875 48.8125 C16.95243657 55.05520199 10.78344159 58.19831169 2.125 58.75 C-4.10031868 58.49924286 -9.54659362 55.80385003 -14.1796875 51.7109375 C-17.53861952 47.7067869 -18.2096861 43.78911373 -17.91796875 38.6328125 C-17.08092726 34.48163115 -15.78476743 32.88508287 -12.4375 30.25 C-8.625 30.375 -8.625 30.375 -5.4375 31.25 C-4.75 33.5625 -4.75 33.5625 -4.4375 36.25 C-5.5625 38.0625 -5.5625 38.0625 -7.4375 39.25 C-10.125 39.4375 -10.125 39.4375 -12.4375 39.25 C-12.18135063 43.60453922 -11.86472153 45.74609768 -9 49.125 C-4.92401149 52.50508803 -2.46814733 52.464135 2.8125 52.5625 C4.76929688 52.61857422 4.76929688 52.61857422 6.765625 52.67578125 C11.11304634 52.18826178 13.18897353 50.97009567 16.5625 48.25 C18.90828248 45.05120571 19.03925156 42.14347111 18.5625 38.25 C15.39341565 33.00172803 11.26118106 31.48532769 5.8125 29.3125 C-10.48896273 22.44222643 -10.48896273 22.44222643 -13.4375 15.25 C-13.91334595 10.96738649 -13.71517535 8.77559976 -11.6875 4.9375 C-8.16233025 0.72688058 -5.42069778 -0.03007322 0 0 Z " fill="#2D281E" transform="translate(544.4375,487.75)"/>
<path d="M0 0 C3.19050481 0.30804874 4.64784614 0.63925702 6.921875 2.96875 C7.52515625 3.8040625 8.1284375 4.639375 8.75 5.5 C12.75594181 10.80557943 17.20645246 15.40618361 22 20 C17.84119207 21.38626931 14.8764289 19.87667793 10.875 18.5625 C3.59160925 16.29851549 -2.32198663 14.80561361 -9.9375 16.75 C-12.34378312 18.20835341 -13.04254012 19.38874578 -14 22 C-14.66 21.34 -15.32 20.68 -16 20 C-15.34773438 19.31035156 -14.69546875 18.62070312 -14.0234375 17.91015625 C-8.75100765 12.2411277 -4.03686861 6.64606417 0 0 Z " fill="#F4E701" transform="translate(509,272)"/>
<path d="M0 0 C3.10572794 1.36794374 5.08035376 2.88795085 7.36328125 5.38671875 C7.99621094 6.0712915 8.62914062 6.75586426 9.28125 7.46118164 C9.9515625 8.1958667 10.621875 8.93055176 11.3125 9.6875 C19.00719888 18.00230738 26.93816028 26.04240821 35 34 C34.01 34.495 34.01 34.495 33 35 C28.97800157 32.02807998 24.98008365 29.02767069 21 26 C20.32710937 25.48953125 19.65421875 24.9790625 18.9609375 24.453125 C11.39779565 18.35959839 5.32363464 10.07131703 0 2 C0 1.34 0 0.68 0 0 Z " fill="#E6E5E5" transform="translate(558,332)"/>
<path d="M0 0 C2 1 2 1 2.609375 2.578125 C3.93361625 10.78842074 4.68932993 21.81072928 0 29 C-3.76696472 34.01446602 -6.91705561 37.98648182 -13 40 C-12.41488536 36.4418704 -11.08752665 34.71221155 -8.625 32.125 C-3.57093947 26.5531054 -1.05799435 21.15988693 -0.68359375 13.671875 C-0.64169922 12.87265625 -0.59980469 12.0734375 -0.55664062 11.25 C-0.51732422 10.425 -0.47800781 9.6 -0.4375 8.75 C-0.39431641 7.90953125 -0.35113281 7.0690625 -0.30664062 6.203125 C-0.20091457 4.13559329 -0.09998705 2.06781719 0 0 Z " fill="#EEEDED" transform="translate(715,340)"/>
<path d="M0 0 C0.99 0 1.98 0 3 0 C3.07476563 0.59425781 3.14953125 1.18851562 3.2265625 1.80078125 C5.15535885 13.95976216 11.55418387 22.34773059 20 31 C15.73826117 31 14.20771888 29.05510142 11.1328125 26.26953125 C6.12233294 20.93786711 0.4602513 13.27447986 -0.1953125 5.76171875 C-0.13020833 3.84114583 -0.06510417 1.92057292 0 0 Z " fill="#E6E6E6" transform="translate(611,303)"/>
<path d="M0 0 C0.33 0 0.66 0 1 0 C1.72338822 9.94658804 -2.17211232 16.38645153 -8.21875 24.0546875 C-10.00242761 26.0026512 -11.83789841 27.49221863 -14 29 C-12.48031622 24.82478631 -10.38807911 21.11602067 -8.125 17.3125 C-4.85467507 11.72249161 -2.14618311 6.12791758 0 0 Z " fill="#E9E8E8" transform="translate(609,223)"/>
<path d="M0 0 C1.62890625 1.10546875 1.62890625 1.10546875 3.87890625 3.10546875 C0.87890625 4.10546875 0.87890625 4.10546875 -2.12109375 3.10546875 C-4.85974662 3.03495761 -7.57136963 3.0118911 -10.30859375 3.04296875 C-11.43297852 3.04973633 -11.43297852 3.04973633 -12.58007812 3.05664062 C-14.42711758 3.06840521 -16.27411588 3.0863401 -18.12109375 3.10546875 C-17.79109375 2.11546875 -17.46109375 1.12546875 -17.12109375 0.10546875 C-11.90012717 -1.63485344 -5.15777509 -2.17519428 0 0 Z " fill="#F3F3F3" transform="translate(587.12109375,265.89453125)"/>
<path d="M0 0 C5.28818061 1.81309049 8.88592291 4.32888436 12 9 C12 9.99 12 10.98 12 12 C8.52224821 10.48446596 6.0442016 8.4226544 3.25 5.875 C2.45078125 5.15054687 1.6515625 4.42609375 0.828125 3.6796875 C0.22484375 3.12539063 -0.3784375 2.57109375 -1 2 C-0.67 1.34 -0.34 0.68 0 0 Z " fill="#E4D903" transform="translate(598,382)"/>
<path d="M0 0 C2.33524782 2.25740623 4.18705073 4.2805761 6 7 C6 8.32 6 9.64 6 11 C0.25 9.125 0.25 9.125 -2 8 C-1.47731534 5.23723823 -0.89130413 2.6739124 0 0 Z " fill="#322D1D" transform="translate(596,150)"/>
<path d="M0 0 C-0.66 4.95 -1.32 9.9 -2 15 C-2.66 15 -3.32 15 -4 15 C-5.233092 11.30072399 -5.4492913 7.84996167 -5 4 C-2.8 0 -2.8 0 0 0 Z " fill="#C8C7C7" transform="translate(622,407)"/>
<path d="M0 0 C-2.81448461 6.45166472 -8.75450362 11.87725181 -15 15 C-13.387672 10.96918 -10.53765404 8.24055863 -7.5 5.25 C-7.00113281 4.74339844 -6.50226562 4.23679687 -5.98828125 3.71484375 C-2.25341139 0 -2.25341139 0 0 0 Z " fill="#DADADA" transform="translate(629,472)"/>
<path d="M0 0 C6.6 0.33 13.2 0.66 20 1 C20 1.66 20 2.32 20 3 C17.22858283 3.08089542 14.45952181 3.14044062 11.6875 3.1875 C10.90181641 3.21263672 10.11613281 3.23777344 9.30664062 3.26367188 C8.54931641 3.27333984 7.79199219 3.28300781 7.01171875 3.29296875 C6.31522217 3.3086792 5.61872559 3.32438965 4.90112305 3.34057617 C3 3 3 3 0 0 Z " fill="#E3E2E2" transform="translate(574,443)"/>
<path d="M0 0 C0 0.66 0 1.32 0 2 C-0.78375 2.433125 -1.5675 2.86625 -2.375 3.3125 C-5.41686215 5.26798281 -5.98981901 6.60211849 -7 10 C-7.66 10 -8.32 10 -9 10 C-9.32523926 6.42236811 -9.42956587 4.60457419 -7.3125 1.625 C-4.61209763 -0.27258004 -3.22939919 -0.35882213 0 0 Z " fill="#F4F4F4" transform="translate(633,357)"/>
<path d="M0 0 C0.99 0 1.98 0 3 0 C3.33 4.95 3.66 9.9 4 15 C-0.12535304 9.49952927 -0.10737875 6.55010405 0 0 Z " fill="#C9C8C8" transform="translate(497,314)"/>
<path d="M0 0 C0.33 1.98 0.66 3.96 1 6 C-0.11375 5.67 -1.2275 5.34 -2.375 5 C-5.69459717 3.911357 -5.69459717 3.911357 -8 4 C-8 3.01 -8 2.02 -8 1 C-5.29120665 -0.35439668 -2.99066732 -0.06501451 0 0 Z " fill="#EDEDED" transform="translate(601,179)"/>
<path d="M0 0 C0.99 0.33 1.98 0.66 3 1 C2.85904936 2.6254308 2.71207913 4.25034051 2.5625 5.875 C2.48128906 6.77992188 2.40007813 7.68484375 2.31640625 8.6171875 C2 11 2 11 1 13 C0.34 13 -0.32 13 -1 13 C-0.67 8.71 -0.34 4.42 0 0 Z " fill="#F8F8F8" transform="translate(669,387)"/>
<path d="M0 0 C0.66 0 1.32 0 2 0 C1.65986985 5.44208234 -1.70296528 8.93668198 -5 13 C-6 10 -6 10 -4.85546875 7.51953125 C-4.30503906 6.62621094 -3.75460937 5.73289062 -3.1875 4.8125 C-2.37345703 3.46091797 -2.37345703 3.46091797 -1.54296875 2.08203125 C-1.03378906 1.39496094 -0.52460938 0.70789063 0 0 Z " fill="#DFDEDE" transform="translate(500,266)"/>
<path d="M0 0 C6.03280791 1.6166348 9.950809 3.16709462 14 8 C9.46139912 7.46604696 6.70912117 5.5802582 3 3 C2.01 2.67 1.02 2.34 0 2 C0 1.34 0 0.68 0 0 Z " fill="#EBEAEA" transform="translate(515,305)"/>
<path d="M0 0 C0.99 0.495 0.99 0.495 2 1 C2.4140625 3.06640625 2.4140625 3.06640625 2.625 5.5625 C2.69976563 6.38878906 2.77453125 7.21507812 2.8515625 8.06640625 C2.92503906 9.02353516 2.92503906 9.02353516 3 10 C2.34 10 1.68 10 1 10 C1 11.65 1 13.3 1 15 C0.67 15 0.34 15 0 15 C0 10.05 0 5.1 0 0 Z " fill="#D2D1D1" transform="translate(715,340)"/>
<path d="M0 0 C0.66 0.33 1.32 0.66 2 1 C-0.97 5.29 -3.94 9.58 -7 14 C-7.33 13.34 -7.66 12.68 -8 12 C-7.109375 9.94140625 -7.109375 9.94140625 -5.75 7.5625 C-5.09257813 6.38880859 -5.09257813 6.38880859 -4.421875 5.19140625 C-3.10696298 3.16485229 -1.77572107 1.62426251 0 0 Z " fill="#D9D8D8" transform="translate(546,280)"/>
<path d="M0 0 C0 3.60053261 -1.17763629 5.08812377 -3.48828125 7.76953125 C-5 9 -5 9 -8.3125 9.375 C-9.199375 9.25125 -10.08625 9.1275 -11 9 C-8.37386366 6.08207073 -5.26167448 4.15131721 -2 2 C-1.34 1.34 -0.68 0.68 0 0 Z " fill="#D4D4D4" transform="translate(603,195)"/>
<path d="M0 0 C4.05606165 0.46800711 7.46588679 0.87953208 11 3 C10.67 3.99 10.34 4.98 10 6 C5.05 4.02 5.05 4.02 0 2 C0 1.34 0 0.68 0 0 Z " fill="#E9DD03" transform="translate(641,209)"/>
<path d="M0 0 C2.97 0 5.94 0 9 0 C9 0.66 9 1.32 9 2 C5.7 2.66 2.4 3.32 -1 4 C-0.67 2.68 -0.34 1.36 0 0 Z " fill="#D9D8D8" transform="translate(628,185)"/>
<path d="M0 0 C0 3 0 3 -1.5 4.625 C-5.0002159 6.55011875 -8.02798992 6.66899916 -12 7 C-9.76425178 4.76425178 -7.71033371 3.75631642 -4.875 2.375 C-3.96492187 1.92898437 -3.05484375 1.48296875 -2.1171875 1.0234375 C-1.06917969 0.51683594 -1.06917969 0.51683594 0 0 Z " fill="#E3E3E3" transform="translate(585,178)"/>
<path d="M0 0 C0 0.99 0 1.98 0 3 C-3.90748231 6.19703098 -7.07008655 6.28999491 -12 6 C-9.68118495 3.32098068 -7.68185532 2.33795597 -4.3125 1.3125 C-3.50425781 1.06113281 -2.69601562 0.80976563 -1.86328125 0.55078125 C-1.24839844 0.36902344 -0.63351562 0.18726563 0 0 Z " fill="#504A19" transform="translate(663,281)"/>
<path d="M0 0 C1.66362417 0.34820041 3.32995171 0.68404492 5 1 C5 1.33 5 1.66 5 2 C-0.94 2.495 -0.94 2.495 -7 3 C-6.67 2.01 -6.34 1.02 -6 0 C-3 -1 -3 -1 0 0 Z " fill="#D9D8D8" transform="translate(576,266)"/>
<path d="M0 0 C1.875 0.25 1.875 0.25 4 1 C5.25 3.0625 5.25 3.0625 6 5 C3.03 4.505 3.03 4.505 0 4 C0 2.68 0 1.36 0 0 Z " fill="#CECDCD" transform="translate(632,223)"/>
<path d="M0 0 C6.75 0.875 6.75 0.875 9 2 C9 1.34 9 0.68 9 0 C10.32 0.33 11.64 0.66 13 1 C12.67 1.66 12.34 2.32 12 3 C7.45194365 3.17835515 4.1205746 2.99785435 0 1 C0 0.67 0 0.34 0 0 Z " fill="#E8DC03" transform="translate(593,159)"/>
<path d="M0 0 C0.33 0.99 0.66 1.98 1 3 C-1.31 4.98 -3.62 6.96 -6 9 C-4.68775452 5.06326356 -3.08089673 2.77280706 0 0 Z " fill="#E2E2E2" transform="translate(601,243)"/>
<path d="M0 0 C0.66 0 1.32 0 2 0 C2.125 2.875 2.125 2.875 2 6 C1.34 6.66 0.68 7.32 0 8 C-0.66 8 -1.32 8 -2 8 C-1.34 5.36 -0.68 2.72 0 0 Z " fill="#E0D404" transform="translate(624,379)"/>
<path d="M0 0 C3.3 0.33 6.6 0.66 10 1 C10 1.66 10 2.32 10 3 C7.25 3.75 7.25 3.75 4 4 C1.625 2.0625 1.625 2.0625 0 0 Z " fill="#D1C506" transform="translate(640,255)"/>
<path d="M0 0 C1.32 0 2.64 0 4 0 C3.34 1.98 2.68 3.96 2 6 C1.34 6 0.68 6 0 6 C-1.125 2.25 -1.125 2.25 0 0 Z " fill="#8E8C83" transform="translate(478,298)"/>
<path d="M0 0 C2.99324263 1.0975223 3.84610901 1.67682892 5.25 4.625 C5.4975 5.40875 5.745 6.1925 6 7 C3.00675737 5.9024777 2.15389099 5.32317108 0.75 2.375 C0.5025 1.59125 0.255 0.8075 0 0 Z " fill="#DADADA" transform="translate(520,273)"/>
<path d="M0 0 C0 0.99 0 1.98 0 3 C-1 4 -1 4 -4.5625 4.0625 C-5.696875 4.041875 -6.83125 4.02125 -8 4 C-7.67 3.34 -7.34 2.68 -7 2 C-4.6859378 1.26924352 -2.35171131 0.59861742 0 0 Z " fill="#C0BFBF" transform="translate(612,205)"/>
<path d="M0 0 C0 0.66 0 1.32 0 2 C-4.455 3.485 -4.455 3.485 -9 5 C-8 2 -8 2 -6.1875 0.8125 C-4 0 -4 0 0 0 Z " fill="#E8DC03" transform="translate(563,201)"/>
<path d="M0 0 C0.99 0.33 1.98 0.66 3 1 C2 4 2 4 -0.0625 5.1875 C-0.701875 5.455625 -1.34125 5.72375 -2 6 C-1.125 1.125 -1.125 1.125 0 0 Z " fill="#F2F1F1" transform="translate(554,192)"/>
<path d="M0 0 C0.66 0 1.32 0 2 0 C1.34 2.31 0.68 4.62 0 7 C-0.66 7 -1.32 7 -2 7 C-2.125 4.625 -2.125 4.625 -2 2 C-1.34 1.34 -0.68 0.68 0 0 Z " fill="#ECECEC" transform="translate(620,407)"/>
<path d="M0 0 C0.33 0.99 0.66 1.98 1 3 C-1.05233685 5.2477975 -2.00667261 6.0022242 -5 7 C-3.75023244 3.34683329 -3.32901247 2.21934164 0 0 Z " fill="#393528" transform="translate(497,268)"/>
</svg>
