<?xml version="1.0" encoding="UTF-8"?>
<svg version="1.1" xmlns="http://www.w3.org/2000/svg" width="4120" height="4120">
<path d="M0 0 C3.05613735 0.27217195 6.11313135 0.53286295 9.17034912 0.79260254 C81.35996293 6.99446173 152.5809066 18.7499049 222.87982178 36.25646973 C223.67330017 36.4530719 224.46677856 36.64967407 225.28430176 36.85223389 C294.56871724 54.03246455 362.62153529 77.35436688 427.84820557 106.35333252 C429.87825234 107.25577204 431.9097248 108.15494268 433.94134521 109.05383301 C450.53190864 116.40843841 466.93447832 124.13375131 483.25482178 132.06896973 C484.05118042 132.45548706 484.84753906 132.84200439 485.66802979 133.24023438 C502.38092721 141.36565517 518.80445001 150.01634865 535.06732178 159.00646973 C535.67545715 159.3424115 536.28359253 159.67835327 536.91015625 160.0244751 C609.69410715 200.26916494 679.63521585 247.27129629 743.04852295 301.17492676 C746.41832273 304.03514706 749.82013188 306.84906515 753.25482178 309.63146973 C763.28347512 317.80890363 772.99180615 326.34616561 782.46185303 335.16247559 C785.18782616 337.6999416 787.93150863 340.20281326 790.75482178 342.63146973 C794.73779765 346.07941899 798.58867456 349.66554985 802.44232178 353.25646973 C803.06800049 353.83832031 803.6936792 354.4201709 804.33831787 355.01965332 C807.39772355 357.8796549 810.40616313 360.77217032 813.34466553 363.75646973 C815.62849556 366.06023896 817.96698242 368.22248649 820.43841553 370.32287598 C826.26276573 375.35306039 831.6322869 380.86010842 837.06170654 386.3079834 C838.93811653 388.18975247 840.81981147 390.06611711 842.7020874 391.9420166 C848.13843532 397.37566412 853.5151902 402.79867134 858.49871826 408.65710449 C860.50582238 410.98139989 862.68059555 413.11511788 864.87982178 415.25646973 C868.36415583 418.70423655 871.66194994 422.21560907 874.84466553 425.94006348 C877.02794732 428.42506559 879.27897561 430.83513628 881.54315186 433.24621582 C886.80610324 438.85072232 891.82981367 444.54015923 896.63763428 450.54553223 C899.11890932 453.54554072 901.72887635 456.40760406 904.37982178 459.25646973 C908.55616056 463.75566583 912.52499507 468.37397915 916.37591553 473.15490723 C918.87275912 476.24772129 921.40173922 479.31155201 923.93719482 482.37268066 C930.21428297 489.95746037 936.38364224 497.61317357 942.42425537 505.3873291 C944.00400267 507.41593449 945.59196678 509.43794399 947.18060303 511.45959473 C959.36960487 527.00305369 971.03802419 542.90094671 982.35687256 559.08752441 C983.89524981 561.27844193 985.44667498 563.45959567 987.00091553 565.63928223 C1008.44820711 595.82970478 1028.29105598 627.23749242 1046.87982178 659.25646973 C1047.48906494 660.30222168 1048.09830811 661.34797363 1048.72601318 662.42541504 C1073.67728383 705.33475939 1096.44480576 749.6046955 1116.11419678 795.18273926 C1117.79037026 799.0619328 1119.50346526 802.92394979 1121.22357178 806.78381348 C1134.75341074 837.29523044 1146.32977328 868.60891488 1157.16094971 900.16815186 C1157.87551522 902.2439592 1158.59602947 904.31760874 1159.31829834 906.39074707 C1194.44564713 1007.37295324 1216.02476626 1113.61809696 1226.12982178 1229.38146973 C1226.24565613 1230.75725189 1226.24565613 1230.75725189 1226.36383057 1232.16082764 C1226.9464783 1239.18800382 1227.43487715 1246.21929575 1227.87982178 1253.25646973 C1227.92242001 1253.92484737 1227.96501823 1254.59322502 1228.00890732 1255.28185654 C1229.7648548 1283.06029851 1230.24690404 1310.78057299 1230.19787979 1338.61036301 C1230.19222546 1341.87457071 1230.18941362 1345.13877319 1230.1867981 1348.40298462 C1230.1483469 1381.44483862 1229.63508826 1414.31260993 1226.87982178 1447.25646973 C1226.79260864 1448.32127563 1226.70539551 1449.38608154 1226.61553955 1450.4831543 C1217.81901195 1557.44371597 1197.22312681 1662.80035547 1064.35882568 1995.62365723 C1062.68140602 1998.60967467 1061.02064614 2001.60468201 1059.36029053 2004.60021973 C1053.45094083 2015.23909831 1047.48840409 2025.8299996 1041.13031006 2036.2076416 C1039.67118109 2038.59831133 1038.22668096 2040.99756743 1036.78216553 2043.39709473 C1012.0523318 2084.38954012 985.30575189 2124.4643438 955.87982178 2162.25646973 C954.64676542 2163.85944299 953.41677393 2165.46473586 952.18695068 2167.07019043 C941.42510793 2181.11040545 930.43133118 2194.93628461 918.97015381 2208.41418457 C916.02001581 2211.88888333 913.12313949 2215.40104768 910.25482178 2218.94396973 C906.68456308 2223.3337362 902.95099673 2227.53474666 899.13763428 2231.71350098 C896.75749865 2234.39424197 894.50250337 2237.15151107 892.25482178 2239.94396973 C889.23140343 2243.68125074 886.12482891 2247.14673444 882.66131592 2250.47546387 C880.89220527 2252.24408963 879.25702428 2254.07523099 877.62591553 2255.97131348 C874.02818684 2260.11060001 870.32357153 2264.13604332 866.56732178 2268.13146973 C865.91505615 2268.82691895 865.26279053 2269.52236816 864.59075928 2270.2388916 C860.22636763 2274.87444367 855.79168483 2279.41451574 851.22357178 2283.85021973 C849.28361832 2285.84190527 847.4699898 2287.86654306 845.65716553 2289.97131348 C841.61796641 2294.62425399 837.30873253 2298.97466739 832.94232178 2303.31896973 C832.18241943 2304.08273926 831.42251709 2304.84650879 830.6395874 2305.63342285 C826.4719269 2309.79396523 822.21063715 2313.76404156 817.74871826 2317.60583496 C814.82289947 2320.18995787 812.10687346 2322.96589062 809.37982178 2325.75646973 C805.42965504 2329.75115332 801.45386105 2333.6148917 797.16888428 2337.25256348 C793.83136798 2340.17431409 790.61366125 2343.22088535 787.37982178 2346.25646973 C782.2928414 2351.02199795 777.1832925 2355.73149012 771.87982178 2360.25646973 C770.84705121 2361.142934 769.8145225 2362.02968007 768.78216553 2362.91662598 C766.39240844 2364.96865232 764.00019679 2367.01776988 761.60638428 2369.06506348 C759.13807803 2371.17677907 756.67478868 2373.29411613 754.21575928 2375.41662598 C748.42678264 2380.40863781 742.61584607 2385.34409271 736.61419678 2390.08068848 C734.48451473 2391.7753069 732.37326976 2393.48602645 730.27044678 2395.21350098 C722.97353632 2401.20274728 715.60347191 2407.0433532 708.01971436 2412.66564941 C703.70105575 2415.87226785 699.44393128 2419.1460411 695.21502686 2422.47009277 C687.40902663 2428.60571461 679.48027104 2434.4885715 671.32781982 2440.15490723 C668.53064391 2442.10098022 665.74221231 2444.0581475 662.96551514 2446.0333252 C652.76368831 2453.28990386 642.43277851 2460.32950533 632.00482178 2467.25646973 C631.21623779 2467.78104767 630.42765381 2468.30562561 629.61517334 2468.84609985 C618.13617109 2476.47928242 606.63039343 2484.04599594 594.87982178 2491.25646973 C593.86114014 2491.88537109 592.8424585 2492.51427246 591.79290771 2493.16223145 C576.26982954 2502.73501993 560.59435847 2511.94455402 544.6161499 2520.7442627 C542.16014401 2522.10155218 539.71310367 2523.47300258 537.27044678 2524.85412598 C524.64111272 2531.98215425 511.77473075 2538.65151245 498.86010742 2545.24487305 C496.81484942 2546.2896598 494.7709152 2547.33700853 492.72698975 2548.38439941 C471.77138901 2559.10729278 450.5875636 2569.11669751 428.98773193 2578.47375488 C425.24001837 2580.09728041 421.50276746 2581.74340531 417.76654053 2583.39318848 C387.08932515 2596.85028991 355.59779746 2608.502844 323.87982178 2619.25646973 C323.07369446 2619.52997253 322.26756714 2619.80347534 321.43701172 2620.08526611 C293.84064941 2629.42778113 266.0472558 2637.81218292 237.87982178 2645.25646973 C236.54527954 2645.60968292 236.54527954 2645.60968292 235.18377686 2645.97003174 C159.7745949 2665.87375448 82.78385718 2678.70556839 5.05511475 2684.99932861 C2.98492564 2685.16697637 0.91492616 2685.33698767 -1.15484619 2685.50970459 C-33.18499139 2688.17340385 -65.18162289 2688.53918744 -97.30300522 2688.56609726 C-100.3726533 2688.56891463 -103.44228843 2688.57443442 -106.51193237 2688.58010864 C-141.61902603 2688.6271066 -176.63383784 2687.53779863 -211.62017822 2684.50646973 C-212.59024811 2684.42410065 -213.56031799 2684.34173157 -214.55978394 2684.25686646 C-319.78699612 2675.24973317 -423.2237445 2653.41583712 -575.12017822 2601.25646973 C-575.85377563 2600.967901 -576.58737305 2600.67933228 -577.34320068 2600.38201904 C-631.39445271 2579.08775153 -684.93204534 2555.2284596 -735.57672119 2526.6842041 C-738.37511586 2525.11336401 -741.18629959 2523.56701102 -743.99908447 2522.02209473 C-758.83261147 2513.84259782 -773.35416337 2505.20976888 -787.77008057 2496.32189941 C-789.91467471 2494.99969664 -792.06070179 2493.67981354 -794.20855713 2492.36291504 C-811.47630015 2481.76945212 -828.33338841 2470.59033883 -845.12017822 2459.25646973 C-845.97676025 2458.67848633 -846.83334229 2458.10050293 -847.71588135 2457.50500488 C-869.77037946 2442.58493431 -891.10292065 2426.59725311 -912.12017822 2410.25646973 C-912.65739502 2409.84010254 -913.19461182 2409.42373535 -913.74810791 2408.99475098 C-923.05124856 2401.77763778 -932.1537026 2394.33129038 -941.222229 2386.8223877 C-943.71720543 2384.76388772 -946.23149898 2382.72956436 -948.74517822 2380.69396973 C-958.3808173 2372.81826473 -967.72160019 2364.5787667 -976.94049072 2356.22131348 C-978.91857342 2354.43820309 -980.91873622 2352.68632204 -982.93267822 2350.94396973 C-987.10319914 2347.31266768 -991.15330499 2343.55523075 -995.20587158 2339.7935791 C-998.43323883 2336.80088722 -1001.69350876 2333.85494163 -1004.99517822 2330.94396973 C-1010.10967306 2326.37268104 -1014.90367921 2321.50060026 -1019.72857666 2316.62878418 C-1023.37538205 2312.95929044 -1027.08139686 2309.46381849 -1031.03033447 2306.11975098 C-1038.16603457 2299.75764079 -1044.87484822 2292.83763832 -1051.04986572 2285.54553223 C-1054.11463188 2282.15694172 -1057.37466881 2278.97109187 -1060.62017822 2275.75646973 C-1064.96627516 2271.44750997 -1069.23601137 2267.15434007 -1073.18658447 2262.47521973 C-1076.07913114 2259.15609547 -1079.10702674 2255.96595326 -1082.12017822 2252.75646973 C-1086.88574657 2247.6695299 -1091.59520084 2242.55993784 -1096.12017822 2237.25646973 C-1097.0066425 2236.22369916 -1097.89338857 2235.19117045 -1098.78033447 2234.15881348 C-1100.83668043 2231.76419709 -1102.8895129 2229.36662234 -1104.94049072 2226.96740723 C-1107.00988521 2224.54825593 -1109.0879513 2222.13708239 -1111.17486572 2219.73303223 C-1116.63976467 2213.42458798 -1121.93541549 2207.02910423 -1127.04840088 2200.4317627 C-1130.11625164 2196.48769765 -1133.29612707 2192.66619888 -1136.55767822 2188.88146973 C-1142.2783622 2182.21859155 -1147.48411432 2175.20422745 -1152.70758057 2168.14953613 C-1154.76900513 2165.38695644 -1156.88134271 2162.66670058 -1158.99517822 2159.94396973 C-1183.83444207 2127.78487434 -1206.8486775 2093.88015345 -1228.12017822 2059.25646973 C-1228.74134521 2058.24938965 -1229.36251221 2057.24230957 -1230.00250244 2056.20471191 C-1245.91519853 2030.36409951 -1260.92313992 2004.08306347 -1275.12017822 1977.25646973 C-1275.88491455 1975.81376709 -1275.88491455 1975.81376709 -1276.6651001 1974.34191895 C-1280.19465744 1967.66949503 -1283.67422951 1960.97243154 -1287.12017822 1954.25646973 C-1287.66110107 1953.20330566 -1288.20202393 1952.1501416 -1288.75933838 1951.06506348 C-1310.11611947 1909.32478409 -1328.63222107 1866.13487567 -1345.12017822 1822.25646973 C-1345.39090149 1821.5364679 -1345.66162476 1820.81646606 -1345.94055176 1820.074646 C-1353.2152727 1800.68579278 -1359.91696104 1781.12068853 -1366.37017822 1761.44396973 C-1366.70290741 1760.43417053 -1367.0356366 1759.42437134 -1367.37844849 1758.38397217 C-1368.32524925 1755.50380714 -1369.26333997 1752.62096511 -1370.19830322 1749.73693848 C-1370.47994827 1748.88120743 -1370.76159332 1748.02547638 -1371.05177307 1747.14381409 C-1371.31056747 1746.33818527 -1371.56936188 1745.53255646 -1371.83599854 1744.70251465 C-1372.06104065 1744.00945724 -1372.28608276 1743.31639984 -1372.51794434 1742.6023407 C-1373.30971098 1739.51818615 -1373.68557252 1736.40855511 -1374.12017822 1733.25646973 C-1374.98023871 1733.25722917 -1375.8402992 1733.25798861 -1376.72642213 1733.25877106 C-1427.65599896 1733.30348891 -1478.58557372 1733.33782345 -1529.51516624 1733.35860039 C-1535.62495868 1733.36110192 -1541.73475108 1733.36369055 -1547.84454346 1733.36633301 C-1549.66913338 1733.36711994 -1549.66913338 1733.36711994 -1551.5305837 1733.36792277 C-1571.2482356 1733.37663474 -1590.96587589 1733.39240906 -1610.68352089 1733.41077532 C-1630.90284653 1733.42945235 -1651.12216607 1733.44058179 -1671.34149998 1733.44464672 C-1683.82643872 1733.44739635 -1696.31134462 1733.45609306 -1708.79627325 1733.47230266 C-1717.34777889 1733.48284245 -1725.89926745 1733.4860772 -1734.45077912 1733.48347248 C-1739.39079833 1733.48218649 -1744.33076003 1733.48421214 -1749.27076912 1733.49488068 C-1753.78783914 1733.50456504 -1758.30481259 1733.5051362 -1762.82188692 1733.49826752 C-1764.46123152 1733.49741775 -1766.10058199 1733.49999549 -1767.73991493 1733.50623609 C-1769.95831843 1733.51419413 -1772.17636752 1733.509978 -1774.3947649 1733.50256538 C-1775.62999513 1733.50332482 -1776.86522537 1733.50408427 -1778.13788682 1733.50486672 C-1781.12017822 1733.25646973 -1781.12017822 1733.25646973 -1784.12017822 1731.25646973 C-1785.33886739 1723.62225256 -1782.10425025 1718.55496002 -1778.37017822 1712.06896973 C-1777.48543823 1710.48620239 -1777.48543823 1710.48620239 -1776.58282471 1708.87145996 C-1774.77949982 1705.65614543 -1772.95291174 1702.4550942 -1771.12017822 1699.25646973 C-1770.10540524 1697.47026701 -1769.09105438 1695.68382438 -1768.07720947 1693.89709473 C-1766.13065918 1690.47639106 -1764.17323908 1687.06216267 -1762.21002197 1683.65100098 C-1757.02682739 1674.62827967 -1751.97662603 1665.53019223 -1746.90240479 1656.44592285 C-1743.97884385 1651.21395024 -1741.04928052 1645.98534139 -1738.12017822 1640.75646973 C-1734.6068948 1634.48390642 -1731.09436071 1628.21092851 -1727.58502197 1621.93615723 C-1721.97345407 1611.90502367 -1716.34861053 1601.88200926 -1710.68267822 1591.88146973 C-1705.30334823 1582.38524685 -1699.99753006 1572.84940374 -1694.70635986 1563.30383301 C-1690.71098432 1556.10219043 -1686.6824267 1548.92058287 -1682.62017822 1541.75646973 C-1677.28618111 1532.34797121 -1672.02149852 1522.90229321 -1666.77642822 1513.44396973 C-1662.57599556 1505.87111576 -1658.35614789 1498.30949818 -1654.12017822 1490.75646973 C-1649.20805186 1481.99465567 -1644.31312954 1473.22346718 -1639.43267822 1464.44396973 C-1638.80482422 1463.31749023 -1638.17697021 1462.19101074 -1637.53009033 1461.03039551 C-1634.64761943 1455.85018244 -1631.78955918 1450.66111731 -1629.01080322 1445.42443848 C-1617.65621311 1424.09570301 -1617.65621311 1424.09570301 -1610.46579552 1421.18019295 C-1606.71092361 1420.14347474 -1603.53579967 1420.01046744 -1599.64108276 1420.01596069 C-1598.90908389 1420.01425184 -1598.17708503 1420.01254299 -1597.42290437 1420.01078236 C-1594.98156255 1420.00750036 -1592.54049843 1420.01846971 -1590.09918213 1420.02941895 C-1588.3446249 1420.02998334 -1586.59006721 1420.02966595 -1584.83551025 1420.02853394 C-1580.07977738 1420.02796052 -1575.32414556 1420.03971307 -1570.56843615 1420.05368185 C-1565.59564763 1420.06619103 -1560.62285675 1420.06735986 -1555.65005493 1420.06973267 C-1546.23666832 1420.07594688 -1536.8233282 1420.09235692 -1527.40996206 1420.11243165 C-1516.69177459 1420.13479246 -1505.9735849 1420.14578454 -1495.25537992 1420.15582252 C-1473.21028674 1420.17672318 -1451.16523541 1420.21189804 -1429.12017822 1420.25646973 C-1429.28100482 1419.64866323 -1429.44183142 1419.04085672 -1429.60753155 1418.41463184 C-1430.74299141 1413.63452389 -1430.51831007 1408.5653891 -1430.67095947 1403.67443848 C-1430.71279861 1402.36130173 -1430.75463776 1401.04816498 -1430.79774475 1399.69523621 C-1431.29775412 1382.86243375 -1431.3073908 1366.02379743 -1431.30548096 1349.18493652 C-1431.30540019 1345.46418342 -1431.31228489 1341.74355477 -1431.32598877 1338.02282715 C-1431.45442046 1302.51354682 -1430.31271132 1267.09042614 -1427.37017822 1231.69396973 C-1427.2466246 1230.1772467 -1427.2466246 1230.1772467 -1427.12057495 1228.62988281 C-1421.32624125 1158.11103204 -1410.03205997 1087.96402731 -1393.12017822 1019.25646973 C-1392.93797729 1018.51495667 -1392.75577637 1017.7734436 -1392.5680542 1017.00946045 C-1373.48653451 939.53427362 -1347.9969242 863.54962688 -1258.82281494 678.21594238 C-1256.93830886 674.94034979 -1255.07653465 671.65220525 -1253.21783447 668.36193848 C-1245.62768212 654.94395733 -1237.85152809 641.67120006 -1229.61871338 628.63439941 C-1228.18596692 626.36086561 -1226.76646709 624.07963446 -1225.35064697 621.79553223 C-1211.67532984 599.81958199 -1197.14646229 578.32818022 -1182.12017822 557.25646973 C-1181.59440186 556.51606445 -1181.06862549 555.77565918 -1180.5269165 555.01281738 C-1172.23689992 543.35283397 -1163.63378729 531.94472115 -1154.91949463 520.59924316 C-1153.33128935 518.53134386 -1151.74638565 516.46098446 -1150.16314697 514.38928223 C-1145.23158407 507.94385276 -1140.22447794 501.56595133 -1135.12017822 495.25646973 C-1134.64709229 494.66994629 -1134.17400635 494.08342285 -1133.68658447 493.47912598 C-1126.73370123 484.86171209 -1119.71297322 476.31115184 -1112.519104 467.89367676 C-1111.03871989 466.16113646 -1109.56186465 464.42562312 -1108.08502197 462.69006348 C-1102.84507338 456.54313704 -1097.55262455 450.45729609 -1092.12408447 444.47521973 C-1090.3070584 442.4633858 -1088.5207343 440.42986539 -1086.74517822 438.38146973 C-1082.45406604 433.4590215 -1078.02426605 428.664544 -1073.59820557 423.8638916 C-1072.12788914 422.2648557 -1070.66438242 420.65982715 -1069.20220947 419.05334473 C-1063.49372996 412.7999391 -1057.64618736 406.73276284 -1051.62457275 400.78015137 C-1048.8449695 398.02110359 -1046.15706509 395.24435871 -1043.62017822 392.25646973 C-1036.88965396 384.35104098 -1029.32652748 377.03120803 -1021.40924072 370.32678223 C-1018.02065021 367.26201606 -1014.83480037 364.00197914 -1011.62017822 360.75646973 C-1007.31121847 356.41037279 -1003.01804857 352.14063657 -998.33892822 348.19006348 C-995.01980397 345.29751681 -991.82966175 342.26962121 -988.62017822 339.25646973 C-983.53319821 334.49086374 -978.42296266 329.78228941 -973.12017822 325.25646973 C-972.0756657 324.35831322 -971.03142085 323.45984539 -969.98736572 322.56115723 C-959.45032168 313.50012509 -948.89587009 304.45752138 -938.11236572 295.69006348 C-935.88253482 293.87650649 -933.65945943 292.05587574 -931.44049072 290.22912598 C-924.17009958 284.26019686 -916.81653174 278.44952683 -909.25982666 272.8470459 C-904.94119389 269.64058167 -900.6841983 266.36682807 -896.4553833 263.04284668 C-888.64938307 256.90722484 -880.72062749 251.02436795 -872.56817627 245.35803223 C-869.77100036 243.41195923 -866.98256876 241.45479196 -864.20587158 239.47961426 C-854.00404476 232.22303559 -843.67313495 225.18343412 -833.24517822 218.25646973 C-832.06230225 217.46960281 -832.06230225 217.46960281 -830.85552979 216.6668396 C-819.3766838 209.03376094 -807.87273365 201.46348426 -796.12017822 194.25646973 C-794.57620361 193.3051416 -794.57620361 193.3051416 -793.0010376 192.33459473 C-777.23450328 182.6257694 -761.33001793 173.21135451 -745.12017822 164.25646973 C-744.21106689 163.75309082 -743.30195557 163.24971191 -742.36529541 162.7310791 C-724.5568593 152.88874371 -706.56992897 143.36448382 -688.32720947 134.35021973 C-685.22636984 132.81584517 -682.1456158 131.24585677 -679.06939697 129.66271973 C-661.0794748 120.45588928 -642.65715003 112.28929573 -624.12017822 104.25646973 C-623.44495117 103.96365112 -622.76972412 103.67083252 -622.07403564 103.36914062 C-542.28810331 68.82229723 -458.98502762 42.44306026 -293.12017822 10.25646973 C-292.3326416 10.13978943 -291.54510498 10.02310913 -290.73370361 9.90289307 C-263.02169689 5.82364054 -235.16447181 2.92966314 -207.26092529 0.52789307 C-205.24626514 0.35378615 -203.23183509 0.17698325 -201.2177124 -0.00323486 C-135.08532289 -5.91912506 -66.13253988 -5.90559794 0 0 Z M-115.76568604 305.31066895 C-208.62948843 306.8809406 -300.94427725 320.78288118 -491.12017822 383.25646973 C-491.76841553 383.52590393 -492.41665283 383.79533813 -493.08453369 384.07293701 C-513.17146474 392.4312701 -532.76297001 401.69895473 -552.26153564 411.33984375 C-555.07988236 412.72976661 -557.90518464 414.10539678 -560.72955322 415.48303223 C-573.54024661 421.76630908 -586.00239614 428.54188391 -598.3604126 435.67150879 C-601.02683481 437.20286167 -603.70374233 438.71364499 -606.38580322 440.21740723 C-626.40185442 451.46628446 -645.64121218 463.85045971 -664.74517822 476.56896973 C-665.50581573 477.07480591 -666.26645325 477.58064209 -667.05014038 478.10180664 C-676.87278456 484.64200442 -686.56787871 491.32732885 -696.12017822 498.25646973 C-696.99239014 498.88835205 -697.86460205 499.52023437 -698.76324463 500.17126465 C-713.99603556 511.2540466 -728.73021824 522.86850173 -743.315979 534.78430176 C-744.90290868 536.07918484 -746.49366559 537.36937451 -748.08502197 538.65881348 C-758.83448958 547.38782315 -769.29551385 556.40898722 -779.46002197 565.81115723 C-781.63239068 567.80807766 -783.82556985 569.76475706 -786.05767822 571.69396973 C-798.89850422 582.88565791 -810.91828493 594.89689704 -822.94244385 606.94836426 C-825.49717626 609.50883142 -828.05642757 612.06472761 -830.61700249 614.61935043 C-832.61785956 616.6165702 -834.61629989 618.61619463 -836.614048 620.61652374 C-838.00788711 622.01133678 -839.40370883 623.4041677 -840.79959106 624.79693604 C-845.2494273 629.26311181 -849.57225337 633.77945035 -853.67211914 638.57029724 C-855.87621271 641.13682369 -858.18934958 643.59349303 -860.49517822 646.06896973 C-864.84342484 650.77022158 -868.93289041 655.62896307 -872.94830322 660.61975098 C-875.05774172 663.18067001 -877.24905471 665.62770427 -879.49517822 668.06896973 C-883.45598498 672.41970046 -887.08977105 676.95454869 -890.68878174 681.60266113 C-893.77553767 685.57822914 -896.94270095 689.47226111 -900.17047119 693.33410645 C-907.6227458 702.25659981 -914.59495683 711.46330278 -921.40435791 720.88342285 C-923.09793894 723.22571192 -924.79957938 725.56194813 -926.50299072 727.89709473 C-933.54383581 737.57024401 -940.41313161 747.34914535 -947.12017822 757.25646973 C-947.52268799 757.84927734 -947.92519775 758.44208496 -948.33990479 759.05285645 C-959.44933924 775.44449543 -970.12539706 792.16150957 -980.12017822 809.25646973 C-980.6519165 810.1628418 -981.18365479 811.06921387 -981.73150635 812.00305176 C-1015.9687886 870.47138531 -1044.60784281 931.34281573 -1067.12017822 995.25646973 C-1067.35351868 995.91806091 -1067.58685913 996.5796521 -1067.82727051 997.2612915 C-1097.65388413 1082.05544206 -1116.31035377 1170.87345948 -1126.12017822 1326.25646973 C-1126.13113525 1326.9256543 -1126.14209229 1327.59483887 -1126.15338135 1328.28430176 C-1126.47008406 1347.98973075 -1126.02725403 1367.62971263 -1125.18267822 1387.31896973 C-1125.13920258 1388.33524445 -1125.09572693 1389.35151917 -1125.05093384 1390.39859009 C-1124.9234723 1393.32148861 -1124.79083284 1396.24408978 -1124.65533447 1399.16662598 C-1124.61673309 1400.02361084 -1124.57813171 1400.8805957 -1124.5383606 1401.7635498 C-1124.23837421 1407.96079814 -1123.68325262 1414.0626514 -1123.12017822 1420.25646973 C-922.81017822 1420.25646973 -722.50017822 1420.25646973 -516.12017822 1420.25646973 C-511.17017822 1411.34646973 -506.22017822 1402.43646973 -501.12017822 1393.25646973 C-498.44430659 1388.54039203 -495.76421768 1383.82958546 -493.05767822 1379.13146973 C-487.97895241 1370.28837046 -482.95750007 1361.41549062 -477.99517822 1352.50646973 C-473.48264142 1344.40913597 -468.87867301 1336.37374225 -464.18267822 1328.38146973 C-458.4989327 1318.70553159 -453.01227562 1308.93091033 -447.58306885 1299.11022949 C-442.39121807 1289.72325007 -437.09578292 1280.40014804 -431.75250244 1271.09875488 C-428.57796999 1265.57109907 -425.41031166 1260.03951117 -422.24517822 1254.50646973 C-421.90628571 1253.91414551 -421.56739319 1253.32182129 -421.2182312 1252.71154785 C-415.79882251 1243.23543697 -410.44658581 1233.72319959 -405.12408447 1224.19226074 C-399.52536659 1214.17371218 -393.82949979 1204.21226832 -388.12017822 1194.25646973 C-385.49339902 1189.67415316 -382.86824293 1185.09091322 -380.24517822 1180.50646973 C-379.90571167 1179.91332977 -379.56624512 1179.32018982 -379.2164917 1178.70907593 C-374.42615837 1170.33565397 -369.69099992 1161.93337256 -364.99517822 1153.50646973 C-360.482473 1145.40922694 -355.87867548 1137.37374645 -351.18267822 1129.38146973 C-345.4989327 1119.70553159 -340.01227562 1109.93091033 -334.58306885 1100.11022949 C-329.39121807 1090.72325007 -324.09578292 1081.40014804 -318.75250244 1072.09875488 C-315.57796999 1066.57109907 -312.41031166 1061.03951117 -309.24517822 1055.50646973 C-308.90628571 1054.91414551 -308.56739319 1054.32182129 -308.2182312 1053.71154785 C-302.79882251 1044.23543697 -297.44658581 1034.72319959 -292.12408447 1025.19226074 C-286.52536659 1015.17371218 -280.82949979 1005.21226832 -275.12017822 995.25646973 C-272.49339902 990.67415316 -269.86824293 986.09091322 -267.24517822 981.50646973 C-266.90571167 980.91332977 -266.56624512 980.32018982 -266.2164917 979.70907593 C-261.42615837 971.33565397 -256.69099992 962.93337256 -251.99517822 954.50646973 C-246.9239777 945.40710696 -241.71720603 936.39680229 -236.44000244 927.41564941 C-231.39345952 918.79535025 -226.55136633 910.06879957 -221.72589111 901.32336426 C-217.62290616 893.90730788 -213.41761353 886.56138198 -209.12017822 879.25646973 C-203.45454173 869.62328496 -197.98970908 859.89017587 -192.58282471 850.10974121 C-187.39100725 840.72295142 -182.09569242 831.3999905 -176.75250244 822.09875488 C-173.57796976 816.57109867 -170.41049255 811.03940799 -167.24517822 805.50646973 C-166.73584244 804.61648788 -166.73584244 804.61648788 -166.21621704 803.70852661 C-161.42596948 795.33529038 -156.69090083 786.93319473 -151.99517822 778.50646973 C-146.9239777 769.40710696 -141.71720603 760.39680229 -136.44000244 751.41564941 C-131.39345952 742.79535025 -126.55136633 734.06879957 -121.72589111 725.32336426 C-117.0718692 716.91132051 -112.26427821 708.60072997 -107.38970947 700.31506348 C-103.01754822 692.85782663 -98.79627745 685.32501043 -94.62017822 677.75646973 C-89.32017368 668.15204916 -83.88467551 658.64216708 -78.32598877 649.1854248 C-74.1044999 641.98749722 -69.99504282 634.7327711 -65.93267822 627.44396973 C-61.60972947 619.69684932 -57.28011788 611.95450287 -52.87017822 604.25646973 C-52.18919067 603.05413696 -52.18919067 603.05413696 -51.4944458 601.82751465 C-48.35250754 596.37263439 -48.35250754 596.37263439 -46.12017822 595.25646973 C-44.22941397 595.16085018 -42.33521142 595.13091969 -40.44203091 595.13062859 C-39.22644385 595.12802084 -38.01085679 595.12541309 -36.75843376 595.12272632 C-35.39727987 595.1248887 -34.03612613 595.12714537 -32.67497253 595.12948608 C-31.23852819 595.12833489 -29.80208413 595.12674738 -28.3656407 595.12475884 C-24.40433439 595.12056531 -20.44305202 595.12265631 -16.4817456 595.12574506 C-12.21518975 595.12799882 -7.94863815 595.12451968 -3.68208313 595.12176514 C4.68137315 595.11730831 13.04482047 595.11828349 21.4082771 595.12117778 C28.20217752 595.123432 34.99607543 595.12374425 41.78997612 595.12265396 C42.75524213 595.12250073 43.72050814 595.1223475 44.71502463 595.12218962 C46.67565183 595.12186991 48.63627904 595.1215457 50.59690624 595.12121703 C69.00024833 595.11836253 87.40358544 595.12164887 105.80692672 595.12701739 C121.61548863 595.13148611 137.4240432 595.13070888 153.23260498 595.12609863 C171.5696064 595.12075356 189.90660346 595.11863647 208.24360555 595.1217109 C210.1968981 595.12202946 212.15019065 595.12234383 214.1034832 595.12265396 C215.06466289 595.12280824 216.02584257 595.12296251 217.01614891 595.12312146 C223.80644737 595.12398677 230.59674307 595.12252347 237.38704109 595.12017441 C245.65550897 595.11737698 253.92396735 595.11811348 262.19243414 595.12345515 C266.41525789 595.12609284 270.63806578 595.12709609 274.86088943 595.123806 C278.72023847 595.12084445 282.57955681 595.12243346 286.43890303 595.12778355 C287.84127407 595.12890834 289.24364766 595.12831521 290.64601708 595.12590776 C292.53984819 595.12290392 294.43368648 595.1265571 296.3275156 595.13062859 C297.38319314 595.13079094 298.43887067 595.13095329 299.52653843 595.13112056 C301.87982178 595.25646973 301.87982178 595.25646973 302.87982178 596.25646973 C303.34059645 601.19430357 302.29485683 604.03687301 299.87200928 608.30725098 C299.55506104 608.87427231 299.23811279 609.44129364 298.91156006 610.02549744 C297.87112592 611.8802658 296.81316102 613.72436948 295.75482178 615.56896973 C295.02070664 616.87004838 294.28781214 618.17181646 293.55609131 619.47424316 C292.06118881 622.13085218 290.55950915 624.78343672 289.05169678 627.43273926 C286.49571515 631.92611554 283.97685886 636.43995729 281.45843506 640.95446777 C279.17851991 645.03890734 276.88777558 649.11723313 274.59759521 653.19592285 C271.68766505 658.38052839 268.78410127 663.56869745 265.87982178 668.75646973 C264.71318484 670.83981971 263.54651819 672.92315305 262.37982178 675.00646973 C261.80232178 676.03771973 261.22482178 677.06896973 260.62982178 678.13146973 C258.87982178 681.25646973 257.12982178 684.38146973 255.37982178 687.50646973 C254.80224121 688.53788086 254.22466064 689.56929199 253.62957764 690.63195801 C252.46378425 692.71369705 251.29793146 694.79540282 250.13201904 696.8770752 C247.20150118 702.10952895 244.27204262 707.34257058 241.34466553 712.57678223 C235.73309762 722.60791578 230.10825408 732.63093019 224.44232178 742.63146973 C219.06299178 752.1276926 213.75717362 761.66353571 208.46600342 771.20910645 C203.95064584 779.34801381 199.3848727 787.4569218 194.79388428 795.55334473 C190.61532357 802.93207144 186.49085222 810.33993795 182.37982178 817.75646973 C177.20288105 827.09492774 171.98473755 836.40837149 166.72137451 845.69836426 C160.99319244 855.8116529 155.31930675 865.95513556 149.64593506 876.09924316 C146.14388046 882.3597588 142.63768424 888.61795585 139.13226318 894.87658691 C136.20169393 900.10922021 133.27213134 905.34241195 130.34466553 910.57678223 C124.17923297 921.59817494 117.99248208 932.60692292 111.77191162 943.59729004 C106.03070482 953.74639647 100.33765568 963.9223273 94.64593506 974.09924316 C91.72584041 979.31940684 88.80268611 984.53785652 85.87982178 989.75646973 C84.71314024 991.83979473 83.54647358 993.92312807 82.37982178 996.00646973 C80.04648844 1000.17313639 77.71315511 1004.33980306 75.37982178 1008.50646973 C74.80224121 1009.53788086 74.22466064 1010.56929199 73.62957764 1011.63195801 C72.46378425 1013.71369705 71.29793146 1015.79540282 70.13201904 1017.8770752 C67.20150118 1023.10952895 64.27204262 1028.34257058 61.34466553 1033.57678223 C55.17923297 1044.59817494 48.99248208 1055.60692292 42.77191162 1066.59729004 C37.03070482 1076.74639647 31.33765568 1086.9223273 25.64593506 1097.09924316 C22.72584041 1102.31940684 19.80268611 1107.53785652 16.87982178 1112.75646973 C15.71314024 1114.83979473 14.54647358 1116.92312807 13.37982178 1119.00646973 C11.04648844 1123.17313639 8.71315511 1127.33980306 6.37982178 1131.50646973 C5.80224121 1132.53788086 5.22466064 1133.56929199 4.62957764 1134.63195801 C3.46378425 1136.71369705 2.29793146 1138.79540282 1.13201904 1140.8770752 C-1.79849882 1146.10952895 -4.72795738 1151.34257058 -7.65533447 1156.57678223 C-13.82076703 1167.59817494 -20.00751792 1178.60692292 -26.22808838 1189.59729004 C-31.96929518 1199.74639647 -37.66234432 1209.9223273 -43.35406494 1220.09924316 C-46.27415959 1225.31940684 -49.19731389 1230.53785652 -52.12017822 1235.75646973 C-53.28685976 1237.83979473 -54.45352642 1239.92312807 -55.62017822 1242.00646973 C-57.95351156 1246.17313639 -60.28684489 1250.33980306 -62.62017822 1254.50646973 C-63.19775879 1255.53788086 -63.77533936 1256.56929199 -64.37042236 1257.63195801 C-65.53621575 1259.71369705 -66.70206854 1261.79540282 -67.86798096 1263.8770752 C-70.79849882 1269.10952895 -73.72795738 1274.34257058 -76.65533447 1279.57678223 C-82.82076703 1290.59817494 -89.00751792 1301.60692292 -95.22808838 1312.59729004 C-100.96929518 1322.74639647 -106.66234432 1332.9223273 -112.35406494 1343.09924316 C-115.27415959 1348.31940684 -118.19731389 1353.53785652 -121.12017822 1358.75646973 C-122.28685976 1360.83979473 -123.45352642 1362.92312807 -124.62017822 1365.00646973 C-126.95351156 1369.17313639 -129.28684489 1373.33980306 -131.62017822 1377.50646973 C-132.19775879 1378.53788086 -132.77533936 1379.56929199 -133.37042236 1380.63195801 C-134.53621575 1382.71369705 -135.70206854 1384.79540282 -136.86798096 1386.8770752 C-139.79849882 1392.10952895 -142.72795738 1397.34257058 -145.65533447 1402.57678223 C-151.82076703 1413.59817494 -158.00751792 1424.60692292 -164.22808838 1435.59729004 C-169.96929518 1445.74639647 -175.66234432 1455.9223273 -181.35406494 1466.09924316 C-184.85611954 1472.3597588 -188.36231576 1478.61795585 -191.86773682 1484.87658691 C-194.79830607 1490.10922021 -197.72786866 1495.34241195 -200.65533447 1500.57678223 C-206.82076703 1511.59817494 -213.00751792 1522.60692292 -219.22808838 1533.59729004 C-224.96929518 1543.74639647 -230.66234432 1553.9223273 -236.35406494 1564.09924316 C-239.85611954 1570.3597588 -243.36231576 1576.61795585 -246.86773682 1582.87658691 C-249.79830607 1588.10922021 -252.72786866 1593.34241195 -255.65533447 1598.57678223 C-261.82076703 1609.59817494 -268.00751792 1620.60692292 -274.22808838 1631.59729004 C-279.96929518 1641.74639647 -285.66234432 1651.9223273 -291.35406494 1662.09924316 C-294.85611954 1668.3597588 -298.36231576 1674.61795585 -301.86773682 1680.87658691 C-304.79830607 1686.10922021 -307.72786866 1691.34241195 -310.65533447 1696.57678223 C-316.82076703 1707.59817494 -323.00751792 1718.60692292 -329.22808838 1729.59729004 C-334.96929518 1739.74639647 -340.66234432 1749.9223273 -346.35406494 1760.09924316 C-349.85611954 1766.3597588 -353.36231576 1772.61795585 -356.86773682 1778.87658691 C-359.79830607 1784.10922021 -362.72786866 1789.34241195 -365.65533447 1794.57678223 C-371.82076703 1805.59817494 -378.00751792 1816.60692292 -384.22808838 1827.59729004 C-389.96929518 1837.74639647 -395.66234432 1847.9223273 -401.35406494 1858.09924316 C-404.27415959 1863.31940684 -407.19731389 1868.53785652 -410.12017822 1873.75646973 C-411.28685976 1875.83979473 -412.45352642 1877.92312807 -413.62017822 1880.00646973 C-415.95351156 1884.17313639 -418.28684489 1888.33980306 -420.62017822 1892.50646973 C-421.19775879 1893.53788086 -421.77533936 1894.56929199 -422.37042236 1895.63195801 C-423.53621575 1897.71369705 -424.70206854 1899.79540282 -425.86798096 1901.8770752 C-428.79849882 1907.10952895 -431.72795738 1912.34257058 -434.65533447 1917.57678223 C-440.82076703 1928.59817494 -447.00751792 1939.60692292 -453.22808838 1950.59729004 C-458.96929518 1960.74639647 -464.66234432 1970.9223273 -470.35406494 1981.09924316 C-473.85611954 1987.3597588 -477.36231576 1993.61795585 -480.86773682 1999.87658691 C-483.79830607 2005.10922021 -486.72786866 2010.34241195 -489.65533447 2015.57678223 C-495.81131938 2026.58128622 -501.98836723 2037.57329338 -508.19952393 2048.54675293 C-512.44080521 2056.04425629 -516.66017177 2063.5538712 -520.87017822 2071.06896973 C-521.47926025 2072.15564941 -522.08834229 2073.2423291 -522.71588135 2074.36193848 C-523.55796143 2075.86627441 -523.55796143 2075.86627441 -524.41705322 2077.40100098 C-524.91559814 2078.29150146 -525.41414307 2079.18200195 -525.92779541 2080.0994873 C-526.68569794 2081.47050878 -527.41959045 2082.85529418 -528.12017822 2084.25646973 C-670.18517822 2084.75146973 -670.18517822 2084.75146973 -815.12017822 2085.25646973 C-808.96825918 2092.43370862 -802.73051801 2098.94178833 -795.57330322 2105.08459473 C-792.24906443 2108.0277106 -789.03708293 2111.08507401 -785.80767822 2114.13146973 C-780.61139321 2119.02050619 -775.30676715 2123.66067384 -769.72955322 2128.11584473 C-766.93586307 2130.40767437 -764.27809045 2132.80878785 -761.62017822 2135.25646973 C-756.29031139 2140.15032488 -750.75107434 2144.71565735 -745.12017822 2149.25646973 C-743.93691273 2150.23054839 -742.75467769 2151.20587972 -741.57330322 2152.18225098 C-731.81175819 2160.22572413 -721.78844678 2167.87471743 -711.62408447 2175.40100098 C-709.2226827 2177.18051087 -706.8271649 2178.96767108 -704.43267822 2180.75646973 C-685.8111002 2194.62527652 -666.73099329 2207.82499613 -647.12017822 2220.25646973 C-645.91240723 2221.02241455 -645.91240723 2221.02241455 -644.68023682 2221.80383301 C-621.36305795 2236.53071642 -597.51322085 2250.39206174 -573.12017822 2263.25646973 C-571.43505127 2264.14930664 -571.43505127 2264.14930664 -569.71588135 2265.06018066 C-552.11189815 2274.37587157 -534.29684535 2283.10085311 -516.12017822 2291.25646973 C-514.96034424 2291.77918457 -513.80051025 2292.30189941 -512.60552979 2292.8404541 C-431.60741325 2329.17229893 -345.5916113 2354.16813132 -190.12017822 2376.25646973 C-189.25475403 2376.34003723 -188.38932983 2376.42360474 -187.49768066 2376.50970459 C-129.78712865 2382.06108887 -69.81851874 2381.76780629 -12.12017822 2376.25646973 C-10.23804093 2376.08286774 -8.35587883 2375.90953438 -6.47369385 2375.7364502 C84.88960723 2367.21610013 175.44907972 2346.71792708 399.90081787 2247.96887207 C403.09261339 2246.13415204 406.29249451 2244.31404913 409.49310303 2242.49475098 C420.91199849 2235.98499049 432.21155107 2229.38635897 443.14202881 2222.08361816 C445.94201854 2220.21496085 448.74849078 2218.35636235 451.55586243 2216.49882507 C473.94211966 2201.70364696 473.94211966 2201.70364696 495.87982178 2186.25646973 C496.63327881 2185.71119629 497.38673584 2185.16592285 498.1630249 2184.60412598 C508.35978246 2177.21373995 518.33168616 2169.60814974 528.11224365 2161.67687988 C530.45082776 2159.79761437 532.81935155 2157.95841135 535.18914795 2156.11877441 C542.35619883 2150.54961359 549.26824449 2144.72677413 556.12103271 2138.77697754 C557.88973416 2137.24790028 559.66805355 2135.73086191 561.45013428 2134.21740723 C568.08112083 2128.58170433 574.59106744 2122.84904401 580.96575928 2116.92443848 C583.2198288 2114.86072603 585.49361859 2112.8372532 587.79779053 2110.83068848 C601.09209634 2099.23176605 613.52523242 2086.71548394 626.00482178 2074.25646973 C627.09982498 2073.16534882 627.09982498 2073.16534882 628.21694946 2072.05218506 C630.33932544 2069.93573693 632.45785497 2067.81551536 634.57513428 2065.69396973 C635.20695114 2065.06413177 635.83876801 2064.43429382 636.48973083 2063.78536987 C640.24625618 2060.00958062 643.81812953 2056.12042505 647.29180908 2052.08259583 C649.86327443 2049.12555399 652.56613597 2046.29398492 655.25482178 2043.44396973 C659.9581194 2038.42303632 664.40166518 2033.27307111 668.70404053 2027.90100098 C671.01013878 2025.09807725 673.42133708 2022.42643698 675.87982178 2019.75646973 C680.77367693 2014.4266029 685.3390094 2008.88736584 689.87982178 2003.25646973 C690.85390044 2002.07320423 691.82923177 2000.8909692 692.80560303 1999.70959473 C700.87738304 1989.91297904 708.53286082 1979.84095807 716.09710693 1969.64904785 C717.75718252 1967.42106364 719.42993898 1965.20355912 721.11029053 1962.99084473 C727.98726764 1953.92928671 734.53141581 1944.69490092 740.87982178 1935.25646973 C741.60234131 1934.18558105 742.32486084 1933.11469238 743.0692749 1932.01135254 C768.9185128 1893.67501377 792.28208449 1854.16293507 813.44476318 1813.04309082 C814.36549764 1811.25519305 815.28937709 1809.46890937 816.21722412 1807.68469238 C855.42474766 1732.17226918 882.88197672 1649.38394502 923.87982178 1394.25646973 C923.95184814 1393.00333984 924.02387451 1391.75020996 924.0980835 1390.45910645 C929.31640464 1294.24544527 919.16570035 1197.10597184 833.50482178 915.38146973 C833.22960693 914.75797638 832.95439209 914.13448303 832.6708374 913.49209595 C831.90681359 911.76700118 831.13191391 910.04673517 830.35638428 908.32678223 C829.92406494 907.36530273 829.49174561 906.40382324 829.04632568 905.41320801 C828.06804576 903.11142744 828.06804576 903.11142744 825.87982178 902.25646973 C825.49874268 902.94869629 825.11766357 903.64092285 824.72503662 904.35412598 C817.84409646 916.8372657 810.92340207 929.28407276 803.69232178 941.56896973 C798.71974472 950.02137734 793.93739509 958.55463356 789.27532959 967.1817627 C784.95035075 975.17219703 780.45696955 983.05855264 775.93060303 990.93615723 C772.80227984 996.38134769 769.7139269 1001.8486468 766.62982178 1007.31896973 C762.10262815 1015.34488478 757.54302444 1023.35174014 752.96368408 1031.34799194 C746.97384145 1041.80730811 741.04207987 1052.29683835 735.16912842 1062.8223877 C730.45544755 1071.25809707 725.66704164 1079.64977168 720.86132812 1088.03320312 C716.10696409 1096.32885303 711.40795338 1104.65350228 706.75482178 1113.00646973 C702.18397511 1121.21053687 697.51387315 1129.34769896 692.75482178 1137.44396973 C687.76272237 1145.9400857 682.95766837 1154.51648667 678.27337646 1163.18566895 C674.45813479 1170.23513175 670.51494415 1177.20287559 666.5199585 1184.1517334 C662.5906015 1190.99278594 658.72579033 1197.86823065 654.87982178 1204.75646973 C648.61753431 1215.96446353 642.26671072 1227.11914295 635.87982178 1238.25646973 C633.25304264 1242.83878619 630.62773409 1247.42193909 628.00482178 1252.00646973 C627.49462494 1252.89817368 627.49462494 1252.89817368 626.97412109 1253.80789185 C621.65111756 1263.11550864 616.39389294 1272.45862823 611.16937256 1281.82189941 C606.45492528 1290.25912058 601.66482035 1298.65173776 596.85931396 1307.03723145 C592.15325585 1315.25140096 587.49252669 1323.48940727 582.87982178 1331.75646973 C577.6010445 1341.21729201 572.24916428 1350.63427519 566.86132812 1360.03320312 C562.10696409 1368.32885303 557.40795338 1376.65350228 552.75482178 1385.00646973 C548.18397511 1393.21053687 543.51387315 1401.34769896 538.75482178 1409.44396973 C533.76272237 1417.9400857 528.95766837 1426.51648667 524.27337646 1435.18566895 C520.45813479 1442.23513175 516.51494415 1449.20287559 512.5199585 1456.1517334 C508.5906015 1462.99278594 504.72579033 1469.86823065 500.87982178 1476.75646973 C494.61753431 1487.96446353 488.26671072 1499.11914295 481.87982178 1510.25646973 C479.25304257 1514.83878629 476.62788648 1519.42202623 474.00482178 1524.00646973 C473.66535522 1524.59960968 473.32588867 1525.19274963 472.97613525 1525.80386353 C467.60024885 1535.20082239 462.30236376 1544.63930595 457.03314209 1554.09655762 C453.02703845 1561.26456462 448.9159028 1568.36498779 444.75482178 1575.44396973 C439.76272237 1583.9400857 434.95766837 1592.51648667 430.27337646 1601.18566895 C426.45813479 1608.23513175 422.51494415 1615.20287559 418.5199585 1622.1517334 C414.5906021 1628.99278489 410.72570648 1635.86818451 406.87982178 1642.75646973 C402.07904222 1651.35089523 397.2350892 1659.91844821 392.33978271 1668.45935059 C388.74568563 1674.7324141 385.18157374 1681.02184464 381.62982178 1687.31896973 C376.42886561 1696.53891801 371.18101473 1705.73152684 365.91955566 1714.91702271 C361.14698213 1723.25200692 356.42947457 1731.61608417 351.75482178 1740.00646973 C347.18391818 1748.21050612 342.51387399 1756.34769752 337.75482178 1764.44396973 C332.76354977 1772.93867753 327.95952052 1781.51376965 323.27557373 1790.18127441 C318.95417297 1798.16520766 314.46449999 1806.04517513 309.94232178 1813.91662598 C306.74984202 1819.47371558 303.59299718 1825.05059662 300.44232178 1830.63146973 C299.90010986 1831.59149902 299.35789795 1832.55152832 298.79925537 1833.54064941 C296.63146123 1837.37978647 294.46468758 1841.21949797 292.29876709 1845.05969238 C285.54356587 1857.03596968 278.74985828 1868.98933142 271.91726685 1880.92160034 C266.61159897 1890.19068284 261.37309653 1899.49579549 256.16912842 1908.8223877 C251.45471015 1917.25941674 246.66473005 1925.65189533 241.85931396 1934.03723145 C237.15325585 1942.25140096 232.49252669 1950.48940727 227.87982178 1958.75646973 C222.6010445 1968.21729201 217.24916428 1977.63427519 211.86132812 1987.03320312 C207.10696409 1995.32885303 202.40795338 2003.65350228 197.75482178 2012.00646973 C193.18397582 2020.21053561 188.51392867 2028.34773208 183.75482178 2036.44396973 C178.71622795 2045.01800028 173.84671844 2053.66597146 169.137146 2062.4251709 C165.17550389 2069.78466636 161.03259794 2076.98911144 156.87982178 2084.25646973 C41.70982178 2084.25646973 -73.46017822 2084.25646973 -192.12017822 2084.25646973 C-183.36470797 2068.49662326 -174.60449795 2052.7489684 -165.71295166 2037.0670166 C-163.01101835 2032.29928878 -160.31604345 2027.52763034 -157.62017822 2022.75646973 C-156.53294949 2020.83328651 -155.44570992 2018.91010942 -154.35845947 2016.98693848 C-152.22905297 2013.21972367 -150.10156499 2009.45143542 -147.97564697 2005.68225098 C-141.74048653 1994.63203781 -135.465817 1983.60517475 -129.15963745 1972.59536743 C-124.38714874 1964.26056747 -119.66989748 1955.89658601 -114.99517822 1947.50646973 C-109.89815 1938.36194985 -104.67018917 1929.3028761 -99.36968994 1920.27502441 C-95.19728369 1913.15060872 -91.13514625 1905.97063778 -87.12017822 1898.75646973 C-82.49845588 1890.45417577 -77.7967639 1882.20609048 -72.99517822 1874.00646973 C-72.41832275 1873.01912842 -71.84146729 1872.03178711 -71.24713135 1871.01452637 C-68.98393404 1867.14247708 -66.71997411 1863.2710403 -64.43756104 1859.41027832 C-49.35458061 1833.88146532 -38.56347545 1806.45096533 -46.14752197 1776.43225098 C-49.0101292 1767.08566594 -52.60760251 1759.5796825 -59.12017822 1752.25646973 C-59.66931885 1751.57971191 -60.21845947 1750.9029541 -60.78424072 1750.20568848 C-64.84810506 1745.59579831 -69.40202025 1742.72235061 -74.80767822 1739.94396973 C-75.43021484 1739.61840088 -76.05275146 1739.29283203 -76.69415283 1738.95739746 C-87.8131734 1733.56809771 -99.72546898 1732.7621667 -111.87799072 1732.57678223 C-113.40299938 1732.54410817 -114.92799315 1732.5107331 -116.45297241 1732.47671509 C-134.09222987 1732.11146038 -151.7366319 1732.10647102 -169.37884521 1732.1295166 C-172.86064475 1732.13211581 -176.34241876 1732.12725731 -179.82421494 1732.12264633 C-203.27195027 1732.09658066 -226.6850151 1732.48938133 -250.12017822 1733.25646973 C-230.43007407 1694.59492101 -230.43007407 1694.59492101 -222.56842041 1680.42199707 C-218.08034038 1672.28794008 -213.85344467 1664.02491175 -209.62017822 1655.75646973 C-204.42997853 1645.61957876 -199.1579848 1635.54836777 -193.64752197 1625.58068848 C-189.32111701 1617.71556641 -185.21621923 1609.74301735 -181.12017822 1601.75646973 C-176.03883396 1591.84947638 -170.86420204 1582.0113413 -165.48736572 1572.26037598 C-161.75839104 1565.47950332 -158.17147938 1558.63186853 -154.62017822 1551.75646973 C-150.18463168 1543.17371331 -145.64681987 1534.65965161 -140.98907471 1526.19567871 C-136.69008986 1518.35905277 -132.52036663 1510.4573717 -128.3565979 1502.54846191 C-122.24914029 1490.94926199 -116.04995975 1479.42805532 -109.53497314 1468.05065918 C-105.80049368 1461.51546889 -102.26647093 1454.89676361 -98.8081665 1448.21203613 C-95.26752368 1441.41743632 -91.44197838 1434.80251781 -87.52203369 1428.22033691 C-87.07746826 1427.46784668 -86.63290283 1426.71535645 -86.17486572 1425.94006348 C-85.77767334 1425.27547119 -85.38048096 1424.61087891 -84.97125244 1423.92614746 C-83.96880133 1422.27183693 -83.96880133 1422.27183693 -84.12017822 1420.25646973 C94.08540165 1419.67935454 94.08540165 1419.67935454 131.87982178 1456.25646973 C136.33887736 1461.56451768 139.87996473 1467.00981619 142.87982178 1473.25646973 C145.46909043 1470.92142363 146.96977045 1468.52568912 148.59466553 1465.45178223 C149.36677368 1464.0049707 149.36677368 1464.0049707 150.15447998 1462.52893066 C150.70321777 1461.49026855 151.25195557 1460.45160645 151.81732178 1459.38146973 C156.01563561 1451.53400095 160.25707759 1443.72277711 164.69232178 1436.00646973 C165.41463989 1434.74939209 165.41463989 1434.74939209 166.15155029 1433.46691895 C167.17209894 1431.6932461 168.19336173 1429.919984 169.215271 1428.14709473 C172.40586391 1422.60637603 175.58057648 1417.05656351 178.75482178 1411.50646973 C179.26388565 1410.61689575 179.26388565 1410.61689575 179.78323364 1409.70935059 C184.5736772 1401.33584223 189.30871336 1392.93336066 194.00482178 1384.50646973 C199.06307123 1375.43544703 204.23847229 1366.44079119 209.49188232 1357.48156738 C213.98580046 1349.81103231 218.41459595 1342.10457964 222.81732178 1334.38146973 C229.84544078 1322.0559819 236.92222779 1309.75924617 244.02093506 1297.47424316 C247.1430678 1292.06976331 250.26128059 1286.66302254 253.37982178 1281.25646973 C257.11619092 1274.77880088 260.85330525 1268.30156989 264.59466553 1261.82678223 C270.73180508 1251.20260969 276.85001247 1240.56826336 282.92797852 1229.91015625 C288.78595013 1219.63799735 294.69272025 1209.3961786 300.66351318 1199.18908691 C306.81775167 1188.66535653 312.90361265 1178.10251053 318.9887085 1167.53869629 C322.74010202 1161.02775716 326.49673172 1154.51983779 330.25238037 1148.01135254 C333.39164424 1142.57061636 336.52963674 1137.12915496 339.66497803 1131.68615723 C346.28123295 1120.20340076 352.92372188 1108.73686072 359.61053467 1097.29504395 C363.89227095 1089.96334494 368.14202185 1082.61363991 372.37982178 1075.25646973 C377.75896257 1065.91783766 383.17241624 1056.60006655 388.61029053 1047.29553223 C392.892043 1039.96363249 397.14193116 1032.61379735 401.37982178 1025.25646973 C406.75896257 1015.91783766 412.17241624 1006.60006655 417.61029053 997.29553223 C421.892043 989.96363249 426.14193116 982.61379735 430.37982178 975.25646973 C435.76027687 965.91555594 441.17421307 956.59501093 446.61468506 947.28894043 C450.85812272 940.02441783 455.06104895 932.7372498 459.25482178 925.44396973 C464.37260742 916.54745825 469.56629717 907.69994037 474.81732178 898.88146973 C480.61345093 889.14597092 486.28309637 879.34757081 491.87954712 869.49676514 C497.4318269 859.72872433 503.1270296 850.05265817 508.87982178 840.40100098 C513.63636769 832.40220013 518.28309639 824.34757077 522.87982178 816.25646973 C528.78828595 805.85750059 534.82633333 795.54378228 540.94573975 785.26696777 C546.16383642 776.49363518 551.28490906 767.66764763 556.3739624 758.81896973 C562.25425044 748.59507587 568.19500316 738.40713538 574.14593506 728.22424316 C577.05993018 723.23656016 579.96964745 718.24638268 582.87982178 713.25646973 C584.04646821 711.25645792 585.21313487 709.25645792 586.37982178 707.25646973 C586.95732178 706.26646973 587.53482178 705.27646973 588.12982178 704.25646973 C594.54648844 693.25646973 600.96315511 682.25646973 607.37982178 671.25646973 C607.95820801 670.26493896 608.53659424 669.2734082 609.13250732 668.25183105 C610.29018163 666.26726964 611.44789596 664.28273159 612.60565186 662.29821777 C615.66024347 657.06220578 618.71398109 651.82569802 621.76654053 646.58850098 C622.40269287 645.49730957 623.03884521 644.40611816 623.6942749 643.28186035 C624.9132813 641.19086397 626.13204412 639.09972557 627.3505249 637.00842285 C627.90031006 636.06547363 628.45009521 635.12252441 629.01654053 634.15100098 C629.49824707 633.32447021 629.97995361 632.49793945 630.47625732 631.6463623 C631.47764182 629.94127397 632.51135175 628.25500052 633.56610107 626.58239746 C635.07768019 624.39441769 635.07768019 624.39441769 634.76263428 622.14709473 C633.72273334 619.92005025 632.55914908 618.67324741 630.75482178 617.00646973 C628.15231855 614.52081358 625.72132614 611.98999065 623.37982178 609.25646973 C619.00892653 604.20414314 614.40606524 599.52481523 609.31732178 595.19396973 C605.30237377 591.74252319 601.60142406 588.01684381 597.87982178 584.25646973 C593.68100821 580.01854875 589.47930298 575.87519369 584.92279053 572.01818848 C582.77427961 570.16545727 580.69315412 568.24738364 578.61419678 566.31726074 C573.40117964 561.47860011 568.06091973 556.88915766 562.51654053 552.42834473 C559.95562149 550.31890623 557.50858723 548.12759324 555.06732178 545.88146973 C550.69281352 541.89963386 546.13453103 538.2390489 541.46331787 534.61755371 C537.6466761 531.65601489 533.88770461 528.63687143 530.16009521 525.56408691 C520.66974577 517.75044436 510.8314884 510.4687132 500.87982178 503.25646973 C499.3783994 502.16288486 497.87709495 501.06913808 496.37591553 499.97521973 C491.89209046 496.71474953 487.39007525 493.48025749 482.87982178 490.25646973 C482.09526611 489.69459961 481.31071045 489.13272949 480.50238037 488.55383301 C468.45017735 479.94511657 456.15721265 471.80284141 443.59710693 463.95471191 C440.97240083 462.31432956 438.35360592 460.66483935 435.73529053 459.01428223 C414.28722839 445.55324993 392.24652093 433.11968502 369.87982178 421.25646973 C368.81682861 420.69073242 367.75383545 420.12499512 366.65863037 419.54211426 C349.66140738 410.52138229 332.43252073 402.14026831 314.87982178 394.25646973 C313.7170874 393.73230469 312.55435303 393.20813965 311.35638428 392.66809082 C226.26909243 354.5032473 136.00829569 329.08539896 -115.76568604 305.31066895 Z M-1050.12017822 1733.25646973 C-1048.21543572 1738.97069724 -1046.32509203 1744.38836458 -1043.88970947 1749.85021973 C-1043.58229324 1750.54703857 -1043.27487701 1751.24385742 -1042.95814514 1751.96179199 C-1041.95499346 1754.22909852 -1040.94457334 1756.49305302 -1039.93267822 1758.75646973 C-1039.58380554 1759.53981689 -1039.23493286 1760.32316406 -1038.87548828 1761.13024902 C-1031.87170929 1776.83720957 -1024.46665725 1792.33428281 -1016.84918213 1807.75158691 C-1015.33884073 1810.81321656 -1013.84171017 1813.88073668 -1012.35064697 1816.95178223 C-1006.58120499 1828.7617138 -1000.1800984 1840.16799196 -993.64703369 1851.56994629 C-991.85204062 1854.72826157 -990.10463917 1857.91063471 -988.36334229 1861.09875488 C-974.167069 1887.04306077 -958.00364177 1911.99179347 -941.12017822 1936.25646973 C-939.9756316 1937.91010492 -938.8311006 1939.56375092 -937.68658447 1941.21740723 C-926.72224727 1957.01340832 -915.42892134 1972.5417757 -903.44683838 1987.5826416 C-902.08183803 1989.304843 -900.73022806 1991.03681796 -899.38189697 1992.77209473 C-894.42328261 1999.14682973 -889.37103661 2005.41445157 -884.11993408 2011.55114746 C-880.34586157 2015.96295732 -876.70267875 2020.46655318 -873.09283447 2025.01428223 C-871.233695 2027.12744274 -869.38727835 2028.61372903 -867.12017822 2030.25646973 C-866.76939209 2029.6248291 -866.41860596 2028.99318848 -866.05718994 2028.34240723 C-859.51832255 2016.58218962 -852.93402071 2004.85993452 -846.12017822 1993.25646973 C-841.35583916 1985.14230882 -836.69589738 1976.97846509 -832.12017822 1968.75646973 C-826.98386433 1959.5271557 -821.71805288 1950.3841 -816.37017822 1941.27600098 C-812.19773863 1934.15118783 -808.13522578 1926.97100831 -804.12017822 1919.75646973 C-798.98386433 1910.5271557 -793.71805288 1901.3841 -788.37017822 1892.27600098 C-784.19773863 1885.15118783 -780.13522578 1877.97100831 -776.12017822 1870.75646973 C-770.98386433 1861.5271557 -765.71805288 1852.3841 -760.37017822 1843.27600098 C-756.19773863 1836.15118783 -752.13522578 1828.97100831 -748.12017822 1821.75646973 C-742.98386433 1812.5271557 -737.71805288 1803.3841 -732.37017822 1794.27600098 C-727.60089368 1786.1320218 -722.98467214 1777.9085775 -718.39874268 1769.66027832 C-713.5484128 1760.96025184 -708.5458539 1752.35429699 -703.47369385 1743.78186035 C-702.91746338 1742.83762207 -702.36123291 1741.89338379 -701.78814697 1740.92053223 C-701.2959668 1740.08989258 -700.80378662 1739.25925293 -700.29669189 1738.40344238 C-698.99593066 1736.1813653 -698.99593066 1736.1813653 -698.12017822 1733.25646973 C-814.28017822 1733.25646973 -930.44017822 1733.25646973 -1050.12017822 1733.25646973 Z " fill="#E6002C" transform="translate(2184.1201782226563,693.7435302734375)"/>
</svg>
