<?xml version="1.0" encoding="UTF-8"?>
<svg version="1.1" xmlns="http://www.w3.org/2000/svg" width="330" height="220">
<path d="M0 0 C1.04720718 -0.0076664 1.04720718 -0.0076664 2.11557007 -0.01548767 C4.42064018 -0.02937125 6.72541064 -0.028427 9.03051758 -0.02612305 C10.63991913 -0.03001241 12.24931966 -0.03434758 13.85871887 -0.03910828 C17.23380862 -0.04656912 20.60879379 -0.04628149 23.98388672 -0.04101562 C28.28994615 -0.0352399 32.5955728 -0.05210636 36.90156078 -0.0753603 C40.22777269 -0.0901644 43.5538822 -0.09095998 46.88012123 -0.08785057 C48.46640183 -0.08836105 50.05268857 -0.09354712 51.638937 -0.10366249 C61.11323286 -0.15663731 69.24883195 0.01402361 77.73754883 4.8371582 C84.28421837 11.92938354 85.44435251 18.5347663 85.48754883 27.9621582 C85.49375244 28.86506592 85.49995605 29.76797363 85.50634766 30.69824219 C85.36538249 38.16389512 83.74370037 44.19025426 78.60864258 49.93481445 C75.21683842 52.73816102 71.11975815 53.92695651 66.98754883 55.2746582 C65.86606445 55.64848633 64.74458008 56.02231445 63.58911133 56.4074707 C54.66674463 59.2746582 54.66674463 59.2746582 49.98754883 59.2746582 C53.48666835 62.90960307 57.14914157 66.10223626 61.17504883 69.1496582 C62.22047852 69.95145508 63.2659082 70.75325195 64.34301758 71.5793457 C64.91723953 71.99968582 65.49146149 72.42002594 66.08308411 72.85310364 C67.45488057 73.87705725 68.79470221 74.94435174 70.11210632 76.03739929 C76.71773975 81.2167188 81.61888873 82.29152608 89.90161133 82.17700195 C90.87445068 82.1896106 91.84729004 82.20221924 92.84960938 82.21520996 C96.43707 82.25174243 100.02493971 82.2285646 103.61254883 82.2121582 C115.67817383 82.2430957 115.67817383 82.2430957 127.98754883 82.2746582 C127.65754883 62.4746582 127.32754883 42.6746582 126.98754883 22.2746582 C116.68179699 22.06488605 116.68179699 22.06488605 106.37548828 21.88671875 C105.08860107 21.85360596 103.80171387 21.82049316 102.47583008 21.78637695 C101.16138916 21.76019287 99.84694824 21.73400879 98.49267578 21.70703125 C94.831819 21.25544823 92.91551534 20.46480015 89.98754883 18.2746582 C87.65687306 15.05610595 87.52013746 12.16975294 87.98754883 8.2746582 C91.14544356 2.69571083 91.14544356 2.69571083 93.98754883 1.2746582 C99.40623565 0.9882046 104.82616646 0.96068527 110.25170898 0.92456055 C112.06141091 0.90808816 113.87105016 0.88091484 115.68041992 0.8425293 C135.39988779 0.42665935 135.39988779 0.42665935 142.98754883 6.2746582 C147.06628739 10.45287819 148.09739889 13.73299048 148.19287109 19.46679688 C148.21281631 20.53028854 148.23276154 21.59378021 148.25331116 22.6894989 C148.2783799 24.42354729 148.2783799 24.42354729 148.30395508 26.19262695 C148.32473618 27.39663651 148.34551727 28.60064606 148.3669281 29.84114075 C148.41025913 32.40593865 148.45129261 34.97077623 148.49023438 37.53564453 C148.54870408 41.37388234 148.61412192 45.21194775 148.6809082 49.05004883 C148.78604631 55.25721941 148.86862841 61.46441947 148.94049072 67.67205811 C148.98684071 71.22044726 149.05273821 74.76811395 149.11987305 78.31616211 C149.14829682 80.4859094 149.17584966 82.65566834 149.20239258 84.82543945 C149.23762779 86.30707832 149.23762779 86.30707832 149.27357483 87.81864929 C149.34348028 96.47970953 149.34348028 96.47970953 145.98754883 100.2746582 C142.17626762 103.01440592 139.55236678 103.6497424 134.88720703 103.64697266 C133.07425896 103.65631584 133.07425896 103.65631584 131.22468567 103.66584778 C129.92568832 103.65663803 128.62669098 103.64742828 127.28833008 103.63793945 C125.92937724 103.63742004 124.57042365 103.63794086 123.21147156 103.63945007 C120.36433678 103.63936049 117.51748596 103.62896718 114.67041016 103.61083984 C111.04721439 103.58826131 107.42443697 103.58759051 103.80119038 103.59435749 C100.99306114 103.59772536 98.18502462 103.5910131 95.37691307 103.58122826 C93.39966474 103.57557898 91.42240056 103.57680311 89.44514465 103.57820129 C70.83645821 103.43333093 70.83645821 103.43333093 64.27661133 98.33325195 C63.5123584 97.75373779 62.74810547 97.17422363 61.96069336 96.57714844 C61.18580566 95.96170166 60.41091797 95.34625488 59.61254883 94.7121582 C58.3825415 93.7686853 58.3825415 93.7686853 57.12768555 92.80615234 C55.49247393 91.5510543 53.86226736 90.28940392 52.23754883 89.02075195 C50.26772316 87.49208516 48.28033369 85.99770696 46.26879883 84.5246582 C32.25743653 74.25890761 32.25743653 74.25890761 29.30004883 66.4621582 C28.22403554 58.9300652 28.84130563 52.70374462 33.30004883 46.42700195 C40.9474507 38.37244674 54.43657147 36.03315443 64.98754883 34.2746582 C64.98754883 29.9846582 64.98754883 25.6946582 64.98754883 21.2746582 C43.53754883 21.2746582 22.08754883 21.2746582 -0.01245117 21.2746582 C-0.01245117 27.5446582 -0.01245117 33.8146582 -0.01245117 40.2746582 C-2.10309783 48.63724486 -3.90372544 53.41991868 -11.01245117 58.2746582 C-15.18796448 60.34775638 -18.64644088 60.51771869 -23.28125 60.50170898 C-23.99399078 60.50200104 -24.70673157 60.50229309 -25.44107056 60.50259399 C-27.78400073 60.50120678 -30.12660818 60.48567456 -32.46948242 60.4699707 C-34.09901252 60.4662384 -35.72854486 60.46339246 -37.358078 60.46139526 C-41.63738246 60.45377587 -45.91655018 60.43414201 -50.19580078 60.4119873 C-54.56630605 60.39149232 -58.93683352 60.38238574 -63.30737305 60.37231445 C-71.87579503 60.35089445 -80.44410607 60.31677905 -89.01245117 60.2746582 C-88.99674072 61.23766846 -88.98103027 62.20067871 -88.96484375 63.19287109 C-88.91023309 66.79158041 -88.87598892 70.39025364 -88.84765625 73.98925781 C-88.83264012 75.54205501 -88.81222089 77.09481029 -88.78613281 78.64746094 C-88.74943044 80.88918444 -88.7326533 83.13034359 -88.71948242 85.37231445 C-88.70399857 86.05802017 -88.68851471 86.74372589 -88.67256165 87.45021057 C-88.67082208 92.5182741 -89.71871344 95.85321552 -92.01245117 100.2746582 C-94.89124085 102.75361598 -96.67562812 103.23178982 -100.44995117 103.7121582 C-104.64691356 103.19674177 -106.75175658 101.91426811 -110.01245117 99.2746582 C-111.72276669 95.85402718 -111.21924024 91.93871896 -111.25073242 88.1730957 C-111.26284004 86.8074498 -111.26284004 86.8074498 -111.27519226 85.41421509 C-111.28904021 83.48246162 -111.29975918 81.55068361 -111.30761719 79.61889648 C-111.32476205 76.68205364 -111.36863313 73.74635656 -111.4128418 70.80981445 C-111.42297487 68.93091647 -111.43148905 67.05200891 -111.43823242 65.1730957 C-111.45574051 64.30196136 -111.4732486 63.43082703 -111.49128723 62.53329468 C-111.46736982 55.71662684 -109.86236369 50.26302801 -105.08276367 45.2512207 C-104.44081055 44.80520508 -103.79885742 44.35918945 -103.13745117 43.8996582 C-102.5006543 43.43817383 -101.86385742 42.97668945 -101.20776367 42.5012207 C-96.14109342 39.67037647 -91.56578167 39.02713745 -85.8137207 39.04760742 C-85.12034103 39.04731537 -84.42696136 39.04702332 -83.71257019 39.04672241 C-81.44000361 39.04810635 -79.16777238 39.06362282 -76.89526367 39.0793457 C-75.31200337 39.08307917 -73.72874074 39.08592457 -72.14547729 39.08792114 C-67.99277284 39.09553132 -63.84020987 39.11515714 -59.68756104 39.1373291 C-55.44431471 39.15784407 -51.20104537 39.16693491 -46.95776367 39.17700195 C-38.64259482 39.19840567 -30.32754063 39.23250979 -22.01245117 39.2746582 C-22.00310547 38.58952148 -21.99375977 37.90438477 -21.98413086 37.19848633 C-21.93003208 34.05651385 -21.84646293 30.91596753 -21.76245117 27.7746582 C-21.74827148 26.69700195 -21.7340918 25.6193457 -21.71948242 24.5090332 C-21.49955542 17.29542748 -20.71273694 11.15608558 -15.56616211 5.75756836 C-10.39134238 1.2348865 -6.8254972 0.02494251 0 0 Z M-12.32495117 12.7746582 C-14.99412512 16.72898999 -15.13830325 20.13717094 -15.22338867 24.8449707 C-15.25174805 25.90586914 -15.28010742 26.96676758 -15.30932617 28.05981445 C-15.36158822 30.29401682 -15.40580504 32.52842129 -15.44213867 34.76293945 C-15.47307617 35.82125977 -15.50401367 36.87958008 -15.53588867 37.9699707 C-15.55570801 38.93950684 -15.57552734 39.90904297 -15.59594727 40.90795898 C-15.73339355 41.68896973 -15.87083984 42.46998047 -16.01245117 43.2746582 C-19.74710418 45.76442687 -21.67937245 45.52573251 -26.14257812 45.5300293 C-27.2260553 45.53545998 -27.2260553 45.53545998 -28.3314209 45.54100037 C-29.89958241 45.54789208 -31.4677679 45.55040022 -33.03594398 45.54905319 C-35.52056205 45.548088 -38.00474742 45.5610298 -40.48930359 45.57803345 C-47.55321886 45.6243031 -54.61709079 45.64890419 -61.68115234 45.65551758 C-66.00308678 45.66053947 -70.32457096 45.68482557 -74.64635277 45.72084427 C-76.29089845 45.73062874 -77.93550619 45.73298158 -79.5800724 45.72767258 C-81.88524901 45.72058152 -84.18909012 45.73792485 -86.49414062 45.76049805 C-87.80413528 45.76334808 -89.11412994 45.76619812 -90.46382141 45.76913452 C-95.81751622 46.53180059 -98.85746209 48.95540827 -102.36083984 52.95703125 C-104.50586546 57.26579003 -104.53960642 60.61473642 -104.43823242 65.35668945 C-104.43494431 66.21147385 -104.43165619 67.06625824 -104.42826843 67.94694519 C-104.41788918 69.74302859 -104.3980102 71.53907958 -104.36914062 73.33496094 C-104.32481491 76.09564466 -104.30766396 78.85545848 -104.2956543 81.61645508 C-104.28223994 83.36321254 -104.26731966 85.10995924 -104.25073242 86.85668945 C-104.24334549 87.68578323 -104.23595856 88.51487701 -104.22834778 89.36909485 C-104.52181615 93.12889409 -104.52181615 93.12889409 -103.01245117 96.2746582 C-100.55453089 96.60809371 -100.55453089 96.60809371 -98.01245117 96.2746582 C-95.54973194 92.58057935 -95.69917469 89.70813452 -95.66870117 85.4309082 C-95.65407837 84.66540649 -95.63945557 83.89990479 -95.62438965 83.11120605 C-95.5779008 80.66574287 -95.54368927 78.22036094 -95.51245117 75.7746582 C-95.47133536 72.55560615 -95.41768596 69.33712845 -95.35620117 66.1184082 C-95.35092407 65.37772095 -95.34564697 64.63703369 -95.34020996 63.87390137 C-95.26778054 60.14389486 -95.13428711 58.45741211 -93.01245117 55.2746582 C-90.00299072 54.89611816 -90.00299072 54.89611816 -86.08764648 54.88989258 C-85.37522797 54.88451981 -84.66280945 54.87914703 -83.92880249 54.87361145 C-82.37919073 54.86381617 -80.82952401 54.86089459 -79.27988434 54.8639679 C-76.82464885 54.8684372 -74.37013761 54.85446974 -71.91497803 54.83557129 C-66.69748111 54.79872493 -61.48005904 54.78507857 -56.26245117 54.7746582 C-50.22990022 54.76257477 -44.19769987 54.74094882 -38.16530609 54.69465637 C-35.75119685 54.68110811 -33.33753309 54.68525422 -30.92340088 54.69006348 C-29.43387288 54.6807178 -27.94434976 54.67054771 -26.45483398 54.65942383 C-25.15958801 54.65736938 -23.86434204 54.65531494 -22.52984619 54.65319824 C-18.06587214 54.17278791 -14.66916014 52.82118226 -11.36791992 49.73950195 C-7.98436813 45.31485731 -6.89689137 43.24315821 -6.80151367 37.71606445 C-6.7731543 36.60811523 -6.74479492 35.50016602 -6.71557617 34.35864258 C-6.66358302 32.01505117 -6.61928495 29.67127614 -6.58276367 27.32739258 C-6.55182617 26.2181543 -6.52088867 25.10891602 -6.48901367 23.96606445 C-6.46919434 22.94714111 -6.449375 21.92821777 -6.42895508 20.87841797 C-5.93476628 17.78901378 -5.51760306 17.09273865 -3.01245117 15.2746582 C-0.14175415 14.9004364 -0.14175415 14.9004364 3.39916992 14.90234375 C4.04506577 14.89869308 4.69096161 14.89504242 5.35643005 14.89128113 C7.49154972 14.88317574 9.62591018 14.89678761 11.76098633 14.91137695 C13.24687703 14.91189569 14.73276842 14.91137745 16.21865845 14.90986633 C19.33410885 14.90995606 22.44930054 14.92038454 25.56469727 14.93847656 C29.55163668 14.96112443 33.53819675 14.96171509 37.52518272 14.95495892 C40.59475047 14.95161103 43.6642323 14.95826508 46.73378372 14.96808815 C48.2033404 14.97192929 49.67290666 14.97309288 51.1424675 14.9715023 C53.20087495 14.97112993 55.25880343 14.98380043 57.31713867 15 C59.07228287 15.00691109 59.07228287 15.00691109 60.86288452 15.01396179 C63.99923366 15.27563309 66.19931369 15.83501325 68.98754883 17.2746582 C70.69424383 20.6880482 70.29812442 24.4491868 70.36254883 28.2121582 C70.41862305 29.44869141 70.41862305 29.44869141 70.47583008 30.71020508 C70.50917697 32.99076196 70.44378004 35.03999151 69.98754883 37.2746582 C65.57626292 41.72348697 56.92588009 42.85642691 51.00317383 44.58129883 C42.72523199 47.07562689 42.72523199 47.07562689 36.77270508 53.1340332 C35.08782377 57.54204701 34.58693917 60.81302676 36.09301758 65.34887695 C39.21833054 72.0771708 45.03635805 76.12496648 51.07403564 80.1426239 C54.39438274 82.35443239 57.399677 84.58666763 60.24414062 87.38989258 C73.42119119 99.58523968 89.38374077 97.72167547 106.1552124 97.15692139 C110.07386777 97.03970936 113.993355 96.99894902 117.91333008 96.94848633 C123.60791017 96.86177328 129.30069038 96.74967557 134.9934082 96.57861328 C136.69853577 96.52765251 136.69853577 96.52765251 138.43811035 96.47566223 C140.92113532 96.55751894 140.92113532 96.55751894 141.98754883 95.2746582 C142.11443115 92.84782734 142.17673314 90.44879504 142.19628906 88.02026367 C142.20607285 87.26082962 142.21585663 86.50139557 142.22593689 85.71894836 C142.25596837 83.19326545 142.27730276 80.66763603 142.29614258 78.1418457 C142.30600032 76.84896826 142.30600032 76.84896826 142.31605721 75.52997208 C142.34869182 70.96376436 142.3731272 66.39758031 142.39257812 61.83129883 C142.41036485 58.05393346 142.44513576 54.27731835 142.49511719 50.50024414 C142.55538662 45.94080428 142.58606404 41.38205817 142.59575081 36.82223892 C142.60429939 35.08630436 142.62310299 33.35038802 142.65249443 31.61468124 C143.23524187 21.09698067 143.23524187 21.09698067 139.26123047 11.77905273 C134.29409703 7.45177513 129.59554906 6.96560753 123.16723633 6.97387695 C122.05652267 6.96744926 122.05652267 6.96744926 120.92337036 6.96089172 C119.36518371 6.95517042 117.80697037 6.95463189 116.2487793 6.95898438 C113.86306623 6.96215751 111.47857873 6.93861438 109.09301758 6.91333008 C107.57609206 6.91105818 106.05916321 6.91035308 104.54223633 6.91137695 C103.47342728 6.89756233 103.47342728 6.89756233 102.38302612 6.88346863 C98.40698978 6.90980501 98.40698978 6.90980501 95.01538086 8.79736328 C94.67619629 9.28487061 94.33701172 9.77237793 93.98754883 10.2746582 C94.9597399 12.87759597 94.9597399 12.87759597 96.98754883 15.2746582 C99.65972812 15.76675706 101.72272461 15.92736187 104.39379883 15.8762207 C105.11490845 15.88422699 105.83601807 15.89223328 106.57897949 15.90048218 C108.88240738 15.9235688 111.184073 15.91408197 113.48754883 15.8996582 C115.79069444 15.89581242 118.09306051 15.89923063 120.39611816 15.92025757 C121.82844374 15.93235964 123.26098799 15.92965543 124.6932373 15.91055298 C129.53962844 15.93777737 129.53962844 15.93777737 131.65345764 17.52758789 C133.28376569 19.66257148 133.46327706 20.91396628 133.65527344 23.58081055 C133.71963593 24.47209656 133.78399841 25.36338257 133.85031128 26.28167725 C134.1115576 31.979136 134.22836423 37.67354156 134.30395508 43.3762207 C134.32473618 44.69383392 134.34551727 46.01144714 134.3669281 47.36898804 C134.42158764 50.83761889 134.47123937 54.30630319 134.51977539 57.77502441 C134.57040573 61.32833498 134.62587286 64.88156987 134.6809082 68.43481445 C134.78780109 75.38136322 134.8893929 82.32798063 134.98754883 89.2746582 C129.33560172 89.15444513 123.68376353 89.03012397 118.03198242 88.90234375 C116.11794352 88.85960681 114.2038812 88.81790344 112.28979492 88.77734375 C106.74131964 88.65938404 101.19470205 88.51230272 95.64761353 88.34133911 C93.07678783 88.27689519 90.50903327 88.25791106 87.9375 88.24707031 C78.65138503 88.11598279 72.22707035 87.04630642 65.05004883 80.7121582 C63.47118739 79.42760848 61.89176297 78.1437504 60.31176758 76.8605957 C59.57490723 76.24023438 58.83804688 75.61987305 58.07885742 74.98071289 C55.29717776 72.71146499 52.36509844 70.80260465 49.36254883 68.8371582 C45.92205792 66.34226806 45.12503041 65.64960798 43.61254883 61.5246582 C44.02773734 57.9263578 44.53657082 56.85574741 46.98754883 54.2746582 C49.4519043 53.24145508 49.4519043 53.24145508 52.35473633 52.4934082 C53.40532227 52.20852539 54.4559082 51.92364258 55.53833008 51.63012695 C56.63532227 51.34782227 57.73231445 51.06551758 58.86254883 50.7746582 C68.33717691 48.72718612 68.33717691 48.72718612 75.98754883 43.2746582 C78.73376011 38.28590758 79.45930879 33.88673616 79.36254883 28.2746582 C79.37995117 27.26532227 79.37995117 27.26532227 79.39770508 26.2355957 C79.36512536 20.61016384 78.24123724 15.83227914 74.45239258 11.5324707 C61.79869694 2.14737675 37.52771503 6.09477306 22.14581299 5.98855591 C19.96032314 5.9709844 17.77487699 5.94665191 15.58953857 5.91549683 C12.46938645 5.87341254 9.35013782 5.85792435 6.22973633 5.84887695 C5.28678711 5.83141418 4.34383789 5.81395142 3.37231445 5.79595947 C-3.65283182 5.81885364 -7.45662209 7.51159973 -12.32495117 12.7746582 Z " fill="#A58F4F" transform="translate(126.012451171875,38.725341796875)"/>
<path d="M0 0 C3.02089981 1.7475743 5.41608883 3.83217766 7 7 C7.32542291 11.43110665 7.32455369 15.87093145 7.375 20.3125 C7.41238281 21.54935547 7.44976562 22.78621094 7.48828125 24.06054688 C7.58731688 34.24471116 7.58731688 34.24471116 4.72265625 37.29296875 C1.02274818 39.61271025 -1.65978045 40.30576889 -6 40 C-10.05763553 38.49717203 -11.58772494 37.61841259 -14 34 C-14.59109856 29.754408 -14.65221374 25.4687692 -14.8125 21.1875 C-14.87630859 20.01123047 -14.94011719 18.83496094 -15.00585938 17.62304688 C-15.43981777 6.81075963 -15.43981777 6.81075963 -12 2 C-8.63589174 -0.74112525 -4.14470118 -0.80348334 0 0 Z M-5 6 C-5.99 6.66 -6.98 7.32 -8 8 C-8.44922892 10.38609555 -8.44922892 10.38609555 -8.36328125 13.15625 C-8.36263672 14.17847656 -8.36199219 15.20070313 -8.36132812 16.25390625 C-8.34521484 17.32511719 -8.32910156 18.39632812 -8.3125 19.5 C-8.31572266 20.57121094 -8.31894531 21.64242187 -8.32226562 22.74609375 C-8.67080128 28.43185847 -8.67080128 28.43185847 -6 33 C-3.5 33.33333333 -3.5 33.33333333 -1 33 C1.20874304 31.21048072 1.20874304 31.21048072 1.23046875 28.8203125 C1.11927796 21.84561723 0.67851464 14.9426587 0 8 C-2.32854463 6.80161791 -2.32854463 6.80161791 -5 6 Z " fill="#D5C299" transform="translate(29,37)"/>
<path d="M0 0 C0.825 -0.00386719 1.65 -0.00773437 2.5 -0.01171875 C5.19672178 0.74252062 7.11249737 1.62934178 9.01855469 3.72338867 C11.42652291 8.54232011 10.7048873 14.43624159 10.625 19.6875 C10.65400391 21.59402344 10.65400391 21.59402344 10.68359375 23.5390625 C10.62915425 33.88256818 10.62915425 33.88256818 7.6796875 37 C4.29716319 39.13010277 1.99695161 39.6875 -2 39.6875 C-5.73958914 38.07267742 -7.87739238 36.13188614 -10 32.6875 C-10.65261954 28.42043061 -10.50942447 24.12419359 -10.5 19.8125 C-10.54253906 18.05486328 -10.54253906 18.05486328 -10.5859375 16.26171875 C-10.60778042 6.63991377 -10.60778042 6.63991377 -7.78125 2.91015625 C-4.85213427 0.56933202 -3.68991895 -0.10954447 0 0 Z M-2 6.6875 C-4.53054337 9.21804337 -4.25683229 10.12298882 -4.265625 13.625 C-4.26820312 14.60210937 -4.27078125 15.57921875 -4.2734375 16.5859375 C-4.26570313 17.60945313 -4.25796875 18.63296875 -4.25 19.6875 C-4.25773437 20.71101563 -4.26546875 21.73453125 -4.2734375 22.7890625 C-4.27085938 23.76617187 -4.26828125 24.74328125 -4.265625 25.75 C-4.26336914 26.64847656 -4.26111328 27.54695313 -4.25878906 28.47265625 C-4.20808942 30.89292165 -4.20808942 30.89292165 -2 32.6875 C1.30683466 32.39766731 1.30683466 32.39766731 4 30.6875 C4.25156269 27.04850825 4.18522226 23.39666327 4.1875 19.75 C4.19974609 18.72197266 4.21199219 17.69394531 4.22460938 16.63476562 C4.22654297 15.65314453 4.22847656 14.67152344 4.23046875 13.66015625 C4.23457764 12.75531494 4.23868652 11.85047363 4.24291992 10.91821289 C4.21341297 8.48331222 4.21341297 8.48331222 2 6.6875 C0.68 6.6875 -0.64 6.6875 -2 6.6875 Z " fill="#D5C299" transform="translate(116,102.3125)"/>
<path d="M0 0 C1.18916016 -0.020625 2.37832031 -0.04125 3.60351562 -0.0625 C4.75142578 -0.06765625 5.89933594 -0.0728125 7.08203125 -0.078125 C8.13237549 -0.0874707 9.18271973 -0.09681641 10.26489258 -0.10644531 C13.61367214 0.30197655 15.47244626 1.28472644 18.1875 3.25 C20.51817577 6.46855225 20.65491137 9.35490526 20.1875 13.25 C17.02960526 18.82894737 17.02960526 18.82894737 14.1875 20.25 C9.75639335 20.57542291 5.31656855 20.57455369 0.875 20.625 C-0.9802832 20.68107422 -0.9802832 20.68107422 -2.87304688 20.73828125 C-13.05501921 20.83729557 -13.05501921 20.83729557 -16.10546875 17.8515625 C-18.64652563 13.97892203 -19.26217079 11.92657623 -18.8125 7.25 C-13.96698929 -1.31040226 -9.11744199 0.03915166 0 0 Z M-12.8125 9.25 C-12.1525 10.9 -11.4925 12.55 -10.8125 14.25 C-7.00001574 14.27887236 -3.1875593 14.29675492 0.625 14.3125 C1.71361328 14.32087891 2.80222656 14.32925781 3.92382812 14.33789062 C5.47553711 14.34272461 5.47553711 14.34272461 7.05859375 14.34765625 C8.01693115 14.35289307 8.97526855 14.35812988 9.96264648 14.36352539 C12.16035339 14.5005313 12.16035339 14.5005313 13.1875 13.25 C13.4375773 10.79190002 13.4375773 10.79190002 13.1875 8.25 C10.25603667 5.31853667 7.70309254 5.95838557 3.69335938 5.92773438 C2.72205078 5.93095703 1.75074219 5.93417969 0.75 5.9375 C-0.21744141 5.92138672 -1.18488281 5.90527344 -2.18164062 5.88867188 C-3.11041016 5.88802734 -4.03917969 5.88738281 -4.99609375 5.88671875 C-6.27311157 5.88224731 -6.27311157 5.88224731 -7.57592773 5.87768555 C-10.25493735 6.32365102 -11.12872346 7.17536513 -12.8125 9.25 Z " fill="#D5C299" transform="translate(294.8125,39.75)"/>
<path d="M0 0 C0.99 0 1.98 0 3 0 C3 4.62 3 9.24 3 14 C5.64 14 8.28 14 11 14 C11.34933594 13.15695313 11.69867188 12.31390625 12.05859375 11.4453125 C12.51363281 10.34960938 12.96867188 9.25390625 13.4375 8.125 C13.88996094 7.03445312 14.34242188 5.94390625 14.80859375 4.8203125 C15.49543463 3.19441376 16.21065887 1.57868226 17 0 C18.828125 0.1015625 18.828125 0.1015625 21 1 C22.484375 3.8359375 22.484375 3.8359375 23.75 7.375 C24.17796875 8.53773438 24.6059375 9.70046875 25.046875 10.8984375 C26 14 26 14 26 17 C25.01 17 24.02 17 23 17 C22.67 15.68 22.34 14.36 22 13 C19.69 13 17.38 13 15 13 C14.67 14.32 14.34 15.64 14 17 C9.38 17 4.76 17 0 17 C0 11.39 0 5.78 0 0 Z M18 5 C17.67 6.65 17.34 8.3 17 10 C17.99 10 18.98 10 20 10 C19.67 8.35 19.34 6.7 19 5 C18.67 5 18.34 5 18 5 Z " fill="#A5904F" transform="translate(144,168)"/>
<path d="M0 0 C1.32 0 2.64 0 4 0 C4.99 2.64 5.98 5.28 7 8 C7.99 5.36 8.98 2.72 10 0 C11.65 0 13.3 0 15 0 C15 5.28 15 10.56 15 16 C14.01 16 13.02 16 12 16 C11.67 14.02 11.34 12.04 11 10 C10.34 11.98 9.68 13.96 9 16 C8.01 16 7.02 16 6 16 C5.01 13.36 4.02 10.72 3 8 C3 10.64 3 13.28 3 16 C2.01 16 1.02 16 0 16 C0 10.72 0 5.44 0 0 Z " fill="#A68F4F" transform="translate(242,169)"/>
<path d="M0 0 C2.475 0.495 2.475 0.495 5 1 C5.66 3.31 6.32 5.62 7 8 C8.77706209 5.33440687 9.87548273 2.9719385 11 0 C12.32 0 13.64 0 15 0 C15 5.28 15 10.56 15 16 C14.34 16 13.68 16 13 16 C12.67 13.36 12.34 10.72 12 8 C11.01 10.64 10.02 13.28 9 16 C8.01 16 7.02 16 6 16 C5.34 14.35 4.68 12.7 4 11 C3.67 12.65 3.34 14.3 3 16 C2.01 16 1.02 16 0 16 C0 10.72 0 5.44 0 0 Z " fill="#A5904F" transform="translate(108,169)"/>
<path d="M0 0 C8.49609375 -0.09765625 8.49609375 -0.09765625 11 0 C12 1 12 1 12.125 4.375 C12 8 12 8 11 11 C11.87914688 13.6569191 11.87914688 13.6569191 13 16 C11.68 16 10.36 16 9 16 C7.95107762 14.36368108 6.95093297 12.69514137 6 11 C5.01 10.67 4.02 10.34 3 10 C3 11.98 3 13.96 3 16 C2.01 16 1.02 16 0 16 C0 10.72 0 5.44 0 0 Z M3 3 C3 4.32 3 5.64 3 7 C4.98 7 6.96 7 9 7 C9 5.68 9 4.36 9 3 C7.02 3 5.04 3 3 3 Z " fill="#A5904F" transform="translate(91,169)"/>
<path d="M0 0 C1.0209375 -0.01160156 1.0209375 -0.01160156 2.0625 -0.0234375 C4.64386255 0.50740722 5.48781173 1.2200161 7 3.375 C7.43359375 5.96875 7.43359375 5.96875 7.4375 8.875 C7.45683594 9.8340625 7.47617188 10.793125 7.49609375 11.78125 C7 14.375 7 14.375 5.1953125 16.1953125 C1.99873494 17.91304635 -0.43623887 17.76377394 -4 17.375 C-5.69140625 16.1953125 -5.69140625 16.1953125 -7 14.375 C-7.3984375 11.78125 -7.3984375 11.78125 -7.375 8.875 C-7.38273437 7.9159375 -7.39046875 6.956875 -7.3984375 5.96875 C-7 3.375 -7 3.375 -5.7265625 1.5546875 C-3.65395023 0.13855875 -2.49406349 -0.02834163 0 0 Z M-4 4.375 C-4.0979057 5.87238124 -4.12974864 7.37442892 -4.125 8.875 C-4.12757812 9.6896875 -4.13015625 10.504375 -4.1328125 11.34375 C-4.2245178 13.37030377 -4.2245178 13.37030377 -3 14.375 C-0.54190002 14.6250773 -0.54190002 14.6250773 2 14.375 C4.1702792 12.6162636 4.1702792 12.6162636 4.23046875 10.46484375 C4.53754032 6.60814049 4.53754032 6.60814049 3 3.375 C-0.80240375 2.89763947 -0.80240375 2.89763947 -4 4.375 Z " fill="#A58F50" transform="translate(80,168.625)"/>
<path d="M0 0 C1.65 0 3.3 0 5 0 C5.83719383 2.29032311 6.6698929 4.58210957 7.5 6.875 C7.73847656 7.52597656 7.97695312 8.17695313 8.22265625 8.84765625 C10 13.7734375 10 13.7734375 10 16 C9.01 16 8.02 16 7 16 C6.67 14.68 6.34 13.36 6 12 C3.69 12 1.38 12 -1 12 C-1.33 13.32 -1.66 14.64 -2 16 C-2.99 16 -3.98 16 -5 16 C-3.41078475 10.63904723 -1.81027062 5.29156027 0 0 Z M2 4 C1.67 5.65 1.34 7.3 1 9 C1.99 9 2.98 9 4 9 C3.67 7.35 3.34 5.7 3 4 C2.67 4 2.34 4 2 4 Z " fill="#A6914E" transform="translate(229,169)"/>
<path d="M0 0 C3.3 0 6.6 0 10 0 C10 0.99 10 1.98 10 3 C7.36 3 4.72 3 2 3 C2 4.32 2 5.64 2 7 C4.64 7 7.28 7 10 7 C10 7.99 10 8.98 10 10 C7.69 10 5.38 10 3 10 C3 11.32 3 12.64 3 14 C5.31 14 7.62 14 10 14 C10 14.99 10 15.98 10 17 C6.7 17 3.4 17 0 17 C0 11.39 0 5.78 0 0 Z " fill="#A48F4F" transform="translate(212,168)"/>
<path d="M0 0 C0.66 0 1.32 0 2 0 C2.08097324 2.27024968 2.13917704 4.54132075 2.1875 6.8125 C2.22230469 8.07707031 2.25710937 9.34164062 2.29296875 10.64453125 C2 14 2 14 0.7109375 15.9296875 C-2.13760233 17.71165077 -4.74763243 17.29566978 -8 17 C-10 15 -10 15 -10.1953125 11.7421875 C-10.17210938 10.46601563 -10.14890625 9.18984375 -10.125 7.875 C-10.10695313 6.59367188 -10.08890625 5.31234375 -10.0703125 3.9921875 C-10.04710938 3.00476563 -10.02390625 2.01734375 -10 1 C-9.01 1 -8.02 1 -7 1 C-6.67 4.96 -6.34 8.92 -6 13 C-4.68 13 -3.36 13 -2 13 C-1.93941406 12.14535156 -1.87882813 11.29070312 -1.81640625 10.41015625 C-1.73261719 9.30542969 -1.64882812 8.20070312 -1.5625 7.0625 C-1.48128906 5.96035156 -1.40007812 4.85820312 -1.31640625 3.72265625 C-1 1 -1 1 0 0 Z " fill="#A48E50" transform="translate(138,168)"/>
<path d="M0 0 C3.63 0 7.26 0 11 0 C11 0.99 11 1.98 11 3 C8.36 3 5.72 3 3 3 C3 4.32 3 5.64 3 7 C5.64 7 8.28 7 11 7 C11 7.99 11 8.98 11 10 C8.36 10 5.72 10 3 10 C3 12.31 3 14.62 3 17 C2.01 17 1.02 17 0 17 C0 11.39 0 5.78 0 0 Z " fill="#A58F4F" transform="translate(59,169)"/>
<path d="M0 0 C3.96 0 7.92 0 12 0 C12 0.99 12 1.98 12 3 C10.68 3 9.36 3 8 3 C8 7.62 8 12.24 8 17 C7.01 17 6.02 17 5 17 C5 12.38 5 7.76 5 3 C3.35 3 1.7 3 0 3 C0 2.01 0 1.02 0 0 Z " fill="#A6904F" transform="translate(197,168)"/>
<path d="M0 0 C1.32 0 2.64 0 4 0 C4 4.62 4 9.24 4 14 C4.66 14 5.32 14 6 14 C6 14.99 6 15.98 6 17 C3.36 17 0.72 17 -2 17 C-2 16.01 -2 15.02 -2 14 C-1.01 14 -0.02 14 1 14 C0.88637738 12.5199159 0.75877092 11.04089926 0.625 9.5625 C0.55539063 8.73878906 0.48578125 7.91507813 0.4140625 7.06640625 C0.27742187 6.38449219 0.14078125 5.70257813 0 5 C-0.66 4.67 -1.32 4.34 -2 4 C-1.34 2.68 -0.68 1.36 0 0 Z " fill="#A6904F" transform="translate(182,168)"/>
</svg>
