<?xml version="1.0" encoding="UTF-8"?>
<svg version="1.1" xmlns="http://www.w3.org/2000/svg" width="195" height="80">
<path d="M0 0 C64.35 0 128.7 0 195 0 C195 26.4 195 52.8 195 80 C130.65 80 66.3 80 0 80 C0 53.6 0 27.2 0 0 Z " fill="#262121" transform="translate(0,0)"/>
<path d="M0 0 C64.35 0 128.7 0 195 0 C195 26.4 195 52.8 195 80 C130.65 80 66.3 80 0 80 C0 53.6 0 27.2 0 0 Z M4 6 C1.73617744 9.14951353 1.74256181 11.95838254 1.7253418 15.77490234 C1.71580978 16.93645844 1.70627777 18.09801453 1.69645691 19.29476929 C1.69736832 20.5458548 1.69827972 21.79694031 1.69921875 23.0859375 C1.69493362 24.37561432 1.6906485 25.66529114 1.68623352 26.99404907 C1.6787799 29.72263705 1.67905587 32.45109563 1.68432617 35.1796875 C1.6901137 38.66550723 1.67320375 42.15079437 1.6499815 45.63652611 C1.63164842 48.97385164 1.63543065 52.31106195 1.63671875 55.6484375 C1.627509 56.89547455 1.61829926 58.1425116 1.60881042 59.42733765 C1.49948932 67.70656982 1.49948932 67.70656982 5 75 C9.08167723 78.06181062 12.12168267 78.37646045 17.16661072 78.38095093 C17.87718756 78.3856309 18.5877644 78.39031087 19.31987387 78.39513266 C21.69512993 78.40707549 24.06980826 78.3976285 26.44506836 78.38818359 C28.1503381 78.39224966 29.8556052 78.39759174 31.56086731 78.40411377 C36.18899137 78.41779007 40.8169148 78.41248714 45.44504237 78.40297651 C50.28958473 78.39538033 55.13410992 78.40242553 59.97865295 78.40713501 C68.11527591 78.4125932 76.25181718 78.40539982 84.38842773 78.39111328 C93.79233569 78.37479214 103.19604847 78.38007113 112.59995168 78.3965925 C120.67568027 78.41021209 128.75135014 78.41212454 136.82708651 78.40427649 C141.649542 78.39960188 146.4719058 78.39896921 151.29435539 78.40888596 C155.8293196 78.41756001 160.36403255 78.41152566 164.89896965 78.39420319 C166.5622211 78.39024046 168.22549374 78.39136874 169.88873672 78.39799118 C172.16157732 78.40620557 174.43361595 78.39588709 176.70640564 78.38095093 C177.97751662 78.37981985 179.24862761 78.37868877 180.5582571 78.37752342 C184.35094991 77.96150444 186.75706457 76.97931892 190 75 C194.34560066 69.46793222 193.43112085 62.37828844 193.3984375 55.68359375 C193.40130768 54.39437515 193.40417786 53.10515656 193.40713501 51.77687073 C193.41154349 49.0559707 193.40517446 46.33536734 193.39111328 43.61450195 C193.37400462 40.13533442 193.38388171 36.65686041 193.40183067 33.17771816 C193.41530409 29.84628837 193.40585979 26.51504321 193.3984375 23.18359375 C193.40754654 21.31470741 193.40754654 21.31470741 193.4168396 19.4080658 C193.40738312 18.24658524 193.39792664 17.08510468 193.38818359 15.88842773 C193.38460342 14.36003517 193.38460342 14.36003517 193.38095093 12.80076599 C192.92111404 9.4200274 192.12934701 7.66864465 190 5 C185.44005056 2.22187722 182.01536519 1.62246622 176.71313477 1.61231995 C176.0017035 1.60693441 175.29027224 1.60154887 174.55728245 1.59600013 C172.18514522 1.58174888 169.81356826 1.58881696 167.44140625 1.59594727 C165.73598788 1.59024225 164.03057334 1.58327748 162.32516479 1.57514954 C157.70124261 1.55721889 153.07751019 1.55838616 148.45356369 1.56409192 C144.59161419 1.56718346 140.72970116 1.56109181 136.86775684 1.55505317 C127.7571846 1.54101029 118.64670614 1.54256769 109.53613281 1.55395508 C100.13954749 1.56544046 90.74324745 1.55135304 81.34669971 1.5245586 C73.27519375 1.50240496 65.20377736 1.49576334 57.13224316 1.50163502 C52.31311904 1.50500607 47.49417787 1.50257947 42.67507935 1.48538399 C38.14415199 1.46992192 33.61364758 1.4738621 29.08273697 1.49268913 C27.42109381 1.49637685 25.75941936 1.49326119 24.09780502 1.48280334 C21.82700427 1.46960371 19.55760594 1.48112991 17.28686523 1.49879456 C15.38214699 1.49910848 15.38214699 1.49910848 13.43894958 1.49942875 C9.3672906 2.09209677 7.19827185 3.46182543 4 6 Z " fill="#231F20" transform="translate(0,0)"/>
<path d="M0 0 C0.70901685 -0.00453111 1.4180337 -0.00906223 2.14853591 -0.01373065 C4.5244391 -0.02639127 6.90011355 -0.02475322 9.27604675 -0.02310181 C10.97954605 -0.02908607 12.68304264 -0.03589138 14.38653564 -0.04345703 C19.01473484 -0.06113576 23.6428601 -0.06581323 28.27108979 -0.0670886 C32.13532406 -0.06898764 35.99954111 -0.07634531 39.86376876 -0.08343279 C48.9819979 -0.09972186 58.10018755 -0.10460132 67.21842957 -0.10317993 C76.62175798 -0.10197869 86.02485679 -0.12307578 95.42812711 -0.15466726 C103.50299592 -0.18082827 111.57778974 -0.19154728 119.6527006 -0.19026911 C124.47469347 -0.18975938 129.29648237 -0.19544868 134.118433 -0.21662521 C138.65506398 -0.23600436 143.19129639 -0.23613433 147.72794151 -0.22159195 C149.39078224 -0.21950227 151.05364789 -0.22421428 152.71644592 -0.23631287 C154.99136186 -0.25178998 157.2649077 -0.24244254 159.53979492 -0.22705078 C160.81128293 -0.22814032 162.08277094 -0.22922985 163.39278889 -0.2303524 C167.86114322 0.39310823 170.22346082 1.77156023 173.96037292 4.26742554 C176.28752585 7.36257917 176.2178764 10.24027725 176.23503113 14.04232788 C176.24456314 15.20388397 176.25409515 16.36544006 176.26391602 17.56219482 C176.2625489 19.43882309 176.2625489 19.43882309 176.26115417 21.35336304 C176.2654393 22.64303986 176.26972443 23.93271667 176.2741394 25.26147461 C176.28159303 27.99006259 176.28131705 30.71852117 176.27604675 33.44711304 C176.27025922 36.93293276 176.28716918 40.41821991 176.31039143 43.90395164 C176.32872451 47.24127718 176.32494227 50.57848748 176.32365417 53.91586304 C176.33286392 55.16290009 176.34207367 56.40993713 176.3515625 57.69476318 C176.29107216 69.03633562 176.29107216 69.03633562 172.96037292 73.26742554 C168.40218177 76.04796875 164.97498132 76.64496076 159.67350769 76.65510559 C158.96207643 76.66049113 158.25064516 76.66587667 157.51765537 76.6714254 C155.14551815 76.68567665 152.77394119 76.67860857 150.40177917 76.67147827 C148.69636081 76.67718328 146.99094626 76.68414805 145.28553772 76.692276 C140.66161553 76.71020664 136.03788312 76.70903938 131.41393661 76.70333362 C127.55198711 76.70024208 123.69007408 76.70633372 119.82812977 76.71237236 C110.71755753 76.72641524 101.60707907 76.72485785 92.49650574 76.71347046 C83.09992042 76.70198508 73.70362037 76.7160725 64.30707264 76.74286693 C56.23556668 76.76502058 48.16415029 76.7716622 40.09261608 76.76579052 C35.27349197 76.76241947 30.45455079 76.76484607 25.63545227 76.78204155 C21.10452491 76.79750361 16.5740205 76.79356344 12.04310989 76.7747364 C10.38146674 76.77104869 8.71979229 76.77416435 7.05817795 76.78462219 C4.78737719 76.79782183 2.51797887 76.78629563 0.24723816 76.76863098 C-1.02257401 76.7684217 -2.29238617 76.76821241 -3.60067749 76.76799679 C-7.68215071 76.17390022 -9.84963838 74.8364611 -13.03962708 72.26742554 C-15.0953215 68.65859782 -15.29942228 65.48648861 -15.33015442 61.3789978 C-15.34929398 59.63677696 -15.34929398 59.63677696 -15.36882019 57.85935974 C-15.37104584 56.61343552 -15.37327148 55.36751129 -15.37556458 54.08383179 C-15.38222137 52.79556992 -15.38887817 51.50730804 -15.39573669 50.18000793 C-15.4076854 47.45740405 -15.41141992 44.73492683 -15.41023254 42.01229858 C-15.41002927 38.5342249 -15.43734961 35.05696752 -15.47177696 31.57908726 C-15.49943984 28.24732367 -15.49819611 24.91570865 -15.50056458 21.58383179 C-15.51493561 20.33993179 -15.52930664 19.0960318 -15.54411316 17.81443787 C-15.48622144 6.85722194 -15.48622144 6.85722194 -11.03962708 2.26742554 C-7.45378272 -0.11050666 -4.23185103 0.01116524 0 0 Z M-11.8278656 7.10447693 C-13.36691178 9.85161641 -13.4202237 11.73198201 -13.42781067 14.87460327 C-13.43726715 15.99934555 -13.44672363 17.12408783 -13.45646667 18.28291321 C-13.45039398 19.49338821 -13.44432129 20.70386322 -13.43806458 21.95101929 C-13.44093475 23.19867569 -13.44380493 24.44633209 -13.44676208 25.73179626 C-13.44880389 28.37069914 -13.44477532 31.0087687 -13.43074036 33.64755249 C-13.41366576 37.0214114 -13.4234814 40.39455339 -13.44145775 43.76838589 C-13.45493941 46.99595563 -13.44548379 50.22344017 -13.43806458 53.45101929 C-13.44413727 54.65947006 -13.45020996 55.86792084 -13.45646667 57.11299133 C-13.44701019 58.24088577 -13.43755371 59.36878021 -13.42781067 60.53085327 C-13.42542389 61.52028427 -13.42303711 62.50971527 -13.420578 63.52912903 C-12.9602483 66.83800461 -12.07183946 68.62071488 -10.03962708 71.26742554 C-5.98334193 74.29812543 -2.98924002 74.64384363 2.01982117 74.64837646 C3.06836879 74.65539642 3.06836879 74.65539642 4.13809919 74.6625582 C6.47423391 74.67449895 8.809781 74.66505493 11.1459198 74.65560913 C12.82325584 74.65967525 14.50058919 74.66501736 16.17791748 74.67153931 C20.72953168 74.6852139 25.28094183 74.67991367 29.83255959 74.67040205 C34.59615758 74.66280621 39.35973811 74.66985085 44.12333679 74.67456055 C52.1229211 74.68001831 60.12242232 74.67282592 68.12199402 74.65853882 C77.37028077 74.64221227 86.61836911 74.64750076 95.86665106 74.66401803 C103.80733358 74.67763229 111.74795637 74.67955286 119.68864679 74.67170203 C124.43114633 74.66702518 129.1735526 74.666401 133.91604614 74.67631149 C138.37467676 74.68497798 142.83305159 74.67896508 147.29165459 74.66162872 C148.92791252 74.65766218 150.56419199 74.65880081 152.20044136 74.66541672 C154.43422634 74.6736159 156.6671919 74.66333116 158.90092468 74.64837646 C160.15083443 74.64724539 161.40074417 74.64611431 162.68852997 74.64494896 C166.25094885 74.23389727 168.10846539 73.39854552 170.96037292 71.26742554 C173.71036982 67.67885624 174.34197576 65.03842526 174.3802948 60.56259155 C174.39620667 59.4411525 174.41211853 58.31971344 174.42851257 57.16429138 C174.42871399 55.96211472 174.42891541 54.75993805 174.42912292 53.52133179 C174.43673645 52.27746201 174.44434998 51.03359222 174.45219421 49.75202942 C174.46575247 46.4514859 174.46360514 43.15134811 174.45780945 39.85079956 C174.46036897 37.83303962 174.47850179 35.81604485 174.50236511 33.7984314 C174.54518937 29.91403318 174.55424863 26.03094042 174.55412292 22.14633179 C174.57871582 20.34610313 174.57871582 20.34610313 174.60380554 18.50950623 C174.66204203 11.55038551 174.66204203 11.55038551 171.61076355 5.5249939 C167.48944336 2.01450681 164.39549127 2.13946937 159.14143372 2.12698364 C158.09544937 2.12252696 158.09544937 2.12252696 157.02833402 2.11798024 C154.68616954 2.10929216 152.34405616 2.10778491 150.00187683 2.10629272 C148.32483816 2.10166467 146.64780055 2.09664003 144.97076416 2.09124756 C140.41083456 2.07812135 135.85091968 2.07167831 131.29097414 2.0672369 C128.44308429 2.06430686 125.59519846 2.06020221 122.74731064 2.05573273 C113.8396569 2.04205795 104.93201237 2.03239088 96.02434886 2.02853084 C85.73643886 2.02404833 75.44866162 2.00649142 65.16079199 1.97753024 C57.21167179 1.95592827 49.26258898 1.94582737 41.31343973 1.94448972 C36.56418468 1.94344073 31.81505442 1.93751294 27.06583023 1.9196701 C22.59904634 1.90321481 18.13248139 1.90102151 13.66567802 1.90980911 C12.02618639 1.91058082 10.38668311 1.90621916 8.74722099 1.89635086 C6.50897867 1.8836683 4.27151612 1.88948742 2.03327942 1.89993286 C0.78077204 1.8984663 -0.47173534 1.89699974 -1.76219749 1.89548874 C-6.17515134 2.39628971 -8.7631583 3.95611348 -11.8278656 7.10447693 Z " fill="#B09458" transform="translate(17.039627075195313,1.732574462890625)"/>
<path d="M0 0 C4.439902 0.79283964 5.44894557 2.36212938 8.5 5.625 C9.46292371 6.58266363 10.42780865 7.53835884 11.39453125 8.4921875 C12.36845317 9.49356225 13.34110093 10.49617773 14.3125 11.5 C15.06563477 12.23669922 15.06563477 12.23669922 15.83398438 12.98828125 C18.55242776 15.83617432 19.47607208 17.41076682 19.91796875 21.3671875 C19.5 24.625 19.5 24.625 18 26.875 C10.37933905 32.20946266 2.57784852 32.55006631 -6.5 31.625 C-11.03978557 30.47977596 -14.96864737 29.20705967 -18.26953125 25.796875 C-19.80683059 23.08341965 -20.06626975 21.69629355 -19.5 18.625 C-17.6015625 16.5625 -17.6015625 16.5625 -15.125 14.625 C-11.56055764 11.81870887 -9.99355628 9.8991864 -8.5 5.625 C-5.77541979 2.1219683 -4.41188428 0.78783648 0 0 Z " fill="#252121" transform="translate(39.5,22.375)"/>
<path d="M0 0 C4.27561839 3.44715781 8.42472682 8.54728467 9.0625 14.1015625 C9.38662685 22.43064037 8.21160027 27.97868633 2.75390625 34.4140625 C-3.02318397 39.62314145 -9.23924042 39.88584001 -16.72265625 39.81640625 C-21.99827368 39.21397987 -24.76096292 37.3022928 -28.24609375 33.4140625 C-29.03306641 32.59615234 -29.03306641 32.59615234 -29.8359375 31.76171875 C-34.07033682 26.40127418 -33.80569477 20.60107078 -33.8125 14 C-32.93028517 8.41466747 -30.00367695 4.69147924 -25.74609375 1.1015625 C-25.17890625 0.61042969 -24.61171875 0.11929687 -24.02734375 -0.38671875 C-17.5184069 -4.76883194 -6.53967626 -3.79546973 0 0 Z M-22.24609375 7.4140625 C-22.67921875 8.620625 -22.67921875 8.620625 -23.12109375 9.8515625 C-24.44678922 12.87120217 -25.85128775 13.78654887 -28.43359375 15.7890625 C-31.85724491 18.62564377 -31.85724491 18.62564377 -32.74609375 23.0390625 C-30.69196634 27.66084917 -27.77679786 29.37986882 -23.24609375 31.4140625 C-15.15618331 34.1049861 -5.56177501 33.34789196 1.984375 29.58203125 C4.67714146 27.82902329 4.67714146 27.82902329 6.75390625 25.4140625 C7.31308501 22.07097235 7.52771302 19.65546561 5.68164062 16.69384766 C4.19845944 14.94346821 2.64218334 13.33245505 1.00390625 11.7265625 C0.46507812 11.17162109 -0.07375 10.61667969 -0.62890625 10.04492188 C-1.67749375 8.9694803 -2.73565451 7.90327101 -3.80419922 6.84765625 C-5.0431832 5.61580492 -6.23913408 4.34093828 -7.42578125 3.05859375 C-9.26855435 1.10501666 -9.26855435 1.10501666 -12.62109375 0.7890625 C-17.38138609 1.60980256 -19.45330974 3.56826157 -22.24609375 7.4140625 Z " fill="#282322" transform="translate(52.24609375,21.5859375)"/>
<path d="M0 0 C6.28292048 3.27012073 11.76533482 8.42343811 14.3515625 15.12890625 C15.14309198 23.11783168 15.65870001 31.59225594 10.3515625 38.12890625 C4.90452708 43.87928746 -0.48037413 47.25356439 -8.5234375 47.56640625 C-15.66988366 47.37158368 -20.05221271 45.37110039 -25.3984375 40.75390625 C-31.37274516 33.78388065 -33.14795362 28.63545379 -33.046875 19.55859375 C-32.29091066 13.05137126 -29.34974466 8.34605953 -24.31640625 4.21484375 C-16.69696325 -0.97967151 -9.16502724 -3.01445586 0 0 Z M-25.5234375 9.19140625 C-30.82646375 15.5764401 -30.35971788 22.13113731 -29.6484375 30.12890625 C-28.56015781 33.45985576 -27.06462635 35.61773209 -24.6484375 38.12890625 C-24.11347656 38.72574219 -23.57851563 39.32257812 -23.02734375 39.9375 C-18.86564114 43.81280587 -15.29133918 44.57285058 -9.6484375 44.75390625 C-3.92571534 44.46654734 0.94261787 44.00591324 5.3515625 40.12890625 C10.86920563 33.30158079 12.82961642 28.30365554 12.76171875 19.53515625 C12.05024227 13.6265135 9.17805795 9.56226804 4.72265625 5.7265625 C-4.85622586 -1.01946726 -17.87569844 0.67846842 -25.5234375 9.19140625 Z " fill="#A68C54" transform="translate(48.6484375,16.87109375)"/>
<path d="M0 0 C3.00197464 1.80118478 4.45166366 2.90332732 6 6 C6.11970424 10.42905672 5.77010149 13.94752797 3.125 17.5625 C-1.58927306 19.73106561 -5.91197867 19.99166832 -11 19 C-13.90710144 17.29433449 -14.36051277 16.16590638 -16 13 C-16.98392776 8.75836186 -16.46917782 5.77657019 -14.1875 2 C-9.53523208 -0.91907006 -5.35331463 -0.8922191 0 0 Z " fill="#AD9156" transform="translate(111,20)"/>
<path d="M0 0 C4.5277101 0.71490159 5.47093615 2.2468435 8.5625 5.5625 C9.52525977 6.52032844 10.49014858 7.4760211 11.45703125 8.4296875 C12.43095317 9.43106225 13.40360093 10.43367773 14.375 11.4375 C15.12813477 12.17419922 15.12813477 12.17419922 15.89648438 12.92578125 C18.61492776 15.77367432 19.53857208 17.34826682 19.98046875 21.3046875 C19.5625 24.5625 19.5625 24.5625 18.0625 26.8125 C10.44183905 32.14696266 2.64034852 32.48756631 -6.4375 31.5625 C-12.05843856 30.14454008 -16.29852122 28.62789256 -19.4375 23.5625 C-19.8125 20.9375 -19.8125 20.9375 -19.4375 18.5625 C-18.4475 17.9025 -17.4575 17.2425 -16.4375 16.5625 C-16.4375 19.2025 -16.4375 21.8425 -16.4375 24.5625 C-9.58391211 28.21888064 -4.35696703 30.00247039 3.5625 29.5625 C4.5525 28.9025 5.5425 28.2425 6.5625 27.5625 C5.9025 26.9025 5.2425 26.2425 4.5625 25.5625 C4.5625 24.5725 4.5625 23.5825 4.5625 22.5625 C3.5725 22.5625 2.5825 22.5625 1.5625 22.5625 C1.5625 24.2125 1.5625 25.8625 1.5625 27.5625 C0.9025 27.5625 0.2425 27.5625 -0.4375 27.5625 C-0.4375 25.9125 -0.4375 24.2625 -0.4375 22.5625 C-1.0975 22.5625 -1.7575 22.5625 -2.4375 22.5625 C-2.7675 23.8825 -3.0975 25.2025 -3.4375 26.5625 C-4.0975 26.2325 -4.7575 25.9025 -5.4375 25.5625 C-5.1075 24.2425 -4.7775 22.9225 -4.4375 21.5625 C-5.0975 21.8925 -5.7575 22.2225 -6.4375 22.5625 C-6.4375 23.8825 -6.4375 25.2025 -6.4375 26.5625 C-7.4275 26.2325 -8.4175 25.9025 -9.4375 25.5625 C-9.1075 23.9125 -8.7775 22.2625 -8.4375 20.5625 C-3.4875 20.5625 1.4625 20.5625 6.5625 20.5625 C6.5625 22.2125 6.5625 23.8625 6.5625 25.5625 C7.2225 25.5625 7.8825 25.5625 8.5625 25.5625 C8.2325 23.5825 7.9025 21.6025 7.5625 19.5625 C9.8725 18.9025 12.1825 18.2425 14.5625 17.5625 C15.0575 18.5525 15.0575 18.5525 15.5625 19.5625 C15.5625 15.12671221 12.74758458 13.02224498 9.875 9.9375 C9.34455078 9.339375 8.81410156 8.74125 8.26757812 8.125 C5.92208914 5.58093588 4.16521209 3.81093936 0.9375 2.48046875 C-2.15956873 2.58743987 -3.38544034 3.53621317 -5.75 5.5 C-6.44738281 6.06589844 -7.14476562 6.63179687 -7.86328125 7.21484375 C-8.38277344 7.65957031 -8.90226562 8.10429687 -9.4375 8.5625 C-7.14322603 3.79361611 -5.52003063 0.90327774 0 0 Z " fill="#756340" transform="translate(39.4375,22.4375)"/>
<path d="M0 0 C1.17949219 0.01804687 2.35898438 0.03609375 3.57421875 0.0546875 C4.92966797 0.08949219 4.92966797 0.08949219 6.3125 0.125 C6.3125 1.775 6.3125 3.425 6.3125 5.125 C2.4375 4.25 2.4375 4.25 1.3125 3.125 C-0.68708364 3.08419217 -2.68795254 3.08245644 -4.6875 3.125 C-4.6875 3.785 -4.6875 4.445 -4.6875 5.125 C-3.98882812 5.39054687 -3.29015625 5.65609375 -2.5703125 5.9296875 C-1.66023437 6.28289063 -0.75015625 6.63609375 0.1875 7 C1.09242188 7.34804688 1.99734375 7.69609375 2.9296875 8.0546875 C5.3125 9.125 5.3125 9.125 7.3125 11.125 C7.6875 13.5625 7.6875 13.5625 7.3125 16.125 C4.27645374 19.07612189 1.92244252 19.57958566 -2.25 19.625 C-5.1796875 19.5546875 -5.1796875 19.5546875 -7.6875 19.125 C-9.95047338 16.66805747 -10.6875 15.4453746 -10.6875 12.125 C-8.21949953 13.27673355 -6.63966435 14.17283565 -4.6875 16.125 C-1.60402174 16.29181109 -1.60402174 16.29181109 1.3125 16.125 C1.3125 15.135 1.3125 14.145 1.3125 13.125 C0.68601563 12.93164062 0.05953125 12.73828125 -0.5859375 12.5390625 C-1.40320313 12.27867188 -2.22046875 12.01828125 -3.0625 11.75 C-4.28066406 11.36714844 -4.28066406 11.36714844 -5.5234375 10.9765625 C-7.6875 10.125 -7.6875 10.125 -9.6875 8.125 C-10 5.125 -10 5.125 -9.6875 2.125 C-6.05554504 -0.29630331 -4.30400652 -0.08522785 0 0 Z " fill="#AD9157" transform="translate(171.6875,19.875)"/>
<path d="M0 0 C2.97 0 5.94 0 9 0 C9 0.66 9 1.32 9 2 C8.34 2 7.68 2 7 2 C7.14029419 4.1462026 7.28738164 6.29196218 7.4375 8.4375 C7.51871094 9.63246094 7.59992188 10.82742187 7.68359375 12.05859375 C7.67656114 14.88570244 7.67656114 14.88570244 9 16 C12 16.16666667 12 16.16666667 15 16 C16.87824891 14.12175109 16.39102397 10.96064724 16.5625 8.4375 C16.64628906 7.23996094 16.73007813 6.04242188 16.81640625 4.80859375 C16.90728516 3.41833984 16.90728516 3.41833984 17 2 C16.01 2 15.02 2 14 2 C14 1.34 14 0.68 14 0 C16.64 0 19.28 0 22 0 C22 0.66 22 1.32 22 2 C21.34 2 20.68 2 20 2 C20.04640625 2.89203125 20.0928125 3.7840625 20.140625 4.703125 C20.19476563 6.45882813 20.19476563 6.45882813 20.25 8.25 C20.29640625 9.41015625 20.3428125 10.5703125 20.390625 11.765625 C20 15 20 15 18.296875 17.390625 C15.62323644 19.26399079 14.23723492 19.53947847 11 19.5 C10.154375 19.5103125 9.30875 19.520625 8.4375 19.53125 C5.11822937 18.80781922 3.96592313 17.75950677 2 15 C1.609375 11.765625 1.609375 11.765625 1.75 8.25 C1.78609375 7.07953125 1.8221875 5.9090625 1.859375 4.703125 C1.90578125 3.81109375 1.9521875 2.9190625 2 2 C1.34 2 0.68 2 0 2 C0 1.34 0 0.68 0 0 Z " fill="#A88E55" transform="translate(139,20)"/>
<path d="M0 0 C2.125 0.9375 2.125 0.9375 4 2 C3.21625 2.433125 2.4325 2.86625 1.625 3.3125 C-1.21698375 4.89220247 -1.21698375 4.89220247 -3 8 C-3.31084314 10.57133871 -3.31084314 10.57133871 -3.2746582 13.49365234 C-3.28419022 14.61847015 -3.29372223 15.74328796 -3.30354309 16.90219116 C-3.30263168 18.11782745 -3.30172028 19.33346375 -3.30078125 20.5859375 C-3.30506638 21.83500885 -3.3093515 23.0840802 -3.31376648 24.3710022 C-3.31951489 27.01570661 -3.32093963 29.66002142 -3.31567383 32.3046875 C-3.30988655 35.68638764 -3.32679237 39.06753876 -3.3500185 42.44914818 C-3.36833616 45.68224036 -3.36456962 48.91530279 -3.36328125 52.1484375 C-3.372491 53.36002533 -3.38170074 54.57161316 -3.39118958 55.81991577 C-3.38496078 56.9510379 -3.37873199 58.08216003 -3.37231445 59.24755859 C-3.37294388 60.2400058 -3.3735733 61.232453 -3.3742218 62.25497437 C-2.79831808 66.47939549 -1.06509476 69.11749291 2.1875 71.8125 C2.785625 72.204375 3.38375 72.59625 4 73 C2.3125 73.8125 2.3125 73.8125 0 74 C-3.03169839 71.46183391 -4.74169637 69.77491089 -6 66 C-6.10835161 64.11506387 -6.1588409 62.22658345 -6.17700195 60.33862305 C-6.18983719 59.17699142 -6.20267242 58.0153598 -6.21589661 56.81852722 C-6.22328354 55.56228043 -6.23067047 54.30603363 -6.23828125 53.01171875 C-6.246353 51.72062698 -6.25442474 50.42953522 -6.26274109 49.09931946 C-6.27775386 46.3647983 -6.28759857 43.63030298 -6.29516602 40.89575195 C-6.30622291 37.40197547 -6.34061972 33.9088372 -6.38033772 30.41528606 C-6.41285029 27.07245631 -6.41728634 23.72969438 -6.42578125 20.38671875 C-6.44328934 19.13654465 -6.46079742 17.88637054 -6.47883606 16.59831238 C-6.45166534 5.72202826 -6.45166534 5.72202826 -2 1 C-1.34 0.67 -0.68 0.34 0 0 Z " fill="#B09458" transform="translate(8,3)"/>
<path d="M0 0 C1.875 1 1.875 1 3 3 C3.39174433 7.11331542 3.56377991 9.74715576 1.875 13.5 C0 15 0 15 -3 15.5 C-6 15 -6 15 -7.875 13.5 C-9.56377991 9.74715576 -9.39174433 7.11331542 -9 3 C-6.89283346 -0.74607384 -4.00604938 -0.50075617 0 0 Z " fill="#262221" transform="translate(109,22)"/>
<path d="M0 0 C1.18851563 0.00902344 2.37703125 0.01804687 3.6015625 0.02734375 C4.51679687 0.03894531 5.43203125 0.05054688 6.375 0.0625 C6.045 1.0525 5.715 2.0425 5.375 3.0625 C3.89 3.15724609 3.89 3.15724609 2.375 3.25390625 C-5.06167226 3.88453154 -10.7194129 4.7112052 -16.20703125 10.2109375 C-20.95530962 16.41116876 -20.4335835 23.58899036 -19.625 31.0625 C-18.56021926 33.58532544 -17.43497793 35.43019389 -15.71875 37.546875 C-14.625 39.0625 -14.625 39.0625 -14.625 42.0625 C-18.10405046 40.90281651 -18.43638872 40.22502073 -20.25 37.1875 C-20.67539062 36.48882812 -21.10078125 35.79015625 -21.5390625 35.0703125 C-24.58756643 29.43386999 -24.34810485 23.28687315 -23.625 17.0625 C-19.88616085 6.58804223 -10.98033216 -0.10765032 0 0 Z " fill="#967E4E" transform="translate(39.625,15.9375)"/>
<path d="M0 0 C6.27 0 12.54 0 19 0 C19.33 1.65 19.66 3.3 20 5 C19.34 5 18.68 5 18 5 C17.67 4.34 17.34 3.68 17 3 C14.525 2.505 14.525 2.505 12 2 C12 6.95 12 11.9 12 17 C12.99 17 13.98 17 15 17 C15 17.66 15 18.32 15 19 C11.37 19 7.74 19 4 19 C4 18.34 4 17.68 4 17 C4.99 17 5.98 17 7 17 C7 12.05 7 7.1 7 2 C5.35 2.33 3.7 2.66 2 3 C1.67 3.66 1.34 4.32 1 5 C0.34 5 -0.32 5 -1 5 C-0.67 3.35 -0.34 1.7 0 0 Z " fill="#A78C54" transform="translate(118,20)"/>
<path d="M0 0 C-0.020625 1.0725 -0.04125 2.145 -0.0625 3.25 C-0.15643763 6.79575381 -0.15643763 6.79575381 0.625 9.3125 C0.74875 9.869375 0.8725 10.42625 1 11 C-1 13 -1 13 -4.8125 13.25 C-8.25275166 13.17480324 -10.88901279 12.55549361 -14 11 C-11.76725304 2.93166441 -11.76725304 2.93166441 -9.25 -0.125 C-5.96446845 -1.40270671 -3.38439226 -0.71592913 0 0 Z " fill="#605138" transform="translate(45,28)"/>
<path d="M0 0 C0.99 0.33 1.98 0.66 3 1 C1.515 3.475 1.515 3.475 0 6 C1.32 5.67 2.64 5.34 4 5 C4.99 6.485 4.99 6.485 6 8 C6.33 6.68 6.66 5.36 7 4 C7.66 4 8.32 4 9 4 C9.33 5.32 9.66 6.64 10 8 C10.33 7.01 10.66 6.02 11 5 C11.66 5 12.32 5 13 5 C13 6.65 13 8.3 13 10 C13.66 10 14.32 10 15 10 C15 8.35 15 6.7 15 5 C15.99 5 16.98 5 18 5 C18.33 5.99 18.66 6.98 19 8 C19.99 8.66 20.98 9.32 22 10 C22 10.66 22 11.32 22 12 C14.21533982 13.88719035 7.3571833 12.9946324 0 10 C-2.30078125 8.39453125 -2.30078125 8.39453125 -4 7 C-3.6875 4.625 -3.6875 4.625 -3 2 C-2.01 1.34 -1.02 0.68 0 0 Z " fill="#373028" transform="translate(26,40)"/>
<path d="M0 0 C3.63 0 7.26 0 11 0 C11 0.66 11 1.32 11 2 C10.01 2 9.02 2 8 2 C8 6.95 8 11.9 8 17 C13.81578053 15.4151283 13.81578053 15.4151283 19 13 C18.125 17.875 18.125 17.875 17 19 C14.13732433 19.07325168 11.299281 19.09238205 8.4375 19.0625 C7.63119141 19.05798828 6.82488281 19.05347656 5.99414062 19.04882812 C3.99606244 19.03700518 1.99802217 19.01906914 0 19 C0 18.34 0 17.68 0 17 C0.99 17 1.98 17 3 17 C3 12.05 3 7.1 3 2 C2.01 2 1.02 2 0 2 C0 1.34 0 0.68 0 0 Z " fill="#A78D54" transform="translate(75,20)"/>
<path d="M0 0 C0.66 0 1.32 0 2 0 C2.06965285 7.58894909 2.12288865 15.17786484 2.15543652 22.76706123 C2.17106162 26.29143732 2.19224144 29.81559394 2.22631836 33.33984375 C2.26528952 37.39585421 2.27973523 41.4516358 2.29296875 45.5078125 C2.30845261 46.76739777 2.32393646 48.02698303 2.33988953 49.32473755 C2.34022942 51.09589432 2.34022942 51.09589432 2.34057617 52.90283203 C2.34723801 53.93763702 2.35389984 54.97244202 2.36076355 56.03860474 C1.92945003 59.5791227 0.84863049 61.96341325 -1 65 C-3.6875 66.375 -3.6875 66.375 -6 67 C-6.66 66.34 -7.32 65.68 -8 65 C-7.21625 64.5875 -6.4325 64.175 -5.625 63.75 C-2.78801773 61.85867849 -2.18000621 61.10457972 -1 58 C-0.67412437 55.25340875 -0.67412437 55.25340875 -0.68115234 52.22167969 C-0.66128265 51.0607782 -0.64141296 49.89987671 -0.62094116 48.70379639 C-0.60361435 46.8317453 -0.60361435 46.8317453 -0.5859375 44.921875 C-0.56657135 43.64016418 -0.5472052 42.35845337 -0.5272522 41.03790283 C-0.47599373 37.63825635 -0.43633471 34.23857035 -0.39910889 30.83874512 C-0.35902959 27.36635613 -0.30795522 23.89413067 -0.2578125 20.421875 C-0.16112787 13.61470291 -0.07669935 6.8074258 0 0 Z " fill="#B09558" transform="translate(191,10)"/>
<path d="M0 0 C4.29425875 1.07356469 4.74740471 1.5084773 7 5 C7.433125 4.175 7.86625 3.35 8.3125 2.5 C8.869375 1.675 9.42625 0.85 10 0 C10.99 0 11.98 0 13 0 C13 4.62 13 9.24 13 14 C12.01 14 11.02 14 10 14 C9.67 12.35 9.34 10.7 9 9 C8.67 9.66 8.34 10.32 8 11 C7.01 11 6.02 11 5 11 C4.67 10.34 4.34 9.68 4 9 C3.67 10.65 3.34 12.3 3 14 C2.01 14 1.02 14 0 14 C0 9.38 0 4.76 0 0 Z " fill="#AC9156" transform="translate(166,46)"/>
<path d="M0 0 C1.859375 0.16015625 1.859375 0.16015625 4 1 C5.265625 3.43359375 5.265625 3.43359375 6.25 6.4375 C6.58515625 7.42621094 6.9203125 8.41492188 7.265625 9.43359375 C8 12 8 12 8 14 C7.01 14 6.02 14 5 14 C5 13.34 5 12.68 5 12 C3.02 12 1.04 12 -1 12 C-1 12.66 -1 13.32 -1 14 C-1.99 14 -2.98 14 -4 14 C-3.36843005 8.94744036 -1.86540627 4.70406799 0 0 Z " fill="#967F4E" transform="translate(151,46)"/>
<path d="M0 0 C2.97 0 5.94 0 9 0 C9 0.66 9 1.32 9 2 C7.02 2 5.04 2 3 2 C3 3.32 3 4.64 3 6 C4.65 6 6.3 6 8 6 C8 6.66 8 7.32 8 8 C6.35 8 4.7 8 3 8 C3 8.99 3 9.98 3 11 C5.31 11 7.62 11 10 11 C10 11.99 10 12.98 10 14 C6.7 14 3.4 14 0 14 C0 9.38 0 4.76 0 0 Z " fill="#B5985A" transform="translate(131,46)"/>
<path d="M0 0 C4.95 0 9.9 0 15 0 C15 1.65 15 3.3 15 5 C15.66 5 16.32 5 17 5 C16.67 3.35 16.34 1.7 16 0 C16.66 0 17.32 0 18 0 C18.33 1.65 18.66 3.3 19 5 C17.35 5.33 15.7 5.66 14 6 C13.67 4.68 13.34 3.36 13 2 C12.01 2 11.02 2 10 2 C10 3.65 10 5.3 10 7 C9.34 7 8.68 7 8 7 C8 5.35 8 3.7 8 2 C7.34 2 6.68 2 6 2 C5.67 3.32 5.34 4.64 5 6 C4.34 5.67 3.68 5.34 3 5 C3.33 3.68 3.66 2.36 4 1 C3.01 1.495 3.01 1.495 2 2 C2 3.32 2 4.64 2 6 C1.01 5.67 0.02 5.34 -1 5 C-0.67 3.35 -0.34 1.7 0 0 Z " fill="#836E46" transform="translate(31,43)"/>
<path d="M0 0 C0.66 0 1.32 0 2 0 C2 1.65 2 3.3 2 5 C2.66 5 3.32 5 4 5 C4 3.35 4 1.7 4 0 C4.99 0 5.98 0 7 0 C7.33 0.99 7.66 1.98 8 3 C8.99 3.66 9.98 4.32 11 5 C11 5.66 11 6.32 11 7 C6.16025288 8.17327203 1.26743879 8.9302313 -3.4375 7 C-3.953125 6.67 -4.46875 6.34 -5 6 C-4.360625 5.566875 -3.72125 5.13375 -3.0625 4.6875 C-0.73253997 3.08760823 -0.73253997 3.08760823 0 0 Z " fill="#2E2824" transform="translate(37,45)"/>
<path d="M0 0 C3.3 0 6.6 0 10 0 C10 0.66 10 1.32 10 2 C7.69 2 5.38 2 3 2 C3 3.32 3 4.64 3 6 C4.98 6 6.96 6 9 6 C9 6.66 9 7.32 9 8 C7.02 8 5.04 8 3 8 C3 9.98 3 11.96 3 14 C2.01 14 1.02 14 0 14 C0 9.38 0 4.76 0 0 Z " fill="#AD9157" transform="translate(75,46)"/>
<path d="M0 0 C14.69191025 -1.03302494 14.69191025 -1.03302494 19.6875 2.6875 C21.484375 4.359375 21.484375 4.359375 23 6 C23.804375 6.804375 24.60875 7.60875 25.4375 8.4375 C27.37577117 11.61626471 27.71133647 14.31954002 28 18 C25.1552039 14.25684723 25.1552039 14.25684723 24.00390625 12.3515625 C20.7051685 7.1238051 16.82387608 4.12504791 11 2 C7.32814598 1.36038672 3.72397571 1.07656772 0 1 C0 0.67 0 0.34 0 0 Z " fill="#AB9056" transform="translate(34,17)"/>
<path d="M0 0 C2.97 0 5.94 0 9 0 C9 0.66 9 1.32 9 2 C8.01 2 7.02 2 6 2 C6.03480469 2.67546875 6.06960937 3.3509375 6.10546875 4.046875 C6.13253906 4.93890625 6.15960938 5.8309375 6.1875 6.75 C6.22230469 7.63171875 6.25710937 8.5134375 6.29296875 9.421875 C5.94923684 12.44671583 4.99772541 13.75583602 3 16 C2 15 2 15 1.90234375 12.05859375 C1.91394531 10.86363281 1.92554688 9.66867188 1.9375 8.4375 C1.94652344 7.23996094 1.95554688 6.04242188 1.96484375 4.80859375 C1.97644531 3.88175781 1.98804688 2.95492188 2 2 C1.34 2 0.68 2 0 2 C0 1.34 0 0.68 0 0 Z " fill="#AD9156" transform="translate(139,20)"/>
<path d="M0 0 C3.63 0 7.26 0 11 0 C10.67 0.99 10.34 1.98 10 3 C9.01 3 8.02 3 7 3 C7 6.63 7 10.26 7 14 C6.01 14 5.02 14 4 14 C4 10.04 4 6.08 4 2 C2.68 2 1.36 2 0 2 C0 1.34 0 0.68 0 0 Z " fill="#AA8F56" transform="translate(113,46)"/>
<path d="M0 0 C0.66 0.33 1.32 0.66 2 1 C2 1.33 2 1.66 2 2 C3.32 2.33 4.64 2.66 6 3 C5.67 4.98 5.34 6.96 5 9 C4.01 8.67 3.02 8.34 2 8 C2 7.34 2 6.68 2 6 C1.34 6 0.68 6 0 6 C1.70625501 8.78388975 2.47626739 9.85384206 5.6875 10.75 C6.450625 10.8325 7.21375 10.915 8 11 C8 11.33 8 11.66 8 12 C3.45194365 12.17835515 0.1205746 11.99785435 -4 10 C-3.52449439 8.51965236 -3.04448784 7.04074979 -2.5625 5.5625 C-2.29566406 4.73878906 -2.02882812 3.91507813 -1.75390625 3.06640625 C-1 1 -1 1 0 0 Z " fill="#937C4C" transform="translate(35,29)"/>
<path d="M0 0 C5 2 5 2 7.1875 3.0625 C11.37042736 4.45680912 15.61997367 4.67681359 20 5 C16.09643093 7.12150493 13.48858092 7.44885809 9 7 C6.14048138 5.96711338 3.46221849 4.79561787 1 3 C0.67 2.01 0.34 1.02 0 0 Z " fill="#A98E55" transform="translate(25,57)"/>
<path d="M0 0 C0.33 0 0.66 0 1 0 C1.33 4.29 1.66 8.58 2 13 C3.98 13.66 5.96 14.32 8 15 C5 17 5 17 -2 16 C-1.34 10.72 -0.68 5.44 0 0 Z " fill="#9F8551" transform="translate(145,22)"/>
<path d="M0 0 C1.32 0.33 2.64 0.66 4 1 C4 2.98 4 4.96 4 7 C3.01 7 2.02 7 1 7 C0.67 7.66 0.34 8.32 0 9 C-0.66 9 -1.32 9 -2 9 C-1.125 2.25 -1.125 2.25 0 0 Z " fill="#A78C54" transform="translate(151,46)"/>
<path d="M0 0 C0 4.62 0 9.24 0 14 C-0.66 14 -1.32 14 -2 14 C-2 10.37 -2 6.74 -2 3 C-2.99 3.33 -3.98 3.66 -5 4 C-5 3.01 -5 2.02 -5 1 C-3 0 -3 0 0 0 Z " fill="#B6995A" transform="translate(96,46)"/>
<path d="M0 0 C0.33 0.99 0.66 1.98 1 3 C3.31 3 5.62 3 8 3 C8 3.99 8 4.98 8 6 C4.7 6 1.4 6 -2 6 C-1.34 4.02 -0.68 2.04 0 0 Z " fill="#9F8651" transform="translate(133,54)"/>
<path d="M0 0 C0.99 0.33 1.98 0.66 3 1 C1.68 3.64 0.36 6.28 -1 9 C-1.99 8.34 -2.98 7.68 -4 7 C-3.6875 4.625 -3.6875 4.625 -3 2 C-2.01 1.34 -1.02 0.68 0 0 Z " fill="#534733" transform="translate(26,40)"/>
<path d="M0 0 C0.66 1.32 1.32 2.64 2 4 C0.35 5.65 -1.3 7.3 -3 9 C-4.32 8.34 -5.64 7.68 -7 7 C-6.21625 6.5875 -5.4325 6.175 -4.625 5.75 C-1.94108344 3.9607223 -1.11901051 2.95011861 0 0 Z " fill="#A08751" transform="translate(190,68)"/>
<path d="M0 0 C-2.35968744 2.09749995 -3.54616994 2.96905704 -6.75 3.1875 C-7.86375 3.0946875 -7.86375 3.0946875 -9 3 C-9 2.67 -9 2.34 -9 2 C-11.97 1.505 -11.97 1.505 -15 1 C-15 0.67 -15 0.34 -15 0 C-13.25093341 -0.19601608 -11.50068154 -0.38147403 -9.75 -0.5625 C-8.77546875 -0.66691406 -7.8009375 -0.77132812 -6.796875 -0.87890625 C-4.2368648 -0.98974468 -2.41851841 -0.77738092 0 0 Z " fill="#8A7448" transform="translate(50,61)"/>
<path d="M0 0 C0.66 0 1.32 0 2 0 C1.67 1.98 1.34 3.96 1 6 C1.99 6.33 2.98 6.66 4 7 C1.36 7 -1.28 7 -4 7 C-4.33 6.34 -4.66 5.68 -5 5 C-4.360625 4.731875 -3.72125 4.46375 -3.0625 4.1875 C-0.66868314 3.11332248 -0.66868314 3.11332248 0 0 Z " fill="#201D1F" transform="translate(37,45)"/>
<path d="M0 0 C2 3 2 3 1.625 5.1875 C1.41875 5.785625 1.2125 6.38375 1 7 C-0.32 6.67 -1.64 6.34 -3 6 C-2.01 6 -1.02 6 0 6 C0 5.34 0 4.68 0 4 C-1.32 4 -2.64 4 -4 4 C-4 3.01 -4 2.02 -4 1 C-2 0 -2 0 0 0 Z " fill="#806C45" transform="translate(54,40)"/>
<path d="M0 0 C2.97 0.495 2.97 0.495 6 1 C6 1.99 6 2.98 6 4 C4.02 4 2.04 4 0 4 C0 2.68 0 1.36 0 0 Z " fill="#64543A" transform="translate(98,45)"/>
<path d="M0 0 C3.16115776 1.36983503 3.9927092 1.9890638 6 5 C5.67 5.66 5.34 6.32 5 7 C3.0625 6.3125 3.0625 6.3125 1 5 C0.25 2.375 0.25 2.375 0 0 Z " fill="#A68B54" transform="translate(161,32)"/>
<path d="M0 0 C1.32 0 2.64 0 4 0 C4 1.65 4 3.3 4 5 C2.68 4.67 1.36 4.34 0 4 C0 2.68 0 1.36 0 0 Z " fill="#9E8550" transform="translate(174,20)"/>
<path d="M0 0 C2.49361571 1.20381448 4.68143083 2.45428722 7 4 C5.25 4.75 5.25 4.75 3 5 C0.75 3.0625 0.75 3.0625 -1 1 C-0.67 0.67 -0.34 0.34 0 0 Z " fill="#9F8551" transform="translate(5,72)"/>
<path d="M0 0 C0.66 0 1.32 0 2 0 C0.8141763 3.37503669 -0.27573689 5.64722731 -3 8 C-2.25 2.25 -2.25 2.25 0 0 Z " fill="#AE9257" transform="translate(21,25)"/>
<path d="M0 0 C1.32 0.66 2.64 1.32 4 2 C2.02 2.99 0.04 3.98 -2 5 C-2.66 4.34 -3.32 3.68 -4 3 C-2.68 2.01 -1.36 1.02 0 0 Z " fill="#9D8450" transform="translate(8,3)"/>
</svg>
