<?xml version="1.0" encoding="UTF-8"?>
<svg version="1.1" xmlns="http://www.w3.org/2000/svg" width="1024" height="1024">
<path d="M0 0 C2.30876995 1.05173849 4.62525014 2.08371585 6.94482422 3.11132812 C52.16049427 23.43597453 91.98960151 54.61406206 126.91748047 89.40820312 C127.76189697 90.24794678 128.60631348 91.08769043 129.47631836 91.95288086 C134.3710606 96.86022966 139.06267246 101.86985748 143.54248047 107.15820312 C144.08469238 107.79371094 144.6269043 108.42921875 145.18554688 109.08398438 C154.20218669 119.71885828 162.57016068 130.72278216 170.54248047 142.15820312 C170.9747998 142.77308594 171.40711914 143.38796875 171.85253906 144.02148438 C180.18309009 155.92509946 187.38779039 168.52439956 194.54248047 181.15820312 C194.97979492 181.92922363 195.41710937 182.70024414 195.86767578 183.49462891 C223.58807318 232.83510503 238.75401129 290.00133298 243.54248047 346.15820312 C243.65462891 347.39570313 243.76677734 348.63320313 243.88232422 349.90820312 C249.04998028 418.99905675 236.41776219 489.61791593 207.70068359 552.61572266 C206.6489451 554.9244926 205.61696774 557.24097279 204.58935547 559.56054688 C184.26470907 604.77621693 153.08662154 644.60532417 118.29248047 679.53320312 C117.45273682 680.37761963 116.61299316 681.22203613 115.74780273 682.09204102 C110.84045393 686.98678325 105.83082611 691.67839511 100.54248047 696.15820312 C99.58921875 696.971521 99.58921875 696.971521 98.61669922 697.80126953 C87.98182532 706.81790935 76.97790144 715.18588334 65.54248047 723.15820312 C64.92759766 723.59052246 64.31271484 724.0228418 63.67919922 724.46826172 C51.77558413 732.79881274 39.17628403 740.00351305 26.54248047 747.15820312 C25.77145996 747.59551758 25.00043945 748.03283203 24.20605469 748.48339844 C-25.13442144 776.20379583 -82.30064938 791.36973395 -138.45751953 796.15820312 C-139.69501953 796.27035156 -140.93251953 796.3825 -142.20751953 796.49804688 C-211.29837315 801.66570293 -281.91723234 789.03348484 -344.91503906 760.31640625 C-347.22380901 759.26466776 -349.5402892 758.2326904 -351.85986328 757.20507812 C-397.07553333 736.88043172 -436.90464057 705.70234419 -471.83251953 670.90820312 C-472.67693604 670.06845947 -473.52135254 669.22871582 -474.39135742 668.36352539 C-479.28609966 663.45617659 -483.97771152 658.44654877 -488.45751953 653.15820312 C-489.2708374 652.20494141 -489.2708374 652.20494141 -490.10058594 651.23242188 C-499.11722576 640.59754797 -507.48519975 629.59362409 -515.45751953 618.15820312 C-516.10599854 617.23587891 -516.10599854 617.23587891 -516.76757812 616.29492188 C-525.09812915 604.39130679 -532.30282946 591.79200669 -539.45751953 579.15820312 C-539.89483398 578.38718262 -540.33214844 577.61616211 -540.78271484 576.82177734 C-568.50311224 527.48130122 -583.66905035 470.31507327 -588.45751953 414.15820312 C-588.62574219 412.30195312 -588.62574219 412.30195312 -588.79736328 410.40820312 C-593.96501934 341.3173495 -581.33280125 270.69849032 -552.61572266 207.70068359 C-551.56398417 205.39191365 -550.5320068 203.07543346 -549.50439453 200.75585938 C-529.17974813 155.54018932 -498.0016606 115.71108208 -463.20751953 80.78320312 C-462.36777588 79.93878662 -461.52803223 79.09437012 -460.6628418 78.22436523 C-455.75549299 73.329623 -450.74586518 68.63801114 -445.45751953 64.15820312 C-444.82201172 63.61599121 -444.18650391 63.0737793 -443.53173828 62.51513672 C-432.89686438 53.4984969 -421.8929405 45.13052291 -410.45751953 37.15820312 C-409.84263672 36.72588379 -409.22775391 36.29356445 -408.59423828 35.84814453 C-396.69062319 27.51759351 -384.09132309 20.3128932 -371.45751953 13.15820312 C-370.30098877 12.50223145 -370.30098877 12.50223145 -369.12109375 11.83300781 C-319.78061762 -15.88738958 -262.61438968 -31.0533277 -206.45751953 -35.84179688 C-204.60126953 -36.01001953 -204.60126953 -36.01001953 -202.70751953 -36.18164062 C-133.61666591 -41.34929668 -62.99780672 -28.71707859 0 0 Z " fill="#FEF100" transform="translate(684.45751953125,131.841796875)"/>
<path d="M0 0 C0.80228027 0.21930176 1.60456055 0.43860352 2.43115234 0.66455078 C18.9714446 5.29084245 34.66166565 13.141356 48 24 C48.51224121 24.41362793 49.02448242 24.82725586 49.55224609 25.25341797 C58.43738821 32.46321162 66.77670059 40.11564745 74.2890625 48.76953125 C78.07689558 53.12548834 82.02290929 57.31719771 86 61.5 C90.57214754 66.30863793 95.06250123 71.16071571 99.41015625 76.17382812 C101.56764124 78.65202034 103.78112925 81.07675958 106 83.5 C109.45643771 87.29009082 112.86843854 91.11056033 116.23046875 94.984375 C118.25114956 97.28607764 120.31312618 99.54764379 122.375 101.8125 C125.46636801 105.23229328 128.42459032 108.71958524 131.3125 112.3125 C135.20320708 117.12665588 139.33000466 121.64924334 143.55786133 126.16333008 C147.45968389 130.35293609 151.07310178 134.72154714 154.65625 139.1875 C157.33208278 142.39849934 160.14359707 145.45027636 163 148.5 C167.45874444 153.26088994 171.6379783 158.1646782 175.72265625 163.25390625 C178.21826547 166.26319147 180.83766805 169.13937022 183.5 172 C187.78960407 176.60998943 191.80411122 181.37783516 195.75390625 186.28515625 C198.0883059 189.10673495 200.51990598 191.80590712 203 194.5 C207.09351091 198.94727112 210.92442499 203.54717463 214.71875 208.25 C217.06718968 211.08099578 219.50909902 213.79383598 222 216.5 C226.09351091 220.94727112 229.92442499 225.54717463 233.71875 230.25 C236.06718968 233.08099578 238.50909902 235.79383598 241 238.5 C245.11378909 242.9698512 248.97087297 247.59044893 252.78515625 252.31640625 C254.95632827 254.94708557 257.20241357 257.47942424 259.5 260 C263.42209679 264.30341176 267.09816428 268.76589526 270.7578125 273.29296875 C272.89483782 275.87303591 275.10735745 278.34714485 277.375 280.8125 C303.11266598 309.24520954 313.57244729 339.73109114 312 378 C309.99238887 404.72599379 294.08549411 432.62127998 274 450 C253.73298451 466.5380338 230.06687538 476.95582822 205.41357422 485.171875 C202.81071431 486.06494609 200.23767624 487.02465336 197.66015625 487.98828125 C187.34479594 491.75706122 176.6339899 494.30067236 166 497 C165.00097656 497.25539551 164.00195312 497.51079102 162.97265625 497.77392578 C129.81506536 506.09114027 95.28629763 511.10846636 61.22070312 513.74414062 C57.23185456 514.06102308 53.25065829 514.44125167 49.26855469 514.83300781 C28.84329256 516.69324338 8.3913422 517.16452347 -12.109375 517.203125 C-13.15776802 517.20595238 -14.20616104 517.20877975 -15.28632355 517.21169281 C-20.8484368 517.2265247 -26.41052526 517.23585134 -31.97265625 517.24023438 C-36.45516235 517.24458742 -40.93747254 517.25837952 -45.41992188 517.28125 C-82.78134956 517.46774603 -119.94978394 516.28589522 -157.0625 511.6875 C-158.35814377 511.53167953 -158.35814377 511.53167953 -159.67996216 511.37271118 C-199.0439265 506.62390018 -238.23196426 499.2045181 -276 487 C-276.88461914 486.71833984 -277.76923828 486.43667969 -278.68066406 486.14648438 C-317.14574193 473.7821824 -355.34424269 454.94370001 -375.11181641 417.91748047 C-389.73356417 389.34542499 -392.11100991 358.10405091 -382.90234375 327.33203125 C-376.0064944 308.14053189 -363.9587608 293.02095959 -350.64648438 277.88037109 C-348.05365219 274.91922141 -345.49499823 271.9291635 -342.9375 268.9375 C-341.94662736 267.77993698 -340.95574196 266.62238488 -339.96484375 265.46484375 C-339.23177002 264.60802002 -339.23177002 264.60802002 -338.48388672 263.73388672 C-335.99104476 260.82105954 -333.49537234 257.91065939 -331 255 C-329.9999866 253.83334482 -328.99998659 252.66667816 -328 251.5 C-322 244.5 -316 237.5 -310 230.5 C-309.25762085 229.63387085 -309.25762085 229.63387085 -308.50024414 228.75024414 C-307.49948394 227.58271772 -306.49867008 226.4152373 -305.49780273 225.24780273 C-303.00899324 222.34466371 -300.52109909 219.44075051 -298.03515625 216.53515625 C-290.18065189 207.35757038 -282.27340375 198.22651435 -274.35449219 189.10449219 C-272.71515141 187.21579238 -271.07620582 185.32675074 -269.4375 183.4375 C-268.63372925 182.51106689 -268.63372925 182.51106689 -267.8137207 181.56591797 C-263.60079881 176.70509927 -259.42129243 171.81628267 -255.24462891 166.92431641 C-252.31737077 163.50609717 -249.34190319 160.14116832 -246.3125 156.8125 C-243.3208184 153.52057795 -240.47475577 150.15408693 -237.6875 146.6875 C-233.79614512 141.87254256 -229.66870856 137.34912829 -225.43994141 132.83447266 C-222.34263774 129.50897767 -219.40400241 126.11307457 -216.5625 122.5625 C-211.98085598 116.85422221 -207.01197564 111.55703962 -202.0078125 106.22265625 C-199.1577443 103.18205669 -196.39511189 100.07651576 -193.671875 96.921875 C-191.64241927 94.58894926 -189.572353 92.29488755 -187.5 90 C-184.84886006 87.06321535 -182.21709829 84.11397458 -179.625 81.125 C-175.78416014 76.71250026 -171.81322663 72.4213747 -167.84375 68.125 C-165.72781465 65.81947143 -163.66246437 63.47490912 -161.609375 61.11328125 C-155.60417604 54.2266002 -149.29353162 47.62219758 -143 41 C-142.48856445 40.45843262 -141.97712891 39.91686523 -141.45019531 39.35888672 C-105.2114722 1.15148557 -50.76942363 -14.32105279 0 0 Z " fill="#062E27" transform="translate(550,223)"/>
<path d="M0 0 C0.75023437 0.60457031 1.50046875 1.20914062 2.2734375 1.83203125 C12.55477659 10.39981383 20.61438503 21.76645076 26 34 C26 34.99 26 35.98 26 37 C21.15633568 37.72554195 16.81489665 38.01925045 12 37 C9.48273321 34.34927665 8.2420939 31.73326116 6.68359375 28.43359375 C-1.37823603 11.99195019 -18.86730234 0.88592838 -35.6328125 -5.3515625 C-56.77432234 -12.04557131 -79.53478651 -10.96285198 -99.4375 -1.125 C-105.20987311 1.87107728 -110.81391525 5.05815736 -116 9 C-116.66 9.49628906 -117.32 9.99257813 -118 10.50390625 C-132.89326352 22.57559446 -143.65970911 43.07318147 -146 62 C-146.02719937 63.73426336 -146.03423941 65.46891634 -146.02514648 67.20336914 C-146.02151596 68.10213272 -146.01788544 69.0008963 -146.0141449 69.92689514 C-146.00947708 70.61101974 -146.00480927 71.29514435 -146 72 C-145.36630493 71.3596431 -144.73260986 70.71928619 -144.07971191 70.05952454 C-138.08562922 64.00515344 -132.08422223 57.95815784 -126.07462311 51.91918659 C-122.98581058 48.81476559 -119.89983144 45.70763659 -116.8203125 42.59399414 C-113.8443602 39.5852761 -110.86098762 36.58409842 -107.8724823 33.58785057 C-106.73765136 32.44750691 -105.6054493 31.30454043 -104.47602844 30.15883827 C-91.77486279 17.28202843 -81.62682389 11.92679198 -63.13017273 11.77960205 C-61.62170866 11.77021227 -60.11322464 11.76364224 -58.60473633 11.75976562 C-56.33572164 11.75009893 -54.06762957 11.71903508 -51.79882812 11.6875 C-39.30308261 11.59583957 -27.00927557 12.68692717 -17 21 C-8.81754525 30.10229446 -6.48795127 38.13794614 -6.69140625 50.2734375 C-7.38685643 58.67165862 -10.66268262 64.29350432 -16.4140625 70.30859375 C-18.19667357 72.11682937 -18.19667357 72.11682937 -20 75 C-19.41476562 75.23332031 -18.82953125 75.46664062 -18.2265625 75.70703125 C-15.46186024 77.3124987 -14.19578978 79.06861073 -12.375 81.6875 C-11.78460937 82.51636719 -11.19421875 83.34523438 -10.5859375 84.19921875 C-6.1771543 91.98517331 -5.74984153 101.26812395 -7 110 C-9.8905072 119.1138412 -15.34896966 126.25716854 -23.4375 131.3125 C-30.01627975 134.42876409 -36.05297542 135.30061902 -43.21875 135.1953125 C-44.33376892 135.19106766 -44.33376892 135.19106766 -45.47131348 135.18673706 C-47.81438217 135.17566157 -50.15704947 135.15058228 -52.5 135.125 C-54.10155693 135.11495381 -55.70311993 135.10583085 -57.3046875 135.09765625 C-61.20339901 135.07747658 -65.10125736 135.03830642 -69 135 C-69 126.09 -69 117.18 -69 108 C-70.98 107.67 -72.96 107.34 -75 107 C-85.37697263 102.84564498 -91.85428513 95.52405212 -96.1875 85.41796875 C-97 83 -97 83 -97 80 C-102.40881818 79.94493285 -107.81423246 79.94266269 -113.22314453 79.98779297 C-115.06005126 79.99586799 -116.89707852 79.98990606 -118.73388672 79.96923828 C-130.85301005 79.41157862 -130.85301005 79.41157862 -141.25 84.625 C-143.39966351 87.46058523 -143.99736782 88.9858423 -144.66015625 92.55078125 C-141.98652087 106.5201306 -134.29660996 120.11205116 -124.50390625 130.2578125 C-123 132 -123 132 -123 134 C-122.39929688 134.27585937 -121.79859375 134.55171875 -121.1796875 134.8359375 C-119 136 -119 136 -116.125 138.625 C-98.25391461 154.24310667 -75.94125872 158.01566716 -53 157 C-33.64517139 155.63169969 -13.8593088 144.62404886 -0.78125 130.625 C2.14077347 127.11857184 4.60225518 123.84445822 6.5546875 119.69921875 C8.14271304 116.337503 9.43240708 113.69938087 12 111 C16.8145478 109.97247275 21.15524792 110.27429511 26 111 C20.11053203 132.13279683 2.61555662 148.26558546 -15.65234375 159.18359375 C-38.62602509 171.64889343 -65.99830761 174.62328071 -91.078125 167.6171875 C-98.52777676 165.3033245 -105.27461748 161.90736612 -112 158 C-112.99257813 157.44441406 -113.98515625 156.88882813 -115.0078125 156.31640625 C-134.89416857 144.5035708 -145.97113013 126.85274685 -155.11181641 106.25488281 C-155.46692291 105.45495911 -155.82202942 104.6550354 -156.18789673 103.83087158 C-156.45589081 103.22668396 -156.72388489 102.62249634 -157 102 C-157.8751123 102.969375 -158.75022461 103.93875 -159.65185547 104.9375 C-162.94763428 108.5619622 -166.3050473 112.12412202 -169.68310547 115.671875 C-171.12931506 117.2079693 -172.55889289 118.7599164 -173.97021484 120.328125 C-186.36459439 134.0626742 -186.36459439 134.0626742 -194.08691406 135 C-198.48179153 135.15653265 -202.6694491 134.73031688 -207 134 C-202.99698571 129.09730397 -198.73164912 124.77135436 -194.06912231 120.49447632 C-190.34665045 117.07741539 -186.69186165 113.59046036 -183.03027344 110.10839844 C-181.10014536 108.29245609 -179.15249073 106.49495671 -177.1875 104.71679688 C-164.93044135 94.37631196 -164.93044135 94.37631196 -158.76928711 80.24072266 C-158.60664325 75.81924195 -159.04006088 71.58227293 -159.73023987 67.21998596 C-161.94720793 48.97548875 -150.71269014 28.05565957 -139.9375 14 C-127.06257807 -2.24295315 -109.8449265 -13.93092054 -90 -20 C-88.95972656 -20.31904297 -88.95972656 -20.31904297 -87.8984375 -20.64453125 C-57.5020829 -29.06105175 -23.58302255 -20.16463655 0 0 Z " fill="#FAEE00" transform="translate(575,304)"/>
<path d="M0 0 C12.70039219 11.91447683 20.06253618 27.08176568 20.625 44.5 C20.22824767 61.37059889 13.96151859 76.54865963 2.109375 88.4921875 C-12.21791975 101.70854228 -28.54695393 105.06974944 -47.37890625 104.36669922 C-61.49291845 103.32740498 -74.29702287 95.23974764 -83.8125 85.1875 C-96.48541821 69.92070964 -99.25848951 53.4516953 -97.8125 34.1875 C-95.6693576 19.2644972 -85.84545618 6.85721571 -74.5625 -2.5625 C-51.88008382 -19.3071109 -21.78422114 -17.43725638 0 0 Z " fill="#FCEF00" transform="translate(426.8125,541.8125)"/>
<path d="M0 0 C8.25 0 16.5 0 25 0 C25.09081899 9.42386774 25.16401234 18.8474389 25.20724869 28.27164745 C25.228013 32.64895742 25.25612313 37.02594924 25.30175781 41.40307617 C25.34561827 45.63712446 25.3692207 49.87086917 25.37950897 54.10512733 C25.38682899 55.71047041 25.4011205 57.31579923 25.42292023 58.92101097 C25.64230446 75.76428089 22.05391977 89.53216278 10.3125 102.25 C-0.92587285 112.8362429 -13.36217714 116.55608457 -28.39233398 116.48803711 C-42.9264971 116.03422551 -54.80790755 109.75700648 -64.8125 99.25 C-75.44146806 86.22505352 -77.46381089 71.57158315 -77.29296875 55.39453125 C-77.28736077 53.81841947 -77.28309637 52.24230239 -77.28010559 50.66618347 C-77.26875125 46.55456639 -77.23936743 42.44327653 -77.20599365 38.33178711 C-77.17508759 34.12162703 -77.16155675 29.91141314 -77.14648438 25.70117188 C-77.11448671 17.46728237 -77.06179806 9.23371982 -77 1 C-68.75 1 -60.5 1 -52 1 C-51.99589111 3.06813965 -51.99178223 5.1362793 -51.98754883 7.26708984 C-51.97028162 14.13241797 -51.92566443 20.99737746 -51.86790943 27.86247826 C-51.83375008 32.02118386 -51.80854682 36.17952643 -51.80444336 40.33837891 C-51.80013645 44.35877272 -51.7714783 48.37834914 -51.72656822 52.39848709 C-51.71366903 53.92527107 -51.70925843 55.45215326 -51.71384621 56.97898483 C-51.73751595 67.25678416 -50.76853736 75.36445585 -43.9375 83.4375 C-43.298125 83.953125 -42.65875 84.46875 -42 85 C-41.360625 85.53625 -40.72125 86.0725 -40.0625 86.625 C-33.74679147 90.83547235 -27.35876138 90.57017037 -20 90 C-13.57884665 88.67005238 -8.44172222 85.42813352 -4.65644836 80.11367798 C-0.07175273 72.09832238 -0.26687129 64.21577397 -0.29296875 55.2734375 C-0.27983099 53.67345312 -0.26452045 52.07348525 -0.24714661 50.47354126 C-0.20752591 46.29456722 -0.19712112 42.1160293 -0.19311523 37.93688965 C-0.18374017 33.65961671 -0.14629964 29.38259543 -0.11132812 25.10546875 C-0.04698593 16.73693097 -0.01615348 8.36876966 0 0 Z " fill="#FCEF00" transform="translate(664,530)"/>
<path d="M0 0 C-0.73048301 4.68803656 -2.36636885 8.90885555 -4.0625 13.3125 C-4.34416016 14.05306641 -4.62582031 14.79363281 -4.91601562 15.55664062 C-5.60718575 17.37242655 -6.30311689 19.18639899 -7 21 C-7.99 20.59007812 -8.98 20.18015625 -10 19.7578125 C-11.33321781 19.21325875 -12.66655776 18.66900395 -14 18.125 C-14.64839844 17.85558594 -15.29679688 17.58617187 -15.96484375 17.30859375 C-23.4523478 14.26911191 -30.39698072 12.60757021 -38.5 12.625 C-39.2432251 12.62588623 -39.9864502 12.62677246 -40.75219727 12.62768555 C-46.4483899 12.75106652 -50.27830723 13.62736231 -55 17 C-57.47299835 20.70949752 -57.75879243 23.70017625 -57 28 C-53.42910327 33.81923911 -47.38169036 34.71450191 -41.08984375 36.42578125 C-4.06577606 46.59874938 -4.06577606 46.59874938 3.21875 59.08984375 C6.66495807 67.65749993 6.18984955 77.85077368 3 86.375 C-1.57944318 95.94094797 -7.94472589 100.46102768 -17.4609375 104.7734375 C-37.0589606 111.56568833 -58.88993864 109.19456548 -77.5 100.75 C-79.34042489 99.84765576 -81.17676587 98.93659287 -83 98 C-82.34938113 89.61044093 -81.25101251 81.31984045 -80 73 C-79.175 73.51949219 -78.35 74.03898438 -77.5 74.57421875 C-63.41996948 83.18798173 -49.64864176 87.86123277 -33 86 C-28.53652323 84.84149549 -25.33811637 83.21646943 -21.9375 80.125 C-20.6112904 77.1189249 -20.46878521 75.25369061 -21 72 C-26.64003891 64.10394553 -37.96827523 62.32767669 -46.875 60.0625 C-73.81410599 52.88804613 -73.81410599 52.88804613 -80.40625 41.58984375 C-81.39682186 39.41412341 -82.24850133 37.26791564 -83 35 C-83.495 33.515 -83.495 33.515 -84 32 C-85.0308477 21.04935557 -83.05074981 12.24821075 -76 3.6875 C-58.03284932 -14.9308489 -20.56340649 -13.93741995 0 0 Z " fill="#FCEF00" transform="translate(802,538)"/>
<path d="M0 0 C31.02 0 62.04 0 94 0 C96 17 96 17 96 24 C84.12 24 72.24 24 60 24 C60.00523682 26.72113037 60.01047363 29.44226074 60.01586914 32.24584961 C60.03240401 41.21450125 60.04347081 50.18315355 60.05181217 59.15181637 C60.05704128 64.59202312 60.06413943 70.03221431 60.07543945 75.47241211 C60.08626735 80.71785702 60.09227662 85.96328692 60.09487724 91.20874214 C60.09673167 93.21470946 60.10035262 95.22067592 60.10573006 97.22663689 C60.11293919 100.02602824 60.113991 102.82535679 60.11352539 105.62475586 C60.11712067 106.46272705 60.12071594 107.30069824 60.12442017 108.1640625 C60.11405216 113.88594784 60.11405216 113.88594784 59 115 C57.23140807 115.09946453 55.45888549 115.13080217 53.6875 115.1328125 C52.61242187 115.13410156 51.53734375 115.13539063 50.4296875 115.13671875 C49.29789063 115.13285156 48.16609375 115.12898437 47 115.125 C45.86820312 115.12886719 44.73640625 115.13273438 43.5703125 115.13671875 C42.49523437 115.13542969 41.42015625 115.13414062 40.3125 115.1328125 C39.31863281 115.13168457 38.32476562 115.13055664 37.30078125 115.12939453 C35 115 35 115 34 114 C33.90480632 111.2001028 33.87446056 108.42493826 33.88647461 105.62475586 C33.88632858 104.74678848 33.88618256 103.86882111 33.8860321 102.96424866 C33.88673156 100.04775565 33.89452545 97.13132567 33.90234375 94.21484375 C33.90420782 92.19845108 33.90563177 90.18205796 33.90663147 88.16566467 C33.91045756 82.84734862 33.92028861 77.5290597 33.93133545 72.21075439 C33.94154762 66.78829312 33.94612867 61.36582748 33.95117188 55.94335938 C33.9619108 45.29555906 33.97950833 34.64778602 34 24 C22.12 24 10.24 24 -2 24 C-1.49924398 15.98790365 -0.99571733 7.9657386 0 0 Z " fill="#F7EC01" transform="translate(465,530)"/>
<path d="M0 0 C8.25 0 16.5 0 25 0 C25 29.7 25 59.4 25 90 C45.13 90 65.26 90 86 90 C86 101 86 101 84 115 C56.28 115 28.56 115 0 115 C0 77.05 0 39.1 0 0 Z " fill="#F9ED00" transform="translate(230,530)"/>
<path d="M0 0 C7.92173788 5.48082432 13.38277354 13.32988011 15.75390625 22.6796875 C16.9503636 34.25541236 14.67169312 43.32731469 7.75390625 52.6796875 C1.17500245 60.12895212 -6.03655126 64.11221881 -15.96484375 65.01953125 C-26.89260165 65.2927252 -34.63658279 63.80534697 -43.10546875 56.7578125 C-51.03564031 49.05917879 -55.18282444 40.25911235 -55.68359375 29.2421875 C-55.3453691 19.25046754 -51.23914415 10.74156713 -44.24609375 3.6796875 C-41.39999152 1.34035527 -38.47778202 -0.55757344 -35.24609375 -2.3203125 C-34.6325 -2.660625 -34.01890625 -3.0009375 -33.38671875 -3.3515625 C-22.65689228 -8.3037901 -9.81662934 -5.77047081 0 0 Z " fill="#072F27" transform="translate(407.24609375,557.3203125)"/>
<path d="M0 0 C24.34213722 -1.00865209 24.34213722 -1.00865209 31 5 C35.88182321 10.7832387 38.39674817 15.99781298 38.2734375 23.59375 C37.51781016 30.24327061 33.88346657 34.61651733 28.87890625 38.7734375 C24.90918942 41.36489505 21.41160828 42.25042817 16.69921875 42.1953125 C15.72275391 42.18886719 14.74628906 42.18242187 13.74023438 42.17578125 C12.73283203 42.15902344 11.72542969 42.14226562 10.6875 42.125 C9.66076172 42.11597656 8.63402344 42.10695313 7.57617188 42.09765625 C5.05068073 42.07416331 2.52531008 42.03829451 0 42 C0 37.38 0 32.76 0 28 C1.815 27.319375 3.63 26.63875 5.5 25.9375 C12.49759806 23.03424123 17.778081 19.33287849 22 13 C18.89548451 13.13894148 15.79149165 13.287343 12.6875 13.4375 C11.36588867 13.49647461 11.36588867 13.49647461 10.01757812 13.55664062 C8.74624023 13.61948242 8.74624023 13.61948242 7.44921875 13.68359375 C6.66893311 13.72025146 5.88864746 13.75690918 5.0847168 13.79467773 C2.80670899 13.94125263 2.80670899 13.94125263 0 15 C0 10.05 0 5.1 0 0 Z " fill="#0D3326" transform="translate(518,384)"/>
<path d="M0 0 C3.33422438 -0.10872471 6.66484659 -0.18766068 10 -0.25 C10.93457031 -0.28351563 11.86914062 -0.31703125 12.83203125 -0.3515625 C20.65659803 -0.460997 25.76614763 1.28062414 31.75 6.3125 C36.53710823 12.03043483 38.73143854 16.01756463 38.37890625 23.51171875 C37.34918861 30.27388511 33.98613554 34.53855335 28.78125 38.7734375 C24.95382299 41.40899031 22.26238065 42.24735979 17.578125 42.1953125 C16.04091797 42.18564453 16.04091797 42.18564453 14.47265625 42.17578125 C13.40917969 42.15902344 12.34570312 42.14226562 11.25 42.125 C9.63158203 42.11146484 9.63158203 42.11146484 7.98046875 42.09765625 C5.32021751 42.0741142 2.66008051 42.03824397 0 42 C0 37.38 0 32.76 0 28 C1.32 28.33 2.64 28.66 4 29 C5.44098431 29.07766084 6.88508629 29.10796367 8.328125 29.09765625 C9.12734375 29.09443359 9.9265625 29.09121094 10.75 29.08789062 C11.575 29.07951172 12.4 29.07113281 13.25 29.0625 C14.09046875 29.05798828 14.9309375 29.05347656 15.796875 29.04882812 C17.86461401 29.03707961 19.93231624 29.01914522 22 29 C16.17251778 21.27367526 9.18086674 17.62310478 0 15 C0 10.05 0 5.1 0 0 Z " fill="#0C3326" transform="translate(518,329)"/>
<path d="M0 0 C0 4.95 0 9.9 0 15 C-1.65 15.53625 -3.3 16.0725 -5 16.625 C-15.29384714 20.43900234 -21.05208028 26.14427883 -26 36 C-26.66 38.31 -27.32 40.62 -28 43 C-36.25 43 -44.5 43 -53 43 C-51.32278639 39.64557278 -50.28801693 38.03347107 -47.76293945 35.48828125 C-47.10497879 34.82078857 -46.44701813 34.1532959 -45.76911926 33.46557617 C-45.05769272 32.75506104 -44.34626617 32.0445459 -43.61328125 31.3125 C-42.87804733 30.57298096 -42.14281342 29.83346191 -41.38529968 29.0715332 C-39.82851284 27.50900662 -38.26910266 25.94908998 -36.70727539 24.39160156 C-34.33005351 22.01753025 -31.96643293 19.63048602 -29.60351562 17.2421875 C-28.08674941 15.72314721 -26.56919628 14.20489216 -25.05078125 12.6875 C-24.34947586 11.97698486 -23.64817047 11.26646973 -22.9256134 10.53442383 C-15.83710344 3.51144961 -10.14960355 0 0 0 Z " fill="#113626" transform="translate(506,329)"/>
<path d="M0 0 C0 13.86 0 27.72 0 42 C-6.66779756 39.33288098 -11.20636823 36.24142686 -14.4375 29.6875 C-16.51853433 24.31825125 -17.12993618 19.35355389 -15.26953125 13.83203125 C-12.5882649 7.99890895 -7.10473292 0 0 0 Z " fill="#0F3526" transform="translate(506,357)"/>
</svg>
