<?xml version="1.0" encoding="UTF-8"?>
<svg width="1200" height="700" viewBox="0 0 411 198" version="1.1" xmlns="http://www.w3.org/2000/svg">
<path d="M0 0 C1.32 0.33 2.64 0.66 4 1 C3.34 1 2.68 1 2 1 C2.33 2.65 2.66 4.3 3 6 C3.66 4.02 4.32 2.04 5 0 C5.66 0.66 6.32 1.32 7 2 C7 1.34 7 0.68 7 0 C9.97 0 12.94 0 16 0 C15.34 0.33 14.68 0.66 14 1 C16.88211302 1.96070434 18.69850044 2.10581883 21.6875 2.0625 C22.49574219 2.05347656 23.30398437 2.04445313 24.13671875 2.03515625 C24.75160156 2.02355469 25.36648437 2.01195312 26 2 C26.33 1.34 26.66 0.68 27 0 C27.99 0.33 28.98 0.66 30 1 C30.66 0.67 31.32 0.34 32 0 C32.495 1.98 32.495 1.98 33 4 C33 2.68 33 1.36 33 0 C36.96 0 40.92 0 45 0 C44.34 0.33 43.68 0.66 43 1 C43 2.32 43 3.64 43 5 C43.99 4.67 44.98 4.34 46 4 C45.01 3.01 45.01 3.01 44 2 C46 0 46 0 49.9375 -0.1875 C52.67636155 -0.16190316 54.34007532 0.11335844 57 1 C58.956554 1.09447646 60.91616745 1.13071717 62.875 1.1328125 C64.02484375 1.13410156 65.1746875 1.13539062 66.359375 1.13671875 C67.56078125 1.13285156 68.7621875 1.12898437 70 1.125 C71.80210937 1.13080078 71.80210937 1.13080078 73.640625 1.13671875 C74.79046875 1.13542969 75.9403125 1.13414063 77.125 1.1328125 C78.17945313 1.13168457 79.23390625 1.13055664 80.3203125 1.12939453 C83.10224344 1.11597653 83.10224344 1.11597653 86 0 C86 0.66 86 1.32 86 2 C86.99 2 87.98 2 89 2 C88.01 1.01 88.01 1.01 87 0 C89.375 -0.125 89.375 -0.125 92 0 C92.99 0.99 92.99 0.99 94 2 C94 1.34 94 0.68 94 0 C100.06891692 -0.0493933 106.13771713 -0.08571643 112.20678711 -0.10986328 C114.271912 -0.11992835 116.33702263 -0.13358154 118.40209961 -0.15087891 C121.36836264 -0.17510493 124.33443744 -0.18647797 127.30078125 -0.1953125 C128.2258699 -0.20563507 129.15095856 -0.21595764 130.1040802 -0.22659302 C130.96474594 -0.22674408 131.82541168 -0.22689514 132.7121582 -0.22705078 C133.46938675 -0.231492 134.2266153 -0.23593323 135.00679016 -0.24050903 C137 0 137 0 140 2 C140.6875 4.125 140.6875 4.125 141 6 C140.67 4.02 140.34 2.04 140 0 C150.8424337 -0.21684867 150.8424337 -0.21684867 155 1 C156.375 3.0625 156.375 3.0625 157 5 C158.32 4.67 159.64 4.34 161 4 C160.01 4.33 159.02 4.66 158 5 C158 2 158 2 159 0 C160.03930664 0.03552979 161.07861328 0.07105957 162.14941406 0.10766602 C166.01073186 0.23818012 169.87225659 0.36128863 173.73388672 0.48217773 C175.40419972 0.53549939 177.07445014 0.59082081 178.74462891 0.64819336 C181.14732371 0.73037953 183.5501528 0.80533723 185.953125 0.87890625 C186.69806213 0.90594131 187.44299927 0.93297638 188.21051025 0.96083069 C191.63486804 1.05908095 194.7303208 1.10855562 198 0 C198 0.66 198 1.32 198 2 C198.99 1.34 199.98 0.68 201 0 C201 0.99 201 1.98 201 3 C210.24 3 219.48 3 229 3 C229 3.66 229 4.32 229 5 C219.76 5 210.52 5 201 5 C201 5.99 201 6.98 201 8 C203.64 8 206.28 8 209 8 C209 8.99 209 9.98 209 11 C215.6 11 222.2 11 229 11 C229 11.66 229 12.32 229 13 C222.4 13 215.8 13 209 13 C209 14.98 209 16.96 209 19 C215.6 19 222.2 19 229 19 C229 19.66 229 20.32 229 21 C222.4 21 215.8 21 209 21 C209 21.99 209 22.98 209 24 C207.02 24 205.04 24 203 24 C203 23.01 203 22.02 203 21 C202.34 21.66 201.68 22.32 201 23 C199.33333333 24.66666667 197.66666667 26.33333333 196 28 C197.3089572 31.12197478 197.3089572 31.12197478 200 33 C201.26229508 37.47540984 201.26229508 37.47540984 200 40 C198.35 39.67 196.7 39.34 195 39 C195 39.66 195 40.32 195 41 C191.2785391 41.95422074 188.53759271 42.01650867 184.875 41.0625 C176.75222243 39.0420444 168.37949471 39.76876821 160.15625 40.87890625 C157.87340575 41.00710946 156.1946713 40.58161061 154 40 C151.99875639 40.32578384 149.99897128 40.66055205 148 41 C142.88191503 41.24809389 138.03580856 41.03298637 133 40 C133 39.34 133 38.68 133 38 C132.34 38 131.68 38 131 38 C130.67 38.66 130.34 39.32 130 40 C124.34000977 40.02467467 118.68005068 40.04284788 113.02001953 40.05493164 C111.09358169 40.05996787 109.16714769 40.06679712 107.24072266 40.07543945 C104.47557632 40.08753608 101.71048042 40.09323533 98.9453125 40.09765625 C97.6483696 40.10539818 97.6483696 40.10539818 96.32522583 40.11329651 C90.22774341 40.11387171 90.22774341 40.11387171 88 39 C86.515 39.495 86.515 39.495 85 40 C85 39.34 85 38.68 85 38 C84.42430645 38.3250395 83.8486129 38.650079 83.25547409 38.98496819 C80.89823122 40.04579904 79.47133788 40.24727867 76.91241455 40.24050903 C76.10757126 40.24325836 75.30272797 40.24600769 74.47349548 40.24884033 C73.59955643 40.24164978 72.72561737 40.23445923 71.82519531 40.22705078 C70.43443535 40.22748886 70.43443535 40.22748886 69.01557922 40.22793579 C65.95299907 40.2265432 62.89066263 40.21098518 59.828125 40.1953125 C57.70391981 40.19158212 55.5797129 40.18873527 53.45550537 40.18673706 C47.86593878 40.17910257 42.2764762 40.15945557 36.68695068 40.1373291 C30.98272102 40.11686677 25.27847454 40.10773451 19.57421875 40.09765625 C8.38276681 40.07620958 -2.80860794 40.04207577 -14 40 C-14 39.67 -14 39.34 -14 39 C-12.35 39 -10.7 39 -9 39 C-8.73747375 34.66831683 -9.70756464 31.1196377 -11 27 C-15.62 27 -20.24 27 -25 27 C-25 26.34 -25 25.68 -25 25 C-19.06 25 -13.12 25 -7 25 C-6.67 21.7 -6.34 18.4 -6 15 C-4.68 15.33 -3.36 15.66 -2 16 C-2 15.34 -2 14.68 -2 14 C-2.66 14 -3.32 14 -4 14 C-3.125 8.125 -3.125 8.125 -2 7 C-2.66 6.34 -3.32 5.68 -4 5 C-2.35 5 -0.7 5 1 5 C0.67 3.35 0.34 1.7 0 0 Z M9 1 C9.99 2.485 9.99 2.485 11 4 C11 3.01 11 2.02 11 1 C10.34 1 9.68 1 9 1 Z M34 1 C35.98 1.99 35.98 1.99 38 3 C37.67 2.34 37.34 1.68 37 1 C36.01 1 35.02 1 34 1 Z M130 1 C131 3 131 3 131 3 Z M133 1 C133 1.66 133 2.32 133 3 C133.99 3 134.98 3 136 3 C136 2.34 136 1.68 136 1 C135.01 1 134.02 1 133 1 Z M83 2 C82.67 2.66 82.34 3.32 82 4 C82.99 4 83.98 4 85 4 C85 3.34 85 2.68 85 2 C84.34 2 83.68 2 83 2 Z M164 2 C165 4 165 4 165 4 Z M16 3 C15.67 3.66 15.34 4.32 15 5 C15.66 5 16.32 5 17 5 C16.67 4.34 16.34 3.68 16 3 Z M92 3 C91.67 4.32 91.34 5.64 91 7 C91.66 7 92.32 7 93 7 C93 6.01 93 5.02 93 4 C93.99 3.67 94.98 3.34 96 3 C94.68 3 93.36 3 92 3 Z M105 3 C105 3.33 105 3.66 105 4 C107.64 4 110.28 4 113 4 C113 3.67 113 3.34 113 3 C110.36 3 107.72 3 105 3 Z M138 3 C139 5 139 5 139 5 Z M145 3 C145 3.66 145 4.32 145 5 C144.01 5.33 143.02 5.66 142 6 C142.33 6.66 142.66 7.32 143 8 C143.99 7.34 144.98 6.68 146 6 C145.67 5.01 145.34 4.02 145 3 Z M49 4 C49 4.33 49 4.66 49 5 C50.98 5 52.96 5 55 5 C55 4.67 55 4.34 55 4 C53.02 4 51.04 4 49 4 Z M86 4 C85.67 4.66 85.34 5.32 85 6 C87.475 6.495 87.475 6.495 90 7 C89.34 6.01 88.68 5.02 88 4 C87.34 4 86.68 4 86 4 Z M131 4 C131 4.66 131 5.32 131 6 C131.66 6 132.32 6 133 6 C133 5.34 133 4.68 133 4 C132.34 4 131.68 4 131 4 Z M193 4 C194 6 194 6 194 6 Z M27 3 C26.67 3.33 26.34 3.66 26 4 C24.48530552 4.23192865 22.96245438 4.41215238 21.4375 4.5625 C20.19806641 4.68818359 20.19806641 4.68818359 18.93359375 4.81640625 C17.97646484 4.90728516 17.97646484 4.90728516 17 5 C15.72396393 8.82810821 16.13716013 12.23475107 16.4375 16.1875 C16.48970703 16.93708984 16.54191406 17.68667969 16.59570312 18.45898438 C16.72513784 20.30637082 16.86186518 22.15324371 17 24 C18.65 24 20.3 24 22 24 C21.67 18.72 21.34 13.44 21 8 C22.98 7.67 24.96 7.34 27 7 C27 6.34 27 5.68 27 5 C27.66 5 28.32 5 29 5 C29 4.34 29 3.68 29 3 C28.34 3 27.68 3 27 3 Z M29 5 C29 5.99 29 6.98 29 8 C29.66 7.01 30.32 6.02 31 5 C30.34 5 29.68 5 29 5 Z M41 5 C40.67 5.66 40.34 6.32 40 7 C40.99 7.33 41.98 7.66 43 8 C43 7.01 43 6.02 43 5 C42.34 5 41.68 5 41 5 Z M135 5 C135.33 5.66 135.66 6.32 136 7 C136.66 7 137.32 7 138 7 C138 6.34 138 5.68 138 5 C137.01 5 136.02 5 135 5 Z M152 5 C153.485 5.99 153.485 5.99 155 7 C155 6.34 155 5.68 155 5 C154.01 5 153.02 5 152 5 Z M162 5 C163 7 163 7 163 7 Z M198 5 C198.66 5.66 199.32 6.32 200 7 C200 6.34 200 5.68 200 5 C199.34 5 198.68 5 198 5 Z M45 6 C45.33 6.66 45.66 7.32 46 8 C46.33 7.34 46.66 6.68 47 6 C46.34 6 45.68 6 45 6 Z M27 8 C27.33 9.32 27.66 10.64 28 12 C28.33 11.34 28.66 10.68 29 10 C28.34 9.34 27.68 8.68 27 8 Z M25 11 C25.66 12.32 26.32 13.64 27 15 C27.33 14.34 27.66 13.68 28 13 C27.67 12.34 27.34 11.68 27 11 C26.34 11 25.68 11 25 11 Z M154 11 C153.67 11.66 153.34 12.32 153 13 C153.66 13 154.32 13 155 13 C154.67 12.34 154.34 11.68 154 11 Z M199 11 C199.33 11.66 199.66 12.32 200 13 C200.33 12.34 200.66 11.68 201 11 C200.34 11 199.68 11 199 11 Z M200 15 C199.67 15.66 199.34 16.32 199 17 C199.33 17.66 199.66 18.32 200 19 C200.99 19 201.98 19 203 19 C203 18.01 203 17.02 203 16 C202.01 15.67 201.02 15.34 200 15 Z M65 16 C65 16.33 65 16.66 65 17 C67.64 17 70.28 17 73 17 C73 16.67 73 16.34 73 16 C70.36 16 67.72 16 65 16 Z M74 16 C74 16.33 74 16.66 74 17 C75.98 17 77.96 17 80 17 C80 16.67 80 16.34 80 16 C78.02 16 76.04 16 74 16 Z M113 16 C113 16.33 113 16.66 113 17 C115.64 17 118.28 17 121 17 C121 16.67 121 16.34 121 16 C118.36 16 115.72 16 113 16 Z M26 18 C27 20 27 20 27 20 Z M154 18 C155 22 155 22 155 22 Z M199 19 C200 21 200 21 200 21 Z M152 21 C152 21.66 152 22.32 152 23 C152.66 22.67 153.32 22.34 154 22 C153.34 21.67 152.68 21.34 152 21 Z M155 23 C156 25 156 25 156 25 Z M85 25 C85 25.66 85 26.32 85 27 C85.66 26.67 86.32 26.34 87 26 C86.34 25.67 85.68 25.34 85 25 Z M134 25 C135 27 135 27 135 27 Z M90 26 C90.99 27.32 91.98 28.64 93 30 C92.67 28.68 92.34 27.36 92 26 C91.34 26 90.68 26 90 26 Z M153 26 C152.67 27.98 152.34 29.96 152 32 C152.99 32 153.98 32 155 32 C155 30.35 155 28.7 155 27 C154.34 26.67 153.68 26.34 153 26 Z M179 26 C179 26.66 179 27.32 179 28 C178.34 28 177.68 28 177 28 C177 28.66 177 29.32 177 30 C177.99 30 178.98 30 180 30 C180 29.01 180 28.02 180 27 C180.99 26.67 181.98 26.34 183 26 C181.68 26 180.36 26 179 26 Z M87 27 C88 29 88 29 88 29 Z M94 28 C94.33 28.66 94.66 29.32 95 30 C95.66 29.34 96.32 28.68 97 28 C96.01 28 95.02 28 94 28 Z M84 29 C85 31 85 31 85 31 Z M181 29 C181.33 29.99 181.66 30.98 182 32 C182.33 31.01 182.66 30.02 183 29 C182.34 29 181.68 29 181 29 Z M134 30 C135 32 135 32 135 32 Z M178 31 C177.67 32.65 177.34 34.3 177 36 C179.475 36.495 179.475 36.495 182 37 C182.33 35.68 182.66 34.36 183 33 C181.02 33.99 181.02 33.99 179 35 C179.33 33.68 179.66 32.36 180 31 C179.34 31 178.68 31 178 31 Z M84 32 C85 34 85 34 85 34 Z M170 32 C171 34 171 34 171 34 Z M132 33 C133 35 133 35 133 35 Z M152 33 C153 35 153 35 153 35 Z M168 33 C169 35 169 35 169 35 Z M194 33 C195 35 195 35 195 35 Z M88 34 C89 36 89 36 89 36 Z M134 34 C133.67 35.32 133.34 36.64 133 38 C133.66 37.67 134.32 37.34 135 37 C134.67 36.01 134.34 35.02 134 34 Z M196 34 C196.33 34.66 196.66 35.32 197 36 C197.66 36 198.32 36 199 36 C199 35.34 199 34.68 199 34 C198.01 34 197.02 34 196 34 Z M83 35 C83 35.66 83 36.32 83 37 C84.32 36.67 85.64 36.34 87 36 C85.68 35.67 84.36 35.34 83 35 Z M153 35 C153.33 35.66 153.66 36.32 154 37 C154.33 36.34 154.66 35.68 155 35 C154.34 35 153.68 35 153 35 Z M197 37 C198 39 198 39 198 39 Z " fill="#FFFFFF" transform="translate(182,7)"/>
<path d="M0 0 C0.66 0 1.32 0 2 0 C2.33 0.33 2.66 0.66 3 1 C6.506816 1 10.00702355 0.88978095 13.51171875 0.78125 C14.23994339 0.75905396 14.96816803 0.73685791 15.71846008 0.71398926 C18.04148666 0.64308616 20.36449329 0.57155101 22.6875 0.5 C24.2636706 0.45178125 25.83984246 0.40360367 27.41601562 0.35546875 C31.27735853 0.2374567 35.13868366 0.11887783 39 0 C38.67 1.32 38.34 2.64 38 4 C38.99 4.33 39.98 4.66 41 5 C42.125 10.625 42.125 10.625 41 14 C41.66 14 42.32 14 43 14 C43 14.66 43 15.32 43 16 C42.01 16.33 41.02 16.66 40 17 C40.04125 17.763125 40.0825 18.52625 40.125 19.3125 C40 22 40 22 38 25 C36.12060547 25.34057617 36.12060547 25.34057617 33.8671875 25.29296875 C33.06152344 25.28330078 32.25585938 25.27363281 31.42578125 25.26367188 C30.58402344 25.23853516 29.74226563 25.21339844 28.875 25.1875 C28.02550781 25.17396484 27.17601562 25.16042969 26.30078125 25.14648438 C24.20025163 25.11108219 22.10004707 25.05727401 20 25 C20 25.66 20 26.32 20 27 C24.62 27 29.24 27 34 27 C37.57142857 34.28571429 37.57142857 34.28571429 36 39 C30.2364368 41.64812363 25.09067424 40.8019749 19 40 C18.505 37.525 18.505 37.525 18 35 C17.34 35.66 16.68 36.32 16 37 C16.66 37 17.32 37 18 37 C17 39 17 39 15 40 C13.90341064 36.71023192 14.20046862 35.28696233 15 32 C14.34 32 13.68 32 13 32 C13 31.34 13 30.68 13 30 C12.01 30.66 11.02 31.32 10 32 C9.74984127 35.58357241 9.74984127 35.58357241 10 39 C5.9088444 40.2834998 2.3091525 41.38021934 -2 41 C-3.71867343 39.28132657 -3.32920599 36.90786781 -3.5 34.5625 C-3.71419183 30.63565085 -3.71419183 30.63565085 -5 27 C-5.66 26.67 -6.32 26.34 -7 26 C-6.34416961 13.49399293 -6.34416961 13.49399293 -3 8 C-0.3125 7.0625 -0.3125 7.0625 2 7 C1.67 6.34 1.34 5.68 1 5 C1.33 4.67 1.66 4.34 2 4 C1.34 4 0.68 4 0 4 C-0.33 4.66 -0.66 5.32 -1 6 C-1 3 -1 3 0 0 Z M11 27 C10.67 27.66 10.34 28.32 10 29 C10.5775 29.28875 11.155 29.5775 11.75 29.875 C13.83333333 30.91666667 15.91666667 31.95833333 18 33 C18 32.34 18 31.68 18 31 C17.67 30.67 17.34 30.34 17 30 C17.33 29.34 17.66 28.68 18 28 C15.69 27.67 13.38 27.34 11 27 Z M19 31 C20 33 20 33 20 33 Z " fill="#FFFFFF" transform="translate(137,7)"/>
<path d="M0 0 C135.63 0 271.26 0 411 0 C411 0.66 411 1.32 411 2 C275.37 2 139.74 2 0 2 C0 1.34 0 0.68 0 0 Z " fill="#FFFFFF" transform="translate(0,194)"/>
<path d="M0 0 C135.63 0 271.26 0 411 0 C411 0.66 411 1.32 411 2 C275.37 2 139.74 2 0 2 C0 1.34 0 0.68 0 0 Z " fill="#FFFFFF" transform="translate(0,2)"/>
<path d="M0 0 C92.4 0 184.8 0 280 0 C280 0.66 280 1.32 280 2 C187.6 2 95.2 2 0 2 C0 1.34 0 0.68 0 0 Z " fill="#FFFFFF" transform="translate(55,50)"/>
<path d="M0 0 C57.75 0 115.5 0 175 0 C175 0.66 175 1.32 175 2 C117.25 2 59.5 2 0 2 C0 1.34 0 0.68 0 0 Z " fill="#FFFFFF" transform="translate(0,162)"/>
<path d="M0 0 C49.83 0 99.66 0 151 0 C151 0.66 151 1.32 151 2 C101.17 2 51.34 2 0 2 C0 1.34 0 0.68 0 0 Z " fill="#FFFFFF" transform="translate(0,146)"/>
<path d="M0 0 C1.3804728 0.00028249 2.76094575 0.00012294 4.14141846 -0.0004425 C7.86811193 -0.00072808 11.59477287 0.00512986 15.32145882 0.01213145 C19.22386635 0.01840492 23.12627472 0.01897194 27.02868652 0.02015686 C34.40911484 0.02325843 41.78952824 0.03145594 49.16995001 0.04150635 C57.57626131 0.05270402 65.98257335 0.05818713 74.38889027 0.06320179 C91.67268024 0.07363958 108.95645573 0.0912162 126.24023438 0.11352539 C126.24023438 0.77352539 126.24023438 1.43352539 126.24023438 2.11352539 C77.40023437 2.11352539 28.56023437 2.11352539 -21.75976562 2.11352539 C-21.75976562 1.78352539 -21.75976562 1.45352539 -21.75976562 1.11352539 C-14.49623148 -0.02666988 -7.34183649 -0.02061632 0 0 Z " fill="#FFFFFF" transform="translate(284.759765625,169.886474609375)"/>
<path d="M0 0 C47.19 0 94.38 0 143 0 C143 0.66 143 1.32 143 2 C95.81 2 48.62 2 0 2 C0 1.34 0 0.68 0 0 Z " fill="#FFFFFF" transform="translate(0,170)"/>
<path d="M0 0 C46.2 0 92.4 0 140 0 C140 0.66 140 1.32 140 2 C93.47 2.33 46.94 2.66 -1 3 C-0.67 2.01 -0.34 1.02 0 0 Z " fill="#FFFFFF" transform="translate(271,138)"/>
<path d="M0 0 C45.21 0 90.42 0 137 0 C137 0.66 137 1.32 137 2 C91.79 2 46.58 2 0 2 C0 1.34 0 0.68 0 0 Z " fill="#FFFFFF" transform="translate(0,186)"/>
<path d="M0 0 C0.66 0 1.32 0 2 0 C2 0.66 2 1.32 2 2 C44.24 2 86.48 2 130 2 C130 2.66 130 3.32 130 4 C85.45 4 40.9 4 -5 4 C-5.33 3.34 -5.66 2.68 -6 2 C-4.02 2 -2.04 2 0 2 C0 1.34 0 0.68 0 0 Z " fill="#FFFFFF" transform="translate(101,56)"/>
<path d="M0 0 C44.55 0 89.1 0 135 0 C135 0.66 135 1.32 135 2 C90.45 2 45.9 2 0 2 C0 1.34 0 0.68 0 0 Z " fill="#FFFFFF" transform="translate(0,178)"/>
<path d="M0 0 C44.55 0 89.1 0 135 0 C135 0.66 135 1.32 135 2 C90.45 2 45.9 2 0 2 C0 1.34 0 0.68 0 0 Z " fill="#FFFFFF" transform="translate(0,138)"/>
<path d="M0 0 C43.56 0 87.12 0 132 0 C132 0.66 132 1.32 132 2 C88.44 2 44.88 2 0 2 C0 1.34 0 0.68 0 0 Z " fill="#FFFFFF" transform="translate(279,178)"/>
<path d="M0 0 C40.92 0 81.84 0 124 0 C124 0.66 124 1.32 124 2 C83.08 2 42.16 2 0 2 C0 1.34 0 0.68 0 0 Z " fill="#FFFFFF" transform="translate(287,130)"/>
<path d="M0 0 C15.4811157 -0.04667715 30.96222616 -0.08196778 46.44339561 -0.10362434 C53.63123295 -0.11394619 60.81902662 -0.1280238 68.00683594 -0.15087891 C74.27019136 -0.17078507 80.53351517 -0.18370983 86.79690135 -0.18817699 C90.11472109 -0.1907891 93.43242902 -0.19798831 96.75022507 -0.21146011 C100.44991259 -0.22589069 104.14941014 -0.22798148 107.84912109 -0.22705078 C108.95466843 -0.23424133 110.06021576 -0.24143188 111.19926453 -0.24884033 C112.70531502 -0.24471634 112.70531502 -0.24471634 114.24179077 -0.24050903 C115.11749411 -0.24235262 115.99319744 -0.24419621 116.89543724 -0.24609566 C119 0 119 0 121 2 C120.625 4.625 120.625 4.625 120 7 C119.67 7 119.34 7 119 7 C119 5.35 119 3.7 119 2 C79.73 2 40.46 2 0 2 C0 1.34 0 0.68 0 0 Z " fill="#FFFFFF" transform="translate(0,114)"/>
<path d="M0 0 C39.27 0 78.54 0 119 0 C119 0.66 119 1.32 119 2 C79.73 2 40.46 2 0 2 C0 1.34 0 0.68 0 0 Z " fill="#FFFFFF" transform="translate(0,130)"/>
<path d="M0 0 C39.27 0 78.54 0 119 0 C119 0.66 119 1.32 119 2 C79.73 2 40.46 2 0 2 C0 1.34 0 0.68 0 0 Z " fill="#FFFFFF" transform="translate(0,122)"/>
<path d="M0 0 C27.72 0 55.44 0 84 0 C84 0.66 84 1.32 84 2 C56.28 2 28.56 2 0 2 C0 1.34 0 0.68 0 0 Z " fill="#FFFFFF" transform="translate(327,98)"/>
<path d="M0 0 C26.07 0 52.14 0 79 0 C79 0.66 79 1.32 79 2 C52.93 2 26.86 2 0 2 C0 1.34 0 0.68 0 0 Z " fill="#FFFFFF" transform="translate(0,98)"/>
<path d="M0 0 C22.44 0 44.88 0 68 0 C68 0.66 68 1.32 68 2 C45.56 2 23.12 2 0 2 C0 1.34 0 0.68 0 0 Z " fill="#FFFFFF" transform="translate(343,90)"/>
<path d="M0 0 C20.79 0 41.58 0 63 0 C63 0.66 63 1.32 63 2 C42.21 2 21.42 2 0 2 C0 1.34 0 0.68 0 0 Z " fill="#FFFFFF" transform="translate(0,90)"/>
<path d="M0 0 C14.52 0 29.04 0 44 0 C44 0.66 44 1.32 44 2 C29.48 2 14.96 2 0 2 C0 1.34 0 0.68 0 0 Z " fill="#FFFFFF" transform="translate(367,66)"/>
<path d="M0 0 C12.87 0 25.74 0 39 0 C39 0.66 39 1.32 39 2 C26.13 2 13.26 2 0 2 C0 1.34 0 0.68 0 0 Z " fill="#FFFFFF" transform="translate(0,74)"/>
<path d="M0 0 C12.87 0 25.74 0 39 0 C39 0.66 39 1.32 39 2 C26.13 2 13.26 2 0 2 C0 1.34 0 0.68 0 0 Z " fill="#FFFFFF" transform="translate(0,66)"/>
<path d="M0 0 C4.37821909 -0.0740719 8.75610782 -0.12856375 13.13476562 -0.16479492 C14.62473909 -0.179896 16.11466801 -0.20037858 17.60449219 -0.22631836 C19.7442523 -0.26264584 21.88342566 -0.27971221 24.0234375 -0.29296875 C25.31169434 -0.3086792 26.59995117 -0.32438965 27.92724609 -0.34057617 C28.94125488 -0.22818604 29.95526367 -0.1157959 31 0 C31.66 0.99 32.32 1.98 33 3 C22.11 2.67 11.22 2.34 0 2 C0 1.34 0 0.68 0 0 Z " fill="#FFFFFF" transform="translate(0,18)"/>
<path d="M0 0 C4.24480464 -0.33292585 6.35542625 -0.43885872 9.9375 2 C10.618125 2.66 11.29875 3.32 12 4 C9.03 3.505 9.03 3.505 6 3 C6.639375 3.45375 7.27875 3.9075 7.9375 4.375 C10 6 10 6 11 8 C7.37 8 3.74 8 0 8 C0 5.36 0 2.72 0 0 Z " fill="#FFFFFF" transform="translate(83,95)"/>
<path d="M0 0 C9.24 0 18.48 0 28 0 C28 0.66 28 1.32 28 2 C18.76 2 9.52 2 0 2 C0 1.34 0 0.68 0 0 Z " fill="#FFFFFF" transform="translate(383,34)"/>
<path d="M0 0 C7.59 0 15.18 0 23 0 C23 0.66 23 1.32 23 2 C15.41 2 7.82 2 0 2 C0 1.34 0 0.68 0 0 Z " fill="#FFFFFF" transform="translate(0,26)"/>
<path d="M0 0 C6.6 0 13.2 0 20 0 C20 0.66 20 1.32 20 2 C13.4 2 6.8 2 0 2 C0 1.34 0 0.68 0 0 Z " fill="#FFFFFF" transform="translate(391,58)"/>
<path d="M0 0 C0.66 0.99 1.32 1.98 2 3 C4.31 2.34 6.62 1.68 9 1 C9 1.99 9 2.98 9 4 C5.13276369 5.26582219 1.26848738 5.1118765 -2.75 5.0625 C-3.44738281 5.05798828 -4.14476562 5.05347656 -4.86328125 5.04882812 C-6.57555803 5.0371002 -8.28779033 5.01916653 -10 5 C-10 4.67 -10 4.34 -10 4 C-6.7 4 -3.4 4 0 4 C0 2.68 0 1.36 0 0 Z " fill="#FFFFFF" transform="translate(159,167)"/>
<path d="M0 0 C0.66 0 1.32 0 2 0 C3.125 4.75 3.125 4.75 2 7 C-0.97 6.505 -0.97 6.505 -4 6 C-3.67 4.35 -3.34 2.7 -3 1 C-1.68 1.66 -0.36 2.32 1 3 C0.67 2.01 0.34 1.02 0 0 Z M-1 4 C0 6 0 6 0 6 Z " fill="#FFFFFF" transform="translate(380,40)"/>
<path d="M0 0 C1.65 0.33 3.3 0.66 5 1 C5 3.31 5 5.62 5 8 C4.67 8 4.34 8 4 8 C3.67 6.35 3.34 4.7 3 3 C2.34 3.66 1.68 4.32 1 5 C1.66 5 2.32 5 3 5 C2 7 2 7 0 8 C-1.09658936 4.71023192 -0.79953138 3.28696233 0 0 Z " fill="#FFFFFF" transform="translate(152,39)"/>
<path d="M0 0 C1.32 0.33 2.64 0.66 4 1 C3.34 1 2.68 1 2 1 C2.33 2.65 2.66 4.3 3 6 C1.02 6.99 1.02 6.99 -1 8 C-1.99 7.01 -2.98 6.02 -4 5 C-2.35 5 -0.7 5 1 5 C0.67 3.35 0.34 1.7 0 0 Z " fill="#FFFFFF" transform="translate(182,7)"/>
<path d="M0 0 C3.96 0 7.92 0 12 0 C12 0.66 12 1.32 12 2 C8.04 2 4.08 2 0 2 C0 1.34 0 0.68 0 0 Z " fill="#FFFFFF" transform="translate(399,42)"/>
<path d="M0 0 C1.98 0 3.96 0 6 0 C4.68 0.33 3.36 0.66 2 1 C2.33 1.99 2.66 2.98 3 4 C1.68 4 0.36 4 -1 4 C-0.67 2.68 -0.34 1.36 0 0 Z " fill="#FFFFFF" transform="translate(145,168)"/>
<path d="M0 0 C2.64 0 5.28 0 8 0 C8 0.66 8 1.32 8 2 C5.36 2 2.72 2 0 2 C0 1.34 0 0.68 0 0 Z " fill="#FFFFFF" transform="translate(343,50)"/>
<path d="M0 0 C2.64 0 5.28 0 8 0 C8 0.66 8 1.32 8 2 C5.36 2 2.72 2 0 2 C0 1.34 0 0.68 0 0 Z " fill="#FFFFFF" transform="translate(383,42)"/>
<path d="M0 0 C0.33 0.66 0.66 1.32 1 2 C0.67 2.99 0.34 3.98 0 5 C-2.31 5 -4.62 5 -7 5 C-7 4.67 -7 4.34 -7 4 C-5.35 4 -3.7 4 -2 4 C-1.34 2.68 -0.68 1.36 0 0 Z " fill="#FFFFFF" transform="translate(350,69)"/>
<path d="M0 0 C2.31 0 4.62 0 7 0 C7 0.66 7 1.32 7 2 C4.69 2 2.38 2 0 2 C0 1.34 0 0.68 0 0 Z " fill="#FFFFFF" transform="translate(0,42)"/>
<path d="M0 0 C0.99 0 1.98 0 3 0 C3.33 0.99 3.66 1.98 4 3 C3.01 3.33 2.02 3.66 1 4 C0.67 2.68 0.34 1.36 0 0 Z " fill="#FFFFFF" transform="translate(289,89)"/>
<path d="M0 0 C0.99 0 1.98 0 3 0 C2.67 1.32 2.34 2.64 2 4 C1.34 3.67 0.68 3.34 0 3 C0 2.01 0 1.02 0 0 Z " fill="#FFFFFF" transform="translate(171,168)"/>
<path d="M0 0 C0.99 0 1.98 0 3 0 C2 3 2 3 0 4 C0 2.68 0 1.36 0 0 Z " fill="#FFFFFF" transform="translate(147,40)"/>
<path d="M0 0 C0.33 0 0.66 0 1 0 C1.33 2.64 1.66 5.28 2 8 C1.34 7.67 0.68 7.34 0 7 C0 4.69 0 2.38 0 0 Z " fill="#FFFFFF" transform="translate(381,32)"/>
<path d="M0 0 C2.475 0.99 2.475 0.99 5 2 C4.01 2.33 3.02 2.66 2 3 C1.01 2.34 0.02 1.68 -1 1 C-0.67 0.67 -0.34 0.34 0 0 Z " fill="#FFFFFF" transform="translate(177,8)"/>
<path d="M0 0 C1.32 0.33 2.64 0.66 4 1 C3.67 1.99 3.34 2.98 3 4 C2.01 3.67 1.02 3.34 0 3 C0 2.01 0 1.02 0 0 Z " fill="#FFFFFF" transform="translate(132,7)"/>
<path d="M0 0 C2.64 0 5.28 0 8 0 C8 0.33 8 0.66 8 1 C5.36 1 2.72 1 0 1 C0 0.67 0 0.34 0 0 Z " fill="#FFFFFF" transform="translate(247,171)"/>
<path d="M0 0 C2.64 0 5.28 0 8 0 C8 0.33 8 0.66 8 1 C5.36 1 2.72 1 0 1 C0 0.67 0 0.34 0 0 Z " fill="#FFFFFF" transform="translate(263,168)"/>
<path d="M0 0 C2.64 0 5.28 0 8 0 C8 0.33 8 0.66 8 1 C5.36 1 2.72 1 0 1 C0 0.67 0 0.34 0 0 Z " fill="#FFFFFF" transform="translate(247,168)"/>
<path d="M0 0 C0.33 0.99 0.66 1.98 1 3 C0.01 3.33 -0.98 3.66 -2 4 C-1.34 2.68 -0.68 1.36 0 0 Z " fill="#FFFFFF" transform="translate(284,130)"/>
<path d="M0 0 C2.97 0.495 2.97 0.495 6 1 C6 1.33 6 1.66 6 2 C4.35 2 2.7 2 1 2 C0.67 1.34 0.34 0.68 0 0 Z " fill="#FFFFFF" transform="translate(38,60)"/>
<path d="M0 0 C0.66 0 1.32 0 2 0 C2 0.66 2 1.32 2 2 C2.66 2.33 3.32 2.66 4 3 C2.68 2.67 1.36 2.34 0 2 C0 1.34 0 0.68 0 0 Z " fill="#FFFFFF" transform="translate(266,139)"/>
<path d="M0 0 C0.33 0 0.66 0 1 0 C1 1.65 1 3.3 1 5 C0.34 3.68 -0.32 2.36 -1 1 C-0.67 0.67 -0.34 0.34 0 0 Z " fill="#FFFFFF" transform="translate(379,34)"/>
<path d="M0 0 C1.32 0.33 2.64 0.66 4 1 C3.01 1.33 2.02 1.66 1 2 C0.67 1.34 0.34 0.68 0 0 Z " fill="#FFFFFF" transform="translate(375,61)"/>
<path d="M0 0 C1.98 0 3.96 0 6 0 C6 0.33 6 0.66 6 1 C4.02 1 2.04 1 0 1 C0 0.67 0 0.34 0 0 Z " fill="#FFFFFF" transform="translate(95,55)"/>
<path d="M0 0 C1.65 0 3.3 0 5 0 C5 0.33 5 0.66 5 1 C3.35 1 1.7 1 0 1 C0 0.67 0 0.34 0 0 Z " fill="#FFFFFF" transform="translate(234,170)"/>
<path d="M0 0 C0.66 0.33 1.32 0.66 2 1 C1.67 1.66 1.34 2.32 1 3 C0.34 2.34 -0.32 1.68 -1 1 C-0.67 0.67 -0.34 0.34 0 0 Z " fill="#FFFFFF" transform="translate(99,100)"/>
<path d="M0 0 C0.99 0.33 1.98 0.66 3 1 C1.68 1.33 0.36 1.66 -1 2 C-0.67 1.34 -0.34 0.68 0 0 Z " fill="#FFFFFF" transform="translate(95,99)"/>
<path d="M0 0 C0.99 0.495 0.99 0.495 2 1 C1.01 2.485 1.01 2.485 0 4 C0 2.68 0 1.36 0 0 Z " fill="#FFFFFF" transform="translate(33,15)"/>
<path d="M0 0 C4 1 4 1 4 1 Z " fill="#FFFFFF" transform="translate(355,86)"/>
<path d="M0 0 C4 1 4 1 4 1 Z " fill="#FFFFFF" transform="translate(359,78)"/>
<path d="M0 0 C4 1 4 1 4 1 Z " fill="#FFFFFF" transform="translate(367,50)"/>
<path d="M0 0 C0.33 0.66 0.66 1.32 1 2 C0.01 1.67 -0.98 1.34 -2 1 C-1.34 0.67 -0.68 0.34 0 0 Z " fill="#FFFFFF" transform="translate(406,48)"/>
<path d="M0 0 C0.66 0 1.32 0 2 0 C2 0.66 2 1.32 2 2 C1.34 2 0.68 2 0 2 C0 1.34 0 0.68 0 0 Z " fill="#FFFFFF" transform="translate(359,48)"/>
<path d="M0 0 C0 3 0 3 0 3 Z " fill="#FFFFFF" transform="translate(32,12)"/>
<path d="M0 0 C0.33 0.66 0.66 1.32 1 2 C0.34 1.67 -0.32 1.34 -1 1 C-0.67 0.67 -0.34 0.34 0 0 Z " fill="#FFFFFF" transform="translate(174,183)"/>
<path d="M0 0 C0.99 0.495 0.99 0.495 2 1 C1.01 1.495 1.01 1.495 0 2 C0 1.34 0 0.68 0 0 Z " fill="#FFFFFF" transform="translate(162,167)"/>
<path d="M0 0 C3 1 3 1 3 1 Z " fill="#FFFFFF" transform="translate(163,150)"/>
<path d="M0 0 C3 1 3 1 3 1 Z " fill="#FFFFFF" transform="translate(265,128)"/>
<path d="M0 0 C0.66 0.66 1.32 1.32 2 2 C1.34 2 0.68 2 0 2 C0 1.34 0 0.68 0 0 Z " fill="#FFFFFF" transform="translate(119,125)"/>
<path d="M0 0 C3 1 3 1 3 1 Z " fill="#FFFFFF" transform="translate(299,106)"/>
<path d="M0 0 C3 1 3 1 3 1 Z " fill="#FFFFFF" transform="translate(95,102)"/>
<path d="M0 0 C3 1 3 1 3 1 Z " fill="#FFFFFF" transform="translate(351,74)"/>
<path d="M0 0 C0.66 0 1.32 0 2 0 C1.67 0.66 1.34 1.32 1 2 C0.67 1.34 0.34 0.68 0 0 Z " fill="#FFFFFF" transform="translate(345,69)"/>
<path d="M0 0 C3 1 3 1 3 1 Z " fill="#FFFFFF" transform="translate(372,62)"/>
<path d="M0 0 C3 1 3 1 3 1 Z " fill="#FFFFFF" transform="translate(392,54)"/>
<path d="" fill="#FFFFFF" transform="translate(0,0)"/>
<path d="M0 0 C0.99 0.495 0.99 0.495 2 1 C1.01 1.495 1.01 1.495 0 2 C0 1.34 0 0.68 0 0 Z " fill="#FFFFFF" transform="translate(338,7)"/>
<path d="M0 0 C2 1 2 1 2 1 Z " fill="#FFFFFF" transform="translate(135,190)"/>
<path d="M0 0 C2 1 2 1 2 1 Z " fill="#FFFFFF" transform="translate(135,183)"/>
<path d="" fill="#FFFFFF" transform="translate(0,0)"/>
<path d="M0 0 C2 1 2 1 2 1 Z " fill="#FFFFFF" transform="translate(177,156)"/>
<path d="M0 0 C2 1 2 1 2 1 Z " fill="#FFFFFF" transform="translate(270,134)"/>
<path d="" fill="#FFFFFF" transform="translate(0,0)"/>
<path d="" fill="#FFFFFF" transform="translate(0,0)"/>
<path d="M0 0 C2 1 2 1 2 1 Z " fill="#FFFFFF" transform="translate(280,117)"/>
<path d="M0 0 C2 1 2 1 2 1 Z " fill="#FFFFFF" transform="translate(320,102)"/>
<path d="M0 0 C2 1 2 1 2 1 Z " fill="#FFFFFF" transform="translate(339,94)"/>
<path d="" fill="#FFFFFF" transform="translate(0,0)"/>
<path d="M0 0 C2 1 2 1 2 1 Z " fill="#FFFFFF" transform="translate(328,93)"/>
<path d="M0 0 C2 1 2 1 2 1 Z " fill="#FFFFFF" transform="translate(79,93)"/>
<path d="M0 0 C2 1 2 1 2 1 Z " fill="#FFFFFF" transform="translate(129,91)"/>
<path d="M0 0 C2 1 2 1 2 1 Z " fill="#FFFFFF" transform="translate(345,86)"/>
<path d="M0 0 C2 1 2 1 2 1 Z " fill="#FFFFFF" transform="translate(343,76)"/>
<path d="M0 0 C2 1 2 1 2 1 Z " fill="#FFFFFF" transform="translate(397,54)"/>
<path d="M0 0 C2 1 2 1 2 1 Z " fill="#FFFFFF" transform="translate(16,54)"/>
<path d="" fill="#FFFFFF" transform="translate(0,0)"/>
<path d="M0 0 C2 1 2 1 2 1 Z " fill="#FFFFFF" transform="translate(147,38)"/>
<path d="" fill="#FFFFFF" transform="translate(0,0)"/>
<path d="" fill="#FFFFFF" transform="translate(0,0)"/>
<path d="M0 0 C2 1 2 1 2 1 Z " fill="#FFFFFF" transform="translate(133,12)"/>
<path d="" fill="#FFFFFF" transform="translate(0,0)"/>
<path d="M0 0 C2 1 2 1 2 1 Z " fill="#FFFFFF" transform="translate(179,7)"/>
<path d="M0 0 C2 1 2 1 2 1 Z " fill="#FFFFFF" transform="translate(32,7)"/>
<path d="" fill="#FFFFFF" transform="translate(0,0)"/>
<path d="" fill="#FFFFFF" transform="translate(0,0)"/>
<path d="" fill="#FFFFFF" transform="translate(0,0)"/>
<path d="" fill="#FFFFFF" transform="translate(0,0)"/>
<path d="" fill="#FFFFFF" transform="translate(0,0)"/>
<path d="" fill="#FFFFFF" transform="translate(0,0)"/>
<path d="" fill="#FFFFFF" transform="translate(0,0)"/>
<path d="" fill="#FFFFFF" transform="translate(0,0)"/>
<path d="" fill="#FFFFFF" transform="translate(0,0)"/>
<path d="" fill="#FFFFFF" transform="translate(0,0)"/>
<path d="" fill="#FFFFFF" transform="translate(0,0)"/>
<path d="" fill="#FFFFFF" transform="translate(0,0)"/>
<path d="" fill="#FFFFFF" transform="translate(0,0)"/>
<path d="" fill="#FFFFFF" transform="translate(0,0)"/>
<path d="" fill="#FFFFFF" transform="translate(0,0)"/>
<path d="" fill="#FFFFFF" transform="translate(0,0)"/>
<path d="" fill="#FFFFFF" transform="translate(0,0)"/>
<path d="" fill="#FFFFFF" transform="translate(0,0)"/>
<path d="" fill="#FFFFFF" transform="translate(0,0)"/>
<path d="" fill="#FFFFFF" transform="translate(0,0)"/>
<path d="" fill="#FFFFFF" transform="translate(0,0)"/>
<path d="" fill="#FFFFFF" transform="translate(0,0)"/>
<path d="" fill="#FFFFFF" transform="translate(0,0)"/>
<path d="" fill="#FFFFFF" transform="translate(0,0)"/>
<path d="" fill="#FFFFFF" transform="translate(0,0)"/>
<path d="" fill="#FFFFFF" transform="translate(0,0)"/>
<path d="" fill="#FFFFFF" transform="translate(0,0)"/>
</svg>
