<?xml version="1.0" encoding="UTF-8"?>
<svg version="1.1" xmlns="http://www.w3.org/2000/svg" width="1200" height="700">
<path d="M0 0 C0.95686707 0.00093658 1.91373413 0.00187317 2.89959717 0.00283813 C37.73594024 0.07679059 78.9557809 1.31251099 105.86328125 26.66015625 C116.57759495 38.6328004 117.96638906 51.26041905 117.31591797 66.59912109 C115.17207142 95.66441664 93.17290995 123.90428808 75.125 145.1875 C74.29871094 146.18652344 73.47242188 147.18554688 72.62109375 148.21484375 C61.24660316 161.92693312 48.8224526 174.58257025 36.25 187.1875 C35.6621875 187.77799133 35.074375 188.36848267 34.46875 188.97686768 C28.73560978 194.72980355 23.02253629 200.44687808 16.83789062 205.71972656 C14.08244035 208.08086782 11.4586042 210.58047263 8.8125 213.0625 C4.04089105 217.50215293 -0.8566799 221.70409141 -5.94140625 225.78515625 C-9.4240327 228.63710733 -12.80280644 231.59571248 -16.1875 234.5625 C-21.49200559 239.19724479 -26.89820532 243.64435991 -32.46850586 247.95483398 C-37.14468326 251.58214916 -41.7016452 255.33916654 -46.25 259.125 C-52.8826907 264.62595157 -59.66122343 269.86991923 -66.5859375 274.99609375 C-70.60989135 277.9766952 -74.58613576 281.01718935 -78.56030273 284.0637207 C-88.15238559 291.41471966 -97.85141818 298.58735927 -107.68212891 305.61523438 C-109.89144793 307.19929299 -112.09331796 308.79317289 -114.29296875 310.390625 C-124.5064602 317.80617624 -134.8073405 325.08840294 -145.16552734 332.30029297 C-148.05608058 334.31362659 -150.94411443 336.33054308 -153.83203125 338.34765625 C-155.84624863 339.75275546 -157.86056953 341.15770629 -159.875 342.5625 C-161.2530481 343.52506714 -161.2530481 343.52506714 -162.65893555 344.50708008 C-168.29999468 348.43528548 -173.98830185 352.2837665 -179.71533203 356.08544922 C-182.48949345 357.9310318 -185.25587043 359.78728542 -188.0184021 361.650177 C-190.35736326 363.22694775 -192.6992237 364.7993834 -195.04125977 366.37158203 C-196.23569248 367.17467546 -197.42902974 367.97940025 -198.62133789 368.78564453 C-200.37877233 369.97345407 -202.1401313 371.15523202 -203.90234375 372.3359375 C-204.93093506 373.02864746 -205.95952637 373.72135742 -207.01928711 374.43505859 C-209.59806076 376.01755302 -212.03300852 377.1728526 -214.875 378.1875 C-210.89320282 372.08135875 -206.69454462 366.19821166 -202.3125 360.375 C-174.29473731 322.69671273 -144.01856626 275.59515551 -149.265625 226.53515625 C-151.79054185 212.40533314 -158.50634656 200.05978174 -168.875 190.1875 C-169.49890625 189.56746094 -170.1228125 188.94742188 -170.765625 188.30859375 C-202.42826771 158.5749776 -255.71210681 155.93430011 -296.6875 156 C-297.45878235 156.00093658 -298.2300647 156.00187317 -299.02471924 156.00283813 C-382.96689231 156.21990599 -466.31732837 172.1042227 -570.875 206.1875 C-570.875 205.5275 -570.875 204.8675 -570.875 204.1875 C-569.16040039 202.91333008 -569.16040039 202.91333008 -566.72265625 201.45703125 C-565.81370605 200.90901855 -564.90475586 200.36100586 -563.96826172 199.79638672 C-562.96811035 199.2035791 -561.96795898 198.61077148 -560.9375 198 C-559.3908667 197.0721167 -559.3908667 197.0721167 -557.81298828 196.12548828 C-555.61847052 194.809704 -553.42212151 193.49696999 -551.22412109 192.18701172 C-547.98243055 190.25163881 -544.74961574 188.30232539 -541.51953125 186.34765625 C-528.41584379 178.42729584 -515.22920096 170.67777916 -501.875 163.1875 C-500.81925781 162.59388672 -499.76351562 162.00027344 -498.67578125 161.38867188 C-479.94546143 150.88115644 -460.97258178 140.89802293 -441.82293701 131.17773438 C-439.9548717 130.2281028 -438.08865512 129.27495127 -436.22314453 128.3203125 C-418.01212544 119.01285344 -399.55039147 110.37480101 -380.86468506 102.07165527 C-378.95423193 101.22270825 -377.04471935 100.37167342 -375.13525391 99.52050781 C-313.66391284 72.20913548 -250.00170826 48.86098609 -185.1942749 30.83276367 C-182.94986096 30.20832766 -180.70657581 29.57996343 -178.46337891 28.95117188 C-131.15607288 15.73986211 -82.76455861 6.09876394 -33.875 1.1875 C-32.35592041 1.03172485 -32.35592041 1.03172485 -30.80615234 0.87280273 C-20.55353328 -0.05260986 -10.28564825 -0.01296929 0 0 Z " fill="#FF7F00" transform="translate(826.875,159.8125)"/>
</svg>
