<?xml version="1.0" encoding="UTF-8"?>
<svg version="1.1" xmlns="http://www.w3.org/2000/svg" width="1200" height="700">
<path d="M0 0 C4.52203036 0.54963905 7.32108693 2.34363502 11.0625 4.875 C17.19629905 8.83195292 22.89173923 10.58712348 30 12 C54.70016827 17.71421803 54.70016827 17.71421803 60.1875 26.125 C63.04917033 31.46249747 63.88139843 36.96497416 62.57421875 42.94921875 C60.70852344 48.77522434 57.20842505 52.67302777 53 57 C52.08541016 57.97259766 52.08541016 57.97259766 51.15234375 58.96484375 C45.33451046 64.99770989 38.88642763 70.34825858 32.17578125 75.36328125 C25.84008841 80.20235373 21.40022279 87.1587524 20 95 C19.1616166 101.98216174 20.48869875 107.89158243 24 114 C28.13250314 119.09604014 33.55877193 121.95818395 40 123 C57.87212818 123.58677302 73.77631161 113.38047355 87.5625 103.0625 C88.37178955 102.45696289 89.1810791 101.85142578 90.01489258 101.22753906 C90.8117749 100.63038086 91.60865723 100.03322266 92.4296875 99.41796875 C107.09631894 88.42864079 119.32436336 83.76541585 137.40820312 81.77636719 C149.7474939 80.31207201 158.59321059 73.9089224 167.72192383 65.88476562 C177.58507332 57.24959354 188.26850465 50.66326822 201.86328125 51.08984375 C211.78977581 51.20817282 216.68858095 45.90317149 223.50634766 39.41943359 C231.74149643 31.59348476 241.69272372 27.95904177 252.375 24.60546875 C265.09759076 20.61015075 276.94847627 15.47992363 287.8125 7.625 C295.9091028 2.0196596 306.40053403 0.92388152 316 2 C331.67373947 5.19174331 342.68355798 14.08873748 354.26171875 24.46337891 C356.64023348 26.5659592 359.09265404 28.5684626 361.5625 30.5625 C366.47101121 34.53780624 371.27144637 38.62822573 376.05493164 42.75219727 C376.61043701 43.23100342 377.16594238 43.70980957 377.73828125 44.203125 C378.28186279 44.67274658 378.82544434 45.14236816 379.38549805 45.6262207 C380.95788532 46.96416463 382.55841673 48.26092148 384.1640625 49.55859375 C386.81148096 51.83770744 388.89885177 54.08105541 391.0625 56.8125 C391.83078125 57.77671875 392.5990625 58.7409375 393.390625 59.734375 C393.80634766 60.25837891 394.22207031 60.78238281 394.65039062 61.32226562 C396.09276928 63.11532389 397.56625271 64.87903568 399.046875 66.640625 C413.17321593 83.53415726 423.87739409 98.44212237 426.80053711 120.55932617 C428.85963707 135.90276916 432.66606159 150.63787764 437.375 165.375 C437.72578613 166.51018066 438.07657227 167.64536133 438.43798828 168.81494141 C440.81463619 175.97695866 443.73086307 180.6591633 449 186 C450.20269077 187.57733849 451.37735716 189.17722178 452.5 190.8125 C453.36625 192.06740234 453.36625 192.06740234 454.25 193.34765625 C456.07159817 196.10851598 457.78200971 198.92375259 459.5 201.75 C464.36008579 209.42438937 469.82296061 213.27012238 478 217 C477.67 218.32 477.34 219.64 477 221 C468.43457218 222.68500219 462.34491122 221.00475745 454.76953125 216.74609375 C449.07869985 212.88249255 445.71440456 207.68603163 442 202 C438.21597245 196.50830873 434.26622529 192.11326472 429 188 C429.50789063 188.84820313 430.01578125 189.69640625 430.5390625 190.5703125 C434.17499171 196.74056248 437.40126531 202.75401383 440 209.4375 C444.82114307 220.93900354 454.51314112 225.32943727 465 231 C464.67 232.32 464.34 233.64 464 235 C448.67835044 235.75352375 438.03555272 233.10986428 426 223 C425.00218769 222.03984099 424.01808236 221.06469613 423.0625 220.0625 C420.85576543 217.85576543 420.06788513 217.19594157 417 217 C414.77643768 218.54440069 414.77643768 218.54440069 412.6875 220.75 C408.53756543 224.89248406 404.52104706 227.75697256 398.58764648 228.16650391 C395.8449519 228.15171849 393.11514167 228.05522669 390.375 227.9375 C381.290065 227.73581249 374.5043686 228.6999738 366 232 C358.71636245 234.39448332 351.70278426 236.10940264 344 235 C340.20430856 233.06342273 339.30157528 231.73239712 337.6875 227.8125 C336.40418749 220.6959488 335.84736296 216.17624952 340 209.9375 C340.98019912 208.61014702 341.97369975 207.29203871 343 206 C341.865625 206.185625 340.73125 206.37125 339.5625 206.5625 C338.386875 206.706875 337.21125 206.85125 336 207 C335 206 335 206 334.875 202.5625 C335.57724794 197.14933883 339.0877418 194.06660936 342.7734375 190.296875 C346.76676589 186.17744151 348.52369187 182.87792706 350.05859375 177.4140625 C351.27830758 174.2863316 353.077666 171.73942463 355 169 C340.83008177 170.82876329 340.83008177 170.82876329 327.04296875 174.4296875 C323.57151008 175.39877539 320.58526764 175.31449716 317 175 C316.01 174.34 315.02 173.68 314 173 C314.38038835 169.76669902 315.01842188 167.97298124 316.875 165.25 C321.78501727 157.74056182 324.04244933 148.08655897 322.515625 139.171875 C322.34546875 138.45515625 322.1753125 137.7384375 322 137 C321.79246094 137.92039062 321.58492187 138.84078125 321.37109375 139.7890625 C315.4650043 164.05592375 315.4650043 164.05592375 306 170 C303.38668572 170.81187692 300.90997419 171.49104119 298.25 172.0625 C295.75734944 172.59999245 293.43833294 173.21794931 291 174 C289.60912568 177.06972623 289.60912568 177.06972623 291.37109375 180.23046875 C292.05107954 181.55404577 292.74056292 182.8727698 293.4375 184.1875 C293.79642334 184.89366455 294.15534668 185.5998291 294.52514648 186.32739258 C296.38916389 189.98452909 298.32146982 193.58872311 300.3515625 197.15625 C305.21580421 205.90093053 307.07113966 211.84290411 305 222 C304.80497862 223.43649893 304.61589365 224.87384153 304.4375 226.3125 C304.293125 227.199375 304.14875 228.08625 304 229 C305.14747465 227.37615858 306.2929291 225.75088944 307.4375 224.125 C308.07558594 223.22007812 308.71367188 222.31515625 309.37109375 221.3828125 C312.18283926 217.26970756 312.69376175 213.91893504 312 209 C310.72090628 205.47821913 309.01943721 202.23531346 307.25 198.9375 C306.8065625 198.07833984 306.363125 197.21917969 305.90625 196.33398438 C303.9208165 192.51202489 301.8681029 188.7578064 299.65625 185.0625 C298 182 298 182 298.25 179.0625 C298.4975 178.381875 298.745 177.70125 299 177 C303.18349655 175.84953845 306.91439214 175.66537185 310.9921875 177.34765625 C314.86100871 180.53153052 316.38174765 185.4792124 318.2578125 190.0078125 C319.79823676 193.70094879 321.76192709 196.94866236 323.9375 200.3125 C327.13804916 205.7628683 328.58582125 209.7648392 327 216 C319.33165339 235.25800683 319.33165339 235.25800683 311.67578125 239.1953125 C308.74112838 240.07785044 306.37129646 240.13299685 303.3125 240.125 C296.45350067 240.55560982 291.40592005 242.79765687 285.31030273 245.69580078 C279.12964254 248.59604141 272.87322212 250.90970857 266.375 253 C265.46306885 253.30244629 264.5511377 253.60489258 263.61157227 253.91650391 C257.11938312 255.95798256 250.28448311 257.75322828 243.875 254.4375 C238.96077884 251.69669172 235.44004948 247.80037304 232.87109375 242.8046875 C231.72237991 240.57129962 230.75970014 238.79949235 229 237 C226.3479689 236.32206922 224.03763294 236.18478121 221.3046875 236.23046875 C218.39991917 235.93999192 217.89136239 235.15619008 216 233 C214.26496965 230.4852089 212.77201306 227.83541863 211.25 225.1875 C210.61384766 224.13852539 210.61384766 224.13852539 209.96484375 223.06835938 C207.91642824 219.50198123 206.95379848 217.69225279 207.234375 213.48828125 C207.61335938 212.25658203 207.61335938 212.25658203 208 211 C227.82773955 206.20020138 227.82773955 206.20020138 235.1875 209.375 C241.37451324 215.14954569 245.48362664 222.5611007 249.4453125 229.96875 C251.42154638 232.55076412 252.86865152 233.19056723 256 234 C263.9972641 233.79116207 272.68956021 230.81308135 278.7265625 225.47265625 C280.64188012 223.25770306 280.87178783 221.94887992 281 219 C279.72075668 211.8825079 276.47708312 206.64671371 271 202 C267.50315169 199.57196498 263.88887363 197.3309537 260.28198242 195.07128906 C251.67646335 189.63423854 244.98858193 184.07688523 242 174 C241.75 170.9375 241.75 170.9375 242 169 C241.34 169.33 240.68 169.66 240 170 C239.79029441 174.14093698 239.79029441 174.14093698 241 178 C241.3125 181.4375 241.3125 181.4375 241 185 C239.22848095 187.09405105 237.75515113 187.89147698 235.0378418 188.28198242 C232.57968362 188.40775111 230.14859539 188.41362345 227.6875 188.375 C226.7895874 188.36919922 225.8916748 188.36339844 224.96655273 188.35742188 C218.4022266 188.2310836 212.40512799 187.16296714 206.01171875 185.671875 C196.51220682 183.79603444 185.45785907 184.022587 176 186 C173.18733429 186.21946426 170.38275624 186.27574601 167.5625 186.3125 C166.82451172 186.34150391 166.08652344 186.37050781 165.32617188 186.40039062 C160.11505875 186.46060793 156.9536218 185.69742245 153 182 C149.50274301 176.26286103 149.57044287 170.02710567 149.6875 163.5 C149.68427734 162.60152344 149.68105469 161.70304688 149.67773438 160.77734375 C149.72241845 155.1958963 150.42938323 150.35636636 152 145 C150.68 145 149.36 145 148 145 C147.89042969 146.13695312 147.78085937 147.27390625 147.66796875 148.4453125 C145.69896158 168.00766478 143.16185511 187.25800255 127.71875 201.03515625 C116.29824345 209.76739421 102.04431469 211.24392057 88.125 212.421875 C72.64368768 213.75110822 55.93902519 215.92124628 44.9375 228.125 C42.88807188 230.6203917 41.35996278 233.07185046 40 236 C40.88300781 235.26394531 41.76601563 234.52789063 42.67578125 233.76953125 C58.76954757 220.58427692 73.82622205 216.78053215 94.50927734 215.91601562 C110.53169097 215.21276411 124.74449498 212.59846558 136.82421875 201.3984375 C140.15904731 197.72234283 142.76219343 193.65254031 145.37109375 189.44140625 C147 187 147 187 149 186 C152.465 188.475 152.465 188.475 156 191 C151.7055652 205.01341881 146.26050521 215.83124644 133.04345703 223.04101562 C114.66996514 232.67748708 114.66996514 232.67748708 106.3125 231.75 C104.69794922 231.58757812 104.69794922 231.58757812 103.05078125 231.421875 C100 231 100 231 97.66015625 230.47265625 C93.81490248 229.78943201 90.023705 229.73551361 86.125 229.6875 C85.34769531 229.65849609 84.57039063 229.62949219 83.76953125 229.59960938 C77.02646869 229.52594567 72.91003288 231.25375884 67.91796875 235.96484375 C67.34691406 236.61582031 66.77585937 237.26679687 66.1875 237.9375 C60.40482816 243.92111411 53.58446931 247.48055715 45.23046875 248.1015625 C42.75933951 247.98904173 40.63248157 247.46620569 38.25 246.8125 C34.71990077 245.90586787 34.71990077 245.90586787 31.3125 247.3125 C28.73184274 250.31164222 26.6746651 253.47980872 24.546875 256.80859375 C21.761785 260.75413792 18.63711173 263.45429609 14 265 C6.27275888 265.49853168 -0.53812855 263.93754931 -8 262 C-5.96946565 245.96946565 -5.96946565 245.96946565 0 240 C1.0725 239.773125 2.145 239.54625 3.25 239.3125 C8.12775637 237.60528527 9.93166286 234.98970751 13 231 C16.15009962 227.39988615 19.3524267 225.15688103 23.4375 222.75 C32.59364149 217.01820633 35.74390174 208.79971244 39.5078125 199.0390625 C41.06102633 195.87571077 41.8820775 194.57560496 45 193 C47.8125 192.6640625 47.8125 192.6640625 51 192.625 C58.73673289 192.20632674 65.95637171 190.03806993 72.21484375 185.3359375 C74 184 74 184 76 184 C76.26645644 179.3019523 75.48856039 176.17303813 73.625 171.875 C68.88262552 159.97204309 68.73097494 148.6142862 69 136 C68.35933594 136.20496094 67.71867187 136.40992188 67.05859375 136.62109375 C52.42279277 141.17978586 37.30736612 142.0043062 23.3125 134.8125 C13.33666399 128.70410766 6.47906354 121.1710142 3.36328125 109.64453125 C1.97393608 99.53069596 1.55297307 87.95822321 7 79 C10.42055023 74.71889995 14.11691711 70.8608621 18 67 C18.62261719 66.34128906 19.24523437 65.68257813 19.88671875 65.00390625 C25.41762089 59.20516381 31.72860122 53.95823226 38.3125 49.3984375 C40.2960612 48.08158161 40.2960612 48.08158161 40.3125 45.375 C40.25156054 43.04862094 40.25156054 43.04862094 39 42 C36.88886803 41.80558144 34.77710078 41.61635511 32.66308594 41.45629883 C21.51451483 40.57190692 12.45987928 38.72264126 4.60546875 30.140625 C-0.36386872 23.5148417 -3.93988212 16.62440798 -3.41015625 8.203125 C-2.83552151 5.11651552 -1.66848521 2.64176826 0 0 Z M314 60 C314.1632645 63.59181904 314.71273445 65.60849463 316.8515625 68.5234375 C319.84362857 72.86523684 320.91155412 77.83534153 322.25 82.875 C322.6521875 84.33679688 322.6521875 84.33679688 323.0625 85.828125 C323.71807237 88.21628149 324.36356832 90.60668529 325 93 C329.26655151 86.60017273 328.64000248 77.81390528 327.3125 70.4375 C326.20285855 65.92860481 324.36968948 62.24452958 321 59 C317.10515672 57.44387637 317.10515672 57.44387637 314 60 Z M389.8125 129.5625 C389.214375 130.696875 388.61625 131.83125 388 133 C387.13375 134.60875 387.13375 134.60875 386.25 136.25 C384.68019546 140.95941363 384.73309258 145.08692639 385 150 C387.91643675 148.68667859 389.21065594 147.76773832 391.4375 145.3125 C394 143 394 143 396.5 142.9375 C401.93733592 145.24836777 405.26709292 148.81690036 408 154 C408.88877579 157.64046581 409.49800668 161.2878915 410 165 C410.99 165 411.98 165 413 165 C415.64776766 162.35223234 415.70698201 160.70268183 416 157 C413.78568919 147.20103838 408.27022514 139.62746528 402 132 C401.31035156 131.07574219 400.62070312 130.15148437 399.91015625 129.19921875 C398.13685106 126.72117123 398.13685106 126.72117123 395 126.3125 C391.78570052 126.73529327 391.78570052 126.73529327 389.8125 129.5625 Z M383 204 C381.46865622 206.71826792 381.46865622 206.71826792 381 209 C382.56033623 210.56033623 384.08947136 210.20707559 386.25 210.25 C389.12694434 210.18576201 391.26957983 209.92297719 394.0625 209.125 C396.48233957 206.47098241 396.29257954 205.33344169 396.3125 201.8125 C396.23210847 200.20696626 396.1352403 198.60184626 396 197 C389.8576143 196.45329551 386.97266321 199.6791708 383 204 Z " fill="#6692FF" transform="translate(375,368)"/>
<path d="M0 0 C25.9565625 -0.0928125 25.9565625 -0.0928125 52.4375 -0.1875 C57.86888428 -0.21481201 63.30026855 -0.24212402 68.89624023 -0.27026367 C75.6114502 -0.28381348 75.6114502 -0.28381348 78.77113342 -0.28633118 C80.9429052 -0.29088943 83.11467017 -0.30133786 85.28639221 -0.31672668 C112.64332049 -0.50061497 136.71285179 3.34704739 158 22 C158.68835938 22.59296875 159.37671875 23.1859375 160.0859375 23.796875 C174.81438818 37.4192365 183.03809071 58.06101193 184.16015625 77.8203125 C184.78967988 100.0999748 177.00770596 120.69442768 161.88671875 137.140625 C150.17447491 148.68312617 136.58235544 155.46060234 121 160 C121.3623877 160.49814209 121.72477539 160.99628418 122.09814453 161.50952148 C123.77558169 163.81753198 125.45029836 166.12750393 127.125 168.4375 C127.69476562 169.22060547 128.26453125 170.00371094 128.8515625 170.81054688 C132.69965524 176.12353856 136.4020972 181.51455175 140 187 C139.67 187.66 139.34 188.32 139 189 C136.07731443 189.52018992 133.19178432 189.93925097 130.25 190.3125 C113.49831382 192.74666593 101.99405517 199.4662163 89 210 C87.38325378 207.77295884 85.81172002 205.5310349 84.28271484 203.2421875 C82.06793431 199.96706638 82.06793431 199.96706638 79.43164062 197.109375 C68.78637738 184.25382575 70.84847297 168.00921853 71.31335449 152.30627441 C71.41693048 148.43130183 71.46159086 144.55565464 71.51171875 140.6796875 C71.61794586 133.11797676 71.78786355 125.5595616 72 118 C72.59818542 117.97821686 73.19637085 117.95643372 73.81268311 117.93399048 C76.55772509 117.83009552 79.30224905 117.7159029 82.046875 117.6015625 C82.98772949 117.56748291 83.92858398 117.53340332 84.89794922 117.49829102 C96.62497061 116.99219899 106.42411869 114.50658126 115 106 C122.4015209 97.88272763 124.64000533 90.48548071 124.3359375 79.52734375 C123.34899043 69.16439951 118.82872347 61.78734398 111 55 C95.39606563 44.72600303 77.43923194 47.54233035 59 47 C59 104.42 59 161.84 59 221 C51.575 222.98 51.575 222.98 44 225 C29.93864223 231.22183972 18.31012942 239.93892277 6.44140625 249.59667969 C2.21251584 253 2.21251584 253 0 253 C-0.1743253 248.58937831 -0.30065049 244.18063016 -0.38452148 239.76757812 C-0.41951417 238.26982662 -0.46712827 236.7723106 -0.52807617 235.27539062 C-1.08492067 221.23729397 -1.08492067 221.23729397 3.3828125 216.1953125 C4.58387891 215.12495313 5.7892354 214.0593766 7 213 C12.54517916 205.10442452 13.83578117 194.5026934 12.375 185.125 C10.61943026 177.51007648 7.28379947 171.70094153 2 166 C1.34 165.67 0.68 165.34 0 165 C0 110.55 0 56.1 0 0 Z " fill="#6691FF" transform="translate(440,213)"/>
<path d="M0 0 C1.38285187 0.00067978 1.38285187 0.00067978 2.79364014 0.00137329 C3.75973709 -0.00198532 4.72583405 -0.00534393 5.72120667 -0.00880432 C8.94075789 -0.01836082 12.16025721 -0.02026095 15.37982178 -0.02133179 C17.62213665 -0.02454533 19.86445131 -0.02790948 22.10676575 -0.03141785 C26.82726526 -0.03742375 31.54774644 -0.03925667 36.26824951 -0.03866577 C42.2717092 -0.03856502 48.27504827 -0.05211921 54.27847958 -0.06943798 C58.92267883 -0.08065672 63.56685007 -0.08258184 68.21106148 -0.08205605 C70.42068452 -0.08322512 72.63030856 -0.08758555 74.83991814 -0.09538841 C100.37168811 -0.17697922 131.24985972 0.0834111 150.81732178 19.26382446 C151.40642334 19.88515259 151.9955249 20.50648071 152.60247803 21.14663696 C153.32564209 21.85046509 154.04880615 22.55429321 154.79388428 23.27944946 C168.9399417 37.78454388 174.26529289 55.7996506 174.07342529 75.72647095 C173.53726709 92.91908754 166.77798961 108.01571403 155.52044678 120.93960571 C153.47862381 123.19473795 153.47862381 123.19473795 151.60247803 126.14663696 C152.60665771 126.66870728 153.6108374 127.19077759 154.64544678 127.72866821 C174.39268555 138.24677339 188.64311545 151.25521633 195.56732178 173.20523071 C201.30345752 195.2245905 197.62179921 216.84248549 186.61077881 236.43569946 C181.53435534 245.0496403 173.32388299 255.98112609 163.60247803 259.14663696 C163.16419678 258.04448853 162.72591553 256.94234009 162.27435303 255.80679321 C156.87931127 242.72199922 149.90314744 231.30030055 140.57513428 220.62710571 C140.10510986 220.08747192 139.63508545 219.54783813 139.15081787 218.99185181 C137.88012394 217.56066837 136.57639638 216.15900531 135.27044678 214.75991821 C133.60247803 212.14663696 133.60247803 212.14663696 133.77435303 209.00210571 C134.34564336 207.03223196 134.98024336 205.08000544 135.66497803 203.14663696 C138.48624558 193.4121871 137.12937744 183.07311674 132.60247803 174.14663696 C128.29325241 166.40349718 121.78667065 161.88952918 113.4442749 159.08486938 C109.38131377 158.09262487 105.62273229 157.88421816 101.47357178 157.90835571 C99.92864101 157.8929464 98.38371895 157.87664354 96.83880615 157.85952759 C94.43374221 157.84305623 92.02932253 157.83416819 89.62420654 157.84121704 C87.28160565 157.84384408 84.94091622 157.81569107 82.59857178 157.78335571 C81.8859166 157.79356247 81.17326141 157.80376923 80.43901062 157.81428528 C76.12988212 157.73042916 72.87891655 156.914246 69.69703674 153.87489319 C67.3766212 150.21106726 67.8810864 146.00718637 68.01654053 141.81460571 C68.02503021 140.82285843 68.0335199 139.83111115 68.04226685 138.80931091 C68.07578445 135.64980236 68.15106287 132.49287057 68.22747803 129.33413696 C68.25757965 127.1889916 68.28495511 125.04380612 68.30950928 122.89859009 C68.37556947 117.64706376 68.47590018 112.39703444 68.60247803 107.14663696 C69.28237793 107.13205444 69.96227783 107.11747192 70.66278076 107.10244751 C73.78904084 107.02727276 76.91431285 106.93084464 80.03997803 106.83413696 C81.10925537 106.81157837 82.17853271 106.78901978 83.2802124 106.76577759 C94.22649162 106.39755413 101.43035437 104.36404683 109.42669678 96.66616821 C114.70456109 90.5544582 116.30900029 83.86132409 115.99310303 75.88491821 C114.93346573 68.45686072 111.49930555 60.30048959 105.59466553 55.52163696 C89.44356823 44.13374463 72.27903571 48.66355091 51.60247803 48.14663696 C51.60247803 79.82663696 51.60247803 111.50663696 51.60247803 144.14663696 C47.97247803 143.48663696 44.34247803 142.82663696 40.60247803 142.14663696 C24.45433028 140.72884064 10.0831896 144.85095006 -2.60845947 154.89663696 C-4.39752197 156.14663696 -4.39752197 156.14663696 -7.39752197 156.14663696 C-7.42084932 135.95441988 -7.43850034 115.76220551 -7.44933414 95.56997776 C-7.45449745 86.19505425 -7.46154081 76.8201391 -7.47296143 67.44522095 C-7.4829072 59.27709175 -7.48937515 51.1089686 -7.49161047 42.94083351 C-7.49291776 38.61312641 -7.49600475 34.28543663 -7.50325203 29.95773506 C-7.51001057 25.88913968 -7.51213928 21.82056884 -7.51062965 17.75196838 C-7.51090606 16.25432133 -7.51291216 14.75667351 -7.51672745 13.2590313 C-7.52166204 11.22312378 -7.51992015 9.18720326 -7.51777649 7.15129089 C-7.51869828 6.00918939 -7.51962008 4.86708788 -7.5205698 3.69037724 C-7.27987483 -1.28545613 -4.28151385 0.02190555 0 0 Z " fill="#6691FF" transform="translate(650.3975219726563,212.85336303710938)"/>
<path d="M0 0 C1.25619141 0.02707031 2.51238281 0.05414063 3.80664062 0.08203125 C6.89379972 0.15246074 9.97694109 0.25616341 13.0625 0.375 C15.84206897 10.92392428 18.06266356 21.57851509 20.29296875 32.25390625 C20.69212891 34.1577342 21.09140769 36.06153729 21.49079895 37.96531677 C22.32183943 41.9294345 23.15114263 45.89391071 23.97924805 49.85864258 C25.04153817 54.94365149 26.10870977 60.02762211 27.17721081 65.11132908 C28.00029389 69.03043187 28.8205823 72.95011556 29.64003944 76.86997795 C30.03264732 78.74609582 30.42618583 80.62201919 30.82066917 82.49774361 C31.36924907 85.10801071 31.91400782 87.71904662 32.45776367 90.33032227 C32.70316391 91.49210999 32.70316391 91.49210999 32.95352173 92.67736816 C33.56596708 95.63470132 34.0625 98.34566449 34.0625 101.375 C25.8125 101.375 17.5625 101.375 9.0625 101.375 C6.0625 89.375 6.0625 89.375 6.0625 86.375 C-4.8275 86.375 -15.7175 86.375 -26.9375 86.375 C-27.9275 90.005 -28.9175 93.635 -29.9375 97.375 C-30.5975 98.695 -31.2575 100.015 -31.9375 101.375 C-41.1775 101.375 -50.4175 101.375 -59.9375 101.375 C-53.23153793 84.45042905 -46.35696249 67.60451717 -39.3425293 50.80566406 C-35.97221331 42.7289151 -32.62833395 34.64727351 -29.421875 26.50390625 C-28.63164495 24.51802789 -27.83990509 22.53275936 -27.04754639 20.54772949 C-26.33612399 18.74728676 -25.64547133 16.93867995 -24.95556641 15.12988281 C-20.78572949 4.70918465 -20.78572949 4.70918465 -16.18164062 1.30444336 C-11.05537932 -0.81867204 -5.44023572 -0.2225162 0 0 Z M-5.9375 29.375 C-7.65264746 34.01753012 -9.36146827 38.66232072 -11.06445312 43.30932617 C-11.64474713 44.89004314 -12.22676866 46.47012703 -12.81054688 48.04956055 C-13.64907911 50.31915928 -14.48138408 52.59095792 -15.3125 54.86328125 C-15.57498535 55.56963211 -15.8374707 56.27598297 -16.10791016 57.0037384 C-17.17445003 59.93571715 -17.9375 62.22849781 -17.9375 65.375 C-11.3375 65.375 -4.7375 65.375 2.0625 65.375 C1.27130397 61.24990924 0.47955689 57.12492548 -0.3125 53 C-0.53421875 51.84371094 -0.7559375 50.68742187 -0.984375 49.49609375 C-2.27385021 42.78323753 -3.58367524 36.0751879 -4.9375 29.375 C-5.2675 29.375 -5.5975 29.375 -5.9375 29.375 Z " fill="#6692FF" transform="translate(737.9375,79.625)"/>
<path d="M0 0 C7.01070785 -0.12696594 14.02111832 -0.21442112 21.03271484 -0.2746582 C23.41694214 -0.29977409 25.80109265 -0.33387324 28.18505859 -0.37719727 C31.61575279 -0.43797447 35.04542744 -0.46623993 38.4765625 -0.48828125 C39.53928375 -0.51408768 40.602005 -0.5398941 41.69692993 -0.56648254 C49.9869454 -0.56961148 49.9869454 -0.56961148 53.53271484 1.90551758 C58.98351614 8.74194212 59.71997992 18.0296464 61.2265625 26.44140625 C61.41971039 27.49029526 61.61285828 28.53918427 61.81185913 29.61985779 C62.42152433 32.93312999 63.02392438 36.24765962 63.625 39.5625 C64.23382449 42.9093542 64.84429173 46.25587214 65.45956421 49.60154724 C65.84077569 51.6752642 66.2181826 53.74968478 66.59146118 55.82484436 C66.76188934 56.75348801 66.9323175 57.68213165 67.10791016 58.63891602 C67.25652496 59.4592482 67.40513977 60.27958038 67.55825806 61.12477112 C67.82699756 63.00237582 67.82699756 63.00237582 69 64 C71.75737142 56.97509549 74.51404754 49.94991841 77.27026367 42.92456055 C78.20597982 40.53973361 79.14184915 38.15496677 80.07788086 35.77026367 C81.43124022 32.32226492 82.78402969 28.87404302 84.13671875 25.42578125 C84.54838791 24.37731522 84.96005707 23.32884918 85.38420105 22.24861145 C88.28799657 14.84406994 91.14467863 7.42383555 94 0 C103.57 0 113.14 0 123 0 C119.0059227 10.89180518 114.71835241 21.59203636 110.13754272 32.24874878 C108.26900634 36.59618429 106.41213077 40.94859725 104.5546875 45.30078125 C103.98747231 46.62892601 103.98747231 46.62892601 103.40879822 47.98390198 C98.80764417 58.77188179 94.31164281 69.60351185 89.82250977 80.43847656 C89.5267807 81.15119217 89.23105164 81.86390778 88.92636108 82.59822083 C88.13693794 84.50115664 87.34904258 86.40472606 86.5612793 88.30834961 C84.76214187 92.56241639 82.87590164 96.77922131 81 101 C71.43 101 61.86 101 52 101 C50.83082031 96.44445312 49.66164063 91.88890625 48.45703125 87.1953125 C47.70527112 84.26948136 46.95340598 81.34367797 46.20117188 78.41796875 C45.01323661 73.79762064 43.82564303 69.17718702 42.64038086 64.55615234 C40.59363478 56.57788506 38.53951407 48.60165733 36.4628315 40.63112259 C35.4531832 36.75446504 34.45937737 32.87412712 33.47412109 28.99121094 C33.05016082 27.36627334 32.62530286 25.74156948 32.19921875 24.1171875 C32.0280806 23.42303741 31.85694244 22.72888733 31.68061829 22.01370239 C30.59760414 17.97900528 29.25068043 15.63747051 26 13 C17.88164096 8.67691098 8.84566483 6.34226924 0 4 C0 2.68 0 1.36 0 0 Z " fill="#6691FF" transform="translate(449,80)"/>
<path d="M0 0 C1.01328369 0.00128906 2.02656738 0.00257812 3.07055664 0.00390625 C10.35465906 0.09741956 16.85427838 0.82114251 23.75 3.3125 C24.79318738 6.54930571 24.67287835 8.76798417 23.97265625 12.078125 C23.78896484 12.96757813 23.60527344 13.85703125 23.41601562 14.7734375 C23.11727539 16.15402344 23.11727539 16.15402344 22.8125 17.5625 C22.61720703 18.49835938 22.42191406 19.43421875 22.22070312 20.3984375 C21.73823295 22.70488027 21.24775423 25.009316 20.75 27.3125 C18.27604167 26.56380208 15.80208333 25.81510417 13.328125 25.06640625 C12.47734375 24.81761719 11.6265625 24.56882812 10.75 24.3125 C9.80833984 24.02439453 9.80833984 24.02439453 8.84765625 23.73046875 C2.49378658 22.46442768 -5.37784659 22.27479478 -11.5625 24.375 C-14.53943941 26.150814 -14.53943941 26.150814 -15.5625 29.6875 C-15.63552005 33.46682979 -15.63552005 33.46682979 -12.7578125 35.73046875 C-8.35641862 39.1539914 -3.47390879 41.76670817 1.38476562 44.47460938 C10.00308288 49.39161877 16.70583945 54.52000123 19.75 64.3125 C21.05846549 73.66688047 19.55853995 81.66535455 14.27734375 89.49609375 C6.69704701 98.97594476 -4.44240266 103.7297497 -16.25 105.3125 C-29.47362146 106.13957625 -42.92324 105.62177865 -55.25 100.3125 C-54.72963992 95.10889925 -53.87656148 90.00865804 -52.875 84.875 C-52.64039063 83.65941406 -52.40578125 82.44382812 -52.1640625 81.19140625 C-51.71160156 79.76634766 -51.71160156 79.76634766 -51.25 78.3125 C-47.45194207 77.04648069 -46.09179804 77.84352066 -42.375 79.1875 C-33.46096492 82.38225443 -23.84386414 84.21901837 -14.625 81 C-11.06136384 79.56702961 -11.06136384 79.56702961 -9.25 76.3125 C-8.85650957 72.88171411 -8.85650957 72.88171411 -10.25 69.3125 C-13.67190091 66.11977952 -17.80887102 64.05711817 -21.94140625 61.921875 C-31.11457408 57.17218355 -40.19716236 51.18027861 -44.25 41.3125 C-46.3227295 32.86573766 -44.76173033 25.62522957 -40.5625 18.125 C-34.21777193 8.2723694 -24.84506287 3.38326087 -13.53686523 0.70068359 C-9.04545682 -0.06170985 -4.54469252 -0.02387036 0 0 Z " fill="#6692FF" transform="translate(660.25,77.6875)"/>
<path d="M0 0 C1.084021 0.00523682 2.16804199 0.01047363 3.28491211 0.01586914 C4.45473633 0.0190918 5.62456055 0.02231445 6.82983398 0.02563477 C8.0615332 0.03401367 9.29323242 0.04239258 10.56225586 0.05102539 C12.41560547 0.05779297 12.41560547 0.05779297 14.30639648 0.06469727 C17.37089703 0.07652931 20.43530307 0.09301366 23.49975586 0.11352539 C22.95923393 6.64909088 22.05379273 12.96595384 20.65795898 19.37109375 C20.38217262 20.6681575 20.38217262 20.6681575 20.10081482 21.99142456 C19.4994409 24.81321986 18.89037071 27.63328968 18.28100586 30.45336914 C17.85842027 32.42720076 17.43626739 34.40112508 17.01452637 36.37513733 C16.13351084 40.49348407 15.24897402 44.61105203 14.36157227 48.72802734 C13.22341775 54.00855748 12.09154363 59.290408 10.96195221 64.57277584 C9.88302061 69.61678292 8.80083066 74.66008929 7.71850586 79.70336914 C7.40919884 81.14687901 7.40919884 81.14687901 7.09364319 82.6195507 C6.51142392 85.33400025 5.92686999 88.04793577 5.34155273 90.76171875 C5.08280617 91.97029793 5.08280617 91.97029793 4.8188324 93.20329285 C4.16337866 96.23256933 3.480745 99.17055797 2.49975586 102.11352539 C-6.41024414 102.11352539 -15.32024414 102.11352539 -24.50024414 102.11352539 C-20.73239666 82.06531331 -16.6064717 62.11104743 -12.34204102 42.16357422 C-11.41750554 37.83828392 -10.49892064 33.51175194 -9.58173752 29.18489742 C-8.8689111 25.82591735 -8.15264519 22.46767796 -7.43534088 19.10965157 C-7.09446739 17.51143812 -6.75477222 15.91297289 -6.41628265 14.31425285 C-5.94881886 12.10846 -5.47664238 9.90372927 -5.00317383 7.69921875 C-4.73623718 6.44749374 -4.46930054 5.19576874 -4.1942749 3.90611267 C-3.26029486 0.14803604 -3.26029486 0.14803604 0 0 Z " fill="#6692FF" transform="translate(585.500244140625,78.886474609375)"/>
<path d="M0 0 C1.6171875 2.64453125 1.6171875 2.64453125 2.875 5.8125 C3.30554688 6.85019531 3.73609375 7.88789062 4.1796875 8.95703125 C5.05473693 12.20304793 5.15839163 13.86200954 4 17 C-0.15049078 19.9297582 -3.81639915 21.88731303 -9 22 C-13.35246049 19.97750659 -14.98543216 17.82656406 -17.0625 13.5625 C-18.56459908 10.50420962 -19.71725089 8.27162123 -22.18359375 5.90234375 C-24 4 -24 4 -24 0 C-20.93981857 -0.39581757 -17.87684057 -0.76291162 -14.8125 -1.125 C-13.94818359 -1.23714844 -13.08386719 -1.34929688 -12.19335938 -1.46484375 C-3.57786268 -2.45513073 -3.57786268 -2.45513073 0 0 Z " fill="#6692FF" transform="translate(644,576)"/>
<path d="M0 0 C3.97627233 1.60742924 7.12395006 3.02718836 9 7 C8.52512667 12.40677209 7.11150194 17.3123344 5.4375 22.4375 C5.20353516 23.16904297 4.96957031 23.90058594 4.72851562 24.65429688 C4.15732778 26.43780179 3.57936877 28.21913583 3 30 C-1.15226856 31.18956883 -3.38725993 30.78960563 -7.3125 29.0625 C-8.19550781 28.68222656 -9.07851563 28.30195312 -9.98828125 27.91015625 C-10.65214844 27.60980469 -11.31601562 27.30945313 -12 27 C-11.45276317 23.62537285 -10.9451 21.91765 -9 19 C-8.67321534 16.88288227 -8.40934338 14.75567154 -8.1875 12.625 C-7.18311689 5.40951176 -7.18311689 5.40951176 -4.5 2.75 C-2 1 -2 1 0 0 Z " fill="#6692FF" transform="translate(358,601)"/>
<path d="M0 0 C2.375 1.6875 2.375 1.6875 4 4 C3.42701575 10.92164974 -1.86531644 15.91614224 -6.625 20.5625 C-9.48092278 22.29108484 -10.73021977 22.73570055 -14 22 C-17.26600019 19.53235541 -18.78253791 18.04381805 -19.625 14 C-18.30934252 7.6848441 -12.27893694 4.62982036 -7.28125 1.13671875 C-4.60879063 -0.19493481 -2.95006703 -0.34076682 0 0 Z " fill="#6692FF" transform="translate(385,582)"/>
</svg>
