<?xml version="1.0" encoding="UTF-8"?>
<svg version="1.1" xmlns="http://www.w3.org/2000/svg" width="1200" height="700">
<path d="M0 0 C0.76596497 0.00215515 1.53192993 0.0043103 2.32110596 0.00653076 C42.91806937 0.18930003 81.19583292 13.76277084 112.8125 39.3125 C113.42609375 39.80508301 114.0396875 40.29766602 114.671875 40.80517578 C125.05038519 49.20722289 134.83849391 58.54946361 142.8125 69.3125 C142.8125 69.9725 142.8125 70.6325 142.8125 71.3125 C143.30878906 70.91417969 143.80507813 70.51585937 144.31640625 70.10546875 C145.33541016 69.31076172 145.33541016 69.31076172 146.375 68.5 C147.03628906 67.97792969 147.69757812 67.45585937 148.37890625 66.91796875 C157.19982558 61.09871057 167.04954688 60.97582221 177.1328125 62.96875 C188.02561233 66.26787475 198.58035779 73.00227934 205.87890625 81.8046875 C209.88523009 85.22953425 213.83009582 86.0674164 218.875 87.3125 C220.77470988 87.82341727 222.67316639 88.33901866 224.5703125 88.859375 C225.47942383 89.10751953 226.38853516 89.35566406 227.32519531 89.61132812 C238.69756953 92.81720354 249.40970574 98.90970574 257.8125 107.3125 C259.83358969 107.9368421 259.83358969 107.9368421 262.1796875 108.35546875 C272.86647029 110.57503133 281.7907714 112.88116872 290.8125 119.3125 C299.31494482 125.36832822 306.2956714 129.86728955 316.6171875 132.15625 C337.71635632 136.85900354 354.6998639 146.07504109 372.50073242 158.12890625 C382.12182621 164.60676588 391.78468727 170.65670502 403.82421875 168.84765625 C406.84152263 168.0355332 408.16941372 166.95572575 409.8125 164.3125 C411.07956473 158.99082813 408.4416981 155.42717324 405.74707031 151.04101562 C401.67539145 145.29832469 396.3511172 140.70405753 391.24414062 135.90039062 C382.56342779 127.53462429 374.64896909 118.1444539 374.3125 105.625 C374.4721784 97.13543153 377.04374335 92.16547467 382.91015625 86.16796875 C393.07415179 77.29356196 405.23456038 72.97324551 418.25390625 70.4296875 C421.48447675 69.41547986 422.59849717 68.8584038 424.9921875 66.73046875 C428.5497672 63.68041081 430.22398293 63.62325657 434.6953125 63.88671875 C438.69672756 64.69143137 440.86231253 66.88721879 443.0625 70.1875 C446.49723424 79.91924701 445.30475446 90.78457558 441.8125 100.3125 C436.99375478 109.12434874 429.33958531 115.4203491 419.8125 118.3125 C420.6375 119.26125 421.4625 120.21 422.3125 121.1875 C422.86164062 121.83589844 423.41078125 122.48429687 423.9765625 123.15234375 C425.20420546 124.59678323 426.44927779 126.02658209 427.7109375 127.44140625 C437.31363252 138.65720221 444.33090218 152.20022383 443.75 167.1875 C442.30441613 179.85666199 436.30230362 189.02810781 426.65234375 197.125 C417.28629054 203.92431268 406.26343381 206.39202037 394.8125 206.3125 C392.4375 205.82421875 392.4375 205.82421875 390.8125 205.3125 C391.1425 206.3025 391.4725 207.2925 391.8125 208.3125 C392.55995028 217.62955465 390.8653498 226.53876359 387.8125 235.3125 C388.68132813 235.27769531 389.55015625 235.24289062 390.4453125 235.20703125 C402.30056941 234.92855206 402.30056941 234.92855206 406.8125 238.3125 C411.11745431 242.81405852 412.98143933 246.72757178 414.625 252.6875 C414.94887695 253.79158203 414.94887695 253.79158203 415.27929688 254.91796875 C415.80362176 256.71232502 416.30996289 258.51192024 416.8125 260.3125 C417.27398438 259.9515625 417.73546875 259.590625 418.2109375 259.21875 C422.71105175 256.01708769 426.50780801 254.28193698 432.09375 254.56640625 C440.69995725 256.92816715 447.48256939 264.47925563 452.8125 271.3125 C454.94507556 273.62922554 457.20696258 275.30573613 459.8125 277.0625 C463.77016355 280.01803957 465.41813473 282.47323229 466.8125 287.3125 C467.13165893 289.64391708 467.36837261 291.94762518 467.50390625 294.296875 C467.71492656 296.62373002 467.71492656 296.62373002 469.8125 299.3125 C470.11328125 301.6171875 470.11328125 301.6171875 470.125 304.1875 C470.14175781 305.03054688 470.15851562 305.87359375 470.17578125 306.7421875 C469.71242901 310.02052915 468.89104676 311.72395929 466.8125 314.3125 C460.22039672 317.82038015 453.32113275 320.11492367 445.88671875 318.64453125 C443.5569571 318.27159389 441.64737481 318.44055876 439.3125 318.75 C430.47152568 319.89917344 421.46052077 320.16048362 413.765625 314.91796875 C412.02691536 313.45046809 410.40805559 311.93344904 408.8125 310.3125 C408.008125 309.52875 407.20375 308.745 406.375 307.9375 C405.859375 307.40125 405.34375 306.865 404.8125 306.3125 C403.8225 306.6425 402.8325 306.9725 401.8125 307.3125 C390.78210513 308.48773233 383.74918717 305.5728769 375.25 298.75 C374.15945313 297.86248047 374.15945313 297.86248047 373.046875 296.95703125 C366.62673337 292.23171722 359.75782164 290.12403445 351.8671875 290.35546875 C350.70703125 290.37673828 349.546875 290.39800781 348.3515625 290.41992188 C345.9319936 290.47280158 343.51265346 290.53767171 341.09375 290.61523438 C327.57970383 290.81660261 316.93387109 285.67627842 306.875 276.6875 C306.194375 275.90375 305.51375 275.12 304.8125 274.3125 C304.16539062 273.60480469 303.51828125 272.89710938 302.8515625 272.16796875 C300.3511176 268.66638787 299.29393873 265.35068217 298.125 261.25 C297.80692383 260.18942383 297.80692383 260.18942383 297.48242188 259.10742188 C296.51578267 255.85988006 295.62080599 252.60251895 294.8125 249.3125 C293.97420654 249.47766113 293.13591309 249.64282227 292.2722168 249.81298828 C288.59621725 250.34372677 285.16959306 250.37569856 281.45703125 250.3046875 C280.02475252 250.2847724 278.59245976 250.2658478 277.16015625 250.24780273 C276.41910645 250.2373996 275.67805664 250.22699646 274.91455078 250.21627808 C263.03920578 250.06701317 251.73625124 250.30638789 240.04296875 252.578125 C232.7309872 253.97088339 225.23475544 254.05533703 217.8125 254.3125 C218.4422876 254.29155273 219.0720752 254.27060547 219.72094727 254.24902344 C222.60546571 254.16529901 225.48972768 254.11366379 228.375 254.0625 C229.8609668 254.01222656 229.8609668 254.01222656 231.37695312 253.9609375 C237.80583676 253.87550383 241.58350725 254.49824799 246.8125 258.3125 C249.41729466 260.98082623 250.78476359 262.73429819 250.8515625 266.53515625 C249.48906865 276.08775204 243.79281325 284.3050505 236.390625 290.2890625 C234.8125 291.3125 234.8125 291.3125 231.8125 292.3125 C230.53063117 294.23678947 230.53063117 294.23678947 229.4375 296.5625 C226.1376508 302.75953822 221.67723237 308.03068425 214.8125 310.3125 C205.4400372 311.40428812 196.90523463 309.45470658 188.02661133 306.74194336 C185.99055891 306.12212593 183.94700567 305.5350469 181.90039062 304.95117188 C174.83121276 302.88250765 168.86576975 300.54029636 162.8125 296.3125 C159.73295382 295.15394585 159.73295382 295.15394585 156 295 C151.77944966 294.51032289 149.14142774 293.00734626 145.8125 290.3125 C145.1525 289.3225 144.4925 288.3325 143.8125 287.3125 C142.29066445 288.97825159 140.7700915 290.64515671 139.25 292.3125 C138.55946533 293.06853516 138.55946533 293.06853516 137.85498047 293.83984375 C135.32420307 296.6190139 132.85412927 299.43413264 130.4375 302.3125 C102.72208759 333.9596337 60.20251381 353.16531495 18.8125 357.3125 C16.1274393 357.43362176 13.46647514 357.52138925 10.78125 357.55078125 C10.03603088 357.56052979 9.29081177 357.57027832 8.52301025 357.58032227 C-8.73714291 357.75947636 -25.30322813 357.34098122 -42.1875 353.3125 C-42.94788574 353.13589844 -43.70827148 352.95929688 -44.49169922 352.77734375 C-69.17928886 346.83780336 -92.73382266 334.51690365 -112.1875 318.3125 C-112.75807129 317.84730957 -113.32864258 317.38211914 -113.91650391 316.90283203 C-126.41724482 306.6997457 -136.77103571 295.42579842 -146.1875 282.3125 C-148.3448891 284.43829554 -150.37696585 286.54097352 -152.3125 288.875 C-157.10703224 292.93992951 -162.84009536 293.79527525 -168.875 295.125 C-172.76545507 296.06461091 -176.36122687 297.54816402 -180.0625 299.0625 C-209.88201346 311.18612825 -209.88201346 311.18612825 -220.96484375 307.3515625 C-225.87391804 305.08805394 -229.65938299 302.4632259 -233.1875 298.3125 C-233.950625 297.425625 -234.71375 296.53875 -235.5 295.625 C-237.1875 293.3125 -237.1875 293.3125 -237.1875 291.3125 C-237.76757812 291.29832031 -238.34765625 291.28414063 -238.9453125 291.26953125 C-239.72648438 291.22183594 -240.50765625 291.17414063 -241.3125 291.125 C-242.07820312 291.09019531 -242.84390625 291.05539062 -243.6328125 291.01953125 C-250.63920456 289.08045332 -254.12240797 282.90843601 -257.5625 277 C-258.01238281 276.27876953 -258.46226562 275.55753906 -258.92578125 274.81445312 C-261.94523078 269.6979087 -262.80842371 266.24577102 -262.1875 260.3125 C-260.93791207 255.92730014 -258.86587127 253.70386804 -254.9375 251.4375 C-245.59009045 248.63327713 -235.25094818 248.42613617 -225.625 249.9375 C-222.22856739 250.30801992 -220.92871465 250.25419371 -218.1875 248.3125 C-219.1775 247.6525 -220.1675 246.9925 -221.1875 246.3125 C-221.75251221 246.63629639 -222.31752441 246.96009277 -222.8996582 247.29370117 C-226.89395638 249.07240209 -231.06293993 248.64805719 -235.375 248.625 C-236.3551709 248.62443604 -237.3353418 248.62387207 -238.34521484 248.62329102 C-245.23019118 248.5376347 -251.66280611 247.71624828 -258.38842773 246.31860352 C-265.32663948 244.93568047 -271.75027907 245.32249405 -278.62109375 246.85546875 C-281.62463854 247.39034659 -284.45115306 247.40850381 -287.5 247.375 C-288.56863281 247.36597656 -289.63726562 247.35695313 -290.73828125 247.34765625 C-291.54652344 247.33605469 -292.35476563 247.32445312 -293.1875 247.3125 C-293.43242187 248.13878906 -293.67734375 248.96507812 -293.9296875 249.81640625 C-299.24473599 264.58960003 -307.05750944 274.25079891 -321.28515625 280.9609375 C-322.24292969 281.40695312 -323.20070313 281.85296875 -324.1875 282.3125 C-325.66898448 283.07886923 -327.14850044 283.84907017 -328.625 284.625 C-333.92259724 287.13438817 -338.35169592 287.45007716 -344.1875 287.4375 C-345.981875 287.44136719 -345.981875 287.44136719 -347.8125 287.4453125 C-350.76668805 287.32905973 -353.31039416 286.92320643 -356.1875 286.3125 C-364.76571537 285.19586471 -364.76571537 285.19586471 -372.6796875 287.88671875 C-374.11723288 289.26897392 -375.52092517 290.68720558 -376.890625 292.13671875 C-381.61882193 296.61563999 -388.05194974 299.26731658 -394.1875 301.3125 C-396.43780883 301.12874363 -398.68776863 300.94069611 -400.9375 300.75 C-406.19532006 300.58449564 -406.19532006 300.58449564 -410.3828125 303.359375 C-411.50726031 305.12711156 -412.58059316 306.92835983 -413.6015625 308.7578125 C-416.5186586 313.45678011 -421.0675331 315.60584437 -426.1875 317.3125 C-428.28991416 317.40793669 -430.39542643 317.44235484 -432.5 317.4375 C-434.16482422 317.44136719 -434.16482422 317.44136719 -435.86328125 317.4453125 C-439.05551125 317.31777335 -442.05258827 316.91007773 -445.1875 316.3125 C-445.5175 316.9725 -445.8475 317.6325 -446.1875 318.3125 C-455.76584124 318.00794225 -465.04230951 317.26113456 -472.875 311.25 C-474.88365978 306.75442812 -474.85914361 302.16239168 -474.1875 297.3125 C-473.5275 296.6525 -472.8675 295.9925 -472.1875 295.3125 C-471.71708191 293.26159186 -471.30928983 291.19606004 -470.9375 289.125 C-469.29576424 281.62110674 -466.63874701 277.74406039 -460.4375 273.375 C-458.1875 272.3125 -458.1875 272.3125 -456.1875 272.3125 C-455.96449219 271.40757812 -455.74148438 270.50265625 -455.51171875 269.5703125 C-453.22457618 263.94353696 -448.12970847 261.5341893 -443.1875 258.3125 C-442.18009766 257.62027344 -442.18009766 257.62027344 -441.15234375 256.9140625 C-437.07350314 254.29394165 -433.97425071 253.61624535 -429.1875 254.3125 C-426 256.1875 -426 256.1875 -423.1875 258.3125 C-421.86526525 259.00091666 -420.53383101 259.67248826 -419.1875 260.3125 C-419.02894531 259.70664062 -418.87039063 259.10078125 -418.70703125 258.4765625 C-416.62992438 251.01733894 -414.16580616 243.71627846 -409 237.8125 C-404.89695915 235.62421155 -400.74293545 235.05596869 -396.1875 234.3125 C-394.559718 233.99302877 -392.93443524 233.6604399 -391.3125 233.3125 C-390.26449219 233.0959375 -390.26449219 233.0959375 -389.1953125 232.875 C-387.02144821 232.26597965 -385.17167114 231.38021541 -383.1875 230.3125 C-383.38085938 229.71824219 -383.57421875 229.12398437 -383.7734375 228.51171875 C-386.47470005 219.91314538 -388.59017172 211.37261365 -388.1875 202.3125 C-388.8475 202.6425 -389.5075 202.9725 -390.1875 203.3125 C-406.84941117 204.88745249 -421.08075251 202.15823104 -434.375 191.5703125 C-443.08747936 183.6168749 -447.4686253 172.90529914 -448.4375 161.32421875 C-449.02951531 145.87631921 -443.1336048 134.45799259 -433.06640625 123.2421875 C-429.95891836 120.05071346 -426.61106209 117.1580581 -423.1875 114.3125 C-424.78078125 113.60287109 -424.78078125 113.60287109 -426.40625 112.87890625 C-437.92188181 107.56483692 -446.51039174 101.652667 -451.1875 89.3125 C-453.8295935 81.00619236 -453.25903116 71.45616439 -449.5 63.6875 C-447.25931165 59.55351684 -444.60346468 56.53642578 -441.1875 53.3125 C-440.25808594 54.19292969 -439.32867187 55.07335937 -438.37109375 55.98046875 C-437.12260101 57.15386418 -435.87389148 58.32702897 -434.625 59.5 C-434.01591797 60.07814453 -433.40683594 60.65628906 -432.77929688 61.25195312 C-425.41063781 68.15276082 -419.89209017 71.8830876 -409.875 73.875 C-397.70307442 76.38020359 -387.4351664 79.45443158 -379.1875 89.3125 C-374.83008667 97.11766047 -373.86018337 105.10837202 -376.1875 113.6875 C-380.71686519 125.50057406 -389.57602472 132.43479544 -399.16015625 140.0703125 C-408.870572 147.50162995 -408.870572 147.50162995 -413.48828125 158.375 C-413.51514225 162.81601813 -413.25653229 165.84746355 -410.1875 169.3125 C-405.52943644 172.10733814 -402.05890028 172.79630566 -396.703125 171.94921875 C-385.22787758 169.04476948 -375.41876912 162.91127244 -366.24243164 155.65576172 C-353.01051271 145.22612286 -341.00163735 138.71981041 -324.1875 136.3125 C-310.3445441 134.21996015 -302.05042358 129.91839946 -291.9375 120.25 C-283.05746402 112.28272033 -271.2796843 108.04718248 -259.375 108.4375 C-253.49133702 108.20676812 -250.30261935 104.48077114 -246.4375 100.4375 C-237.84877827 91.68642058 -226.6544314 87.47453128 -215.05859375 84.08984375 C-205.19093101 81.14386185 -196.90299859 77.19208574 -188.26342773 71.53881836 C-179.80340979 66.08602792 -171.80866933 63.75006052 -161.75 63.875 C-160.52156372 63.87983398 -160.52156372 63.87983398 -159.26831055 63.88476562 C-152.70178646 64.03525793 -147.09200251 65.34034593 -141.1875 68.3125 C-139.83258116 66.81317938 -138.47861322 65.31299946 -137.125 63.8125 C-136.29613281 62.8946875 -135.46726562 61.976875 -134.61328125 61.03125 C-132.64027885 58.81996229 -130.72113959 56.57871927 -128.8125 54.3125 C-97.04698868 18.2251504 -47.23128726 -0.24054936 0 0 Z " fill="#FED100" transform="translate(602.1875,171.6875)"/>
<path d="M0 0 C7.19492659 2.73829901 14.32382076 6.81367594 19.08300781 13.00268555 C23.67284959 18.86770745 27.57036472 20.68084355 34.74609375 22.2890625 C36.62213779 22.76937792 38.49714796 23.25374987 40.37109375 23.7421875 C41.2734375 23.97099609 42.17578125 24.19980469 43.10546875 24.43554688 C54.46200478 27.44220742 64.41680821 32.60096845 73.30859375 40.2890625 C77.56011334 43.58900995 82.35892579 44.47807516 87.49047852 45.64672852 C97.84008479 48.01499087 106.14301979 52.0236654 114.55126953 58.44775391 C122.25712307 64.29963617 129.71789871 66.8210644 139.12109375 68.9140625 C158.90279069 73.63534215 174.43070649 82.80930657 191.35327148 93.82666016 C204.24737897 102.2137954 214.01698636 106.27766826 229.62109375 105.1015625 C234.46909145 103.83529445 236.94810769 101.94710909 240.05859375 98.0390625 C243.16944951 92.19065367 243.56859544 87.53977409 241.83203125 81.23828125 C237.57168764 70.83656513 229.6885376 63.6411386 221.61865234 56.09326172 C214.11340192 48.98471923 206.69990784 41.38105074 206.2734375 30.48046875 C207.20951561 24.07517023 212.23392291 20.16223981 217.12109375 16.4140625 C224.62099888 11.46683592 233.16598158 8.58230439 241.99609375 7.1015625 C246.38369839 6.36305479 249.41788268 4.68416707 253.02734375 2.125 C254.62109375 1.1015625 254.62109375 1.1015625 256.62109375 1.1015625 C259.386102 6.63157899 258.17595201 15.27057696 256.43359375 21.0390625 C253.58019831 28.19872904 249.46179514 31.83867198 242.6015625 35.06640625 C237.10171958 36.9765745 231.39289946 37.54434206 225.62109375 38.1015625 C225.78631566 42.37601331 226.19835533 45.12113939 229.28125 48.09375 C230.40217302 49.07004316 231.5370562 50.03048194 232.68359375 50.9765625 C233.87643438 52.02031842 235.06654083 53.06720724 236.25390625 54.1171875 C236.83301758 54.62443359 237.41212891 55.13167969 238.00878906 55.65429688 C248.32419768 64.91379752 256.35885414 76.82017892 257.18359375 90.9140625 C256.94439898 99.43809416 253.06167747 106.79428892 247.37109375 113.0390625 C238.8051807 120.80902788 228.29003322 123.46167522 217 123.3046875 C212.10910226 123.01066821 207.39628764 122.17334951 202.62109375 121.1015625 C202.76546875 121.79378906 202.90984375 122.48601562 203.05859375 123.19921875 C205.30610123 135.04545611 206.15803102 146.11994373 201.3984375 157.41796875 C200.44380812 160.71359881 200.71840534 162.8115611 201.62109375 166.1015625 C207.11999134 171.45575226 212.26242347 171.31143922 219.58984375 171.625 C222.62109375 172.1015625 222.62109375 172.1015625 224.4296875 173.453125 C227.64988048 177.90860512 228.73840243 182.38812423 229.55859375 187.7265625 C230.84857575 195.30133679 234.90821465 198.36350884 240.53515625 203.1328125 C242.74790124 205.22124598 244.49466862 207.4118728 246.30859375 209.8515625 C248.7719801 213.14354244 250.76161018 215.43259663 254.62109375 217.1015625 C255.32234375 217.1840625 256.02359375 217.2665625 256.74609375 217.3515625 C258.62109375 218.1015625 258.62109375 218.1015625 260.30859375 220.9765625 C262.1738561 225.83232698 262.35105775 230.95225542 262.62109375 236.1015625 C246.86237343 237.13429417 246.86237343 237.13429417 241.87109375 233.4765625 C238.88662786 230.71462257 236.80071505 227.52668168 234.62109375 224.1015625 C232.09728734 222.22906097 231.13024994 222.04094867 227.99609375 222.4140625 C225.63169188 223.02089898 225.63169188 223.02089898 223.62109375 224.1015625 C218.88687469 224.62096423 214.89476039 224.76493054 210.62109375 222.5390625 C209.63109375 221.7346875 208.64109375 220.9303125 207.62109375 220.1015625 C197.82492228 212.5162701 186.62328563 206.55374815 173.9375 207.28515625 C160.25544595 207.84928098 150.53504933 207.96207755 139.62109375 199.1015625 C138.73421875 198.44542969 137.84734375 197.78929687 136.93359375 197.11328125 C130.4727555 191.49278851 128.95380203 183.2130328 127.78515625 175.08203125 C127.62604612 172.19153048 127.90865272 169.89453785 128.62109375 167.1015625 C132.61455215 168.4327153 132.96161185 170.07272938 134.93359375 173.7265625 C141.03904886 184.4843999 148.55362692 192.13447833 160.62109375 196.1015625 C164.17308278 196.44687377 164.17308278 196.44687377 167.84765625 196.25390625 C169.2239536 196.22567976 170.60025588 196.19769282 171.9765625 196.16992188 C174.10234852 196.10828724 176.2276753 196.03971344 178.35302734 195.96459961 C190.56507635 195.56703115 201.87777581 196.70783373 212.05859375 204.1015625 C212.98542969 204.7615625 213.91226562 205.4215625 214.8671875 206.1015625 C215.77597656 206.7615625 216.68476562 207.4215625 217.62109375 208.1015625 C219.61029037 209.45197322 221.61420488 210.77742963 223.62109375 212.1015625 C219.75795671 203.27153498 211.92624127 198.23883393 203.18359375 194.6640625 C198.24786246 192.85077077 194.18253651 191.98130944 188.89453125 192.109375 C187.77949219 192.12613281 186.66445313 192.14289063 185.515625 192.16015625 C183.19253798 192.20398808 180.86958767 192.25590524 178.546875 192.31640625 C166.32444054 192.47076535 157.16436809 189.76974701 147.9375 181.61328125 C142.94485338 176.38721219 140.38622592 169.68124446 137.62109375 163.1015625 C137.08548828 161.94720703 137.08548828 161.94720703 136.5390625 160.76953125 C135.21888654 156.93259432 134.74574856 153.04772872 134.18359375 149.0390625 C133.07948935 141.57829736 131.66644055 134.36907136 129.62109375 127.1015625 C128.63109375 127.1015625 127.64109375 127.1015625 126.62109375 127.1015625 C126.77964844 128.225625 126.93820312 129.3496875 127.1015625 130.5078125 C127.68415425 135.20993846 127.87659207 139.86662327 127.93359375 144.6015625 C127.96259766 145.40464844 127.99160156 146.20773437 128.02148438 147.03515625 C128.08196774 152.77642319 127.06541879 157.40065554 123.62109375 162.1015625 C118.20267879 166.37341601 112.94399199 167.22943174 106.26171875 167.05859375 C104.74888374 167.03309817 103.23602347 167.00906822 101.72314453 166.98632812 C100.53449799 166.96759644 100.53449799 166.96759644 99.32183838 166.94848633 C85.62147375 166.75604727 72.86681483 167.41375661 59.40625 170.2109375 C53.07041075 171.50164172 47.08860742 171.39223727 40.62109375 171.1015625 C41.61109375 166.4815625 42.60109375 161.8615625 43.62109375 157.1015625 C42.30109375 157.4315625 40.98109375 157.7615625 39.62109375 158.1015625 C38.44431965 159.97655242 38.44431965 159.97655242 37.68359375 162.2890625 C35.26832922 168.88329636 31.73032031 172.93484007 25.40454102 175.91455078 C24.77475342 176.20313965 24.14496582 176.49172852 23.49609375 176.7890625 C16.0083265 180.50848836 9.44767454 185.13763928 4.62109375 192.1015625 C4.10513702 196.16851556 4.3560712 197.64462707 6.43359375 201.2265625 C11.20478129 206.36268506 18.75333094 208.24787287 25.55859375 208.6640625 C28.65869359 208.4823515 29.40531714 208.28137634 31.87109375 206.2265625 C33.86950891 202.65796399 35.67419282 199.02806387 37.375 195.30859375 C38.62109375 193.1015625 38.62109375 193.1015625 41.62109375 191.1015625 C43.78173828 190.85864258 43.78173828 190.85864258 46.25390625 190.87109375 C47.14207031 190.87302734 48.03023437 190.87496094 48.9453125 190.87695312 C49.86957031 190.88919922 50.79382813 190.90144531 51.74609375 190.9140625 C52.67808594 190.91470703 53.61007812 190.91535156 54.5703125 190.91601562 C61.48081216 190.96128091 61.48081216 190.96128091 62.62109375 192.1015625 C63.16854472 196.58283972 61.88407028 198.730486 59.24609375 202.2890625 C58.61960937 203.14886719 57.993125 204.00867188 57.34765625 204.89453125 C54.66850551 208.31923751 53.2161109 209.38255907 48.99609375 210.2265625 C48.17882812 210.39414062 47.3615625 210.56171875 46.51953125 210.734375 C45.89304687 210.85554687 45.2665625 210.97671875 44.62109375 211.1015625 C44.51796875 212.3184375 44.41484375 213.5353125 44.30859375 214.7890625 C43.80790653 218.57425788 43.12058957 221.10216752 40.62109375 224.1015625 C35.92600805 227.66982763 33.39249032 228.45138839 27.44384766 227.64501953 C22.00295483 226.59749943 16.70177133 225.04575854 11.39941406 223.45556641 C9.36599103 222.85004298 7.32625451 222.27045163 5.28515625 221.69140625 C3.97479796 221.30364267 2.66488466 220.91437152 1.35546875 220.5234375 C0.18209961 220.17893555 -0.99126953 219.83443359 -2.20019531 219.47949219 C-5.80102305 217.91858038 -7.70909764 215.93132822 -10.37890625 213.1015625 C-13.15211701 212.36816645 -13.15211701 212.36816645 -16.00390625 212.4140625 C-21.10948358 212.28117761 -21.10948358 212.28117761 -24.37890625 210.1015625 C-25.77473939 207.35730331 -26.61850161 204.4021941 -27.56640625 201.4765625 C-27.97536133 200.30287109 -27.97536133 200.30287109 -28.39257812 199.10546875 C-30.62575177 192.35557547 -31.78807537 186.60613897 -28.62109375 179.91796875 C-27.85020087 178.49004047 -27.06047325 177.07214797 -26.25390625 175.6640625 C-25.64301147 174.55526733 -25.64301147 174.55526733 -25.01977539 173.42407227 C-22.07296715 168.13979974 -18.93738245 162.99970033 -15.37890625 158.1015625 C-8.28069196 158.77120536 -8.28069196 158.77120536 -5.37890625 162.1015625 C-6.98084358 164.6863019 -8.58535925 167.26937845 -10.19140625 169.8515625 C-10.86913086 170.94597656 -10.86913086 170.94597656 -11.56054688 172.0625 C-15.10398557 177.75269352 -15.10398557 177.75269352 -17.1796875 180.38671875 C-19.26154704 183.36371008 -18.84769385 186.65777671 -18.37890625 190.1015625 C-17.55015737 193.17364887 -16.53179115 196.13700133 -15.37890625 199.1015625 C-15.36472656 198.42351562 -15.35054687 197.74546875 -15.3359375 197.046875 C-14.86883287 187.93202251 -11.99473992 181.77560307 -6.7890625 174.38671875 C-6.33200928 173.7309082 -5.87495605 173.07509766 -5.40405273 172.39941406 C-4.48721713 171.09937795 -3.55102462 169.8127298 -2.59399414 168.54199219 C-0.23177793 165.22451684 0.60580074 163.58482152 0.73828125 159.3984375 C-0.63973285 155.33185043 -2.0325915 154.30358689 -5.62890625 152.0390625 C-15.85379341 145.10357702 -20.67974097 135.67466075 -23.04296875 123.61328125 C-23.77568073 118.13498123 -24.08072508 112.61791406 -24.37890625 107.1015625 C-25.69890625 106.7715625 -27.01890625 106.4415625 -28.37890625 106.1015625 C-28.92961929 121.16968304 -28.37259334 134.5519113 -21.015625 148.171875 C-20.16635318 150.74574174 -20.68778563 152.5243514 -21.37890625 155.1015625 C-36.59616332 155.70136679 -46.40105422 153.32287826 -58.25390625 143.7890625 C-60.36259409 141.91681777 -60.36259409 141.91681777 -63.37890625 141.1015625 C-61.10007582 146.48788897 -58.35996397 150.43800246 -54.50390625 154.8515625 C-50.30038115 159.67399742 -47.37795813 164.49305199 -44.6953125 170.33984375 C-43.46857987 172.91343416 -42.09381264 175.17856081 -40.50390625 177.5390625 C-38.58551064 180.49044035 -37.72364674 182.49763519 -38.37890625 186.1015625 C-39.37890625 187.1015625 -39.37890625 187.1015625 -42.94140625 187.1640625 C-44.07578125 187.1434375 -45.21015625 187.1228125 -46.37890625 187.1015625 C-46.16621094 188.1534375 -46.16621094 188.1534375 -45.94921875 189.2265625 C-45.12596761 194.54158739 -44.76520655 198.18913435 -47.94140625 202.7265625 C-49.8093319 205.10392242 -51.08814952 205.99247307 -53.9296875 207.05859375 C-59.10872542 207.12311178 -63.24867166 205.07834316 -68.00390625 203.1640625 C-76.96292714 199.74626118 -84.23785563 198.59475056 -93.76171875 199.11303711 C-99.65879637 199.35532483 -103.2704429 198.5360601 -107.91796875 194.609375 C-108.40007813 194.11179687 -108.8821875 193.61421875 -109.37890625 193.1015625 C-110.36890625 192.1115625 -110.36890625 192.1115625 -111.37890625 191.1015625 C-114.58885063 191.2554276 -116.06130167 191.82166978 -118.484375 193.95703125 C-119.17144531 194.72660156 -119.85851562 195.49617187 -120.56640625 196.2890625 C-125.04153252 200.97268051 -129.65061785 204.12780879 -135.37890625 207.1015625 C-136.01957031 207.441875 -136.66023437 207.7821875 -137.3203125 208.1328125 C-141.42041816 210.11407161 -144.87250279 210.37746475 -149.37890625 210.1015625 C-149.37890625 206.1015625 -149.37890625 206.1015625 -147.83984375 204.49609375 C-146.80730469 203.71298828 -146.80730469 203.71298828 -145.75390625 202.9140625 C-139.01822018 197.33068957 -135.35582326 190.31513279 -131.609375 182.53125 C-130.06498865 179.48169981 -128.27542024 176.64406314 -126.39453125 173.79296875 C-125.21157089 171.96165962 -125.21157089 171.96165962 -124.37890625 169.1015625 C-131.14510339 173.85780108 -135.41969547 180.09788547 -139.81347656 186.97045898 C-143.86506668 193.07462586 -148.38771079 196.77116401 -155.37890625 199.1015625 C-156.94009053 199.16897115 -158.50393145 199.18670706 -160.06640625 199.1640625 C-160.87464844 199.15503906 -161.68289063 199.14601563 -162.515625 199.13671875 C-163.43794922 199.11931641 -163.43794922 199.11931641 -164.37890625 199.1015625 C-164.37890625 197.7815625 -164.37890625 196.4615625 -164.37890625 195.1015625 C-162.8046875 193.57421875 -162.8046875 193.57421875 -160.69140625 192.1640625 C-139.64899336 177.32362393 -133.89533806 151.56302801 -128.10766602 127.9440918 C-119.00677029 91.09099098 -106.21138289 64.46173769 -75.19140625 41.44775391 C-73.26425445 40.01640759 -71.35217391 38.56641632 -69.44140625 37.11328125 C-63.11700044 32.31848143 -56.7363233 27.61784018 -50.25390625 23.0390625 C-45.44573398 19.63931022 -40.757022 16.11759773 -36.12890625 12.4765625 C-35.53948242 12.01910645 -34.95005859 11.56165039 -34.34277344 11.09033203 C-31.7078106 9.02783302 -29.24155102 6.96779964 -26.83984375 4.62890625 C-18.97207919 -2.8309976 -10.00069895 -2.65914539 0 0 Z " fill="#E21C4C" transform="translate(779.37890625,244.8984375)"/>
<path d="M0 0 C1.16666667 0.875 2.33333333 1.75 3.5 2.625 C4.23734375 3.17027344 4.9746875 3.71554688 5.734375 4.27734375 C7.15110418 5.35454646 8.54229698 6.46722695 9.890625 7.62890625 C16.30254309 13.00360229 23.25296743 14.09206697 31.30859375 15.6328125 C39.72220445 17.35715674 48.53737416 19.73378621 53.625 27.25 C56.05472919 33.87653416 55.9916421 39.48088133 53.1875 46 C48.21386993 54.96377396 39.17745026 60.8886148 31.2890625 67.13671875 C25.5855189 71.77936431 19.88653979 76.64361112 18 84 C17.73012176 86.74608063 17.54966615 89.37649427 17.5 92.125 C17.48138916 92.80618896 17.46277832 93.48737793 17.44360352 94.18920898 C17.51886863 100.19361121 19.71603369 103.65709262 23.81640625 107.86328125 C24.68072266 108.58064453 24.68072266 108.58064453 25.5625 109.3125 C26.14128906 109.80363281 26.72007812 110.29476562 27.31640625 110.80078125 C32.34463687 114.38237476 39.15308425 113.43263359 45 113 C60.22879385 110.23452578 72.98631447 101.13315397 84.75 91.5859375 C95.12049394 83.21967022 104.7539442 79.17445754 117.875 77.5625 C130.75916302 75.79564434 140.09754839 72.52043882 149.8125 63.625 C159.37385309 54.92245108 167.43974057 50.10459411 180.5 49.6875 C189.89021754 49.19969649 194.47529768 45.77063444 200.6875 39.0625 C209.44392906 30.08460483 222.16892026 26.80410653 233.73388672 22.91235352 C240.61365965 20.56886333 246.82902005 17.87061465 253 14 C263.73318705 7.50539637 272.15995173 3.41095535 285 5 C297.91044044 8.84626484 307.73172646 16.74243415 317.4765625 25.71875 C322.35874137 30.13236062 327.53514599 34.2027617 332.65478516 38.3359375 C334.33702537 39.69749917 336.01266707 41.06684299 337.6875 42.4375 C338.70199219 43.26121094 339.71648437 44.08492188 340.76171875 44.93359375 C341.86966797 45.95646484 341.86966797 45.95646484 343 47 C343 47.66 343 48.32 343 49 C343.58007812 49.2371875 344.16015625 49.474375 344.7578125 49.71875 C347.50075917 51.2861481 348.91018497 53.02295693 350.875 55.5 C351.65488281 56.48226562 352.43476562 57.46453125 353.23828125 58.4765625 C353.67221191 59.03118164 354.10614258 59.58580078 354.55322266 60.15722656 C356.16201347 62.20635803 357.79001144 64.23950468 359.41796875 66.2734375 C371.28626082 81.18886392 380.13089509 94.14384034 382.7734375 113.45703125 C384.47910631 125.81934759 387.02430711 137.4206923 390.9375 149.25 C391.14860413 149.90324249 391.35970825 150.55648499 391.57720947 151.22952271 C392.18780429 153.10189721 392.82589114 154.96523695 393.46484375 156.828125 C394.01579712 158.4354248 394.01579712 158.4354248 394.57788086 160.07519531 C396.22358356 163.45983366 398.26448408 165.4435156 401 168 C402.39038086 169.81762695 402.39038086 169.81762695 403.46484375 171.48828125 C403.86904541 172.10840088 404.27324707 172.72852051 404.68969727 173.36743164 C405.10147217 174.0093042 405.51324707 174.65117676 405.9375 175.3125 C406.81910106 176.65183987 407.70190421 177.99038928 408.5859375 179.328125 C409.9486323 181.39891757 411.30814989 183.47162847 412.6640625 185.546875 C416.64378949 191.28301782 421.78269517 194.89134759 428 198 C427.67 198.99 427.34 199.98 427 201 C418.56888383 201.62196759 413.23339861 200.5531602 406.71484375 195.08203125 C401.93821709 190.57653198 398.54150462 185.93325201 395.33203125 180.23046875 C392.50348481 175.49410506 388.78627458 172.59826334 384 170 C385.41590397 172.9593064 387.04694158 175.67502996 388.8125 178.4375 C391.25408569 182.41463717 392.87471191 186.273093 394.375 190.6875 C398.28094561 201.21872045 406.33261555 205.14853685 416 210 C415.67 210.99 415.34 211.98 415 213 C403.46379777 213.12272556 393.62735549 210.91686571 384.77734375 203.015625 C383.65334153 201.81998308 382.53759905 200.61647427 381.43359375 199.40234375 C379.92183555 197.76137795 379.92183555 197.76137795 377.0625 196.6875 C373.05550812 197.09637672 371.13182072 198.77852055 368.125 201.359375 C362.0484076 206.05086178 357.59890465 206.21573208 350.25 205.8125 C341.73182453 205.54442209 335.13225491 206.83591825 327.20947266 209.84667969 C321.20771159 212.08664932 315.4064443 213.35480543 309 212 C306.54693788 210.60370686 305.29167248 209.76054383 304.2734375 207.10546875 C303.16718135 198.5872964 304.13527102 193.19284928 309 186 C306.69 186.33 304.38 186.66 302 187 C302.41806113 181.66972058 303.25782581 178.84331403 307 175 C307.99 174.29875 308.98 173.5975 310 172.875 C313.73266222 169.92075729 314.63703718 166.07969532 316.0546875 161.671875 C317.24879719 158.29678812 318.85064916 155.84021361 321 153 C316.99825632 153.65648151 312.9989276 154.32659351 309 155 C307.46279297 155.25136719 307.46279297 155.25136719 305.89453125 155.5078125 C304.93933594 155.67023438 303.98414063 155.83265625 303 156 C301.700625 156.2165625 301.700625 156.2165625 300.375 156.4375 C297.99123615 156.90010425 297.99123615 156.90010425 295.9765625 158.05078125 C293.62401073 159.18056401 291.97086151 159.23524996 289.375 159.1875 C288.59898437 159.18105469 287.82296875 159.17460937 287.0234375 159.16796875 C285 159 285 159 283 158 C283.78012807 153.10646935 285.70311881 149.14935874 287.84375 144.71875 C289.99378326 139.6632664 290.11357877 135.1529282 290.0625 129.6875 C290.04896484 127.80611328 290.04896484 127.80611328 290.03515625 125.88671875 C290.02355469 124.93410156 290.01195312 123.98148437 290 123 C289.34 123.33 288.68 123.66 288 124 C287.34569341 126.25140949 286.77770371 128.52809842 286.25 130.8125 C284.35247751 138.47245998 282.01543904 147.08185134 276.2265625 152.73046875 C273.34186061 154.37525491 270.62713477 154.92014832 267.375 155.5625 C262.6867279 156.32229607 262.6867279 156.32229607 259 159 C259.33091101 163.20307052 261.09552743 166.31208007 263.16015625 169.9296875 C263.78857422 171.05503906 264.41699219 172.18039062 265.06445312 173.33984375 C266.06158739 175.10941978 267.06313944 176.87611519 268.07348633 178.63818359 C269.05296996 180.35293836 270.01303021 182.07874139 270.97265625 183.8046875 C271.55281494 184.82546387 272.13297363 185.84624023 272.73071289 186.89794922 C275.05202189 192.57106947 274.0546527 197.67232959 272.5 203.4375 C272.08234375 205.01337891 272.08234375 205.01337891 271.65625 206.62109375 C271.33140625 207.79865234 271.33140625 207.79865234 271 209 C275.61654198 205.92230535 278.5011314 202.33396254 280 197 C281.42179446 188.72175272 277.81743186 182.72592558 273.9375 175.625 C272.79206516 173.49685581 271.65489343 171.36423656 270.52734375 169.2265625 C270.01937256 168.29408691 269.51140137 167.36161133 268.98803711 166.40087891 C268 164 268 164 269 161 C270.43836751 161.11458693 271.87570966 161.24209116 273.3125 161.375 C274.11300781 161.44460938 274.91351563 161.51421875 275.73828125 161.5859375 C278 162 278 162 281 164 C282.04401296 166.1479283 282.98969054 168.3444409 283.875 170.5625 C285.60501592 174.84278859 287.42513975 178.88715574 289.875 182.8125 C292.41500716 187.35952921 293.35449638 190.88215856 292 196 C284.45283019 212.27358491 284.45283019 212.27358491 277 216 C275.48520397 216.13573377 273.96756456 216.24062257 272.44921875 216.328125 C267.01698625 216.83109144 262.72775852 218.47671238 257.8125 220.75 C256.15535214 221.4778556 254.49647077 222.20177634 252.8359375 222.921875 C251.61535645 223.45264648 251.61535645 223.45264648 250.37011719 223.99414062 C240.29276377 228.27089136 230.20388112 232.48409694 219.375 228.75 C215.87282871 226.52134554 214.28049633 223.32589304 212.1875 219.8125 C209.65410359 215.44056723 209.65410359 215.44056723 205.41015625 213.171875 C203.67054587 213.10034917 201.92845073 213.07251889 200.1875 213.09375 C198 213 198 213 195.75 211.0625 C195.1725 210.051875 194.595 209.04125 194 208 C193.2265625 206.82244141 193.2265625 206.82244141 192.4375 205.62109375 C187.5988528 198.10550979 187.5988528 198.10550979 188 193 C192.31468825 190.87636438 196.28246887 190.69777641 201 190.75 C201.69867188 190.74226562 202.39734375 190.73453125 203.1171875 190.7265625 C207.19033858 190.74193288 210.51659957 190.82287473 214 193 C215.90473544 195.31632654 217.44755052 197.81345836 219 200.375 C223.0606199 207.02754701 223.0606199 207.02754701 229 212 C237.09223996 213.84965485 244.83587826 210.57778965 251.625 206.375 C253.95256876 202.35465396 253.88076789 198.49869136 253 194 C249.61281022 186.97838032 243.22041049 182.66591766 236.8046875 178.61328125 C228.8474528 173.5533672 221.52462553 168.38718854 218.9375 158.9375 C218.59340351 157.29798141 218.26888985 155.65351803 218 154 C217.01 154.33 216.02 154.66 215 155 C215 159.62 215 164.24 215 169 C207.06706653 172.96646673 198.24201964 171.18200814 189.8125 169.5 C179.3919036 167.43209027 168.4474477 166.8058672 158 169 C144.42984244 170.11100705 144.42984244 170.11100705 140.25 166.875 C136.5221353 162.11161732 135.74569824 157.68447726 135.8046875 151.7265625 C135.81435547 149.99599609 135.81435547 149.99599609 135.82421875 148.23046875 C135.84097656 147.04066406 135.85773438 145.85085938 135.875 144.625 C135.88402344 143.41199219 135.89304687 142.19898438 135.90234375 140.94921875 C135.92583412 137.96594227 135.95868318 134.98307406 136 132 C135.34 132 134.68 132 134 132 C131.94103087 141.12052525 131.94103087 141.12052525 130.34375 150.328125 C129.0266026 159.24558238 127.28028802 166.46029796 122 174 C121.48566406 174.73734375 120.97132813 175.4746875 120.44140625 176.234375 C112.21726164 186.72656909 99.60443949 190.05467197 87 192 C83.17187305 192.37969194 79.338224 192.62147774 75.5 192.875 C60.11653981 194.07894434 48.62351422 198.18400444 38.3125 210.0703125 C36.95225914 212.07019043 36.4204592 213.634917 36 216 C36.70125 215.40832031 37.4025 214.81664062 38.125 214.20703125 C51.29198937 203.24050342 62.24297742 197.48427513 79.75 197.5 C94.82682802 197.20412368 111.12934378 195.65781839 122.6875 184.8125 C126.61725505 180.58333504 129.81977873 175.80416404 133 171 C134.32 171.33 135.64 171.66 137 172 C137.76107094 174.73202655 138.19363816 176.43643957 137.2590332 179.15649414 C136.86031006 179.85895264 136.46158691 180.56141113 136.05078125 181.28515625 C135.39625977 182.45208008 135.39625977 182.45208008 134.72851562 183.64257812 C134.26123047 184.44115234 133.79394531 185.23972656 133.3125 186.0625 C132.86455078 186.86494141 132.41660156 187.66738281 131.95507812 188.49414062 C128.019265 195.3975683 124.38049892 199.13500847 117.125 202.5625 C116.52558594 202.85318359 115.92617188 203.14386719 115.30859375 203.44335938 C113.5412873 204.30017714 111.77067088 205.15015685 110 206 C109.04222656 206.56074219 108.08445312 207.12148438 107.09765625 207.69921875 C103.04677715 209.40028147 99.65227677 209.36982127 95.3125 209.25 C94.17458008 209.24226563 94.17458008 209.24226563 93.01367188 209.234375 C89.76961627 209.18856309 87.0949608 209.0316536 84 208 C72.24346048 207.07391914 72.24346048 207.07391914 62 212 C60.89417973 212.97729879 59.79009836 213.95656767 58.6875 214.9375 C51.47125937 221.17042872 45.69075862 223.31509096 36.25 222.875 C30.77789589 222.53108191 30.77789589 222.53108191 25.71484375 224.328125 C24.16931099 226.14639884 23.07585241 227.87391072 22 230 C19.29732206 234.25876525 17.57455053 236.7898239 13 239 C9.87890625 239.328125 9.87890625 239.328125 6.5625 239.25 C5.47066406 239.23453125 4.37882813 239.2190625 3.25390625 239.203125 C0.1071663 239.00668985 -2.90293391 238.57924011 -6 238 C-5.37129528 225.81613611 -5.37129528 225.81613611 -2 221 C0.3125 219.375 0.3125 219.375 3 218 C6.85130384 215.78754886 9.29198024 213.76009964 11.75 210.125 C15.70955854 204.50599782 21.54109512 201.15296829 28 199 C29.13338804 196.77192494 29.13338804 196.77192494 30 194 C35.40319439 178.68146994 35.40319439 178.68146994 40 176 C43.18901932 175.66873068 46.35873655 175.55400049 49.5625 175.4375 C56.27356852 174.58336401 61.48431542 170.67712305 67 167 C67.87813271 161.40190395 66.53803848 157.51237642 64.5625 152.25 C61.12890912 143.04439356 61.10864606 133.72876042 61 124 C59.22880197 124.14133499 57.45804713 124.28823208 55.6875 124.4375 C54.20830078 124.55931641 54.20830078 124.55931641 52.69921875 124.68359375 C49.90624401 124.91812559 49.90624401 124.91812559 47 126 C34.53940395 126.99992437 22.90304058 124.37341982 13.0625 116.4375 C6.78873115 110.59640486 2.42737989 103.69005767 2 95 C1.938125 93.93394531 1.87625 92.86789062 1.8125 91.76953125 C1.39179375 79.50331473 4.80337035 71.99127597 13 63 C19.34404019 56.74543852 25.92389294 51.0642573 33.234375 45.94921875 C35.31120172 44.04258437 35.31120172 44.04258437 35.328125 40.83203125 C35.30886332 38.10185483 35.30886332 38.10185483 34 37 C32.24394083 36.92392523 30.48745457 36.85317097 28.73022461 36.81225586 C18.74711625 36.52554647 11.2844683 34.75834703 4.125 27.3125 C-0.1978827 21.88590257 -3.12109013 15.68806843 -3.4375 8.6875 C-2.99432988 4.95220898 -2.23561623 2.98082164 0 0 Z " fill="#E21C4C" transform="translate(162,240)"/>
<path d="M0 0 C2.3515625 -0.1484375 2.3515625 -0.1484375 5 0 C6.96833398 1.96833398 8.41108539 3.74606213 10 6 C10.87398437 7.17755859 10.87398437 7.17755859 11.765625 8.37890625 C16.99736282 15.57804128 20.76523541 20.83673032 19.421875 29.984375 C19 32 19 32 18 35 C16.68 34.67 15.36 34.34 14 34 C13.99613281 33.1646875 13.99613281 33.1646875 13.9921875 32.3125 C13.60368905 24.64613063 10.3067149 20.3067149 5 15 C2.0850745 14.4161804 2.0850745 14.4161804 -1 15 C-3.20142332 17.4390706 -3.20142332 17.4390706 -5 20 C-5.99 20 -6.98 20 -8 20 C-7.50839669 14.56466759 -6.12206673 10.7970995 -3.4375 6.0625 C-2.79683594 4.91910156 -2.15617188 3.77570313 -1.49609375 2.59765625 C-0.75552734 1.31181641 -0.75552734 1.31181641 0 0 Z " fill="#FDC903" transform="translate(516,357)"/>
<path d="M0 0 C2.2265625 0.109375 2.2265625 0.109375 5 1 C6.72233012 3.09520571 8.02534457 4.93991562 9.375 7.25 C9.74238281 7.82363281 10.10976563 8.39726562 10.48828125 8.98828125 C12.21347637 11.846246 13.04142884 13.5573033 12.7265625 16.921875 C12.48679687 17.60765625 12.24703125 18.2934375 12 19 C10.68 19 9.36 19 8 19 C7.34 17.35 6.68 15.7 6 14 C-1.9110269 15.02550349 -6.93834077 18.90096892 -12 25 C-13.79319653 28.57719717 -15.02892973 32.1229657 -16 36 C-16.99 36 -17.98 36 -19 36 C-19.66809338 28.05711202 -18.97321293 22.40350372 -14 16 C-12.59066169 14.8098921 -11.17866317 13.61851658 -9.69140625 12.52734375 C-5.78429014 8.99920888 -2.9762644 4.31331719 0 0 Z " fill="#FDCC02" transform="translate(691,360)"/>
<path d="M0 0 C0.89395329 1.90790032 1.76459334 3.82673806 2.625 5.75 C3.35589844 7.35101563 3.35589844 7.35101563 4.1015625 8.984375 C5 12 5 12 4.3203125 14.28125 C1.6463317 17.76217175 -1.93567062 18.80842071 -6.125 19.5625 C-9 19 -9 19 -11.1875 16.375 C-12.35131279 14.20790032 -13.4797865 12.02123555 -14.5625 9.8125 C-15.80877831 7.01807278 -15.80877831 7.01807278 -17.6875 5.3125 C-18.120625 4.879375 -18.55375 4.44625 -19 4 C-19 3.01 -19 2.02 -19 1 C-16.77100213 0.83109082 -14.54179338 0.66496313 -12.3125 0.5 C-10.45044922 0.36078125 -10.45044922 0.36078125 -8.55078125 0.21875 C-5.68500671 0.04220063 -2.86900043 -0.04388528 0 0 Z " fill="#E21F4B" transform="translate(403,430)"/>
<path d="M0 0 C3.11851842 0.90956787 4.06884568 1.36562215 6 3.875 C6.40625 6.14453125 6.40625 6.14453125 6.5 8.6875 C6.80081064 13.07805524 7.82796841 16.00311761 10 19.875 C10 20.865 10 21.855 10 22.875 C8.37604003 23.37836767 6.75079459 23.87758976 5.125 24.375 C4.22007813 24.6534375 3.31515625 24.931875 2.3828125 25.21875 C0 25.875 0 25.875 -2 25.875 C-2.86799717 22.98267725 -3.7196556 20.08715302 -4.5625 17.1875 C-4.80935547 16.37087891 -5.05621094 15.55425781 -5.31054688 14.71289062 C-7.50309681 7.08528731 -7.50309681 7.08528731 -6 2.875 C-4.16982924 -0.0147433 -3.46717465 -0.14446561 0 0 Z " fill="#E2204A" transform="translate(1053,455.125)"/>
<path d="M0 0 C2.95064148 -0.2208564 5.68368231 -0.28060989 8.625 -0.1875 C9.42679688 -0.17396484 10.22859375 -0.16042969 11.0546875 -0.14648438 C13.03674378 -0.11109051 15.01845551 -0.05728234 17 0 C17.18701396 4.16860152 16.86504293 7.04704556 15.0625 10.8125 C14.70285156 11.58207031 14.34320312 12.35164063 13.97265625 13.14453125 C13 15 13 15 12 16 C7.38266643 16.59296284 3.37948523 16.66885603 -0.5625 14 C-1.366875 13.34 -2.17125 12.68 -3 12 C-2.88541307 10.56163249 -2.75790884 9.12429034 -2.625 7.6875 C-2.55539062 6.88699219 -2.48578125 6.08648437 -2.4140625 5.26171875 C-2 3 -2 3 0 0 Z " fill="#E2204A" transform="translate(795,432)"/>
<path d="M0 0 C2.94743496 1.31858933 3.98607793 2.1303312 5.375 5.0625 C5.22875669 11.9359358 2.4720234 18.57635785 0.375 25.0625 C-1.06336751 24.94791307 -2.50070966 24.82040884 -3.9375 24.6875 C-4.73800781 24.61789062 -5.53851563 24.54828125 -6.36328125 24.4765625 C-8.625 24.0625 -8.625 24.0625 -11.625 22.0625 C-10.625 20.0625 -9.625 18.0625 -8.625 16.0625 C-8.52240164 14.29267834 -8.44212126 12.52152191 -8.375 10.75 C-8.03438204 6.69983953 -7.75569859 5.25128685 -5.375 1.8125 C-2.625 0.0625 -2.625 0.0625 0 0 Z " fill="#E21F4B" transform="translate(148.625,453.9375)"/>
<path d="M0 0 C1.0828125 0.37125 1.0828125 0.37125 2.1875 0.75 C2.47408188 3.73863956 2.57048449 5.23799935 0.73803711 7.68774414 C0.0703833 8.29739014 -0.59727051 8.90703613 -1.28515625 9.53515625 C-2.01734375 10.22552979 -2.74953125 10.91590332 -3.50390625 11.62719727 C-4.28636719 12.34834717 -5.06882812 13.06949707 -5.875 13.8125 C-12.07076771 19.72135561 -16.9041579 25.04065196 -20.78125 32.72265625 C-21.1215625 33.39167969 -21.461875 34.06070313 -21.8125 34.75 C-22.1425 34.75 -22.4725 34.75 -22.8125 34.75 C-23.76044557 25.27054426 -20.39515421 18.33202617 -14.5859375 10.90234375 C-4.62231007 -0.41087201 -4.62231007 -0.41087201 0 0 Z " fill="#FDCA03" transform="translate(765.8125,282.25)"/>
<path d="M0 0 C3.2402529 1.03763557 5.28944907 2.53835107 7.93359375 4.671875 C9.24070312 5.70248047 9.24070312 5.70248047 10.57421875 6.75390625 C12.72490057 8.90060532 13.51162965 9.85614483 13.68359375 12.859375 C12.18359375 15.609375 12.18359375 15.609375 9.68359375 17.859375 C6.37109375 18.734375 6.37109375 18.734375 2.68359375 17.859375 C-1.53786256 13.83367171 -4.3282686 9.31947985 -6.31640625 3.859375 C-3.00926444 -0.18268722 -3.00926444 -0.18268722 0 0 Z " fill="#E32249" transform="translate(1032.31640625,436.140625)"/>
<path d="M0 0 C0.68449219 0.24878906 1.36898437 0.49757813 2.07421875 0.75390625 C2.97838916 3.74665743 3.32184941 5.21182022 2 8.10546875 C1.46761719 8.85570312 0.93523437 9.6059375 0.38671875 10.37890625 C-0.13277344 11.13429688 -0.65226563 11.8896875 -1.1875 12.66796875 C-2.9701681 14.80717047 -4.53964375 16.31853147 -6.92578125 17.75390625 C-13.25305398 17.42663352 -13.25305398 17.42663352 -15.92578125 14.75390625 C-16.4375 11.9375 -16.4375 11.9375 -15.92578125 8.75390625 C-13.84252858 6.73165659 -12.1334477 5.35375689 -9.73828125 3.81640625 C-9.16013672 3.40583984 -8.58199219 2.99527344 -7.98632812 2.57226562 C-5.13970294 0.66486592 -3.46371108 -0.29134018 0 0 Z " fill="#E32349" transform="translate(170.92578125,436.24609375)"/>
<path d="M0 0 C3.13400089 0.31446608 4.59922089 0.56286704 6.765625 2.92578125 C7.25546875 3.71339844 7.7453125 4.50101562 8.25 5.3125 C8.75015625 6.09238281 9.2503125 6.87226563 9.765625 7.67578125 C12.05251254 11.98178784 12.13612955 15.64751562 12.125 20.5 C12.12757813 21.6240625 12.13015625 22.748125 12.1328125 23.90625 C12.02266367 26.4720699 11.75270662 28.56266427 11 31 C10.34 31 9.68 31 9 31 C8.69707031 29.80503906 8.39414062 28.61007812 8.08203125 27.37890625 C5.22899146 16.02795636 5.22899146 16.02795636 -0.1796875 5.7265625 C-1 4 -1 4 -0.6328125 1.7734375 C-0.42398437 1.18820312 -0.21515625 0.60296875 0 0 Z " fill="#FCC306" transform="translate(445,295)"/>
<path d="M0 0 C0.25 6.625 0.25 6.625 -2 10 C-4.75078884 10.91692961 -6.35948913 11.10886083 -9.1875 11.0625 C-11.0746875 11.0315625 -11.0746875 11.0315625 -13 11 C-13.33 10.01 -13.66 9.02 -14 8 C-10.70515565 1.91721044 -7.16609592 -2.25220157 0 0 Z " fill="#FCC406" transform="translate(519,421)"/>
<path d="M0 0 C3.4726126 0.23150751 5.51411094 0.63230017 8.3125 2.75 C10.18103976 5.24138634 10.74975755 6.91367649 11 10 C10 11 10 11 6.125 11.375 C3.9453125 11.34765625 3.9453125 11.34765625 2 11 C-0.38510416 8.39129233 -0.93198403 6.74817568 -1.25 3.25 C-1 1 -1 1 0 0 Z " fill="#FDC605" transform="translate(690,421)"/>
</svg>
