<?xml version="1.0" encoding="UTF-8"?>
<svg version="1.1" xmlns="http://www.w3.org/2000/svg" width="330" height="109">
<path d="M0 0 C11.0735805 0.37155992 11.0735805 0.37155992 14.59936523 3.85913086 C16.90521726 7.12166138 18.34926231 10.74854937 19.79174805 14.45727539 C22.11337662 19.90417319 25.2954824 24.92660295 28.25952148 30.04272461 C30.52496317 34.06517872 32.7484857 38.10836131 34.94702148 42.16772461 C35.45152832 43.08199219 35.95603516 43.99625977 36.47583008 44.93823242 C40.9275072 53.30957604 40.9275072 53.30957604 39.94702148 58.16772461 C38.60442829 61.62122028 36.96600646 64.88122541 35.25952148 68.16772461 C34.77201416 69.12308105 34.28450684 70.0784375 33.78222656 71.06274414 C30.10230171 78.17389531 26.19039487 85.13991179 22.13452148 92.04272461 C21.60834229 92.93862305 21.08216309 93.83452148 20.54003906 94.75756836 C19.52554489 96.45259973 18.48964994 98.13504862 17.43041992 99.80249023 C15.92436644 102.13421595 15.92436644 102.13421595 14.70581055 104.54858398 C13.29452791 106.95362263 12.18370119 108.49042262 9.94702148 110.16772461 C5.37071913 111.23488196 0.99669028 111.105502 -3.67797852 110.91772461 C-4.90516602 110.91514648 -6.13235352 110.91256836 -7.39672852 110.90991211 C-16.33203496 110.73394327 -16.33203496 110.73394327 -19.22802734 108.45947266 C-21.18092201 106.00705497 -22.77500855 103.54618804 -24.33813477 100.82788086 C-24.9464917 99.77455566 -25.55484863 98.72123047 -26.18164062 97.63598633 C-26.81980713 96.51208496 -27.45797363 95.38818359 -28.11547852 94.23022461 C-28.44291046 93.65580627 -28.77034241 93.08138794 -29.10769653 92.48956299 C-31.4419229 88.39288518 -33.75055711 84.28235567 -36.05297852 80.16772461 C-36.63789062 79.1295459 -37.22280273 78.09136719 -37.82543945 77.02172852 C-39.40188017 74.2065231 -40.95151399 71.37855487 -42.49047852 68.54272461 C-42.95655518 67.7100708 -43.42263184 66.87741699 -43.90283203 66.01953125 C-46.49684933 61.14086572 -48.4643143 56.73535761 -47.05297852 51.16772461 C-45.12108553 46.57425717 -42.74304428 42.25527971 -40.30297852 37.91772461 C-39.62010345 36.67689539 -38.93822729 35.43551595 -38.25732422 34.19360352 C-19.43508695 0.04722166 -19.43508695 0.04722166 0 0 Z M0.94702148 15.16772461 C-4.8534597 25.58156445 -10.65603447 36.0049693 -15.86547852 46.73022461 C-16.37981445 47.75394165 -16.37981445 47.75394165 -16.90454102 48.79833984 C-18.80202191 52.79970314 -19.25736812 54.94588578 -18.05297852 59.16772461 C-17.19271125 61.01537122 -16.26736642 62.83347583 -15.29516602 64.62475586 C-14.7524707 65.65536133 -14.20977539 66.6859668 -13.65063477 67.74780273 C-12.5053182 69.89689447 -11.34909741 72.0402116 -10.18188477 74.17749023 C-6.92447623 80.41632161 -5.20111479 84.2524317 -7.05297852 91.16772461 C-3.78751721 88.42423035 -2.09850927 84.81432879 -0.18969727 81.08569336 C0.16593796 80.39389481 0.52157318 79.70209625 0.88798523 78.98933411 C1.63513825 77.52768032 2.3787827 76.06422845 3.11914062 74.59912109 C4.25506634 72.36399088 5.41793715 70.14427171 6.58178711 67.92358398 C7.3055076 66.49932408 8.02756929 65.07421981 8.74780273 63.64819336 C9.09869461 62.9886113 9.44958649 62.32902924 9.81111145 61.64945984 C11.40433065 58.41725604 12.03363137 56.59657999 11.31176758 53.0222168 C10.02103341 50.32252737 8.73232699 47.64847111 7.31030273 45.01538086 C6.81594727 44.0737207 6.3215918 43.13206055 5.81225586 42.16186523 C4.77613237 40.20561195 3.72920537 38.25504306 2.67163086 36.31030273 C-1.02880625 29.19632181 -1.37735209 25.45246263 1.00952148 17.73022461 C1.31889648 16.88459961 1.62827148 16.03897461 1.94702148 15.16772461 C1.61702148 15.16772461 1.28702148 15.16772461 0.94702148 15.16772461 Z M-8.05297852 91.16772461 C-7.05297852 93.16772461 -7.05297852 93.16772461 -7.05297852 93.16772461 Z M-9.05297852 93.16772461 C-8.05297852 95.16772461 -8.05297852 95.16772461 -8.05297852 95.16772461 Z M-10.05297852 95.16772461 C-9.05297852 97.16772461 -9.05297852 97.16772461 -9.05297852 97.16772461 Z M-11.05297852 97.16772461 C-10.05297852 99.16772461 -10.05297852 99.16772461 -10.05297852 99.16772461 Z " fill="#000000" transform="translate(47.052978515625,-1.167724609375)"/>
<path d="M0 0 C8 0 8 0 10.1015625 1.50390625 C10.60429687 2.18324219 11.10703125 2.86257812 11.625 3.5625 C12.18574219 4.28566406 12.74648437 5.00882813 13.32421875 5.75390625 C13.87722656 6.49511719 14.43023437 7.23632812 15 8 C16.13604323 9.34168461 17.28116385 10.67576493 18.4375 12 C19.283125 12.99 20.12875 13.98 21 15 C21.33 10.05 21.66 5.1 22 0 C24.31 0 26.62 0 29 0 C29 8.91 29 17.82 29 27 C22 27 22 27 18.98046875 24.69921875 C18.030947 23.71282237 17.10006531 22.70818306 16.1875 21.6875 C15.71119141 21.18798828 15.23488281 20.68847656 14.74414062 20.17382812 C12.58870676 17.88500595 10.74702685 15.62054028 9 13 C8.67 17.62 8.34 22.24 8 27 C5.69 27 3.38 27 1 27 C0.67 18.09 0.34 9.18 0 0 Z " fill="#000000" transform="translate(182,25)"/>
<path d="M0 0 C2.64 -0.04125 5.28 -0.0825 8 -0.125 C8.8146875 -0.14320801 9.629375 -0.16141602 10.46875 -0.18017578 C16.18118951 -0.22274444 22.35552627 -0.00338919 27.0625 3.5625 C28.53889863 7.40113644 27.92534869 11.04813491 27 15 C26.61457031 15.66515625 26.22914063 16.3303125 25.83203125 17.015625 C24.74672743 19.00339864 24.74672743 19.00339864 25.6796875 21.140625 C26.07414062 21.83671875 26.46859375 22.5328125 26.875 23.25 C27.57625 24.4875 28.2775 25.725 29 27 C26.03 27 23.06 27 20 27 C19.505 25.865625 19.01 24.73125 18.5 23.5625 C17.17458751 21.1805993 16.569875 20.1914084 13.953125 19.3125 C11.49839194 18.99817869 11.49839194 18.99817869 8 19 C8 21.64 8 24.28 8 27 C5.69 27 3.38 27 1 27 C0.67 18.09 0.34 9.18 0 0 Z M8 6 C8 8.31 8 10.62 8 13 C11.63 13 15.26 13 19 13 C19.33 11.35 19.66 9.7 20 8 C16.79619983 5.86413322 15.98060033 5.76867825 12.3125 5.875 C11.50425781 5.89304687 10.69601563 5.91109375 9.86328125 5.9296875 C9.24839844 5.95289063 8.63351563 5.97609375 8 6 Z " fill="#000000" transform="translate(119,25)"/>
<path d="M0 0 C2.97 0 5.94 0 9 0 C9 6.6 9 13.2 9 20 C12.3 20 15.6 20 19 20 C20.54950268 18.45049732 20.21655193 16.90009406 20.31640625 14.74609375 C20.35830078 13.89208984 20.40019531 13.03808594 20.44335938 12.15820312 C20.48267578 11.26037109 20.52199219 10.36253906 20.5625 9.4375 C20.60568359 8.53580078 20.64886719 7.63410156 20.69335938 6.70507812 C20.79978142 4.47021515 20.90179988 2.23523692 21 0 C23.64 0 26.28 0 29 0 C29.05410136 3.06273831 29.09372225 6.12451452 29.125 9.1875 C29.14175781 10.05181641 29.15851563 10.91613281 29.17578125 11.80664062 C29.2101126 16.2868815 29.23560653 19.97748262 27 24 C22.79918155 27.92076389 18.75038891 28.30317745 13.09375 28.21875 C8.87619569 27.77811 5.26769962 26.3670142 2.33276367 23.20214844 C0.76996571 20.61991036 0.57974928 19.01577627 0.48828125 16.015625 C0.45283203 15.08105469 0.41738281 14.14648438 0.38085938 13.18359375 C0.35830078 12.21550781 0.33574219 11.24742188 0.3125 10.25 C0.27833984 9.26644531 0.24417969 8.28289063 0.20898438 7.26953125 C0.12665691 4.84675142 0.06164775 2.4233942 0 0 Z " fill="#000000" transform="translate(249,25)"/>
<path d="M0 0 C7.59 0 15.18 0 23 0 C23 1.98 23 3.96 23 6 C18.05 6 13.1 6 8 6 C8 7.65 8 9.3 8 11 C12.62 11 17.24 11 22 11 C22 12.98 22 14.96 22 17 C17.38 17 12.76 17 8 17 C8 18.65 8 20.3 8 22 C13.28 22 18.56 22 24 22 C24 23.65 24 25.3 24 27 C16.08 27 8.16 27 0 27 C0 18.09 0 9.18 0 0 Z " fill="#000000" transform="translate(153,25)"/>
<path d="M0 0 C3.3 0 6.6 0 10 0 C11.46436728 3.18484819 12.92161948 6.37264183 14.375 9.5625 C14.7875 10.45775391 15.2 11.35300781 15.625 12.27539062 C17.83142501 17.13308439 19.70704274 21.82106681 21 27 C18.36 27 15.72 27 13 27 C12.67 25.68 12.34 24.36 12 23 C7.38 23 2.76 23 -2 23 C-2.33 24.32 -2.66 25.64 -3 27 C-5.64 27 -8.28 27 -11 27 C-7.65142495 17.82881679 -4.17312521 8.83720632 0 0 Z M5 8 C4.3309224 9.31127261 3.66480194 10.6240545 3 11.9375 C2.62875 12.66839844 2.2575 13.39929688 1.875 14.15234375 C0.92866597 15.80990072 0.92866597 15.80990072 1 17 C3.64 17 6.28 17 9 17 C8.01 14.03 7.02 11.06 6 8 C5.67 8 5.34 8 5 8 Z " fill="#000000" transform="translate(226,25)"/>
<path d="M0 0 C8.91 0 17.82 0 27 0 C27 1.98 27 3.96 27 6 C24.03 6 21.06 6 18 6 C18 12.93 18 19.86 18 27 C15.36 27 12.72 27 10 27 C10 20.07 10 13.14 10 6 C6.7 6 3.4 6 0 6 C0 4.02 0 2.04 0 0 Z " fill="#000000" transform="translate(303,25)"/>
<path d="M0 0 C2.64 0 5.28 0 8 0 C8 7.26 8 14.52 8 22 C12.95 22 17.9 22 23 22 C23 23.65 23 25.3 23 27 C15.41 27 7.82 27 0 27 C0 18.09 0 9.18 0 0 Z " fill="#000000" transform="translate(284,25)"/>
<path d="M0 0 C6 0 6 0 7.6796875 1.53125 C8.07414062 2.1809375 8.46859375 2.830625 8.875 3.5 C9.28492188 4.1496875 9.69484375 4.799375 10.1171875 5.46875 C10.55417969 6.22671875 10.55417969 6.22671875 11 7 C12.32 4.69 13.64 2.38 15 0 C16.65 0 18.3 0 20 0 C20 5.94 20 11.88 20 18 C18.68 18 17.36 18 16 18 C15.67 15.36 15.34 12.72 15 10 C14.01 11.485 14.01 11.485 13 13 C10.375 13.1875 10.375 13.1875 8 13 C7.34 11.68 6.68 10.36 6 9 C5.67 11.97 5.34 14.94 5 18 C3.68 18 2.36 18 1 18 C0.67 12.06 0.34 6.12 0 0 Z " fill="#000000" transform="translate(265,65)"/>
<path d="M0 0 C1.98 0 3.96 0 6 0 C9.30199356 5.9435884 10.95518663 11.29119838 12 18 C10.35 17.67 8.7 17.34 7 17 C7 16.01 7 15.02 7 14 C4.69 14.33 2.38 14.66 0 15 C-0.33 15.99 -0.66 16.98 -1 18 C-2.65 18 -4.3 18 -6 18 C-4.60061654 11.70277443 -2.50710309 5.93915684 0 0 Z M3 5 C2.34 6.65 1.68 8.3 1 10 C2.32 10 3.64 10 5 10 C4.67 8.35 4.34 6.7 4 5 C3.67 5 3.34 5 3 5 Z " fill="#000000" transform="translate(242,65)"/>
<path d="M0 0 C4.95 0 9.9 0 15 0 C15 0.99 15 1.98 15 3 C11.7 3 8.4 3 5 3 C5 4.32 5 5.64 5 7 C7.64 7 10.28 7 13 7 C13 7.99 13 8.98 13 10 C10.36 10 7.72 10 5 10 C5 11.32 5 12.64 5 14 C8.3 14 11.6 14 15 14 C15 15.32 15 16.64 15 18 C10.38 18 5.76 18 1 18 C0.67 12.06 0.34 6.12 0 0 Z " fill="#000000" transform="translate(211,65)"/>
<path d="M0 0 C4.95 0 9.9 0 15 0 C15 0.99 15 1.98 15 3 C11.7 3 8.4 3 5 3 C5 4.65 5 6.3 5 8 C7.64 8 10.28 8 13 8 C13 8.99 13 9.98 13 11 C10.36 11 7.72 11 5 11 C5 13.31 5 15.62 5 18 C3.68 18 2.36 18 1 18 C0.67 12.06 0.34 6.12 0 0 Z " fill="#000000" transform="translate(119,65)"/>
<path d="M0 0 C5.28 0 10.56 0 16 0 C16 0.99 16 1.98 16 3 C14.02 3 12.04 3 10 3 C10 7.95 10 12.9 10 18 C8.68 18 7.36 18 6 18 C6 13.05 6 8.1 6 3 C4.02 3 2.04 3 0 3 C0 2.01 0 1.02 0 0 Z " fill="#000000" transform="translate(184,65)"/>
<path d="M0 0 C0 5.94 0 11.88 0 18 C-1.65 18 -3.3 18 -5 18 C-5.33 13.71 -5.66 9.42 -6 5 C-6.99 5 -7.98 5 -9 5 C-8.625 3.0625 -8.625 3.0625 -8 1 C-6 0 -6 0 0 0 Z " fill="#000000" transform="translate(154,65)"/>
<path d="M0 0 C1.65 0 3.3 0 5 0 C5.5625 1.9375 5.5625 1.9375 6 4 C5 5 5 5 2.4375 5.0625 C1.2309375 5.0315625 1.2309375 5.0315625 0 5 C0 3.35 0 1.7 0 0 Z " fill="#000000" transform="translate(155,65)"/>
</svg>
