<?xml version="1.0" encoding="UTF-8"?>
<svg version="1.1" xmlns="http://www.w3.org/2000/svg" width="1200" height="700">
<path d="M0 0 C0.64308105 0.2155957 1.28616211 0.43119141 1.94873047 0.65332031 C39.50759285 13.27961487 73.56808338 35.64743485 102 63 C102.56992676 63.5480127 103.13985352 64.09602539 103.72705078 64.66064453 C111.36044295 72.04666779 118.49051735 79.58646393 125 88 C125.79792969 89.00417969 126.59585937 90.00835937 127.41796875 91.04296875 C160.36981578 132.7627049 181.26732667 183.95718075 186 237 C186.10957031 238.04027344 186.21914063 239.08054687 186.33203125 240.15234375 C192.95998753 313.05986282 169.37441138 386.86768083 122.86083984 443.06811523 C120.61115823 445.74521214 118.31481167 448.37915134 116 451 C115.30487305 451.78987305 115.30487305 451.78987305 114.59570312 452.59570312 C101.75280757 467.0946099 87.61673505 479.5658704 72 491 C70.68128906 491.98033203 70.68128906 491.98033203 69.3359375 492.98046875 C37.50431355 516.00643728 0.46958898 531.40413553 -38 539 C-38.98564941 539.19754883 -39.97129883 539.39509766 -40.98681641 539.59863281 C-71.97487702 545.51264344 -106.99195334 546.05999 -138 540 C-139.03785645 539.80664062 -140.07571289 539.61328125 -141.14501953 539.4140625 C-165.79095002 534.72717682 -189.49130618 527.09379665 -212 516 C-213.26287842 515.38584229 -213.26287842 515.38584229 -214.55126953 514.75927734 C-236.36718374 504.06568211 -256.85594429 490.55337156 -274.74609375 474.0703125 C-276.75303483 472.22684843 -278.79912242 470.45220907 -280.875 468.6875 C-289.17296821 461.42887326 -296.8352408 453.58335364 -303.67578125 444.9375 C-305.33322259 442.84271699 -307.00851017 440.78977575 -308.73046875 438.75 C-339.32535082 402.15612145 -357.71678494 356.64266735 -366 310 C-366.16516113 309.11489746 -366.33032227 308.22979492 -366.50048828 307.31787109 C-371.64454917 278.78881363 -371.29168098 246.46882702 -366 218 C-365.83371094 217.04963867 -365.66742188 216.09927734 -365.49609375 215.12011719 C-353.97489884 150.19605029 -318.86573996 86.46865269 -266 46 C-264.76195912 45.01174527 -263.52506713 44.02205028 -262.2890625 43.03125 C-225.84298985 14.12318543 -182.71486405 -4.05769491 -137 -12 C-136.06124023 -12.16516113 -135.12248047 -12.33032227 -134.15527344 -12.50048828 C-89.56976249 -19.96744171 -42.49962875 -14.80245589 0 0 Z " fill="#231F20" transform="translate(691,85)"/>
<path d="M0 0 C30.69 0 61.38 0 93 0 C93 20.79 93 41.58 93 63 C102.9 62.67 112.8 62.34 123 62 C123.33 51.77 123.66 41.54 124 31 C133.9 31 143.8 31 154 31 C154 20.77 154 10.54 154 0 C184.69 0 215.38 0 247 0 C247 31.02 247 62.04 247 94 C236.77 94 226.54 94 216 94 C216 103.9 216 113.8 216 124 C205.77 124 195.54 124 185 124 C185 134.56 185 145.12 185 156 C195.23 156 205.46 156 216 156 C216 166.23 216 176.46 216 187 C226.23 187 236.46 187 247 187 C247 217.69 247 248.38 247 280 C216.31 280 185.62 280 154 280 C154 269.77 154 259.54 154 249 C143.77 249 133.54 249 123 249 C123 238.77 123 228.54 123 218 C113.1 218 103.2 218 93 218 C93 238.46 93 258.92 93 280 C62.31 280 31.62 280 0 280 C0 187.6 0 95.2 0 0 Z " fill="#00E601" transform="translate(477,166)"/>
<path d="M0 0 C0.64308105 0.2155957 1.28616211 0.43119141 1.94873047 0.65332031 C39.50759285 13.27961487 73.56808338 35.64743485 102 63 C102.56992676 63.5480127 103.13985352 64.09602539 103.72705078 64.66064453 C111.36044295 72.04666779 118.49051735 79.58646393 125 88 C125.79792969 89.00417969 126.59585937 90.00835937 127.41796875 91.04296875 C160.36981578 132.7627049 181.26732667 183.95718075 186 237 C186.10957031 238.04027344 186.21914063 239.08054687 186.33203125 240.15234375 C192.95998753 313.05986282 169.37441138 386.86768083 122.86083984 443.06811523 C120.61115823 445.74521214 118.31481167 448.37915134 116 451 C115.30487305 451.78987305 115.30487305 451.78987305 114.59570312 452.59570312 C101.75280757 467.0946099 87.61673505 479.5658704 72 491 C70.68128906 491.98033203 70.68128906 491.98033203 69.3359375 492.98046875 C37.50431355 516.00643728 0.46958898 531.40413553 -38 539 C-38.98564941 539.19754883 -39.97129883 539.39509766 -40.98681641 539.59863281 C-71.97487702 545.51264344 -106.99195334 546.05999 -138 540 C-139.03785645 539.80664062 -140.07571289 539.61328125 -141.14501953 539.4140625 C-165.79095002 534.72717682 -189.49130618 527.09379665 -212 516 C-213.26287842 515.38584229 -213.26287842 515.38584229 -214.55126953 514.75927734 C-236.36718374 504.06568211 -256.85594429 490.55337156 -274.74609375 474.0703125 C-276.75303483 472.22684843 -278.79912242 470.45220907 -280.875 468.6875 C-289.17296821 461.42887326 -296.8352408 453.58335364 -303.67578125 444.9375 C-305.33322259 442.84271699 -307.00851017 440.78977575 -308.73046875 438.75 C-339.32535082 402.15612145 -357.71678494 356.64266735 -366 310 C-366.16516113 309.11489746 -366.33032227 308.22979492 -366.50048828 307.31787109 C-371.64454917 278.78881363 -371.29168098 246.46882702 -366 218 C-365.83371094 217.04963867 -365.66742188 216.09927734 -365.49609375 215.12011719 C-353.97489884 150.19605029 -318.86573996 86.46865269 -266 46 C-264.76195912 45.01174527 -263.52506713 44.02205028 -262.2890625 43.03125 C-225.84298985 14.12318543 -182.71486405 -4.05769491 -137 -12 C-136.06124023 -12.16516113 -135.12248047 -12.33032227 -134.15527344 -12.50048828 C-89.56976249 -19.96744171 -42.49962875 -14.80245589 0 0 Z M-205 20 C-205.68932617 20.32613281 -206.37865234 20.65226562 -207.08886719 20.98828125 C-244.92853938 39.00204648 -280.39775008 66.95008279 -305 101 C-305.85334392 102.14774758 -306.70752439 103.29487362 -307.5625 104.44140625 C-313.60848105 112.63240222 -319.01945552 121.12358896 -324 130 C-324.46164551 130.82081055 -324.92329102 131.64162109 -325.39892578 132.48730469 C-337.27865382 153.84808258 -346.06929466 176.29156191 -352 200 C-352.19287598 200.75168457 -352.38575195 201.50336914 -352.58447266 202.27783203 C-361.15069061 236.32612116 -360.94750608 272.44485524 -356 307 C-355.89316895 307.79857422 -355.78633789 308.59714844 -355.67626953 309.41992188 C-347.23138893 371.59864864 -310.17525982 434.74395316 -260.5625 473.1875 C-258.94504722 474.40640819 -257.3162655 475.60540726 -255.67285156 476.7890625 C-253.85382283 478.10581418 -252.06335562 479.45647351 -250.2734375 480.8125 C-212.51113743 509.25595339 -168.61272722 525.63394822 -122 532 C-121.32831787 532.09498779 -120.65663574 532.18997559 -119.96459961 532.2878418 C-94.06230251 535.42143485 -66.54464776 533.8648801 -41 529 C-40.03336426 528.82339844 -39.06672852 528.64679687 -38.07080078 528.46484375 C-15.42200184 524.22481899 6.3434091 516.10525917 27 506 C27.77859375 505.62294922 28.5571875 505.24589844 29.359375 504.85742188 C53.31331619 493.13823376 74.86276427 477.50320252 94 459 C94.65323242 458.36868164 95.30646484 457.73736328 95.97949219 457.08691406 C104.17808872 449.11980731 112.06220342 441.11123019 119 432 C119.69536865 431.1032959 119.69536865 431.1032959 120.40478516 430.18847656 C127.18269679 421.44573211 133.47317256 412.60150807 139 403 C139.38897461 402.32743164 139.77794922 401.65486328 140.17871094 400.96191406 C159.24800118 367.84000088 170.77593792 332.91758141 176 295 C176.1750708 293.7732959 176.3501416 292.5465918 176.53051758 291.28271484 C177.10008838 286.65336165 177.19680904 282.05477826 177.23828125 277.39453125 C177.24802979 276.48523361 177.25777832 275.57593597 177.26782227 274.63908386 C177.44555624 253.73456864 177.04981232 233.57760598 173 213 C172.82339844 212.07541992 172.64679687 211.15083984 172.46484375 210.19824219 C168.01879355 187.64688758 160.17246547 165.58077551 150 145 C149.63938477 144.2663623 149.27876953 143.53272461 148.90722656 142.77685547 C132.11871618 108.99620049 107.03358819 76.96686155 77 54 C75.49953125 52.80890625 75.49953125 52.80890625 73.96875 51.59375 C1.30716447 -5.85518738 -97.88603923 -20.49647812 -205 20 Z " fill="#00E401" transform="translate(691,85)"/>
<path d="M0 0 C4.02058602 -0.11686443 8.04073082 -0.18747388 12.0625 -0.25 C13.7630957 -0.30027344 13.7630957 -0.30027344 15.49804688 -0.3515625 C22.25639884 -0.4303771 26.53858326 -0.11140361 32 4 C34.43051608 6.95888914 34.36173692 10.21633142 34.25 13.98046875 C33.54019876 19.71433193 30.09700772 23.2351821 26 27 C26.66 27.639375 27.32 28.27875 28 28.9375 C30.71157994 33.08960678 30.7890001 36.16938712 30 41 C28.16379387 46.85935438 25.50135644 50.08091291 20 53 C16.05315407 54.87608677 12.96383186 55.236624 8.60546875 55.1953125 C7.40341797 55.18886719 6.20136719 55.18242188 4.96289062 55.17578125 C3.71701172 55.15902344 2.47113281 55.14226563 1.1875 55.125 C-0.71032227 55.11146484 -0.71032227 55.11146484 -2.64648438 55.09765625 C-5.76451564 55.07412394 -8.88216097 55.04124545 -12 55 C-10.73106051 47.7173646 -9.27488944 40.50435528 -7.6171875 33.30078125 C-7.39805695 32.3397197 -7.17892639 31.37865814 -6.95315552 30.38847351 C-6.26269689 27.3626274 -5.56891101 24.33755603 -4.875 21.3125 C-4.40212205 19.24288919 -3.92946385 17.17322815 -3.45703125 15.10351562 C-2.3072232 10.06842714 -1.15443354 5.03402989 0 0 Z " fill="#F9F8F9" transform="translate(609,484)"/>
<path d="M0 0 C3.33303003 -0.1174875 6.66551837 -0.18767324 10 -0.25 C10.93457031 -0.28351563 11.86914062 -0.31703125 12.83203125 -0.3515625 C20.15306653 -0.4539546 25.48124921 0.79480126 30.97265625 5.796875 C33.58104558 11.3905312 32.90081573 19.75028305 31.2734375 25.62109375 C29.0203146 30.46622388 25.80981572 33.59509214 21 36 C21.2165625 37.03640625 21.433125 38.0728125 21.65625 39.140625 C21.93770537 40.51037448 22.218944 41.88016851 22.5 43.25 C22.64308594 43.93191406 22.78617188 44.61382813 22.93359375 45.31640625 C23.61251049 48.64633121 24 51.58332551 24 55 C20.37 55 16.74 55 13 55 C12.01 49.72 11.02 44.44 10 39 C7.36 38.67 4.72 38.34 2 38 C1.87625 39.134375 1.7525 40.26875 1.625 41.4375 C1.0567619 46.04105211 0.05804309 50.48568284 -1 55 C-4.96 55 -8.92 55 -13 55 C-11.66752057 48.19844547 -10.22222154 41.43789364 -8.65234375 34.6875 C-8.32720543 33.28419434 -8.32720543 33.28419434 -7.99549866 31.85253906 C-7.5416513 29.89613859 -7.08700724 27.93992277 -6.6315918 25.98388672 C-5.93304064 22.98082931 -5.23887661 19.97677872 -4.54492188 16.97265625 C-4.1018273 15.06504264 -3.65847723 13.15748835 -3.21484375 11.25 C-3.00754135 10.35112061 -2.80023895 9.45224121 -2.58665466 8.52612305 C-2.39297806 7.69765869 -2.19930145 6.86919434 -1.99975586 6.015625 C-1.83035995 5.28633789 -1.66096405 4.55705078 -1.48643494 3.80566406 C-1 2 -1 2 0 0 Z " fill="#F9F9F9" transform="translate(691,484)"/>
<path d="M0 0 C6.27 0 12.54 0 19 0 C18.67 18.15 18.34 36.3 18 55 C14.37 55 10.74 55 7 55 C7 51.7 7 48.4 7 45 C-0.92 45.495 -0.92 45.495 -9 46 C-10.32 48.97 -11.64 51.94 -13 55 C-16.63 55 -20.26 55 -24 55 C-23.14938244 50.74691221 -22.14139454 47.76017264 -20.375 43.87109375 C-19.83713867 42.67967773 -19.29927734 41.48826172 -18.74511719 40.26074219 C-18.16355265 38.98626369 -17.58184421 37.71185085 -17 36.4375 C-16.41000748 35.13595708 -15.82049215 33.83419775 -15.23144531 32.53222656 C-14.05047458 29.9232664 -12.86694138 27.31549163 -11.68164062 24.70849609 C-10.16541025 21.37001016 -8.66546365 18.02446753 -7.171875 14.67578125 C-6.75808594 13.74902588 -6.34429688 12.82227051 -5.91796875 11.86743164 C-5.15378865 10.15489508 -4.39072271 8.44186081 -3.62890625 6.72827148 C-1.11229159 1.11229159 -1.11229159 1.11229159 0 0 Z " fill="#F9F9F9" transform="translate(532,484)"/>
<path d="M0 0 C3.63 0 7.26 0 11 0 C10.75765625 1.07894531 10.5153125 2.15789062 10.265625 3.26953125 C9.3629519 7.29932188 8.47051725 11.3313171 7.58203125 15.36425781 C7.1962034 17.11148831 6.80820701 18.85824145 6.41796875 20.60449219 C5.85469154 23.13061803 5.3013286 25.6587428 4.75 28.1875 C4.57500977 28.96391846 4.40001953 29.74033691 4.21972656 30.5402832 C3.23799856 35.09682461 2.73218785 39.3072007 3 44 C4.57922406 45.57922406 6.19443874 45.207659 8.375 45.25 C9.56222656 45.28867187 9.56222656 45.28867187 10.7734375 45.328125 C13.56279305 44.91706208 14.19968176 44.12024702 16 42 C19.17879224 33.96802495 20.79039454 25.47981691 22.625 17.0625 C23.09189197 14.93188423 23.56018654 12.80160506 24.03158569 10.67198181 C24.45477247 8.75867314 24.87326608 6.84432821 25.29150391 4.92993164 C26 2 26 2 27 0 C30.63 0 34.26 0 38 0 C37.40366093 5.33336639 36.54599663 10.49691128 35.29296875 15.71875 C35.12630203 16.42092651 34.95963531 17.12310303 34.78791809 17.84655762 C34.43639291 19.3193271 34.08249859 20.79153298 33.72631836 22.26318359 C33.18939044 24.49215214 32.66770632 26.72434524 32.14648438 28.95703125 C27.60838288 48.02683637 27.60838288 48.02683637 19 54 C12.36201754 57.22837031 4.36280532 57.12093511 -2.5625 54.8125 C-6.10674188 52.17703809 -8.66827592 49.71036141 -9.52905273 45.2722168 C-9.42432161 35.70599861 -7.44596797 27.01311181 -5.0625 17.8125 C-4.68420623 16.29916262 -4.30724498 14.7854915 -3.93164062 13.27148438 C-1.21794324 2.43588649 -1.21794324 2.43588649 0 0 Z " fill="#F8F8F8" transform="translate(564,484)"/>
<path d="M0 0 C10.56 0 21.12 0 32 0 C31.34 3.3 30.68 6.6 30 10 C23.07 10 16.14 10 9 10 C8.01 14.29 7.02 18.58 6 23 C11.28 23 16.56 23 22 23 C21.67 25.97 21.34 28.94 21 32 C12.585 32.495 12.585 32.495 4 33 C3.01 36.96 2.02 40.92 1 45 C7.93 45 14.86 45 22 45 C21.34 48.3 20.68 51.6 20 55 C9.44 55 -1.12 55 -12 55 C-11.3504121 49.80329677 -10.66050258 45.05337988 -9.51171875 40 C-9.36838104 39.36558487 -9.22504333 38.73116974 -9.07736206 38.07752991 C-8.61809973 36.0507462 -8.1530617 34.02534509 -7.6875 32 C-7.37022207 30.60737221 -7.05308385 29.21471259 -6.73608398 27.82202148 C-4.61083584 18.5162 -2.38235173 9.24352472 0 0 Z " fill="#F9F8F8" transform="translate(653,484)"/>
<path d="M0 0 C0.85856655 3.4342662 0.97591583 5.61682513 0 9 C-0.56509277 8.98952637 -1.13018555 8.97905273 -1.71240234 8.96826172 C-4.26655653 8.92675212 -6.82063982 8.9006904 -9.375 8.875 C-10.70917969 8.84986328 -10.70917969 8.84986328 -12.0703125 8.82421875 C-12.92109375 8.81777344 -13.771875 8.81132812 -14.6484375 8.8046875 C-15.43395996 8.79421387 -16.21948242 8.78374023 -17.02880859 8.77294922 C-19.234465 8.82009873 -19.234465 8.82009873 -21 11 C-21.16677282 14.58343976 -21.16677282 14.58343976 -21 18 C-20.09636719 18.45890625 -19.19273437 18.9178125 -18.26171875 19.390625 C-17.0700523 20.00991623 -15.87866034 20.62973585 -14.6875 21.25 C-13.51574219 21.85328125 -12.34398437 22.4565625 -11.13671875 23.078125 C-7.05699084 25.57778394 -5.49717861 27.50846418 -4 32 C-3.2370571 38.13624076 -3.57385113 43.14359946 -7.2734375 48.23828125 C-12.44153699 53.51161354 -18.29887554 55.29610879 -25.5625 55.5 C-31.21366989 55.28573763 -35.77845835 54.12401694 -41 52 C-40.67 49.36 -40.34 46.72 -40 44 C-39.41508789 44.02094727 -38.83017578 44.04189453 -38.22753906 44.06347656 C-35.56853535 44.14680115 -32.90980645 44.19870897 -30.25 44.25 C-28.86941406 44.30027344 -28.86941406 44.30027344 -27.4609375 44.3515625 C-22.07702053 44.50907458 -22.07702053 44.50907458 -17.3984375 42.140625 C-15.86846109 40.05386879 -15.86846109 40.05386879 -15.375 37.5 C-15.8027008 34.72415514 -15.8027008 34.72415514 -18.625 32.875 C-21.90206842 30.99184374 -21.90206842 30.99184374 -25.0625 29.625 C-29.54306003 27.14639232 -32.35397278 23.93808167 -34 19 C-34.59186707 13.17997385 -34.00508225 9.64418998 -30.59765625 4.83203125 C-22.28819817 -4.69641823 -11.23496888 -2.9959917 0 0 Z " fill="#F7F7F7" transform="translate(514,485)"/>
<path d="M0 0 C1.79093191 -0.08086147 3.58289628 -0.13912702 5.375 -0.1875 C6.87160156 -0.23970703 6.87160156 -0.23970703 8.3984375 -0.29296875 C9.25695312 -0.19628906 10.11546875 -0.09960938 11 0 C13.47037103 3.70555655 13.67311656 6.70178579 13 11 C10.01470588 16.66176471 10.01470588 16.66176471 6 18 C4.43881572 18.06740865 2.8749748 18.08514456 1.3125 18.0625 C0.10013672 18.04896484 0.10013672 18.04896484 -1.13671875 18.03515625 C-1.75160156 18.02355469 -2.36648438 18.01195312 -3 18 C-2.32418477 11.91766294 -1.26361972 5.98685848 0 0 Z " fill="#282425" transform="translate(699,494)"/>
<path d="M0 0 C1.93681161 -0.08107583 3.8745934 -0.13922475 5.8125 -0.1875 C6.89144531 -0.22230469 7.97039063 -0.25710938 9.08203125 -0.29296875 C12 0 12 0 13.890625 1.328125 C15 3 15 3 14.9375 5.9375 C13.8523265 9.48240011 12.90216159 10.72979989 10 13 C6.984375 13.390625 6.984375 13.390625 3.75 13.25 C2.67234375 13.21390625 1.5946875 13.1778125 0.484375 13.140625 C-0.74539063 13.07101562 -0.74539063 13.07101562 -2 13 C-1.85851011 11.3954444 -1.71164314 9.79136233 -1.5625 8.1875 C-1.48128906 7.29417969 -1.40007813 6.40085937 -1.31640625 5.48046875 C-1 3 -1 3 0 0 Z " fill="#282425" transform="translate(613,516)"/>
<path d="M0 0 C0.66 0 1.32 0 2 0 C2.14368684 8.71700174 1.71961582 17.31320899 1 26 C-2.96 26 -6.92 26 -11 26 C-9.28137532 20.31531835 -6.8358325 15.01576119 -4.375 9.625 C-3.95476563 8.69816406 -3.53453125 7.77132813 -3.1015625 6.81640625 C-2.07035118 4.54305401 -1.03643137 2.27097594 0 0 Z " fill="#2D292A" transform="translate(538,494)"/>
<path d="M0 0 C9.27734375 -0.09765625 9.27734375 -0.09765625 12 0 C13 1 13 1 13.375 4.25 C13 8 13 8 11.1875 10.9375 C6.39660024 14.03749396 2.63916424 13.33970869 -3 13 C-2.01 8.71 -1.02 4.42 0 0 Z " fill="#2D292A" transform="translate(618,494)"/>
</svg>
