<?xml version="1.0" encoding="UTF-8"?>
<svg version="1.1" xmlns="http://www.w3.org/2000/svg" width="330" height="86">
<path d="M0 0 C8.91 0 17.82 0 27 0 C27 2.97 27 5.94 27 9 C24.03 9 21.06 9 18 9 C18 11.31 18 13.62 18 16 C19.43836751 15.88541307 20.87570966 15.75790884 22.3125 15.625 C23.11300781 15.55539063 23.91351563 15.48578125 24.73828125 15.4140625 C27.27224441 15.10435574 27.27224441 15.10435574 30 13 C35.68731616 11.66180796 39.54364568 12.30664866 45 14 C45.495 14.495 45.495 14.495 46 15 C47.34747084 15.23075082 48.70377565 15.41153063 50.0625 15.5625 C51.361875 15.706875 52.66125 15.85125 54 16 C54 15.01 54 14.02 54 13 C57.3 13 60.6 13 64 13 C64 13.66 64 14.32 64 15 C64.99 14.34 65.98 13.68 67 13 C70.1875 12.875 70.1875 12.875 73 13 C73 13.99 73 14.98 73 16 C78.3086849 15.41825155 78.3086849 15.41825155 83 13 C88.68731616 11.66180796 92.54364568 12.30664866 98 14 C98.495 14.495 98.495 14.495 99 15 C100.63256758 15.15714654 102.27135338 15.25085414 103.91015625 15.31640625 C104.89951172 15.35830078 105.88886719 15.40019531 106.90820312 15.44335938 C107.94912109 15.48267578 108.99003906 15.52199219 110.0625 15.5625 C111.10728516 15.60568359 112.15207031 15.64886719 113.22851562 15.69335938 C115.81886884 15.79981225 118.40932186 15.9018276 121 16 C116.00790097 25.99209903 116.00790097 25.99209903 113 29 C109.86497447 29.76202089 107.15745251 29.56834145 104 29 C103.9071875 30.0828125 103.9071875 30.0828125 103.8125 31.1875 C102.51526724 35.6779211 99.65021173 38.08804089 95.625 40.3125 C89.58084695 41.89549247 85.11573788 41.15191489 79.734375 38.2109375 C77.28800779 36.50288832 76.12467786 34.74140228 75 32 C75 31.01 75 30.02 75 29 C71.37 29 67.74 29 64 29 C64 32.63 64 36.26 64 40 C60.7 40 57.4 40 54 40 C54 36.37 54 32.74 54 29 C53.01 29 52.02 29 51 29 C50.9071875 30.0828125 50.9071875 30.0828125 50.8125 31.1875 C49.51526724 35.6779211 46.65021173 38.08804089 42.625 40.3125 C36.58084695 41.89549247 32.11573788 41.15191489 26.734375 38.2109375 C24.28800779 36.50288832 23.12467786 34.74140228 22 32 C22 31.01 22 30.02 22 29 C20.68 29 19.36 29 18 29 C18 32.63 18 36.26 18 40 C15.03 40 12.06 40 9 40 C9 36.37 9 32.74 9 29 C-0.9 29 -10.8 29 -21 29 C-21 24.71 -21 20.42 -21 16 C-11.1 16 -1.2 16 9 16 C9 13.69 9 11.38 9 9 C6.03 9 3.06 9 0 9 C0 6.03 0 3.06 0 0 Z M32 29 C32.99 30.485 32.99 30.485 34 32 C36.5 32.5 36.5 32.5 39 32 C39.66 31.01 40.32 30.02 41 29 C38.03 29 35.06 29 32 29 Z M85 29 C85.99 30.485 85.99 30.485 87 32 C89.5 32.5 89.5 32.5 92 32 C92.66 31.01 93.32 30.02 94 29 C91.03 29 88.06 29 85 29 Z " fill="#D1CFD0" transform="translate(68,44)"/>
<path d="M0 0 C5.82504596 3.12357537 5.82504596 3.12357537 7.11328125 6.98828125 C8.44359375 6.89546875 8.44359375 6.89546875 9.80078125 6.80078125 C13.5808511 7.01474747 14.9489956 8.01060272 18.11328125 9.98828125 C19.8719179 10.82685388 21.64335554 11.63903763 23.42578125 12.42578125 C26.89246682 13.96497093 30.26826641 15.57638793 33.61328125 17.36328125 C36.98118121 19.41360498 36.98118121 19.41360498 40.11328125 17.98828125 C39.43265625 17.24578125 38.75203125 16.50328125 38.05078125 15.73828125 C36.11328125 12.98828125 36.11328125 12.98828125 35.98828125 10.80078125 C37.71788034 8.01420494 40.04584691 7.77145598 43.11328125 6.98828125 C43.60828125 7.97828125 43.60828125 7.97828125 44.11328125 8.98828125 C43.78328125 9.97828125 43.45328125 10.96828125 43.11328125 11.98828125 C42.45328125 11.98828125 41.79328125 11.98828125 41.11328125 11.98828125 C41.60828125 12.82359375 41.60828125 12.82359375 42.11328125 13.67578125 C43.2657713 16.34091449 43.4160253 18.11221274 43.11328125 20.98828125 C42.45328125 21.64828125 41.79328125 22.30828125 41.11328125 22.98828125 C39.79328125 22.98828125 38.47328125 22.98828125 37.11328125 22.98828125 C37.11328125 24.63828125 37.11328125 26.28828125 37.11328125 27.98828125 C38.08265625 28.25640625 39.05203125 28.52453125 40.05078125 28.80078125 C41.06140625 29.19265625 42.07203125 29.58453125 43.11328125 29.98828125 C43.60828125 31.47328125 43.60828125 31.47328125 44.11328125 32.98828125 C44.77328125 32.98828125 45.43328125 32.98828125 46.11328125 32.98828125 C46.11328125 34.30828125 46.11328125 35.62828125 46.11328125 36.98828125 C41.4336598 37.41370138 38.34214828 35.88398026 34.11328125 33.98828125 C31.79437043 33.24243274 29.46899486 32.61326649 27.11328125 31.98828125 C27.11328125 30.99828125 27.11328125 30.00828125 27.11328125 28.98828125 C22.97234427 28.77857566 22.97234427 28.77857566 19.11328125 29.98828125 C19.60828125 30.97828125 19.60828125 30.97828125 20.11328125 31.98828125 C19.61828125 32.97828125 19.61828125 32.97828125 19.11328125 33.98828125 C18.45328125 33.98828125 17.79328125 33.98828125 17.11328125 33.98828125 C17.11328125 34.64828125 17.11328125 35.30828125 17.11328125 35.98828125 C16.54480469 35.84648438 15.97632813 35.7046875 15.390625 35.55859375 C10.58721615 34.58804642 10.58721615 34.58804642 6.1328125 36.1875 C4.35865118 37.7635953 4.35865118 37.7635953 2.81640625 39.4453125 C-1.72546006 43.56007671 -7.05642516 43.40879061 -12.875 43.30859375 C-18.25744611 42.73614163 -22.34179878 40.83221799 -25.82421875 36.67578125 C-27.71365085 34.7502116 -27.71365085 34.7502116 -29.984375 35.06640625 C-31.57711669 35.30467005 -33.16834972 35.55326307 -34.7578125 35.8125 C-36.88671875 35.98828125 -36.88671875 35.98828125 -39.44921875 34.73828125 C-40.88671875 32.98828125 -40.88671875 32.98828125 -40.88671875 29.98828125 C-39.56671875 29.65828125 -38.24671875 29.32828125 -36.88671875 28.98828125 C-39.85671875 28.65828125 -42.82671875 28.32828125 -45.88671875 27.98828125 C-46.54671875 29.30828125 -47.20671875 30.62828125 -47.88671875 31.98828125 C-48.88671875 32.98828125 -48.88671875 32.98828125 -52.13671875 33.36328125 C-55.88915373 33.98868708 -57.70358816 35.06164957 -60.88671875 36.98828125 C-63.69921875 37.17578125 -63.69921875 37.17578125 -65.88671875 36.98828125 C-66.57421875 35.17578125 -66.57421875 35.17578125 -66.88671875 32.98828125 C-65.69921875 31.17578125 -65.69921875 31.17578125 -63.88671875 29.98828125 C-61.69921875 30.30078125 -61.69921875 30.30078125 -59.88671875 30.98828125 C-59.55671875 29.99828125 -59.22671875 29.00828125 -58.88671875 27.98828125 C-57.89671875 27.98828125 -56.90671875 27.98828125 -55.88671875 27.98828125 C-55.88671875 26.33828125 -55.88671875 24.68828125 -55.88671875 22.98828125 C-57.30984375 23.08109375 -57.30984375 23.08109375 -58.76171875 23.17578125 C-59.79296875 23.11390625 -60.82421875 23.05203125 -61.88671875 22.98828125 C-63.88671875 19.98828125 -63.88671875 19.98828125 -63.63671875 17.42578125 C-62.88671875 14.98828125 -62.88671875 14.98828125 -60.88671875 12.98828125 C-61.87671875 12.32828125 -62.86671875 11.66828125 -63.88671875 10.98828125 C-63.88671875 9.66828125 -63.88671875 8.34828125 -63.88671875 6.98828125 C-61.57671875 7.64828125 -59.26671875 8.30828125 -56.88671875 8.98828125 C-56.13671875 10.73828125 -56.13671875 10.73828125 -55.88671875 12.98828125 C-57.82421875 15.11328125 -57.82421875 15.11328125 -59.88671875 16.98828125 C-59.88671875 17.64828125 -59.88671875 18.30828125 -59.88671875 18.98828125 C-54.84434552 18.59019915 -51.15390805 16.75033169 -46.75 14.46484375 C-43.53163298 12.80516744 -40.28433708 11.22577557 -37.01171875 9.67578125 C-35.94179687 9.16402344 -34.871875 8.65226563 -33.76953125 8.125 C-30.88671875 6.98828125 -30.88671875 6.98828125 -26.88671875 6.98828125 C-26.55671875 5.99828125 -26.22671875 5.00828125 -25.88671875 3.98828125 C-18.2676349 -1.64321551 -9.13631801 -3.20203838 0 0 Z M-24.82421875 7.23828125 C-25.35015625 8.10453125 -25.35015625 8.10453125 -25.88671875 8.98828125 C-25.12359375 9.56578125 -24.36046875 10.14328125 -23.57421875 10.73828125 C-19.53530463 14.11969773 -17.66667594 16.96478629 -16.32421875 22.05078125 C-15.46404669 25.28250113 -14.77749139 27.15212229 -12.88671875 29.98828125 C-12.22671875 29.98828125 -11.56671875 29.98828125 -10.88671875 29.98828125 C-11.21671875 31.30828125 -11.54671875 32.62828125 -11.88671875 33.98828125 C-12.91796875 33.61703125 -13.94921875 33.24578125 -15.01171875 32.86328125 C-19.2204783 31.91291619 -21.00835631 32.28558554 -24.88671875 33.98828125 C-20.29401959 39.12129796 -16.91141576 40.63539993 -10.13671875 41.42578125 C-4.85240065 41.30336461 -0.23248538 38.85584101 4.11328125 35.98828125 C4.77328125 34.99828125 5.43328125 34.00828125 6.11328125 32.98828125 C4.69894919 32.76464755 3.28160507 32.56001649 1.86328125 32.36328125 C1.074375 32.24726562 0.28546875 32.13125 -0.52734375 32.01171875 C-3.20824334 31.9850873 -4.61365964 32.62236041 -6.88671875 33.98828125 C-6.88671875 33.32828125 -6.88671875 32.66828125 -6.88671875 31.98828125 C-7.54671875 31.98828125 -8.20671875 31.98828125 -8.88671875 31.98828125 C-8.88671875 31.32828125 -8.88671875 30.66828125 -8.88671875 29.98828125 C-8.22671875 29.98828125 -7.56671875 29.98828125 -6.88671875 29.98828125 C-6.35884766 28.46847656 -6.35884766 28.46847656 -5.8203125 26.91796875 C-3.02969685 19.23755947 -0.95519854 13.65347791 6.11328125 8.98828125 C3.21854526 4.86884926 0.91372046 2.6170017 -3.88671875 0.98828125 C-12.40291211 0.01703249 -18.97677034 0.447696 -24.82421875 7.23828125 Z M-27.88671875 26.98828125 C-27.55671875 27.64828125 -27.22671875 28.30828125 -26.88671875 28.98828125 C-26.55671875 28.32828125 -26.22671875 27.66828125 -25.88671875 26.98828125 C-26.54671875 26.98828125 -27.20671875 26.98828125 -27.88671875 26.98828125 Z M6.11328125 26.98828125 C6.77328125 27.64828125 7.43328125 28.30828125 8.11328125 28.98828125 C8.11328125 28.32828125 8.11328125 27.66828125 8.11328125 26.98828125 C7.45328125 26.98828125 6.79328125 26.98828125 6.11328125 26.98828125 Z " fill="#D0D2D3" transform="translate(185.88671875,1.01171875)"/>
<path d="M0 0 C0.87140625 0.18304688 1.7428125 0.36609375 2.640625 0.5546875 C4.75 1.125 4.75 1.125 5.75 2.125 C7.38256758 2.28214654 9.02135338 2.37585414 10.66015625 2.44140625 C11.64951172 2.48330078 12.63886719 2.52519531 13.65820312 2.56835938 C14.69912109 2.60767578 15.74003906 2.64699219 16.8125 2.6875 C18.37967773 2.75227539 18.37967773 2.75227539 19.97851562 2.81835938 C22.56886884 2.92481225 25.15932186 3.0268276 27.75 3.125 C22.75790097 13.11709903 22.75790097 13.11709903 19.75 16.125 C16.61497447 16.88702089 13.90745251 16.69334145 10.75 16.125 C10.6571875 17.2078125 10.6571875 17.2078125 10.5625 18.3125 C9.26526724 22.8029211 6.40021173 25.21304089 2.375 27.4375 C-3.66915305 29.02049247 -8.13426212 28.27691489 -13.515625 25.3359375 C-15.96199221 23.62788832 -17.12532214 21.86640228 -18.25 19.125 C-18.25 18.135 -18.25 17.145 -18.25 16.125 C-21.88 16.125 -25.51 16.125 -29.25 16.125 C-29.29254356 14.12545254 -29.29080783 12.12458364 -29.25 10.125 C-28.25 9.125 -28.25 9.125 -24.6875 9.0625 C-23.553125 9.083125 -22.41875 9.10375 -21.25 9.125 C-21.270625 8.320625 -21.29125 7.51625 -21.3125 6.6875 C-21.25 4.125 -21.25 4.125 -20.25 3.125 C-18.579375 2.9084375 -18.579375 2.9084375 -16.875 2.6875 C-13.16489453 2.37199783 -13.16489453 2.37199783 -10.25 0.125 C-6.52100014 -0.9492483 -3.77067385 -0.82412931 0 0 Z M-8.25 16.125 C-7.26 17.61 -7.26 17.61 -6.25 19.125 C-3.75 19.625 -3.75 19.625 -1.25 19.125 C-0.59 18.135 0.07 17.145 0.75 16.125 C-2.22 16.125 -5.19 16.125 -8.25 16.125 Z " fill="#D0CFD0" transform="translate(161.25,56.875)"/>
<path d="M0 0 C8.91 0 17.82 0 27 0 C27 2.97 27 5.94 27 9 C24.03 9 21.06 9 18 9 C18 19.23 18 29.46 18 40 C15.03 40 12.06 40 9 40 C9 36.37 9 32.74 9 29 C-0.9 29 -10.8 29 -21 29 C-21 24.71 -21 20.42 -21 16 C-11.1 16 -1.2 16 9 16 C9 13.69 9 11.38 9 9 C6.03 9 3.06 9 0 9 C0 6.03 0 3.06 0 0 Z " fill="#D0D0D2" transform="translate(68,44)"/>
<path d="M0 0 C20 0 20 0 25 3 C27.95349267 6.56456012 28.47512282 9.58339928 28.2890625 14.07421875 C27.69375343 18.04026428 25.82646223 20.31521701 22.8125 22.8125 C22.214375 23.204375 21.61625 23.59625 21 24 C22.43708955 28.14486881 24.49035687 31.25602883 27.125 34.75 C31 39.90747331 31 39.90747331 31 41 C26.79054383 41.75770211 23.18572578 41.98007238 19 41 C14.20021485 36.8110966 11.39766985 31.84782922 10.515625 25.53125 C10.50184447 22.63733849 10.63378157 19.86871102 11 17 C11.969375 16.731875 12.93875 16.46375 13.9375 16.1875 C14.948125 15.795625 15.95875 15.40375 17 15 C17.33 14.01 17.66 13.02 18 12 C17.34 11.01 16.68 10.02 16 9 C13.03 8.505 13.03 8.505 10 8 C10 18.89 10 29.78 10 41 C6.7 41 3.4 41 0 41 C0 27.47 0 13.94 0 0 Z " fill="#EC1935" transform="translate(195,43)"/>
<path d="M0 0 C4.20149435 1.84276068 5.56780514 3.28896975 7.9375 7.1875 C9.37781166 12.35567715 9.65255168 17.01269504 6.984375 21.8359375 C4.4470996 25.12797203 2.02722581 27.06343586 -2 28 C-7.63460206 28.44719064 -11.14906044 28.19721016 -16 25 C-19.40390898 21.3200984 -20.8690782 18.73471382 -21.25 13.6875 C-20.88534819 8.30888579 -19.41146428 5.37527289 -15.5625 1.625 C-10.35459502 -0.75053561 -5.63181029 -0.74936296 0 0 Z M-9.75 9.125 C-11.55091729 11.82637593 -11.33742066 13.82824583 -11 17 C-9.11340125 19.30662599 -9.11340125 19.30662599 -6 19.3125 C-5.01 19.209375 -4.02 19.10625 -3 19 C-0.84497469 15.76746204 -0.53143865 14.74849077 -1 11 C-2.14646548 9.10338257 -2.14646548 9.10338257 -4 8 C-7.78595012 7.63949494 -7.78595012 7.63949494 -9.75 9.125 Z " fill="#EC1A33" transform="translate(245,57)"/>
<path d="M0 0 C1.010625 -0.00773437 2.02125 -0.01546875 3.0625 -0.0234375 C7.55057578 0.58531746 10.02747182 2.11028682 12.78125 5.69140625 C14.95055393 10.46804663 14.74232022 15.24813421 14 20.375 C12.37352144 23.87561023 10.00436966 25.77780723 6.6875 27.75 C0.27607018 29.24103019 -4.58883742 28.84958971 -10.30078125 25.62890625 C-13.11035445 23.55563499 -13.99739425 21.69613155 -15 18.375 C-15.67561333 13.61149839 -15.48476979 10.34453959 -13.3125 6 C-9.33218546 1.48180512 -6.0141088 -0.04602634 0 0 Z M-5 10.375 C-5.41666667 13.875 -5.41666667 13.875 -5 17.375 C-4.34 18.035 -3.68 18.695 -3 19.375 C0.59679066 19.05173447 0.59679066 19.05173447 4 18.375 C5.18845297 13.74476382 5.18845297 13.74476382 3.8125 9.4375 C0.2654696 7.35820632 -1.77434741 8.22456494 -5 10.375 Z " fill="#EC1A33" transform="translate(316,56.625)"/>
<path d="M0 0 C0.66 0.33 1.32 0.66 2 1 C1.34 3.31 0.68 5.62 0 8 C-2.31 7.67 -4.62 7.34 -7 7 C-5.70162279 9.59675443 -4.66133077 9.60799146 -2 10.625 C1.73063072 12.41329157 1.73063072 12.41329157 2.85546875 14.86328125 C3.41957585 18.38729152 3.1850282 20.55203699 1.8125 23.875 C-0.53845163 26.63128812 -2.56596221 27.82555533 -6.18359375 28.265625 C-10.56259274 28.23526799 -14.01653112 28.05598394 -18 26 C-17.125 20.25 -17.125 20.25 -16 18 C-11.545 18.99 -11.545 18.99 -7 20 C-9.65750963 16.92137906 -9.65750963 16.92137906 -12.5625 16.0625 C-15 15 -15 15 -16.375 13.3125 C-17.31082528 9.84994647 -16.92405787 7.44981606 -16 4 C-11.92602084 -1.29617291 -6.12663126 -0.6018108 0 0 Z " fill="#EC1A33" transform="translate(273,57)"/>
<path d="M0 0 C0.66 0.33 1.32 0.66 2 1 C1.1875 3.9375 1.1875 3.9375 0 7 C-3.28976808 8.09658936 -4.71303767 7.79953138 -8 7 C-8 7.66 -8 8.32 -8 9 C-6.906875 9.268125 -5.81375 9.53625 -4.6875 9.8125 C-0.05191595 11.3053152 -0.05191595 11.3053152 2 14 C2.6228087 17.04671283 2.50943248 19.93786782 2 23 C-0.19831364 26.03215675 -1.44963194 26.81654398 -5 28 C-10.70388605 28.37402531 -13.97143045 28.01714173 -19 25 C-17.515 21.535 -17.515 21.535 -16 18 C-11.545 18.99 -11.545 18.99 -7 20 C-8.28163247 17.43673506 -9.42785129 17.17583941 -12 16 C-15.88888889 14.22222222 -15.88888889 14.22222222 -17 12 C-17.53801418 8.05456269 -17.10000323 6.19286338 -15.25 2.625 C-11.36056076 -1.69284125 -5.30865519 -0.6194738 0 0 Z " fill="#EC1A33" transform="translate(296,57)"/>
<path d="M0 0 C9.9 0 19.8 0 30 0 C30 4.29 30 8.58 30 13 C20.1 13 10.2 13 0 13 C0 8.71 0 4.42 0 0 Z " fill="#EB1A33" transform="translate(47,60)"/>
<path d="M0 0 C3.3 0 6.6 0 10 0 C10 0.66 10 1.32 10 2 C10.99 1.34 11.98 0.68 13 0 C16.1875 -0.125 16.1875 -0.125 19 0 C18.67 2.97 18.34 5.94 18 9 C15.69 9.33 13.38 9.66 11 10 C10.67 15.61 10.34 21.22 10 27 C6.7 27 3.4 27 0 27 C0 18.09 0 9.18 0 0 Z " fill="#D0CFD0" transform="translate(122,57)"/>
<path d="M0 0 C6.93 0 13.86 0 21 0 C16 10 16 10 13 13 C9.86497447 13.76202089 7.15745251 13.56834145 4 13 C3.54427083 11.07942708 3.08854167 9.15885417 2.6328125 7.23828125 C1.93432656 4.76771061 0.9535127 2.38378175 0 0 Z " fill="#EB1B34" transform="translate(168,60)"/>
<path d="M0 0 C1.4540625 0.0309375 1.4540625 0.0309375 2.9375 0.0625 C2.63070312 0.62453125 2.32390625 1.1865625 2.0078125 1.765625 C0.90792415 4.12596934 0.33654149 6.26715562 -0.1875 8.8125 C-0.47625 10.215 -0.765 11.6175 -1.0625 13.0625 C-4.6925 13.0625 -8.3225 13.0625 -12.0625 13.0625 C-12.10504356 11.06295254 -12.10330783 9.06208364 -12.0625 7.0625 C-11.0625 6.0625 -11.0625 6.0625 -7.5 6 C-6.365625 6.020625 -5.23125 6.04125 -4.0625 6.0625 C-4.083125 5.258125 -4.10375 4.45375 -4.125 3.625 C-4.03366838 -0.11959638 -3.80090148 0.07756942 0 0 Z " fill="#EA223A" transform="translate(144.0625,59.9375)"/>
<path d="M0 0 C3.5 0.25 3.5 0.25 5.5 2.25 C5.625 5.375 5.625 5.375 5.5 8.25 C1.87 8.25 -1.76 8.25 -5.5 8.25 C-5.625 5.375 -5.625 5.375 -5.5 2.25 C-3.5 0.25 -3.5 0.25 0 0 Z " fill="#EB1F38" transform="translate(157.5,64.75)"/>
<path d="M0 0 C3.5 0.25 3.5 0.25 5.5 2.25 C5.625 5.375 5.625 5.375 5.5 8.25 C1.87 8.25 -1.76 8.25 -5.5 8.25 C-5.625 5.375 -5.625 5.375 -5.5 2.25 C-3.5 0.25 -3.5 0.25 0 0 Z " fill="#EB1F38" transform="translate(104.5,64.75)"/>
<path d="M0 0 C3.375 -0.125 3.375 -0.125 7 0 C9 2 9 2 9.25 5.5 C9 9 9 9 7 11 C3.375 11.125 3.375 11.125 0 11 C0 7.37 0 3.74 0 0 Z M3 2 C3 4.31 3 6.62 3 9 C4.32 8.34 5.64 7.68 7 7 C6.73323796 5.01508358 6.73323796 5.01508358 6 3 C5.01 2.67 4.02 2.34 3 2 Z " fill="#D1D3D4" transform="translate(47,27)"/>
<path d="M0 0 C1.98 0 3.96 0 6 0 C8.11096433 3.47688243 8.11096433 3.47688243 7.5625 6.0625 C7.376875 6.701875 7.19125 7.34125 7 8 C7.33 8.99 7.66 9.98 8 11 C7.4225 10.814375 6.845 10.62875 6.25 10.4375 C3.69606643 9.7761831 3.69606643 9.7761831 0 11 C0 7.37 0 3.74 0 0 Z M3 2 C3.33 2.99 3.66 3.98 4 5 C4 4.01 4 3.02 4 2 C3.67 2 3.34 2 3 2 Z " fill="#D0D1D2" transform="translate(77,27)"/>
<path d="M0 0 C2.33294775 -0.04241723 4.66702567 -0.04092937 7 0 C8 1 8 1 8.09765625 3.72265625 C8.08605469 4.82480469 8.07445313 5.92695312 8.0625 7.0625 C8.05347656 8.16722656 8.04445313 9.27195312 8.03515625 10.41015625 C8.02355469 11.26480469 8.01195313 12.11945313 8 13 C6.68 13 5.36 13 4 13 C3.71125 11.783125 3.4225 10.56625 3.125 9.3125 C2.32164208 6.08185352 1.33734591 3.05679065 0 0 Z " fill="#E9273E" transform="translate(115,60)"/>
<path d="M0 0 C2.64 0 5.28 0 8 0 C7.69320312 0.56203125 7.38640625 1.1240625 7.0703125 1.703125 C5.97042415 4.06346934 5.39904149 6.20465562 4.875 8.75 C4.62363281 9.94882813 4.62363281 9.94882813 4.3671875 11.171875 C4.24601562 11.77515625 4.12484375 12.3784375 4 13 C2.68 13 1.36 13 0 13 C0 8.71 0 4.42 0 0 Z " fill="#EB1D35" transform="translate(86,60)"/>
<path d="M0 0 C0.99 0 1.98 0 3 0 C3.33 2.64 3.66 5.28 4 8 C4.66 8 5.32 8 6 8 C6.33 5.36 6.66 2.72 7 0 C7.99 0 8.98 0 10 0 C10.28571429 7.42857143 10.28571429 7.42857143 8 11 C5.125 11.1875 5.125 11.1875 2 11 C-0.67927341 6.98108988 -0.15601248 4.75838077 0 0 Z " fill="#CDCFD0" transform="translate(30,27)"/>
<path d="M0 0 C2.67901932 2.31881505 3.66204403 4.31814468 4.6875 7.6875 C5.06455078 8.89986328 5.06455078 8.89986328 5.44921875 10.13671875 C5.63097656 10.75160156 5.81273438 11.36648437 6 12 C5.01 12 4.02 12 3 12 C3 11.34 3 10.68 3 10 C1.35 10 -0.3 10 -2 10 C-2 10.66 -2 11.32 -2 12 C-2.99 12 -3.98 12 -5 12 C-3.68938409 7.76570244 -2.05643741 3.92592596 0 0 Z " fill="#D0D2D3" transform="translate(106,26)"/>
<path d="M0 0 C1.98 0 3.96 0 6 0 C5.79375 0.556875 5.5875 1.11375 5.375 1.6875 C4.89378932 4.65496587 5.85194736 6.27337498 7 9 C6.67 9.66 6.34 10.32 6 11 C4.02 11 2.04 11 0 11 C-0.33 9.68 -0.66 8.36 -1 7 C0.32 7.33 1.64 7.66 3 8 C1.68 7.01 0.36 6.02 -1 5 C-0.67 3.35 -0.34 1.7 0 0 Z " fill="#D3D4D5" transform="translate(1,27)"/>
<path d="M0 0 C2.31 0 4.62 0 7 0 C7 0.66 7 1.32 7 2 C5.68 2 4.36 2 3 2 C3 2.66 3 3.32 3 4 C4.32 4 5.64 4 7 4 C7 4.66 7 5.32 7 6 C5.68 6 4.36 6 3 6 C3 6.99 3 7.98 3 9 C4.32 9 5.64 9 7 9 C7 9.66 7 10.32 7 11 C4.69 11 2.38 11 0 11 C0 7.37 0 3.74 0 0 Z " fill="#D0D1D2" transform="translate(63,27)"/>
<path d="M0 0 C1.670625 0.061875 1.670625 0.061875 3.375 0.125 C3.375 1.115 3.375 2.105 3.375 3.125 C1.395 3.125 -0.585 3.125 -2.625 3.125 C-2.295 4.775 -1.965 6.425 -1.625 8.125 C0.025 8.125 1.675 8.125 3.375 8.125 C3.375 9.115 3.375 10.105 3.375 11.125 C-0 11.25 -0 11.25 -3.625 11.125 C-5.625 9.125 -5.625 9.125 -5.875 5.625 C-5.52784563 0.76483889 -4.87441969 0.16808344 0 0 Z " fill="#CFD1D2" transform="translate(19.625,26.875)"/>
<path d="M0 0 C0.99 0 1.98 0 3 0 C3 3.63 3 7.26 3 11 C2.01 11 1.02 11 0 11 C0 7.37 0 3.74 0 0 Z " fill="#CDCFD0" transform="translate(92,27)"/>
</svg>
