<?xml version="1.0" encoding="UTF-8"?>
<svg version="1.1" xmlns="http://www.w3.org/2000/svg" width="286" height="144">
<path d="M0 0 C93.72 0 187.44 0 284 0 C284 46.86 284 93.72 284 142 C190.28 142 96.56 142 0 142 C0 95.14 0 48.28 0 0 Z " fill="#F8F8F8" transform="translate(1,1)"/>
<path d="M0 0 C45.87 0 91.74 0 139 0 C139 46.86 139 93.72 139 142 C123.551875 142.0825 108.10375 142.165 92.1875 142.25 C87.30735107 142.28641602 82.42720215 142.32283203 77.39916992 142.36035156 C71.44592285 142.37841797 71.44592285 142.37841797 68.66011047 142.3817749 C66.71187184 142.3879226 64.76364855 142.40200207 62.81550598 142.42230225 C59.86656196 142.4514984 56.91854889 142.45562699 53.96948242 142.45410156 C53.09965068 142.468494 52.22981894 142.48288643 51.33362865 142.497715 C45.52999683 142.45741038 45.52999683 142.45741038 42.93940735 140.22161865 C42 138 42 138 42 134 C41.01 133.67 40.02 133.34 39 133 C36.32932205 130.2507727 35.0999271 128.63703525 34.5 124.8125 C34.335 123.884375 34.17 122.95625 34 122 C32.08333333 120.83333333 32.08333333 120.83333333 30 120 C29.30062468 118.68352881 28.63270867 117.34977849 28 116 C26.515 115.01 26.515 115.01 25 114 C23.8125 110.375 23.8125 110.375 23 107 C22.34 107 21.68 107 21 107 C21 106.34 21 105.68 21 105 C19.515 104.505 19.515 104.505 18 104 C17.34822643 102.42202188 16.70374081 100.8406893 16.09375 99.24609375 C14.15212675 95.25883171 11.33156088 91.8655525 8.64453125 88.35546875 C7 86 7 86 7 84 C5.68 83.34 4.36 82.68 3 82 C3 80.35 3 78.7 3 77 C3.99580078 76.65388672 3.99580078 76.65388672 5.01171875 76.30078125 C10.49080811 74.27711759 14.07949553 72.46501898 18 68 C19.02835532 67.12985319 20.07058969 66.27588478 21.125 65.4375 C27.25999159 60.23609408 29.24333389 54.94499413 30 47 C30.64907479 32.89737511 28.08634637 22.04305958 19 11 C18.37351563 10.15888672 18.37351563 10.15888672 17.734375 9.30078125 C13.17740096 3.85162856 6.65969544 2.67974514 0 1 C0 0.67 0 0.34 0 0 Z " fill="#FEFCFC" transform="translate(146,1)"/>
<path d="M0 0 C1.02246826 0.01047363 2.04493652 0.02094727 3.09838867 0.03173828 C13.9212221 0.2910398 22.21462451 1.444078 30.375 9.1875 C40.93019754 20.83934144 43.36236835 31.88409277 42.875 47.4375 C42.22923891 55.44493753 39.62157187 59.95213594 33.875 65.4375 C32.74618083 66.80936635 31.62143619 68.18459185 30.5 69.5625 C26.36759492 74.34312549 22.0784774 76.19680452 15.875 77.4375 C15.45513054 79.72586222 15.45513054 79.72586222 15.875 82.4375 C17.52563512 84.12004547 19.19539122 85.78387673 20.875 87.4375 C22.56208317 89.55607755 24.09715371 91.76481747 25.625 94 C26.02332031 94.56396484 26.42164063 95.12792969 26.83203125 95.70898438 C28.82668366 98.59953999 30.13452529 101.01682877 30.875 104.4375 C31.535 104.7675 32.195 105.0975 32.875 105.4375 C32.875 106.0975 32.875 106.7575 32.875 107.4375 C33.535 107.4375 34.195 107.4375 34.875 107.4375 C35.2875 108.51 35.7 109.5825 36.125 110.6875 C37.92601288 114.88986339 40.49434827 117.30049269 44 120.1875 C45.96348141 122.54367769 46.30764566 123.70476623 46.9375 126.625 C47.246875 127.883125 47.55625 129.14125 47.875 130.4375 C48.865 130.7675 49.855 131.0975 50.875 131.4375 C54.50515338 134.3416227 55.4483171 138.15745131 56.875 142.4375 C47.965 142.4375 39.055 142.4375 29.875 142.4375 C27.895 138.9725 27.895 138.9725 25.875 135.4375 C23.99484807 132.54844006 21.99578984 129.74769274 20 126.9375 C19.49597656 126.21691406 18.99195313 125.49632813 18.47265625 124.75390625 C16.03718679 121.3093676 13.55236464 118.00094477 10.765625 114.83203125 C7.94449681 111.60880698 5.72579035 108.28774696 3.5 104.625 C2.81164062 103.50480469 2.12328125 102.38460937 1.4140625 101.23046875 C-0.125 98.4375 -0.125 98.4375 -0.125 96.4375 C-1.61 95.9425 -1.61 95.9425 -3.125 95.4375 C-4.66015625 93.07421875 -4.66015625 93.07421875 -6.1875 90.125 C-6.69410156 89.15949219 -7.20070313 88.19398437 -7.72265625 87.19921875 C-8.18542969 86.28785156 -8.64820312 85.37648438 -9.125 84.4375 C-9.51171875 83.78265625 -9.8984375 83.1278125 -10.296875 82.453125 C-11.41603734 79.7291261 -11.35321129 77.43491406 -11.3125 74.5 C-11.30605469 73.48035156 -11.29960938 72.46070312 -11.29296875 71.41015625 C-10.88663708 64.21903058 -10.88663708 64.21903058 -8.03125 61.2890625 C-4.70529699 59.17010856 -1.37026025 57.93978625 2.375 56.8125 C10.41162397 54.87918852 10.41162397 54.87918852 16.5625 50.0625 C16.995625 49.19625 17.42875 48.33 17.875 47.4375 C18.266875 46.81875 18.65875 46.2 19.0625 45.5625 C20.74430265 41.16393923 20.31393009 35.87420112 18.875 31.4375 C17.04166667 29.27083333 17.04166667 29.27083333 14.875 27.4375 C14.359375 26.880625 13.84375 26.32375 13.3125 25.75 C9.80732664 22.54962433 5.10733632 23.23237645 0.66796875 23.28515625 C-4.01985247 23.54085559 -7.56238195 24.29721115 -11.4375 27.125 C-15.14615993 32.20723769 -15.37835435 38.02071321 -15.41210938 44.12939453 C-15.41894241 44.86365662 -15.42577545 45.5979187 -15.43281555 46.35443115 C-15.44632328 47.93614814 -15.45542783 49.51790778 -15.46052551 51.09967422 C-15.46886656 53.60532827 -15.4894166 56.11062688 -15.51306152 58.61618042 C-15.56925917 64.83453843 -15.60467858 71.05298266 -15.64068604 77.27148438 C-15.67196467 82.53771196 -15.71117027 87.80376465 -15.76094055 93.06985092 C-15.7809576 95.53431318 -15.78931603 97.99863884 -15.79724121 100.46316528 C-15.81021563 101.97691341 -15.82373623 103.49065698 -15.83789062 105.00439453 C-15.84518188 106.32230988 -15.85247314 107.64022522 -15.85998535 108.99807739 C-16.19140608 113.29933377 -16.81804745 116.25702673 -20.0625 119.1875 C-24.60706439 121.94178145 -28.9781118 121.86856266 -34.125 121.4375 C-41.55251268 119.61319864 -44.77733349 114.44055418 -49.125 108.4375 C-49.65867187 107.73109375 -50.19234375 107.0246875 -50.7421875 106.296875 C-54.125 101.74823446 -54.125 101.74823446 -54.125 99.4375 C-54.785 99.4375 -55.445 99.4375 -56.125 99.4375 C-56.5271875 98.2309375 -56.5271875 98.2309375 -56.9375 97 C-57.5253125 95.7315625 -57.5253125 95.7315625 -58.125 94.4375 C-59.115 94.1075 -60.105 93.7775 -61.125 93.4375 C-61.74839672 91.87900821 -62.36688123 90.31842627 -62.96484375 88.75 C-65.1215045 84.45120146 -68.2982794 80.77864246 -71.26171875 77.01171875 C-73.125 74.4375 -73.125 74.4375 -73.125 72.4375 C-74.115 72.1075 -75.105 71.7775 -76.125 71.4375 C-76.8420499 69.77906002 -77.55138034 68.11659661 -78.20996094 66.43408203 C-80.16469055 62.16893296 -83.37259613 58.61088205 -86.2734375 54.95507812 C-89.25401292 51.06510671 -90.56803179 48.42050895 -91.125 43.4375 C-93.07663118 42.00112302 -93.07663118 42.00112302 -95.125 41.4375 C-95.125 40.7775 -95.125 40.1175 -95.125 39.4375 C-95.785 39.4375 -96.445 39.4375 -97.125 39.4375 C-97.393125 38.633125 -97.66125 37.82875 -97.9375 37 C-98.329375 36.154375 -98.72125 35.30875 -99.125 34.4375 C-100.61 33.9425 -100.61 33.9425 -102.125 33.4375 C-102.81758229 31.44632592 -103.48247635 29.4453864 -104.125 27.4375 C-105.1191522 26.43168619 -106.12030524 25.4327831 -107.125 24.4375 C-108.39323308 22.6098322 -109.61979245 20.75282678 -110.8125 18.875 C-111.43511719 17.90433594 -112.05773437 16.93367188 -112.69921875 15.93359375 C-114.125 13.4375 -114.125 13.4375 -114.125 11.4375 C-115.115 11.1075 -116.105 10.7775 -117.125 10.4375 C-119.2769437 7.20958445 -119.32586443 6.15349191 -119.125 2.4375 C-115.06287788 2.29202455 -111.00142713 2.20336774 -106.9375 2.125 C-105.21176758 2.0621582 -105.21176758 2.0621582 -103.45117188 1.99804688 C-94.89195963 1.87400032 -94.89195963 1.87400032 -90.9296875 4.78515625 C-89.22740277 7.28699897 -87.64940692 9.824231 -86.125 12.4375 C-85.465 12.7675 -84.805 13.0975 -84.125 13.4375 C-83.5 16.5 -83.5 16.5 -83.125 19.4375 C-82.465 19.4375 -81.805 19.4375 -81.125 19.4375 C-79.06726191 22.40064285 -77.98975065 24.97849741 -77.125 28.4375 C-76.465 28.7675 -75.805 29.0975 -75.125 29.4375 C-75.00125 30.035625 -74.8775 30.63375 -74.75 31.25 C-74.28663352 33.56389344 -74.28663352 33.56389344 -72.375 35.125 C-70.20321279 37.35711464 -69.07063042 39.21132659 -67.625 41.9375 C-65.78552666 45.37602919 -63.97860186 47.75684371 -61.125 50.4375 C-57.28682412 54.93567966 -54.74745591 59.03528063 -52.8984375 64.63671875 C-51.66909126 67.49898448 -49.33318206 69.28317604 -47.125 71.4375 C-46.07109776 73.41406382 -45.16539634 75.40192235 -44.3125 77.47265625 C-42.7203546 80.10702841 -40.54179248 81.56725872 -38.125 83.4375 C-38.12944122 82.87088654 -38.13388245 82.30427307 -38.13845825 81.7204895 C-38.18296784 75.78243552 -38.21298025 69.84442953 -38.23486328 63.90625 C-38.24487347 61.69496737 -38.25848568 59.48369782 -38.27587891 57.27246094 C-38.30034738 54.08004513 -38.31153325 50.88780551 -38.3203125 47.6953125 C-38.33063507 46.71885773 -38.34095764 45.74240295 -38.35159302 44.73635864 C-38.3536417 31.98523836 -35.85748638 20.79068904 -26.98046875 11.2890625 C-18.51877863 2.84518646 -12.03520444 -0.12771011 0 0 Z " fill="#070707" transform="translate(134.125,0.5625)"/>
<path d="M0 0 C27.39 0 54.78 0 83 0 C82 2 82 2 78.9375 3.1875 C71.47909464 6.21987014 64.1169554 13.28691349 60.84375 20.57421875 C57.46110873 29.42949036 56.84181248 37.57406886 56.68359375 46.96484375 C56.66281265 47.99815323 56.64203156 49.03146271 56.62062073 50.09608459 C56.55556522 53.37649284 56.49644596 56.65697685 56.4375 59.9375 C56.39427289 62.16992951 56.35065729 64.40235154 56.30664062 66.63476562 C56.19992929 72.08976511 56.09808356 77.54483892 56 83 C55.01 82.67 54.02 82.34 53 82 C53 81.34 53 80.68 53 80 C52.01 79.67 51.02 79.34 50 79 C48.53515625 76.63671875 48.53515625 76.63671875 47.0625 73.6875 C45.09295742 69.75366695 43.13721563 67.0595938 40 64 C39.28990252 62.32158778 38.58295213 60.64123931 37.92578125 58.94140625 C36.45934388 55.86621901 34.33901262 53.33955577 32.20703125 50.69921875 C31 49 31 49 31 47 C29.515 46.505 29.515 46.505 28 46 C26.5 43.56640625 26.5 43.56640625 25 40.5625 C22.80506226 36.10729392 22.80506226 36.10729392 19 33 C19 31.68 19 30.36 19 29 C18.01 28.67 17.02 28.34 16 28 C15.05078125 25.93359375 15.05078125 25.93359375 14.3125 23.4375 C14.06113281 22.61121094 13.80976562 21.78492187 13.55078125 20.93359375 C13.36902344 20.29550781 13.18726563 19.65742188 13 19 C12.34 19 11.68 19 11 19 C10.87625 17.576875 10.87625 17.576875 10.75 16.125 C10.5025 15.09375 10.255 14.0625 10 13 C8.11683841 11.89163577 8.11683841 11.89163577 6 11 C3 6.71428571 3 6.71428571 3 4 C2.01 3.67 1.02 3.34 0 3 C0 2.01 0 1.02 0 0 Z " fill="#F8F8F8" transform="translate(40,1)"/>
<path d="M0 0 C2.5 0.125 2.5 0.125 3.5 1.125 C3.57258946 3.31139453 3.58373783 5.50000389 3.5625 7.6875 C3.55347656 8.88503906 3.54445313 10.08257812 3.53515625 11.31640625 C3.52355469 12.24324219 3.51195312 13.17007813 3.5 14.125 C4.82 14.125 6.14 14.125 7.5 14.125 C7.5 13.465 7.5 12.805 7.5 12.125 C9.48 12.125 11.46 12.125 13.5 12.125 C13.995 14.105 13.995 14.105 14.5 16.125 C12.85 16.455 11.2 16.785 9.5 17.125 C9.005 18.61 9.005 18.61 8.5 20.125 C6.57421875 20.96875 6.57421875 20.96875 4.1875 21.625 C0.69503444 22.67107922 -1.64687053 23.82054927 -4.5 26.125 C-5.49 26.125 -6.48 26.125 -7.5 26.125 C-7.995 27.61 -7.995 27.61 -8.5 29.125 C-9.82 29.125 -11.14 29.125 -12.5 29.125 C-12.5 29.785 -12.5 30.445 -12.5 31.125 C-16.13 32.775 -19.76 34.425 -23.5 36.125 C-23.5 46.685 -23.5 57.245 -23.5 68.125 C-25.15 67.795 -26.8 67.465 -28.5 67.125 C-28.5 58.545 -28.5 49.965 -28.5 41.125 C-32.26307784 42.37935928 -33.75034622 44.27900798 -36.5 47.125 C-38.9534959 49.38898449 -41.42182087 51.63404033 -43.90063477 53.87011719 C-47.72053409 57.34136793 -51.27136724 60.98149789 -54.68359375 64.859375 C-56.5 66.125 -56.5 66.125 -59.22265625 65.828125 C-59.97417969 65.59609375 -60.72570312 65.3640625 -61.5 65.125 C-61.9375 63.0625 -61.9375 63.0625 -61.5 60.125 C-55.21751416 51.74835222 -45.19579563 45.45715082 -36.62890625 39.66796875 C-34.71115428 38.27803842 -33.11285923 36.85195217 -31.5 35.125 C-32.304375 34.980625 -33.10875 34.83625 -33.9375 34.6875 C-36.5 34.125 -36.5 34.125 -37.5 33.125 C-37.65272417 31.04560164 -37.72195322 28.95981069 -37.75 26.875 C-37.77578125 25.73546875 -37.8015625 24.5959375 -37.828125 23.421875 C-37.46934156 19.81695563 -36.70811633 17.96997257 -34.5 15.125 C-31.8125 14.3125 -31.8125 14.3125 -29.5 14.125 C-29.64308594 14.67671875 -29.78617188 15.2284375 -29.93359375 15.796875 C-30.5455309 18.31214769 -31.06126811 20.83542508 -31.5625 23.375 C-31.73910156 24.26703125 -31.91570312 25.1590625 -32.09765625 26.078125 C-32.23042969 26.75359375 -32.36320312 27.4290625 -32.5 28.125 C-31.51 27.795 -30.52 27.465 -29.5 27.125 C-28.84 21.845 -28.18 16.565 -27.5 11.125 C-25.85 11.125 -24.2 11.125 -22.5 11.125 C-22.5 17.065 -22.5 23.005 -22.5 29.125 C-21.84 28.795 -21.18 28.465 -20.5 28.125 C-20.51160156 27.50753906 -20.52320313 26.89007813 -20.53515625 26.25390625 C-20.6633969 14.2176053 -20.6633969 14.2176053 -19.5 9.125 C-18.84 8.465 -18.18 7.805 -17.5 7.125 C-16.51 7.125 -15.52 7.125 -14.5 7.125 C-14.5 12.735 -14.5 18.345 -14.5 24.125 C-13.51 23.795 -12.52 23.465 -11.5 23.125 C-11.52320313 21.84882812 -11.54640625 20.57265625 -11.5703125 19.2578125 C-11.58906829 17.5885475 -11.60726869 15.9192762 -11.625 14.25 C-11.64175781 13.40824219 -11.65851563 12.56648438 -11.67578125 11.69921875 C-11.68544922 10.49072266 -11.68544922 10.49072266 -11.6953125 9.2578125 C-11.71102295 8.14237061 -11.71102295 8.14237061 -11.72705078 7.00439453 C-11.5 5.125 -11.5 5.125 -9.5 3.125 C-7.50827818 2.43399447 -5.50838196 1.76597297 -3.5 1.125 C-2.5 0.125 -2.5 0.125 0 0 Z " fill="#F8433C" transform="translate(253.5,57.875)"/>
<path d="M0 0 C2.625 0.375 2.625 0.375 5 1 C5.375 3.6875 5.375 3.6875 5 7 C3.52864939 8.27943531 2.04805844 9.55571004 0.46875 10.69921875 C-1.81334898 12.72033301 -2.32708178 15.10645164 -3 18 C-3.66 18 -4.32 18 -5 18 C-5.1340625 18.70382813 -5.268125 19.40765625 -5.40625 20.1328125 C-6.01561846 23.07542071 -6.7445878 25.96666302 -7.5 28.875 C-8.60791913 33.25263168 -9.49045018 37.51596159 -10 42 C-6.535 41.505 -6.535 41.505 -3 41 C-2.92207755 45.83119165 -2.96165684 50.61691497 -3.3125 55.4375 C-3.37050781 56.26121094 -3.42851562 57.08492187 -3.48828125 57.93359375 C-4 60 -4 60 -7 62 C-7.99 62 -8.98 62 -10 62 C-10 60.02 -10 58.04 -10 56 C-10.99 56.495 -10.99 56.495 -12 57 C-12.40729228 59.32156597 -12.74438677 61.6568787 -13 64 C-13.66 64 -14.32 64 -15 64 C-15.33 67.63 -15.66 71.26 -16 75 C-18.475 75.495 -18.475 75.495 -21 76 C-21 75.34 -21 74.68 -21 74 C-21.66 74 -22.32 74 -23 74 C-23.05534912 73.44127197 -23.11069824 72.88254395 -23.16772461 72.30688477 C-23.42377135 69.72536879 -23.6806318 67.14393436 -23.9375 64.5625 C-24.02451172 63.68400391 -24.11152344 62.80550781 -24.20117188 61.90039062 C-24.7629026 56.2622785 -25.36423385 50.63025339 -26 45 C-26.99 45 -27.98 45 -29 45 C-29.33 46.98 -29.66 48.96 -30 51 C-31.32 51 -32.64 51 -34 51 C-30.71 35.565 -30.71 35.565 -27 30 C-25.35 30.33 -23.7 30.66 -22 31 C-21.91697632 31.82407349 -21.91697632 31.82407349 -21.83227539 32.66479492 C-21.57818747 35.17262423 -21.32037701 37.68005761 -21.0625 40.1875 C-20.97548828 41.05181641 -20.88847656 41.91613281 -20.79882812 42.80664062 C-20.25434162 48.96714141 -20.25434162 48.96714141 -19 55 C-18.34 55.33 -17.68 55.66 -17 56 C-17.04125 54.72125 -17.0825 53.4425 -17.125 52.125 C-17.10870445 46.86968595 -16.21376077 42.0991514 -15 37 C-14.69707031 35.72125 -14.39414063 34.4425 -14.08203125 33.125 C-12.35543533 25.97568243 -10.48586091 18.92805022 -8 12 C-7.608125 10.824375 -7.21625 9.64875 -6.8125 8.4375 C-6.544375 7.633125 -6.27625 6.82875 -6 6 C-5.34 6 -4.68 6 -4 6 C-3.566875 5.071875 -3.566875 5.071875 -3.125 4.125 C-2 2 -2 2 0 0 Z " fill="#FB6661" transform="translate(205,41)"/>
<path d="M0 0 C2.5 0.125 2.5 0.125 3.5 1.125 C3.57258946 3.31139453 3.58373783 5.50000389 3.5625 7.6875 C3.55347656 8.88503906 3.54445313 10.08257812 3.53515625 11.31640625 C3.52355469 12.24324219 3.51195312 13.17007813 3.5 14.125 C4.82 14.125 6.14 14.125 7.5 14.125 C7.5 13.465 7.5 12.805 7.5 12.125 C9.48 12.125 11.46 12.125 13.5 12.125 C13.995 14.105 13.995 14.105 14.5 16.125 C12.85 16.455 11.2 16.785 9.5 17.125 C9.005 18.61 9.005 18.61 8.5 20.125 C6.57421875 20.96875 6.57421875 20.96875 4.1875 21.625 C0.69503444 22.67107922 -1.64687053 23.82054927 -4.5 26.125 C-5.49 26.125 -6.48 26.125 -7.5 26.125 C-7.83 27.115 -8.16 28.105 -8.5 29.125 C-9.82 29.125 -11.14 29.125 -12.5 29.125 C-12.5 29.785 -12.5 30.445 -12.5 31.125 C-14.46466413 32.19275224 -16.46855359 33.19053465 -18.5 34.125 C-19.16 33.795 -19.82 33.465 -20.5 33.125 C-19.84 32.135 -19.18 31.145 -18.5 30.125 C-20.15 30.125 -21.8 30.125 -23.5 30.125 C-23.5 24.185 -23.5 18.245 -23.5 12.125 C-24.82 12.455 -26.14 12.785 -27.5 13.125 C-27.5 12.465 -27.5 11.805 -27.5 11.125 C-25.85 11.125 -24.2 11.125 -22.5 11.125 C-22.5 17.065 -22.5 23.005 -22.5 29.125 C-21.84 28.795 -21.18 28.465 -20.5 28.125 C-20.51160156 27.50753906 -20.52320313 26.89007813 -20.53515625 26.25390625 C-20.6633969 14.2176053 -20.6633969 14.2176053 -19.5 9.125 C-18.84 8.465 -18.18 7.805 -17.5 7.125 C-16.51 7.125 -15.52 7.125 -14.5 7.125 C-14.5 12.735 -14.5 18.345 -14.5 24.125 C-13.51 23.795 -12.52 23.465 -11.5 23.125 C-11.52320313 21.84882812 -11.54640625 20.57265625 -11.5703125 19.2578125 C-11.58906829 17.5885475 -11.60726869 15.9192762 -11.625 14.25 C-11.64175781 13.40824219 -11.65851563 12.56648438 -11.67578125 11.69921875 C-11.68222656 10.89355469 -11.68867188 10.08789062 -11.6953125 9.2578125 C-11.70578613 8.51418457 -11.71625977 7.77055664 -11.72705078 7.00439453 C-11.5 5.125 -11.5 5.125 -9.5 3.125 C-7.50827818 2.43399447 -5.50838196 1.76597297 -3.5 1.125 C-2.5 0.125 -2.5 0.125 0 0 Z " fill="#FB6B65" transform="translate(253.5,57.875)"/>
<path d="M0 0 C1.32 0.33 2.64 0.66 4 1 C4.33 2.65 4.66 4.3 5 6 C5.66 5.67 6.32 5.34 7 5 C7.65555119 2.47266765 7.65555119 2.47266765 8 0 C12.52065428 -0.049377 17.04115217 -0.08570823 21.56201172 -0.10986328 C23.10045098 -0.11993118 24.63887107 -0.13358646 26.17724609 -0.15087891 C28.38644133 -0.17509317 30.59538395 -0.18647491 32.8046875 -0.1953125 C33.49432587 -0.20563507 34.18396423 -0.21595764 34.89450073 -0.22659302 C36.59800906 -0.22699478 38.30085943 -0.12191026 40 0 C42 2 42 2 42.1953125 4.6015625 C42.17210937 5.59929687 42.14890625 6.59703125 42.125 7.625 C42.10695312 8.62789062 42.08890625 9.63078125 42.0703125 10.6640625 C42.04710937 11.43492187 42.02390625 12.20578125 42 13 C36.64323369 13.12353289 31.28729474 13.21430573 25.92944336 13.2746582 C24.10670533 13.29981397 22.28406828 13.33394285 20.46166992 13.37719727 C17.84268307 13.43780546 15.22502847 13.46619761 12.60546875 13.48828125 C11.78974899 13.51408768 10.97402924 13.5398941 10.1335907 13.56648254 C7.82885742 13.56762695 7.82885742 13.56762695 4 13 C0.58876541 8.93441954 0.43359464 5.1164167 0 0 Z " fill="#8A8A8A" transform="translate(13,130)"/>
<path d="M0 0 C2.76349999 0.4115851 4.57546524 0.98394015 6.9375 2.4375 C6.9375 1.7775 6.9375 1.1175 6.9375 0.4375 C8.2575 0.7675 9.5775 1.0975 10.9375 1.4375 C10.9375 5.7275 10.9375 10.0175 10.9375 14.4375 C-2.5925 14.4375 -16.1225 14.4375 -30.0625 14.4375 C-30.0625 2.4375 -30.0625 2.4375 -29.0625 1.4375 C-23.32638889 1.16435185 -23.32638889 1.16435185 -21.0625 1.4375 C-19.0625 3.4375 -19.0625 3.4375 -19.0625 7.4375 C-19.7225 7.4375 -20.3825 7.4375 -21.0625 7.4375 C-21.0625 8.7575 -21.0625 10.0775 -21.0625 11.4375 C-20.0725 11.4375 -19.0825 11.4375 -18.0625 11.4375 C-17.0725 8.1375 -16.0825 4.8375 -15.0625 1.4375 C-12.5875 1.9325 -12.5875 1.9325 -10.0625 2.4375 C-9.0725 3.9225 -9.0725 3.9225 -8.0625 5.4375 C-7.36125 4.6125 -6.66 3.7875 -5.9375 2.9375 C-3.0625 0.4375 -3.0625 0.4375 0 0 Z " fill="#AFAFAE" transform="translate(110.0625,128.5625)"/>
<path d="M0 0 C0 0.66 0 1.32 0 2 C1.65 2 3.3 2 5 2 C5 10.58 5 19.16 5 28 C5.99 28 6.98 28 8 28 C8 25.36 8 22.72 8 20 C8.33 20 8.66 20 9 20 C9 23.3 9 26.6 9 30 C7.35 29.67 5.7 29.34 4 29 C4 20.42 4 11.84 4 3 C0.23692216 4.25435928 -1.25034622 6.15400798 -4 9 C-6.4534959 11.26398449 -8.92182087 13.50904033 -11.40063477 15.74511719 C-15.22053409 19.21636793 -18.77136724 22.85649789 -22.18359375 26.734375 C-24 28 -24 28 -26.72265625 27.703125 C-27.47417969 27.47109375 -28.22570312 27.2390625 -29 27 C-29.4375 24.9375 -29.4375 24.9375 -29 22 C-24.0003341 15.3337788 -8.44392061 0 0 0 Z " fill="#FC8985" transform="translate(221,96)"/>
<path d="M0 0 C1.65 0.33 3.3 0.66 5 1 C5.08302368 1.82407349 5.08302368 1.82407349 5.16772461 2.66479492 C5.42181253 5.17262423 5.67962299 7.68005761 5.9375 10.1875 C6.02451172 11.05181641 6.11152344 11.91613281 6.20117188 12.80664062 C6.74565838 18.96714141 6.74565838 18.96714141 8 25 C8.66 25.33 9.32 25.66 10 26 C10 26.66 10 27.32 10 28 C8.68 28 7.36 28 6 28 C6 33.28 6 38.56 6 44 C5.34 44 4.68 44 4 44 C3.94465088 43.44127197 3.88930176 42.88254395 3.83227539 42.30688477 C3.57622865 39.72536879 3.3193682 37.14393436 3.0625 34.5625 C2.97548828 33.68400391 2.88847656 32.80550781 2.79882812 31.90039062 C2.2370974 26.2622785 1.63576615 20.63025339 1 15 C0.01 15 -0.98 15 -2 15 C-2.33 16.98 -2.66 18.96 -3 21 C-4.32 21 -5.64 21 -7 21 C-3.71 5.565 -3.71 5.565 0 0 Z " fill="#FA706B" transform="translate(178,71)"/>
<path d="M0 0 C0.33 1.32 0.66 2.64 1 4 C4.465 3.505 4.465 3.505 8 3 C8.07792245 7.83119165 8.03834316 12.61691497 7.6875 17.4375 C7.62949219 18.26121094 7.57148438 19.08492187 7.51171875 19.93359375 C7 22 7 22 4 24 C3.01 24 2.02 24 1 24 C1 22.02 1 20.04 1 18 C0.34 18.33 -0.32 18.66 -1 19 C-1.40729228 21.32156597 -1.74438677 23.6568787 -2 26 C-2.66 26 -3.32 26 -4 26 C-4.33 27.32 -4.66 28.64 -5 30 C-5 27.36 -5 24.72 -5 22 C-4.34 22 -3.68 22 -3 22 C-3.03480469 21.33355469 -3.06960937 20.66710937 -3.10546875 19.98046875 C-3.31564367 12.8245132 -2.2078413 6.79436875 0 0 Z " fill="#FDB9B7" transform="translate(194,79)"/>
<path d="M0 0 C0.99 0 1.98 0 3 0 C3 5.61 3 11.22 3 17 C3.99 17.33 4.98 17.66 6 18 C5.34 18.66 4.68 19.32 4 20 C4.721875 19.690625 5.44375 19.38125 6.1875 19.0625 C8.80307309 18.07439461 11.25118982 17.4712246 14 17 C13.67 17.66 13.34 18.32 13 19 C12.01 19 11.02 19 10 19 C9.67 19.99 9.34 20.98 9 22 C7.68 22 6.36 22 5 22 C5 22.66 5 23.32 5 24 C3.03533587 25.06775224 1.03144641 26.06553465 -1 27 C-1.66 26.67 -2.32 26.34 -3 26 C-2.34 25.01 -1.68 24.02 -1 23 C-2.65 23 -4.3 23 -6 23 C-6 17.06 -6 11.12 -6 5 C-7.32 5.33 -8.64 5.66 -10 6 C-10 5.34 -10 4.68 -10 4 C-8.35 4 -6.7 4 -5 4 C-5 9.94 -5 15.88 -5 22 C-4.34 21.67 -3.68 21.34 -3 21 C-3.01160156 20.38253906 -3.02320313 19.76507813 -3.03515625 19.12890625 C-3.1633969 7.0926053 -3.1633969 7.0926053 -2 2 C-1.34 1.34 -0.68 0.68 0 0 Z " fill="#FD9491" transform="translate(236,65)"/>
<path d="M0 0 C3.5 -0.3125 3.5 -0.3125 7 0 C9 2 9 2 9.1953125 4.6015625 C9.17210937 5.59929687 9.14890625 6.59703125 9.125 7.625 C9.10695313 8.62789062 9.08890625 9.63078125 9.0703125 10.6640625 C9.03550781 11.82035156 9.03550781 11.82035156 9 13 C7.54257537 13.08096803 6.08387193 13.13917774 4.625 13.1875 C3.81289063 13.22230469 3.00078125 13.25710937 2.1640625 13.29296875 C1.44992188 13.19628906 0.73578125 13.09960938 0 13 C-2.45811625 9.31282562 -2.31118164 7.35654296 -2 3 C-1.34 2.01 -0.68 1.02 0 0 Z " fill="#6C6C6C" transform="translate(46,130)"/>
<path d="M0 0 C1.32 0.33 2.64 0.66 4 1 C4 5.29 4 9.58 4 14 C1.36 14 -1.28 14 -4 14 C-3.34 12.68 -2.68 11.36 -2 10 C-4.31 10.33 -6.62 10.66 -9 11 C-9 8.69 -9 6.38 -9 4 C-7.68 4 -6.36 4 -5 4 C-5 4.66 -5 5.32 -5 6 C-4.01 6 -3.02 6 -2 6 C-2.66 4.35 -3.32 2.7 -4 1 C-2.68 1.33 -1.36 1.66 0 2 C0 1.34 0 0.68 0 0 Z " fill="#C8C8C8" transform="translate(117,129)"/>
<path d="M0 0 C0.33 0 0.66 0 1 0 C1.16311941 8.71782637 0.65655389 17.31238511 0 26 C-1.65 26.33 -3.3 26.66 -5 27 C-5.88277755 22.48184719 -6.10589503 18.22487306 -6.0625 13.625 C-6.05347656 12.37976563 -6.04445312 11.13453125 -6.03515625 9.8515625 C-6.02355469 8.91054687 -6.01195312 7.96953125 -6 7 C-5.67 7.66 -5.34 8.32 -5 9 C-3.68 9 -2.36 9 -1 9 C-1.020625 7.88625 -1.04125 6.7725 -1.0625 5.625 C-1 2 -1 2 0 0 Z " fill="#F9504A" transform="translate(189,90)"/>
<path d="M0 0 C-0.63218391 4.67816092 -0.63218391 4.67816092 -2.5 6.3125 C-4.60701479 8.68289164 -4.50373039 10.56341663 -4.6875 13.6875 C-4.75324219 14.68136719 -4.81898438 15.67523438 -4.88671875 16.69921875 C-4.92410156 17.45847656 -4.96148437 18.21773437 -5 19 C-6.65 19 -8.3 19 -10 19 C-10 13.39 -10 7.78 -10 2 C-6.00889681 0.0044484 -4.30013434 -0.19546065 0 0 Z " fill="#FA5E59" transform="translate(215,77)"/>
<path d="M0 0 C0.97854084 3.24988509 1.09161558 6.11728983 1.02172852 9.50292969 C1.00163223 10.60376892 0.98153595 11.70460815 0.96083069 12.83880615 C0.93379562 14.02121887 0.90676056 15.20363159 0.87890625 16.421875 C0.85529526 17.63699768 0.83168427 18.85212036 0.80735779 20.10406494 C0.7307682 23.98616351 0.64672307 27.86806026 0.5625 31.75 C0.50927464 34.38150053 0.45653427 37.01301092 0.40429688 39.64453125 C0.27515932 46.09647912 0.13989974 52.54827701 0 59 C-1.65 58.67 -3.3 58.34 -5 58 C-4.67 57.34 -4.34 56.68 -4 56 C-3.34 56.33 -2.68 56.66 -2 57 C-2.00444122 56.43338654 -2.00888245 55.86677307 -2.01345825 55.2829895 C-2.05796784 49.34493552 -2.08798025 43.40692953 -2.10986328 37.46875 C-2.11987347 35.25746737 -2.13348568 33.04619782 -2.15087891 30.83496094 C-2.17534738 27.64254513 -2.18653325 24.45030551 -2.1953125 21.2578125 C-2.20563507 20.28135773 -2.21595764 19.30490295 -2.22659302 18.29885864 C-2.22760935 11.9731567 -1.47824625 6.15047236 0 0 Z " fill="#2F2F2F" transform="translate(98,27)"/>
<path d="M0 0 C2.125 0.375 2.125 0.375 4 1 C3.2733313 1.52364136 3.2733313 1.52364136 2.53198242 2.05786133 C0.24120397 4.9619478 0.5629392 7.41597904 0.48828125 11.07421875 C0.47033005 11.7580513 0.45237885 12.44188385 0.43388367 13.1464386 C0.37977925 15.32673 0.3458866 17.50680256 0.3125 19.6875 C0.2793268 21.16734817 0.24483713 22.64716745 0.20898438 24.12695312 C0.12405476 27.75109169 0.05724365 31.37530652 0 35 C-1.99954746 35.04254356 -4.00041636 35.04080783 -6 35 C-7.74506615 33.25493385 -7.23282784 30.80960857 -7.31640625 28.43359375 C-7.35830078 27.30888672 -7.40019531 26.18417969 -7.44335938 25.02539062 C-7.48267578 23.84138672 -7.52199219 22.65738281 -7.5625 21.4375 C-7.62727539 19.65569336 -7.62727539 19.65569336 -7.69335938 17.83789062 C-7.79983546 14.89205216 -7.90184841 11.9461257 -8 9 C-8.66 8.67 -9.32 8.34 -10 8 C-8.68 7.67 -7.36 7.34 -6 7 C-5.67 15.58 -5.34 24.16 -5 33 C-3.68 33.33 -2.36 33.66 -1 34 C-1.07001221 33.41154297 -1.14002441 32.82308594 -1.2121582 32.21679688 C-1.94024455 25.62990076 -2.18303624 19.12421313 -2.1875 12.5 C-2.19974609 11.51257813 -2.21199219 10.52515625 -2.22460938 9.5078125 C-2.22654297 8.56679687 -2.22847656 7.62578125 -2.23046875 6.65625 C-2.23457764 5.80869141 -2.23868652 4.96113281 -2.24291992 4.08789062 C-2 2 -2 2 0 0 Z " fill="#FEC2C0" transform="translate(231,92)"/>
<path d="M0 0 C-0.14308594 0.55171875 -0.28617188 1.1034375 -0.43359375 1.671875 C-1.0455309 4.18714769 -1.56126811 6.71042508 -2.0625 9.25 C-2.23910156 10.14203125 -2.41570312 11.0340625 -2.59765625 11.953125 C-2.73042969 12.62859375 -2.86320313 13.3040625 -3 14 C0.11332248 13.33131686 0.11332248 13.33131686 1.1875 10.9375 C1.455625 10.298125 1.72375 9.65875 2 9 C2.125 11.375 2.125 11.375 2 14 C1.34 14.66 0.68 15.32 0 16 C-2.625 15.625 -2.625 15.625 -5 15 C-5.33 13.02 -5.66 11.04 -6 9 C-6.33 11.97 -6.66 14.94 -7 18 C-4.36 18 -1.72 18 1 18 C0.625 19.9375 0.625 19.9375 0 22 C-0.66 22.33 -1.32 22.66 -2 23 C-2 22.34 -2 21.68 -2 21 C-2.804375 20.855625 -3.60875 20.71125 -4.4375 20.5625 C-7 20 -7 20 -8 19 C-8.15272417 16.92060164 -8.22195322 14.83481069 -8.25 12.75 C-8.27578125 11.61046875 -8.3015625 10.4709375 -8.328125 9.296875 C-7.97024176 5.70100057 -7.15489777 3.86622324 -5 1 C-3 0 -3 0 0 0 Z " fill="#FB5D57" transform="translate(224,72)"/>
<path d="M0 0 C0.87840996 3.09720845 0.99435406 4.90645403 0 8 C0.66 8 1.32 8 2 8 C2 6.35 2 4.7 2 3 C2.66 2.67 3.32 2.34 4 2 C3.0803119 7.59386762 2.03955671 13.05771913 0.4375 18.5 C-1.12439111 23.96661889 -1.68234997 29.33706667 -2 35 C-2.33 35 -2.66 35 -3 35 C-3.09087891 34.09507813 -3.09087891 34.09507813 -3.18359375 33.171875 C-3.26738281 32.37265625 -3.35117188 31.5734375 -3.4375 30.75 C-3.51871094 29.96109375 -3.59992188 29.1721875 -3.68359375 28.359375 C-3.93640756 26.03461565 -3.93640756 26.03461565 -4.58203125 23.984375 C-5.09252066 21.56074305 -4.78123289 19.91469495 -4.25 17.5 C-4.06179687 16.63632813 -3.87359375 15.77265625 -3.6796875 14.8828125 C-2.50676978 9.90802356 -1.27561998 4.94940551 0 0 Z " fill="#FA5752" transform="translate(193,66)"/>
<path d="M0 0 C0.33 1.32 0.66 2.64 1 4 C-1.97 3.505 -1.97 3.505 -5 3 C-5 5.31 -5 7.62 -5 10 C-3.68 10.33 -2.36 10.66 -1 11 C-1.33 9.68 -1.66 8.36 -2 7 C-0.68 7 0.64 7 2 7 C2.042721 8.66611905 2.04063832 10.33382885 2 12 C0.41105928 13.58894072 -1.24801424 13.16998411 -3.4375 13.1875 C-4.64212891 13.20876953 -4.64212891 13.20876953 -5.87109375 13.23046875 C-8 13 -8 13 -10 11 C-10.55239643 4.03980504 -10.55239643 4.03980504 -8.9375 1 C-5.97912322 -0.52690415 -3.26283401 -0.18468872 0 0 Z " fill="#606060" transform="translate(145,130)"/>
<path d="M0 0 C-1.67013404 4.24750139 -4.71123639 7.07864943 -7.875 10.25 C-8.66970703 11.08144531 -8.66970703 11.08144531 -9.48046875 11.9296875 C-10.90873975 13.36859079 -12.4502761 14.69280584 -14 16 C-15.32 16 -16.64 16 -18 16 C-17.12195793 11.10512986 -14.24457377 8.97878792 -10.6875 5.75 C-10.10548828 5.19570312 -9.52347656 4.64140625 -8.92382812 4.0703125 C-8.35470703 3.54695313 -7.78558594 3.02359375 -7.19921875 2.484375 C-6.68190186 2.00709961 -6.16458496 1.52982422 -5.6315918 1.03808594 C-4 0 -4 0 0 0 Z " fill="#F94039" transform="translate(211,106)"/>
<path d="M0 0 C1.32 0.33 2.64 0.66 4 1 C4.33 2.65 4.66 4.3 5 6 C8.24849977 4.27773504 8.24849977 4.27773504 9 1 C9.66 1 10.32 1 11 1 C11.43200679 5.75207471 9.98489083 8.78210698 8 13 C5.6875 13 5.6875 13 3 12 C0.70000073 8.07382937 0 4.52591158 0 0 Z " fill="#4B4B4B" transform="translate(13,130)"/>
<path d="M0 0 C1.32 0.33 2.64 0.66 4 1 C5.125 3.5 5.125 3.5 6 6 C6.66 6.33 7.32 6.66 8 7 C8 5.35 8 3.7 8 2 C8.66 2 9.32 2 10 2 C10 5.3 10 8.6 10 12 C7 12 7 12 4.8125 10 C4.214375 9.34 3.61625 8.68 3 8 C3 9.65 3 11.3 3 13 C2.01 13 1.02 13 0 13 C0 8.71 0 4.42 0 0 Z " fill="#434343" transform="translate(63,130)"/>
<path d="M0 0 C1.32 0 2.64 0 4 0 C4.28875 0.639375 4.5775 1.27875 4.875 1.9375 C5.82823451 4.15206079 5.82823451 4.15206079 8 5 C8 3.35 8 1.7 8 0 C8.66 0 9.32 0 10 0 C10 3.96 10 7.92 10 12 C6.43688534 10.21844267 4.64354525 8.83236991 2 6 C2 7.65 2 9.3 2 11 C1.34 11 0.68 11 0 11 C0 7.37 0 3.74 0 0 Z " fill="#383838" transform="translate(123,131)"/>
<path d="M0 0 C2.375 0.375 2.375 0.375 4.375 2.375 C4.375 3.365 4.375 4.355 4.375 5.375 C3.385 5.375 2.395 5.375 1.375 5.375 C1.375 4.715 1.375 4.055 1.375 3.375 C0.055 3.375 -1.265 3.375 -2.625 3.375 C-2.625 5.685 -2.625 7.995 -2.625 10.375 C0.84 9.88 0.84 9.88 4.375 9.375 C3.715 10.695 3.055 12.015 2.375 13.375 C0.065 13.375 -2.245 13.375 -4.625 13.375 C-6.47253138 10.25729079 -7.16782688 7.99384589 -6.625 4.375 C-4.56988147 1.55872646 -3.48227409 0.49746773 0 0 Z " fill="#353434" transform="translate(110.625,129.625)"/>
<path d="M0 0 C1.65 0.33 3.3 0.66 5 1 C6.14453125 2.7421875 6.14453125 2.7421875 6.8125 4.875 C7.16248047 5.92300781 7.16248047 5.92300781 7.51953125 6.9921875 C8 9 8 9 8 12 C4.7 12 1.4 12 -2 12 C-1.34 8.04 -0.68 4.08 0 0 Z " fill="#353535" transform="translate(95,130)"/>
<path d="M0 0 C0 4.62 0 9.24 0 14 C-1.98 14.66 -3.96 15.32 -6 16 C-5.91321237 13.70760939 -5.80504727 11.4160193 -5.6875 9.125 C-5.62949219 7.84882812 -5.57148438 6.57265625 -5.51171875 5.2578125 C-5.34285156 4.18273437 -5.17398438 3.10765625 -5 2 C-2 0 -2 0 0 0 Z " fill="#FEB9B7" transform="translate(252,63)"/>
<path d="M0 0 C0.7425 0.2475 1.485 0.495 2.25 0.75 C2.16563067 3.61855713 1.66307819 5.30682315 -0.3046875 7.41796875 C-5.26440024 11.75 -5.26440024 11.75 -7.75 11.75 C-7.2671504 4.50725594 -7.2671504 4.50725594 -5 1.1875 C-2.75 -0.25 -2.75 -0.25 0 0 Z " fill="#F73F38" transform="translate(207.75,41.25)"/>
<path d="M0 0 C1.32 0 2.64 0 4 0 C4.03738281 1.05960938 4.07476562 2.11921875 4.11328125 3.2109375 C4.17893258 4.59899424 4.24538021 5.98701349 4.3125 7.375 C4.33505859 8.07367188 4.35761719 8.77234375 4.38085938 9.4921875 C4.46984296 11.77288941 4.46984296 11.77288941 5 15 C5.99 15.66 6.98 16.32 8 17 C6.02 17.66 4.04 18.32 2 19 C1 18 1 18 0.90234375 14.62109375 C0.90901631 13.22652923 0.92097468 11.83198257 0.9375 10.4375 C0.94201172 9.72658203 0.94652344 9.01566406 0.95117188 8.28320312 C0.96299136 6.52209987 0.98092737 4.76103964 1 3 C0.01 2.67 -0.98 2.34 -2 2 C-1.34 1.34 -0.68 0.68 0 0 Z " fill="#FA3F38" transform="translate(252,59)"/>
<path d="M0 0 C0.99 0.33 1.98 0.66 3 1 C2.67 1.33 2.34 1.66 2 2 C1.91368126 3.34267413 1.89293527 4.68974322 1.90234375 6.03515625 C1.90556641 6.84404297 1.90878906 7.65292969 1.91210938 8.48632812 C1.92048828 9.33646484 1.92886719 10.18660156 1.9375 11.0625 C1.94201172 11.91650391 1.94652344 12.77050781 1.95117188 13.65039062 C1.96299627 15.76695663 1.98093231 17.88348685 2 20 C0.68 20.33 -0.64 20.66 -2 21 C-2 15.39 -2 9.78 -2 4 C-2.99 3.67 -3.98 3.34 -5 3 C-2.6875 1.4375 -2.6875 1.4375 0 0 Z " fill="#FEDEDD" transform="translate(241,61)"/>
<path d="M0 0 C2 1 2 1 3.0625 3.625 C5.87561135 13.75220087 6.74755814 26.54921132 2.5625 36.375 C1 39 1 39 -1 40 C-0.69201674 38.51988629 -0.378482 37.04092675 -0.0625 35.5625 C0.11152344 34.73878906 0.28554687 33.91507813 0.46484375 33.06640625 C1 31 1 31 2 30 C2.25445459 26.67455646 2.18524425 23.33400484 2.1875 20 C2.19974609 19.07832031 2.21199219 18.15664063 2.22460938 17.20703125 C2.23739536 11.16352198 1.51694277 5.85192153 0 0 Z " fill="#5B5B5B" transform="translate(172,22)"/>
<path d="M0 0 C0.99 0 1.98 0 3 0 C3 4.95 3 9.9 3 15 C1.68 15.33 0.36 15.66 -1 16 C-1.02685095 13.52076199 -1.04676547 11.0418116 -1.0625 8.5625 C-1.07506836 7.50192383 -1.07506836 7.50192383 -1.08789062 6.41992188 C-1.09653588 4.61306441 -1.05220011 2.80612397 -1 1 C-0.67 0.67 -0.34 0.34 0 0 Z " fill="#FA514C" transform="translate(235,66)"/>
<path d="M0 0 C0.99 0 1.98 0 3 0 C3 1.65 3 3.3 3 5 C4.32 5 5.64 5 7 5 C7 3.68 7 2.36 7 1 C7.99 1 8.98 1 10 1 C10 2.32 10 3.64 10 5 C9.34 5 8.68 5 8 5 C8.33 6.98 8.66 8.96 9 11 C8.34 11 7.68 11 7 11 C6.34 10.01 5.68 9.02 5 8 C4.01 7.67 3.02 7.34 2 7 C2 8.32 2 9.64 2 11 C1.34 11 0.68 11 0 11 C0 7.37 0 3.74 0 0 Z " fill="#393939" transform="translate(32,131)"/>
<path d="M0 0 C0.33 0 0.66 0 1 0 C1.12117187 0.78246094 1.24234375 1.56492187 1.3671875 2.37109375 C1.53476563 3.38300781 1.70234375 4.39492187 1.875 5.4375 C2.03742188 6.44683594 2.19984375 7.45617187 2.3671875 8.49609375 C2.57601562 9.32238281 2.78484375 10.14867188 3 11 C3.66 11.33 4.32 11.66 5 12 C5 12.66 5 13.32 5 14 C3.68 14 2.36 14 1 14 C1 19.28 1 24.56 1 30 C0.34 30 -0.32 30 -1 30 C-1.33 22.74 -1.66 15.48 -2 8 C-1.67 8 -1.34 8 -1 8 C-0.67 5.36 -0.34 2.72 0 0 Z " fill="#FC7570" transform="translate(183,85)"/>
<path d="M0 0 C0.66 0 1.32 0 2 0 C2.10477512 5.78591511 1.99250545 11.29309366 1 17 C0.01 17 -0.98 17 -2 17 C-2.05383848 14.54137599 -2.09359038 12.0839245 -2.125 9.625 C-2.14175781 8.92632812 -2.15851563 8.22765625 -2.17578125 7.5078125 C-2.19344267 5.67102514 -2.10303261 3.83398037 -2 2 C-1.34 1.34 -0.68 0.68 0 0 Z " fill="#F94039" transform="translate(199,83)"/>
<path d="M0 0 C1.98 0 3.96 0 6 0 C6.3690205 10.55808656 6.3690205 10.55808656 4 15 C3.01 15 2.02 15 1 15 C0.70658112 9.32723489 0.99440348 6.00932754 4 1 C2.68 1.33 1.36 1.66 0 2 C0 1.34 0 0.68 0 0 Z " fill="#FECFCD" transform="translate(220,71)"/>
<path d="M0 0 C0.99 0 1.98 0 3 0 C3 4.62 3 9.24 3 14 C0.03 13.505 0.03 13.505 -3 13 C-3 11.68 -3 10.36 -3 9 C-2.34 9 -1.68 9 -1 9 C-0.67 6.03 -0.34 3.06 0 0 Z " fill="#F63832" transform="translate(178,71)"/>
<path d="M0 0 C1.32 0 2.64 0 4 0 C3.67 4.62 3.34 9.24 3 14 C1.68 14 0.36 14 -1 14 C-1.02685938 11.85423363 -1.04633088 9.70837355 -1.0625 7.5625 C-1.07410156 6.36753906 -1.08570313 5.17257813 -1.09765625 3.94140625 C-1 1 -1 1 0 0 Z " fill="#F8423C" transform="translate(244,63)"/>
<path d="M0 0 C1.32 0.33 2.64 0.66 4 1 C4 5.29 4 9.58 4 14 C2.68 14 1.36 14 0 14 C0 9.38 0 4.76 0 0 Z " fill="#686868" transform="translate(117,129)"/>
<path d="M0 0 C1.65 0.33 3.3 0.66 5 1 C4.98839844 1.61488281 4.97679687 2.22976562 4.96484375 2.86328125 C4.95582031 3.67152344 4.94679688 4.47976562 4.9375 5.3125 C4.92589844 6.11300781 4.91429687 6.91351563 4.90234375 7.73828125 C4.90342145 10.16861334 4.90342145 10.16861334 6 13 C2.37 13 -1.26 13 -5 13 C-5 12.01 -5 11.02 -5 10 C-3.02 10.66 -1.04 11.32 1 12 C0.67 10.02 0.34 8.04 0 6 C0.66 6 1.32 6 2 6 C1.34 4.02 0.68 2.04 0 0 Z " fill="#B7B7B7" transform="translate(40,130)"/>
<path d="M0 0 C0.66 0 1.32 0 2 0 C2 1.32 2 2.64 2 4 C3.32 4 4.64 4 6 4 C6 2.68 6 1.36 6 0 C6.99 0.33 7.98 0.66 9 1 C9 3.97 9 6.94 9 10 C8.01 9.67 7.02 9.34 6 9 C5.67 8.34 5.34 7.68 5 7 C4.01 6.67 3.02 6.34 2 6 C2 7.32 2 8.64 2 10 C1.34 10 0.68 10 0 10 C0 6.7 0 3.4 0 0 Z " fill="#252525" transform="translate(81,132)"/>
<path d="M0 0 C2.2109885 0.42793326 3.98119242 0.99059621 6 2 C6.33 1.34 6.66 0.68 7 0 C7 1.65 7 3.3 7 5 C6.01 5.33 5.02 5.66 4 6 C4 6.99 4 7.98 4 9 C2.35 8.67 0.7 8.34 -1 8 C-1.04241723 5.66705225 -1.04092937 3.33297433 -1 1 C-0.67 0.67 -0.34 0.34 0 0 Z " fill="#B2B2B2" transform="translate(140,132)"/>
<path d="M0 0 C1.91015625 0.23046875 1.91015625 0.23046875 3.91015625 2.23046875 C3.53515625 4.35546875 3.53515625 4.35546875 2.91015625 6.23046875 C2.58015625 5.24046875 2.25015625 4.25046875 1.91015625 3.23046875 C1.25015625 2.90046875 0.59015625 2.57046875 -0.08984375 2.23046875 C-0.08984375 3.55046875 -0.08984375 4.87046875 -0.08984375 6.23046875 C-1.40984375 6.23046875 -2.72984375 6.23046875 -4.08984375 6.23046875 C-4.08984375 4.91046875 -4.08984375 3.59046875 -4.08984375 2.23046875 C-4.74984375 2.23046875 -5.40984375 2.23046875 -6.08984375 2.23046875 C-6.08984375 5.53046875 -6.08984375 8.83046875 -6.08984375 12.23046875 C-5.42984375 12.56046875 -4.76984375 12.89046875 -4.08984375 13.23046875 C-5.07984375 13.23046875 -6.06984375 13.23046875 -7.08984375 13.23046875 C-7.11670928 11.25137477 -7.1361775 9.27217904 -7.15234375 7.29296875 C-7.16394531 6.19082031 -7.17554687 5.08867187 -7.1875 3.953125 C-7.00692287 -1.08136548 -4.45725027 0.08898322 0 0 Z " fill="#6F6F6F" transform="translate(87.08984375,129.76953125)"/>
<path d="M0 0 C1.43088528 2.86177057 0.59991697 4.93375773 0 8 C-0.66 8 -1.32 8 -2 8 C-2 9.32 -2 10.64 -2 12 C-1.34 12 -0.68 12 0 12 C-0.66 14.64 -1.32 17.28 -2 20 C-3.32 20 -4.64 20 -6 20 C-2.80439331 5.00784519 -2.80439331 5.00784519 0 0 Z " fill="#FA4C46" transform="translate(177,72)"/>
<path d="M0 0 C0.99 0 1.98 0 3 0 C3 5.94 3 11.88 3 18 C3.99 18 4.98 18 6 18 C6 18.66 6 19.32 6 20 C4.35 20 2.7 20 1 20 C1 15.71 1 11.42 1 7 C0.34 7.99 -0.32 8.98 -1 10 C-1.02689216 8.52093108 -1.04634621 7.04172517 -1.0625 5.5625 C-1.07410156 4.73878906 -1.08570313 3.91507812 -1.09765625 3.06640625 C-1 1 -1 1 0 0 Z " fill="#FB5F5A" transform="translate(227,70)"/>
<path d="M0 0 C3.76044704 2.67189658 5.63803213 4.57360443 7 9 C7.33 9.99 7.66 10.98 8 12 C-0.91 12 -9.82 12 -19 12 C-19 11.67 -19 11.34 -19 11 C-11.08 11 -3.16 11 5 11 C4.34 9.02 3.68 7.04 3 5 C2.01 4.67 1.02 4.34 0 4 C0 2.68 0 1.36 0 0 Z " fill="#252525" transform="translate(183,131)"/>
<path d="M0 0 C0.66 0 1.32 0 2 0 C2.66 2.31 3.32 4.62 4 7 C5.32 7.33 6.64 7.66 8 8 C7.67 6.68 7.34 5.36 7 4 C8.32 4 9.64 4 11 4 C11 5.98 11 7.96 11 10 C9.54257537 10.08096803 8.08387193 10.13917774 6.625 10.1875 C5.81289063 10.22230469 5.00078125 10.25710937 4.1640625 10.29296875 C3.44992188 10.19628906 2.73578125 10.09960938 2 10 C-0.4294516 6.3558226 -0.16179575 4.28758728 0 0 Z " fill="#464646" transform="translate(44,133)"/>
<path d="M0 0 C0.99 0.33 1.98 0.66 3 1 C3 4.96 3 8.92 3 13 C1.68 13 0.36 13 -1 13 C-1.02686553 11.02090602 -1.04633375 9.04171029 -1.0625 7.0625 C-1.07410156 5.96035156 -1.08570313 4.85820312 -1.09765625 3.72265625 C-1 1 -1 1 0 0 Z " fill="#626262" transform="translate(58,130)"/>
<path d="M0 0 C1.32 0 2.64 0 4 0 C4.02725341 1.7290774 4.04650987 3.45828176 4.0625 5.1875 C4.07410156 6.15042969 4.08570313 7.11335938 4.09765625 8.10546875 C4.00486622 10.85576513 3.62111685 13.32479591 3 16 C2.34 16 1.68 16 1 16 C0.67 10.72 0.34 5.44 0 0 Z " fill="#F6312A" transform="translate(184,100)"/>
<path d="M0 0 C0.99 0 1.98 0 3 0 C3.30305731 2.91655151 3.56828972 5.82843851 3.8125 8.75 C3.90208984 9.575 3.99167969 10.4 4.08398438 11.25 C4.2639344 13.59882143 4.36797023 15.67158804 4 18 C1.51171875 20.578125 1.51171875 20.578125 -1 22 C-1.66 21.67 -2.32 21.34 -3 21 C-3 17.7 -3 14.4 -3 11 C-2.67 11 -2.34 11 -2 11 C-2 12.98 -2 14.96 -2 17 C-1.01 16.67 -0.02 16.34 1 16 C1.33 11.05 1.66 6.1 2 1 C1.34 0.67 0.68 0.34 0 0 Z " fill="#FDADAB" transform="translate(236,65)"/>
<path d="M0 0 C1.32 0.33 2.64 0.66 4 1 C4 4.96 4 8.92 4 13 C1.36 13 -1.28 13 -4 13 C-4 11.35 -4 9.7 -4 8 C-2.02 8.99 -2.02 8.99 0 10 C0 10.66 0 11.32 0 12 C0.99 12 1.98 12 3 12 C3 8.7 3 5.4 3 2 C2.34 2 1.68 2 1 2 C1 3.65 1 5.3 1 7 C0.01 6.67 -0.98 6.34 -2 6 C-1.34 4.02 -0.68 2.04 0 0 Z " fill="#8C8C8C" transform="translate(70,130)"/>
<path d="M0 0 C0 0.99 0 1.98 0 3 C-0.78375 3.598125 -1.5675 4.19625 -2.375 4.8125 C-5.43043173 7.35869311 -6.05082063 9.20328252 -7 13 C-7.66 13 -8.32 13 -9 13 C-9.33 11.68 -9.66 10.36 -10 9 C-10.66 9.66 -11.32 10.32 -12 11 C-11.46274105 7.62294375 -10.88935377 4.303314 -10 1 C-9.34 1 -8.68 1 -8 1 C-8.33 2.98 -8.66 4.96 -9 7 C-6.03 4.69 -3.06 2.38 0 0 Z " fill="#FC8480" transform="translate(209,46)"/>
<path d="M0 0 C0.98120464 3.05263664 0.98120464 4.94736336 0 8 C0.66 8 1.32 8 2 8 C2 6.35 2 4.7 2 3 C2.66 2.67 3.32 2.34 4 2 C2.89309248 8.40593286 1.66054831 14.71363856 0 21 C-0.33 21 -0.66 21 -1 21 C-0.98839844 20.32453125 -0.97679687 19.6490625 -0.96484375 18.953125 C-0.95582031 18.06109375 -0.94679687 17.1690625 -0.9375 16.25 C-0.92009766 14.92742187 -0.92009766 14.92742187 -0.90234375 13.578125 C-0.90211185 11.05419707 -0.90211185 11.05419707 -1.5625 8.90625 C-2.29190671 5.72812076 -0.98894968 3.02502257 0 0 Z " fill="#FC706C" transform="translate(193,66)"/>
<path d="M0 0 C0.78375 0.04125 1.5675 0.0825 2.375 0.125 C1.735625 0.434375 1.09625 0.74375 0.4375 1.0625 C-1.56110821 1.9595163 -1.56110821 1.9595163 -2.625 3.125 C-2.85981693 5.30792774 -3.03863323 7.49703174 -3.1875 9.6875 C-3.27128906 10.88503906 -3.35507813 12.08257812 -3.44140625 13.31640625 C-3.50199219 14.24324219 -3.56257812 15.17007813 -3.625 16.125 C-2.635 16.125 -1.645 16.125 -0.625 16.125 C-0.625 16.785 -0.625 17.445 -0.625 18.125 C0.695 17.795 2.015 17.465 3.375 17.125 C3.045 17.785 2.715 18.445 2.375 19.125 C0.0609378 19.85575648 -2.27328869 20.52638258 -4.625 21.125 C-4.68291844 18.00007749 -4.71856746 14.87529234 -4.75 11.75 C-4.76675781 10.86054687 -4.78351563 9.97109375 -4.80078125 9.0546875 C-4.80722656 8.20390625 -4.81367188 7.353125 -4.8203125 6.4765625 C-4.83078613 5.69104004 -4.84125977 4.90551758 -4.85205078 4.09619141 C-4.47051318 0.78378859 -3.1993815 0.1523515 0 0 Z " fill="#FB8480" transform="translate(246.625,60.875)"/>
<path d="M0 0 C0.144375 0.598125 0.28875 1.19625 0.4375 1.8125 C0.8872439 3.56150404 1.42892341 5.28677023 2 7 C-1.96 7 -5.92 7 -10 7 C-10 5.35 -10 3.7 -10 2 C-6.73045798 2.56371414 -5.17424117 3.49962266 -3 6 C-3 5.34 -3 4.68 -3 4 C-2.34 4 -1.68 4 -1 4 C-0.67 2.68 -0.34 1.36 0 0 Z " fill="#7E7E7E" transform="translate(93,136)"/>
<path d="M0 0 C1.32 0.33 2.64 0.66 4 1 C3.01 1 2.02 1 1 1 C1 4.63 1 8.26 1 12 C1.66 12 2.32 12 3 12 C3 10.35 3 8.7 3 7 C6.73639216 8.24546405 7.18756513 9.63404953 9 13 C6.03 13 3.06 13 0 13 C0 8.71 0 4.42 0 0 Z " fill="#ACACAC" transform="translate(122,130)"/>
<path d="M0 0 C1.134375 0.020625 2.26875 0.04125 3.4375 0.0625 C3.7675 1.3825 4.0975 2.7025 4.4375 4.0625 C3.468125 3.876875 2.49875 3.69125 1.5 3.5 C0.489375 3.355625 -0.52125 3.21125 -1.5625 3.0625 C-3.53072886 5.03072886 -3.22498381 8.41058709 -3.5625 11.0625 C-4.2225 10.7325 -4.8825 10.4025 -5.5625 10.0625 C-5.42200482 8.58281676 -5.27495174 7.10375484 -5.125 5.625 C-5.04378906 4.80128906 -4.96257812 3.97757813 -4.87890625 3.12890625 C-4.33318036 -0.43515544 -3.8167938 0.06696129 0 0 Z " fill="#3D3D3D" transform="translate(141.5625,129.9375)"/>
<path d="M0 0 C0.33 0 0.66 0 1 0 C1.02505615 0.56920166 1.0501123 1.13840332 1.07592773 1.72485352 C1.19293894 4.33757313 1.3151828 6.95002362 1.4375 9.5625 C1.47681641 10.45775391 1.51613281 11.35300781 1.55664062 12.27539062 C1.79332783 17.2458219 2.19821672 22.08823519 3 27 C2.01 27 1.02 27 0 27 C0 18.09 0 9.18 0 0 Z " fill="#F52C24" transform="translate(226,97)"/>
<path d="M0 0 C0.33 0 0.66 0 1 0 C1 3.96 1 7.92 1 12 C3.64 12 6.28 12 9 12 C8.625 13.9375 8.625 13.9375 8 16 C7.34 16.33 6.68 16.66 6 17 C6 16.34 6 15.68 6 15 C5.195625 14.855625 4.39125 14.71125 3.5625 14.5625 C1 14 1 14 0 13 C-0.07258946 10.81360547 -0.08373783 8.62499611 -0.0625 6.4375 C-0.05347656 5.23996094 -0.04445312 4.04242188 -0.03515625 2.80859375 C-0.02355469 1.88175781 -0.01195312 0.95492187 0 0 Z " fill="#FC918D" transform="translate(216,78)"/>
<path d="M0 0 C-0.265625 1.89453125 -0.265625 1.89453125 -1 4 C-2.671875 5.01171875 -2.671875 5.01171875 -4.75 5.6875 C-5.46671875 5.9246875 -6.1834375 6.161875 -6.921875 6.40625 C-9.26468928 7.07562551 -11.59196798 7.623745 -14 8 C-9.99534768 3.641996 -6.17328196 0 0 0 Z " fill="#FB4943" transform="translate(253,78)"/>
<path d="M0 0 C1.32 0 2.64 0 4 0 C4.13277344 0.77085937 4.26554688 1.54171875 4.40234375 2.3359375 C4.57894531 3.33882812 4.75554687 4.34171875 4.9375 5.375 C5.19853516 6.87160156 5.19853516 6.87160156 5.46484375 8.3984375 C5.87712062 10.96909656 5.87712062 10.96909656 7 13 C5.68 13 4.36 13 3 13 C3 9.04 3 5.08 3 1 C2.34 1 1.68 1 1 1 C1 2.65 1 4.3 1 6 C0.01 5.67 -0.98 5.34 -2 5 C-1.34 4.67 -0.68 4.34 0 4 C0 2.68 0 1.36 0 0 Z " fill="#BBBBBB" transform="translate(130,130)"/>
<path d="M0 0 C0.66 0 1.32 0 2 0 C2 3.96 2 7.92 2 12 C1.01 12 0.02 12 -1 12 C-1.02687279 10.18757948 -1.04633715 8.37504767 -1.0625 6.5625 C-1.07410156 5.55316406 -1.08570313 4.54382813 -1.09765625 3.50390625 C-1 1 -1 1 0 0 Z " fill="#FEF4F4" transform="translate(249,65)"/>
<path d="M0 0 C1.32 0 2.64 0 4 0 C4.33 0.66 4.66 1.32 5 2 C5.99 2.66 6.98 3.32 8 4 C7.01 4.33 6.02 4.66 5 5 C4.67 5.66 4.34 6.32 4 7 C2.68 7 1.36 7 0 7 C0 4.69 0 2.38 0 0 Z " fill="#E7E7E7" transform="translate(108,133)"/>
<path d="M0 0 C1.32 0 2.64 0 4 0 C4 0.99 4 1.98 4 3 C3.34 3 2.68 3 2 3 C2 3.99 2 4.98 2 6 C2.66 6 3.32 6 4 6 C4 6.66 4 7.32 4 8 C2.35 7.67 0.7 7.34 -1 7 C-1.04254356 5.00045254 -1.04080783 2.99958364 -1 1 C-0.67 0.67 -0.34 0.34 0 0 Z " fill="#CBCBCB" transform="translate(48,133)"/>
<path d="M0 0 C0.66 0 1.32 0 2 0 C2 2.97 2 5.94 2 9 C0.35 9 -1.3 9 -3 9 C-1.125 2.25 -1.125 2.25 0 0 Z " fill="#DBDBDB" transform="translate(24,134)"/>
<path d="M0 0 C1.32 0 2.64 0 4 0 C4 1.65 4 3.3 4 5 C3.34 5 2.68 5 2 5 C2 6.98 2 8.96 2 11 C1.34 11 0.68 11 0 11 C0 7.37 0 3.74 0 0 Z " fill="#232323" transform="translate(123,131)"/>
<path d="M0 0 C0.33 0 0.66 0 1 0 C1.24991456 6.65050424 0.73955334 12.56986533 -1 19 C-1.66 18.67 -2.32 18.34 -3 18 C-2 12 -1 6 0 0 Z " fill="#F9322B" transform="translate(228,71)"/>
<path d="M0 0 C0.33 0 0.66 0 1 0 C1 1.98 1 3.96 1 6 C4.465 5.505 4.465 5.505 8 5 C7.34 6.32 6.68 7.64 6 9 C3.69 9 1.38 9 -1 9 C-0.67 6.03 -0.34 3.06 0 0 Z " fill="#5E5E5E" transform="translate(107,134)"/>
<path d="M0 0 C1.30062431 3.81516464 0.89369853 7.27561763 0.5625 11.25 C0.46066406 12.51328125 0.35882813 13.7765625 0.25390625 15.078125 C0.17011719 16.04234375 0.08632812 17.0065625 0 18 C-0.66 18 -1.32 18 -2 18 C-2.33 19.32 -2.66 20.64 -3 22 C-3 19.36 -3 16.72 -3 14 C-2.34 14 -1.68 14 -1 14 C-1.01160156 13.24074219 -1.02320313 12.48148438 -1.03515625 11.69921875 C-1.04417969 10.70535156 -1.05320313 9.71148437 -1.0625 8.6875 C-1.07410156 7.70136719 -1.08570313 6.71523437 -1.09765625 5.69921875 C-1 3 -1 3 0 0 Z " fill="#FDB6B3" transform="translate(192,87)"/>
<path d="M0 0 C2.64 0 5.28 0 8 0 C8.33 0.66 8.66 1.32 9 2 C8.34 2 7.68 2 7 2 C7 3.32 7 4.64 7 6 C5.68 6 4.36 6 3 6 C3 4.35 3 2.7 3 1 C2.01 0.67 1.02 0.34 0 0 Z " fill="#7A7A7A" transform="translate(32,130)"/>
<path d="M0 0 C0.33 0 0.66 0 1 0 C1.16858098 2.0831793 1.33479255 4.16655044 1.5 6.25 C1.5928125 7.41015625 1.685625 8.5703125 1.78125 9.765625 C1.94404644 12.17268658 2 14.58743951 2 17 C1.01 17 0.02 17 -1 17 C-0.67 11.39 -0.34 5.78 0 0 Z " fill="#FEF4F3" transform="translate(240,65)"/>
<path d="M0 0 C0.99 0 1.98 0 3 0 C3 1.32 3 2.64 3 4 C2.34 4 1.68 4 1 4 C1.33 5.98 1.66 7.96 2 10 C1.34 10 0.68 10 0 10 C-2 7 -2 7 -2 4 C-1.34 4 -0.68 4 0 4 C0 2.68 0 1.36 0 0 Z " fill="#333333" transform="translate(39,132)"/>
<path d="M0 0 C0.66 0 1.32 0 2 0 C2 3.3 2 6.6 2 10 C1.01 10 0.02 10 -1 10 C-1.33 8.68 -1.66 7.36 -2 6 C-1.34 6 -0.68 6 0 6 C0 4.02 0 2.04 0 0 Z " fill="#232323" transform="translate(71,132)"/>
<path d="M0 0 C0.33 0 0.66 0 1 0 C1.10957031 0.69867188 1.21914062 1.39734375 1.33203125 2.1171875 C1.49058594 3.02726562 1.64914063 3.93734375 1.8125 4.875 C1.96332031 5.77992187 2.11414063 6.68484375 2.26953125 7.6171875 C2.83051301 10.34412478 2.83051301 10.34412478 6 12 C4.02 12.66 2.04 13.32 0 14 C0 9.38 0 4.76 0 0 Z " fill="#F8302A" transform="translate(254,64)"/>
<path d="M0 0 C3.76044704 2.67189658 5.63803213 4.57360443 7 9 C7.33 9.99 7.66 10.98 8 12 C7.34 12 6.68 12 6 12 C3 7.61538462 3 7.61538462 3 5 C2.01 4.67 1.02 4.34 0 4 C0 2.68 0 1.36 0 0 Z " fill="#797979" transform="translate(183,131)"/>
<path d="M0 0 C0.66 0.33 1.32 0.66 2 1 C2 1.99 2 2.98 2 4 C-1.63 4 -5.26 4 -9 4 C-9 3.34 -9 2.68 -9 2 C-3.25 1.875 -3.25 1.875 -1 3 C-0.67 2.01 -0.34 1.02 0 0 Z " fill="#BEBEBE" transform="translate(104,139)"/>
<path d="M0 0 C0.33 0 0.66 0 1 0 C1.31416607 5.23610116 0.77647622 8.51492303 -2 13 C-2.99 13.495 -2.99 13.495 -4 14 C-3.00956295 9.16371695 -2.04301154 4.52381127 0 0 Z " fill="#767676" transform="translate(175,48)"/>
<path d="M0 0 C-0.1875 1.8125 -0.1875 1.8125 -1 4 C-3.5625 5.75 -3.5625 5.75 -6 7 C-6 5.68 -6 4.36 -6 3 C-2.78571429 0 -2.78571429 0 0 0 Z " fill="#F93F38" transform="translate(220,98)"/>
<path d="M0 0 C0.33 0 0.66 0 1 0 C1 2.64 1 5.28 1 8 C1.66 8.33 2.32 8.66 3 9 C1.02 9.99 1.02 9.99 -1 11 C-1.0270043 9.54176788 -1.04639787 8.08339325 -1.0625 6.625 C-1.07410156 5.81289062 -1.08570313 5.00078125 -1.09765625 4.1640625 C-1 2 -1 2 0 0 Z " fill="#F7332C" transform="translate(218,79)"/>
<path d="M0 0 C1.32 0 2.64 0 4 0 C3.67 1.65 3.34 3.3 3 5 C1.68 5 0.36 5 -1 5 C-0.67 3.35 -0.34 1.7 0 0 Z " fill="#FD8480" transform="translate(237,56)"/>
<path d="M0 0 C0.12375 0.639375 0.2475 1.27875 0.375 1.9375 C0.58125 2.618125 0.7875 3.29875 1 4 C1.66 4.33 2.32 4.66 3 5 C2.01 6.98 1.02 8.96 0 11 C-0.33 11 -0.66 11 -1 11 C-1.125 3.375 -1.125 3.375 0 0 Z " fill="#FEE6E5" transform="translate(194,79)"/>
<path d="M0 0 C0.99 0 1.98 0 3 0 C3.33 1.98 3.66 3.96 4 6 C2.35 6 0.7 6 -1 6 C-0.67 4.02 -0.34 2.04 0 0 Z " fill="#6E6E6E" transform="translate(96,135)"/>
<path d="M0 0 C0.99 0.66 1.98 1.32 3 2 C2.34 3.98 1.68 5.96 1 8 C0.01 8 -0.98 8 -2 8 C-2 6.68 -2 5.36 -2 4 C-1.34 4 -0.68 4 0 4 C0 2.68 0 1.36 0 0 Z " fill="#D7D7D7" transform="translate(91,132)"/>
<path d="M0 0 C1.65 0 3.3 0 5 0 C4.360625 0.309375 3.72125 0.61875 3.0625 0.9375 C1.06389179 1.8345163 1.06389179 1.8345163 0 3 C0.66 3.33 1.32 3.66 2 4 C1.67 4.66 1.34 5.32 1 6 C-1.31 5.67 -3.62 5.34 -6 5 C-5.38125 4.9175 -4.7625 4.835 -4.125 4.75 C-1.81562433 4.18741541 -1.81562433 4.18741541 -0.75 1.9375 C-0.5025 1.298125 -0.255 0.65875 0 0 Z " fill="#FA6F6A" transform="translate(251,58)"/>
<path d="M0 0 C1.32 0.33 2.64 0.66 4 1 C3.41196203 4.02419525 2.77321882 7.01758453 2 10 C0.68373308 6.38026598 0 3.90432869 0 0 Z " fill="#929292" transform="translate(13,130)"/>
<path d="M0 0 C2.375 -0.125 2.375 -0.125 5 0 C7 2 7 2 7 5 C6.01 5 5.02 5 4 5 C4 4.34 4 3.68 4 3 C3.01 2.67 2.02 2.34 1 2 C0.67 1.34 0.34 0.68 0 0 Z " fill="#5E5E5E" transform="translate(108,130)"/>
<path d="M0 0 C1.32 0.33 2.64 0.66 4 1 C4 2.32 4 3.64 4 5 C2.68 5 1.36 5 0 5 C0 3.35 0 1.7 0 0 Z " fill="#C5C5C5" transform="translate(83,138)"/>
<path d="M0 0 C0.66 0.33 1.32 0.66 2 1 C1.34 2.98 0.68 4.96 0 7 C-1.32 6.34 -2.64 5.68 -4 5 C-2.68 3.35 -1.36 1.7 0 0 Z " fill="#FB5F5A" transform="translate(213,100)"/>
<path d="M0 0 C-0.57344937 2.86724686 -0.8614515 3.8614515 -3 6 C-3 5.01 -3 4.02 -3 3 C-3.99 3.33 -4.98 3.66 -6 4 C-5.67 3.01 -5.34 2.02 -5 1 C-3 0 -3 0 0 0 Z " fill="#FC6762" transform="translate(224,72)"/>
<path d="M0 0 C0 0.99 0 1.98 0 3 C-0.66 3 -1.32 3 -2 3 C-2 3.66 -2 4.32 -2 5 C-2.99 5 -3.98 5 -5 5 C-5 3.68 -5 2.36 -5 1 C-3 0 -3 0 0 0 Z " fill="#FC706B" transform="translate(204,72)"/>
<path d="M0 0 C0.33 0.66 0.66 1.32 1 2 C2.32 1.67 3.64 1.34 5 1 C4.67 1.66 4.34 2.32 4 3 C1.6859378 3.73075648 -0.64828869 4.40138258 -3 5 C-3 3.68 -3 2.36 -3 1 C-2.01 0.67 -1.02 0.34 0 0 Z " fill="#FD938F" transform="translate(245,77)"/>
<path d="M0 0 C1.25541557 3.76624671 0.37061958 5.37188934 -1 9 C-1.66 9 -2.32 9 -3 9 C-2.4140625 2.84765625 -2.4140625 2.84765625 -2 1 C-1.34 0.67 -0.68 0.34 0 0 Z " fill="#F93831" transform="translate(196,65)"/>
<path d="M0 0 C0.33 0 0.66 0 1 0 C0.4140625 6.15234375 0.4140625 6.15234375 0 8 C-0.99 8.495 -0.99 8.495 -2 9 C-2.25 3.375 -2.25 3.375 0 0 Z " fill="#F93730" transform="translate(199,54)"/>
<path d="M0 0 C1.65 0 3.3 0 5 0 C5 1.65 5 3.3 5 5 C3.68 4.67 2.36 4.34 1 4 C1.66 3.01 2.32 2.02 3 1 C2.01 1.33 1.02 1.66 0 2 C0 1.34 0 0.68 0 0 Z " fill="#B3B3B3" transform="translate(112,138)"/>
<path d="M0 0 C1.98 0.99 1.98 0.99 4 2 C4 2.99 4 3.98 4 5 C2.68 5 1.36 5 0 5 C0 3.35 0 1.7 0 0 Z " fill="#CCCCCC" transform="translate(66,138)"/>
<path d="M0 0 C1.43088528 2.86177057 0.59991697 4.93375773 0 8 C-0.99 8.33 -1.98 8.66 -3 9 C-2.44271087 5.65626525 -1.64826111 2.96687001 0 0 Z " fill="#FB645F" transform="translate(177,72)"/>
</svg>
