<?xml version="1.0" encoding="UTF-8"?>
<svg version="1.1" xmlns="http://www.w3.org/2000/svg" width="330" height="170">
<path d="M0 0 C6.27 0 12.54 0 19 0 C19.33 7.92 19.66 15.84 20 24 C21.835625 21.69 23.67125 19.38 25.5625 17 C37.89915117 1.55042441 37.89915117 1.55042441 41 0 C43.71975715 -0.07187519 46.40674632 -0.0927862 49.125 -0.0625 C53.023125 -0.0315625 53.023125 -0.0315625 57 0 C57.495 10.395 57.495 10.395 58 21 C60.31 18.03 62.62 15.06 65 12 C64.01 12 63.02 12 62 12 C62.66456445 10.66561763 63.33172421 9.33252756 64 8 C64.3192041 7.29939453 64.6384082 6.59878906 64.96728516 5.87695312 C66.42352516 3.32689924 67.6388742 1.77472268 70 0 C75.14848041 -1.0056221 80.17173543 -0.75587847 85.375 -0.5 C86.79286851 -0.45983192 88.21084612 -0.42333688 89.62890625 -0.390625 C93.0882195 -0.30285793 96.54341275 -0.16505283 100 0 C96.36467247 4.87526602 92.69880849 9.72119469 88.9375 14.5 C88.24140625 15.38558594 88.24140625 15.38558594 87.53125 16.2890625 C83.36281108 21.574245 79.11735599 26.79520944 74.85961914 32.00854492 C70.67423558 37.14250697 66.56659907 42.33311584 62.51367188 47.57226562 C56.99433594 54.66855469 56.99433594 54.66855469 53 56 C50.25917841 56.07056698 47.55153023 56.09336154 44.8125 56.0625 C42.234375 56.041875 39.65625 56.02125 37 56 C36.505 45.605 36.505 45.605 36 35 C34.30875 36.98 32.6175 38.96 30.875 41 C30.31474121 41.64283936 29.75448242 42.28567871 29.17724609 42.94799805 C26.44623859 46.11169213 24.39979954 49.07353282 22.5 52.8125 C19 56 19 56 0 56 C0 37.52 0 19.04 0 0 Z " fill="#000000" transform="translate(0,81)"/>
<path d="M0 0 C0.804375 0.495 1.60875 0.99 2.4375 1.5 C5.53467098 1.731283 5.53467098 1.731283 8.3125 0 C14.31379814 -2.66299642 21.67185116 -2.60474871 27.9140625 -0.7734375 C32.13350086 1.17034871 34.89787989 3.53819263 37.4375 7.5 C38.62725795 11.06927385 38.56228155 14.29946972 38.53515625 18.01171875 C38.5337413 18.73994339 38.53232635 19.46816803 38.53086853 20.21846008 C38.52527659 22.54151539 38.51272562 24.86447388 38.5 27.1875 C38.49498396 28.76367048 38.49042123 30.33984248 38.48632812 31.91601562 C38.47616121 35.77741095 38.45658436 39.63859725 38.4375 43.5 C32.8275 43.5 27.2175 43.5 21.4375 43.5 C21.1075 33.93 20.7775 24.36 20.4375 14.5 C17.7975 14.5 15.1575 14.5 12.4375 14.5 C10.14575923 17.93761116 10.14225953 19.42071615 10.0234375 23.48046875 C9.98476563 24.64384766 9.94609375 25.80722656 9.90625 27.00585938 C9.85984375 28.82827148 9.85984375 28.82827148 9.8125 30.6875 C9.77382813 31.91404297 9.73515625 33.14058594 9.6953125 34.40429688 C9.60094206 37.43594715 9.51812826 40.46795312 9.4375 43.5 C3.8275 43.5 -1.7825 43.5 -7.5625 43.5 C-8.0575 29.64 -8.0575 29.64 -8.5625 15.5 C-13.06821803 13.0920979 -13.06821803 13.0920979 -15.8125 14.1875 C-17.86884565 15.47035365 -17.86884565 15.47035365 -18.5625 18.5 C-18.71189774 20.41765594 -18.81060283 22.33946522 -18.87890625 24.26171875 C-18.92080078 25.37998047 -18.96269531 26.49824219 -19.00585938 27.65039062 C-19.04517578 28.81763672 -19.08449219 29.98488281 -19.125 31.1875 C-19.16818359 32.36634766 -19.21136719 33.54519531 -19.25585938 34.75976562 C-19.36201094 37.67303626 -19.46276629 40.5865026 -19.5625 43.5 C-24.8425 43.5 -30.1225 43.5 -35.5625 43.5 C-35.5625 28.98 -35.5625 14.46 -35.5625 -0.5 C-29.9525 -0.5 -24.3425 -0.5 -18.5625 -0.5 C-12.59127962 -2.49040679 -5.78414742 -2.43543049 0 0 Z " fill="#000000" transform="translate(247.5625,93.5)"/>
<path d="M0 0 C1.1034375 -0.00515625 2.206875 -0.0103125 3.34375 -0.015625 C6.46392334 0.24696385 8.68304814 0.92561218 11.5 2.25 C11.83 1.92 12.16 1.59 12.5 1.25 C18.11 1.25 23.72 1.25 29.5 1.25 C29.5 15.77 29.5 30.29 29.5 45.25 C23.89 45.25 18.28 45.25 12.5 45.25 C12.5 44.59 12.5 43.93 12.5 43.25 C11.38625 43.745 10.2725 44.24 9.125 44.75 C2.59260403 47.15788493 -3.6582748 47.24842801 -10.1875 44.75 C-16.09411329 41.81763879 -21.12640424 36.445865 -23.5 30.25 C-24.23343759 23.32498463 -24.59932895 16.06063093 -20.90234375 9.9296875 C-15.35467498 3.28484747 -8.61031081 -0.0402351 0 0 Z M-4.5 17.25 C-6.65254366 19.39298293 -6.65254366 19.39298293 -7.5 22.25 C-6.48284348 25.78013145 -5.59341031 28.27807972 -2.8125 30.75 C0.79240272 31.52943843 3.9750746 31.35289077 7.5 30.25 C10.22675163 28.27928108 10.22675163 28.27928108 11.5 25.25 C11.5 21.46083912 11.38644767 19.23494185 8.8125 16.375 C3.59361453 13.83608274 0.11606019 13.50724849 -4.5 17.25 Z " fill="#000000" transform="translate(180.5,91.75)"/>
<path d="M0 0 C2.3100014 1.96350119 3.65921952 3.31843903 5 6 C5 7.98 5 9.96 5 12 C-1.435 12.495 -1.435 12.495 -8 13 C-6.5975 13.391875 -5.195 13.78375 -3.75 14.1875 C-0.78536254 15.20994977 1.06115089 16.04772753 3.5625 18 C5.792886 22.65471861 5.81807824 26.94278908 5 32 C2.01952281 37.65262915 -2.04673185 39.38614773 -8.03125 41.30859375 C-15.73524911 43.1028146 -23.95059637 42.87374995 -31 39 C-34.73732925 35.95506017 -37.15014998 32.89156841 -37.875 28.0625 C-37.91625 27.051875 -37.9575 26.04125 -38 25 C-34.04 24.67 -30.08 24.34 -26 24 C-27.258125 23.236875 -28.51625 22.47375 -29.8125 21.6875 C-32.5434947 20.03099502 -34.95812567 18.47985946 -37 16 C-38.0345906 11.49214098 -38.3883678 9.12195143 -36.875 4.75 C-33.86540888 0.33593302 -30.5598026 -2.4081985 -25.27734375 -3.6796875 C-16.32982524 -4.93817209 -7.76777947 -5.03023605 0 0 Z M-18 9 C-17.67 9.99 -17.34 10.98 -17 12 C-15.68 12 -14.36 12 -13 12 C-13.33 11.01 -13.66 10.02 -14 9 C-15.32 9 -16.64 9 -18 9 Z M-20 25 C-19.67 25.99 -19.34 26.98 -19 28 C-17.35 28.33 -15.7 28.66 -14 29 C-13.34 28.01 -12.68 27.02 -12 26 C-14.64 25.67 -17.28 25.34 -20 25 Z " fill="#000000" transform="translate(325,96)"/>
<path d="M0 0 C0.73914296 -0.00001007 1.47828592 -0.00002014 2.23982716 -0.00003052 C56.68488066 0.00071142 111.12237886 0.36212878 165.5625 1.125 C165.5625 1.785 165.5625 2.445 165.5625 3.125 C113.40899934 3.97179521 61.26765164 4.28660166 9.10763741 4.25356841 C2.4620526 4.24979894 -4.1835173 4.25116241 -10.82910156 4.25537109 C-62.04007633 4.28703596 -113.23300831 3.95638654 -164.4375 3.125 C-164.4375 2.465 -164.4375 1.805 -164.4375 1.125 C-109.62565793 0.34600375 -54.81685872 -0.00074687 0 0 Z " fill="#000000" transform="translate(164.4375,57.875)"/>
<path d="M0 0 C5.61 0 11.22 0 17 0 C17 18.48 17 36.96 17 56 C11.39 56 5.78 56 0 56 C0 37.52 0 19.04 0 0 Z " fill="#000000" transform="translate(120,81)"/>
<path d="M0 0 C5.61 0 11.22 0 17 0 C17 18.48 17 36.96 17 56 C11.39 56 5.78 56 0 56 C0 37.52 0 19.04 0 0 Z " fill="#000000" transform="translate(101,81)"/>
<path d="M0 0 C4.29 0 8.58 0 13 0 C15.97 5.28 18.94 10.56 22 16 C22.33 10.72 22.66 5.44 23 0 C25.64 0 28.28 0 31 0 C31 11.55 31 23.1 31 35 C27.7 35 24.4 35 21 35 C19.54048881 32.41732587 18.08235119 29.83389259 16.625 27.25 C16.2125 26.52039063 15.8 25.79078125 15.375 25.0390625 C14.97539062 24.33007812 14.57578125 23.62109375 14.1640625 22.890625 C13.79748535 22.24125977 13.4309082 21.59189453 13.05322266 20.92285156 C11.98618133 18.97477147 10.99333713 16.98667426 10 15 C9.67 21.6 9.34 28.2 9 35 C6.03 35 3.06 35 0 35 C0 23.45 0 11.9 0 0 Z " fill="#1767DB" transform="translate(299,4)"/>
<path d="M0 0 C1.86834717 0.28933716 1.86834717 0.28933716 4 1 C5.63227124 3.61186101 6.9956817 6.10687975 8.328125 8.8671875 C8.72199402 9.65771515 9.11586304 10.4482428 9.52166748 11.26272583 C10.35178264 12.93572239 11.17512517 14.61209394 11.9921875 16.29150391 C13.24511116 18.86495853 14.51900937 21.42713531 15.796875 23.98828125 C16.60021441 25.61396324 17.40233913 27.24024616 18.203125 28.8671875 C18.58430481 29.63602264 18.96548462 30.40485779 19.35821533 31.19699097 C22 36.65062012 22 36.65062012 22 40 C16.72 40 11.44 40 6 40 C3.03 34.555 3.03 34.555 0 29 C-0.144375 30.44375 -0.28875 31.8875 -0.4375 33.375 C-0.875 37.75 -0.875 37.75 -2 40 C-7.28 40 -12.56 40 -18 40 C-16.875 33.25 -16.875 33.25 -14.93359375 29.6953125 C-14.53076172 28.94765625 -14.12792969 28.2 -13.71289062 27.4296875 C-13.29201172 26.66914063 -12.87113281 25.90859375 -12.4375 25.125 C-12.01275391 24.34125 -11.58800781 23.5575 -11.15039062 22.75 C-10.10789462 20.82899613 -9.05767555 18.9126751 -8 17 C-7.34 17 -6.68 17 -6 17 C-5.34 17.99 -4.68 18.98 -4 20 C-3.96261719 19.14277344 -3.92523438 18.28554688 -3.88671875 17.40234375 C-3.51561297 10.94801388 -3.06490552 5.73004075 0 0 Z M-3 22 C-2 24 -2 24 -2 24 Z M-2 25 C-1 27 -1 27 -1 27 Z " fill="#1767DB" transform="translate(18,0)"/>
<path d="M0 0 C5.61 0 11.22 0 17 0 C17 14.19 17 28.38 17 43 C11.39 43 5.78 43 0 43 C0 28.81 0 14.62 0 0 Z " fill="#000000" transform="translate(138,94)"/>
<path d="M0 0 C3.96 0 7.92 0 12 0 C13.71097333 4.82310944 15.41991753 9.64693102 17.12695312 14.47143555 C17.70842117 16.11388765 18.2904514 17.75614083 18.87304688 19.39819336 C19.70849777 21.75322714 20.54194967 24.10895991 21.375 26.46484375 C21.63748535 27.20339096 21.8999707 27.94193817 22.17041016 28.7028656 C24 33.88612829 24 33.88612829 24 35 C20.37 35 16.74 35 13 35 C12.505 32.525 12.505 32.525 12 30 C8.04 30.33 4.08 30.66 0 31 C-0.33 32.32 -0.66 33.64 -1 35 C-4.63 35 -8.26 35 -12 35 C-9.8331563 27.5863964 -7.42924419 20.28848435 -4.875 13 C-4.51535156 11.96488281 -4.15570313 10.92976562 -3.78515625 9.86328125 C-1.13484172 2.26968344 -1.13484172 2.26968344 0 0 Z M5 10 C4.01 13.96 3.02 17.92 2 22 C4.31 22 6.62 22 9 22 C8.71788123 20.3733152 8.42397625 18.74867104 8.125 17.125 C7.88136719 15.76761719 7.88136719 15.76761719 7.6328125 14.3828125 C7.16955297 11.83494012 7.16955297 11.83494012 5 10 Z " fill="#1767DB" transform="translate(59,4)"/>
<path d="M0 0 C3.96 0 7.92 0 12 0 C13.71097333 4.82310944 15.41991753 9.64693102 17.12695312 14.47143555 C17.70842117 16.11388765 18.2904514 17.75614083 18.87304688 19.39819336 C19.70849777 21.75322714 20.54194967 24.10895991 21.375 26.46484375 C21.63748535 27.20339096 21.8999707 27.94193817 22.17041016 28.7028656 C24 33.88612829 24 33.88612829 24 35 C20.37 35 16.74 35 13 35 C12.505 32.525 12.505 32.525 12 30 C8.04 30.33 4.08 30.66 0 31 C-0.33 32.32 -0.66 33.64 -1 35 C-4.63 35 -8.26 35 -12 35 C-9.73910241 27.17100188 -7.10293188 19.52977325 -4.3125 11.875 C-3.89677734 10.72773438 -3.48105469 9.58046875 -3.05273438 8.3984375 C-2.03760143 5.59807075 -1.0191448 2.7989092 0 0 Z M5 11 C3.515 16.445 3.515 16.445 2 22 C4.64 22 7.28 22 10 22 C9.01 18.37 8.02 14.74 7 11 C6.34 11 5.68 11 5 11 Z " fill="#1767DB" transform="translate(271,4)"/>
<path d="M0 0 C1.65322266 0.01740234 1.65322266 0.01740234 3.33984375 0.03515625 C4.44457031 0.04417969 5.54929688 0.05320313 6.6875 0.0625 C7.54214844 0.07410156 8.39679688 0.08570313 9.27734375 0.09765625 C10.85202457 4.43640446 12.41834688 8.77804499 13.97705078 13.12255859 C14.50829936 14.59961763 15.04180964 16.07586526 15.57763672 17.55126953 C16.34811076 19.67400414 17.11036311 21.79953849 17.87109375 23.92578125 C18.11170532 24.58322327 18.35231689 25.24066528 18.60021973 25.91802979 C19.77535607 29.22816552 20.27734375 31.52599268 20.27734375 35.09765625 C16.97734375 35.09765625 13.67734375 35.09765625 10.27734375 35.09765625 C9.78234375 32.62265625 9.78234375 32.62265625 9.27734375 30.09765625 C4.98734375 30.09765625 0.69734375 30.09765625 -3.72265625 30.09765625 C-4.21765625 32.57265625 -4.21765625 32.57265625 -4.72265625 35.09765625 C-8.02265625 35.09765625 -11.32265625 35.09765625 -14.72265625 35.09765625 C-12.66861385 27.2561233 -10.28724461 19.61778652 -7.59765625 11.97265625 C-7.23800781 10.93367187 -6.87835938 9.8946875 -6.5078125 8.82421875 C-3.46742014 0.12436945 -3.46742014 0.12436945 0 0 Z M2.27734375 10.09765625 C1.28734375 14.05765625 0.29734375 18.01765625 -0.72265625 22.09765625 C1.58734375 22.09765625 3.89734375 22.09765625 6.27734375 22.09765625 C5.99522498 20.47097145 5.70132 18.84632729 5.40234375 17.22265625 C5.15871094 15.86527344 5.15871094 15.86527344 4.91015625 14.48046875 C4.44689672 11.93259637 4.44689672 11.93259637 2.27734375 10.09765625 Z " fill="#1767DB" transform="translate(150.72265625,3.90234375)"/>
<path d="M0 0 C1.3096875 -0.00515625 2.619375 -0.0103125 3.96875 -0.015625 C7.5 0.25 7.5 0.25 11.5 2.25 C11.5 5.22 11.5 8.19 11.5 11.25 C10.530625 10.940625 9.56125 10.63125 8.5625 10.3125 C4.26335509 9.07032903 -0.05342634 8.63315147 -4.5 8.25 C-4.5 9.57 -4.5 10.89 -4.5 12.25 C-3.52160156 12.39695312 -3.52160156 12.39695312 -2.5234375 12.546875 C3.72481288 13.61589719 8.73137918 14.87950509 12.9375 20 C13.82444906 23.54779623 13.49526552 26.74493449 12.5 30.25 C10.02796976 33.60489819 7.50652107 35.18159438 3.5 36.25 C-3.13658016 36.9873978 -8.3101279 35.60804651 -14.5 33.25 C-14.5 30.28 -14.5 27.31 -14.5 24.25 C-11.73723823 24.77268466 -9.1739124 25.35869587 -6.5 26.25 C-4.93881572 26.31740865 -3.3749748 26.33514456 -1.8125 26.3125 C-1.00425781 26.30347656 -0.19601563 26.29445313 0.63671875 26.28515625 C1.25160156 26.27355469 1.86648437 26.26195313 2.5 26.25 C2.83 25.26 3.16 24.27 3.5 23.25 C2.69175781 23.07984375 1.88351563 22.9096875 1.05078125 22.734375 C-9.71869907 20.29208031 -9.71869907 20.29208031 -13.5 16.25 C-15.03214888 13.18570224 -14.72938548 10.6334358 -14.5 7.25 C-13.28015965 4.50535921 -12.3457663 2.82794031 -9.859375 1.12890625 C-6.52641786 -0.11267547 -3.54614714 -0.01396121 0 0 Z " fill="#1767DB" transform="translate(223.5,3.75)"/>
<path d="M0 0 C1.22332031 -0.01417969 2.44664062 -0.02835937 3.70703125 -0.04296875 C7.01421123 0.17602521 9.2266898 0.76067147 12.1875 2.1875 C12.1875 5.1575 12.1875 8.1275 12.1875 11.1875 C11.0325 10.8575 9.8775 10.5275 8.6875 10.1875 C4.41249413 9.10348066 0.58388547 9.03048623 -3.8125 9.1875 C-3.8125 9.8475 -3.8125 10.5075 -3.8125 11.1875 C-2.83667969 11.50203125 -1.86085937 11.8165625 -0.85546875 12.140625 C0.42992286 12.57221634 1.71506639 13.004547 3 13.4375 C3.64259766 13.64246094 4.28519531 13.84742188 4.94726562 14.05859375 C8.83981497 15.38972461 11.27968195 16.4617249 13.1875 20.1875 C14.0533932 24.54816935 13.70534648 28.17338398 11.6875 32.125 C6.67779096 36.25800996 1.65401038 36.38568633 -4.5625 35.9375 C-8.40095715 35.56462131 -10.23169547 34.97790227 -13.8125 33.1875 C-13.8125 30.2175 -13.8125 27.2475 -13.8125 24.1875 C-12.4925 24.5175 -11.1725 24.8475 -9.8125 25.1875 C-5.36295528 26.18882385 -1.3607693 26.35289161 3.1875 26.1875 C2.8575 25.1975 2.5275 24.2075 2.1875 23.1875 C0.02194829 22.30420229 0.02194829 22.30420229 -2.5625 21.75 C-6.79729278 20.59891183 -9.64703334 19.35296666 -12.8125 16.1875 C-14.42097182 12.97055636 -14.42559149 9.66612778 -13.8125 6.1875 C-9.43418604 0.77221695 -6.7694716 0.03544226 0 0 Z " fill="#1767DB" transform="translate(189.8125,3.8125)"/>
<path d="M0 0 C0 14.19 0 28.38 0 43 C-5.61 43 -11.22 43 -17 43 C-17.18515283 38.47918505 -17.34377797 33.97180324 -17.43945312 29.45019531 C-17.47936338 27.91751265 -17.53371729 26.38512822 -17.60351562 24.85351562 C-18.00846559 15.73023103 -17.65836651 8.96892615 -11.61132812 1.58544922 C-9 0 -9 0 0 0 Z " fill="#000000" transform="translate(100,94)"/>
<path d="M0 0 C9.24 0 18.48 0 28 0 C28 2.64 28 5.28 28 8 C24.7 8 21.4 8 18 8 C18 16.91 18 25.82 18 35 C15.03 35 12.06 35 9 35 C9 26.09 9 17.18 9 8 C6.03 8 3.06 8 0 8 C0 5.36 0 2.72 0 0 Z " fill="#1867DB" transform="translate(81,4)"/>
<path d="M0 0 C2.97 0 5.94 0 9 0 C9 8.91 9 17.82 9 27 C12.63 27 16.26 27 20 27 C19.01 29.64 18.02 32.28 17 35 C11.39 35 5.78 35 0 35 C0 23.45 0 11.9 0 0 Z " fill="#1867DB" transform="translate(114,4)"/>
<path d="M0 0 C2.97 0 5.94 0 9 0 C9 11.55 9 23.1 9 35 C6.03 35 3.06 35 0 35 C0 23.45 0 11.9 0 0 Z " fill="#1867DB" transform="translate(245,4)"/>
<path d="M0 0 C4 1 4 1 5.6328125 3.25 C6.12523437 4.1575 6.61765625 5.065 7.125 6 C8.91256419 9.65993054 8.91256419 9.65993054 12 12 C12.2475 11.319375 12.495 10.63875 12.75 9.9375 C14.24197908 6.43134917 16.06835511 3.28379632 18 0 C19.32 0 20.64 0 22 0 C22 6.6 22 13.2 22 20 C20.68 20 19.36 20 18 20 C17.67 17.03 17.34 14.06 17 11 C15.35 13.31 13.7 15.62 12 18 C7.79373966 16.49776416 6.26099979 13.71449966 4 10 C3.67 13.3 3.34 16.6 3 20 C2.01 20 1.02 20 0 20 C0 13.4 0 6.8 0 0 Z " fill="#000000" transform="translate(218,150)"/>
<path d="M0 0 C2.64590014 -0.02684679 5.29153096 -0.04676357 7.9375 -0.0625 C8.69224609 -0.07087891 9.44699219 -0.07925781 10.22460938 -0.08789062 C12.14994313 -0.09652441 14.07535581 -0.05224333 16 0 C17 1 17 1 17.09765625 3.50390625 C17.06510417 6.3359375 17.03255208 9.16796875 17 12 C11.39 12 5.78 12 0 12 C0 8.04 0 4.08 0 0 Z " fill="#000000" transform="translate(138,81)"/>
<path d="M0 0 C5.28 0 10.56 0 16 0 C16 0.99 16 1.98 16 3 C12.04 3 8.08 3 4 3 C4 4.65 4 6.3 4 8 C7.3 8 10.6 8 14 8 C14 9.32 14 10.64 14 12 C10.7 12 7.4 12 4 12 C4 13.65 4 15.3 4 17 C7.96 17 11.92 17 16 17 C16 17.99 16 18.98 16 20 C10.72 20 5.44 20 0 20 C0 13.4 0 6.8 0 0 Z " fill="#000000" transform="translate(170,150)"/>
<path d="M0 0 C2.23046875 -0.02734375 2.23046875 -0.02734375 5 1 C6.8536259 3.6212341 8.0526504 6.49466345 9.3125 9.4375 C9.67150391 10.22705078 10.03050781 11.01660156 10.40039062 11.83007812 C13 17.63834821 13 17.63834821 13 20 C11.35 19.67 9.7 19.34 8 19 C7.67 18.01 7.34 17.02 7 16 C3.7 15.67 0.4 15.34 -3 15 C-3.99 17.475 -3.99 17.475 -5 20 C-6.32 20 -7.64 20 -9 20 C-7.55676531 15.26210835 -5.62773267 11.01141849 -3.375 6.625 C-2.88773438 5.66400391 -2.88773438 5.66400391 -2.390625 4.68359375 C-1.59742593 3.12052499 -0.79922969 1.55999378 0 0 Z M1 6 C0.34 7.98 -0.32 9.96 -1 12 C0.98 12 2.96 12 5 12 C4.34 10.02 3.68 8.04 3 6 C2.34 6 1.68 6 1 6 Z " fill="#000000" transform="translate(199,150)"/>
<path d="M0 0 C5.28 0 10.56 0 16 0 C16 0.99 16 1.98 16 3 C12.04 3 8.08 3 4 3 C4 4.98 4 6.96 4 9 C7.3 9 10.6 9 14 9 C14 9.99 14 10.98 14 12 C10.7 12 7.4 12 4 12 C4 14.64 4 17.28 4 20 C2.68 20 1.36 20 0 20 C0 13.4 0 6.8 0 0 Z " fill="#000000" transform="translate(102,150)"/>
<path d="M0 0 C5.94 0 11.88 0 18 0 C18 0.99 18 1.98 18 3 C15.69 3 13.38 3 11 3 C11 8.61 11 14.22 11 20 C9.68 20 8.36 20 7 20 C7 14.39 7 8.78 7 3 C4.69 3 2.38 3 0 3 C0 2.01 0 1.02 0 0 Z " fill="#000000" transform="translate(147,150)"/>
<path d="M0 0 C2.97 0 5.94 0 9 0 C9 6.6 9 13.2 9 20 C7.68 20 6.36 20 5 20 C5 14.39 5 8.78 5 3 C3.35 3 1.7 3 0 3 C0 2.01 0 1.02 0 0 Z " fill="#000000" transform="translate(121,150)"/>
</svg>
