<?xml version="1.0" encoding="UTF-8"?>
<svg version="1.1" xmlns="http://www.w3.org/2000/svg" width="1200" height="700">
<path d="M0 0 C0.71259476 -0.00043808 1.42518951 -0.00087616 2.15937805 -0.00132751 C4.50790077 0.00075766 6.85570401 0.02407497 9.20410156 0.04760742 C10.8350587 0.05320436 12.46602088 0.057474 14.09698486 0.06047058 C18.3846027 0.07191168 22.6719145 0.10137239 26.95941162 0.13458252 C31.33650574 0.16529933 35.71364942 0.17897935 40.09082031 0.1940918 C48.675596 0.22624294 57.26012318 0.27743022 65.84472656 0.34057617 C66.17472656 1.00057617 66.50472656 1.66057617 66.84472656 2.34057617 C68.82472656 3.33057617 68.82472656 3.33057617 70.84472656 4.34057617 C71.17472656 44.60057617 71.50472656 84.86057617 71.84472656 126.34057617 C74.80197471 126.66217222 74.80197471 126.66217222 76.40722656 125.02807617 C78.02946609 123.1905364 78.02946609 123.1905364 79.84472656 120.34057617 C80.50472656 120.34057617 81.16472656 120.34057617 81.84472656 120.34057617 C82.27785156 119.44338867 82.27785156 119.44338867 82.71972656 118.52807617 C83.84472656 116.34057617 83.84472656 116.34057617 85.84472656 113.34057617 C86.50472656 113.34057617 87.16472656 113.34057617 87.84472656 113.34057617 C87.96847656 112.76307617 88.09222656 112.18557617 88.21972656 111.59057617 C88.8512148 109.3172185 89.73330847 107.41522328 90.84472656 105.34057617 C91.83472656 105.34057617 92.82472656 105.34057617 93.84472656 105.34057617 C95.35402839 101.95425107 95.35402839 101.95425107 95.84472656 98.34057617 C97.17254535 97.33326537 98.50682015 96.33444951 99.84472656 95.34057617 C100.38097656 94.61870117 100.91722656 93.89682617 101.46972656 93.15307617 C101.92347656 92.55495117 102.37722656 91.95682617 102.84472656 91.34057617 C103.50472656 91.34057617 104.16472656 91.34057617 104.84472656 91.34057617 C105.13347656 90.55682617 105.42222656 89.77307617 105.71972656 88.96557617 C106.84472656 86.34057617 106.84472656 86.34057617 108.84472656 84.34057617 C109.51567635 82.99867661 110.16140242 81.64388928 110.78222656 80.27807617 C111.84472656 78.34057617 111.84472656 78.34057617 113.84472656 77.34057617 C114.17472656 76.35057617 114.50472656 75.36057617 114.84472656 74.34057617 C116.51139323 73.67390951 118.1780599 73.00724284 119.84472656 72.34057617 C120.17472656 71.35057617 120.50472656 70.36057617 120.84472656 69.34057617 C121.17472656 68.35057617 121.50472656 67.36057617 121.84472656 66.34057617 C116.23472656 66.34057617 110.62472656 66.34057617 104.84472656 66.34057617 C104.51472656 65.35057617 104.18472656 64.36057617 103.84472656 63.34057617 C102.85472656 63.01057617 101.86472656 62.68057617 100.84472656 62.34057617 C102.59472656 58.46557617 102.59472656 58.46557617 104.84472656 57.34057617 C105.50027775 54.81324382 105.50027775 54.81324382 105.84472656 52.34057617 C106.50472656 52.34057617 107.16472656 52.34057617 107.84472656 52.34057617 C108.17472656 51.68057617 108.50472656 51.02057617 108.84472656 50.34057617 C109.50472656 50.34057617 110.16472656 50.34057617 110.84472656 50.34057617 C110.84472656 49.35057617 110.84472656 48.36057617 110.84472656 47.34057617 C111.82004626 46.31649049 112.826713 45.32223211 113.84472656 44.34057617 C114.48410156 43.30932617 115.12347656 42.27807617 115.78222656 41.21557617 C117.84472656 38.34057617 117.84472656 38.34057617 119.96972656 37.84057617 C120.58847656 37.67557617 121.20722656 37.51057617 121.84472656 37.34057617 C123.14929216 34.34441671 123.14929216 34.34441671 123.84472656 31.34057617 C124.83472656 31.34057617 125.82472656 31.34057617 126.84472656 31.34057617 C126.84472656 29.69057617 126.84472656 28.04057617 126.84472656 26.34057617 C128.16472656 26.34057617 129.48472656 26.34057617 130.84472656 26.34057617 C131.57552923 24.36311014 132.23894403 22.35985128 132.84472656 20.34057617 C132.51472656 19.68057617 132.18472656 19.02057617 131.84472656 18.34057617 C133.82472656 18.01057617 135.80472656 17.68057617 137.84472656 17.34057617 C138.01488281 16.70249023 138.18503906 16.0644043 138.36035156 15.40698242 C138.60269531 14.58069336 138.84503906 13.7544043 139.09472656 12.90307617 C139.32675781 12.07936523 139.55878906 11.2556543 139.79785156 10.40698242 C140.31605469 9.38411133 140.31605469 9.38411133 140.84472656 8.34057617 C142.89160156 7.74291992 142.89160156 7.74291992 144.84472656 7.34057617 C145.17472656 6.35057617 145.50472656 5.36057617 145.84472656 4.34057617 C148.61033328 2.95777281 150.83552182 3.21780446 153.93167114 3.22032166 C155.2302002 3.21894699 156.52872925 3.21757233 157.86660767 3.21615601 C159.31390404 3.2196954 160.76120018 3.22333021 162.20849609 3.22705078 C163.72601316 3.22733272 165.24353037 3.22717478 166.76104736 3.22660828 C170.88890833 3.22632057 175.01674043 3.23221291 179.14459467 3.23918223 C183.45543428 3.2454203 187.7662745 3.24601993 192.07711792 3.24720764 C200.24397978 3.25031962 208.4108283 3.25853121 216.57768428 3.26855713 C225.87380348 3.27972241 235.1699233 3.28522977 244.46604753 3.29025257 C263.59228144 3.30071393 282.71850293 3.3183108 301.84472656 3.34057617 C301.84472656 4.66057617 301.84472656 5.98057617 301.84472656 7.34057617 C301.18472656 7.34057617 300.52472656 7.34057617 299.84472656 7.34057617 C299.72097656 7.97995117 299.59722656 8.61932617 299.46972656 9.27807617 C299.26347656 9.95870117 299.05722656 10.63932617 298.84472656 11.34057617 C298.18472656 11.67057617 297.52472656 12.00057617 296.84472656 12.34057617 C297.17472656 12.67057617 297.50472656 13.00057617 297.84472656 13.34057617 C298.05290997 15.90817149 297.90352388 18.07598825 297.34472656 20.59057617 C295.46495626 22.78364153 294.52905235 22.73320611 291.71972656 23.09057617 C290.44097656 23.17307617 289.16222656 23.25557617 287.84472656 23.34057617 C287.72613281 23.92709961 287.60753906 24.51362305 287.48535156 25.11791992 C286.13016653 29.81975092 283.13586182 33.48960066 279.09472656 36.15307617 C278.35222656 36.54495117 277.60972656 36.93682617 276.84472656 37.34057617 C276.51472656 38.00057617 276.18472656 38.66057617 275.84472656 39.34057617 C276.50472656 39.34057617 277.16472656 39.34057617 277.84472656 39.34057617 C277.84472656 40.99057617 277.84472656 42.64057617 277.84472656 44.34057617 C275.53472656 44.34057617 273.22472656 44.34057617 270.84472656 44.34057617 C270.18472656 45.66057617 269.52472656 46.98057617 268.84472656 48.34057617 C269.17472656 48.67057617 269.50472656 49.00057617 269.84472656 49.34057617 C269.98587818 52.01116468 269.88719764 54.66489855 269.84472656 57.34057617 C268.92240234 57.37924805 268.92240234 57.37924805 267.98144531 57.41870117 C262.8795761 57.59022726 262.8795761 57.59022726 258.90722656 60.40307617 C258.55660156 61.04245117 258.20597656 61.68182617 257.84472656 62.34057617 C257.18472656 62.34057617 256.52472656 62.34057617 255.84472656 62.34057617 C255.51472656 63.33057617 255.18472656 64.32057617 254.84472656 65.34057617 C254.18472656 65.34057617 253.52472656 65.34057617 252.84472656 65.34057617 C252.51472656 67.32057617 252.18472656 69.30057617 251.84472656 71.34057617 C250.35972656 71.83557617 250.35972656 71.83557617 248.84472656 72.34057617 C248.51472656 73.33057617 248.18472656 74.32057617 247.84472656 75.34057617 C247.51472656 76.33057617 247.18472656 77.32057617 246.84472656 78.34057617 C245.35972656 78.83557617 245.35972656 78.83557617 243.84472656 79.34057617 C242.83829708 80.66906309 241.83780477 82.00207946 240.84472656 83.34057617 C240.18472656 83.34057617 239.52472656 83.34057617 238.84472656 83.34057617 C238.72097656 83.97995117 238.59722656 84.61932617 238.46972656 85.27807617 C238.16035156 86.29901367 238.16035156 86.29901367 237.84472656 87.34057617 C237.18472656 87.67057617 236.52472656 88.00057617 235.84472656 88.34057617 C235.84472656 90.32057617 235.84472656 92.30057617 235.84472656 94.34057617 C234.52472656 94.34057617 233.20472656 94.34057617 231.84472656 94.34057617 C230.35972656 97.31057617 230.35972656 97.31057617 228.84472656 100.34057617 C230.82472656 100.34057617 232.80472656 100.34057617 234.84472656 100.34057617 C234.84472656 101.99057617 234.84472656 103.64057617 234.84472656 105.34057617 C232.20472656 105.34057617 229.56472656 105.34057617 226.84472656 105.34057617 C226.84472656 107.98057617 226.84472656 110.62057617 226.84472656 113.34057617 C225.19472656 113.34057617 223.54472656 113.34057617 221.84472656 113.34057617 C221.51472656 111.36057617 221.18472656 109.38057617 220.84472656 107.34057617 C218.29799909 110.80695523 215.89470838 114.14994653 213.90722656 117.96557617 C212.15493675 120.83295951 211.16277994 122.09806468 208.65722656 124.09057617 C205.62300185 126.10033153 205.62300185 126.10033153 204.84472656 129.34057617 C202.78222656 130.02807617 202.78222656 130.02807617 200.84472656 130.34057617 C200.84472656 131.66057617 200.84472656 132.98057617 200.84472656 134.34057617 C200.18472656 134.34057617 199.52472656 134.34057617 198.84472656 134.34057617 C198.84472656 135.00057617 198.84472656 135.66057617 198.84472656 136.34057617 C198.18472656 136.34057617 197.52472656 136.34057617 196.84472656 136.34057617 C196.53535156 137.12432617 196.22597656 137.90807617 195.90722656 138.71557617 C194.84472656 141.34057617 194.84472656 141.34057617 193.84472656 143.34057617 C196.15472656 143.34057617 198.46472656 143.34057617 200.84472656 143.34057617 C200.51472656 144.99057617 200.18472656 146.64057617 199.84472656 148.34057617 C199.02488281 148.28256836 198.20503906 148.22456055 197.36035156 148.16479492 C190.78434619 147.64197622 190.78434619 147.64197622 185.21972656 150.52807617 C183.83248364 153.25180892 183.83248364 153.25180892 182.90722656 155.84057617 C181.52611831 159.09024264 179.35594728 160.89213597 176.84472656 163.34057617 C175.4685695 165.68004318 174.70806523 167.75056017 173.84472656 170.34057617 C172.51676366 170.69469961 171.1825605 171.02579172 169.84472656 171.34057617 C166.74489047 173.6964516 165.52812216 176.90364349 163.84472656 180.34057617 C162.28222656 182.71557617 162.28222656 182.71557617 160.84472656 184.34057617 C160.18472656 184.34057617 159.52472656 184.34057617 158.84472656 184.34057617 C158.74160156 184.93870117 158.63847656 185.53682617 158.53222656 186.15307617 C157.74648624 188.65315903 156.87553803 189.71592699 154.84472656 191.34057617 C154.18472656 191.34057617 153.52472656 191.34057617 152.84472656 191.34057617 C152.84472656 192.00057617 152.84472656 192.66057617 152.84472656 193.34057617 C152.18472656 193.34057617 151.52472656 193.34057617 150.84472656 193.34057617 C150.57660156 193.87682617 150.30847656 194.41307617 150.03222656 194.96557617 C149.64035156 195.74932617 149.24847656 196.53307617 148.84472656 197.34057617 C148.41160156 198.30995117 147.97847656 199.27932617 147.53222656 200.27807617 C145.70805191 203.58861535 143.50184591 205.68345683 140.84472656 208.34057617 C139.63670126 211.31417691 139.75618185 214.15296662 139.84472656 217.34057617 C137.86472656 217.01057617 135.88472656 216.68057617 133.84472656 216.34057617 C131.6598265 219.01700106 131.6598265 219.01700106 131.84472656 221.34057617 C130.8682464 222.36355539 129.86341318 223.35961869 128.84472656 224.34057617 C128.32910156 225.06245117 127.81347656 225.78432617 127.28222656 226.52807617 C126.57066406 227.42526367 126.57066406 227.42526367 125.84472656 228.34057617 C125.18472656 228.34057617 124.52472656 228.34057617 123.84472656 228.34057617 C122.007814 232.12245498 121.6863503 234.28625925 122.84472656 238.34057617 C120.95753906 238.37151367 120.95753906 238.37151367 119.03222656 238.40307617 C116.82773328 238.57100152 116.82773328 238.57100152 114.84472656 239.34057617 C113.15489149 241.63038526 112.65509796 243.55492451 111.84472656 246.34057617 C111.18472656 246.34057617 110.52472656 246.34057617 109.84472656 246.34057617 C109.76222656 246.95932617 109.67972656 247.57807617 109.59472656 248.21557617 C108.84472656 250.34057617 108.84472656 250.34057617 106.78222656 251.59057617 C106.14285156 251.83807617 105.50347656 252.08557617 104.84472656 252.34057617 C105.17472656 254.98057617 105.50472656 257.62057617 105.84472656 260.34057617 C99.09472656 261.46557617 99.09472656 261.46557617 96.84472656 260.34057617 C96.47347656 261.88745117 96.47347656 261.88745117 96.09472656 263.46557617 C94.99928967 267.28018266 93.34945159 270.22864508 90.84472656 273.34057617 C89.85472656 273.34057617 88.86472656 273.34057617 87.84472656 273.34057617 C88.17472656 274.00057617 88.50472656 274.66057617 88.84472656 275.34057617 C88.18472656 276.00057617 87.52472656 276.66057617 86.84472656 277.34057617 C87.17472656 278.00057617 87.50472656 278.66057617 87.84472656 279.34057617 C85.86472656 279.34057617 83.88472656 279.34057617 81.84472656 279.34057617 C81.51472656 280.33057617 81.18472656 281.32057617 80.84472656 282.34057617 C77.39479589 286.90666089 73.53049452 291.01214654 68.84472656 294.34057617 C68.18472656 294.34057617 67.52472656 294.34057617 66.84472656 294.34057617 C66.51472656 295.33057617 66.18472656 296.32057617 65.84472656 297.34057617 C62.28222656 298.52807617 62.28222656 298.52807617 58.84472656 299.34057617 C58.84472656 300.00057617 58.84472656 300.66057617 58.84472656 301.34057617 C47.72185066 304.33525102 37.41053441 304.74124303 25.97753906 304.63354492 C24.20393232 304.6279347 22.43032086 304.62367137 20.65670776 304.62068176 C16.03715693 304.60934504 11.41789881 304.57997712 6.79846191 304.54656982 C2.0652258 304.51562496 -2.66805861 304.50212478 -7.40136719 304.48706055 C-16.65279636 304.45509421 -25.90401036 304.40403692 -35.15527344 304.34057617 C-36.04279829 297.02576276 -36.29382065 289.82896903 -36.26879883 282.46508789 C-36.26894485 281.32245987 -36.26909088 280.17983185 -36.26924133 279.00257874 C-36.2685495 275.25845381 -36.26079147 271.51437981 -36.25292969 267.77026367 C-36.25106292 265.1613874 -36.24964024 262.55251078 -36.24864197 259.94363403 C-36.2455471 253.7992881 -36.23735882 247.65496018 -36.22729248 241.51062214 C-36.21607375 234.50931678 -36.21060644 227.5080105 -36.20559704 220.50669837 C-36.19517446 206.11798134 -36.1776111 191.7292794 -36.15527344 177.34057617 C-37.14527344 177.34057617 -38.13527344 177.34057617 -39.15527344 177.34057617 C-39.90713749 180.70314223 -40.28691859 183.82659757 -40.31349182 187.26972961 C-40.32328064 188.2358165 -40.33306946 189.20190338 -40.34315491 190.19726562 C-40.34891037 191.24527344 -40.35466583 192.29328125 -40.3605957 193.37304688 C-40.3704953 194.48568405 -40.3803949 195.59832123 -40.39059448 196.74467468 C-40.42215588 200.41854736 -40.44694583 204.09243296 -40.47167969 207.76635742 C-40.49225383 210.31512282 -40.51325043 212.86388485 -40.53465271 215.41264343 C-40.58418795 221.43316971 -40.62946558 227.45371342 -40.67267507 233.47428721 C-40.72211928 240.33040999 -40.77701069 247.18648579 -40.83235466 254.04256308 C-40.94604592 268.1418569 -41.05291277 282.24119586 -41.15527344 296.34057617 C-41.48527344 296.34057617 -41.81527344 296.34057617 -42.15527344 296.34057617 C-42.15527344 261.69057617 -42.15527344 227.04057617 -42.15527344 191.34057617 C-43.14527344 191.34057617 -44.13527344 191.34057617 -45.15527344 191.34057617 C-45.15527344 225.33057617 -45.15527344 259.32057617 -45.15527344 294.34057617 C-45.48527344 294.34057617 -45.81527344 294.34057617 -46.15527344 294.34057617 C-46.48527344 260.02057617 -46.81527344 225.70057617 -47.15527344 190.34057617 C-47.48527344 193.31057617 -47.81527344 196.28057617 -48.15527344 199.34057617 C-48.48527344 199.34057617 -48.81527344 199.34057617 -49.15527344 199.34057617 C-49.48527344 197.36057617 -49.81527344 195.38057617 -50.15527344 193.34057617 C-50.15527344 195.65057617 -50.15527344 197.96057617 -50.15527344 200.34057617 C-51.80527344 200.01057617 -53.45527344 199.68057617 -55.15527344 199.34057617 C-55.92849226 202.32299164 -56.56723547 205.31638092 -57.15527344 208.34057617 C-58.14527344 208.34057617 -59.13527344 208.34057617 -60.15527344 208.34057617 C-62.37018558 208.78093167 -62.37018558 208.78093167 -64.15527344 210.34057617 C-64.97397529 213.90264278 -64.97397529 213.90264278 -65.15527344 217.34057617 C-65.81527344 217.34057617 -66.47527344 217.34057617 -67.15527344 217.34057617 C-67.12433594 219.28963867 -67.12433594 219.28963867 -67.09277344 221.27807617 C-67.07127889 222.6322325 -67.08379145 223.988137 -67.15527344 225.34057617 C-67.48527344 225.67057617 -67.81527344 226.00057617 -68.15527344 226.34057617 C-69.24839844 226.27870117 -70.34152344 226.21682617 -71.46777344 226.15307617 C-75.1599994 225.98582877 -75.1599994 225.98582877 -77.46777344 228.15307617 C-78.7636082 229.83286197 -79.97846314 231.57536072 -81.15527344 233.34057617 C-81.81527344 233.34057617 -82.47527344 233.34057617 -83.15527344 233.34057617 C-83.48527344 236.31057617 -83.81527344 239.28057617 -84.15527344 242.34057617 C-85.47527344 242.34057617 -86.79527344 242.34057617 -88.15527344 242.34057617 C-89.14527344 245.31057617 -90.13527344 248.28057617 -91.15527344 251.34057617 C-92.47527344 251.34057617 -93.79527344 251.34057617 -95.15527344 251.34057617 C-98.26859592 252.00925931 -98.26859592 252.00925931 -99.34277344 254.40307617 C-99.61089844 255.04245117 -99.87902344 255.68182617 -100.15527344 256.34057617 C-100.81527344 256.34057617 -101.47527344 256.34057617 -102.15527344 256.34057617 C-102.19652344 257.00057617 -102.23777344 257.66057617 -102.28027344 258.34057617 C-103.54221532 262.66723405 -106.08535953 266.05894406 -109.15527344 269.34057617 C-109.81527344 269.34057617 -110.47527344 269.34057617 -111.15527344 269.34057617 C-111.23777344 269.95932617 -111.32027344 270.57807617 -111.40527344 271.21557617 C-111.65277344 271.91682617 -111.90027344 272.61807617 -112.15527344 273.34057617 C-112.77402344 273.60870117 -113.39277344 273.87682617 -114.03027344 274.15307617 C-116.71659715 275.65425707 -117.52720613 277.43440641 -118.62792969 280.25463867 C-119.56843698 283.9748675 -119.33148196 287.52272487 -119.15527344 291.34057617 C-122.45527344 291.34057617 -125.75527344 291.34057617 -129.15527344 291.34057617 C-129.48527344 292.66057617 -129.81527344 293.98057617 -130.15527344 295.34057617 C-131.71777344 297.09057617 -131.71777344 297.09057617 -133.15527344 298.34057617 C-131.50527344 298.34057617 -129.85527344 298.34057617 -128.15527344 298.34057617 C-128.15527344 299.99057617 -128.15527344 301.64057617 -128.15527344 303.34057617 C-164.67286657 306.66035737 -201.48709165 304.34057617 -238.15527344 304.34057617 C-238.15527344 205.01057617 -238.15527344 105.68057617 -238.15527344 3.34057617 C-203.83527344 3.34057617 -169.51527344 3.34057617 -134.15527344 3.34057617 C-133.66027344 4.33057617 -133.66027344 4.33057617 -133.15527344 5.34057617 C-133.81527344 5.34057617 -134.47527344 5.34057617 -135.15527344 5.34057617 C-135.15527344 50.88057617 -135.15527344 96.42057617 -135.15527344 143.34057617 C-134.16527344 142.68057617 -133.17527344 142.02057617 -132.15527344 141.34057617 C-131.49527344 141.01057617 -130.83527344 140.68057617 -130.15527344 140.34057617 C-130.15527344 139.68057617 -130.15527344 139.02057617 -130.15527344 138.34057617 C-129.49527344 138.34057617 -128.83527344 138.34057617 -128.15527344 138.34057617 C-128.15527344 137.35057617 -128.15527344 136.36057617 -128.15527344 135.34057617 C-127.49527344 135.34057617 -126.83527344 135.34057617 -126.15527344 135.34057617 C-125.49527344 133.69057617 -124.83527344 132.04057617 -124.15527344 130.34057617 C-123.49527344 130.34057617 -122.83527344 130.34057617 -122.15527344 130.34057617 C-122.15527344 129.68057617 -122.15527344 129.02057617 -122.15527344 128.34057617 C-121.49527344 128.34057617 -120.83527344 128.34057617 -120.15527344 128.34057617 C-119.82527344 126.69057617 -119.49527344 125.04057617 -119.15527344 123.34057617 C-117.83527344 123.01057617 -116.51527344 122.68057617 -115.15527344 122.34057617 C-115.15527344 121.35057617 -115.15527344 120.36057617 -115.15527344 119.34057617 C-113.8447272 117.98483869 -112.50778841 116.65444786 -111.15527344 115.34057617 C-110.61902344 114.43307617 -110.08277344 113.52557617 -109.53027344 112.59057617 C-109.07652344 111.84807617 -108.62277344 111.10557617 -108.15527344 110.34057617 C-107.49527344 110.34057617 -106.83527344 110.34057617 -106.15527344 110.34057617 C-105.82527344 109.35057617 -105.49527344 108.36057617 -105.15527344 107.34057617 C-103.22655957 103.758679 -101.06994164 101.15808877 -98.15527344 98.34057617 C-97.82527344 97.68057617 -97.49527344 97.02057617 -97.15527344 96.34057617 C-95.48860677 94.67390951 -93.8219401 93.00724284 -92.15527344 91.34057617 C-91.59839844 90.57745117 -91.04152344 89.81432617 -90.46777344 89.02807617 C-90.03464844 88.47120117 -89.60152344 87.91432617 -89.15527344 87.34057617 C-88.49527344 87.34057617 -87.83527344 87.34057617 -87.15527344 87.34057617 C-86.86652344 86.76307617 -86.57777344 86.18557617 -86.28027344 85.59057617 C-85.23860677 83.50724284 -84.1969401 81.42390951 -83.15527344 79.34057617 C-82.49527344 79.34057617 -81.83527344 79.34057617 -81.15527344 79.34057617 C-81.15527344 78.35057617 -81.15527344 77.36057617 -81.15527344 76.34057617 C-77.02483865 71.77535878 -77.02483865 71.77535878 -74.15527344 70.34057617 C-74.48527344 69.35057617 -74.81527344 68.36057617 -75.15527344 67.34057617 C-72.68027344 66.84557617 -72.68027344 66.84557617 -70.15527344 66.34057617 C-69.90777344 65.22682617 -69.66027344 64.11307617 -69.40527344 62.96557617 C-68.15527344 59.34057617 -68.15527344 59.34057617 -66.15527344 58.15307617 C-65.49527344 57.88495117 -64.83527344 57.61682617 -64.15527344 57.34057617 C-63.47259206 56.01537115 -62.80456933 54.68245436 -62.15527344 53.34057617 C-61.16527344 53.01057617 -60.17527344 52.68057617 -59.15527344 52.34057617 C-58.78978899 51.01569504 -58.46151684 49.68039104 -58.15527344 48.34057617 C-56.71777344 46.09057617 -56.71777344 46.09057617 -55.15527344 44.34057617 C-54.49527344 44.34057617 -53.83527344 44.34057617 -53.15527344 44.34057617 C-52.75308594 43.50526367 -52.75308594 43.50526367 -52.34277344 42.65307617 C-51.04627848 40.12832283 -49.73051021 37.70343133 -48.15527344 35.34057617 C-47.49527344 35.34057617 -46.83527344 35.34057617 -46.15527344 35.34057617 C-46.15527344 34.68057617 -46.15527344 34.02057617 -46.15527344 33.34057617 C-45.49527344 33.34057617 -44.83527344 33.34057617 -44.15527344 33.34057617 C-43.92839844 32.49495117 -43.70152344 31.64932617 -43.46777344 30.77807617 C-41.07095708 24.5007 -38.05873654 20.60301631 -32.15527344 17.34057617 C-31.74277344 16.70120117 -31.33027344 16.06182617 -30.90527344 15.40307617 C-28.4653451 12.52744635 -25.58255646 11.62763522 -22.11621094 10.27026367 C-19.98027907 9.50443084 -19.98027907 9.50443084 -19.15527344 7.34057617 C-16.83370747 6.9332839 -14.49839474 6.5961894 -12.15527344 6.34057617 C-11.82527344 5.35057617 -11.49527344 4.36057617 -11.15527344 3.34057617 C-7.75649375 -0.16534245 -4.73118206 -0.02447163 0 0 Z M265.84472656 49.34057617 C266.84472656 51.34057617 266.84472656 51.34057617 266.84472656 51.34057617 Z M70.84472656 130.34057617 C71.84472656 132.34057617 71.84472656 132.34057617 71.84472656 132.34057617 Z M-44.15527344 184.34057617 C-43.49527344 185.00057617 -42.83527344 185.66057617 -42.15527344 186.34057617 C-42.15527344 185.68057617 -42.15527344 185.02057617 -42.15527344 184.34057617 C-42.81527344 184.34057617 -43.47527344 184.34057617 -44.15527344 184.34057617 Z M-124.15527344 284.34057617 C-124.81527344 285.00057617 -125.47527344 285.66057617 -126.15527344 286.34057617 C-125.82527344 287.33057617 -125.49527344 288.32057617 -125.15527344 289.34057617 C-124.49527344 287.69057617 -123.83527344 286.04057617 -123.15527344 284.34057617 C-123.48527344 284.34057617 -123.81527344 284.34057617 -124.15527344 284.34057617 Z " fill="#1767DB" transform="translate(568.1552734375,197.659423828125)"/>
<path d="M0 0 C0.99 0.33 1.98 0.66 3 1 C3.00634791 1.93483687 3.00634791 1.93483687 3.01282406 2.88855934 C3.11618846 18.06228272 3.22483481 33.23595834 3.33933926 48.40960121 C3.39458603 55.74749819 3.44805381 63.08540004 3.49731445 70.42333984 C3.54026117 76.8200721 3.58656526 83.21676979 3.63687855 89.6134485 C3.66339521 92.9995268 3.68824577 96.38559861 3.70907402 99.77171707 C3.73318599 103.55440279 3.76323152 107.33699804 3.79467773 111.11962891 C3.8004332 112.23884735 3.80618866 113.3580658 3.81211853 114.51119995 C3.85878232 119.44402329 3.95420934 124.15392787 5 129 C3.68 129.99 2.36 130.98 1 132 C0 131 0 131 -0.12304783 128.83107662 C-0.12212604 127.86595937 -0.12120424 126.90084211 -0.12025452 125.90647888 C-0.12162918 124.80285004 -0.12300385 123.69922119 -0.12442017 122.56214905 C-0.12082489 121.34079758 -0.11722961 120.11944611 -0.11352539 118.86108398 C-0.11367142 117.58322021 -0.11381744 116.30535645 -0.1139679 114.98876953 C-0.11425585 111.47446409 -0.1083594 107.9601925 -0.10139394 104.44589496 C-0.09516012 100.77700644 -0.09455658 97.10811723 -0.09336853 93.43922424 C-0.0902553 86.48709565 -0.08204202 79.5349827 -0.07201904 72.58286101 C-0.06085766 64.6700522 -0.05534739 56.75724266 -0.05032361 48.84442794 C-0.0398594 32.56294279 -0.02226011 16.28147339 0 0 Z " fill="#0000FF" transform="translate(636,201)"/>
<path d="M0 0 C0.71274078 -0.00058411 1.42548157 -0.00116821 2.15982056 -0.00177002 C4.50312924 0.00100486 6.84514747 0.03206602 9.18823242 0.06347656 C10.81775721 0.07094114 12.44729101 0.07663305 14.076828 0.08062744 C18.35632305 0.0958669 22.63527116 0.13513365 26.91455078 0.17944336 C31.28499961 0.2204328 35.65553721 0.23864627 40.02612305 0.25878906 C48.59473283 0.30163 57.16289887 0.36986029 65.73120117 0.45410156 C66.22620117 1.44410156 66.22620117 1.44410156 66.73120117 2.45410156 C65.48331566 2.46623184 65.48331566 2.46623184 64.21022034 2.47860718 C56.33975833 2.55680402 48.46946157 2.64416887 40.5992136 2.74162865 C36.55380695 2.79140628 32.50842409 2.83773668 28.46289062 2.87597656 C24.55295515 2.91306511 20.64322822 2.95948623 16.73347282 3.01216507 C15.24771754 3.03058464 13.76191777 3.04573761 12.27609444 3.05744553 C4.49513351 3.12090787 -2.6961064 3.55775433 -10.26879883 5.45410156 C-10.92879883 5.12410156 -11.58879883 4.79410156 -12.26879883 4.45410156 C-8.1953802 0.52819461 -5.59868652 -0.03867832 0 0 Z " fill="#0001FF" transform="translate(568.268798828125,197.5458984375)"/>
<path d="M0 0 C0.99 0.33 1.98 0.66 3 1 C3 2.65 3 4.3 3 6 C2.01 6 1.02 6 0 6 C0 39.99 0 73.98 0 109 C-0.33 109 -0.66 109 -1 109 C-1.495 56.035 -1.495 56.035 -2 2 C-1.34 2 -0.68 2 0 2 C0 1.34 0 0.68 0 0 Z " fill="#0001FD" transform="translate(523,383)"/>
<path d="M0 0 C0.33 0.66 0.66 1.32 1 2 C2.98 2 4.96 2 7 2 C7 3.65 7 5.3 7 7 C4.36 7 1.72 7 -1 7 C-1 9.64 -1 12.28 -1 15 C-2.65 15 -4.3 15 -6 15 C-6.33 12.36 -6.66 9.72 -7 7 C-6.360625 6.566875 -5.72125 6.13375 -5.0625 5.6875 C-2.73253997 4.08760823 -2.73253997 4.08760823 -2 1 C-1.34 0.67 -0.68 0.34 0 0 Z " fill="#0002FF" transform="translate(796,296)"/>
<path d="M0 0 C7.59 0 15.18 0 23 0 C22.01 1.485 22.01 1.485 21 3 C20.34 3 19.68 3 19 3 C18.67 3.66 18.34 4.32 18 5 C18 4.34 18 3.68 18 3 C12.39 3 6.78 3 1 3 C0.67 2.01 0.34 1.02 0 0 Z " fill="#0000FF" transform="translate(672,261)"/>
<path d="M0 0 C0.33 0 0.66 0 1 0 C1 1.98 1 3.96 1 6 C0.34 6 -0.32 6 -1 6 C-0.979375 7.299375 -0.95875 8.59875 -0.9375 9.9375 C-0.91600546 11.29165633 -0.92851801 12.64756083 -1 14 C-2 15 -2 15 -5.5625 15.0625 C-6.696875 15.041875 -7.83125 15.02125 -9 15 C-9 13.68 -9 12.36 -9 11 C-8.34 11 -7.68 11 -7 11 C-7 10.34 -7 9.68 -7 9 C-6.34 8.34 -5.68 7.68 -5 7 C-4.67 6.34 -4.34 5.68 -4 5 C-3.34 5 -2.68 5 -2 5 C-1.34 3.35 -0.68 1.7 0 0 Z " fill="#0000FF" transform="translate(502,409)"/>
<path d="M0 0 C0.99 0.33 1.98 0.66 3 1 C3 3.97 3 6.94 3 10 C-0.3 10 -3.6 10 -7 10 C-4 6 -4 6 -2 5 C-1.27840576 3.35636866 -0.60648579 1.68949614 0 0 Z " fill="#0002FF" transform="translate(446,479)"/>
<path d="M0 0 C0.33 0.66 0.66 1.32 1 2 C3.31 2 5.62 2 8 2 C7.67 3.65 7.34 5.3 7 7 C3.7 7 0.4 7 -3 7 C-3.33 6.34 -3.66 5.68 -4 5 C-3.34 5 -2.68 5 -2 5 C-1.7834375 4.0409375 -1.7834375 4.0409375 -1.5625 3.0625 C-1 1 -1 1 0 0 Z " fill="#0002FA" transform="translate(761,339)"/>
<path d="M0 0 C0.33 0.66 0.66 1.32 1 2 C2.65 2 4.3 2 6 2 C6 3.65 6 5.3 6 7 C2.7 7 -0.6 7 -4 7 C-2.92598892 4.08482708 -2.22189824 2.22189824 0 0 Z " fill="#0000FF" transform="translate(434,494)"/>
<path d="M0 0 C0.66 0.33 1.32 0.66 2 1 C2 3.64 2 6.28 2 9 C-0.97 9 -3.94 9 -7 9 C-5.76465298 5.29395893 -3.80264776 3.66251537 -1 1 C-0.67 0.67 -0.34 0.34 0 0 Z " fill="#0002FF" transform="translate(836,246)"/>
<path d="M0 0 C0 2.64 0 5.28 0 8 C-2.31 8 -4.62 8 -7 8 C-5.84316054 5.30070793 -3.38550714 0 0 0 Z " fill="#0000FF" transform="translate(864,212)"/>
<path d="M0 0 C1.5 1.25 1.5 1.25 3 3 C3 4.32 3 5.64 3 7 C1.35 7 -0.3 7 -2 7 C-2.33 6.01 -2.66 5.02 -3 4 C-1.5625 1.8125 -1.5625 1.8125 0 0 Z " fill="#0000FF" transform="translate(671,451)"/>
<path d="M0 0 C2.1519437 3.22791555 2.20086443 4.28400809 2 8 C0.35 7.67 -1.3 7.34 -3 7 C-3 6.01 -3 5.02 -3 4 C-2.34 3.67 -1.68 3.34 -1 3 C-0.67 2.01 -0.34 1.02 0 0 Z " fill="#0000FF" transform="translate(706,407)"/>
<path d="M0 0 C0.99 0.33 1.98 0.66 3 1 C3 2.65 3 4.3 3 6 C1.02 6 -0.96 6 -3 6 C-1.125 1.125 -1.125 1.125 0 0 Z " fill="#0000FF" transform="translate(843,236)"/>
<path d="M0 0 C1.65 0 3.3 0 5 0 C5 1.32 5 2.64 5 4 C3.02 4.33 1.04 4.66 -1 5 C-1 2 -1 2 0 0 Z " fill="#000AFF" transform="translate(686,432)"/>
<path d="M0 0 C0.33 0 0.66 0 1 0 C1 2.31 1 4.62 1 7 C-0.32 7 -1.64 7 -3 7 C-3 3.4833494 -2.23600438 2.59376508 0 0 Z " fill="#0005FF" transform="translate(483,433)"/>
<path d="M0 0 C0.66 0 1.32 0 2 0 C2 2.31 2 4.62 2 7 C0.68 6.67 -0.64 6.34 -2 6 C-2 5.01 -2 4.02 -2 3 C-1.34 3 -0.68 3 0 3 C0 2.01 0 1.02 0 0 Z " fill="#0019FF" transform="translate(516,391)"/>
<path d="M0 0 C1.60031344 3.20062687 0.03173691 5.72271806 -1 9 C-1.66 9 -2.32 9 -3 9 C-3.75 7.3125 -3.75 7.3125 -4 5 C-2.0625 2.25 -2.0625 2.25 0 0 Z " fill="#0000FF" transform="translate(478,440)"/>
<path d="M0 0 C0.99 0.495 0.99 0.495 2 1 C2 3.64 2 6.28 2 9 C1.34 9 0.68 9 0 9 C0 6.03 0 3.06 0 0 Z " fill="#0000FF" transform="translate(529,492)"/>
<path d="M0 0 C2 1 2 1 2 1 Z " fill="#0000FF" transform="translate(674,281)"/>
<path d="M0 0 C2 1 2 1 2 1 Z " fill="#0000FF" transform="translate(845,235)"/>
<path d="" fill="#0000FF" transform="translate(0,0)"/>
<path d="" fill="#0000FF" transform="translate(0,0)"/>
<path d="" fill="#0000FF" transform="translate(0,0)"/>
<path d="" fill="#0000FF" transform="translate(0,0)"/>
<path d="" fill="#0000FF" transform="translate(0,0)"/>
<path d="" fill="#0000FF" transform="translate(0,0)"/>
<path d="" fill="#0000FF" transform="translate(0,0)"/>
<path d="" fill="#0000FF" transform="translate(0,0)"/>
<path d="" fill="#0000FF" transform="translate(0,0)"/>
<path d="" fill="#0000FF" transform="translate(0,0)"/>
</svg>
